<svg width="179" height="56" viewBox="0 0 179 56" fill="none" xmlns="http://www.w3.org/2000/svg">
<path d="M23 20.4141C22.7348 20.4141 22.4804 20.5194 22.2929 20.707C22.1054 20.8945 22 21.1488 22 21.4141C22 21.6793 22.1054 21.9336 22.2929 22.1212C22.4804 22.3087 22.7348 22.4141 23 22.4141H25C25.2652 22.4141 25.5196 22.3087 25.7071 22.1212C25.8946 21.9336 26 21.6793 26 21.4141C26 21.1488 25.8946 20.8945 25.7071 20.707C25.5196 20.5194 25.2652 20.4141 25 20.4141H23Z" fill="#666666"/>
<path fill-rule="evenodd" clip-rule="evenodd" d="M18 23.4141C18 22.8836 18.2107 22.3749 18.5858 21.9998C18.9609 21.6248 19.4696 21.4141 20 21.4141C20 22.2097 20.3161 22.9728 20.8787 23.5354C21.4413 24.098 22.2044 24.4141 23 24.4141H25C25.7956 24.4141 26.5587 24.098 27.1213 23.5354C27.6839 22.9728 28 22.2097 28 21.4141C28.5304 21.4141 29.0391 21.6248 29.4142 21.9998C29.7893 22.3749 30 22.8836 30 23.4141V34.4141C30 34.9445 29.7893 35.4532 29.4142 35.8283C29.0391 36.2033 28.5304 36.4141 28 36.4141H20C19.4696 36.4141 18.9609 36.2033 18.5858 35.8283C18.2107 35.4532 18 34.9445 18 34.4141V23.4141ZM21 27.4141C20.7348 27.4141 20.4804 27.5194 20.2929 27.707C20.1054 27.8945 20 28.1488 20 28.4141C20 28.6793 20.1054 28.9336 20.2929 29.1212C20.4804 29.3087 20.7348 29.4141 21 29.4141H21.01C21.2752 29.4141 21.5296 29.3087 21.7171 29.1212C21.9046 28.9336 22.01 28.6793 22.01 28.4141C22.01 28.1488 21.9046 27.8945 21.7171 27.707C21.5296 27.5194 21.2752 27.4141 21.01 27.4141H21ZM24 27.4141C23.7348 27.4141 23.4804 27.5194 23.2929 27.707C23.1054 27.8945 23 28.1488 23 28.4141C23 28.6793 23.1054 28.9336 23.2929 29.1212C23.4804 29.3087 23.7348 29.4141 24 29.4141H27C27.2652 29.4141 27.5196 29.3087 27.7071 29.1212C27.8946 28.9336 28 28.6793 28 28.4141C28 28.1488 27.8946 27.8945 27.7071 27.707C27.5196 27.5194 27.2652 27.4141 27 27.4141H24ZM21 31.4141C20.7348 31.4141 20.4804 31.5194 20.2929 31.707C20.1054 31.8945 20 32.1488 20 32.4141C20 32.6793 20.1054 32.9336 20.2929 33.1212C20.4804 33.3087 20.7348 33.4141 21 33.4141H21.01C21.2752 33.4141 21.5296 33.3087 21.7171 33.1212C21.9046 32.9336 22.01 32.6793 22.01 32.4141C22.01 32.1488 21.9046 31.8945 21.7171 31.707C21.5296 31.5194 21.2752 31.4141 21.01 31.4141H21ZM24 31.4141C23.7348 31.4141 23.4804 31.5194 23.2929 31.707C23.1054 31.8945 23 32.1488 23 32.4141C23 32.6793 23.1054 32.9336 23.2929 33.1212C23.4804 33.3087 23.7348 33.4141 24 33.4141H27C27.2652 33.4141 27.5196 33.3087 27.7071 33.1212C27.8946 32.9336 28 32.6793 28 32.4141C28 32.1488 27.8946 31.8945 27.7071 31.707C27.5196 31.5194 27.2652 31.4141 27 31.4141H24Z" fill="#666666"/>
<path d="M58.336 33.5H56.528L55.52 30.732H51.088L50.08 33.5H48.32L52.304 22.94H54.352L58.336 33.5ZM51.568 29.34H55.04L53.312 24.412L51.568 29.34ZM64.2566 33.66C63.7873 33.66 63.3553 33.5693 62.9606 33.388C62.5766 33.2067 62.2513 32.956 61.9846 32.636C61.718 32.3053 61.5206 31.9373 61.3926 31.532L61.6006 31.26L61.4726 33.5H59.9686V21.9H61.6806V27.516L61.4886 27.244C61.6913 26.6893 62.038 26.236 62.5286 25.884C63.0193 25.5213 63.6113 25.34 64.3046 25.34C64.9446 25.34 65.5313 25.5053 66.0646 25.836C66.6086 26.1667 67.0353 26.6413 67.3446 27.26C67.654 27.8787 67.8086 28.6307 67.8086 29.516C67.8086 30.38 67.6486 31.1213 67.3286 31.74C67.0193 32.3587 66.5926 32.8333 66.0486 33.164C65.5153 33.4947 64.918 33.66 64.2566 33.66ZM63.8886 32.284C64.582 32.284 65.1206 32.0387 65.5046 31.548C65.8993 31.0467 66.0966 30.364 66.0966 29.5C66.0966 28.636 65.9046 27.9587 65.5206 27.468C65.1366 26.9773 64.598 26.732 63.9046 26.732C63.4566 26.732 63.0673 26.8493 62.7366 27.084C62.406 27.308 62.1446 27.628 61.9526 28.044C61.7713 28.46 61.6806 28.956 61.6806 29.532C61.6806 30.0973 61.7713 30.588 61.9526 31.004C62.134 31.4093 62.39 31.724 62.7206 31.948C63.062 32.172 63.4513 32.284 63.8886 32.284ZM73.4719 25.34C74.2505 25.34 74.9385 25.5053 75.5359 25.836C76.1332 26.1667 76.5972 26.6467 76.9279 27.276C77.2692 27.8947 77.4399 28.636 77.4399 29.5C77.4399 30.364 77.2692 31.1107 76.9279 31.74C76.5972 32.3587 76.1332 32.8333 75.5359 33.164C74.9385 33.4947 74.2505 33.66 73.4719 33.66C72.6932 33.66 72.0052 33.4947 71.4079 33.164C70.8105 32.8333 70.3412 32.3587 69.9999 31.74C69.6585 31.1107 69.4879 30.364 69.4879 29.5C69.4879 28.636 69.6585 27.8947 69.9999 27.276C70.3412 26.6467 70.8105 26.1667 71.4079 25.836C72.0052 25.5053 72.6932 25.34 73.4719 25.34ZM73.4719 26.684C72.9919 26.684 72.5812 26.796 72.2399 27.02C71.9092 27.2333 71.6532 27.548 71.4719 27.964C71.2905 28.38 71.1999 28.892 71.1999 29.5C71.1999 30.0973 71.2905 30.6093 71.4719 31.036C71.6532 31.452 71.9092 31.772 72.2399 31.996C72.5812 32.2093 72.9919 32.316 73.4719 32.316C73.9519 32.316 74.3572 32.2093 74.6879 31.996C75.0185 31.772 75.2745 31.452 75.4559 31.036C75.6372 30.6093 75.7279 30.0973 75.7279 29.5C75.7279 28.892 75.6372 28.38 75.4559 27.964C75.2745 27.548 75.0185 27.2333 74.6879 27.02C74.3572 26.796 73.9519 26.684 73.4719 26.684ZM82.4416 33.66C81.919 33.66 81.4336 33.564 80.9856 33.372C80.5483 33.18 80.1963 32.8707 79.9296 32.444C79.663 32.0173 79.5296 31.4627 79.5296 30.78V25.5H81.2416V30.348C81.2416 31.0733 81.3963 31.5747 81.7056 31.852C82.015 32.1187 82.447 32.252 83.0016 32.252C83.2683 32.252 83.5243 32.2093 83.7696 32.124C84.0256 32.028 84.255 31.884 84.4576 31.692C84.6603 31.4893 84.815 31.2333 84.9216 30.924C85.039 30.6147 85.0976 30.252 85.0976 29.836V25.5H86.8096V33.5H85.3056L85.2256 32.204C84.9483 32.7053 84.575 33.0733 84.1056 33.308C83.6363 33.5427 83.0816 33.66 82.4416 33.66ZM91.8203 23.148V31.1C91.8203 31.4947 91.9216 31.7827 92.1243 31.964C92.3376 32.1453 92.6203 32.236 92.9723 32.236C93.2603 32.236 93.5109 32.1933 93.7243 32.108C93.9376 32.012 94.1349 31.884 94.3163 31.724L94.7003 32.972C94.4549 33.1853 94.1509 33.356 93.7883 33.484C93.4363 33.6013 93.0416 33.66 92.6043 33.66C92.1456 33.66 91.7243 33.5853 91.3403 33.436C90.9563 33.2867 90.6576 33.0467 90.4443 32.716C90.2309 32.3747 90.1189 31.932 90.1083 31.388V23.628L91.8203 23.148ZM94.5723 25.5V26.844H88.5723V25.5H94.5723Z" fill="#666666"/>
<path d="M113.005 22.94V33.5H111.005V27.996L111.117 24.908H111.085L108.157 33.5H106.349L103.437 24.908H103.405L103.517 27.996V33.5H101.517V22.94H104.717L106.621 28.7L107.293 31.084H107.325L108.013 28.716L109.901 22.94H113.005ZM123.047 25.5L119.815 33.996C119.559 34.7213 119.271 35.2973 118.951 35.724C118.642 36.1507 118.279 36.46 117.863 36.652C117.458 36.844 116.972 36.94 116.407 36.94C115.991 36.94 115.607 36.8867 115.255 36.78C114.914 36.684 114.615 36.556 114.359 36.396L114.823 34.812C115.026 34.972 115.239 35.084 115.463 35.148C115.687 35.2227 115.943 35.26 116.231 35.26C116.53 35.26 116.786 35.196 116.999 35.068C117.223 34.94 117.41 34.684 117.559 34.3L117.831 33.612L116.951 31.532L114.503 25.5H116.935L118.455 30.3L118.871 31.9L119.367 30.204L120.823 25.5H123.047ZM140.489 22.94V33.5H138.489V27.996L138.601 24.908H138.569L135.641 33.5H133.833L130.921 24.908H130.889L131.001 27.996V33.5H129.001V22.94H132.201L134.105 28.7L134.777 31.084H134.809L135.497 28.716L137.385 22.94H140.489ZM147.509 28.396C147.509 27.9373 147.376 27.58 147.109 27.324C146.853 27.068 146.512 26.94 146.085 26.94C145.69 26.94 145.344 27.0413 145.045 27.244C144.746 27.4467 144.528 27.7827 144.389 28.252L142.517 27.676C142.698 26.972 143.093 26.4067 143.701 25.98C144.32 25.5533 145.146 25.34 146.181 25.34C146.885 25.34 147.498 25.452 148.021 25.676C148.544 25.8893 148.949 26.2147 149.237 26.652C149.536 27.0893 149.685 27.6387 149.685 28.3V31.548C149.685 31.9533 149.877 32.156 150.261 32.156C150.442 32.156 150.613 32.1293 150.773 32.076L150.645 33.436C150.368 33.5747 150.021 33.644 149.605 33.644C149.232 33.644 148.896 33.58 148.597 33.452C148.298 33.324 148.064 33.132 147.893 32.876C147.722 32.6093 147.637 32.2787 147.637 31.884V31.82L148.021 31.756C147.957 32.1613 147.781 32.508 147.493 32.796C147.205 33.0733 146.853 33.2867 146.437 33.436C146.032 33.5853 145.61 33.66 145.173 33.66C144.629 33.66 144.16 33.58 143.765 33.42C143.37 33.2493 143.066 33.004 142.853 32.684C142.64 32.364 142.533 31.9693 142.533 31.5C142.533 30.9027 142.725 30.4173 143.109 30.044C143.493 29.66 144.042 29.3987 144.757 29.26L147.765 28.652L147.749 30.012L145.829 30.396C145.466 30.4707 145.189 30.572 144.997 30.7C144.816 30.8173 144.725 31.0147 144.725 31.292C144.725 31.5587 144.821 31.7613 145.013 31.9C145.216 32.0387 145.456 32.108 145.733 32.108C145.957 32.108 146.176 32.0813 146.389 32.028C146.602 31.9747 146.794 31.8893 146.965 31.772C147.136 31.6547 147.269 31.4947 147.365 31.292C147.461 31.0893 147.509 30.844 147.509 30.556V28.396ZM154.656 23.052V30.892C154.656 31.276 154.752 31.5587 154.944 31.74C155.147 31.9107 155.419 31.996 155.76 31.996C156.027 31.996 156.261 31.9587 156.464 31.884C156.667 31.7987 156.848 31.6867 157.008 31.548L157.36 33.004C157.104 33.2067 156.784 33.3667 156.4 33.484C156.016 33.6013 155.611 33.66 155.184 33.66C154.651 33.66 154.176 33.58 153.76 33.42C153.355 33.26 153.035 33.004 152.8 32.652C152.576 32.3 152.464 31.8307 152.464 31.244V23.66L154.656 23.052ZM157.216 25.5V27.132H150.992V25.5H157.216ZM162.411 33.66C161.568 33.66 160.832 33.4947 160.203 33.164C159.584 32.8333 159.104 32.3587 158.763 31.74C158.422 31.1213 158.251 30.3747 158.251 29.5C158.251 28.6253 158.422 27.8787 158.763 27.26C159.104 26.6413 159.579 26.1667 160.187 25.836C160.806 25.5053 161.51 25.34 162.299 25.34C163.11 25.34 163.798 25.5053 164.363 25.836C164.928 26.156 165.36 26.5987 165.659 27.164C165.958 27.7187 166.107 28.3533 166.107 29.068C166.107 29.2813 166.102 29.484 166.091 29.676C166.08 29.868 166.064 30.0387 166.043 30.188H159.659V28.668H165.083L164.027 29.052C164.027 28.38 163.872 27.8627 163.563 27.5C163.264 27.1373 162.838 26.956 162.283 26.956C161.878 26.956 161.526 27.052 161.227 27.244C160.939 27.436 160.72 27.724 160.571 28.108C160.422 28.4813 160.347 28.956 160.347 29.532C160.347 30.0973 160.427 30.5667 160.587 30.94C160.758 31.3027 160.992 31.5747 161.291 31.756C161.6 31.9373 161.968 32.028 162.395 32.028C162.864 32.028 163.243 31.9373 163.531 31.756C163.819 31.5747 164.043 31.324 164.203 31.004L165.947 31.676C165.776 32.092 165.515 32.4493 165.163 32.748C164.822 33.0467 164.411 33.276 163.931 33.436C163.462 33.5853 162.955 33.66 162.411 33.66Z" fill="#7D67EE"/>
</svg>
