<svg width="140" height="78" viewBox="0 0 140 78" fill="none" xmlns="http://www.w3.org/2000/svg">
<rect x="0.5" width="139.5" height="78" rx="15" fill="#F5F5F7"/>
<circle cx="121" cy="20" r="15" fill="#FEFEFA"/>
<path fill-rule="evenodd" clip-rule="evenodd" d="M126.77 15.1742C126.981 15.384 127.103 15.6652 127.11 15.956L127.228 20.6078C127.234 20.7534 127.212 20.8975 127.161 21.0316C127.111 21.1657 127.033 21.2872 126.934 21.3889C126.834 21.4907 126.715 21.5707 126.582 21.6243C126.449 21.6778 126.306 21.7039 126.16 21.7009C126.014 21.6979 125.87 21.666 125.734 21.607C125.598 21.5479 125.474 21.463 125.37 21.3571C125.265 21.2511 125.182 21.1264 125.124 20.9901C125.067 20.8537 125.037 20.7086 125.035 20.5631L124.945 17.0075L121.39 16.935C121.244 16.9346 121.099 16.9052 120.962 16.8485C120.826 16.7917 120.7 16.7089 120.594 16.6047C120.487 16.5005 120.402 16.3772 120.342 16.2417C120.283 16.1063 120.25 15.9616 120.246 15.816C120.243 15.6704 120.268 15.5269 120.321 15.3938C120.374 15.2607 120.453 15.1406 120.554 15.0407C120.656 14.9408 120.777 14.8629 120.911 14.8117C121.044 14.7605 121.188 14.737 121.334 14.7425L125.986 14.8374C126.277 14.8433 126.559 14.9644 126.77 15.1742ZM116.799 19.2994C117.09 19.3054 117.372 19.4266 117.583 19.6364C117.794 19.8461 117.916 20.1273 117.924 20.418L118.014 23.9735L121.57 24.0461C121.715 24.0465 121.86 24.0759 121.997 24.1326C122.134 24.1894 122.259 24.2722 122.365 24.3764C122.472 24.4806 122.557 24.6039 122.617 24.7394C122.677 24.8748 122.709 25.0195 122.713 25.1651C122.717 25.3107 122.691 25.4542 122.638 25.5873C122.585 25.7204 122.506 25.8405 122.405 25.9404C122.303 26.0403 122.182 26.1182 122.048 26.1694C121.915 26.2206 121.771 26.2441 121.625 26.2386L116.973 26.1437C116.682 26.1378 116.4 26.0166 116.189 25.8068C115.979 25.597 115.856 25.3158 115.849 25.0251L115.731 20.3733C115.724 20.0826 115.832 19.8061 116.032 19.6047C116.233 19.4034 116.509 19.2935 116.799 19.2994Z" fill="#666666" fill-opacity="0.5"/>
<path d="M19.608 68H18.588L17.748 65.804H14.16L13.32 68H12.312L15.396 60.08H16.536L19.608 68ZM14.508 64.904H17.4L15.948 61.004L14.508 64.904ZM23.9779 68.12C23.6419 68.12 23.3299 68.06 23.0419 67.94C22.7539 67.82 22.5059 67.652 22.2979 67.436C22.0899 67.22 21.9339 66.976 21.8299 66.704L21.9619 66.536L21.8779 68H21.0379V59.24H21.9979V63.356L21.8779 63.176C22.0379 62.8 22.3059 62.492 22.6819 62.252C23.0659 62.004 23.5019 61.88 23.9899 61.88C24.4859 61.88 24.9419 62.004 25.3579 62.252C25.7739 62.5 26.1059 62.856 26.3539 63.32C26.6019 63.784 26.7259 64.344 26.7259 65C26.7259 65.648 26.5979 66.208 26.3419 66.68C26.0939 67.144 25.7619 67.5 25.3459 67.748C24.9299 67.996 24.4739 68.12 23.9779 68.12ZM23.8819 67.28C24.4739 67.28 24.9339 67.072 25.2619 66.656C25.5979 66.24 25.7659 65.688 25.7659 65C25.7659 64.312 25.6019 63.76 25.2739 63.344C24.9459 62.928 24.4859 62.72 23.8939 62.72C23.5179 62.72 23.1859 62.816 22.8979 63.008C22.6179 63.2 22.3979 63.468 22.2379 63.812C22.0779 64.156 21.9979 64.56 21.9979 65.024C21.9979 65.48 22.0739 65.88 22.2259 66.224C22.3859 66.56 22.6059 66.82 22.8859 67.004C23.1739 67.188 23.5059 67.28 23.8819 67.28ZM31.0453 61.88C31.6133 61.88 32.1133 62.004 32.5453 62.252C32.9853 62.5 33.3293 62.86 33.5773 63.332C33.8253 63.796 33.9493 64.352 33.9493 65C33.9493 65.648 33.8253 66.208 33.5773 66.68C33.3293 67.144 32.9853 67.5 32.5453 67.748C32.1133 67.996 31.6133 68.12 31.0453 68.12C30.4853 68.12 29.9853 67.996 29.5453 67.748C29.1053 67.5 28.7613 67.144 28.5133 66.68C28.2653 66.208 28.1413 65.648 28.1413 65C28.1413 64.352 28.2653 63.796 28.5133 63.332C28.7613 62.86 29.1053 62.5 29.5453 62.252C29.9853 62.004 30.4853 61.88 31.0453 61.88ZM31.0453 62.708C30.6373 62.708 30.2893 62.8 30.0013 62.984C29.7133 63.168 29.4893 63.432 29.3293 63.776C29.1773 64.112 29.1013 64.52 29.1013 65C29.1013 65.472 29.1773 65.88 29.3293 66.224C29.4893 66.568 29.7133 66.832 30.0013 67.016C30.2893 67.2 30.6373 67.292 31.0453 67.292C31.4533 67.292 31.8013 67.2 32.0893 67.016C32.3773 66.832 32.5973 66.568 32.7493 66.224C32.9093 65.88 32.9893 65.472 32.9893 65C32.9893 64.52 32.9093 64.112 32.7493 63.776C32.5973 63.432 32.3773 63.168 32.0893 62.984C31.8013 62.8 31.4533 62.708 31.0453 62.708ZM37.9286 68.12C37.5446 68.12 37.1806 68.048 36.8366 67.904C36.5006 67.76 36.2246 67.528 36.0086 67.208C35.8006 66.88 35.6966 66.456 35.6966 65.936V62H36.6566V65.684C36.6566 66.292 36.7886 66.712 37.0526 66.944C37.3166 67.168 37.6886 67.28 38.1686 67.28C38.3926 67.28 38.6126 67.244 38.8286 67.172C39.0446 67.092 39.2366 66.972 39.4046 66.812C39.5806 66.644 39.7166 66.432 39.8126 66.176C39.9166 65.92 39.9686 65.616 39.9686 65.264V62H40.9286V68H40.0886L40.0286 67.088C39.8206 67.448 39.5366 67.712 39.1766 67.88C38.8246 68.04 38.4086 68.12 37.9286 68.12ZM44.5789 60.296V66.344C44.5789 66.64 44.6629 66.86 44.8309 67.004C44.9989 67.148 45.2149 67.22 45.4789 67.22C45.7109 67.22 45.9109 67.18 46.0789 67.1C46.2469 67.02 46.3989 66.912 46.5349 66.776L46.8709 67.58C46.6869 67.748 46.4669 67.88 46.2109 67.976C45.9629 68.072 45.6749 68.12 45.3469 68.12C45.0429 68.12 44.7589 68.068 44.4949 67.964C44.2309 67.852 44.0189 67.68 43.8589 67.448C43.7069 67.208 43.6269 66.896 43.6189 66.512V60.56L44.5789 60.296ZM46.7629 62V62.828H42.4189V62H46.7629ZM52.2801 68V62H53.1201L53.1801 62.936C53.3961 62.568 53.6761 62.3 54.0201 62.132C54.3721 61.964 54.7321 61.88 55.1001 61.88C55.5241 61.88 55.9241 61.976 56.3001 62.168C56.6761 62.36 56.9641 62.656 57.1641 63.056C57.2921 62.784 57.4721 62.564 57.7041 62.396C57.9361 62.22 58.1881 62.092 58.4601 62.012C58.7401 61.924 59.0041 61.88 59.2521 61.88C59.6361 61.88 60.0001 61.96 60.3441 62.12C60.6961 62.28 60.9841 62.528 61.2081 62.864C61.4321 63.2 61.5441 63.632 61.5441 64.16V68H60.5841V64.256C60.5841 63.712 60.4481 63.32 60.1761 63.08C59.9041 62.84 59.5681 62.72 59.1681 62.72C58.8561 62.72 58.5641 62.796 58.2921 62.948C58.0201 63.1 57.8001 63.324 57.6321 63.62C57.4721 63.916 57.3921 64.28 57.3921 64.712V68H56.4321V64.256C56.4321 63.712 56.2961 63.32 56.0241 63.08C55.7521 62.84 55.4161 62.72 55.0161 62.72C54.7521 62.72 54.4801 62.792 54.2001 62.936C53.9281 63.072 53.7001 63.292 53.5161 63.596C53.3321 63.9 53.2401 64.3 53.2401 64.796V68H52.2801ZM66.2256 68.12C65.6576 68.12 65.1496 67.996 64.7016 67.748C64.2616 67.5 63.9176 67.144 63.6696 66.68C63.4216 66.208 63.2976 65.648 63.2976 65C63.2976 64.352 63.4216 63.796 63.6696 63.332C63.9176 62.86 64.2576 62.5 64.6896 62.252C65.1216 62.004 65.6136 61.88 66.1656 61.88C66.7256 61.88 67.2016 62 67.5936 62.24C67.9936 62.48 68.2976 62.808 68.5056 63.224C68.7136 63.632 68.8176 64.092 68.8176 64.604C68.8176 64.74 68.8136 64.864 68.8056 64.976C68.7976 65.088 68.7856 65.188 68.7696 65.276H63.9216V64.424H68.3496L67.8576 64.52C67.8576 63.944 67.6976 63.5 67.3776 63.188C67.0656 62.876 66.6536 62.72 66.1416 62.72C65.7496 62.72 65.4096 62.812 65.1216 62.996C64.8416 63.172 64.6216 63.432 64.4616 63.776C64.3096 64.112 64.2336 64.52 64.2336 65C64.2336 65.472 64.3136 65.88 64.4736 66.224C64.6336 66.568 64.8576 66.832 65.1456 67.016C65.4416 67.192 65.7936 67.28 66.2016 67.28C66.6416 67.28 66.9976 67.196 67.2696 67.028C67.5496 66.86 67.7736 66.632 67.9416 66.344L68.6976 66.788C68.5456 67.06 68.3496 67.296 68.1096 67.496C67.8776 67.696 67.6016 67.852 67.2816 67.964C66.9696 68.068 66.6176 68.12 66.2256 68.12Z" fill="#666666"/>
<path fill-rule="evenodd" clip-rule="evenodd" d="M14.8359 40.9991C15.3713 40.3856 16.0974 40.0409 16.8544 40.0409C17.6115 40.0409 18.3375 40.3856 18.8729 40.9991L19.7094 41.9572L20.5459 40.9991C20.8093 40.6865 21.1243 40.4372 21.4727 40.2657C21.821 40.0942 22.1956 40.0039 22.5747 40.0001C22.9538 39.9963 23.3298 40.0792 23.6806 40.2437C24.0315 40.4083 24.3503 40.6513 24.6183 40.9586C24.8864 41.2658 25.0984 41.6313 25.2419 42.0335C25.3855 42.4357 25.4577 42.8666 25.4544 43.3012C25.4511 43.7357 25.3724 44.1652 25.2228 44.5644C25.0731 44.9637 24.8556 45.3249 24.5829 45.6268L19.7094 51.2141L14.8359 45.6268C14.3007 45.013 14 44.1808 14 43.3129C14 42.4451 14.3007 41.6129 14.8359 40.9991Z" fill="#666666"/>
</svg>
