<svg width="197" height="56" viewBox="0 0 197 56" fill="none" xmlns="http://www.w3.org/2000/svg">
<path fill-rule="evenodd" clip-rule="evenodd" d="M24 26.4141C24.5933 26.4141 25.1734 26.2381 25.6667 25.9085C26.1601 25.5788 26.5446 25.1103 26.7716 24.5621C26.9987 24.0139 27.0581 23.4107 26.9424 22.8288C26.8266 22.2469 26.5409 21.7123 26.1213 21.2927C25.7018 20.8732 25.1672 20.5875 24.5853 20.4717C24.0033 20.356 23.4001 20.4154 22.8519 20.6424C22.3038 20.8695 21.8352 21.254 21.5056 21.7474C21.1759 22.2407 21 22.8207 21 23.4141C21 24.2097 21.3161 24.9728 21.8787 25.5354C22.4413 26.098 23.2044 26.4141 24 26.4141ZM17 35.4141C17 33.5575 17.7375 31.7771 19.0503 30.4643C20.363 29.1516 22.1435 28.4141 24 28.4141C25.8565 28.4141 27.637 29.1516 28.9497 30.4643C30.2625 31.7771 31 33.5575 31 35.4141H17Z" fill="#666666"/>
<path d="M58.336 33.5H56.528L55.52 30.732H51.088L50.08 33.5H48.32L52.304 22.94H54.352L58.336 33.5ZM51.568 29.34H55.04L53.312 24.412L51.568 29.34ZM63.2528 25.34C63.8928 25.34 64.4368 25.436 64.8848 25.628C65.3434 25.8093 65.7274 26.0707 66.0368 26.412C66.3461 26.7533 66.5808 27.1427 66.7408 27.58L65.1248 28.22C64.9861 27.7293 64.7621 27.356 64.4528 27.1C64.1541 26.8333 63.7594 26.7 63.2688 26.7C62.7888 26.7 62.3781 26.812 62.0368 27.036C61.6954 27.2493 61.4341 27.564 61.2528 27.98C61.0821 28.396 60.9968 28.908 60.9968 29.516C60.9968 30.1133 61.0874 30.62 61.2688 31.036C61.4501 31.452 61.7114 31.7667 62.0528 31.98C62.3941 32.1933 62.7994 32.3 63.2688 32.3C63.6314 32.3 63.9461 32.2413 64.2128 32.124C64.4794 31.996 64.6981 31.82 64.8688 31.596C65.0501 31.3613 65.1728 31.0787 65.2368 30.748L66.7888 31.276C66.6394 31.756 66.4048 32.1773 66.0848 32.54C65.7754 32.892 65.3861 33.1693 64.9168 33.372C64.4474 33.564 63.9088 33.66 63.3008 33.66C62.5114 33.66 61.8128 33.4947 61.2048 33.164C60.5968 32.8333 60.1221 32.3587 59.7808 31.74C59.4501 31.1107 59.2848 30.364 59.2848 29.5C59.2848 28.636 59.4501 27.8947 59.7808 27.276C60.1221 26.6467 60.5914 26.1667 61.1888 25.836C61.7968 25.5053 62.4848 25.34 63.2528 25.34ZM72.2371 25.34C72.8771 25.34 73.4211 25.436 73.8691 25.628C74.3278 25.8093 74.7118 26.0707 75.0211 26.412C75.3305 26.7533 75.5651 27.1427 75.7251 27.58L74.1091 28.22C73.9705 27.7293 73.7465 27.356 73.4371 27.1C73.1385 26.8333 72.7438 26.7 72.2531 26.7C71.7731 26.7 71.3625 26.812 71.0211 27.036C70.6798 27.2493 70.4185 27.564 70.2371 27.98C70.0665 28.396 69.9811 28.908 69.9811 29.516C69.9811 30.1133 70.0718 30.62 70.2531 31.036C70.4345 31.452 70.6958 31.7667 71.0371 31.98C71.3785 32.1933 71.7838 32.3 72.2531 32.3C72.6158 32.3 72.9305 32.2413 73.1971 32.124C73.4638 31.996 73.6825 31.82 73.8531 31.596C74.0345 31.3613 74.1571 31.0787 74.2211 30.748L75.7731 31.276C75.6238 31.756 75.3891 32.1773 75.0691 32.54C74.7598 32.892 74.3705 33.1693 73.9011 33.372C73.4318 33.564 72.8931 33.66 72.2851 33.66C71.4958 33.66 70.7971 33.4947 70.1891 33.164C69.5811 32.8333 69.1065 32.3587 68.7651 31.74C68.4345 31.1107 68.2691 30.364 68.2691 29.5C68.2691 28.636 68.4345 27.8947 68.7651 27.276C69.1065 26.6467 69.5758 26.1667 70.1731 25.836C70.7811 25.5053 71.4691 25.34 72.2371 25.34ZM81.2375 25.34C82.0162 25.34 82.7042 25.5053 83.3015 25.836C83.8988 26.1667 84.3628 26.6467 84.6935 27.276C85.0348 27.8947 85.2055 28.636 85.2055 29.5C85.2055 30.364 85.0348 31.1107 84.6935 31.74C84.3628 32.3587 83.8988 32.8333 83.3015 33.164C82.7042 33.4947 82.0162 33.66 81.2375 33.66C80.4588 33.66 79.7708 33.4947 79.1735 33.164C78.5762 32.8333 78.1068 32.3587 77.7655 31.74C77.4242 31.1107 77.2535 30.364 77.2535 29.5C77.2535 28.636 77.4242 27.8947 77.7655 27.276C78.1068 26.6467 78.5762 26.1667 79.1735 25.836C79.7708 25.5053 80.4588 25.34 81.2375 25.34ZM81.2375 26.684C80.7575 26.684 80.3468 26.796 80.0055 27.02C79.6748 27.2333 79.4188 27.548 79.2375 27.964C79.0562 28.38 78.9655 28.892 78.9655 29.5C78.9655 30.0973 79.0562 30.6093 79.2375 31.036C79.4188 31.452 79.6748 31.772 80.0055 31.996C80.3468 32.2093 80.7575 32.316 81.2375 32.316C81.7175 32.316 82.1228 32.2093 82.4535 31.996C82.7842 31.772 83.0402 31.452 83.2215 31.036C83.4028 30.6093 83.4935 30.0973 83.4935 29.5C83.4935 28.892 83.4028 28.38 83.2215 27.964C83.0402 27.548 82.7842 27.2333 82.4535 27.02C82.1228 26.796 81.7175 26.684 81.2375 26.684ZM90.2073 33.66C89.6846 33.66 89.1993 33.564 88.7513 33.372C88.3139 33.18 87.9619 32.8707 87.6953 32.444C87.4286 32.0173 87.2953 31.4627 87.2953 30.78V25.5H89.0073V30.348C89.0073 31.0733 89.1619 31.5747 89.4713 31.852C89.7806 32.1187 90.2126 32.252 90.7673 32.252C91.0339 32.252 91.2899 32.2093 91.5353 32.124C91.7913 32.028 92.0206 31.884 92.2233 31.692C92.4259 31.4893 92.5806 31.2333 92.6873 30.924C92.8046 30.6147 92.8633 30.252 92.8633 29.836V25.5H94.5753V33.5H93.0713L92.9913 32.204C92.7139 32.7053 92.3406 33.0733 91.8713 33.308C91.4019 33.5427 90.8473 33.66 90.2073 33.66ZM97.2499 33.5V25.5H98.7699L98.8819 27.58L98.6579 27.356C98.8072 26.8973 99.0205 26.5187 99.2979 26.22C99.5859 25.9107 99.9219 25.6867 100.306 25.548C100.701 25.4093 101.117 25.34 101.554 25.34C102.119 25.34 102.626 25.452 103.074 25.676C103.533 25.8893 103.895 26.2147 104.162 26.652C104.429 27.0893 104.562 27.644 104.562 28.316V33.5H102.85V28.844C102.85 28.0547 102.685 27.5107 102.354 27.212C102.034 26.9027 101.629 26.748 101.138 26.748C100.786 26.748 100.445 26.8333 100.114 27.004C99.7832 27.164 99.5059 27.4253 99.2819 27.788C99.0685 28.1507 98.9619 28.636 98.9619 29.244V33.5H97.2499ZM109.398 23.148V31.1C109.398 31.4947 109.5 31.7827 109.702 31.964C109.916 32.1453 110.198 32.236 110.55 32.236C110.838 32.236 111.089 32.1933 111.302 32.108C111.516 32.012 111.713 31.884 111.894 31.724L112.278 32.972C112.033 33.1853 111.729 33.356 111.366 33.484C111.014 33.6013 110.62 33.66 110.182 33.66C109.724 33.66 109.302 33.5853 108.918 33.436C108.534 33.2867 108.236 33.0467 108.022 32.716C107.809 32.3747 107.697 31.932 107.686 31.388V23.628L109.398 23.148ZM112.15 25.5V26.844H106.15V25.5H112.15ZM121.847 33.66C121.132 33.66 120.513 33.5427 119.991 33.308C119.479 33.0627 119.079 32.7267 118.791 32.3C118.513 31.8733 118.375 31.372 118.375 30.796C118.375 30.4653 118.417 30.1507 118.503 29.852C118.599 29.5427 118.748 29.2493 118.951 28.972C119.164 28.684 119.452 28.4227 119.815 28.188C120.177 27.9427 120.631 27.7293 121.175 27.548L121.799 27.276C122.225 27.0307 122.567 26.8067 122.823 26.604C123.089 26.4013 123.281 26.188 123.399 25.964C123.527 25.74 123.591 25.4787 123.591 25.18C123.591 24.828 123.484 24.556 123.271 24.364C123.057 24.172 122.775 24.076 122.423 24.076C122.007 24.076 121.692 24.1933 121.479 24.428C121.276 24.652 121.175 24.924 121.175 25.244C121.175 25.436 121.201 25.6227 121.255 25.804C121.319 25.9853 121.436 26.2093 121.607 26.476C121.788 26.7427 122.049 27.0947 122.391 27.532C122.732 27.9587 123.196 28.524 123.783 29.228C124.359 29.9213 124.839 30.4867 125.223 30.924C125.617 31.3507 125.953 31.676 126.231 31.9C126.508 32.1133 126.764 32.2573 126.999 32.332C127.244 32.396 127.516 32.4227 127.815 32.412L127.527 33.66C127.185 33.66 126.865 33.6227 126.567 33.548C126.279 33.484 125.964 33.3347 125.623 33.1C125.292 32.8653 124.897 32.5133 124.439 32.044C123.991 31.5747 123.436 30.9507 122.775 30.172C122.156 29.4467 121.639 28.8387 121.223 28.348C120.817 27.8467 120.497 27.4253 120.263 27.084C120.039 26.732 119.879 26.4173 119.783 26.14C119.687 25.852 119.639 25.548 119.639 25.228C119.639 24.8333 119.74 24.4493 119.943 24.076C120.145 23.692 120.449 23.3827 120.855 23.148C121.271 22.9027 121.809 22.78 122.471 22.78C123.004 22.78 123.457 22.876 123.831 23.068C124.204 23.26 124.492 23.5267 124.695 23.868C124.897 24.1987 124.999 24.5827 124.999 25.02C124.999 25.4253 124.924 25.804 124.775 26.156C124.625 26.508 124.359 26.844 123.975 27.164C123.601 27.484 123.068 27.7987 122.375 28.108L121.847 28.332C121.356 28.5773 120.972 28.812 120.695 29.036C120.417 29.26 120.22 29.5 120.103 29.756C119.985 30.0013 119.927 30.3 119.927 30.652C119.927 31.0147 120.017 31.3293 120.199 31.596C120.391 31.852 120.647 32.0493 120.967 32.188C121.287 32.3267 121.644 32.396 122.039 32.396C122.604 32.396 123.084 32.3 123.479 32.108C123.873 31.9053 124.241 31.628 124.583 31.276L124.807 31.036C125.063 30.6307 125.26 30.172 125.399 29.66C125.548 29.148 125.596 28.5667 125.543 27.916L126.871 27.996C126.892 28.6787 126.801 29.34 126.599 29.98C126.407 30.62 126.108 31.196 125.703 31.708L125.383 32.06C124.999 32.5507 124.513 32.94 123.927 33.228C123.34 33.516 122.647 33.66 121.847 33.66ZM138.168 22.78C139.117 22.78 139.939 22.9613 140.632 23.324C141.325 23.676 141.912 24.1987 142.392 24.892L141.24 25.996C140.835 25.3773 140.376 24.9347 139.864 24.668C139.363 24.3907 138.765 24.252 138.072 24.252C137.56 24.252 137.139 24.3213 136.808 24.46C136.477 24.5987 136.232 24.7853 136.072 25.02C135.923 25.244 135.848 25.5 135.848 25.788C135.848 26.1187 135.96 26.4067 136.184 26.652C136.419 26.8973 136.851 27.0893 137.48 27.228L139.624 27.708C140.648 27.932 141.373 28.2733 141.8 28.732C142.227 29.1907 142.44 29.772 142.44 30.476C142.44 31.1267 142.264 31.692 141.912 32.172C141.56 32.652 141.069 33.02 140.44 33.276C139.821 33.532 139.091 33.66 138.248 33.66C137.501 33.66 136.829 33.564 136.232 33.372C135.635 33.18 135.112 32.9187 134.664 32.588C134.216 32.2573 133.848 31.8787 133.56 31.452L134.744 30.268C134.968 30.6413 135.251 30.9773 135.592 31.276C135.933 31.564 136.328 31.788 136.776 31.948C137.235 32.108 137.741 32.188 138.296 32.188C138.787 32.188 139.208 32.1293 139.56 32.012C139.923 31.8947 140.195 31.724 140.376 31.5C140.568 31.2653 140.664 30.988 140.664 30.668C140.664 30.3587 140.557 30.0867 140.344 29.852C140.141 29.6173 139.757 29.436 139.192 29.308L136.872 28.78C136.232 28.6413 135.704 28.444 135.288 28.188C134.872 27.932 134.563 27.6227 134.36 27.26C134.157 26.8867 134.056 26.4707 134.056 26.012C134.056 25.4147 134.216 24.876 134.536 24.396C134.867 23.9053 135.341 23.516 135.96 23.228C136.579 22.9293 137.315 22.78 138.168 22.78ZM146.93 23.148V31.1C146.93 31.4947 147.031 31.7827 147.234 31.964C147.447 32.1453 147.73 32.236 148.082 32.236C148.37 32.236 148.62 32.1933 148.834 32.108C149.047 32.012 149.244 31.884 149.426 31.724L149.81 32.972C149.564 33.1853 149.26 33.356 148.898 33.484C148.546 33.6013 148.151 33.66 147.714 33.66C147.255 33.66 146.834 33.5853 146.45 33.436C146.066 33.2867 145.767 33.0467 145.554 32.716C145.34 32.3747 145.228 31.932 145.218 31.388V23.628L146.93 23.148ZM149.682 25.5V26.844H143.682V25.5H149.682ZM156.046 28.364C156.046 27.8307 155.896 27.42 155.598 27.132C155.31 26.8333 154.91 26.684 154.398 26.684C153.918 26.684 153.507 26.796 153.166 27.02C152.824 27.244 152.574 27.6067 152.414 28.108L150.974 27.5C151.176 26.8493 151.571 26.3267 152.158 25.932C152.755 25.5373 153.523 25.34 154.462 25.34C155.102 25.34 155.667 25.4467 156.158 25.66C156.648 25.8627 157.032 26.172 157.31 26.588C157.598 27.004 157.742 27.5373 157.742 28.188V31.756C157.742 32.1507 157.939 32.348 158.334 32.348C158.526 32.348 158.712 32.3213 158.894 32.268L158.798 33.452C158.552 33.5693 158.243 33.628 157.87 33.628C157.528 33.628 157.219 33.5693 156.942 33.452C156.675 33.324 156.462 33.1373 156.302 32.892C156.152 32.636 156.078 32.3213 156.078 31.948V31.836L156.43 31.82C156.334 32.236 156.136 32.5827 155.838 32.86C155.539 33.1267 155.192 33.3293 154.798 33.468C154.403 33.596 154.003 33.66 153.598 33.66C153.096 33.66 152.643 33.58 152.238 33.42C151.843 33.26 151.528 33.02 151.294 32.7C151.07 32.3693 150.958 31.964 150.958 31.484C150.958 30.8867 151.15 30.396 151.534 30.012C151.928 29.628 152.483 29.3667 153.198 29.228L156.302 28.62L156.286 29.82L154.03 30.284C153.582 30.3693 153.246 30.492 153.022 30.652C152.798 30.812 152.686 31.0467 152.686 31.356C152.686 31.6547 152.798 31.8947 153.022 32.076C153.256 32.2467 153.566 32.332 153.95 32.332C154.216 32.332 154.472 32.3 154.718 32.236C154.974 32.172 155.203 32.0707 155.406 31.932C155.608 31.7827 155.763 31.596 155.87 31.372C155.987 31.1373 156.046 30.86 156.046 30.54V28.364ZM162.57 23.148V31.1C162.57 31.4947 162.672 31.7827 162.874 31.964C163.088 32.1453 163.37 32.236 163.722 32.236C164.01 32.236 164.261 32.1933 164.474 32.108C164.688 32.012 164.885 31.884 165.066 31.724L165.45 32.972C165.205 33.1853 164.901 33.356 164.538 33.484C164.186 33.6013 163.792 33.66 163.354 33.66C162.896 33.66 162.474 33.5853 162.09 33.436C161.706 33.2867 161.408 33.0467 161.194 32.716C160.981 32.3747 160.869 31.932 160.858 31.388V23.628L162.57 23.148ZM165.322 25.5V26.844H159.322V25.5H165.322ZM169.864 33.66C169.341 33.66 168.856 33.564 168.408 33.372C167.97 33.18 167.618 32.8707 167.352 32.444C167.085 32.0173 166.952 31.4627 166.952 30.78V25.5H168.664V30.348C168.664 31.0733 168.818 31.5747 169.128 31.852C169.437 32.1187 169.869 32.252 170.424 32.252C170.69 32.252 170.946 32.2093 171.192 32.124C171.448 32.028 171.677 31.884 171.88 31.692C172.082 31.4893 172.237 31.2333 172.344 30.924C172.461 30.6147 172.52 30.252 172.52 29.836V25.5H174.232V33.5H172.728L172.648 32.204C172.37 32.7053 171.997 33.0733 171.528 33.308C171.058 33.5427 170.504 33.66 169.864 33.66ZM179.946 33.66C179.146 33.66 178.415 33.5053 177.754 33.196C177.093 32.8867 176.57 32.4493 176.186 31.884L177.37 30.86C177.605 31.2973 177.941 31.6493 178.378 31.916C178.826 32.172 179.359 32.3 179.978 32.3C180.469 32.3 180.858 32.2147 181.146 32.044C181.434 31.8733 181.578 31.6333 181.578 31.324C181.578 31.1213 181.509 30.9453 181.37 30.796C181.242 30.636 180.991 30.5133 180.618 30.428L178.938 30.076C178.085 29.9053 177.477 29.6333 177.114 29.26C176.751 28.876 176.57 28.3907 176.57 27.804C176.57 27.3667 176.698 26.9613 176.954 26.588C177.21 26.2147 177.583 25.916 178.074 25.692C178.575 25.4573 179.173 25.34 179.866 25.34C180.666 25.34 181.349 25.484 181.914 25.772C182.479 26.0493 182.911 26.4493 183.21 26.972L182.026 27.964C181.823 27.5373 181.525 27.2227 181.13 27.02C180.735 26.8067 180.325 26.7 179.898 26.7C179.557 26.7 179.263 26.7427 179.018 26.828C178.773 26.9133 178.586 27.0307 178.458 27.18C178.33 27.3293 178.266 27.5053 178.266 27.708C178.266 27.9213 178.346 28.108 178.506 28.268C178.666 28.428 178.954 28.5507 179.37 28.636L181.194 29.02C181.962 29.1693 182.501 29.4253 182.81 29.788C183.13 30.14 183.29 30.572 183.29 31.084C183.29 31.596 183.157 32.0493 182.89 32.444C182.623 32.828 182.239 33.1267 181.738 33.34C181.237 33.5533 180.639 33.66 179.946 33.66Z" fill="#666666"/>
</svg>
