<svg width="143" height="56" viewBox="0 0 143 56" fill="none" xmlns="http://www.w3.org/2000/svg">
<path d="M23 20.4141C22.7348 20.4141 22.4804 20.5194 22.2929 20.707C22.1054 20.8945 22 21.1488 22 21.4141C22 21.6793 22.1054 21.9336 22.2929 22.1212C22.4804 22.3087 22.7348 22.4141 23 22.4141H25C25.2652 22.4141 25.5196 22.3087 25.7071 22.1212C25.8946 21.9336 26 21.6793 26 21.4141C26 21.1488 25.8946 20.8945 25.7071 20.707C25.5196 20.5194 25.2652 20.4141 25 20.4141H23Z" fill="#666666"/>
<path fill-rule="evenodd" clip-rule="evenodd" d="M25.4906 21.584C25.4089 21.2505 25.2177 20.954 24.9476 20.742C24.6774 20.53 24.344 20.4148 24.0006 20.4148C23.6572 20.4148 23.3237 20.53 23.0536 20.742C22.7834 20.954 22.5922 21.2505 22.5106 21.584C22.4538 21.8184 22.3426 22.0362 22.1858 22.2194C22.029 22.4027 21.8312 22.5464 21.6084 22.6388C21.3856 22.7312 21.1442 22.7697 20.9037 22.7511C20.6632 22.7326 20.4306 22.6575 20.2246 22.532C19.9312 22.3528 19.5861 22.2775 19.2448 22.3181C18.9035 22.3588 18.5857 22.513 18.3427 22.7561C18.0996 22.9992 17.9453 23.3169 17.9047 23.6583C17.8641 23.9996 17.9394 24.3447 18.1186 24.638C18.244 24.844 18.3191 25.0767 18.3377 25.3172C18.3563 25.5576 18.3179 25.7991 18.2257 26.0219C18.1334 26.2448 17.9899 26.4427 17.8067 26.5996C17.6235 26.7565 17.4059 26.868 17.1716 26.925C16.8376 27.0059 16.5405 27.1966 16.328 27.4667C16.1155 27.7368 16 28.0704 16 28.414C16 28.7577 16.1155 29.0913 16.328 29.3614C16.5405 29.6314 16.8376 29.8222 17.1716 29.903C17.4061 29.9598 17.6238 30.0712 17.8071 30.2281C17.9904 30.385 18.134 30.5829 18.2263 30.8058C18.3186 31.0288 18.357 31.2703 18.3382 31.5108C18.3195 31.7514 18.2443 31.9841 18.1186 32.19C17.9394 32.4834 17.8641 32.8285 17.9047 33.1698C17.9453 33.5111 18.0996 33.8289 18.3427 34.0719C18.5857 34.315 18.9035 34.4693 19.2448 34.5099C19.5861 34.5506 19.9312 34.4752 20.2246 34.296C20.4305 34.1703 20.6632 34.0951 20.9038 34.0764C21.1443 34.0576 21.3859 34.096 21.6088 34.1883C21.8317 34.2806 22.0296 34.4242 22.1865 34.6075C22.3434 34.7908 22.4548 35.0085 22.5116 35.243C22.5924 35.577 22.7832 35.8741 23.0533 36.0866C23.3233 36.2991 23.657 36.4146 24.0006 36.4146C24.3442 36.4146 24.6779 36.2991 24.9479 36.0866C25.218 35.8741 25.4087 35.577 25.4896 35.243C25.5466 35.0087 25.6581 34.7911 25.815 34.6079C25.9719 34.4248 26.1698 34.2812 26.3927 34.1889C26.6155 34.0967 26.857 34.0583 27.0974 34.0769C27.3379 34.0955 27.5706 34.1706 27.7766 34.296C28.0699 34.4752 28.415 34.5506 28.7563 34.5099C29.0977 34.4693 29.4154 34.315 29.6585 34.0719C29.9016 33.8289 30.0558 33.5111 30.0965 33.1698C30.1371 32.8285 30.0618 32.4834 29.8826 32.19C29.7571 31.984 29.682 31.7514 29.6634 31.5109C29.6448 31.2704 29.6832 31.029 29.7755 30.8061C29.8678 30.5833 30.0113 30.3854 30.1945 30.2284C30.3776 30.0715 30.5952 29.96 30.8296 29.903C31.1636 29.8222 31.4607 29.6314 31.6732 29.3614C31.8856 29.0913 32.0012 28.7577 32.0012 28.414C32.0012 28.0704 31.8856 27.7368 31.6732 27.4667C31.4607 27.1966 31.1636 27.0059 30.8296 26.925C30.5951 26.8682 30.3774 26.7568 30.1941 26.6C30.0108 26.4431 29.8671 26.2451 29.7748 26.0222C29.6825 25.7993 29.6442 25.5577 29.6629 25.3172C29.6816 25.0767 29.7569 24.844 29.8826 24.638C30.0618 24.3447 30.1371 23.9996 30.0965 23.6583C30.0558 23.3169 29.9016 22.9992 29.6585 22.7561C29.4154 22.513 29.0977 22.3588 28.7563 22.3181C28.415 22.2775 28.0699 22.3528 27.7766 22.532C27.5706 22.6577 27.3379 22.733 27.0974 22.7517C26.8569 22.7704 26.6153 22.7321 26.3924 22.6398C26.1695 22.5475 25.9715 22.4038 25.8147 22.2205C25.6578 22.0373 25.5464 21.8195 25.4896 21.585L25.4906 21.584ZM24.0006 31.414C24.5939 31.414 25.1739 31.2381 25.6673 30.9084C26.1606 30.5788 26.5452 30.1103 26.7722 29.5621C26.9993 29.0139 27.0587 28.4107 26.9429 27.8288C26.8272 27.2468 26.5415 26.7123 26.1219 26.2927C25.7023 25.8731 25.1678 25.5874 24.5858 25.4717C24.0039 25.3559 23.4007 25.4153 22.8525 25.6424C22.3044 25.8695 21.8358 26.254 21.5062 26.7473C21.1765 27.2407 21.0006 27.8207 21.0006 28.414C21.0006 29.2097 21.3166 29.9727 21.8793 30.5353C22.4419 31.098 23.2049 31.414 24.0006 31.414Z" fill="#666666"/>
<path d="M58.336 33.5H56.528L55.52 30.732H51.088L50.08 33.5H48.32L52.304 22.94H54.352L58.336 33.5ZM51.568 29.34H55.04L53.312 24.412L51.568 29.34ZM61.6326 21.9V31.26C61.6326 31.6547 61.702 31.9267 61.8406 32.076C61.9793 32.2253 62.2086 32.3 62.5286 32.3C62.7206 32.3 62.8806 32.2893 63.0086 32.268C63.1473 32.236 63.318 32.1827 63.5206 32.108L63.3286 33.388C63.1473 33.4733 62.9393 33.5373 62.7046 33.58C62.47 33.6333 62.2353 33.66 62.0006 33.66C61.286 33.66 60.758 33.4787 60.4166 33.116C60.086 32.7427 59.9206 32.172 59.9206 31.404V21.9H61.6326ZM66.617 21.9V31.26C66.617 31.6547 66.6863 31.9267 66.825 32.076C66.9637 32.2253 67.193 32.3 67.513 32.3C67.705 32.3 67.865 32.2893 67.993 32.268C68.1317 32.236 68.3023 32.1827 68.505 32.108L68.313 33.388C68.1317 33.4733 67.9237 33.5373 67.689 33.58C67.4543 33.6333 67.2197 33.66 66.985 33.66C66.2703 33.66 65.7423 33.4787 65.401 33.116C65.0703 32.7427 64.905 32.172 64.905 31.404V21.9H66.617ZM79.2958 28.364C79.2958 27.8307 79.1464 27.42 78.8478 27.132C78.5598 26.8333 78.1598 26.684 77.6478 26.684C77.1678 26.684 76.7571 26.796 76.4158 27.02C76.0744 27.244 75.8238 27.6067 75.6638 28.108L74.2238 27.5C74.4264 26.8493 74.8211 26.3267 75.4078 25.932C76.0051 25.5373 76.7731 25.34 77.7118 25.34C78.3518 25.34 78.9171 25.4467 79.4078 25.66C79.8984 25.8627 80.2824 26.172 80.5598 26.588C80.8478 27.004 80.9918 27.5373 80.9918 28.188V31.756C80.9918 32.1507 81.1891 32.348 81.5838 32.348C81.7758 32.348 81.9624 32.3213 82.1438 32.268L82.0478 33.452C81.8024 33.5693 81.4931 33.628 81.1198 33.628C80.7784 33.628 80.4691 33.5693 80.1918 33.452C79.9251 33.324 79.7118 33.1373 79.5518 32.892C79.4024 32.636 79.3278 32.3213 79.3278 31.948V31.836L79.6798 31.82C79.5838 32.236 79.3864 32.5827 79.0878 32.86C78.7891 33.1267 78.4424 33.3293 78.0477 33.468C77.6531 33.596 77.2531 33.66 76.8478 33.66C76.3464 33.66 75.8931 33.58 75.4878 33.42C75.0931 33.26 74.7784 33.02 74.5438 32.7C74.3198 32.3693 74.2078 31.964 74.2078 31.484C74.2078 30.8867 74.3998 30.396 74.7838 30.012C75.1784 29.628 75.7331 29.3667 76.4478 29.228L79.5518 28.62L79.5358 29.82L77.2798 30.284C76.8318 30.3693 76.4958 30.492 76.2718 30.652C76.0478 30.812 75.9358 31.0467 75.9358 31.356C75.9358 31.6547 76.0478 31.8947 76.2718 32.076C76.5064 32.2467 76.8158 32.332 77.1998 32.332C77.4664 32.332 77.7224 32.3 77.9678 32.236C78.2238 32.172 78.4531 32.0707 78.6558 31.932C78.8584 31.7827 79.0131 31.596 79.1198 31.372C79.2371 31.1373 79.2958 30.86 79.2958 30.54V28.364ZM87.2371 25.34C87.8771 25.34 88.4211 25.436 88.8691 25.628C89.3278 25.8093 89.7118 26.0707 90.0211 26.412C90.3305 26.7533 90.5651 27.1427 90.7251 27.58L89.1091 28.22C88.9705 27.7293 88.7465 27.356 88.4371 27.1C88.1385 26.8333 87.7438 26.7 87.2531 26.7C86.7731 26.7 86.3625 26.812 86.0211 27.036C85.6798 27.2493 85.4185 27.564 85.2371 27.98C85.0665 28.396 84.9811 28.908 84.9811 29.516C84.9811 30.1133 85.0718 30.62 85.2531 31.036C85.4345 31.452 85.6958 31.7667 86.0371 31.98C86.3785 32.1933 86.7838 32.3 87.2531 32.3C87.6158 32.3 87.9305 32.2413 88.1971 32.124C88.4638 31.996 88.6825 31.82 88.8531 31.596C89.0345 31.3613 89.1571 31.0787 89.2211 30.748L90.7731 31.276C90.6238 31.756 90.3891 32.1773 90.0691 32.54C89.7598 32.892 89.3705 33.1693 88.9011 33.372C88.4318 33.564 87.8931 33.66 87.2851 33.66C86.4958 33.66 85.7971 33.4947 85.1891 33.164C84.5811 32.8333 84.1065 32.3587 83.7651 31.74C83.4345 31.1107 83.2691 30.364 83.2691 29.5C83.2691 28.636 83.4345 27.8947 83.7651 27.276C84.1065 26.6467 84.5758 26.1667 85.1731 25.836C85.7811 25.5053 86.4691 25.34 87.2371 25.34ZM95.1015 23.148V31.1C95.1015 31.4947 95.2028 31.7827 95.4055 31.964C95.6188 32.1453 95.9015 32.236 96.2535 32.236C96.5415 32.236 96.7922 32.1933 97.0055 32.108C97.2188 32.012 97.4162 31.884 97.5975 31.724L97.9815 32.972C97.7362 33.1853 97.4322 33.356 97.0695 33.484C96.7175 33.6013 96.3228 33.66 95.8855 33.66C95.4268 33.66 95.0055 33.5853 94.6215 33.436C94.2375 33.2867 93.9388 33.0467 93.7255 32.716C93.5122 32.3747 93.4002 31.932 93.3895 31.388V23.628L95.1015 23.148ZM97.8535 25.5V26.844H91.8535V25.5H97.8535ZM100.411 24.156C100.037 24.156 99.7494 24.0653 99.5468 23.884C99.3548 23.692 99.2588 23.4253 99.2588 23.084C99.2588 22.7427 99.3548 22.4813 99.5468 22.3C99.7494 22.1187 100.037 22.028 100.411 22.028C100.773 22.028 101.051 22.1187 101.243 22.3C101.445 22.4813 101.547 22.7427 101.547 23.084C101.547 23.4253 101.445 23.692 101.243 23.884C101.051 24.0653 100.773 24.156 100.411 24.156ZM101.259 25.5V33.5H99.5468V25.5H101.259ZM107.409 25.34C108.188 25.34 108.876 25.5053 109.473 25.836C110.071 26.1667 110.535 26.6467 110.865 27.276C111.207 27.8947 111.377 28.636 111.377 29.5C111.377 30.364 111.207 31.1107 110.865 31.74C110.535 32.3587 110.071 32.8333 109.473 33.164C108.876 33.4947 108.188 33.66 107.409 33.66C106.631 33.66 105.943 33.4947 105.345 33.164C104.748 32.8333 104.279 32.3587 103.937 31.74C103.596 31.1107 103.425 30.364 103.425 29.5C103.425 28.636 103.596 27.8947 103.937 27.276C104.279 26.6467 104.748 26.1667 105.345 25.836C105.943 25.5053 106.631 25.34 107.409 25.34ZM107.409 26.684C106.929 26.684 106.519 26.796 106.177 27.02C105.847 27.2333 105.591 27.548 105.409 27.964C105.228 28.38 105.137 28.892 105.137 29.5C105.137 30.0973 105.228 30.6093 105.409 31.036C105.591 31.452 105.847 31.772 106.177 31.996C106.519 32.2093 106.929 32.316 107.409 32.316C107.889 32.316 108.295 32.2093 108.625 31.996C108.956 31.772 109.212 31.452 109.393 31.036C109.575 30.6093 109.665 30.0973 109.665 29.5C109.665 28.892 109.575 28.38 109.393 27.964C109.212 27.548 108.956 27.2333 108.625 27.02C108.295 26.796 107.889 26.684 107.409 26.684ZM113.531 33.5V25.5H115.051L115.163 27.58L114.939 27.356C115.088 26.8973 115.302 26.5187 115.579 26.22C115.867 25.9107 116.203 25.6867 116.587 25.548C116.982 25.4093 117.398 25.34 117.835 25.34C118.4 25.34 118.907 25.452 119.355 25.676C119.814 25.8893 120.176 26.2147 120.443 26.652C120.71 27.0893 120.843 27.644 120.843 28.316V33.5H119.131V28.844C119.131 28.0547 118.966 27.5107 118.635 27.212C118.315 26.9027 117.91 26.748 117.419 26.748C117.067 26.748 116.726 26.8333 116.395 27.004C116.064 27.164 115.787 27.4253 115.563 27.788C115.35 28.1507 115.243 28.636 115.243 29.244V33.5H113.531ZM126.477 33.66C125.677 33.66 124.947 33.5053 124.285 33.196C123.624 32.8867 123.101 32.4493 122.717 31.884L123.901 30.86C124.136 31.2973 124.472 31.6493 124.909 31.916C125.357 32.172 125.891 32.3 126.509 32.3C127 32.3 127.389 32.2147 127.677 32.044C127.965 31.8733 128.109 31.6333 128.109 31.324C128.109 31.1213 128.04 30.9453 127.901 30.796C127.773 30.636 127.523 30.5133 127.149 30.428L125.469 30.076C124.616 29.9053 124.008 29.6333 123.645 29.26C123.283 28.876 123.101 28.3907 123.101 27.804C123.101 27.3667 123.229 26.9613 123.485 26.588C123.741 26.2147 124.115 25.916 124.605 25.692C125.107 25.4573 125.704 25.34 126.397 25.34C127.197 25.34 127.88 25.484 128.445 25.772C129.011 26.0493 129.443 26.4493 129.741 26.972L128.557 27.964C128.355 27.5373 128.056 27.2227 127.661 27.02C127.267 26.8067 126.856 26.7 126.429 26.7C126.088 26.7 125.795 26.7427 125.549 26.828C125.304 26.9133 125.117 27.0307 124.989 27.18C124.861 27.3293 124.797 27.5053 124.797 27.708C124.797 27.9213 124.877 28.108 125.037 28.268C125.197 28.428 125.485 28.5507 125.901 28.636L127.725 29.02C128.493 29.1693 129.032 29.4253 129.341 29.788C129.661 30.14 129.821 30.572 129.821 31.084C129.821 31.596 129.688 32.0493 129.421 32.444C129.155 32.828 128.771 33.1267 128.269 33.34C127.768 33.5533 127.171 33.66 126.477 33.66Z" fill="#666666"/>
</svg>
