<svg width="144" height="58" viewBox="0 0 144 58" fill="none" xmlns="http://www.w3.org/2000/svg">
<rect width="144" height="58" rx="5" fill="#E2E6FE"/>
<path d="M58.5903 34V24.1H66.0153V25.765H60.6603V28.225H64.8753V29.815H60.6603V32.335H66.2253V34H58.5903ZM70.5317 34.15C69.9117 34.15 69.3567 33.995 68.8667 33.685C68.3867 33.375 68.0067 32.93 67.7267 32.35C67.4567 31.77 67.3217 31.075 67.3217 30.265C67.3217 29.435 67.4667 28.73 67.7567 28.15C68.0467 27.56 68.4367 27.115 68.9267 26.815C69.4267 26.505 69.9867 26.35 70.6067 26.35C71.2667 26.35 71.8117 26.54 72.2417 26.92C72.6717 27.3 72.9517 27.79 73.0817 28.39L72.8867 28.63V23.215H74.9417V34H73.0967L72.9617 31.72L73.2167 31.84C73.1467 32.31 72.9867 32.72 72.7367 33.07C72.4867 33.41 72.1717 33.675 71.7917 33.865C71.4117 34.055 70.9917 34.15 70.5317 34.15ZM71.1317 32.575C71.4917 32.575 71.8017 32.485 72.0617 32.305C72.3217 32.115 72.5217 31.84 72.6617 31.48C72.8117 31.12 72.8867 30.69 72.8867 30.19C72.8867 29.71 72.8167 29.305 72.6767 28.975C72.5367 28.635 72.3367 28.375 72.0767 28.195C71.8167 28.015 71.5117 27.925 71.1617 27.925C70.6017 27.925 70.1617 28.125 69.8417 28.525C69.5317 28.915 69.3767 29.49 69.3767 30.25C69.3767 31.01 69.5317 31.59 69.8417 31.99C70.1517 32.38 70.5817 32.575 71.1317 32.575ZM78.136 25.42C77.706 25.42 77.386 25.33 77.176 25.15C76.966 24.96 76.861 24.685 76.861 24.325C76.861 23.955 76.966 23.68 77.176 23.5C77.386 23.31 77.706 23.215 78.136 23.215C78.566 23.215 78.886 23.31 79.096 23.5C79.306 23.68 79.411 23.955 79.411 24.325C79.411 24.685 79.306 24.96 79.096 25.15C78.886 25.33 78.566 25.42 78.136 25.42ZM79.156 26.5V34H77.101V26.5H79.156ZM83.9894 24.205V31.555C83.9894 31.915 84.0794 32.18 84.2594 32.35C84.4494 32.51 84.7044 32.59 85.0244 32.59C85.2744 32.59 85.4944 32.555 85.6844 32.485C85.8744 32.405 86.0444 32.3 86.1944 32.17L86.5244 33.535C86.2844 33.725 85.9844 33.875 85.6244 33.985C85.2644 34.095 84.8844 34.15 84.4844 34.15C83.9844 34.15 83.5394 34.075 83.1494 33.925C82.7694 33.775 82.4694 33.535 82.2494 33.205C82.0394 32.875 81.9344 32.435 81.9344 31.885V24.775L83.9894 24.205ZM86.3894 26.5V28.03H80.5544V26.5H86.3894Z" fill="#7D67EE"/>
</svg>
