<svg width="16" height="19" viewBox="0 0 16 19" fill="none" xmlns="http://www.w3.org/2000/svg">
<path d="M8 0C6.18132 0 4.43712 0.750667 3.15112 2.08686C1.86512 3.42306 1.14265 5.23533 1.14265 7.125V11.3834L0.334624 12.2229C0.174837 12.389 0.0660261 12.6006 0.0219475 12.8309C-0.022131 13.0612 0.000501673 13.2999 0.0869844 13.5169C0.173467 13.7339 0.319917 13.9193 0.507819 14.0498C0.695722 14.1803 0.916641 14.2499 1.14265 14.25H14.8574C15.0834 14.2499 15.3043 14.1803 15.4922 14.0498C15.6801 13.9193 15.8265 13.7339 15.913 13.5169C15.9995 13.2999 16.0221 13.0612 15.9781 12.8309C15.934 12.6006 15.8252 12.389 15.6654 12.2229L14.8574 11.3834V7.125C14.8574 5.23533 14.1349 3.42306 12.8489 2.08686C11.5629 0.750667 9.81868 0 8 0ZM8 19C7.09066 19 6.21856 18.6247 5.57556 17.9566C4.93256 17.2885 4.57132 16.3823 4.57132 15.4375H11.4287C11.4287 16.3823 11.0674 17.2885 10.4244 17.9566C9.78144 18.6247 8.90934 19 8 19Z" fill="#7D67EE"/>
</svg>
