<svg width="18" height="20" viewBox="0 0 18 20" fill="none" xmlns="http://www.w3.org/2000/svg">
<path d="M14.6331 17.4894C13.0255 19.0969 10.8452 20 8.57184 20C6.29845 20 4.11817 19.0969 2.51063 17.4894C0.903102 15.8818 1.69381e-08 13.7016 0 11.4282C-1.69381e-08 9.15476 0.903102 6.97448 2.51063 5.36695C2.51063 8.57112 2.85777 11.4282 7.14332 12.8567C7.14332 9.99964 8.57184 1.42852 10.7146 0C11.642 2.03656 12.9748 3.86271 14.6316 5.36695C15.4277 6.16287 16.0592 7.10781 16.49 8.1478C16.9208 9.18779 17.1426 10.3025 17.1426 11.4282C17.1426 12.5539 16.9208 13.6685 16.49 14.7085C16.0592 15.7485 15.4277 16.6934 14.6316 17.4894H14.6331Z" fill="#E2E6FE"/>
<path d="M5.54278 17.3153C5.93811 17.7246 6.411 18.0511 6.93386 18.2757C7.45671 18.5003 8.01906 18.6185 8.5881 18.6234C9.15713 18.6284 9.72145 18.5199 10.2481 18.3045C10.7748 18.089 11.2533 17.7708 11.6557 17.3684C12.0581 16.966 12.3763 16.4875 12.5918 15.9608C12.8072 15.4341 12.9157 14.8698 12.9107 14.3008C12.9058 13.7318 12.7876 13.1694 12.563 12.6466C12.3384 12.1237 12.0119 11.6508 11.6026 11.2555C10.7743 10.503 10.1079 9.58971 9.64406 8.57129C8.57267 9.28555 7.85841 13.5711 7.85841 14.9996C6.62811 15.049 5.40378 14.8041 4.28711 14.2854C4.2863 14.8482 4.39682 15.4057 4.61232 15.9257C4.82782 16.4457 5.14404 16.918 5.54278 17.3153Z" fill="#E2E6FE"/>
</svg>
