<svg width="14" height="14" viewBox="0 0 14 14" fill="none" xmlns="http://www.w3.org/2000/svg">
<rect width="14" height="14" rx="7" fill="#666666"/>
<path fill-rule="evenodd" clip-rule="evenodd" d="M3.20311 3.20311C3.32787 3.07838 3.49706 3.00832 3.67348 3.00832C3.84989 3.00832 4.01909 3.07838 4.14385 3.20311L7 6.05926L9.85615 3.20311C9.91752 3.13957 9.99094 3.08888 10.0721 3.05401C10.1533 3.01915 10.2406 3.00079 10.3289 3.00003C10.4173 2.99926 10.5049 3.01609 10.5866 3.04954C10.6684 3.08299 10.7427 3.1324 10.8051 3.19486C10.8676 3.25733 10.917 3.33161 10.9505 3.41338C10.9839 3.49514 11.0007 3.58275 11 3.67109C10.9992 3.75942 10.9809 3.84672 10.946 3.92789C10.9111 4.00906 10.8604 4.08248 10.7969 4.14385L7.94074 7L10.7969 9.85615C10.8604 9.91752 10.9111 9.99094 10.946 10.0721C10.9809 10.1533 10.9992 10.2406 11 10.3289C11.0007 10.4173 10.9839 10.5049 10.9505 10.5866C10.917 10.6684 10.8676 10.7427 10.8051 10.8051C10.7427 10.8676 10.6684 10.917 10.5866 10.9505C10.5049 10.9839 10.4173 11.0007 10.3289 11C10.2406 10.9992 10.1533 10.9809 10.0721 10.946C9.99094 10.9111 9.91752 10.8604 9.85615 10.7969L7 7.94074L4.14385 10.7969C4.08248 10.8604 4.00906 10.9111 3.92789 10.946C3.84672 10.9809 3.75942 10.9992 3.67109 11C3.58275 11.0007 3.49514 10.9839 3.41338 10.9505C3.33161 10.917 3.25733 10.8676 3.19486 10.8051C3.1324 10.7427 3.08299 10.6684 3.04954 10.5866C3.01609 10.5049 2.99926 10.4173 3.00003 10.3289C3.00079 10.2406 3.01915 10.1533 3.05401 10.0721C3.08888 9.99094 3.13957 9.91752 3.20311 9.85615L6.05926 7L3.20311 4.14385C3.07838 4.01909 3.00832 3.84989 3.00832 3.67348C3.00832 3.49706 3.07838 3.32787 3.20311 3.20311Z" fill="#F5F5F5"/>
</svg>
