<svg width="106" height="56" viewBox="0 0 106 56" fill="none" xmlns="http://www.w3.org/2000/svg">
<path d="M49.568 33.5V22.94H53.728C54.9973 22.94 55.9253 23.196 56.512 23.708C57.0987 24.22 57.392 24.9293 57.392 25.836C57.392 26.3907 57.232 26.8867 56.912 27.324C56.592 27.7507 56.1227 28.0227 55.504 28.14V28.156C56.1867 28.2627 56.7147 28.5453 57.088 29.004C57.472 29.452 57.664 29.9747 57.664 30.572C57.664 31.4787 57.3333 32.1933 56.672 32.716C56.0107 33.2387 55.0507 33.5 53.792 33.5H49.568ZM51.248 32.076H53.872C54.544 32.076 55.0453 31.9373 55.376 31.66C55.7173 31.3827 55.888 30.9933 55.888 30.492C55.888 29.9907 55.7173 29.6013 55.376 29.324C55.0453 29.0467 54.544 28.908 53.872 28.908H51.248V32.076ZM51.248 27.484H53.6C54.944 27.484 55.616 26.9667 55.616 25.932C55.616 24.8973 54.944 24.38 53.6 24.38H51.248V27.484ZM63.3938 25.34C64.1724 25.34 64.8604 25.5053 65.4578 25.836C66.0551 26.1667 66.5191 26.6467 66.8498 27.276C67.1911 27.8947 67.3618 28.636 67.3618 29.5C67.3618 30.364 67.1911 31.1107 66.8498 31.74C66.5191 32.3587 66.0551 32.8333 65.4578 33.164C64.8604 33.4947 64.1724 33.66 63.3938 33.66C62.6151 33.66 61.9271 33.4947 61.3298 33.164C60.7324 32.8333 60.2631 32.3587 59.9218 31.74C59.5804 31.1107 59.4098 30.364 59.4098 29.5C59.4098 28.636 59.5804 27.8947 59.9218 27.276C60.2631 26.6467 60.7324 26.1667 61.3298 25.836C61.9271 25.5053 62.6151 25.34 63.3938 25.34ZM63.3938 26.684C62.9138 26.684 62.5031 26.796 62.1618 27.02C61.8311 27.2333 61.5751 27.548 61.3938 27.964C61.2124 28.38 61.1218 28.892 61.1218 29.5C61.1218 30.0973 61.2124 30.6093 61.3938 31.036C61.5751 31.452 61.8311 31.772 62.1618 31.996C62.5031 32.2093 62.9138 32.316 63.3938 32.316C63.8738 32.316 64.2791 32.2093 64.6098 31.996C64.9404 31.772 65.1964 31.452 65.3778 31.036C65.5591 30.6093 65.6498 30.0973 65.6498 29.5C65.6498 28.892 65.5591 28.38 65.3778 27.964C65.1964 27.548 64.9404 27.2333 64.6098 27.02C64.2791 26.796 63.8738 26.684 63.3938 26.684ZM72.9875 25.34C73.7662 25.34 74.4542 25.5053 75.0515 25.836C75.6488 26.1667 76.1128 26.6467 76.4435 27.276C76.7848 27.8947 76.9555 28.636 76.9555 29.5C76.9555 30.364 76.7848 31.1107 76.4435 31.74C76.1128 32.3587 75.6488 32.8333 75.0515 33.164C74.4542 33.4947 73.7662 33.66 72.9875 33.66C72.2088 33.66 71.5208 33.4947 70.9235 33.164C70.3262 32.8333 69.8568 32.3587 69.5155 31.74C69.1742 31.1107 69.0035 30.364 69.0035 29.5C69.0035 28.636 69.1742 27.8947 69.5155 27.276C69.8568 26.6467 70.3262 26.1667 70.9235 25.836C71.5208 25.5053 72.2088 25.34 72.9875 25.34ZM72.9875 26.684C72.5075 26.684 72.0968 26.796 71.7555 27.02C71.4248 27.2333 71.1688 27.548 70.9875 27.964C70.8062 28.38 70.7155 28.892 70.7155 29.5C70.7155 30.0973 70.8062 30.6093 70.9875 31.036C71.1688 31.452 71.4248 31.772 71.7555 31.996C72.0968 32.2093 72.5075 32.316 72.9875 32.316C73.4675 32.316 73.8728 32.2093 74.2035 31.996C74.5342 31.772 74.7902 31.452 74.9715 31.036C75.1528 30.6093 75.2435 30.0973 75.2435 29.5C75.2435 28.892 75.1528 28.38 74.9715 27.964C74.7902 27.548 74.5342 27.2333 74.2035 27.02C73.8728 26.796 73.4675 26.684 72.9875 26.684ZM82.1493 33.66C81.3493 33.66 80.6186 33.5053 79.9573 33.196C79.2959 32.8867 78.7733 32.4493 78.3893 31.884L79.5733 30.86C79.8079 31.2973 80.1439 31.6493 80.5813 31.916C81.0293 32.172 81.5626 32.3 82.1813 32.3C82.6719 32.3 83.0613 32.2147 83.3493 32.044C83.6373 31.8733 83.7813 31.6333 83.7813 31.324C83.7813 31.1213 83.7119 30.9453 83.5733 30.796C83.4453 30.636 83.1946 30.5133 82.8213 30.428L81.1413 30.076C80.2879 29.9053 79.6799 29.6333 79.3173 29.26C78.9546 28.876 78.7733 28.3907 78.7733 27.804C78.7733 27.3667 78.9013 26.9613 79.1573 26.588C79.4133 26.2147 79.7866 25.916 80.2773 25.692C80.7786 25.4573 81.3759 25.34 82.0693 25.34C82.8693 25.34 83.5519 25.484 84.1173 25.772C84.6826 26.0493 85.1146 26.4493 85.4133 26.972L84.2293 27.964C84.0266 27.5373 83.7279 27.2227 83.3333 27.02C82.9386 26.8067 82.5279 26.7 82.1013 26.7C81.7599 26.7 81.4666 26.7427 81.2213 26.828C80.9759 26.9133 80.7893 27.0307 80.6613 27.18C80.5333 27.3293 80.4693 27.5053 80.4693 27.708C80.4693 27.9213 80.5493 28.108 80.7093 28.268C80.8693 28.428 81.1573 28.5507 81.5733 28.636L83.3973 29.02C84.1653 29.1693 84.7039 29.4253 85.0133 29.788C85.3333 30.14 85.4933 30.572 85.4933 31.084C85.4933 31.596 85.3599 32.0493 85.0933 32.444C84.8266 32.828 84.4426 33.1267 83.9413 33.34C83.4399 33.5533 82.8426 33.66 82.1493 33.66ZM89.914 23.148V31.1C89.914 31.4947 90.0153 31.7827 90.218 31.964C90.4313 32.1453 90.714 32.236 91.066 32.236C91.354 32.236 91.6047 32.1933 91.818 32.108C92.0313 32.012 92.2287 31.884 92.41 31.724L92.794 32.972C92.5487 33.1853 92.2447 33.356 91.882 33.484C91.53 33.6013 91.1353 33.66 90.698 33.66C90.2393 33.66 89.818 33.5853 89.434 33.436C89.05 33.2867 88.7513 33.0467 88.538 32.716C88.3247 32.3747 88.2127 31.932 88.202 31.388V23.628L89.914 23.148ZM92.666 25.5V26.844H86.666V25.5H92.666Z" fill="#666666"/>
<path fill-rule="evenodd" clip-rule="evenodd" d="M24.2999 21.0353C24.5029 21.0849 24.6802 21.1837 24.8061 21.3171C24.932 21.4505 24.9999 21.6118 24.9999 21.7773V25.6662H28.9996C29.1825 25.6661 29.362 25.7051 29.5184 25.7788C29.6748 25.8525 29.8022 25.9582 29.8868 26.0844C29.9713 26.2106 30.0097 26.3523 29.9979 26.4943C29.9861 26.6363 29.9244 26.773 29.8196 26.8896L22.82 34.6674C22.6982 34.8031 22.5239 34.9051 22.3224 34.9585C22.1209 35.0118 21.9028 35.0138 21.6998 34.9641C21.4968 34.9144 21.3194 34.8156 21.1936 34.6821C21.0678 34.5485 21 34.3873 21.0001 34.2217V30.3328H17.0004C16.8175 30.3329 16.638 30.2939 16.4816 30.2202C16.3252 30.1464 16.1978 30.0407 16.1132 29.9146C16.0287 29.7884 15.9903 29.6467 16.0021 29.5047C16.0139 29.3627 16.0756 29.226 16.1804 29.1094L23.18 21.3316C23.302 21.1961 23.4764 21.0944 23.6778 21.0412C23.8792 20.9881 24.0971 20.9863 24.2999 21.036V21.0353Z" fill="#666666"/>
</svg>
