<svg width="20" height="20" viewBox="0 0 20 20" fill="none" xmlns="http://www.w3.org/2000/svg">
<path fill-rule="evenodd" clip-rule="evenodd" d="M9.64258 8C10.4478 8 11.235 7.76541 11.9045 7.32588C12.5741 6.88635 13.0959 6.26164 13.4041 5.53074C13.7122 4.79983 13.7929 3.99556 13.6358 3.21964C13.4787 2.44372 13.0909 1.73098 12.5215 1.17157C11.9521 0.612165 11.2267 0.231202 10.4369 0.0768607C9.64709 -0.0774802 8.82847 0.00173314 8.08451 0.304484C7.34055 0.607234 6.70468 1.11992 6.25731 1.77772C5.80993 2.43552 5.57115 3.20888 5.57115 4C5.57115 5.06087 6.0001 6.07828 6.76364 6.82843C7.52718 7.57857 8.56277 8 9.64258 8ZM0.142578 20C0.142578 17.5246 1.14347 15.1507 2.92506 13.4003C4.70666 11.65 7.12302 10.6667 9.64258 10.6667C12.1621 10.6667 14.5785 11.65 16.3601 13.4003C18.1417 15.1507 19.1426 17.5246 19.1426 20H0.142578Z" fill="#E2E6FE"/>
</svg>
