<svg width="117" height="59" viewBox="0 0 117 59" fill="none" xmlns="http://www.w3.org/2000/svg">
<rect width="117" height="59" rx="5" fill="#7D67EE"/>
<path d="M50.6355 24.44V35H48.1075L44.4115 28.792L43.4995 27.064H43.4835L43.5475 28.888V35H41.5635V24.44H44.0755L47.7715 30.632L48.6835 32.376H48.7155L48.6515 30.552V24.44H50.6355ZM56.8015 35.16C55.9588 35.16 55.2228 34.9947 54.5935 34.664C53.9748 34.3333 53.4948 33.8587 53.1535 33.24C52.8122 32.6213 52.6415 31.8747 52.6415 31C52.6415 30.1253 52.8122 29.3787 53.1535 28.76C53.4948 28.1413 53.9695 27.6667 54.5775 27.336C55.1962 27.0053 55.9002 26.84 56.6895 26.84C57.5002 26.84 58.1882 27.0053 58.7535 27.336C59.3188 27.656 59.7508 28.0987 60.0495 28.664C60.3482 29.2187 60.4975 29.8533 60.4975 30.568C60.4975 30.7813 60.4922 30.984 60.4815 31.176C60.4708 31.368 60.4548 31.5387 60.4335 31.688H54.0495V30.168H59.4735L58.4175 30.552C58.4175 29.88 58.2628 29.3627 57.9535 29C57.6548 28.6373 57.2282 28.456 56.6735 28.456C56.2682 28.456 55.9162 28.552 55.6175 28.744C55.3295 28.936 55.1108 29.224 54.9615 29.608C54.8122 29.9813 54.7375 30.456 54.7375 31.032C54.7375 31.5973 54.8175 32.0667 54.9775 32.44C55.1482 32.8027 55.3828 33.0747 55.6815 33.256C55.9908 33.4373 56.3588 33.528 56.7855 33.528C57.2548 33.528 57.6335 33.4373 57.9215 33.256C58.2095 33.0747 58.4335 32.824 58.5935 32.504L60.3375 33.176C60.1668 33.592 59.9055 33.9493 59.5535 34.248C59.2122 34.5467 58.8015 34.776 58.3215 34.936C57.8522 35.0853 57.3455 35.16 56.8015 35.16ZM63.7561 27L65.8681 30.504L66.4601 30.488L69.6601 35H67.1161L64.9241 31.416L64.2841 31.352L61.1961 27H63.7561ZM69.6121 27L66.5241 31.304L65.8681 31.256L63.5321 35H61.0521L64.3641 30.456L64.9881 30.536L67.1321 27H69.6121ZM73.9215 24.552V32.392C73.9215 32.776 74.0175 33.0587 74.2095 33.24C74.4122 33.4107 74.6842 33.496 75.0255 33.496C75.2922 33.496 75.5268 33.4587 75.7295 33.384C75.9322 33.2987 76.1135 33.1867 76.2735 33.048L76.6255 34.504C76.3695 34.7067 76.0495 34.8667 75.6655 34.984C75.2815 35.1013 74.8762 35.16 74.4495 35.16C73.9162 35.16 73.4415 35.08 73.0255 34.92C72.6202 34.76 72.3002 34.504 72.0655 34.152C71.8415 33.8 71.7295 33.3307 71.7295 32.744V25.16L73.9215 24.552ZM76.4815 27V28.632H70.2575V27H76.4815Z" fill="#F8F8F8"/>
</svg>
