<svg width="228" height="59" viewBox="0 0 228 59" fill="none" xmlns="http://www.w3.org/2000/svg">
<rect x="0.5" width="227" height="59" rx="5" fill="#E2E6FE"/>
<path d="M99.7263 32.2C99.5129 32.84 99.1929 33.384 98.7663 33.832C98.3396 34.2693 97.8383 34.6 97.2623 34.824C96.6863 35.048 96.0516 35.16 95.3583 35.16C94.3449 35.16 93.4649 34.9413 92.7183 34.504C91.9716 34.0667 91.3956 33.4427 90.9903 32.632C90.5849 31.8213 90.3823 30.8507 90.3823 29.72C90.3823 28.5893 90.5849 27.6187 90.9903 26.808C91.3956 25.9973 91.9716 25.3733 92.7183 24.936C93.4649 24.4987 94.3396 24.28 95.3423 24.28C96.0356 24.28 96.6596 24.376 97.2143 24.568C97.7796 24.76 98.2596 25.048 98.6543 25.432C99.0489 25.816 99.3529 26.296 99.5663 26.872L97.9503 27.592C97.7369 26.9627 97.4276 26.504 97.0223 26.216C96.6169 25.9173 96.0889 25.768 95.4383 25.768C94.7876 25.768 94.2169 25.9227 93.7263 26.232C93.2356 26.5413 92.8516 26.9893 92.5743 27.576C92.3076 28.1627 92.1743 28.8773 92.1743 29.72C92.1743 30.552 92.3023 31.2667 92.5583 31.864C92.8143 32.4507 93.1823 32.8987 93.6623 33.208C94.1423 33.5173 94.7183 33.672 95.3903 33.672C96.0409 33.672 96.6009 33.5067 97.0703 33.176C97.5503 32.8347 97.8916 32.328 98.0943 31.656L99.7263 32.2ZM106.296 29.864C106.296 29.3307 106.146 28.92 105.848 28.632C105.56 28.3333 105.16 28.184 104.648 28.184C104.168 28.184 103.757 28.296 103.416 28.52C103.074 28.744 102.824 29.1067 102.664 29.608L101.224 29C101.426 28.3493 101.821 27.8267 102.408 27.432C103.005 27.0373 103.773 26.84 104.712 26.84C105.352 26.84 105.917 26.9467 106.408 27.16C106.898 27.3627 107.282 27.672 107.56 28.088C107.848 28.504 107.992 29.0373 107.992 29.688V33.256C107.992 33.6507 108.189 33.848 108.584 33.848C108.776 33.848 108.962 33.8213 109.144 33.768L109.048 34.952C108.802 35.0693 108.493 35.128 108.12 35.128C107.778 35.128 107.469 35.0693 107.192 34.952C106.925 34.824 106.712 34.6373 106.552 34.392C106.402 34.136 106.328 33.8213 106.328 33.448V33.336L106.68 33.32C106.584 33.736 106.386 34.0827 106.088 34.36C105.789 34.6267 105.442 34.8293 105.048 34.968C104.653 35.096 104.253 35.16 103.848 35.16C103.346 35.16 102.893 35.08 102.488 34.92C102.093 34.76 101.778 34.52 101.544 34.2C101.32 33.8693 101.208 33.464 101.208 32.984C101.208 32.3867 101.4 31.896 101.784 31.512C102.178 31.128 102.733 30.8667 103.448 30.728L106.552 30.12L106.536 31.32L104.28 31.784C103.832 31.8693 103.496 31.992 103.272 32.152C103.048 32.312 102.936 32.5467 102.936 32.856C102.936 33.1547 103.048 33.3947 103.272 33.576C103.506 33.7467 103.816 33.832 104.2 33.832C104.466 33.832 104.722 33.8 104.968 33.736C105.224 33.672 105.453 33.5707 105.656 33.432C105.858 33.2827 106.013 33.096 106.12 32.872C106.237 32.6373 106.296 32.36 106.296 32.04V29.864ZM110.797 35V27H112.317L112.429 29.08L112.205 28.856C112.354 28.3973 112.567 28.0187 112.845 27.72C113.133 27.4107 113.469 27.1867 113.853 27.048C114.247 26.9093 114.663 26.84 115.101 26.84C115.666 26.84 116.173 26.952 116.621 27.176C117.079 27.3893 117.442 27.7147 117.709 28.152C117.975 28.5893 118.109 29.144 118.109 29.816V35H116.397V30.344C116.397 29.5547 116.231 29.0107 115.901 28.712C115.581 28.4027 115.175 28.248 114.685 28.248C114.333 28.248 113.991 28.3333 113.661 28.504C113.33 28.664 113.053 28.9253 112.829 29.288C112.615 29.6507 112.509 30.136 112.509 30.744V35H110.797ZM124.159 26.84C124.799 26.84 125.343 26.936 125.791 27.128C126.25 27.3093 126.634 27.5707 126.943 27.912C127.252 28.2533 127.487 28.6427 127.647 29.08L126.031 29.72C125.892 29.2293 125.668 28.856 125.359 28.6C125.06 28.3333 124.666 28.2 124.175 28.2C123.695 28.2 123.284 28.312 122.943 28.536C122.602 28.7493 122.34 29.064 122.159 29.48C121.988 29.896 121.903 30.408 121.903 31.016C121.903 31.6133 121.994 32.12 122.175 32.536C122.356 32.952 122.618 33.2667 122.959 33.48C123.3 33.6933 123.706 33.8 124.175 33.8C124.538 33.8 124.852 33.7413 125.119 33.624C125.386 33.496 125.604 33.32 125.775 33.096C125.956 32.8613 126.079 32.5787 126.143 32.248L127.695 32.776C127.546 33.256 127.311 33.6773 126.991 34.04C126.682 34.392 126.292 34.6693 125.823 34.872C125.354 35.064 124.815 35.16 124.207 35.16C123.418 35.16 122.719 34.9947 122.111 34.664C121.503 34.3333 121.028 33.8587 120.687 33.24C120.356 32.6107 120.191 31.864 120.191 31C120.191 30.136 120.356 29.3947 120.687 28.776C121.028 28.1467 121.498 27.6667 122.095 27.336C122.703 27.0053 123.391 26.84 124.159 26.84ZM133.207 35.16C132.407 35.16 131.703 34.9947 131.095 34.664C130.487 34.3333 130.013 33.8587 129.671 33.24C129.341 32.6107 129.175 31.864 129.175 31C129.175 30.136 129.341 29.3947 129.671 28.776C130.013 28.1467 130.482 27.6667 131.079 27.336C131.677 27.0053 132.354 26.84 133.111 26.84C133.89 26.84 134.551 27 135.095 27.32C135.639 27.64 136.055 28.0773 136.343 28.632C136.631 29.1867 136.775 29.816 136.775 30.52C136.775 30.712 136.77 30.8933 136.759 31.064C136.749 31.2347 136.733 31.384 136.711 31.512H130.279V30.2H135.959L135.111 30.456C135.111 29.7307 134.93 29.176 134.567 28.792C134.205 28.3973 133.709 28.2 133.079 28.2C132.621 28.2 132.221 28.3067 131.879 28.52C131.538 28.7333 131.277 29.0533 131.095 29.48C130.914 29.896 130.823 30.408 130.823 31.016C130.823 31.6133 130.919 32.12 131.111 32.536C131.303 32.952 131.575 33.2667 131.927 33.48C132.279 33.6933 132.695 33.8 133.175 33.8C133.709 33.8 134.141 33.6987 134.471 33.496C134.802 33.2933 135.063 33.0107 135.255 32.648L136.615 33.288C136.423 33.672 136.162 34.008 135.831 34.296C135.511 34.5733 135.127 34.7867 134.679 34.936C134.231 35.0853 133.741 35.16 133.207 35.16ZM140.601 23.4V32.76C140.601 33.1547 140.671 33.4267 140.809 33.576C140.948 33.7253 141.177 33.8 141.497 33.8C141.689 33.8 141.849 33.7893 141.977 33.768C142.116 33.736 142.287 33.6827 142.489 33.608L142.297 34.888C142.116 34.9733 141.908 35.0373 141.673 35.08C141.439 35.1333 141.204 35.16 140.969 35.16C140.255 35.16 139.727 34.9787 139.385 34.616C139.055 34.2427 138.889 33.672 138.889 32.904V23.4H140.601Z" fill="#7D67EE"/>
</svg>
