<svg width="16" height="12" viewBox="0 0 16 12" fill="none" xmlns="http://www.w3.org/2000/svg">
<path fill-rule="evenodd" clip-rule="evenodd" d="M2 0C1.46957 0 0.960859 0.210714 0.585786 0.585786C0.210714 0.960859 0 1.46957 0 2V6C0 6.53043 0.210714 7.03914 0.585786 7.41421C0.960859 7.78929 1.46957 8 2 8V2H12C12 1.46957 11.7893 0.960859 11.4142 0.585786C11.0391 0.210714 10.5304 0 10 0H2ZM4 6C4 5.46957 4.21071 4.96086 4.58579 4.58579C4.96086 4.21071 5.46957 4 6 4H14C14.5304 4 15.0391 4.21071 15.4142 4.58579C15.7893 4.96086 16 5.46957 16 6V10C16 10.5304 15.7893 11.0391 15.4142 11.4142C15.0391 11.7893 14.5304 12 14 12H6C5.46957 12 4.96086 11.7893 4.58579 11.4142C4.21071 11.0391 4 10.5304 4 10V6ZM10 10C10.3956 10 10.7822 9.8827 11.1111 9.66294C11.44 9.44318 11.6964 9.13082 11.8478 8.76537C11.9991 8.39991 12.0387 7.99778 11.9616 7.60982C11.8844 7.22186 11.6939 6.86549 11.4142 6.58579C11.1345 6.30608 10.7781 6.1156 10.3902 6.03843C10.0022 5.96126 9.60009 6.00087 9.23463 6.15224C8.86918 6.30362 8.55682 6.55996 8.33706 6.88886C8.1173 7.21776 8 7.60444 8 8C8 8.53043 8.21071 9.03914 8.58579 9.41421C8.96086 9.78929 9.46957 10 10 10Z" fill="#7D67EE"/>
</svg>
