<svg width="34" height="34" viewBox="0 0 34 34" fill="none" xmlns="http://www.w3.org/2000/svg">
<path d="M8.78378 1.86486V8.78378H1.86486V1.86486H8.78378ZM9.64865 1H1V9.64865H9.64865V1Z" fill="#7D67EE" stroke="#7D67EE" stroke-width="1.5"/>
<path d="M16.481 1.86486V8.78378H9.56213V1.86486H16.481ZM17.3459 1H8.69727V9.64865H17.3459V1Z" fill="#7D67EE" stroke="#7D67EE" stroke-width="1.5"/>
<path d="M24.2652 1.86486V8.78378H17.3463V1.86486H24.2652ZM25.1301 1H16.4814V9.64865H25.1301V1Z" fill="#7D67EE" stroke="#7D67EE" stroke-width="1.5"/>
<path d="M32.1353 1.86486V8.78378H25.2164V1.86486H32.1353ZM33.0002 1H24.3516V9.64865H33.0002V1Z" fill="#7D67EE" stroke="#7D67EE" stroke-width="1.5"/>
<path d="M8.78378 9.64865V16.5676H1.86486V9.64865H8.78378ZM9.64865 8.78378H1V17.4324H9.64865V8.78378Z" fill="#7D67EE" stroke="#7D67EE" stroke-width="1.5"/>
<path d="M32.1353 9.64865V16.5676H25.2164V9.64865H32.1353ZM33.0002 8.78378H24.3516V17.4324H33.0002V8.78378Z" fill="#7D67EE" stroke="#7D67EE" stroke-width="1.5"/>
<path d="M8.78378 17.4324V24.3513H1.86486V17.4324H8.78378ZM9.64865 16.5676H1V25.2162H9.64865V16.5676Z" fill="#7D67EE" stroke="#7D67EE" stroke-width="1.5"/>
<path d="M32.1353 17.4324V24.3513H25.2164V17.4324H32.1353ZM33.0002 16.5676H24.3516V25.2162H33.0002V16.5676Z" fill="#7D67EE" stroke="#7D67EE" stroke-width="1.5"/>
<path d="M8.78378 25.2162V32.1351H1.86486V25.2162H8.78378ZM9.64865 24.3513H1V33H9.64865V24.3513Z" fill="#7D67EE" stroke="#7D67EE" stroke-width="1.5"/>
<path d="M16.481 25.2162V32.1351H9.56213V25.2162H16.481ZM17.3459 24.3513H8.69727V33H17.3459V24.3513Z" fill="#7D67EE" stroke="#7D67EE" stroke-width="1.5"/>
<path d="M24.2652 25.2162V32.1351H17.3463V25.2162H24.2652ZM25.1301 24.3513H16.4814V33H25.1301V24.3513Z" fill="#7D67EE" stroke="#7D67EE" stroke-width="1.5"/>
<path d="M32.1353 25.2162V32.1351H25.2164V25.2162H32.1353ZM33.0002 24.3513H24.3516V33H33.0002V24.3513Z" fill="#7D67EE" stroke="#7D67EE" stroke-width="1.5"/>
</svg>
