<svg width="17" height="10" viewBox="0 0 17 10" fill="none" xmlns="http://www.w3.org/2000/svg">
<path fill-rule="evenodd" clip-rule="evenodd" d="M0.497137 0.507792C0.815549 0.195968 1.24735 0.0207945 1.69759 0.0207945C2.14782 0.0207945 2.57962 0.195968 2.89804 0.507792L8.48939 5.9851L14.0807 0.507792C14.2374 0.348928 14.4247 0.222213 14.6319 0.13504C14.839 0.0478668 15.0618 0.00198197 15.2873 6.2802e-05C15.5127 -0.00185636 15.7363 0.0402281 15.945 0.123861C16.1537 0.207494 16.3433 0.331001 16.5027 0.487175C16.6621 0.643348 16.7882 0.829061 16.8736 1.03348C16.9589 1.23789 17.0019 1.45692 16.9999 1.67777C16.998 1.89863 16.9511 2.11689 16.8621 2.31982C16.7732 2.52275 16.6438 2.70629 16.4816 2.85972L9.68984 9.513C9.37142 9.82483 8.93962 10 8.48939 10C8.03915 10 7.60735 9.82483 7.28894 9.513L0.497137 2.85972C0.17882 2.54781 0 2.12481 0 1.68376C0 1.24271 0.17882 0.819711 0.497137 0.507792Z" fill="#7D67EE"/>
</svg>
