<svg width="7" height="11" viewBox="0 0 7 11" fill="none" xmlns="http://www.w3.org/2000/svg">
<path fill-rule="evenodd" clip-rule="evenodd" d="M0.355455 10.6783C0.137178 10.4723 0.0145569 10.1929 0.0145569 9.90156C0.0145569 9.61023 0.137178 9.33083 0.355455 9.1248L4.18957 5.50687L0.355455 1.88894C0.24425 1.78759 0.155549 1.66635 0.0945277 1.53231C0.0335069 1.39827 0.0013876 1.2541 4.3869e-05 1.10822C-0.00129938 0.962339 0.028161 0.817667 0.0867043 0.682644C0.145247 0.547621 0.231702 0.424953 0.341023 0.321795C0.450345 0.218637 0.580343 0.137057 0.723434 0.0818157C0.866526 0.0265732 1.01984 -0.00122643 1.17444 4.19617e-05C1.32904 0.00130939 1.48182 0.0316172 1.62387 0.0891981C1.76593 0.146778 1.8944 0.230478 2.00181 0.335413L6.6591 4.73011C6.87738 4.93614 7 5.21554 7 5.50687C7 5.7982 6.87738 6.0776 6.6591 6.28363L2.00181 10.6783C1.78346 10.8843 1.48737 11 1.17863 11C0.869895 11 0.573798 10.8843 0.355455 10.6783Z" fill="#D3D3D3"/>
</svg>
