<svg width="15" height="24" viewBox="0 0 15 24" fill="none" xmlns="http://www.w3.org/2000/svg">
<path fill-rule="evenodd" clip-rule="evenodd" d="M13.6798 0.70184C14.1292 1.15136 14.3816 1.76097 14.3816 2.39659C14.3816 3.03222 14.1292 3.64182 13.6798 4.09135L5.7861 11.985L13.6798 19.8787C13.9087 20.0998 14.0913 20.3643 14.217 20.6568C14.3426 20.9492 14.4087 21.2638 14.4115 21.5821C14.4143 21.9004 14.3536 22.216 14.2331 22.5106C14.1125 22.8052 13.9346 23.0728 13.7095 23.2979C13.4844 23.523 13.2168 23.701 12.9222 23.8215C12.6276 23.942 12.3119 24.0027 11.9936 23.9999C11.6754 23.9971 11.3608 23.931 11.0684 23.8054C10.7759 23.6798 10.5114 23.4971 10.2903 23.2682L0.70184 13.6798C0.252452 13.2302 0 12.6206 0 11.985C0 11.3494 0.252452 10.7398 0.70184 10.2903L10.2903 0.70184C10.7398 0.252452 11.3494 0 11.985 0C12.6206 0 13.2302 0.252452 13.6798 0.70184Z" fill="#7D67EE"/>
</svg>
