<svg width="20" height="16" viewBox="0 0 20 16" fill="none" xmlns="http://www.w3.org/2000/svg">
<path d="M15 5V3C15 2.46957 14.7893 1.96086 14.4142 1.58579C14.0391 1.21071 13.5304 1 13 1H3C2.46957 1 1.96086 1.21071 1.58579 1.58579C1.21071 1.96086 1 2.46957 1 3V9C1 9.53043 1.21071 10.0391 1.58579 10.4142C1.96086 10.7893 2.46957 11 3 11H5M7 15H17C17.5304 15 18.0391 14.7893 18.4142 14.4142C18.7893 14.0391 19 13.5304 19 13V7C19 6.46957 18.7893 5.96086 18.4142 5.58579C18.0391 5.21071 17.5304 5 17 5H7C6.46957 5 5.96086 5.21071 5.58579 5.58579C5.21071 5.96086 5 6.46957 5 7V13C5 13.5304 5.21071 14.0391 5.58579 14.4142C5.96086 14.7893 6.46957 15 7 15ZM14 10C14 10.3956 13.8827 10.7822 13.6629 11.1111C13.4432 11.44 13.1308 11.6964 12.7654 11.8478C12.3999 11.9991 11.9978 12.0387 11.6098 11.9616C11.2219 11.8844 10.8655 11.6939 10.5858 11.4142C10.3061 11.1345 10.1156 10.7781 10.0384 10.3902C9.96126 10.0022 10.0009 9.60009 10.1522 9.23463C10.3036 8.86918 10.56 8.55682 10.8889 8.33706C11.2178 8.1173 11.6044 8 12 8C12.5304 8 13.0391 8.21071 13.4142 8.58579C13.7893 8.96086 14 9.46957 14 10Z" stroke="#7D67EE" stroke-width="2" stroke-linecap="round" stroke-linejoin="round"/>
</svg>
