<svg width="144" height="58" viewBox="0 0 144 58" fill="none" xmlns="http://www.w3.org/2000/svg">
<rect width="144" height="58" rx="5" fill="#E2E6FE"/>
<path d="M62.4364 31.27C62.2464 31.91 61.9464 32.445 61.5364 32.875C61.1264 33.305 60.6414 33.625 60.0814 33.835C59.5214 34.045 58.9064 34.15 58.2364 34.15C57.2564 34.15 56.4064 33.945 55.6864 33.535C54.9764 33.125 54.4264 32.54 54.0364 31.78C53.6564 31.02 53.4664 30.11 53.4664 29.05C53.4664 27.99 53.6564 27.08 54.0364 26.32C54.4264 25.56 54.9764 24.975 55.6864 24.565C56.4064 24.155 57.2464 23.95 58.2064 23.95C58.8864 23.95 59.5014 24.045 60.0514 24.235C60.6014 24.415 61.0664 24.695 61.4464 25.075C61.8364 25.455 62.1214 25.935 62.3014 26.515L60.4264 27.31C60.2564 26.71 59.9964 26.285 59.6464 26.035C59.2964 25.775 58.8464 25.645 58.2964 25.645C57.7564 25.645 57.2814 25.775 56.8714 26.035C56.4714 26.295 56.1614 26.68 55.9414 27.19C55.7214 27.69 55.6114 28.31 55.6114 29.05C55.6114 29.78 55.7114 30.4 55.9114 30.91C56.1214 31.42 56.4264 31.805 56.8264 32.065C57.2264 32.325 57.7164 32.455 58.2964 32.455C58.8364 32.455 59.3014 32.31 59.6914 32.02C60.0914 31.73 60.3714 31.29 60.5314 30.7L62.4364 31.27ZM66.0156 23.215V31.69C66.0156 32.04 66.0756 32.285 66.1956 32.425C66.3156 32.565 66.5156 32.635 66.7956 32.635C66.9656 32.635 67.1056 32.625 67.2156 32.605C67.3256 32.575 67.4656 32.535 67.6356 32.485L67.4556 33.835C67.2856 33.935 67.0706 34.01 66.8106 34.06C66.5606 34.12 66.3106 34.15 66.0606 34.15C65.3306 34.15 64.7956 33.975 64.4556 33.625C64.1256 33.265 63.9606 32.695 63.9606 31.915V23.215H66.0156ZM72.2607 34.15C71.4707 34.15 70.7807 33.995 70.1907 33.685C69.6107 33.375 69.1607 32.93 68.8407 32.35C68.5207 31.77 68.3607 31.07 68.3607 30.25C68.3607 29.43 68.5207 28.73 68.8407 28.15C69.1607 27.57 69.6057 27.125 70.1757 26.815C70.7557 26.505 71.4157 26.35 72.1557 26.35C72.9157 26.35 73.5607 26.505 74.0907 26.815C74.6207 27.115 75.0257 27.53 75.3057 28.06C75.5857 28.58 75.7257 29.175 75.7257 29.845C75.7257 30.045 75.7207 30.235 75.7107 30.415C75.7007 30.595 75.6857 30.755 75.6657 30.895H69.6807V29.47H74.7657L73.7757 29.83C73.7757 29.2 73.6307 28.715 73.3407 28.375C73.0607 28.035 72.6607 27.865 72.1407 27.865C71.7607 27.865 71.4307 27.955 71.1507 28.135C70.8807 28.315 70.6757 28.585 70.5357 28.945C70.3957 29.295 70.3257 29.74 70.3257 30.28C70.3257 30.81 70.4007 31.25 70.5507 31.6C70.7107 31.94 70.9307 32.195 71.2107 32.365C71.5007 32.535 71.8457 32.62 72.2457 32.62C72.6857 32.62 73.0407 32.535 73.3107 32.365C73.5807 32.195 73.7907 31.96 73.9407 31.66L75.5757 32.29C75.4157 32.68 75.1707 33.015 74.8407 33.295C74.5207 33.575 74.1357 33.79 73.6857 33.94C73.2457 34.08 72.7707 34.15 72.2607 34.15ZM81.7422 29.215C81.7422 28.785 81.6172 28.45 81.3672 28.21C81.1272 27.97 80.8072 27.85 80.4072 27.85C80.0372 27.85 79.7122 27.945 79.4322 28.135C79.1522 28.325 78.9472 28.64 78.8172 29.08L77.0622 28.54C77.2322 27.88 77.6022 27.35 78.1722 26.95C78.7522 26.55 79.5272 26.35 80.4972 26.35C81.1572 26.35 81.7322 26.455 82.2222 26.665C82.7122 26.865 83.0922 27.17 83.3622 27.58C83.6422 27.99 83.7822 28.505 83.7822 29.125V32.17C83.7822 32.55 83.9622 32.74 84.3222 32.74C84.4922 32.74 84.6522 32.715 84.8022 32.665L84.6822 33.94C84.4222 34.07 84.0972 34.135 83.7072 34.135C83.3572 34.135 83.0422 34.075 82.7622 33.955C82.4822 33.835 82.2622 33.655 82.1022 33.415C81.9422 33.165 81.8622 32.855 81.8622 32.485V32.425L82.2222 32.365C82.1622 32.745 81.9972 33.07 81.7272 33.34C81.4572 33.6 81.1272 33.8 80.7372 33.94C80.3572 34.08 79.9622 34.15 79.5522 34.15C79.0422 34.15 78.6022 34.075 78.2322 33.925C77.8622 33.765 77.5772 33.535 77.3772 33.235C77.1772 32.935 77.0772 32.565 77.0772 32.125C77.0772 31.565 77.2572 31.11 77.6172 30.76C77.9772 30.4 78.4922 30.155 79.1622 30.025L81.9822 29.455L81.9672 30.73L80.1672 31.09C79.8272 31.16 79.5672 31.255 79.3872 31.375C79.2172 31.485 79.1322 31.67 79.1322 31.93C79.1322 32.18 79.2222 32.37 79.4022 32.5C79.5922 32.63 79.8172 32.695 80.0772 32.695C80.2872 32.695 80.4922 32.67 80.6922 32.62C80.8922 32.57 81.0722 32.49 81.2322 32.38C81.3922 32.27 81.5172 32.12 81.6072 31.93C81.6972 31.74 81.7422 31.51 81.7422 31.24V29.215ZM86.0805 34V26.5H87.8655L88.0005 27.97C88.2005 27.45 88.4905 27.05 88.8705 26.77C89.2605 26.49 89.7455 26.35 90.3255 26.35C90.4955 26.35 90.6505 26.365 90.7905 26.395C90.9305 26.425 91.0455 26.465 91.1355 26.515L90.8955 28.24C90.7955 28.2 90.6705 28.17 90.5205 28.15C90.3805 28.13 90.1955 28.12 89.9655 28.12C89.6655 28.12 89.3755 28.195 89.0955 28.345C88.8155 28.485 88.5855 28.705 88.4055 29.005C88.2255 29.295 88.1355 29.665 88.1355 30.115V34H86.0805Z" fill="#7D67EE"/>
</svg>
