<svg width="23" height="20" viewBox="0 0 23 20" fill="none" xmlns="http://www.w3.org/2000/svg">
<path d="M7.1875 0C6.80625 0 6.44062 0.15051 6.17103 0.418419C5.90145 0.686328 5.75 1.04969 5.75 1.42857C5.75 1.80745 5.90145 2.17081 6.17103 2.43872C6.44062 2.70663 6.80625 2.85714 7.1875 2.85714H15.8125C16.1937 2.85714 16.5594 2.70663 16.829 2.43872C17.0985 2.17081 17.25 1.80745 17.25 1.42857C17.25 1.04969 17.0985 0.686328 16.829 0.418419C16.5594 0.15051 16.1937 0 15.8125 0H7.1875ZM2.875 5.71429C2.875 5.33541 3.02645 4.97204 3.29603 4.70413C3.56562 4.43622 3.93125 4.28571 4.3125 4.28571H18.6875C19.0687 4.28571 19.4344 4.43622 19.704 4.70413C19.9735 4.97204 20.125 5.33541 20.125 5.71429C20.125 6.09317 19.9735 6.45653 19.704 6.72444C19.4344 6.99235 19.0687 7.14286 18.6875 7.14286H4.3125C3.93125 7.14286 3.56562 6.99235 3.29603 6.72444C3.02645 6.45653 2.875 6.09317 2.875 5.71429ZM0 11.4286C0 10.6708 0.302901 9.94409 0.842068 9.40827C1.38123 8.87245 2.1125 8.57143 2.875 8.57143H20.125C20.8875 8.57143 21.6188 8.87245 22.1579 9.40827C22.6971 9.94409 23 10.6708 23 11.4286V17.1429C23 17.9006 22.6971 18.6273 22.1579 19.1632C21.6188 19.699 20.8875 20 20.125 20H2.875C2.1125 20 1.38123 19.699 0.842068 19.1632C0.302901 18.6273 0 17.9006 0 17.1429V11.4286Z" fill="#E2E6FE"/>
</svg>
