<svg width="181" height="56" viewBox="0 0 181 56" fill="none" xmlns="http://www.w3.org/2000/svg">
<path d="M53.296 22.94C54.9493 22.94 56.2347 23.3987 57.152 24.316C58.08 25.2227 58.544 26.524 58.544 28.22C58.544 29.916 58.08 31.2227 57.152 32.14C56.2347 33.0467 54.9493 33.5 53.296 33.5H49.568V22.94H53.296ZM53.296 32.044C54.416 32.044 55.2693 31.7133 55.856 31.052C56.4533 30.38 56.752 29.436 56.752 28.22C56.752 27.004 56.4533 26.0653 55.856 25.404C55.2693 24.732 54.416 24.396 53.296 24.396H51.28V32.044H53.296ZM64.3636 33.66C63.5636 33.66 62.8596 33.4947 62.2516 33.164C61.6436 32.8333 61.169 32.3587 60.8276 31.74C60.497 31.1107 60.3316 30.364 60.3316 29.5C60.3316 28.636 60.497 27.8947 60.8276 27.276C61.169 26.6467 61.6383 26.1667 62.2356 25.836C62.833 25.5053 63.5103 25.34 64.2676 25.34C65.0463 25.34 65.7076 25.5 66.2516 25.82C66.7956 26.14 67.2116 26.5773 67.4996 27.132C67.7876 27.6867 67.9316 28.316 67.9316 29.02C67.9316 29.212 67.9263 29.3933 67.9156 29.564C67.905 29.7347 67.889 29.884 67.8676 30.012H61.4356V28.7H67.1156L66.2676 28.956C66.2676 28.2307 66.0863 27.676 65.7236 27.292C65.361 26.8973 64.865 26.7 64.2356 26.7C63.777 26.7 63.377 26.8067 63.0356 27.02C62.6943 27.2333 62.433 27.5533 62.2516 27.98C62.0703 28.396 61.9796 28.908 61.9796 29.516C61.9796 30.1133 62.0756 30.62 62.2676 31.036C62.4596 31.452 62.7316 31.7667 63.0836 31.98C63.4356 32.1933 63.8516 32.3 64.3316 32.3C64.865 32.3 65.297 32.1987 65.6276 31.996C65.9583 31.7933 66.2196 31.5107 66.4116 31.148L67.7716 31.788C67.5796 32.172 67.3183 32.508 66.9876 32.796C66.6676 33.0733 66.2836 33.2867 65.8356 33.436C65.3876 33.5853 64.897 33.66 64.3636 33.66ZM71.7576 21.9V31.26C71.7576 31.6547 71.827 31.9267 71.9656 32.076C72.1043 32.2253 72.3336 32.3 72.6536 32.3C72.8456 32.3 73.0056 32.2893 73.1336 32.268C73.2723 32.236 73.443 32.1827 73.6456 32.108L73.4536 33.388C73.2723 33.4733 73.0643 33.5373 72.8296 33.58C72.595 33.6333 72.3603 33.66 72.1256 33.66C71.411 33.66 70.883 33.4787 70.5416 33.116C70.211 32.7427 70.0456 32.172 70.0456 31.404V21.9H71.7576ZM78.598 33.66C77.798 33.66 77.094 33.4947 76.486 33.164C75.878 32.8333 75.4033 32.3587 75.062 31.74C74.7313 31.1107 74.566 30.364 74.566 29.5C74.566 28.636 74.7313 27.8947 75.062 27.276C75.4033 26.6467 75.8727 26.1667 76.47 25.836C77.0673 25.5053 77.7447 25.34 78.502 25.34C79.2807 25.34 79.942 25.5 80.486 25.82C81.03 26.14 81.446 26.5773 81.734 27.132C82.022 27.6867 82.166 28.316 82.166 29.02C82.166 29.212 82.1607 29.3933 82.15 29.564C82.1393 29.7347 82.1233 29.884 82.102 30.012H75.67V28.7H81.35L80.502 28.956C80.502 28.2307 80.3207 27.676 79.958 27.292C79.5953 26.8973 79.0993 26.7 78.47 26.7C78.0113 26.7 77.6113 26.8067 77.27 27.02C76.9287 27.2333 76.6673 27.5533 76.486 27.98C76.3047 28.396 76.214 28.908 76.214 29.516C76.214 30.1133 76.31 30.62 76.502 31.036C76.694 31.452 76.966 31.7667 77.318 31.98C77.67 32.1933 78.086 32.3 78.566 32.3C79.0993 32.3 79.5313 32.1987 79.862 31.996C80.1927 31.7933 80.454 31.5107 80.646 31.148L82.006 31.788C81.814 32.172 81.5527 32.508 81.222 32.796C80.902 33.0733 80.518 33.2867 80.07 33.436C79.622 33.5853 79.1313 33.66 78.598 33.66ZM86.4765 23.148V31.1C86.4765 31.4947 86.5778 31.7827 86.7805 31.964C86.9938 32.1453 87.2765 32.236 87.6285 32.236C87.9165 32.236 88.1672 32.1933 88.3805 32.108C88.5938 32.012 88.7912 31.884 88.9725 31.724L89.3565 32.972C89.1112 33.1853 88.8072 33.356 88.4445 33.484C88.0925 33.6013 87.6978 33.66 87.2605 33.66C86.8018 33.66 86.3805 33.5853 85.9965 33.436C85.6125 33.2867 85.3138 33.0467 85.1005 32.716C84.8872 32.3747 84.7752 31.932 84.7645 31.388V23.628L86.4765 23.148ZM89.2285 25.5V26.844H83.2285V25.5H89.2285ZM94.4418 33.66C93.6418 33.66 92.9378 33.4947 92.3298 33.164C91.7218 32.8333 91.2471 32.3587 90.9058 31.74C90.5751 31.1107 90.4098 30.364 90.4098 29.5C90.4098 28.636 90.5751 27.8947 90.9058 27.276C91.2471 26.6467 91.7164 26.1667 92.3138 25.836C92.9111 25.5053 93.5884 25.34 94.3458 25.34C95.1244 25.34 95.7858 25.5 96.3298 25.82C96.8738 26.14 97.2898 26.5773 97.5778 27.132C97.8658 27.6867 98.0098 28.316 98.0098 29.02C98.0098 29.212 98.0044 29.3933 97.9938 29.564C97.9831 29.7347 97.9671 29.884 97.9458 30.012H91.5138V28.7H97.1938L96.3458 28.956C96.3458 28.2307 96.1644 27.676 95.8018 27.292C95.4391 26.8973 94.9431 26.7 94.3138 26.7C93.8551 26.7 93.4551 26.8067 93.1138 27.02C92.7724 27.2333 92.5111 27.5533 92.3298 27.98C92.1484 28.396 92.0578 28.908 92.0578 29.516C92.0578 30.1133 92.1538 30.62 92.3458 31.036C92.5378 31.452 92.8098 31.7667 93.1618 31.98C93.5138 32.1933 93.9298 32.3 94.4098 32.3C94.9431 32.3 95.3751 32.1987 95.7058 31.996C96.0364 31.7933 96.2978 31.5107 96.4898 31.148L97.8498 31.788C97.6578 32.172 97.3964 32.508 97.0658 32.796C96.7458 33.0733 96.3618 33.2867 95.9138 33.436C95.4658 33.5853 94.9751 33.66 94.4418 33.66ZM113.836 33.5H112.028L111.02 30.732H106.588L105.58 33.5H103.82L107.804 22.94H109.852L113.836 33.5ZM107.068 29.34H110.54L108.812 24.412L107.068 29.34ZM118.753 25.34C119.393 25.34 119.937 25.436 120.385 25.628C120.843 25.8093 121.227 26.0707 121.537 26.412C121.846 26.7533 122.081 27.1427 122.241 27.58L120.625 28.22C120.486 27.7293 120.262 27.356 119.953 27.1C119.654 26.8333 119.259 26.7 118.769 26.7C118.289 26.7 117.878 26.812 117.537 27.036C117.195 27.2493 116.934 27.564 116.753 27.98C116.582 28.396 116.497 28.908 116.497 29.516C116.497 30.1133 116.587 30.62 116.769 31.036C116.95 31.452 117.211 31.7667 117.553 31.98C117.894 32.1933 118.299 32.3 118.769 32.3C119.131 32.3 119.446 32.2413 119.713 32.124C119.979 31.996 120.198 31.82 120.369 31.596C120.55 31.3613 120.673 31.0787 120.737 30.748L122.289 31.276C122.139 31.756 121.905 32.1773 121.585 32.54C121.275 32.892 120.886 33.1693 120.417 33.372C119.947 33.564 119.409 33.66 118.801 33.66C118.011 33.66 117.313 33.4947 116.705 33.164C116.097 32.8333 115.622 32.3587 115.281 31.74C114.95 31.1107 114.785 30.364 114.785 29.5C114.785 28.636 114.95 27.8947 115.281 27.276C115.622 26.6467 116.091 26.1667 116.689 25.836C117.297 25.5053 117.985 25.34 118.753 25.34ZM127.737 25.34C128.377 25.34 128.921 25.436 129.369 25.628C129.828 25.8093 130.212 26.0707 130.521 26.412C130.83 26.7533 131.065 27.1427 131.225 27.58L129.609 28.22C129.47 27.7293 129.246 27.356 128.937 27.1C128.638 26.8333 128.244 26.7 127.753 26.7C127.273 26.7 126.862 26.812 126.521 27.036C126.18 27.2493 125.918 27.564 125.737 27.98C125.566 28.396 125.481 28.908 125.481 29.516C125.481 30.1133 125.572 30.62 125.753 31.036C125.934 31.452 126.196 31.7667 126.537 31.98C126.878 32.1933 127.284 32.3 127.753 32.3C128.116 32.3 128.43 32.2413 128.697 32.124C128.964 31.996 129.182 31.82 129.353 31.596C129.534 31.3613 129.657 31.0787 129.721 30.748L131.273 31.276C131.124 31.756 130.889 32.1773 130.569 32.54C130.26 32.892 129.87 33.1693 129.401 33.372C128.932 33.564 128.393 33.66 127.785 33.66C126.996 33.66 126.297 33.4947 125.689 33.164C125.081 32.8333 124.606 32.3587 124.265 31.74C123.934 31.1107 123.769 30.364 123.769 29.5C123.769 28.636 123.934 27.8947 124.265 27.276C124.606 26.6467 125.076 26.1667 125.673 25.836C126.281 25.5053 126.969 25.34 127.737 25.34ZM136.738 25.34C137.516 25.34 138.204 25.5053 138.802 25.836C139.399 26.1667 139.863 26.6467 140.194 27.276C140.535 27.8947 140.706 28.636 140.706 29.5C140.706 30.364 140.535 31.1107 140.194 31.74C139.863 32.3587 139.399 32.8333 138.802 33.164C138.204 33.4947 137.516 33.66 136.738 33.66C135.959 33.66 135.271 33.4947 134.674 33.164C134.076 32.8333 133.607 32.3587 133.266 31.74C132.924 31.1107 132.754 30.364 132.754 29.5C132.754 28.636 132.924 27.8947 133.266 27.276C133.607 26.6467 134.076 26.1667 134.674 25.836C135.271 25.5053 135.959 25.34 136.738 25.34ZM136.738 26.684C136.258 26.684 135.847 26.796 135.506 27.02C135.175 27.2333 134.919 27.548 134.738 27.964C134.556 28.38 134.466 28.892 134.466 29.5C134.466 30.0973 134.556 30.6093 134.738 31.036C134.919 31.452 135.175 31.772 135.506 31.996C135.847 32.2093 136.258 32.316 136.738 32.316C137.218 32.316 137.623 32.2093 137.954 31.996C138.284 31.772 138.54 31.452 138.722 31.036C138.903 30.6093 138.994 30.0973 138.994 29.5C138.994 28.892 138.903 28.38 138.722 27.964C138.54 27.548 138.284 27.2333 137.954 27.02C137.623 26.796 137.218 26.684 136.738 26.684ZM145.707 33.66C145.185 33.66 144.699 33.564 144.251 33.372C143.814 33.18 143.462 32.8707 143.195 32.444C142.929 32.0173 142.795 31.4627 142.795 30.78V25.5H144.507V30.348C144.507 31.0733 144.662 31.5747 144.971 31.852C145.281 32.1187 145.713 32.252 146.267 32.252C146.534 32.252 146.79 32.2093 147.035 32.124C147.291 32.028 147.521 31.884 147.723 31.692C147.926 31.4893 148.081 31.2333 148.187 30.924C148.305 30.6147 148.363 30.252 148.363 29.836V25.5H150.075V33.5H148.571L148.491 32.204C148.214 32.7053 147.841 33.0733 147.371 33.308C146.902 33.5427 146.347 33.66 145.707 33.66ZM152.75 33.5V25.5H154.27L154.382 27.58L154.158 27.356C154.307 26.8973 154.521 26.5187 154.798 26.22C155.086 25.9107 155.422 25.6867 155.806 25.548C156.201 25.4093 156.617 25.34 157.054 25.34C157.619 25.34 158.126 25.452 158.574 25.676C159.033 25.8893 159.395 26.2147 159.662 26.652C159.929 27.0893 160.062 27.644 160.062 28.316V33.5H158.35V28.844C158.35 28.0547 158.185 27.5107 157.854 27.212C157.534 26.9027 157.129 26.748 156.638 26.748C156.286 26.748 155.945 26.8333 155.614 27.004C155.283 27.164 155.006 27.4253 154.782 27.788C154.569 28.1507 154.462 28.636 154.462 29.244V33.5H152.75ZM164.898 23.148V31.1C164.898 31.4947 165 31.7827 165.202 31.964C165.416 32.1453 165.698 32.236 166.05 32.236C166.338 32.236 166.589 32.1933 166.802 32.108C167.016 32.012 167.213 31.884 167.394 31.724L167.778 32.972C167.533 33.1853 167.229 33.356 166.866 33.484C166.514 33.6013 166.12 33.66 165.682 33.66C165.224 33.66 164.802 33.5853 164.418 33.436C164.034 33.2867 163.736 33.0467 163.522 32.716C163.309 32.3747 163.197 31.932 163.186 31.388V23.628L164.898 23.148ZM167.65 25.5V26.844H161.65V25.5H167.65Z" fill="#666666"/>
<path fill-rule="evenodd" clip-rule="evenodd" d="M23 20C22.8143 20.0001 22.6324 20.0519 22.4745 20.1496C22.3166 20.2472 22.189 20.3869 22.106 20.553L21.382 22H18C17.7348 22 17.4804 22.1054 17.2929 22.2929C17.1054 22.4804 17 22.7348 17 23C17 23.2652 17.1054 23.5196 17.2929 23.7071C17.4804 23.8946 17.7348 24 18 24V34C18 34.5304 18.2107 35.0391 18.5858 35.4142C18.9609 35.7893 19.4696 36 20 36H28C28.5304 36 29.0391 35.7893 29.4142 35.4142C29.7893 35.0391 30 34.5304 30 34V24C30.2652 24 30.5196 23.8946 30.7071 23.7071C30.8946 23.5196 31 23.2652 31 23C31 22.7348 30.8946 22.4804 30.7071 22.2929C30.5196 22.1054 30.2652 22 30 22H26.618L25.894 20.553C25.811 20.3869 25.6834 20.2472 25.5255 20.1496C25.3676 20.0519 25.1857 20.0001 25 20H23ZM21 26C21 25.7348 21.1054 25.4804 21.2929 25.2929C21.4804 25.1054 21.7348 25 22 25C22.2652 25 22.5196 25.1054 22.7071 25.2929C22.8946 25.4804 23 25.7348 23 26V32C23 32.2652 22.8946 32.5196 22.7071 32.7071C22.5196 32.8946 22.2652 33 22 33C21.7348 33 21.4804 32.8946 21.2929 32.7071C21.1054 32.5196 21 32.2652 21 32V26ZM26 25C25.7348 25 25.4804 25.1054 25.2929 25.2929C25.1054 25.4804 25 25.7348 25 26V32C25 32.2652 25.1054 32.5196 25.2929 32.7071C25.4804 32.8946 25.7348 33 26 33C26.2652 33 26.5196 32.8946 26.7071 32.7071C26.8946 32.5196 27 32.2652 27 32V26C27 25.7348 26.8946 25.4804 26.7071 25.2929C26.5196 25.1054 26.2652 25 26 25Z" fill="#666666"/>
</svg>
