<svg width="137" height="39" viewBox="0 0 137 39" fill="none" xmlns="http://www.w3.org/2000/svg">
<rect width="137" height="39" rx="5" fill="#7D67EE"/>
<path d="M25.8291 25V14.44H33.7491V16.216H28.0371V18.84H32.5331V20.536H28.0371V23.224H33.9731V25H25.8291ZM38.5666 25.16C37.9053 25.16 37.3133 24.9947 36.7906 24.664C36.2786 24.3333 35.8733 23.8587 35.5746 23.24C35.2866 22.6213 35.1426 21.88 35.1426 21.016C35.1426 20.1307 35.2973 19.3787 35.6066 18.76C35.916 18.1307 36.332 17.656 36.8546 17.336C37.388 17.0053 37.9853 16.84 38.6466 16.84C39.3506 16.84 39.932 17.0427 40.3906 17.448C40.8493 17.8533 41.148 18.376 41.2866 19.016L41.0786 19.272V13.496H43.2706V25H41.3026L41.1586 22.568L41.4306 22.696C41.356 23.1973 41.1853 23.6347 40.9186 24.008C40.652 24.3707 40.316 24.6533 39.9106 24.856C39.5053 25.0587 39.0573 25.16 38.5666 25.16ZM39.2066 23.48C39.5906 23.48 39.9213 23.384 40.1986 23.192C40.476 22.9893 40.6893 22.696 40.8386 22.312C40.9986 21.928 41.0786 21.4693 41.0786 20.936C41.0786 20.424 41.004 19.992 40.8546 19.64C40.7053 19.2773 40.492 19 40.2146 18.808C39.9373 18.616 39.612 18.52 39.2386 18.52C38.6413 18.52 38.172 18.7333 37.8306 19.16C37.5 19.576 37.3346 20.1893 37.3346 21C37.3346 21.8107 37.5 22.4293 37.8306 22.856C38.1613 23.272 38.62 23.48 39.2066 23.48ZM46.6779 15.848C46.2192 15.848 45.8779 15.752 45.6539 15.56C45.4299 15.3573 45.3179 15.064 45.3179 14.68C45.3179 14.2853 45.4299 13.992 45.6539 13.8C45.8779 13.5973 46.2192 13.496 46.6779 13.496C47.1365 13.496 47.4779 13.5973 47.7019 13.8C47.9259 13.992 48.0379 14.2853 48.0379 14.68C48.0379 15.064 47.9259 15.3573 47.7019 15.56C47.4779 15.752 47.1365 15.848 46.6779 15.848ZM47.7659 17V25H45.5739V17H47.7659ZM52.9215 14.552V22.392C52.9215 22.776 53.0175 23.0587 53.2095 23.24C53.4122 23.4107 53.6842 23.496 54.0255 23.496C54.2922 23.496 54.5268 23.4587 54.7295 23.384C54.9322 23.2987 55.1135 23.1867 55.2735 23.048L55.6255 24.504C55.3695 24.7067 55.0495 24.8667 54.6655 24.984C54.2815 25.1013 53.8762 25.16 53.4495 25.16C52.9162 25.16 52.4415 25.08 52.0255 24.92C51.6202 24.76 51.3002 24.504 51.0655 24.152C50.8415 23.8 50.7295 23.3307 50.7295 22.744V15.16L52.9215 14.552ZM55.4815 17V18.632H49.2575V17H55.4815ZM66.5111 14.44C67.3218 14.44 68.0151 14.5787 68.5911 14.856C69.1671 15.1227 69.6098 15.512 69.9191 16.024C70.2391 16.5253 70.3991 17.1333 70.3991 17.848C70.3991 18.5627 70.2391 19.176 69.9191 19.688C69.6098 20.1893 69.1671 20.5787 68.5911 20.856C68.0151 21.1227 67.3218 21.256 66.5111 21.256H64.2871V25H62.0791V14.44H66.5111ZM66.1751 19.512C66.8365 19.512 67.3325 19.3733 67.6631 19.096C67.9938 18.808 68.1591 18.392 68.1591 17.848C68.1591 17.2933 67.9938 16.8773 67.6631 16.6C67.3325 16.3227 66.8365 16.184 66.1751 16.184H64.2871V19.512H66.1751ZM72.1989 25V17H74.1029L74.2469 18.568C74.4602 18.0133 74.7695 17.5867 75.1749 17.288C75.5909 16.9893 76.1082 16.84 76.7269 16.84C76.9082 16.84 77.0735 16.856 77.2229 16.888C77.3722 16.92 77.4949 16.9627 77.5909 17.016L77.3349 18.856C77.2282 18.8133 77.0949 18.7813 76.9349 18.76C76.7855 18.7387 76.5882 18.728 76.3429 18.728C76.0229 18.728 75.7135 18.808 75.4149 18.968C75.1162 19.1173 74.8709 19.352 74.6789 19.672C74.4869 19.9813 74.3909 20.376 74.3909 20.856V25H72.1989ZM82.4406 16.84C83.2513 16.84 83.9606 17.0053 84.5686 17.336C85.1873 17.6667 85.6673 18.1413 86.0086 18.76C86.3606 19.3787 86.5366 20.1253 86.5366 21C86.5366 21.864 86.3606 22.6107 86.0086 23.24C85.6673 23.8587 85.1873 24.3333 84.5686 24.664C83.9606 24.9947 83.2513 25.16 82.4406 25.16C81.6406 25.16 80.9313 24.9947 80.3126 24.664C79.694 24.3333 79.2086 23.8587 78.8566 23.24C78.5153 22.6107 78.3446 21.864 78.3446 21C78.3446 20.1253 78.5153 19.3787 78.8566 18.76C79.2086 18.1413 79.694 17.6667 80.3126 17.336C80.9313 17.0053 81.6406 16.84 82.4406 16.84ZM82.4406 18.472C82.0353 18.472 81.6886 18.568 81.4006 18.76C81.1233 18.9413 80.91 19.2187 80.7606 19.592C80.6113 19.9653 80.5366 20.4347 80.5366 21C80.5366 21.5653 80.6113 22.0347 80.7606 22.408C80.91 22.7813 81.1233 23.064 81.4006 23.256C81.6886 23.4373 82.0353 23.528 82.4406 23.528C82.8353 23.528 83.1713 23.4373 83.4486 23.256C83.7366 23.064 83.9553 22.7813 84.1046 22.408C84.254 22.0347 84.3286 21.5653 84.3286 21C84.3286 20.4347 84.254 19.9653 84.1046 19.592C83.9553 19.2187 83.7366 18.9413 83.4486 18.76C83.1713 18.568 82.8353 18.472 82.4406 18.472ZM91.8606 13.336C92.234 13.336 92.57 13.3787 92.8686 13.464C93.178 13.5387 93.4073 13.6347 93.5566 13.752L93.2526 15.208C93.1353 15.1333 93.002 15.0747 92.8526 15.032C92.7033 14.9893 92.5273 14.968 92.3246 14.968C91.9086 14.968 91.578 15.064 91.3326 15.256C91.0873 15.4373 90.9646 15.752 90.9646 16.2V17.304L91.0606 17.736V25H88.8686V16.04C88.8686 15.592 88.9433 15.1973 89.0926 14.856C89.242 14.5147 89.45 14.232 89.7166 14.008C89.9833 13.784 90.298 13.6187 90.6606 13.512C91.034 13.3947 91.434 13.336 91.8606 13.336ZM93.4926 17V18.632H87.4766V17H93.4926ZM95.9086 15.848C95.45 15.848 95.1086 15.752 94.8846 15.56C94.6606 15.3573 94.5486 15.064 94.5486 14.68C94.5486 14.2853 94.6606 13.992 94.8846 13.8C95.1086 13.5973 95.45 13.496 95.9086 13.496C96.3673 13.496 96.7086 13.5973 96.9326 13.8C97.1566 13.992 97.2686 14.2853 97.2686 14.68C97.2686 15.064 97.1566 15.3573 96.9326 15.56C96.7086 15.752 96.3673 15.848 95.9086 15.848ZM96.9966 17V25H94.8046V17H96.9966ZM101.484 13.496V22.536C101.484 22.9093 101.548 23.1707 101.676 23.32C101.804 23.4693 102.017 23.544 102.316 23.544C102.497 23.544 102.647 23.5333 102.764 23.512C102.881 23.48 103.031 23.4373 103.212 23.384L103.02 24.824C102.839 24.9307 102.609 25.0107 102.332 25.064C102.065 25.128 101.799 25.16 101.532 25.16C100.753 25.16 100.183 24.9733 99.8199 24.6C99.4679 24.216 99.2919 23.608 99.2919 22.776V13.496H101.484ZM108.145 25.16C107.303 25.16 106.567 24.9947 105.937 24.664C105.319 24.3333 104.839 23.8587 104.497 23.24C104.156 22.6213 103.985 21.8747 103.985 21C103.985 20.1253 104.156 19.3787 104.497 18.76C104.839 18.1413 105.313 17.6667 105.921 17.336C106.54 17.0053 107.244 16.84 108.033 16.84C108.844 16.84 109.532 17.0053 110.097 17.336C110.663 17.656 111.095 18.0987 111.393 18.664C111.692 19.2187 111.841 19.8533 111.841 20.568C111.841 20.7813 111.836 20.984 111.825 21.176C111.815 21.368 111.799 21.5387 111.777 21.688H105.393V20.168H110.817L109.761 20.552C109.761 19.88 109.607 19.3627 109.297 19C108.999 18.6373 108.572 18.456 108.017 18.456C107.612 18.456 107.26 18.552 106.961 18.744C106.673 18.936 106.455 19.224 106.305 19.608C106.156 19.9813 106.081 20.456 106.081 21.032C106.081 21.5973 106.161 22.0667 106.321 22.44C106.492 22.8027 106.727 23.0747 107.025 23.256C107.335 23.4373 107.703 23.528 108.129 23.528C108.599 23.528 108.977 23.4373 109.265 23.256C109.553 23.0747 109.777 22.824 109.937 22.504L111.681 23.176C111.511 23.592 111.249 23.9493 110.897 24.248C110.556 24.5467 110.145 24.776 109.665 24.936C109.196 25.0853 108.689 25.16 108.145 25.16Z" fill="#F8F8F8"/>
</svg>
