<svg width="28" height="28" viewBox="0 0 28 28" fill="none" xmlns="http://www.w3.org/2000/svg">
<path d="M23.2678 4.73199C22.799 4.2633 22.1632 4 21.5003 4C20.8374 4 20.2016 4.2633 19.7328 4.73199L10.25 14.2147V17.7498H13.7851L23.2678 8.26708C23.7365 7.79825 23.9998 7.16246 23.9998 6.49953C23.9998 5.8366 23.7365 5.20082 23.2678 4.73199Z" fill="#7D67EE"/>
<path fill-rule="evenodd" clip-rule="evenodd" d="M4 8.99958C4 8.33652 4.2634 7.70062 4.73225 7.23176C5.20111 6.76291 5.83701 6.49951 6.50007 6.49951H11.5002C11.8317 6.49951 12.1497 6.63121 12.3841 6.86564C12.6185 7.10006 12.7502 7.41802 12.7502 7.74955C12.7502 8.08107 12.6185 8.39903 12.3841 8.63345C12.1497 8.86788 11.8317 8.99958 11.5002 8.99958H6.50007V21.4999H19.0004V16.4998C19.0004 16.1682 19.1321 15.8503 19.3665 15.6159C19.601 15.3814 19.9189 15.2497 20.2504 15.2497C20.582 15.2497 20.8999 15.3814 21.1343 15.6159C21.3688 15.8503 21.5005 16.1682 21.5005 16.4998V21.4999C21.5005 22.163 21.2371 22.7989 20.7682 23.2677C20.2994 23.7366 19.6635 24 19.0004 24H6.50007C5.83701 24 5.20111 23.7366 4.73225 23.2677C4.2634 22.7989 4 22.163 4 21.4999V8.99958Z" fill="#7D67EE"/>
</svg>
