<svg width="148" height="56" viewBox="0 0 148 56" fill="none" xmlns="http://www.w3.org/2000/svg">
<path d="M49.568 33.5V22.94H57.216V24.412H51.28V27.452H55.92V28.892H51.28V32.028H57.44V33.5H49.568ZM62.3375 33.66C61.6762 33.66 61.0735 33.4947 60.5295 33.164C59.9962 32.8333 59.5748 32.3587 59.2655 31.74C58.9562 31.1213 58.8015 30.38 58.8015 29.516C58.8015 28.62 58.9668 27.8627 59.2975 27.244C59.6282 26.6253 60.0708 26.156 60.6255 25.836C61.1802 25.5053 61.7882 25.34 62.4495 25.34C63.1322 25.34 63.7082 25.5267 64.1775 25.9C64.6468 26.2733 64.9615 26.7587 65.1215 27.356L64.9295 27.532V21.9H66.6415V33.5H65.1215L64.9935 31.324L65.2175 31.34C65.1428 31.82 64.9668 32.236 64.6895 32.588C64.4122 32.9293 64.0655 33.196 63.6495 33.388C63.2442 33.5693 62.8068 33.66 62.3375 33.66ZM62.7055 32.284C63.1642 32.284 63.5588 32.1667 63.8895 31.932C64.2202 31.6973 64.4762 31.3667 64.6575 30.94C64.8388 30.5133 64.9295 30.0013 64.9295 29.404C64.9295 28.8493 64.8388 28.3747 64.6575 27.98C64.4762 27.5747 64.2202 27.2653 63.8895 27.052C63.5695 26.8387 63.1962 26.732 62.7695 26.732C62.0548 26.732 61.5002 26.9773 61.1055 27.468C60.7108 27.9587 60.5135 28.636 60.5135 29.5C60.5135 30.364 60.7055 31.0467 61.0895 31.548C61.4735 32.0387 62.0122 32.284 62.7055 32.284ZM70.1608 24.156C69.7874 24.156 69.4994 24.0653 69.2968 23.884C69.1048 23.692 69.0088 23.4253 69.0088 23.084C69.0088 22.7427 69.1048 22.4813 69.2968 22.3C69.4994 22.1187 69.7874 22.028 70.1608 22.028C70.5234 22.028 70.8008 22.1187 70.9928 22.3C71.1954 22.4813 71.2968 22.7427 71.2968 23.084C71.2968 23.4253 71.1954 23.692 70.9928 23.884C70.8008 24.0653 70.5234 24.156 70.1608 24.156ZM71.0088 25.5V33.5H69.2968V25.5H71.0088ZM76.0234 23.148V31.1C76.0234 31.4947 76.1247 31.7827 76.3274 31.964C76.5407 32.1453 76.8234 32.236 77.1754 32.236C77.4634 32.236 77.714 32.1933 77.9274 32.108C78.1407 32.012 78.338 31.884 78.5194 31.724L78.9034 32.972C78.658 33.1853 78.354 33.356 77.9914 33.484C77.6394 33.6013 77.2447 33.66 76.8074 33.66C76.3487 33.66 75.9274 33.5853 75.5434 33.436C75.1594 33.2867 74.8607 33.0467 74.6474 32.716C74.434 32.3747 74.322 31.932 74.3114 31.388V23.628L76.0234 23.148ZM78.7754 25.5V26.844H72.7754V25.5H78.7754ZM89.9758 22.94C90.7331 22.94 91.3838 23.0733 91.9278 23.34C92.4824 23.6067 92.9144 23.9853 93.2238 24.476C93.5331 24.9667 93.6878 25.5587 93.6878 26.252C93.6878 26.9347 93.5331 27.5267 93.2238 28.028C92.9144 28.5187 92.4824 28.8973 91.9278 29.164C91.3838 29.4307 90.7331 29.564 89.9758 29.564H87.6238V33.5H85.9118V22.94H89.9758ZM89.7038 28.092C90.4611 28.092 91.0158 27.9373 91.3678 27.628C91.7304 27.308 91.9118 26.8493 91.9118 26.252C91.9118 25.644 91.7304 25.1853 91.3678 24.876C91.0158 24.556 90.4611 24.396 89.7038 24.396H87.6238V28.092H89.7038ZM95.703 33.5V25.5H97.159L97.319 26.94C97.5323 26.4173 97.847 26.0227 98.263 25.756C98.6897 25.4787 99.2123 25.34 99.831 25.34C99.991 25.34 100.151 25.356 100.311 25.388C100.471 25.4093 100.604 25.4467 100.711 25.5L100.471 27.004C100.354 26.9613 100.22 26.9293 100.071 26.908C99.9323 26.876 99.7403 26.86 99.495 26.86C99.1643 26.86 98.839 26.9507 98.519 27.132C98.199 27.3027 97.9323 27.564 97.719 27.916C97.5163 28.268 97.415 28.716 97.415 29.26V33.5H95.703ZM105.597 25.34C106.376 25.34 107.064 25.5053 107.661 25.836C108.258 26.1667 108.722 26.6467 109.053 27.276C109.394 27.8947 109.565 28.636 109.565 29.5C109.565 30.364 109.394 31.1107 109.053 31.74C108.722 32.3587 108.258 32.8333 107.661 33.164C107.064 33.4947 106.376 33.66 105.597 33.66C104.818 33.66 104.13 33.4947 103.533 33.164C102.936 32.8333 102.466 32.3587 102.125 31.74C101.784 31.1107 101.613 30.364 101.613 29.5C101.613 28.636 101.784 27.8947 102.125 27.276C102.466 26.6467 102.936 26.1667 103.533 25.836C104.13 25.5053 104.818 25.34 105.597 25.34ZM105.597 26.684C105.117 26.684 104.706 26.796 104.365 27.02C104.034 27.2333 103.778 27.548 103.597 27.964C103.416 28.38 103.325 28.892 103.325 29.5C103.325 30.0973 103.416 30.6093 103.597 31.036C103.778 31.452 104.034 31.772 104.365 31.996C104.706 32.2093 105.117 32.316 105.597 32.316C106.077 32.316 106.482 32.2093 106.813 31.996C107.144 31.772 107.4 31.452 107.581 31.036C107.762 30.6093 107.853 30.0973 107.853 29.5C107.853 28.892 107.762 28.38 107.581 27.964C107.4 27.548 107.144 27.2333 106.813 27.02C106.482 26.796 106.077 26.684 105.597 26.684ZM115.001 21.788C115.332 21.788 115.631 21.8253 115.897 21.9C116.175 21.964 116.383 22.0547 116.521 22.172L116.201 23.404C116.084 23.3293 115.951 23.276 115.801 23.244C115.652 23.2013 115.481 23.18 115.289 23.18C114.852 23.18 114.505 23.2813 114.249 23.484C114.004 23.6867 113.881 24.0173 113.881 24.476V25.644L113.929 26.076V33.5H112.217V24.348C112.217 23.9427 112.276 23.58 112.393 23.26C112.521 22.94 112.708 22.6733 112.953 22.46C113.199 22.236 113.492 22.0707 113.833 21.964C114.185 21.8467 114.575 21.788 115.001 21.788ZM116.473 25.5V26.844H110.713V25.5H116.473ZM118.873 24.156C118.5 24.156 118.212 24.0653 118.009 23.884C117.817 23.692 117.721 23.4253 117.721 23.084C117.721 22.7427 117.817 22.4813 118.009 22.3C118.212 22.1187 118.5 22.028 118.873 22.028C119.236 22.028 119.513 22.1187 119.705 22.3C119.908 22.4813 120.009 22.7427 120.009 23.084C120.009 23.4253 119.908 23.692 119.705 23.884C119.513 24.0653 119.236 24.156 118.873 24.156ZM119.721 25.5V33.5H118.009V25.5H119.721ZM124.039 21.9V31.26C124.039 31.6547 124.108 31.9267 124.247 32.076C124.386 32.2253 124.615 32.3 124.935 32.3C125.127 32.3 125.287 32.2893 125.415 32.268C125.554 32.236 125.724 32.1827 125.927 32.108L125.735 33.388C125.554 33.4733 125.346 33.5373 125.111 33.58C124.876 33.6333 124.642 33.66 124.407 33.66C123.692 33.66 123.164 33.4787 122.823 33.116C122.492 32.7427 122.327 32.172 122.327 31.404V21.9H124.039ZM130.879 33.66C130.079 33.66 129.375 33.4947 128.767 33.164C128.159 32.8333 127.685 32.3587 127.343 31.74C127.013 31.1107 126.847 30.364 126.847 29.5C126.847 28.636 127.013 27.8947 127.343 27.276C127.685 26.6467 128.154 26.1667 128.751 25.836C129.349 25.5053 130.026 25.34 130.783 25.34C131.562 25.34 132.223 25.5 132.767 25.82C133.311 26.14 133.727 26.5773 134.015 27.132C134.303 27.6867 134.447 28.316 134.447 29.02C134.447 29.212 134.442 29.3933 134.431 29.564C134.421 29.7347 134.405 29.884 134.383 30.012H127.951V28.7H133.631L132.783 28.956C132.783 28.2307 132.602 27.676 132.239 27.292C131.877 26.8973 131.381 26.7 130.751 26.7C130.293 26.7 129.893 26.8067 129.551 27.02C129.21 27.2333 128.949 27.5533 128.767 27.98C128.586 28.396 128.495 28.908 128.495 29.516C128.495 30.1133 128.591 30.62 128.783 31.036C128.975 31.452 129.247 31.7667 129.599 31.98C129.951 32.1933 130.367 32.3 130.847 32.3C131.381 32.3 131.813 32.1987 132.143 31.996C132.474 31.7933 132.735 31.5107 132.927 31.148L134.287 31.788C134.095 32.172 133.834 32.508 133.503 32.796C133.183 33.0733 132.799 33.2867 132.351 33.436C131.903 33.5853 131.413 33.66 130.879 33.66Z" fill="#666666"/>
<path d="M29.7363 23.0637L27.9363 21.2637C27.8528 21.1801 27.7536 21.1138 27.6444 21.0685C27.5352 21.0233 27.4182 21 27.3 21C27.1818 21 27.0648 21.0233 26.9556 21.0685C26.8464 21.1138 26.7472 21.1801 26.6637 21.2637L21.2637 26.6637C21.1801 26.7472 21.1137 26.8464 21.0685 26.9556C21.0233 27.0648 21 27.1818 21 27.3V29.1C20.9999 29.2182 21.0232 29.3353 21.0684 29.4445C21.1136 29.5537 21.1799 29.653 21.2635 29.7365C21.347 29.8201 21.4463 29.8864 21.5555 29.9316C21.6647 29.9768 21.7818 30.0001 21.9 30H23.7C23.8182 30 23.9352 29.9767 24.0444 29.9315C24.1536 29.8863 24.2528 29.8199 24.3363 29.7363L29.7363 24.3363C29.8199 24.2528 29.8862 24.1536 29.9315 24.0444C29.9767 23.9352 30 23.8182 30 23.7C30 23.5818 29.9767 23.4648 29.9315 23.3556C29.8862 23.2464 29.8199 23.1472 29.7363 23.0637ZM23.3273 28.2H22.8V27.6727L27.3 23.1727L27.8273 23.7L23.3273 28.2Z" fill="#666666"/>
<path d="M28.1429 28.8571C28.0303 28.8571 27.9188 28.8792 27.8148 28.9223C27.7107 28.9653 27.6162 29.0284 27.5366 29.1081C27.457 29.1877 27.3939 29.2822 27.3508 29.3862C27.3078 29.4902 27.2857 29.6017 27.2857 29.7143V32.2857H18.7143V23.7143H21.2857C21.513 23.7143 21.7311 23.624 21.8918 23.4632C22.0526 23.3025 22.1429 23.0845 22.1429 22.8571C22.1429 22.6298 22.0526 22.4118 21.8918 22.2511C21.7311 22.0903 21.513 22 21.2857 22H17.8571C17.7446 21.9999 17.6331 22.0221 17.5291 22.0651C17.425 22.1082 17.3305 22.1713 17.2509 22.2509C17.1713 22.3305 17.1082 22.425 17.0651 22.5291C17.0221 22.6331 16.9999 22.7446 17 22.8571V33.1429C16.9999 33.2554 17.0221 33.3669 17.0651 33.4709C17.1082 33.575 17.1713 33.6695 17.2509 33.7491C17.3305 33.8287 17.425 33.8918 17.5291 33.9349C17.6331 33.9779 17.7446 34.0001 17.8571 34H28.1429C28.2554 34.0001 28.3669 33.9779 28.4709 33.9349C28.575 33.8918 28.6695 33.8287 28.7491 33.7491C28.8287 33.6695 28.8918 33.575 28.9349 33.4709C28.9779 33.3669 29.0001 33.2554 29 33.1429V29.7143C29.0001 29.6017 28.9779 29.4902 28.9349 29.3862C28.8918 29.2822 28.8287 29.1877 28.7491 29.1081C28.6695 29.0284 28.575 28.9653 28.4709 28.9223C28.3669 28.8792 28.2554 28.8571 28.1429 28.8571Z" fill="#666666"/>
</svg>
