<svg width="65" height="56" viewBox="0 0 65 56" fill="none" xmlns="http://www.w3.org/2000/svg">
<g filter="url(#filter0_d_1318_946)">
<rect x="4.16211" y="4" width="56.75" height="47.6667" rx="6" transform="rotate(0.194149 4.16211 4)" fill="#7D67EE"/>
<path d="M32.4928 19.716C33.3862 19.719 34.159 19.8683 34.8113 20.1639C35.4771 20.4461 35.989 20.8479 36.3473 21.3691C36.7055 21.8903 36.8834 22.5176 36.8809 23.2509C36.8786 23.9309 36.7099 24.5303 36.3748 25.0492C36.0531 25.5548 35.5784 25.9398 34.9509 26.2044L34.9508 26.2244C35.7099 26.507 36.3084 26.929 36.7465 27.4905C37.198 28.0387 37.4224 28.7194 37.4196 29.5328C37.4169 30.3194 37.208 30.9921 36.7928 31.5507C36.3909 32.1093 35.8161 32.5407 35.0684 32.8448C34.334 33.149 33.4602 33.2994 32.4468 33.2959C31.4335 33.2925 30.554 33.1362 29.8084 32.827C29.0761 32.5178 28.5043 32.0826 28.0928 31.5212C27.6814 30.9598 27.477 30.2857 27.4797 29.4991C27.4824 28.6991 27.7047 28.0198 28.1466 27.4613C28.5885 26.9028 29.2032 26.4849 29.9908 26.2076L29.9909 26.1876C29.3918 25.9322 28.9197 25.5506 28.5748 25.0428C28.2299 24.5216 28.0586 23.9143 28.0609 23.221C28.0634 22.4877 28.2456 21.8616 28.6073 21.3429C28.9691 20.8241 29.4838 20.4258 30.1514 20.1481C30.819 19.857 31.5995 19.713 32.4928 19.716ZM32.4867 21.516C31.7801 21.5136 31.2128 21.685 30.785 22.0302C30.3705 22.3755 30.1622 22.8481 30.1602 23.4481C30.1582 24.0481 30.3699 24.5222 30.7954 24.8703C31.2209 25.2051 31.7803 25.3736 32.4737 25.376C33.167 25.3783 33.7209 25.2135 34.1354 24.8816C34.5632 24.5364 34.7781 24.0638 34.7802 23.4638C34.7822 22.8638 34.5771 22.3898 34.165 22.0417C33.7528 21.6936 33.1934 21.5184 32.4867 21.516ZM32.4529 31.4959C33.0396 31.4979 33.5399 31.413 33.9538 31.241C34.3677 31.0691 34.6886 30.8169 34.9164 30.4843C35.1442 30.1517 35.2588 29.7654 35.2603 29.3254C35.2619 28.8588 35.1432 28.465 34.9043 28.1442C34.6788 27.8101 34.3596 27.5557 33.9469 27.381C33.5341 27.2063 33.0411 27.1179 32.4678 27.116C31.9078 27.1141 31.4141 27.1991 30.9869 27.371C30.5596 27.5428 30.2255 27.795 29.9843 28.1276C29.7566 28.4468 29.6419 28.8397 29.6403 29.3064C29.6388 29.7464 29.7509 30.1335 29.9764 30.4676C30.2019 30.8017 30.5277 31.0561 30.9538 31.2309C31.3799 31.4056 31.8796 31.494 32.4529 31.4959Z" fill="#666666"/>
</g>
<defs>
<filter id="filter0_d_1318_946" x="0" y="0" width="64.9121" height="55.8586" filterUnits="userSpaceOnUse" color-interpolation-filters="sRGB">
<feFlood flood-opacity="0" result="BackgroundImageFix"/>
<feColorMatrix in="SourceAlpha" type="matrix" values="0 0 0 0 0 0 0 0 0 0 0 0 0 0 0 0 0 0 127 0" result="hardAlpha"/>
<feOffset/>
<feGaussianBlur stdDeviation="2"/>
<feComposite in2="hardAlpha" operator="out"/>
<feColorMatrix type="matrix" values="0 0 0 0 0 0 0 0 0 0 0 0 0 0 0 0 0 0 0.25 0"/>
<feBlend mode="normal" in2="BackgroundImageFix" result="effect1_dropShadow_1318_946"/>
<feBlend mode="normal" in="SourceGraphic" in2="effect1_dropShadow_1318_946" result="shape"/>
</filter>
</defs>
</svg>
