<svg width="102" height="56" viewBox="0 0 102 56" fill="none" xmlns="http://www.w3.org/2000/svg">
<path d="M57.2 24.412H51.28V27.484H55.92V28.956H51.28V33.5H49.568V22.94H57.2V24.412ZM59.9733 24.156C59.5999 24.156 59.3119 24.0653 59.1093 23.884C58.9173 23.692 58.8213 23.4253 58.8213 23.084C58.8213 22.7427 58.9173 22.4813 59.1093 22.3C59.3119 22.1187 59.5999 22.028 59.9733 22.028C60.3359 22.028 60.6133 22.1187 60.8053 22.3C61.0079 22.4813 61.1093 22.7427 61.1093 23.084C61.1093 23.4253 61.0079 23.692 60.8053 23.884C60.6133 24.0653 60.3359 24.156 59.9733 24.156ZM60.8213 25.5V33.5H59.1093V25.5H60.8213ZM65.1639 21.9V31.26C65.1639 31.6547 65.2332 31.9267 65.3719 32.076C65.5105 32.2253 65.7399 32.3 66.0599 32.3C66.2519 32.3 66.4119 32.2893 66.5399 32.268C66.6785 32.236 66.8492 32.1827 67.0519 32.108L66.8599 33.388C66.6785 33.4733 66.4705 33.5373 66.2359 33.58C66.0012 33.6333 65.7665 33.66 65.5319 33.66C64.8172 33.66 64.2892 33.4787 63.9479 33.116C63.6172 32.7427 63.4519 32.172 63.4519 31.404V21.9H65.1639ZM70.5234 23.148V31.1C70.5234 31.4947 70.6247 31.7827 70.8274 31.964C71.0407 32.1453 71.3234 32.236 71.6754 32.236C71.9634 32.236 72.214 32.1933 72.4274 32.108C72.6407 32.012 72.838 31.884 73.0194 31.724L73.4034 32.972C73.158 33.1853 72.854 33.356 72.4914 33.484C72.1394 33.6013 71.7447 33.66 71.3074 33.66C70.8487 33.66 70.4274 33.5853 70.0434 33.436C69.6594 33.2867 69.3607 33.0467 69.1474 32.716C68.934 32.3747 68.822 31.932 68.8114 31.388V23.628L70.5234 23.148ZM73.2754 25.5V26.844H67.2754V25.5H73.2754ZM78.4886 33.66C77.6886 33.66 76.9846 33.4947 76.3766 33.164C75.7686 32.8333 75.294 32.3587 74.9526 31.74C74.622 31.1107 74.4566 30.364 74.4566 29.5C74.4566 28.636 74.622 27.8947 74.9526 27.276C75.294 26.6467 75.7633 26.1667 76.3606 25.836C76.958 25.5053 77.6353 25.34 78.3926 25.34C79.1713 25.34 79.8326 25.5 80.3766 25.82C80.9206 26.14 81.3366 26.5773 81.6246 27.132C81.9126 27.6867 82.0566 28.316 82.0566 29.02C82.0566 29.212 82.0513 29.3933 82.0406 29.564C82.03 29.7347 82.014 29.884 81.9926 30.012H75.5606V28.7H81.2406L80.3926 28.956C80.3926 28.2307 80.2113 27.676 79.8486 27.292C79.486 26.8973 78.99 26.7 78.3606 26.7C77.902 26.7 77.502 26.8067 77.1606 27.02C76.8193 27.2333 76.558 27.5533 76.3766 27.98C76.1953 28.396 76.1046 28.908 76.1046 29.516C76.1046 30.1133 76.2006 30.62 76.3926 31.036C76.5846 31.452 76.8566 31.7667 77.2086 31.98C77.5606 32.1933 77.9766 32.3 78.4566 32.3C78.99 32.3 79.422 32.1987 79.7526 31.996C80.0833 31.7933 80.3446 31.5107 80.5366 31.148L81.8966 31.788C81.7046 32.172 81.4433 32.508 81.1126 32.796C80.7926 33.0733 80.4086 33.2867 79.9606 33.436C79.5126 33.5853 79.022 33.66 78.4886 33.66ZM84.2186 33.5V25.5H85.6746L85.8346 26.94C86.048 26.4173 86.3626 26.0227 86.7786 25.756C87.2053 25.4787 87.728 25.34 88.3466 25.34C88.5066 25.34 88.6666 25.356 88.8266 25.388C88.9866 25.4093 89.12 25.4467 89.2266 25.5L88.9866 27.004C88.8693 26.9613 88.736 26.9293 88.5866 26.908C88.448 26.876 88.256 26.86 88.0106 26.86C87.68 26.86 87.3546 26.9507 87.0346 27.132C86.7146 27.3027 86.448 27.564 86.2346 27.916C86.032 28.268 85.9306 28.716 85.9306 29.26V33.5H84.2186Z" fill="#666666"/>
<path d="M30.9068 21.6813C30.7413 21.2613 30.3909 21 29.9924 21H18.0077C17.6092 21 17.2588 21.2613 17.0928 21.6813C16.9283 22.0978 16.9853 22.5738 17.2413 22.9227L17.2418 22.9232L22.0003 29.3831V34.4167C22.0003 34.6319 22.1018 34.8297 22.2642 34.9312C22.3382 34.9772 22.4192 35 22.5002 35C22.5972 35 22.6937 34.9668 22.7777 34.902L25.7774 32.5687C25.9164 32.4602 25.9998 32.2782 25.9998 32.0833V29.3831L30.7588 22.9232C31.0148 22.5738 31.0718 22.0978 30.9068 21.6813Z" fill="#666666"/>
</svg>
