<svg width="18" height="16" viewBox="0 0 18 16" fill="none" xmlns="http://www.w3.org/2000/svg">
<path fill-rule="evenodd" clip-rule="evenodd" d="M0 1.00001C0 0.734793 0.135459 0.480436 0.376577 0.292897C0.617695 0.105358 0.944722 0 1.28571 0H16.7143C17.0553 0 17.3823 0.105358 17.6234 0.292897C17.8645 0.480436 18 0.734793 18 1.00001V4.00005C17.9999 4.26525 17.8644 4.51957 17.6233 4.70706L11.5714 9.41413V13.0002C11.5714 13.2654 11.4358 13.5197 11.1947 13.7072L8.62329 15.7072C8.44348 15.847 8.21441 15.9422 7.96504 15.9808C7.71567 16.0194 7.4572 15.9996 7.2223 15.9239C6.9874 15.8482 6.78662 15.7201 6.64534 15.5557C6.50406 15.3913 6.42863 15.198 6.42857 15.0002V9.41413L0.376714 4.70706C0.135579 4.51957 7.28195e-05 4.26525 0 4.00005V1.00001Z" fill="#7D67EE"/>
</svg>
