<svg width="9" height="10" viewBox="0 0 9 10" fill="none" xmlns="http://www.w3.org/2000/svg">
<path d="M7.17046 8.5701C6.38274 9.35782 5.31436 9.80035 4.20036 9.80035C3.08635 9.80035 2.01798 9.35782 1.23026 8.5701C0.442536 7.78238 8.29997e-09 6.714 0 5.6C-8.29997e-09 4.486 0.442536 3.41762 1.23026 2.6299C1.23026 4.2 1.40036 5.6 3.50036 6.3C3.50036 4.9 4.20036 0.7 5.25036 0C5.70481 0.997948 6.3579 1.8928 7.16976 2.6299C7.55984 3.01992 7.86927 3.48295 8.08038 3.99257C8.2915 4.50218 8.40016 5.04839 8.40016 5.6C8.40016 6.15161 8.2915 6.69782 8.08038 7.20743C7.86927 7.71705 7.55984 8.18008 7.16976 8.5701H7.17046Z" fill="#7D67EE"/>
<path d="M2.71491 8.4849C2.90863 8.68547 3.14035 8.84545 3.39656 8.95551C3.65277 9.06557 3.92833 9.1235 4.20717 9.12592C4.48601 9.12834 4.76253 9.07521 5.02062 8.96962C5.2787 8.86403 5.51317 8.7081 5.71034 8.51093C5.90752 8.31375 6.06345 8.07928 6.16904 7.8212C6.27463 7.56312 6.32776 7.28659 6.32534 7.00775C6.32292 6.72892 6.26498 6.45335 6.15492 6.19715C6.04487 5.94094 5.88488 5.70921 5.68431 5.5155C5.27843 5.14677 4.95189 4.69924 4.72461 4.2002C4.19961 4.5502 3.84961 6.6502 3.84961 7.3502C3.24674 7.37439 2.6468 7.2544 2.09961 7.0002C2.09921 7.27602 2.15337 7.5492 2.25897 7.804C2.36457 8.05881 2.51952 8.29021 2.71491 8.4849Z" fill="#7D67EE"/>
</svg>
