<svg width="10" height="11" viewBox="0 0 10 11" fill="none" xmlns="http://www.w3.org/2000/svg">
<path d="M7.75604 9.26999C6.90399 10.122 5.74836 10.6007 4.54338 10.6007C3.3384 10.6007 2.18277 10.122 1.33073 9.26999C0.478676 8.41794 8.9778e-09 7.26231 0 6.05733C-8.9778e-09 4.85235 0.478676 3.69672 1.33073 2.84467C1.33073 4.543 1.51472 6.05733 3.78622 6.8145C3.78622 5.30016 4.54338 0.757166 5.67913 0C6.1707 1.07945 6.87713 2.04737 7.75528 2.84467C8.17722 3.26654 8.51192 3.76739 8.74028 4.31862C8.96863 4.86985 9.08617 5.46067 9.08617 6.05733C9.08617 6.65399 8.96863 7.2448 8.74028 7.79604C8.51192 8.34727 8.17722 8.84812 7.75528 9.26999H7.75604Z" fill="#666666"/>
</svg>
