<svg width="65" height="56" viewBox="0 0 65 56" fill="none" xmlns="http://www.w3.org/2000/svg">
<g filter="url(#filter0_d_1318_953)">
<rect x="4.16211" y="4" width="56.75" height="47.6667" rx="6" transform="rotate(0.194149 4.16211 4)" fill="#7D67EE"/>
<path d="M32.3579 33.2956C31.1846 33.2917 30.2188 33.0351 29.4605 32.5258C28.7156 32.0166 28.1247 31.2813 27.688 30.3198L29.6915 29.2866C29.8893 29.9273 30.1875 30.4549 30.5861 30.8696C30.9981 31.271 31.6041 31.4731 32.4041 31.4758C32.9641 31.4777 33.4378 31.3793 33.8251 31.1806C34.2258 30.9686 34.5335 30.6763 34.7481 30.3037C34.9627 29.9178 35.0709 29.4581 35.0727 28.9248C35.0746 28.3648 34.9762 27.8978 34.7775 27.5238C34.5788 27.1498 34.293 26.8688 33.9203 26.6809C33.5477 26.4796 33.0814 26.378 32.5214 26.3762C32.1347 26.3748 31.7746 26.4136 31.441 26.4925C31.1074 26.5714 30.8069 26.697 30.5397 26.8694C30.2725 27.0285 30.0384 27.2411 29.8375 27.5071L28.0787 27.1611L28.9033 19.8839L36.5833 19.9099L36.5771 21.7499L30.5971 21.7296L30.1045 25.448L30.0638 25.6678L30.1038 25.668C30.4116 25.3357 30.8058 25.077 31.2864 24.892C31.7804 24.707 32.3607 24.6156 33.0273 24.6179C33.8807 24.6207 34.6134 24.8032 35.2255 25.1653C35.8376 25.5141 36.316 26.0023 36.6605 26.6302C37.0051 27.258 37.1759 27.9853 37.1731 28.8119C37.1707 29.5319 37.0485 30.1715 36.8066 30.7307C36.5647 31.2899 36.2231 31.7621 35.7818 32.1472C35.3405 32.5324 34.8262 32.824 34.2389 33.022C33.6649 33.2067 33.0379 33.2979 32.3579 33.2956Z" fill="#666666"/>
</g>
<defs>
<filter id="filter0_d_1318_953" x="0" y="0" width="64.9121" height="55.8586" filterUnits="userSpaceOnUse" color-interpolation-filters="sRGB">
<feFlood flood-opacity="0" result="BackgroundImageFix"/>
<feColorMatrix in="SourceAlpha" type="matrix" values="0 0 0 0 0 0 0 0 0 0 0 0 0 0 0 0 0 0 127 0" result="hardAlpha"/>
<feOffset/>
<feGaussianBlur stdDeviation="2"/>
<feComposite in2="hardAlpha" operator="out"/>
<feColorMatrix type="matrix" values="0 0 0 0 0 0 0 0 0 0 0 0 0 0 0 0 0 0 0.25 0"/>
<feBlend mode="normal" in2="BackgroundImageFix" result="effect1_dropShadow_1318_953"/>
<feBlend mode="normal" in="SourceGraphic" in2="effect1_dropShadow_1318_953" result="shape"/>
</filter>
</defs>
</svg>
