<svg width="24" height="9" viewBox="0 0 24 9" fill="none" xmlns="http://www.w3.org/2000/svg">
<path fill-rule="evenodd" clip-rule="evenodd" d="M8.24195 0.145677L6.91754 8.28508H9.03649L10.3611 0.145677H8.24195ZM5.1347 0.145677L3.11442 5.74388L2.87544 4.53839L2.87561 4.53879L2.82295 4.2686C2.57844 3.74166 2.01216 2.74015 0.942865 1.88545C0.626733 1.63281 0.308061 1.4172 0 1.23303L1.83612 8.28508H4.04391L7.41536 0.145677H5.1347ZM13.4047 2.40534C13.4047 1.4851 15.4683 1.60335 16.3751 2.10303L16.6775 0.354907C16.6775 0.354907 15.7443 0 14.7716 0C13.7199 0 11.2228 0.45989 11.2228 2.69449C11.2228 4.79752 14.1537 4.82365 14.1537 5.92777C14.1537 7.03189 11.525 6.83457 10.6574 6.13808L10.3422 7.96527C10.3422 7.96527 11.2883 8.42517 12.7343 8.42517C14.1801 8.42517 16.3619 7.67612 16.3619 5.63862C16.3619 3.52244 13.4047 3.32534 13.4047 2.40534ZM22.0516 0.145677H20.3479C19.5612 0.145677 19.3696 0.75226 19.3696 0.75226L16.2095 8.28508H18.4182L18.86 7.07614H21.5539L21.8024 8.28508H23.7481L22.0516 0.145677ZM19.4707 5.40585L20.5841 2.3599L21.2105 5.40585H19.4707Z" fill="#005BAC"/>
</svg>
