<svg width="21" height="14" viewBox="0 0 21 14" fill="none" xmlns="http://www.w3.org/2000/svg">
<mask id="mask0_6853_4915" style="mask-type:luminance" maskUnits="userSpaceOnUse" x="0" y="0" width="21" height="14">
<path d="M0 0.984375C0 0.442969 0.442969 0 0.984375 0H20.0156C20.557 0 21 0.442969 21 0.984375V12.1406C21 12.682 20.557 13.125 20.0156 13.125H0.984375C0.442969 13.125 0 12.682 0 12.1406V0.984375Z" fill="white"/>
</mask>
<g mask="url(#mask0_6853_4915)">
<path d="M0 0.984375C0 0.442969 0.442969 0 0.984375 0H20.0156C20.557 0 21 0.442969 21 0.984375V12.1406C21 12.682 20.557 13.125 20.0156 13.125H0.984375C0.442969 13.125 0 12.682 0 12.1406V0.984375Z" fill="#246EA9"/>
</g>
<mask id="mask1_6853_4915" style="mask-type:luminance" maskUnits="userSpaceOnUse" x="4" y="7" width="17" height="4">
<path d="M20.7701 8.08823H19.7201C19.6217 8.08823 19.5396 8.08823 19.4904 8.13745C19.4248 8.17026 19.4084 8.23589 19.4084 8.31792C19.4084 8.41636 19.4576 8.46558 19.5396 8.49839C19.6053 8.51479 19.6709 8.5312 19.7529 8.5312H20.0646C20.3764 8.54761 20.5896 8.59683 20.7209 8.72808C20.7373 8.74448 20.7537 8.76089 20.7701 8.7937V8.08823ZM20.7701 9.67964C20.6225 9.89292 20.36 9.99136 19.9826 9.99136H18.867V9.46636H19.9826C20.0975 9.46636 20.1631 9.44995 20.2123 9.40073C20.2451 9.36792 20.2779 9.3187 20.2779 9.23667C20.2779 9.17104 20.2451 9.10542 20.2123 9.07261C20.1631 9.03979 20.1139 9.02339 20.0154 9.02339C19.474 9.00698 18.8014 9.03979 18.8014 8.2687C18.8014 7.92417 19.031 7.54683 19.6217 7.54683H20.7701V7.07104H19.7037C19.3756 7.07104 19.1459 7.15308 18.9818 7.26792V7.07104H17.4068C17.1607 7.07104 16.8654 7.13667 16.7178 7.26792V7.07104H13.8959V7.26792C13.6662 7.10386 13.2889 7.07104 13.1248 7.07104H11.2545V7.26792C11.074 7.10386 10.6803 7.07104 10.4342 7.07104H8.36699L7.89121 7.61245L7.44824 7.10386H4.33105V10.4671H7.38262L7.8748 9.94214L8.33418 10.4671H10.2209V9.67964H10.4014C10.6475 9.67964 10.9428 9.67964 11.2053 9.56479V10.4671H12.7639V9.59761H12.8459C12.9443 9.59761 12.9443 9.59761 12.9443 9.69604V10.4671H17.6529C17.9482 10.4671 18.26 10.3851 18.4404 10.2539V10.4671H19.9334C20.2451 10.4671 20.5404 10.4179 20.7865 10.3195V9.67964H20.7701ZM18.4568 8.71167C18.5717 8.82651 18.6373 8.97417 18.6373 9.22026C18.6373 9.74526 18.3092 9.97495 17.735 9.97495H16.6029V9.46636H17.7186C17.8334 9.46636 17.899 9.44995 17.9482 9.40073C17.981 9.36792 18.0139 9.3187 18.0139 9.23667C18.0139 9.17104 17.981 9.10542 17.9482 9.07261C17.899 9.03979 17.8498 9.02339 17.735 9.02339C17.1935 9.00698 16.5209 9.03979 16.5209 8.2687C16.5209 7.92417 16.7342 7.54683 17.3412 7.54683H18.4896V8.05542H17.4396C17.3248 8.05542 17.2592 8.05542 17.21 8.10464C17.1443 8.13745 17.1279 8.20308 17.1279 8.28511C17.1279 8.38354 17.1771 8.43276 17.2592 8.46558C17.3248 8.48198 17.3904 8.49839 17.4889 8.49839H17.8006C18.1287 8.5312 18.3256 8.58042 18.4568 8.71167ZM13.2561 8.56401C13.174 8.61323 13.0756 8.61323 12.9771 8.61323H12.2717V8.07183H12.9771C13.0756 8.07183 13.1904 8.07183 13.2561 8.12104C13.3381 8.15386 13.3709 8.23589 13.3709 8.33433C13.3873 8.43276 13.3381 8.51479 13.2561 8.56401ZM13.617 8.85933C13.7482 8.90854 13.8467 8.99058 13.8959 9.0562C13.9779 9.17104 13.9943 9.28589 13.9943 9.49917V9.97495H13.4201V9.67964C13.4201 9.53198 13.4365 9.3187 13.3217 9.20386C13.2396 9.12183 13.1084 9.08901 12.8951 9.08901H12.2717V9.97495H11.6975V7.57964H13.0264C13.3217 7.57964 13.535 7.59604 13.7154 7.69448C13.8959 7.80933 14.0107 7.95698 14.0107 8.23589C14.0107 8.61323 13.7646 8.81011 13.617 8.85933ZM14.3389 7.57964H16.2584V8.08823H14.9131V8.5312H16.2256V9.02339H14.9131V9.49917H16.2584V10.0078H14.3389V7.57964ZM10.4506 8.69526H9.6959V8.08823H10.4506C10.6639 8.08823 10.7951 8.17026 10.7951 8.38354C10.8115 8.58042 10.6639 8.69526 10.4506 8.69526ZM9.12168 9.77808L8.23574 8.7937L9.12168 7.84214V9.77808ZM6.84121 9.48276H5.43027V9.00698H6.69355V8.51479H5.43027V8.07183H6.87402L7.49746 8.77729L6.84121 9.48276ZM11.4186 8.36714C11.4186 9.03979 10.9264 9.17104 10.4178 9.17104H9.6959V9.97495H8.58027L7.8748 9.17104L7.13652 9.97495H4.85605V7.57964H7.16933L7.8748 8.36714L8.61308 7.57964H10.4506C10.91 7.57964 11.4186 7.71089 11.4186 8.36714Z" fill="white"/>
</mask>
<g mask="url(#mask1_6853_4915)">
<path d="M21.5904 6.28345H3.51074V11.2874H21.5904V6.28345Z" fill="#FFFFFE"/>
</g>
<mask id="mask2_6853_4915" style="mask-type:luminance" maskUnits="userSpaceOnUse" x="0" y="2" width="20" height="5">
<path d="M2.1 4.79062L1.70625 3.82266L1.3125 4.79062H2.1ZM10.7953 4.41328C10.7133 4.4625 10.6148 4.4625 10.5164 4.4625H9.81093V3.92109H10.5164C10.6148 3.92109 10.7297 3.92109 10.7953 3.97031C10.8773 4.00312 10.9102 4.08516 10.9102 4.18359C10.9102 4.29844 10.8609 4.38047 10.7953 4.41328ZM15.7992 4.79062L15.4055 3.82266L15.0117 4.79062H15.7992ZM6.48047 5.84062H5.88984V3.95391L5.05312 5.84062H4.54453L3.70781 3.95391V5.84062H2.54297L2.31328 5.29922H1.11562L0.885937 5.84062H0.2625L1.29609 3.42891H2.14922L3.13359 5.70937V3.42891H4.06875L4.82344 5.06953L5.5125 3.42891H6.46406V5.84062H6.48047ZM8.82656 5.84062H6.90703V3.42891H8.82656V3.9375H7.48125V4.36406H8.79375V4.85625H7.48125V5.33203H8.82656V5.84062ZM11.55 4.06875C11.55 4.44609 11.2875 4.65937 11.1398 4.70859C11.2711 4.75781 11.3695 4.83984 11.4187 4.90547C11.5008 5.02031 11.5172 5.13516 11.5172 5.34844V5.82422H10.943V5.5125C10.943 5.36484 10.9594 5.15156 10.8445 5.03672C10.7625 4.95469 10.6312 4.93828 10.418 4.93828H9.79453V5.80781H9.22031V3.42891H10.5492C10.8445 3.42891 11.0578 3.44531 11.2547 3.54375C11.4352 3.64219 11.55 3.80625 11.55 4.06875ZM11.8781 5.84062H12.4687V3.42891H11.8781V5.84062ZM19.2937 5.84062H18.4734L17.3742 4.03594V5.84062H16.193L15.9633 5.29922H14.782L14.5687 5.84062H13.8961C13.6172 5.84062 13.2562 5.775 13.0594 5.57812C12.8625 5.36484 12.7477 5.10234 12.7477 4.65937C12.7477 4.29844 12.8133 3.97031 13.0594 3.72422C13.2398 3.52734 13.5352 3.44531 13.9289 3.44531H14.4867V3.95391H13.9453C13.732 3.95391 13.6172 3.98672 13.5023 4.10156C13.4039 4.2 13.3383 4.39687 13.3383 4.64297C13.3383 4.90547 13.3875 5.08594 13.5023 5.21719C13.5844 5.31562 13.7484 5.34844 13.8961 5.34844H14.1586L14.9789 3.44531H15.8484L16.8164 5.72578V3.42891H17.7023L18.7195 5.10234V3.42891H19.3102V5.84062H19.2937ZM0.246094 6.31641H1.23047L1.46016 5.775H1.95234L2.16562 6.31641H4.11797V5.90625L4.29844 6.31641H5.29922L5.46328 5.90625V6.31641H10.2867V5.43047H10.3852C10.4508 5.43047 10.4672 5.44687 10.4672 5.54531V6.31641H12.9609V6.10312C13.1578 6.21797 13.4695 6.31641 13.8797 6.31641H14.9297L15.1594 5.775H15.6516L15.8648 6.31641H17.8828V5.80781L18.1945 6.31641H19.8187V2.95312H18.2109V3.34688L17.9812 2.95312H16.3406V3.34688L16.1273 2.95312H13.9125C13.5352 2.95312 13.207 3.00234 12.9445 3.15V2.95312H11.4187V3.15C11.2547 3.00234 11.025 2.95312 10.7625 2.95312H5.16797L4.79062 3.82266L4.41328 2.95312H2.64141V3.34688L2.44453 2.95312H0.935156L0.246094 4.54453V6.31641Z" fill="white"/>
</mask>
<g mask="url(#mask2_6853_4915)">
<path d="M20.6227 2.13281H-0.574219V7.13672H20.6227V2.13281Z" fill="#FFFFFE"/>
</g>
<path d="M12.4686 3.42896H11.8779V5.84067H12.4686V3.42896Z" fill="#246EA9"/>
</svg>
