<svg width="23" height="15" viewBox="0 0 23 15" fill="none" xmlns="http://www.w3.org/2000/svg">
<g clip-path="url(#clip0_1358_1191)">
<path fill-rule="evenodd" clip-rule="evenodd" d="M21.275 1.5172e-07C20.125 2.64967e-07 7.94949 -2.40478e-07 1.15 1.5172e-07C0.575 1.84886e-07 0 0.6 0 1.2V13.2C-6.65562e-08 14.4 0.575 15 1.725 15C8.13959 15 20.125 15 21.275 15C22.425 15 23 14.4 23 13.2V1.8C23 0.6 22.425 1.5172e-07 21.275 1.5172e-07Z" fill="#265697"/>
<path fill-rule="evenodd" clip-rule="evenodd" d="M21.4969 7.5751C21.4978 11.0608 18.8194 13.887 15.5146 13.8879C12.2097 13.8888 9.53018 11.064 9.5293 7.5783V7.5751C9.52842 4.0895 12.2068 1.26313 15.5115 1.26221C18.8164 1.26128 21.496 4.08623 21.4969 7.57189V7.5751Z" fill="#DFAC16"/>
<path fill-rule="evenodd" clip-rule="evenodd" d="M7.44818 1.2637C4.16294 1.28571 1.50293 4.10475 1.50293 7.57495C1.50293 11.0587 4.18367 13.8861 7.48674 13.8861C9.03697 13.8861 10.45 13.263 11.5134 12.2417C11.5133 12.2417 11.5132 12.2416 11.5129 12.2415H11.5142C11.7319 12.0322 11.935 11.8064 12.1216 11.5656H10.8957C10.732 11.3571 10.5832 11.1398 10.4496 10.9155H12.5639C12.6925 10.6985 12.8089 10.4731 12.9122 10.2397H10.1005C10.0047 10.023 9.92146 9.80143 9.85041 9.57663H13.1626C13.3622 8.94754 13.4705 8.27449 13.4705 7.57488C13.4705 7.11104 13.4229 6.65881 13.3326 6.22338H9.67476C9.72007 5.9993 9.77728 5.77792 9.84548 5.56038H13.1589C13.0848 5.32889 12.9988 5.10331 12.9009 4.88463H10.1002C10.2012 4.65698 10.3157 4.43553 10.4435 4.2217H12.5563C12.4157 3.98544 12.2601 3.75971 12.0919 3.54588H10.9139C11.096 3.3198 11.2965 3.1069 11.5142 2.90838C10.4508 1.88696 9.03731 1.2637 7.48674 1.2637C7.47384 1.2637 7.46108 1.26363 7.44818 1.2637Z" fill="#BF3126"/>
<path fill-rule="evenodd" clip-rule="evenodd" d="M9.63857 9.18163L9.71832 8.61045C9.67477 8.61045 9.61068 8.63011 9.55415 8.63011C9.33237 8.63011 9.30792 8.50574 9.32204 8.41378L9.5012 7.24833H9.83826L9.91964 6.61653H9.60183L9.66653 6.22363H9.02941C9.01537 6.23845 8.65332 8.43337 8.65332 8.70062C8.65332 9.0963 8.86396 9.27252 9.16097 9.26967C9.39356 9.26761 9.57468 9.19972 9.63857 9.18163Z" fill="white"/>
<path fill-rule="evenodd" clip-rule="evenodd" d="M9.83984 8.09293C9.83984 9.04256 10.4341 9.26821 10.9404 9.26821C11.4078 9.26821 11.6134 9.15802 11.6134 9.15802L11.7257 8.50991C11.7257 8.50991 11.3702 8.67509 11.0491 8.67509C10.365 8.67509 10.4848 8.1371 10.4848 8.1371H11.7795C11.7795 8.1371 11.8631 7.70167 11.8631 7.52424C11.8631 7.08148 11.6542 6.54199 10.9547 6.54199C10.3141 6.54213 9.83984 7.27017 9.83984 8.09293ZM10.9571 7.14381C11.3167 7.14381 11.2503 7.56997 11.2503 7.60444H10.543C10.543 7.56043 10.6099 7.14381 10.9571 7.14381Z" fill="white"/>
<path fill-rule="evenodd" clip-rule="evenodd" d="M14.9921 9.18175L15.1061 8.44916C15.1061 8.44916 14.7935 8.61448 14.5789 8.61448C14.127 8.61448 13.9457 8.2505 13.9457 7.85945C13.9457 7.06617 14.3346 6.62975 14.7675 6.62975C15.0921 6.62975 15.3527 6.822 15.3527 6.822L15.4567 6.11021C15.4567 6.11021 15.0703 5.94531 14.7391 5.94531C14.0036 5.94531 13.2881 6.61828 13.2881 7.88217C13.2881 8.72025 13.6744 9.27377 14.4347 9.27377C14.6497 9.27385 14.9921 9.18175 14.9921 9.18175Z" fill="white"/>
<path fill-rule="evenodd" clip-rule="evenodd" d="M6.13426 6.55225C5.69739 6.55225 5.36249 6.70033 5.36249 6.70033L5.27003 7.27921C5.27003 7.27921 5.54645 7.16076 5.96428 7.16076C6.20152 7.16076 6.37509 7.18889 6.37509 7.39225C6.37509 7.51576 6.35381 7.56135 6.35381 7.56135C6.35381 7.56135 6.16668 7.54482 6.08003 7.54482C5.52903 7.54482 4.9502 7.79284 4.9502 8.54061C4.9502 9.12981 5.32994 9.265 5.56529 9.265C6.01479 9.265 6.20855 8.95737 6.21888 8.95644L6.19788 9.21322H6.75888L7.00916 7.36262C7.00916 6.57753 6.35982 6.55225 6.13426 6.55225ZM6.27075 8.05903C6.2829 8.17207 6.20355 8.70194 5.81996 8.70194C5.62209 8.70194 5.57063 8.54253 5.57063 8.44822C5.57063 8.26431 5.66538 8.0435 6.13224 8.0435C6.24083 8.04364 6.25244 8.05589 6.27075 8.05903Z" fill="white"/>
<path fill-rule="evenodd" clip-rule="evenodd" d="M7.60554 9.25173C7.74904 9.25173 8.56944 9.2902 8.56944 8.39734C8.56944 7.56261 7.81003 7.7275 7.81003 7.39216C7.81003 7.2252 7.93382 7.17263 8.16005 7.17263C8.24987 7.17263 8.59544 7.20276 8.59544 7.20276L8.67581 6.60942C8.67581 6.60949 8.45214 6.55664 8.088 6.55664C7.61668 6.55664 7.13827 6.75508 7.13827 7.43404C7.13827 8.20339 7.93598 8.12617 7.93598 8.45027C7.93598 8.66659 7.71312 8.68418 7.54138 8.68418C7.24416 8.68418 6.97653 8.57663 6.97558 8.58175L6.89062 9.16911C6.90602 9.17409 7.07107 9.25173 7.60554 9.25173Z" fill="white"/>
<path fill-rule="evenodd" clip-rule="evenodd" d="M20.2693 6.02011L20.1319 6.91952C20.1319 6.91952 19.892 6.57014 19.5166 6.57014C18.9329 6.57014 18.4463 7.31249 18.4463 8.16546C18.4463 8.71606 18.7058 9.25555 19.2364 9.25555C19.618 9.25555 19.8296 8.97491 19.8296 8.97491L19.8016 9.21459H20.4212L20.908 6.01904L20.2693 6.02011ZM19.9734 7.77377C19.9734 8.12871 19.8068 8.60281 19.4614 8.60281C19.2321 8.60281 19.1247 8.3998 19.1247 8.0812C19.1247 7.56023 19.3465 7.21648 19.6264 7.21648C19.8558 7.2164 19.9734 7.38258 19.9734 7.77377Z" fill="white"/>
<path fill-rule="evenodd" clip-rule="evenodd" d="M2.6846 9.2174L3.07244 6.80487L3.12937 9.2174H3.56834L4.38719 6.80487L4.02446 9.2174H4.6767L5.17902 6.01758H4.1704L3.54227 7.98086L3.50959 6.01758H2.57985L2.07031 9.2174H2.6846Z" fill="white"/>
<path fill-rule="evenodd" clip-rule="evenodd" d="M12.5009 9.22168C12.6864 8.10936 12.7208 7.20618 13.1633 7.3715C13.2408 6.94099 13.3155 6.77446 13.4001 6.59226C13.4001 6.59226 13.3604 6.5835 13.2772 6.5835C12.9919 6.5835 12.7805 6.99463 12.7805 6.99463L12.8373 6.61705H12.2441L11.8467 9.22168H12.5009Z" fill="white"/>
<path fill-rule="evenodd" clip-rule="evenodd" d="M16.4623 6.55225C16.0254 6.55225 15.6905 6.70033 15.6905 6.70033L15.5982 7.27921C15.5982 7.27921 15.8746 7.16076 16.2924 7.16076C16.5296 7.16076 16.7031 7.18889 16.7031 7.39225C16.7031 7.51576 16.6819 7.56135 16.6819 7.56135C16.6819 7.56135 16.4948 7.54482 16.4081 7.54482C15.8572 7.54482 15.2783 7.79284 15.2783 8.54061C15.2783 9.12981 15.658 9.265 15.8933 9.265C16.3429 9.265 16.5366 8.95737 16.5469 8.95644L16.526 9.21322H17.087L17.3372 7.36262C17.3373 6.57753 16.6879 6.55225 16.4623 6.55225ZM16.599 8.05903C16.6112 8.17207 16.5317 8.70194 16.148 8.70194C15.9501 8.70194 15.8988 8.54253 15.8988 8.44822C15.8988 8.26431 15.9936 8.0435 16.4604 8.0435C16.569 8.04364 16.5805 8.05589 16.599 8.05903Z" fill="white"/>
<path fill-rule="evenodd" clip-rule="evenodd" d="M17.8495 9.22168C18.035 8.10936 18.0694 7.20618 18.5118 7.3715C18.5894 6.94099 18.6642 6.77446 18.7487 6.59226C18.7487 6.59226 18.7091 6.5835 18.6259 6.5835C18.3405 6.5835 18.1292 6.99463 18.1292 6.99463L18.186 6.61705H17.5927L17.1953 9.22168H17.8495Z" fill="white"/>
</g>
<defs>
<clipPath id="clip0_1358_1191">
<rect width="23" height="15" fill="white"/>
</clipPath>
</defs>
</svg>
