<svg width="14" height="14" viewBox="0 0 14 14" fill="none" xmlns="http://www.w3.org/2000/svg">
<path d="M13.5158 4.99936L8.53335 0.168427C8.44023 0.0781334 8.32828 0.0215306 8.21019 0.00503155C8.0921 -0.0114675 7.9726 0.0127967 7.86521 0.0750751C7.75693 0.138125 7.66542 0.237305 7.60125 0.361181C7.53708 0.485056 7.50285 0.628582 7.50251 0.775211V3.109C0.636592 3.67689 0.000270063 13.0665 0.000270063 13.1676C-0.0039649 13.3453 0.0417156 13.5194 0.129707 13.661C0.217698 13.8025 0.34269 13.903 0.483875 13.9455C0.532717 13.9714 0.584024 13.9897 0.636592 14C0.758996 13.9997 0.878728 13.9562 0.981434 13.8748C1.08414 13.7934 1.16546 13.6775 1.21565 13.541C1.27928 13.3699 2.70464 9.65138 7.50251 9.35577V11.6896C7.50285 11.8362 7.53708 11.9797 7.60125 12.1036C7.66542 12.2275 7.75693 12.3266 7.86521 12.3897C7.9726 12.452 8.0921 12.4762 8.21019 12.4597C8.32828 12.4432 8.44023 12.3866 8.53335 12.2963L13.5158 7.4654C13.6667 7.31977 13.7887 7.13422 13.8726 6.92268C13.9564 6.71115 14 6.47913 14 6.24405C14 6.00897 13.9564 5.77695 13.8726 5.56542C13.7887 5.35388 13.6667 5.16833 13.5158 5.0227V4.99936Z" fill="#666666"/>
</svg>
