<svg width="18" height="18" viewBox="0 0 18 18" fill="none" xmlns="http://www.w3.org/2000/svg">
<path d="M4.90882 3.27271C4.47483 3.27271 4.05862 3.44511 3.75174 3.75198C3.44486 4.05886 3.27246 4.47508 3.27246 4.90907V6.54543C3.27246 6.97942 3.44486 7.39564 3.75174 7.70252C4.05862 8.00939 4.47483 8.1818 4.90882 8.1818H6.54519C6.97918 8.1818 7.39539 8.00939 7.70227 7.70252C8.00915 7.39564 8.18155 6.97942 8.18155 6.54543V4.90907C8.18155 4.47508 8.00915 4.05886 7.70227 3.75198C7.39539 3.44511 6.97918 3.27271 6.54519 3.27271H4.90882ZM4.90882 9.81816C4.47483 9.81816 4.05862 9.99056 3.75174 10.2974C3.44486 10.6043 3.27246 11.0205 3.27246 11.4545V13.0909C3.27246 13.5249 3.44486 13.9411 3.75174 14.248C4.05862 14.5548 4.47483 14.7273 4.90882 14.7273H6.54519C6.97918 14.7273 7.39539 14.5548 7.70227 14.248C8.00915 13.9411 8.18155 13.5249 8.18155 13.0909V11.4545C8.18155 11.0205 8.00915 10.6043 7.70227 10.2974C7.39539 9.99056 6.97918 9.81816 6.54519 9.81816H4.90882ZM9.81792 4.90907C9.81792 4.47508 9.99032 4.05886 10.2972 3.75198C10.6041 3.44511 11.0203 3.27271 11.4543 3.27271H13.0906C13.5246 3.27271 13.9408 3.44511 14.2477 3.75198C14.5546 4.05886 14.727 4.47508 14.727 4.90907V6.54543C14.727 6.97942 14.5546 7.39564 14.2477 7.70252C13.9408 8.00939 13.5246 8.1818 13.0906 8.1818H11.4543C11.0203 8.1818 10.6041 8.00939 10.2972 7.70252C9.99032 7.39564 9.81792 6.97942 9.81792 6.54543V4.90907ZM9.81792 11.4545C9.81792 11.0205 9.99032 10.6043 10.2972 10.2974C10.6041 9.99056 11.0203 9.81816 11.4543 9.81816H13.0906C13.5246 9.81816 13.9408 9.99056 14.2477 10.2974C14.5546 10.6043 14.727 11.0205 14.727 11.4545V13.0909C14.727 13.5249 14.5546 13.9411 14.2477 14.248C13.9408 14.5548 13.5246 14.7273 13.0906 14.7273H11.4543C11.0203 14.7273 10.6041 14.5548 10.2972 14.248C9.99032 13.9411 9.81792 13.5249 9.81792 13.0909V11.4545Z" fill="#7D67EE"/>
</svg>
