<svg width="22" height="22" viewBox="0 0 22 22" fill="none" xmlns="http://www.w3.org/2000/svg">
<path fill-rule="evenodd" clip-rule="evenodd" d="M7 7V6C7 5.20435 7.31607 4.44129 7.87868 3.87868C8.44129 3.31607 9.20435 3 10 3H12C12.7956 3 13.5587 3.31607 14.1213 3.87868C14.6839 4.44129 15 5.20435 15 6V7H17C17.5304 7 18.0391 7.21071 18.4142 7.58579C18.7893 7.96086 19 8.46957 19 9V12.57C16.4396 13.5187 13.7305 14.003 11 14C8.2695 14.003 5.56037 13.5188 3 12.57V9C3 8.46957 3.21071 7.96086 3.58579 7.58579C3.96086 7.21071 4.46957 7 5 7H7ZM9 6C9 5.73478 9.10536 5.48043 9.29289 5.29289C9.48043 5.10536 9.73478 5 10 5H12C12.2652 5 12.5196 5.10536 12.7071 5.29289C12.8946 5.48043 13 5.73478 13 6V7H9V6ZM10 11C10 10.7348 10.1054 10.4804 10.2929 10.2929C10.4804 10.1054 10.7348 10 11 10H11.01C11.2752 10 11.5296 10.1054 11.7171 10.2929C11.9046 10.4804 12.01 10.7348 12.01 11C12.01 11.2652 11.9046 11.5196 11.7171 11.7071C11.5296 11.8946 11.2752 12 11.01 12H11C10.7348 12 10.4804 11.8946 10.2929 11.7071C10.1054 11.5196 10 11.2652 10 11Z" fill="#7D67EE"/>
<path d="M3 14.692V17C3 17.5304 3.21071 18.0392 3.58579 18.4142C3.96086 18.7893 4.46957 19 5 19H17C17.5304 19 18.0391 18.7893 18.4142 18.4142C18.7893 18.0392 19 17.5304 19 17V14.692C16.4224 15.5608 13.7201 16.0026 11 16C8.2799 16.0025 5.57767 15.5607 3 14.692Z" fill="#7D67EE"/>
</svg>
