<svg width="140" height="173" viewBox="0 0 140 173" fill="none" xmlns="http://www.w3.org/2000/svg">
<rect width="139.5" height="173" rx="15" fill="#7D67EE"/>
<path d="M20.2725 119.182C19.718 119.182 19.1862 119.402 18.7941 119.795C18.4019 120.187 18.1816 120.718 18.1816 121.273V123.364C18.1816 123.918 18.4019 124.45 18.7941 124.842C19.1862 125.235 19.718 125.455 20.2725 125.455H22.3635C22.918 125.455 23.4498 125.235 23.842 124.842C24.2341 124.45 24.4544 123.918 24.4544 123.364V121.273C24.4544 120.718 24.2341 120.187 23.842 119.795C23.4498 119.402 22.918 119.182 22.3635 119.182H20.2725ZM20.2725 127.546C19.718 127.546 19.1862 127.766 18.7941 128.158C18.4019 128.55 18.1816 129.082 18.1816 129.637V131.728C18.1816 132.282 18.4019 132.814 18.7941 133.206C19.1862 133.598 19.718 133.818 20.2725 133.818H22.3635C22.918 133.818 23.4498 133.598 23.842 133.206C24.2341 132.814 24.4544 132.282 24.4544 131.728V129.637C24.4544 129.082 24.2341 128.55 23.842 128.158C23.4498 127.766 22.918 127.546 22.3635 127.546H20.2725ZM26.5453 121.273C26.5453 120.718 26.7656 120.187 27.1577 119.795C27.5498 119.402 28.0816 119.182 28.6362 119.182H30.7271C31.2816 119.182 31.8135 119.402 32.2056 119.795C32.5977 120.187 32.818 120.718 32.818 121.273V123.364C32.818 123.918 32.5977 124.45 32.2056 124.842C31.8135 125.235 31.2816 125.455 30.7271 125.455H28.6362C28.0816 125.455 27.5498 125.235 27.1577 124.842C26.7656 124.45 26.5453 123.918 26.5453 123.364V121.273ZM26.5453 129.637C26.5453 129.082 26.7656 128.55 27.1577 128.158C27.5498 127.766 28.0816 127.546 28.6362 127.546H30.7271C31.2816 127.546 31.8135 127.766 32.2056 128.158C32.5977 128.55 32.818 129.082 32.818 129.637V131.728C32.818 132.282 32.5977 132.814 32.2056 133.206C31.8135 133.598 31.2816 133.818 30.7271 133.818H28.6362C28.0816 133.818 27.5498 133.598 27.1577 133.206C26.7656 132.814 26.5453 132.282 26.5453 131.728V129.637Z" fill="#E2E6FE"/>
<path d="M21.608 154H20.588L19.748 151.804H16.16L15.32 154H14.312L17.396 146.08H18.536L21.608 154ZM16.508 150.904H19.4L17.948 147.004L16.508 150.904ZM25.1393 154.12C24.5553 154.12 24.0153 153.996 23.5193 153.748C23.0313 153.5 22.6553 153.148 22.3913 152.692L23.2073 152.104C23.3833 152.472 23.6393 152.76 23.9753 152.968C24.3193 153.176 24.7313 153.28 25.2113 153.28C25.6353 153.28 25.9673 153.2 26.2073 153.04C26.4473 152.872 26.5673 152.656 26.5673 152.392C26.5673 152.224 26.5113 152.072 26.3993 151.936C26.2953 151.792 26.0913 151.688 25.7873 151.624L24.3473 151.324C23.7633 151.204 23.3433 151.004 23.0873 150.724C22.8393 150.444 22.7153 150.096 22.7153 149.68C22.7153 149.352 22.8073 149.052 22.9913 148.78C23.1833 148.508 23.4513 148.292 23.7953 148.132C24.1473 147.964 24.5593 147.88 25.0313 147.88C25.6233 147.88 26.1233 147.996 26.5313 148.228C26.9393 148.46 27.2433 148.788 27.4433 149.212L26.6393 149.74C26.5033 149.388 26.2833 149.132 25.9793 148.972C25.6753 148.804 25.3593 148.72 25.0313 148.72C24.7433 148.72 24.4953 148.76 24.2873 148.84C24.0873 148.92 23.9313 149.032 23.8193 149.176C23.7153 149.312 23.6633 149.468 23.6633 149.644C23.6633 149.82 23.7233 149.984 23.8433 150.136C23.9633 150.28 24.1873 150.384 24.5153 150.448L26.0153 150.76C26.5753 150.872 26.9673 151.056 27.1913 151.312C27.4153 151.568 27.5273 151.88 27.5273 152.248C27.5273 152.624 27.4273 152.956 27.2273 153.244C27.0273 153.524 26.7473 153.74 26.3873 153.892C26.0273 154.044 25.6113 154.12 25.1393 154.12ZM30.7234 146.296V152.344C30.7234 152.64 30.8074 152.86 30.9754 153.004C31.1434 153.148 31.3594 153.22 31.6234 153.22C31.8554 153.22 32.0554 153.18 32.2234 153.1C32.3914 153.02 32.5434 152.912 32.6794 152.776L33.0154 153.58C32.8314 153.748 32.6114 153.88 32.3554 153.976C32.1074 154.072 31.8194 154.12 31.4914 154.12C31.1874 154.12 30.9034 154.068 30.6394 153.964C30.3754 153.852 30.1634 153.68 30.0034 153.448C29.8514 153.208 29.7714 152.896 29.7634 152.512V146.56L30.7234 146.296ZM32.9074 148V148.828H28.5634V148H32.9074ZM34.3348 154V148H35.1148L35.2468 148.984C35.4148 148.616 35.6588 148.34 35.9788 148.156C36.3068 147.972 36.7028 147.88 37.1668 147.88C37.2708 147.88 37.3828 147.888 37.5028 147.904C37.6308 147.92 37.7388 147.952 37.8268 148L37.6588 148.876C37.5708 148.844 37.4748 148.82 37.3708 148.804C37.2668 148.788 37.1188 148.78 36.9268 148.78C36.6788 148.78 36.4268 148.852 36.1708 148.996C35.9228 149.14 35.7148 149.36 35.5468 149.656C35.3788 149.944 35.2948 150.312 35.2948 150.76V154H34.3348ZM41.5297 147.88C42.0977 147.88 42.5977 148.004 43.0297 148.252C43.4697 148.5 43.8137 148.86 44.0617 149.332C44.3097 149.796 44.4337 150.352 44.4337 151C44.4337 151.648 44.3097 152.208 44.0617 152.68C43.8137 153.144 43.4697 153.5 43.0297 153.748C42.5977 153.996 42.0977 154.12 41.5297 154.12C40.9697 154.12 40.4697 153.996 40.0297 153.748C39.5897 153.5 39.2457 153.144 38.9977 152.68C38.7497 152.208 38.6257 151.648 38.6257 151C38.6257 150.352 38.7497 149.796 38.9977 149.332C39.2457 148.86 39.5897 148.5 40.0297 148.252C40.4697 148.004 40.9697 147.88 41.5297 147.88ZM41.5297 148.708C41.1217 148.708 40.7737 148.8 40.4857 148.984C40.1977 149.168 39.9737 149.432 39.8137 149.776C39.6617 150.112 39.5857 150.52 39.5857 151C39.5857 151.472 39.6617 151.88 39.8137 152.224C39.9737 152.568 40.1977 152.832 40.4857 153.016C40.7737 153.2 41.1217 153.292 41.5297 153.292C41.9377 153.292 42.2857 153.2 42.5737 153.016C42.8617 152.832 43.0817 152.568 43.2337 152.224C43.3937 151.88 43.4737 151.472 43.4737 151C43.4737 150.52 43.3937 150.112 43.2337 149.776C43.0817 149.432 42.8617 149.168 42.5737 148.984C42.2857 148.8 41.9377 148.708 41.5297 148.708ZM47.153 145.24V152.476C47.153 152.78 47.209 152.992 47.321 153.112C47.433 153.224 47.613 153.28 47.861 153.28C48.021 153.28 48.153 153.268 48.257 153.244C48.361 153.22 48.501 153.176 48.677 153.112L48.521 153.952C48.393 154.008 48.253 154.048 48.101 154.072C47.949 154.104 47.793 154.12 47.633 154.12C47.145 154.12 46.781 153.988 46.541 153.724C46.309 153.46 46.193 153.056 46.193 152.512V145.24H47.153ZM52.393 147.88C52.961 147.88 53.461 148.004 53.893 148.252C54.333 148.5 54.677 148.86 54.925 149.332C55.173 149.796 55.297 150.352 55.297 151C55.297 151.648 55.173 152.208 54.925 152.68C54.677 153.144 54.333 153.5 53.893 153.748C53.461 153.996 52.961 154.12 52.393 154.12C51.833 154.12 51.333 153.996 50.893 153.748C50.453 153.5 50.109 153.144 49.861 152.68C49.613 152.208 49.489 151.648 49.489 151C49.489 150.352 49.613 149.796 49.861 149.332C50.109 148.86 50.453 148.5 50.893 148.252C51.333 148.004 51.833 147.88 52.393 147.88ZM52.393 148.708C51.985 148.708 51.637 148.8 51.349 148.984C51.061 149.168 50.837 149.432 50.677 149.776C50.525 150.112 50.449 150.52 50.449 151C50.449 151.472 50.525 151.88 50.677 152.224C50.837 152.568 51.061 152.832 51.349 153.016C51.637 153.2 51.985 153.292 52.393 153.292C52.801 153.292 53.149 153.2 53.437 153.016C53.725 152.832 53.945 152.568 54.097 152.224C54.257 151.88 54.337 151.472 54.337 151C54.337 150.52 54.257 150.112 54.097 149.776C53.945 149.432 53.725 149.168 53.437 148.984C53.149 148.8 52.801 148.708 52.393 148.708ZM62.1563 146.896L62.3723 147.748C62.3643 147.748 62.3523 147.748 62.3363 147.748C62.3203 147.748 62.3043 147.748 62.2883 147.748C61.8963 147.748 61.5923 147.828 61.3763 147.988C61.1683 148.14 61.0643 148.388 61.0643 148.732L60.4763 148.432C60.4763 148.12 60.5483 147.848 60.6923 147.616C60.8363 147.384 61.0323 147.208 61.2803 147.088C61.5283 146.96 61.8003 146.896 62.0963 146.896C62.1043 146.896 62.1123 146.896 62.1203 146.896C62.1363 146.896 62.1483 146.896 62.1563 146.896ZM60.3323 153.232C60.9003 153.232 61.3443 153.364 61.6643 153.628C61.9843 153.884 62.1443 154.228 62.1443 154.66C62.1443 155.052 62.0123 155.392 61.7483 155.68C61.4923 155.968 61.1443 156.188 60.7043 156.34C60.2723 156.5 59.7843 156.58 59.2403 156.58C58.2963 156.58 57.5883 156.42 57.1163 156.1C56.6523 155.78 56.4203 155.396 56.4203 154.948C56.4203 154.628 56.5243 154.34 56.7323 154.084C56.9483 153.836 57.3083 153.696 57.8123 153.664L57.7283 153.844C57.4563 153.772 57.2243 153.652 57.0323 153.484C56.8483 153.308 56.7563 153.056 56.7563 152.728C56.7563 152.4 56.8763 152.12 57.1163 151.888C57.3643 151.648 57.7283 151.5 58.2083 151.444L58.8443 151.768H58.7243C58.3323 151.808 58.0523 151.908 57.8843 152.068C57.7243 152.22 57.6443 152.388 57.6443 152.572C57.6443 152.796 57.7243 152.964 57.8843 153.076C58.0523 153.18 58.2843 153.232 58.5803 153.232H60.3323ZM59.2283 155.776C59.6923 155.776 60.0723 155.728 60.3683 155.632C60.6723 155.536 60.8963 155.412 61.0403 155.26C61.1843 155.108 61.2563 154.944 61.2563 154.768C61.2563 154.552 61.1683 154.38 60.9923 154.252C60.8243 154.124 60.5163 154.06 60.0683 154.06H58.2203C57.9643 154.06 57.7483 154.124 57.5723 154.252C57.3963 154.388 57.3083 154.572 57.3083 154.804C57.3083 155.1 57.4763 155.336 57.8123 155.512C58.1563 155.688 58.6283 155.776 59.2283 155.776ZM59.1443 147.88C59.6243 147.88 60.0483 147.968 60.4163 148.144C60.7923 148.312 61.0843 148.548 61.2923 148.852C61.5003 149.156 61.6043 149.508 61.6043 149.908C61.6043 150.3 61.5003 150.652 61.2923 150.964C61.0843 151.268 60.7923 151.508 60.4163 151.684C60.0483 151.852 59.6243 151.936 59.1443 151.936C58.3523 151.936 57.7443 151.748 57.3203 151.372C56.8963 150.988 56.6843 150.5 56.6843 149.908C56.6843 149.508 56.7883 149.156 56.9963 148.852C57.2123 148.548 57.5043 148.312 57.8723 148.144C58.2403 147.968 58.6643 147.88 59.1443 147.88ZM59.1443 148.66C58.7283 148.66 58.3803 148.776 58.1003 149.008C57.8203 149.232 57.6803 149.532 57.6803 149.908C57.6803 150.276 57.8203 150.576 58.1003 150.808C58.3803 151.04 58.7283 151.156 59.1443 151.156C59.5603 151.156 59.9083 151.04 60.1883 150.808C60.4683 150.576 60.6083 150.276 60.6083 149.908C60.6083 149.532 60.4683 149.232 60.1883 149.008C59.9083 148.776 59.5603 148.66 59.1443 148.66ZM68.423 148L65.603 155.008C65.451 155.4 65.283 155.708 65.099 155.932C64.923 156.164 64.723 156.328 64.499 156.424C64.283 156.528 64.031 156.58 63.743 156.58C63.471 156.58 63.219 156.54 62.987 156.46C62.763 156.388 62.563 156.288 62.387 156.16L62.651 155.32C62.811 155.464 62.979 155.568 63.155 155.632C63.339 155.704 63.519 155.74 63.695 155.74C63.903 155.74 64.099 155.676 64.283 155.548C64.467 155.42 64.635 155.16 64.787 154.768L65.099 153.988L64.499 152.56L62.591 148H63.683L65.183 151.912L65.555 152.98L65.987 151.792L67.391 148H68.423Z" fill="#E2E6FE"/>
<circle cx="118" cy="20" r="15" fill="#FEFEFA"/>
<path fill-rule="evenodd" clip-rule="evenodd" d="M123.77 15.1742C123.981 15.384 124.103 15.6652 124.11 15.956L124.228 20.6078C124.234 20.7534 124.212 20.8975 124.161 21.0316C124.111 21.1657 124.033 21.2872 123.934 21.3889C123.834 21.4907 123.715 21.5707 123.582 21.6243C123.449 21.6778 123.306 21.7039 123.16 21.7009C123.014 21.6979 122.87 21.666 122.734 21.607C122.598 21.5479 122.474 21.463 122.37 21.3571C122.265 21.2511 122.182 21.1264 122.124 20.9901C122.067 20.8537 122.037 20.7086 122.035 20.5631L121.945 17.0075L118.39 16.935C118.244 16.9346 118.099 16.9052 117.962 16.8485C117.826 16.7917 117.7 16.7089 117.594 16.6047C117.487 16.5005 117.402 16.3772 117.342 16.2417C117.283 16.1063 117.25 15.9616 117.246 15.816C117.243 15.6704 117.268 15.5269 117.321 15.3938C117.374 15.2607 117.453 15.1406 117.554 15.0407C117.656 14.9408 117.777 14.8629 117.911 14.8117C118.044 14.7605 118.188 14.737 118.334 14.7425L122.986 14.8374C123.277 14.8433 123.559 14.9644 123.77 15.1742ZM113.799 19.2994C114.09 19.3054 114.372 19.4266 114.583 19.6364C114.794 19.8461 114.916 20.1273 114.924 20.418L115.014 23.9735L118.57 24.0461C118.715 24.0465 118.86 24.0759 118.997 24.1326C119.134 24.1894 119.259 24.2722 119.365 24.3764C119.472 24.4806 119.557 24.6039 119.617 24.7394C119.677 24.8748 119.709 25.0195 119.713 25.1651C119.717 25.3107 119.691 25.4542 119.638 25.5873C119.585 25.7204 119.506 25.8405 119.405 25.9404C119.303 26.0403 119.182 26.1182 119.048 26.1694C118.915 26.2206 118.771 26.2441 118.625 26.2386L113.973 26.1437C113.682 26.1378 113.4 26.0166 113.189 25.8068C112.979 25.597 112.856 25.3158 112.849 25.0251L112.731 20.3733C112.724 20.0826 112.832 19.8061 113.032 19.6047C113.233 19.4034 113.509 19.2935 113.799 19.2994Z" fill="#666666" fill-opacity="0.5"/>
</svg>
