<svg width="44" height="44" viewBox="0 0 44 44" fill="none" xmlns="http://www.w3.org/2000/svg">
<path d="M23.259 8.51238C22.9308 8.1843 22.4857 8 22.0217 8C21.5576 8 21.1126 8.1843 20.7844 8.51238L8.53426 20.7625C8.36712 20.924 8.2338 21.1171 8.14208 21.3306C8.05036 21.5441 8.00209 21.7737 8.00007 22.0061C7.99805 22.2385 8.04233 22.4689 8.13032 22.684C8.21831 22.8991 8.34826 23.0945 8.51257 23.2588C8.67688 23.4231 8.87228 23.553 9.08735 23.641C9.30242 23.729 9.53286 23.7733 9.76523 23.7713C9.9976 23.7693 10.2272 23.721 10.4407 23.6293C10.6543 23.5375 10.8474 23.4042 11.0088 23.2371L11.5216 22.7243V34.25C11.5216 34.7141 11.7059 35.1592 12.0341 35.4874C12.3623 35.8156 12.8074 36 13.2716 36H16.7716C17.2358 36 17.6809 35.8156 18.0091 35.4874C18.3373 35.1592 18.5216 34.7141 18.5216 34.25V30.7499C18.5216 30.2858 18.706 29.8407 19.0342 29.5125C19.3624 29.1843 19.8075 28.9999 20.2717 28.9999H23.7717C24.2358 28.9999 24.681 29.1843 25.0092 29.5125C25.3374 29.8407 25.5217 30.2858 25.5217 30.7499V34.25C25.5217 34.7141 25.7061 35.1592 26.0343 35.4874C26.3625 35.8156 26.8076 36 27.2718 36H30.7718C31.2359 36 31.6811 35.8156 32.0093 35.4874C32.3375 35.1592 32.5218 34.7141 32.5218 34.25V22.7243L33.0346 23.2371C33.196 23.4042 33.3891 23.5375 33.6026 23.6293C33.8161 23.721 34.0458 23.7693 34.2782 23.7713C34.5105 23.7733 34.741 23.729 34.956 23.641C35.1711 23.553 35.3665 23.4231 35.5308 23.2588C35.6951 23.0945 35.8251 22.8991 35.9131 22.684C36.0011 22.4689 36.0453 22.2385 36.0433 22.0061C36.0413 21.7737 35.993 21.5441 35.9013 21.3306C35.8096 21.1171 35.6763 20.924 35.5091 20.7625L23.259 8.51238Z" fill="#E2E6FE"/>
</svg>
