<svg width="22" height="22" viewBox="0 0 22 22" fill="none" xmlns="http://www.w3.org/2000/svg">
<path fill-rule="evenodd" clip-rule="evenodd" d="M6.05051 5.05036C7.36333 3.73754 9.14389 3 11.0005 3C12.8571 3 14.6377 3.73754 15.9505 5.05036C17.2633 6.36318 18.0009 8.14375 18.0009 10.0004C18.0009 11.857 17.2633 13.6375 15.9505 14.9504L11.0005 19.9004L6.05051 14.9504C5.40042 14.3003 4.88474 13.5286 4.53291 12.6793C4.18108 11.83 4 10.9197 4 10.0004C4 9.08104 4.18108 8.17073 4.53291 7.32141C4.88474 6.47208 5.40042 5.70038 6.05051 5.05036ZM11.0005 12.0004C11.3961 12.0004 11.7827 11.8831 12.1116 11.6633C12.4405 11.4435 12.6969 11.1312 12.8483 10.7657C12.9996 10.4003 13.0392 9.99814 12.9621 9.61018C12.8849 9.22221 12.6944 8.86585 12.4147 8.58614C12.135 8.30644 11.7786 8.11596 11.3907 8.03879C11.0027 7.96162 10.6006 8.00122 10.2351 8.1526C9.86969 8.30397 9.55733 8.56032 9.33757 8.88922C9.1178 9.21812 9.0005 9.60479 9.0005 10.0004C9.0005 10.5308 9.21122 11.0395 9.58629 11.4146C9.96136 11.7896 10.4701 12.0004 11.0005 12.0004Z" fill="#7D67EE"/>
</svg>
