<svg width="44" height="44" viewBox="0 0 44 44" fill="none" xmlns="http://www.w3.org/2000/svg">
<path fill-rule="evenodd" clip-rule="evenodd" d="M22.0667 19.2C23.1742 19.2 24.2569 18.8716 25.1779 18.2562C26.0988 17.6409 26.8165 16.7663 27.2404 15.743C27.6642 14.7198 27.7751 13.5938 27.5591 12.5075C27.343 11.4212 26.8096 10.4234 26.0265 9.6402C25.2433 8.85703 24.2455 8.32368 23.1592 8.1076C22.0729 7.89153 20.9469 8.00243 19.9236 8.42628C18.9004 8.85013 18.0258 9.56789 17.4104 10.4888C16.7951 11.4097 16.4667 12.4924 16.4667 13.6C16.4667 15.0852 17.0567 16.5096 18.1069 17.5598C19.1571 18.61 20.5815 19.2 22.0667 19.2ZM9 36C9 32.5345 10.3767 29.2109 12.8271 26.7605C15.2776 24.31 18.6012 22.9333 22.0667 22.9333C25.5322 22.9333 28.8557 24.31 31.3062 26.7605C33.7567 29.2109 35.1333 32.5345 35.1333 36H9Z" fill="#E2E6FE"/>
</svg>
