<svg width="44" height="44" viewBox="0 0 44 44" fill="none" xmlns="http://www.w3.org/2000/svg">
<path d="M16 8C15.4696 8 14.9609 8.21071 14.5858 8.58579C14.2107 8.96086 14 9.46957 14 10C14 10.5304 14.2107 11.0391 14.5858 11.4142C14.9609 11.7893 15.4696 12 16 12H28C28.5304 12 29.0391 11.7893 29.4142 11.4142C29.7893 11.0391 30 10.5304 30 10C30 9.46957 29.7893 8.96086 29.4142 8.58579C29.0391 8.21071 28.5304 8 28 8H16ZM10 16C10 15.4696 10.2107 14.9609 10.5858 14.5858C10.9609 14.2107 11.4696 14 12 14H32C32.5304 14 33.0391 14.2107 33.4142 14.5858C33.7893 14.9609 34 15.4696 34 16C34 16.5304 33.7893 17.0391 33.4142 17.4142C33.0391 17.7893 32.5304 18 32 18H12C11.4696 18 10.9609 17.7893 10.5858 17.4142C10.2107 17.0391 10 16.5304 10 16ZM6 24C6 22.9391 6.42143 21.9217 7.17157 21.1716C7.92172 20.4214 8.93913 20 10 20H34C35.0609 20 36.0783 20.4214 36.8284 21.1716C37.5786 21.9217 38 22.9391 38 24V32C38 33.0609 37.5786 34.0783 36.8284 34.8284C36.0783 35.5786 35.0609 36 34 36H10C8.93913 36 7.92172 35.5786 7.17157 34.8284C6.42143 34.0783 6 33.0609 6 32V24Z" fill="#E2E6FE"/>
</svg>
