<svg width="172" height="70" viewBox="0 0 172 70" fill="none" xmlns="http://www.w3.org/2000/svg">
<path d="M7.17046 10.5701C6.38274 11.3578 5.31436 11.8004 4.20036 11.8004C3.08635 11.8004 2.01798 11.3578 1.23026 10.5701C0.442536 9.78238 8.29997e-09 8.714 0 7.6C-8.29997e-09 6.486 0.442536 5.41762 1.23026 4.6299C1.23026 6.2 1.40036 7.6 3.50036 8.3C3.50036 6.9 4.20036 2.7 5.25036 2C5.70481 2.99795 6.3579 3.8928 7.16976 4.6299C7.55984 5.01992 7.86927 5.48295 8.08038 5.99257C8.2915 6.50218 8.40016 7.04839 8.40016 7.6C8.40016 8.15161 8.2915 8.69782 8.08038 9.20743C7.86927 9.71705 7.55984 10.1801 7.16976 10.5701H7.17046Z" fill="#7D67EE"/>
<path d="M2.71491 10.4849C2.90863 10.6855 3.14035 10.8455 3.39656 10.9555C3.65277 11.0656 3.92833 11.1235 4.20717 11.1259C4.48601 11.1283 4.76253 11.0752 5.02062 10.9696C5.2787 10.864 5.51317 10.7081 5.71034 10.5109C5.90752 10.3138 6.06345 10.0793 6.16904 9.8212C6.27463 9.56312 6.32776 9.28659 6.32534 9.00775C6.32291 8.72892 6.26498 8.45335 6.15492 8.19715C6.04487 7.94094 5.88488 7.70921 5.68431 7.5155C5.27843 7.14677 4.95189 6.69924 4.72461 6.2002C4.19961 6.5502 3.84961 8.6502 3.84961 9.3502C3.24674 9.37439 2.6468 9.2544 2.09961 9.0002C2.09921 9.27602 2.15337 9.5492 2.25897 9.804C2.36457 10.0588 2.51952 10.2902 2.71491 10.4849Z" fill="#7D67EE"/>
<path d="M7.17046 24.5701C6.38274 25.3578 5.31436 25.8004 4.20036 25.8004C3.08635 25.8004 2.01798 25.3578 1.23026 24.5701C0.442536 23.7824 8.29997e-09 22.714 0 21.6C-8.29997e-09 20.486 0.442536 19.4176 1.23026 18.6299C1.23026 20.2 1.40036 21.6 3.50036 22.3C3.50036 20.9 4.20036 16.7 5.25036 16C5.70481 16.9979 6.3579 17.8928 7.16976 18.6299C7.55984 19.0199 7.86927 19.483 8.08038 19.9926C8.2915 20.5022 8.40016 21.0484 8.40016 21.6C8.40016 22.1516 8.2915 22.6978 8.08038 23.2074C7.86927 23.717 7.55984 24.1801 7.16976 24.5701H7.17046Z" fill="#7D67EE"/>
<path d="M2.71491 24.4849C2.90863 24.6855 3.14035 24.8455 3.39656 24.9555C3.65277 25.0656 3.92833 25.1235 4.20717 25.1259C4.48601 25.1283 4.76253 25.0752 5.02062 24.9696C5.2787 24.864 5.51317 24.7081 5.71034 24.5109C5.90752 24.3138 6.06345 24.0793 6.16904 23.8212C6.27463 23.5631 6.32776 23.2866 6.32534 23.0078C6.32291 22.7289 6.26498 22.4534 6.15492 22.1971C6.04487 21.9409 5.88488 21.7092 5.68431 21.5155C5.27843 21.1468 4.95189 20.6992 4.72461 20.2002C4.19961 20.5502 3.84961 22.6502 3.84961 23.3502C3.24674 23.3744 2.6468 23.2544 2.09961 23.0002C2.09921 23.276 2.15337 23.5492 2.25897 23.804C2.36457 24.0588 2.51952 24.2902 2.71491 24.4849Z" fill="#7D67EE"/>
<path d="M7.17046 38.5701C6.38274 39.3578 5.31436 39.8004 4.20036 39.8004C3.08635 39.8004 2.01798 39.3578 1.23026 38.5701C0.442536 37.7824 8.29997e-09 36.714 0 35.6C-8.29997e-09 34.486 0.442536 33.4176 1.23026 32.6299C1.23026 34.2 1.40036 35.6 3.50036 36.3C3.50036 34.9 4.20036 30.7 5.25036 30C5.70481 30.9979 6.3579 31.8928 7.16976 32.6299C7.55984 33.0199 7.86927 33.483 8.08038 33.9926C8.2915 34.5022 8.40016 35.0484 8.40016 35.6C8.40016 36.1516 8.2915 36.6978 8.08038 37.2074C7.86927 37.717 7.55984 38.1801 7.16976 38.5701H7.17046Z" fill="#7D67EE"/>
<path d="M2.71491 38.4849C2.90863 38.6855 3.14035 38.8455 3.39656 38.9555C3.65277 39.0656 3.92833 39.1235 4.20717 39.1259C4.48601 39.1283 4.76253 39.0752 5.02062 38.9696C5.2787 38.864 5.51317 38.7081 5.71034 38.5109C5.90752 38.3138 6.06345 38.0793 6.16904 37.8212C6.27463 37.5631 6.32776 37.2866 6.32534 37.0078C6.32291 36.7289 6.26498 36.4534 6.15492 36.1971C6.04487 35.9409 5.88488 35.7092 5.68431 35.5155C5.27843 35.1468 4.95189 34.6992 4.72461 34.2002C4.19961 34.5502 3.84961 36.6502 3.84961 37.3502C3.24674 37.3744 2.6468 37.2544 2.09961 37.0002C2.09921 37.276 2.15337 37.5492 2.25897 37.804C2.36457 38.0588 2.51952 38.2902 2.71491 38.4849Z" fill="#7D67EE"/>
<path d="M7.17046 53.5701C6.38274 54.3578 5.31436 54.8004 4.20036 54.8004C3.08635 54.8004 2.01798 54.3578 1.23026 53.5701C0.442536 52.7824 8.29997e-09 51.714 0 50.6C-8.29997e-09 49.486 0.442536 48.4176 1.23026 47.6299C1.23026 49.2 1.40036 50.6 3.50036 51.3C3.50036 49.9 4.20036 45.7 5.25036 45C5.70481 45.9979 6.3579 46.8928 7.16976 47.6299C7.55984 48.0199 7.86927 48.483 8.08038 48.9926C8.2915 49.5022 8.40016 50.0484 8.40016 50.6C8.40016 51.1516 8.2915 51.6978 8.08038 52.2074C7.86927 52.717 7.55984 53.1801 7.16976 53.5701H7.17046Z" fill="#7D67EE"/>
<path d="M2.71491 53.4849C2.90863 53.6855 3.14035 53.8455 3.39656 53.9555C3.65277 54.0656 3.92833 54.1235 4.20717 54.1259C4.48601 54.1283 4.76253 54.0752 5.02062 53.9696C5.2787 53.864 5.51317 53.7081 5.71034 53.5109C5.90752 53.3138 6.06345 53.0793 6.16904 52.8212C6.27463 52.5631 6.32776 52.2866 6.32534 52.0078C6.32291 51.7289 6.26498 51.4534 6.15492 51.1971C6.04487 50.9409 5.88488 50.7092 5.68431 50.5155C5.27843 50.1468 4.95189 49.6992 4.72461 49.2002C4.19961 49.5502 3.84961 51.6502 3.84961 52.3502C3.24674 52.3744 2.6468 52.2544 2.09961 52.0002C2.09921 52.276 2.15337 52.5492 2.25897 52.804C2.36457 53.0588 2.51952 53.2902 2.71491 53.4849Z" fill="#7D67EE"/>
<path d="M13.692 5L15.48 7.508L15.54 7.592L18 11H16.824L14.964 8.396L14.856 8.264L12.492 5H13.692ZM17.964 5L15.588 8.204H15.528L13.464 11H12.348L14.964 7.556H15.036L16.836 5H17.964ZM24.5155 11V5.192C24.5155 5.056 24.5155 4.912 24.5155 4.76C24.5235 4.6 24.5315 4.436 24.5395 4.268C24.2675 4.532 23.9515 4.764 23.5915 4.964C23.2315 5.156 22.8635 5.296 22.4875 5.384L22.2355 4.508C22.3795 4.492 22.5595 4.44 22.7755 4.352C22.9995 4.256 23.2315 4.14 23.4715 4.004C23.7195 3.86 23.9475 3.708 24.1555 3.548C24.3635 3.388 24.5235 3.232 24.6355 3.08H25.4755V11H24.5155ZM13.692 19L15.48 21.508L15.54 21.592L18 25H16.824L14.964 22.396L14.856 22.264L12.492 19H13.692ZM17.964 19L15.588 22.204H15.528L13.464 25H12.348L14.964 21.556H15.036L16.836 19H17.964ZM23.1419 25V24.22C23.9339 23.636 24.5939 23.124 25.1219 22.684C25.6579 22.244 26.0859 21.844 26.4059 21.484C26.7259 21.124 26.9539 20.784 27.0899 20.464C27.2259 20.136 27.2939 19.796 27.2939 19.444C27.2939 18.972 27.1419 18.592 26.8379 18.304C26.5419 18.008 26.1339 17.86 25.6139 17.86C25.0699 17.86 24.6339 18.04 24.3059 18.4C23.9779 18.752 23.7859 19.224 23.7299 19.816L22.8899 19.312C22.9619 18.848 23.1099 18.44 23.3339 18.088C23.5659 17.736 23.8739 17.46 24.2579 17.26C24.6499 17.06 25.1139 16.96 25.6499 16.96C26.0579 16.96 26.4219 17.02 26.7419 17.14C27.0699 17.26 27.3499 17.432 27.5819 17.656C27.8139 17.872 27.9899 18.132 28.1099 18.436C28.2379 18.74 28.3019 19.076 28.3019 19.444C28.3019 19.94 28.1819 20.428 27.9419 20.908C27.7019 21.38 27.3059 21.876 26.7539 22.396C26.2019 22.916 25.4539 23.492 24.5099 24.124V24.136C24.5979 24.128 24.7179 24.124 24.8699 24.124C25.0299 24.116 25.1859 24.112 25.3379 24.112C25.4979 24.104 25.6179 24.1 25.6979 24.1H28.4699V25H23.1419ZM13.692 33L15.48 35.508L15.54 35.592L18 39H16.824L14.964 36.396L14.856 36.264L12.492 33H13.692ZM17.964 33L15.588 36.204H15.528L13.464 39H12.348L14.964 35.556H15.036L16.836 33H17.964ZM25.7339 39.12C25.0299 39.12 24.4059 38.956 23.8619 38.628C23.3259 38.292 22.9619 37.832 22.7699 37.248L23.7299 36.756C23.8259 37.052 23.9579 37.312 24.1259 37.536C24.2939 37.752 24.5139 37.92 24.7859 38.04C25.0659 38.16 25.4139 38.22 25.8299 38.22C26.1819 38.22 26.4779 38.156 26.7179 38.028C26.9579 37.9 27.1419 37.728 27.2699 37.512C27.3979 37.288 27.4619 37.032 27.4619 36.744C27.4619 36.456 27.4059 36.216 27.2939 36.024C27.1899 35.832 27.0219 35.692 26.7899 35.604C26.5579 35.508 26.2539 35.46 25.8779 35.46C25.7899 35.46 25.6939 35.464 25.5899 35.472C25.4859 35.472 25.3779 35.48 25.2659 35.496V34.536C25.3379 34.544 25.4059 34.548 25.4699 34.548C25.5419 34.548 25.6059 34.548 25.6619 34.548C26.2459 34.548 26.6619 34.436 26.9099 34.212C27.1579 33.98 27.2819 33.62 27.2819 33.132C27.2819 32.716 27.1539 32.4 26.8979 32.184C26.6419 31.968 26.2779 31.86 25.8059 31.86C25.3019 31.86 24.9179 31.972 24.6539 32.196C24.3899 32.412 24.1819 32.708 24.0299 33.084L23.1179 32.652C23.2459 32.316 23.4379 32.02 23.6939 31.764C23.9499 31.508 24.2579 31.308 24.6179 31.164C24.9859 31.02 25.3899 30.948 25.8299 30.948C26.3819 30.948 26.8379 31.044 27.1979 31.236C27.5579 31.42 27.8259 31.668 28.0019 31.98C28.1859 32.292 28.2779 32.636 28.2779 33.012C28.2779 33.3 28.2379 33.56 28.1579 33.792C28.0779 34.016 27.9659 34.212 27.8219 34.38C27.6859 34.548 27.5299 34.684 27.3539 34.788C27.1779 34.884 26.9899 34.948 26.7899 34.98V35.004C27.0539 35.012 27.2859 35.064 27.4859 35.16C27.6939 35.256 27.8699 35.384 28.0139 35.544C28.1579 35.704 28.2659 35.888 28.3379 36.096C28.4179 36.296 28.4579 36.508 28.4579 36.732C28.4579 37.196 28.3419 37.608 28.1099 37.968C27.8859 38.328 27.5699 38.612 27.1619 38.82C26.7539 39.02 26.2779 39.12 25.7339 39.12ZM13.692 47L15.48 49.508L15.54 49.592L18 53H16.824L14.964 50.396L14.856 50.264L12.492 47H13.692ZM17.964 47L15.588 50.204H15.528L13.464 53H12.348L14.964 49.556H15.036L16.836 47H17.964ZM25.6979 53.12C24.9939 53.12 24.4259 52.96 23.9939 52.64C23.5699 52.32 23.2419 51.876 23.0099 51.308L23.9459 50.816C24.0739 51.232 24.2699 51.572 24.5339 51.836C24.8059 52.092 25.2019 52.22 25.7219 52.22C26.0899 52.22 26.4019 52.152 26.6579 52.016C26.9219 51.88 27.1259 51.688 27.2699 51.44C27.4139 51.184 27.4859 50.88 27.4859 50.528C27.4859 50.152 27.4179 49.84 27.2819 49.592C27.1539 49.336 26.9659 49.144 26.7179 49.016C26.4699 48.888 26.1659 48.824 25.8059 48.824C25.5499 48.824 25.3099 48.852 25.0859 48.908C24.8699 48.956 24.6739 49.036 24.4979 49.148C24.3219 49.26 24.1699 49.408 24.0419 49.592L23.2019 49.436L23.6699 45.08H28.1219V45.98H24.4859L24.1739 48.476L24.1499 48.584H24.1739C24.3659 48.384 24.6099 48.224 24.9059 48.104C25.2099 47.984 25.5699 47.924 25.9859 47.924C26.4899 47.924 26.9259 48.032 27.2939 48.248C27.6699 48.456 27.9619 48.752 28.1699 49.136C28.3779 49.52 28.4819 49.968 28.4819 50.48C28.4819 50.888 28.4139 51.256 28.2779 51.584C28.1419 51.912 27.9499 52.192 27.7019 52.424C27.4539 52.648 27.1579 52.82 26.8139 52.94C26.4779 53.06 26.1059 53.12 25.6979 53.12Z" fill="#7D67EE"/>
<path d="M38.715 2.96C39.411 2.96 40.011 3.104 40.515 3.392C41.019 3.672 41.439 4.088 41.775 4.64L40.971 5.264C40.675 4.752 40.339 4.392 39.963 4.184C39.595 3.968 39.147 3.86 38.619 3.86C38.195 3.86 37.843 3.92 37.563 4.04C37.291 4.16 37.091 4.32 36.963 4.52C36.835 4.712 36.771 4.932 36.771 5.18C36.771 5.46 36.859 5.708 37.035 5.924C37.211 6.132 37.563 6.296 38.091 6.416L39.807 6.8C40.567 6.968 41.095 7.224 41.391 7.568C41.695 7.904 41.847 8.324 41.847 8.828C41.847 9.276 41.719 9.676 41.463 10.028C41.215 10.372 40.863 10.64 40.407 10.832C39.951 11.024 39.415 11.12 38.799 11.12C38.223 11.12 37.715 11.044 37.275 10.892C36.843 10.732 36.471 10.52 36.159 10.256C35.847 9.992 35.591 9.696 35.391 9.368L36.231 8.684C36.383 8.988 36.579 9.256 36.819 9.488C37.059 9.72 37.347 9.9 37.683 10.028C38.027 10.156 38.419 10.22 38.859 10.22C39.267 10.22 39.619 10.172 39.915 10.076C40.219 9.972 40.451 9.824 40.611 9.632C40.771 9.432 40.851 9.192 40.851 8.912C40.851 8.656 40.767 8.428 40.599 8.228C40.431 8.02 40.115 7.864 39.651 7.76L37.791 7.34C37.303 7.228 36.907 7.076 36.603 6.884C36.307 6.684 36.091 6.452 35.955 6.188C35.827 5.916 35.763 5.624 35.763 5.312C35.763 4.888 35.879 4.5 36.111 4.148C36.351 3.788 36.691 3.5 37.131 3.284C37.579 3.068 38.107 2.96 38.715 2.96ZM46.1865 11.12C45.6185 11.12 45.1105 10.996 44.6625 10.748C44.2225 10.5 43.8785 10.144 43.6305 9.68C43.3825 9.208 43.2585 8.648 43.2585 8C43.2585 7.352 43.3825 6.796 43.6305 6.332C43.8785 5.86 44.2185 5.5 44.6505 5.252C45.0825 5.004 45.5745 4.88 46.1265 4.88C46.6865 4.88 47.1625 5 47.5545 5.24C47.9545 5.48 48.2585 5.808 48.4665 6.224C48.6745 6.632 48.7785 7.092 48.7785 7.604C48.7785 7.74 48.7745 7.864 48.7665 7.976C48.7585 8.088 48.7465 8.188 48.7305 8.276H43.8825V7.424H48.3105L47.8185 7.52C47.8185 6.944 47.6585 6.5 47.3385 6.188C47.0265 5.876 46.6145 5.72 46.1025 5.72C45.7105 5.72 45.3705 5.812 45.0825 5.996C44.8025 6.172 44.5825 6.432 44.4225 6.776C44.2705 7.112 44.1945 7.52 44.1945 8C44.1945 8.472 44.2745 8.88 44.4345 9.224C44.5945 9.568 44.8185 9.832 45.1065 10.016C45.4025 10.192 45.7545 10.28 46.1625 10.28C46.6025 10.28 46.9585 10.196 47.2305 10.028C47.5105 9.86 47.7345 9.632 47.9025 9.344L48.6585 9.788C48.5065 10.06 48.3105 10.296 48.0705 10.496C47.8385 10.696 47.5625 10.852 47.2425 10.964C46.9305 11.068 46.5785 11.12 46.1865 11.12ZM50.6043 11V5H51.4443L51.5283 6.344L51.3723 6.212C51.5003 5.892 51.6723 5.636 51.8883 5.444C52.1043 5.244 52.3523 5.1 52.6323 5.012C52.9203 4.924 53.2163 4.88 53.5203 4.88C53.9523 4.88 54.3443 4.964 54.6963 5.132C55.0483 5.292 55.3283 5.54 55.5363 5.876C55.7523 6.212 55.8603 6.64 55.8603 7.16V11H54.9003V7.496C54.9003 6.832 54.7563 6.372 54.4683 6.116C54.1883 5.852 53.8403 5.72 53.4243 5.72C53.1363 5.72 52.8483 5.788 52.5603 5.924C52.2723 6.06 52.0323 6.28 51.8403 6.584C51.6563 6.888 51.5643 7.296 51.5643 7.808V11H50.6043ZM60.374 11.12C59.878 11.12 59.422 10.996 59.006 10.748C58.59 10.5 58.258 10.144 58.01 9.68C57.762 9.208 57.638 8.648 57.638 8C57.638 7.336 57.77 6.772 58.034 6.308C58.298 5.844 58.646 5.492 59.078 5.252C59.51 5.004 59.974 4.88 60.47 4.88C60.966 4.88 61.394 5.008 61.754 5.264C62.122 5.52 62.366 5.86 62.486 6.284L62.366 6.368V2.24H63.326V11H62.486L62.402 9.548L62.534 9.476C62.478 9.828 62.342 10.128 62.126 10.376C61.918 10.616 61.658 10.8 61.346 10.928C61.042 11.056 60.718 11.12 60.374 11.12ZM60.47 10.28C60.854 10.28 61.186 10.184 61.466 9.992C61.754 9.8 61.974 9.528 62.126 9.176C62.286 8.816 62.366 8.396 62.366 7.916C62.366 7.46 62.286 7.068 62.126 6.74C61.974 6.412 61.758 6.16 61.478 5.984C61.206 5.808 60.886 5.72 60.518 5.72C59.91 5.72 59.438 5.928 59.102 6.344C58.766 6.76 58.598 7.312 58.598 8C58.598 8.688 58.762 9.24 59.09 9.656C59.418 10.072 59.878 10.28 60.47 10.28ZM73.4393 2.24L69.7673 11.84H68.8673L72.5393 2.24H73.4393ZM84.9869 11H83.9669L83.1269 8.804H79.5389L78.6989 11H77.6909L80.7749 3.08H81.9149L84.9869 11ZM79.8869 7.904H82.7789L81.3269 4.004L79.8869 7.904ZM88.7953 4.88C89.2113 4.88 89.5753 4.944 89.8873 5.072C90.2073 5.2 90.4833 5.384 90.7153 5.624C90.9473 5.864 91.1353 6.148 91.2793 6.476L90.3673 6.908C90.2393 6.524 90.0433 6.232 89.7793 6.032C89.5233 5.824 89.1873 5.72 88.7713 5.72C88.3713 5.72 88.0273 5.812 87.7393 5.996C87.4513 6.172 87.2313 6.432 87.0793 6.776C86.9273 7.112 86.8513 7.52 86.8513 8C86.8513 8.472 86.9273 8.88 87.0793 9.224C87.2313 9.568 87.4513 9.832 87.7393 10.016C88.0273 10.192 88.3713 10.28 88.7713 10.28C89.0833 10.28 89.3513 10.232 89.5753 10.136C89.8073 10.04 89.9953 9.9 90.1393 9.716C90.2913 9.532 90.3953 9.308 90.4513 9.044L91.3393 9.356C91.2033 9.724 91.0153 10.04 90.7753 10.304C90.5433 10.568 90.2593 10.772 89.9233 10.916C89.5953 11.052 89.2193 11.12 88.7953 11.12C88.2353 11.12 87.7353 10.996 87.2953 10.748C86.8553 10.5 86.5113 10.144 86.2633 9.68C86.0153 9.208 85.8913 8.648 85.8913 8C85.8913 7.352 86.0153 6.796 86.2633 6.332C86.5113 5.86 86.8553 5.5 87.2953 5.252C87.7353 5.004 88.2353 4.88 88.7953 4.88ZM95.5102 4.88C95.9262 4.88 96.2902 4.944 96.6022 5.072C96.9222 5.2 97.1982 5.384 97.4302 5.624C97.6622 5.864 97.8502 6.148 97.9942 6.476L97.0822 6.908C96.9542 6.524 96.7582 6.232 96.4942 6.032C96.2382 5.824 95.9022 5.72 95.4862 5.72C95.0862 5.72 94.7422 5.812 94.4542 5.996C94.1662 6.172 93.9462 6.432 93.7942 6.776C93.6422 7.112 93.5662 7.52 93.5662 8C93.5662 8.472 93.6422 8.88 93.7942 9.224C93.9462 9.568 94.1662 9.832 94.4542 10.016C94.7422 10.192 95.0862 10.28 95.4862 10.28C95.7982 10.28 96.0662 10.232 96.2902 10.136C96.5222 10.04 96.7102 9.9 96.8542 9.716C97.0062 9.532 97.1102 9.308 97.1662 9.044L98.0542 9.356C97.9182 9.724 97.7302 10.04 97.4902 10.304C97.2582 10.568 96.9742 10.772 96.6382 10.916C96.3102 11.052 95.9342 11.12 95.5102 11.12C94.9502 11.12 94.4502 10.996 94.0102 10.748C93.5702 10.5 93.2262 10.144 92.9782 9.68C92.7302 9.208 92.6062 8.648 92.6062 8C92.6062 7.352 92.7302 6.796 92.9782 6.332C93.2262 5.86 93.5702 5.5 94.0102 5.252C94.4502 5.004 94.9502 4.88 95.5102 4.88ZM102.249 11.12C101.681 11.12 101.173 10.996 100.725 10.748C100.285 10.5 99.941 10.144 99.693 9.68C99.445 9.208 99.321 8.648 99.321 8C99.321 7.352 99.445 6.796 99.693 6.332C99.941 5.86 100.281 5.5 100.713 5.252C101.145 5.004 101.637 4.88 102.189 4.88C102.749 4.88 103.225 5 103.617 5.24C104.017 5.48 104.321 5.808 104.529 6.224C104.737 6.632 104.841 7.092 104.841 7.604C104.841 7.74 104.837 7.864 104.829 7.976C104.821 8.088 104.809 8.188 104.793 8.276H99.945V7.424H104.373L103.881 7.52C103.881 6.944 103.721 6.5 103.401 6.188C103.089 5.876 102.677 5.72 102.165 5.72C101.773 5.72 101.433 5.812 101.145 5.996C100.865 6.172 100.645 6.432 100.485 6.776C100.333 7.112 100.257 7.52 100.257 8C100.257 8.472 100.337 8.88 100.497 9.224C100.657 9.568 100.881 9.832 101.169 10.016C101.465 10.192 101.817 10.28 102.225 10.28C102.665 10.28 103.021 10.196 103.293 10.028C103.573 9.86 103.797 9.632 103.965 9.344L104.721 9.788C104.569 10.06 104.373 10.296 104.133 10.496C103.901 10.696 103.625 10.852 103.305 10.964C102.993 11.068 102.641 11.12 102.249 11.12ZM106.667 13.52V5H107.507L107.591 6.464L107.459 6.296C107.563 6.016 107.719 5.772 107.927 5.564C108.135 5.348 108.387 5.18 108.683 5.06C108.979 4.94 109.299 4.88 109.643 4.88C110.131 4.88 110.579 5.004 110.987 5.252C111.403 5.5 111.735 5.856 111.983 6.32C112.231 6.784 112.355 7.344 112.355 8C112.355 8.648 112.227 9.208 111.971 9.68C111.723 10.144 111.391 10.5 110.975 10.748C110.559 10.996 110.103 11.12 109.607 11.12C109.111 11.12 108.675 11 108.299 10.76C107.931 10.512 107.667 10.2 107.507 9.824L107.627 9.644V13.52H106.667ZM109.511 10.28C110.103 10.28 110.563 10.072 110.891 9.656C111.227 9.24 111.395 8.688 111.395 8C111.395 7.312 111.231 6.76 110.903 6.344C110.583 5.928 110.131 5.72 109.547 5.72C109.163 5.72 108.827 5.816 108.539 6.008C108.251 6.192 108.027 6.456 107.867 6.8C107.707 7.136 107.627 7.536 107.627 8C107.627 8.456 107.703 8.856 107.855 9.2C108.015 9.544 108.235 9.812 108.515 10.004C108.803 10.188 109.135 10.28 109.511 10.28ZM115.501 3.296V9.344C115.501 9.64 115.585 9.86 115.753 10.004C115.921 10.148 116.137 10.22 116.401 10.22C116.633 10.22 116.833 10.18 117.001 10.1C117.169 10.02 117.321 9.912 117.457 9.776L117.793 10.58C117.609 10.748 117.389 10.88 117.133 10.976C116.885 11.072 116.597 11.12 116.269 11.12C115.965 11.12 115.681 11.068 115.417 10.964C115.153 10.852 114.941 10.68 114.781 10.448C114.629 10.208 114.549 9.896 114.541 9.512V3.56L115.501 3.296ZM117.685 5V5.828H113.341V5H117.685ZM124.342 3.08V11H123.382V3.08H124.342ZM126.694 11V5H127.534L127.618 6.344L127.462 6.212C127.59 5.892 127.762 5.636 127.978 5.444C128.194 5.244 128.442 5.1 128.722 5.012C129.01 4.924 129.306 4.88 129.61 4.88C130.042 4.88 130.434 4.964 130.786 5.132C131.138 5.292 131.418 5.54 131.626 5.876C131.842 6.212 131.95 6.64 131.95 7.16V11H130.99V7.496C130.99 6.832 130.846 6.372 130.558 6.116C130.278 5.852 129.93 5.72 129.514 5.72C129.226 5.72 128.938 5.788 128.65 5.924C128.362 6.06 128.122 6.28 127.93 6.584C127.746 6.888 127.654 7.296 127.654 7.808V11H126.694ZM135.458 3.296V9.344C135.458 9.64 135.542 9.86 135.71 10.004C135.878 10.148 136.094 10.22 136.358 10.22C136.59 10.22 136.79 10.18 136.958 10.1C137.126 10.02 137.278 9.912 137.414 9.776L137.75 10.58C137.566 10.748 137.346 10.88 137.09 10.976C136.842 11.072 136.554 11.12 136.226 11.12C135.922 11.12 135.638 11.068 135.374 10.964C135.11 10.852 134.898 10.68 134.738 10.448C134.586 10.208 134.506 9.896 134.498 9.512V3.56L135.458 3.296ZM137.642 5V5.828H133.298V5H137.642ZM141.577 11.12C141.009 11.12 140.501 10.996 140.053 10.748C139.613 10.5 139.269 10.144 139.021 9.68C138.773 9.208 138.649 8.648 138.649 8C138.649 7.352 138.773 6.796 139.021 6.332C139.269 5.86 139.609 5.5 140.041 5.252C140.473 5.004 140.965 4.88 141.517 4.88C142.077 4.88 142.553 5 142.945 5.24C143.345 5.48 143.649 5.808 143.857 6.224C144.065 6.632 144.169 7.092 144.169 7.604C144.169 7.74 144.165 7.864 144.157 7.976C144.149 8.088 144.137 8.188 144.121 8.276H139.273V7.424H143.701L143.209 7.52C143.209 6.944 143.049 6.5 142.729 6.188C142.417 5.876 142.005 5.72 141.493 5.72C141.101 5.72 140.761 5.812 140.473 5.996C140.193 6.172 139.973 6.432 139.813 6.776C139.661 7.112 139.585 7.52 139.585 8C139.585 8.472 139.665 8.88 139.825 9.224C139.985 9.568 140.209 9.832 140.497 10.016C140.793 10.192 141.145 10.28 141.553 10.28C141.993 10.28 142.349 10.196 142.621 10.028C142.901 9.86 143.125 9.632 143.293 9.344L144.049 9.788C143.897 10.06 143.701 10.296 143.461 10.496C143.229 10.696 142.953 10.852 142.633 10.964C142.321 11.068 141.969 11.12 141.577 11.12ZM145.995 11V5H146.775L146.907 5.984C147.075 5.616 147.319 5.34 147.639 5.156C147.967 4.972 148.363 4.88 148.827 4.88C148.931 4.88 149.043 4.888 149.163 4.904C149.291 4.92 149.399 4.952 149.487 5L149.319 5.876C149.231 5.844 149.135 5.82 149.031 5.804C148.927 5.788 148.779 5.78 148.587 5.78C148.339 5.78 148.087 5.852 147.831 5.996C147.583 6.14 147.375 6.36 147.207 6.656C147.039 6.944 146.955 7.312 146.955 7.76V11H145.995ZM153.214 11.12C152.646 11.12 152.138 10.996 151.69 10.748C151.25 10.5 150.906 10.144 150.658 9.68C150.41 9.208 150.286 8.648 150.286 8C150.286 7.352 150.41 6.796 150.658 6.332C150.906 5.86 151.246 5.5 151.678 5.252C152.11 5.004 152.602 4.88 153.154 4.88C153.714 4.88 154.19 5 154.582 5.24C154.982 5.48 155.286 5.808 155.494 6.224C155.702 6.632 155.806 7.092 155.806 7.604C155.806 7.74 155.802 7.864 155.794 7.976C155.786 8.088 155.774 8.188 155.758 8.276H150.91V7.424H155.338L154.846 7.52C154.846 6.944 154.686 6.5 154.366 6.188C154.054 5.876 153.642 5.72 153.13 5.72C152.738 5.72 152.398 5.812 152.11 5.996C151.83 6.172 151.61 6.432 151.45 6.776C151.298 7.112 151.222 7.52 151.222 8C151.222 8.472 151.302 8.88 151.462 9.224C151.622 9.568 151.846 9.832 152.134 10.016C152.43 10.192 152.782 10.28 153.19 10.28C153.63 10.28 153.986 10.196 154.258 10.028C154.538 9.86 154.762 9.632 154.93 9.344L155.686 9.788C155.534 10.06 155.338 10.296 155.098 10.496C154.866 10.696 154.59 10.852 154.27 10.964C153.958 11.068 153.606 11.12 153.214 11.12ZM159.792 11.12C159.208 11.12 158.668 10.996 158.172 10.748C157.684 10.5 157.308 10.148 157.044 9.692L157.86 9.104C158.036 9.472 158.292 9.76 158.628 9.968C158.972 10.176 159.384 10.28 159.864 10.28C160.288 10.28 160.62 10.2 160.86 10.04C161.1 9.872 161.22 9.656 161.22 9.392C161.22 9.224 161.164 9.072 161.052 8.936C160.948 8.792 160.744 8.688 160.44 8.624L159 8.324C158.416 8.204 157.996 8.004 157.74 7.724C157.492 7.444 157.368 7.096 157.368 6.68C157.368 6.352 157.46 6.052 157.644 5.78C157.836 5.508 158.104 5.292 158.448 5.132C158.8 4.964 159.212 4.88 159.684 4.88C160.276 4.88 160.776 4.996 161.184 5.228C161.592 5.46 161.896 5.788 162.096 6.212L161.292 6.74C161.156 6.388 160.936 6.132 160.632 5.972C160.328 5.804 160.012 5.72 159.684 5.72C159.396 5.72 159.148 5.76 158.94 5.84C158.74 5.92 158.584 6.032 158.472 6.176C158.368 6.312 158.316 6.468 158.316 6.644C158.316 6.82 158.376 6.984 158.496 7.136C158.616 7.28 158.84 7.384 159.168 7.448L160.668 7.76C161.228 7.872 161.62 8.056 161.844 8.312C162.068 8.568 162.18 8.88 162.18 9.248C162.18 9.624 162.08 9.956 161.88 10.244C161.68 10.524 161.4 10.74 161.04 10.892C160.68 11.044 160.264 11.12 159.792 11.12ZM165.376 3.296V9.344C165.376 9.64 165.46 9.86 165.628 10.004C165.796 10.148 166.012 10.22 166.276 10.22C166.508 10.22 166.708 10.18 166.876 10.1C167.044 10.02 167.196 9.912 167.332 9.776L167.668 10.58C167.484 10.748 167.264 10.88 167.008 10.976C166.76 11.072 166.472 11.12 166.144 11.12C165.84 11.12 165.556 11.068 165.292 10.964C165.028 10.852 164.816 10.68 164.656 10.448C164.504 10.208 164.424 9.896 164.416 9.512V3.56L165.376 3.296ZM167.56 5V5.828H163.216V5H167.56ZM41.0198 22.972C40.8518 23.42 40.6118 23.808 40.2998 24.136C39.9878 24.456 39.6198 24.7 39.1958 24.868C38.7798 25.036 38.3238 25.12 37.8278 25.12C37.0758 25.12 36.4238 24.956 35.8718 24.628C35.3278 24.292 34.9038 23.82 34.5998 23.212C34.3038 22.604 34.1558 21.88 34.1558 21.04C34.1558 20.2 34.3038 19.476 34.5998 18.868C34.9038 18.26 35.3278 17.792 35.8718 17.464C36.4238 17.128 37.0678 16.96 37.8038 16.96C38.3158 16.96 38.7718 17.032 39.1718 17.176C39.5718 17.312 39.9118 17.52 40.1918 17.8C40.4798 18.072 40.7078 18.408 40.8758 18.808L39.9278 19.252C39.7518 18.796 39.4958 18.452 39.1598 18.22C38.8318 17.98 38.4038 17.86 37.8758 17.86C37.3398 17.86 36.8678 17.988 36.4598 18.244C36.0518 18.492 35.7318 18.852 35.4998 19.324C35.2758 19.796 35.1638 20.368 35.1638 21.04C35.1638 21.704 35.2718 22.276 35.4878 22.756C35.7038 23.228 36.0118 23.592 36.4118 23.848C36.8118 24.096 37.2838 24.22 37.8278 24.22C38.3558 24.22 38.8158 24.088 39.2078 23.824C39.5998 23.552 39.8838 23.148 40.0598 22.612L41.0198 22.972ZM42.6824 25V16.24H43.6424V19.9C43.8504 19.54 44.1264 19.28 44.4704 19.12C44.8144 18.96 45.1904 18.88 45.5984 18.88C46.0304 18.88 46.4224 18.964 46.7744 19.132C47.1264 19.292 47.4064 19.54 47.6144 19.876C47.8304 20.212 47.9384 20.64 47.9384 21.16V25H46.9784V21.496C46.9784 20.832 46.8344 20.372 46.5464 20.116C46.2664 19.852 45.9184 19.72 45.5024 19.72C45.2144 19.72 44.9264 19.788 44.6384 19.924C44.3504 20.06 44.1104 20.284 43.9184 20.596C43.7344 20.9 43.6424 21.308 43.6424 21.82V25H42.6824ZM52.6201 25.12C52.0521 25.12 51.5441 24.996 51.0961 24.748C50.6561 24.5 50.3121 24.144 50.0641 23.68C49.8161 23.208 49.6921 22.648 49.6921 22C49.6921 21.352 49.8161 20.796 50.0641 20.332C50.3121 19.86 50.6521 19.5 51.0841 19.252C51.5161 19.004 52.0081 18.88 52.5601 18.88C53.1201 18.88 53.5961 19 53.9881 19.24C54.3881 19.48 54.6921 19.808 54.9001 20.224C55.1081 20.632 55.2121 21.092 55.2121 21.604C55.2121 21.74 55.2081 21.864 55.2001 21.976C55.1921 22.088 55.1801 22.188 55.1641 22.276H50.3161V21.424H54.7441L54.2521 21.52C54.2521 20.944 54.0921 20.5 53.7721 20.188C53.4601 19.876 53.0481 19.72 52.5361 19.72C52.1441 19.72 51.8041 19.812 51.5161 19.996C51.2361 20.172 51.0161 20.432 50.8561 20.776C50.7041 21.112 50.6281 21.52 50.6281 22C50.6281 22.472 50.7081 22.88 50.8681 23.224C51.0281 23.568 51.2521 23.832 51.5401 24.016C51.8361 24.192 52.1881 24.28 52.5961 24.28C53.0361 24.28 53.3921 24.196 53.6641 24.028C53.9441 23.86 54.1681 23.632 54.3361 23.344L55.0921 23.788C54.9401 24.06 54.7441 24.296 54.5041 24.496C54.2721 24.696 53.9961 24.852 53.6761 24.964C53.3641 25.068 53.0121 25.12 52.6201 25.12ZM59.5219 18.88C59.9379 18.88 60.3019 18.944 60.6139 19.072C60.9339 19.2 61.2099 19.384 61.4419 19.624C61.6739 19.864 61.8619 20.148 62.0059 20.476L61.0939 20.908C60.9659 20.524 60.7699 20.232 60.5059 20.032C60.2499 19.824 59.9139 19.72 59.4979 19.72C59.0979 19.72 58.7539 19.812 58.4659 19.996C58.1779 20.172 57.9579 20.432 57.8059 20.776C57.6539 21.112 57.5779 21.52 57.5779 22C57.5779 22.472 57.6539 22.88 57.8059 23.224C57.9579 23.568 58.1779 23.832 58.4659 24.016C58.7539 24.192 59.0979 24.28 59.4979 24.28C59.8099 24.28 60.0779 24.232 60.3019 24.136C60.5339 24.04 60.7219 23.9 60.8659 23.716C61.0179 23.532 61.1219 23.308 61.1779 23.044L62.0659 23.356C61.9299 23.724 61.7419 24.04 61.5019 24.304C61.2699 24.568 60.9859 24.772 60.6499 24.916C60.3219 25.052 59.9459 25.12 59.5219 25.12C58.9619 25.12 58.4619 24.996 58.0219 24.748C57.5819 24.5 57.2379 24.144 56.9899 23.68C56.7419 23.208 56.6179 22.648 56.6179 22C56.6179 21.352 56.7419 20.796 56.9899 20.332C57.2379 19.86 57.5819 19.5 58.0219 19.252C58.4619 19.004 58.9619 18.88 59.5219 18.88ZM69.0207 19L66.4287 21.592L66.2007 21.82L64.2327 23.788V22.588L67.8087 19H69.0207ZM64.7127 16.24V25H63.7527V16.24H64.7127ZM66.5127 21.1L69.1647 25H68.0007L65.7087 21.64L66.5127 21.1ZM80.3932 25H79.3732L78.5332 22.804H74.9452L74.1052 25H73.0972L76.1812 17.08H77.3212L80.3932 25ZM75.2932 21.904H78.1852L76.7332 18.004L75.2932 21.904ZM84.2016 18.88C84.6176 18.88 84.9816 18.944 85.2936 19.072C85.6136 19.2 85.8896 19.384 86.1216 19.624C86.3536 19.864 86.5416 20.148 86.6856 20.476L85.7736 20.908C85.6456 20.524 85.4496 20.232 85.1856 20.032C84.9296 19.824 84.5936 19.72 84.1776 19.72C83.7776 19.72 83.4336 19.812 83.1456 19.996C82.8576 20.172 82.6376 20.432 82.4856 20.776C82.3336 21.112 82.2576 21.52 82.2576 22C82.2576 22.472 82.3336 22.88 82.4856 23.224C82.6376 23.568 82.8576 23.832 83.1456 24.016C83.4336 24.192 83.7776 24.28 84.1776 24.28C84.4896 24.28 84.7576 24.232 84.9816 24.136C85.2136 24.04 85.4016 23.9 85.5456 23.716C85.6976 23.532 85.8016 23.308 85.8576 23.044L86.7456 23.356C86.6096 23.724 86.4216 24.04 86.1816 24.304C85.9496 24.568 85.6656 24.772 85.3296 24.916C85.0016 25.052 84.6256 25.12 84.2016 25.12C83.6416 25.12 83.1416 24.996 82.7016 24.748C82.2616 24.5 81.9176 24.144 81.6696 23.68C81.4216 23.208 81.2976 22.648 81.2976 22C81.2976 21.352 81.4216 20.796 81.6696 20.332C81.9176 19.86 82.2616 19.5 82.7016 19.252C83.1416 19.004 83.6416 18.88 84.2016 18.88ZM90.9164 18.88C91.3324 18.88 91.6964 18.944 92.0084 19.072C92.3284 19.2 92.6044 19.384 92.8364 19.624C93.0684 19.864 93.2564 20.148 93.4004 20.476L92.4884 20.908C92.3604 20.524 92.1644 20.232 91.9004 20.032C91.6444 19.824 91.3084 19.72 90.8924 19.72C90.4924 19.72 90.1484 19.812 89.8604 19.996C89.5724 20.172 89.3524 20.432 89.2004 20.776C89.0484 21.112 88.9724 21.52 88.9724 22C88.9724 22.472 89.0484 22.88 89.2004 23.224C89.3524 23.568 89.5724 23.832 89.8604 24.016C90.1484 24.192 90.4924 24.28 90.8924 24.28C91.2044 24.28 91.4724 24.232 91.6964 24.136C91.9284 24.04 92.1164 23.9 92.2604 23.716C92.4124 23.532 92.5164 23.308 92.5724 23.044L93.4604 23.356C93.3244 23.724 93.1364 24.04 92.8964 24.304C92.6644 24.568 92.3804 24.772 92.0444 24.916C91.7164 25.052 91.3404 25.12 90.9164 25.12C90.3564 25.12 89.8564 24.996 89.4164 24.748C88.9764 24.5 88.6324 24.144 88.3844 23.68C88.1364 23.208 88.0124 22.648 88.0124 22C88.0124 21.352 88.1364 20.796 88.3844 20.332C88.6324 19.86 88.9764 19.5 89.4164 19.252C89.8564 19.004 90.3564 18.88 90.9164 18.88ZM97.3193 25.12C96.9353 25.12 96.5713 25.048 96.2273 24.904C95.8913 24.76 95.6153 24.528 95.3993 24.208C95.1913 23.88 95.0873 23.456 95.0873 22.936V19H96.0473V22.684C96.0473 23.292 96.1793 23.712 96.4433 23.944C96.7073 24.168 97.0793 24.28 97.5592 24.28C97.7833 24.28 98.0033 24.244 98.2193 24.172C98.4353 24.092 98.6273 23.972 98.7953 23.812C98.9713 23.644 99.1073 23.432 99.2033 23.176C99.3073 22.92 99.3593 22.616 99.3593 22.264V19H100.319V25H99.4793L99.4193 24.088C99.2113 24.448 98.9273 24.712 98.5673 24.88C98.2153 25.04 97.7993 25.12 97.3193 25.12ZM102.554 25V19H103.334L103.466 19.984C103.634 19.616 103.878 19.34 104.198 19.156C104.526 18.972 104.922 18.88 105.386 18.88C105.49 18.88 105.602 18.888 105.722 18.904C105.85 18.92 105.958 18.952 106.046 19L105.878 19.876C105.79 19.844 105.694 19.82 105.59 19.804C105.486 19.788 105.338 19.78 105.146 19.78C104.898 19.78 104.646 19.852 104.39 19.996C104.142 20.14 103.934 20.36 103.766 20.656C103.598 20.944 103.514 21.312 103.514 21.76V25H102.554ZM110.792 21.124C110.792 20.676 110.672 20.332 110.432 20.092C110.192 19.844 109.852 19.72 109.412 19.72C108.996 19.72 108.644 19.812 108.356 19.996C108.068 20.172 107.856 20.46 107.72 20.86L106.94 20.38C107.1 19.932 107.396 19.572 107.828 19.3C108.26 19.02 108.796 18.88 109.436 18.88C109.868 18.88 110.26 18.956 110.612 19.108C110.964 19.252 111.24 19.476 111.44 19.78C111.648 20.076 111.752 20.46 111.752 20.932V23.836C111.752 24.124 111.904 24.268 112.208 24.268C112.36 24.268 112.508 24.248 112.652 24.208L112.604 24.964C112.444 25.044 112.236 25.084 111.98 25.084C111.748 25.084 111.54 25.04 111.356 24.952C111.172 24.864 111.028 24.732 110.924 24.556C110.82 24.372 110.768 24.144 110.768 23.872V23.752L111.008 23.788C110.912 24.1 110.748 24.356 110.516 24.556C110.284 24.748 110.024 24.892 109.736 24.988C109.448 25.076 109.164 25.12 108.884 25.12C108.532 25.12 108.204 25.06 107.9 24.94C107.596 24.82 107.352 24.64 107.168 24.4C106.992 24.152 106.904 23.848 106.904 23.488C106.904 23.04 107.052 22.672 107.348 22.384C107.652 22.088 108.072 21.888 108.608 21.784L110.984 21.316V22.108L109.052 22.504C108.66 22.584 108.368 22.696 108.176 22.84C107.984 22.984 107.888 23.184 107.888 23.44C107.888 23.688 107.984 23.892 108.176 24.052C108.376 24.204 108.656 24.28 109.016 24.28C109.248 24.28 109.468 24.252 109.676 24.196C109.892 24.132 110.084 24.04 110.252 23.92C110.42 23.792 110.552 23.636 110.648 23.452C110.744 23.26 110.792 23.036 110.792 22.78V21.124ZM115.266 17.296V23.344C115.266 23.64 115.35 23.86 115.518 24.004C115.686 24.148 115.902 24.22 116.166 24.22C116.398 24.22 116.598 24.18 116.766 24.1C116.934 24.02 117.086 23.912 117.222 23.776L117.558 24.58C117.374 24.748 117.154 24.88 116.898 24.976C116.65 25.072 116.362 25.12 116.034 25.12C115.73 25.12 115.446 25.068 115.182 24.964C114.918 24.852 114.706 24.68 114.546 24.448C114.394 24.208 114.314 23.896 114.306 23.512V17.56L115.266 17.296ZM117.45 19V19.828H113.106V19H117.45ZM121.386 25.12C120.818 25.12 120.31 24.996 119.862 24.748C119.422 24.5 119.078 24.144 118.83 23.68C118.582 23.208 118.458 22.648 118.458 22C118.458 21.352 118.582 20.796 118.83 20.332C119.078 19.86 119.418 19.5 119.85 19.252C120.282 19.004 120.774 18.88 121.326 18.88C121.886 18.88 122.362 19 122.754 19.24C123.154 19.48 123.458 19.808 123.666 20.224C123.874 20.632 123.978 21.092 123.978 21.604C123.978 21.74 123.974 21.864 123.966 21.976C123.958 22.088 123.946 22.188 123.93 22.276H119.082V21.424H123.51L123.018 21.52C123.018 20.944 122.858 20.5 122.538 20.188C122.226 19.876 121.814 19.72 121.302 19.72C120.91 19.72 120.57 19.812 120.282 19.996C120.002 20.172 119.782 20.432 119.622 20.776C119.47 21.112 119.394 21.52 119.394 22C119.394 22.472 119.474 22.88 119.634 23.224C119.794 23.568 120.018 23.832 120.306 24.016C120.602 24.192 120.954 24.28 121.362 24.28C121.802 24.28 122.158 24.196 122.43 24.028C122.71 23.86 122.934 23.632 123.102 23.344L123.858 23.788C123.706 24.06 123.51 24.296 123.27 24.496C123.038 24.696 122.762 24.852 122.442 24.964C122.13 25.068 121.778 25.12 121.386 25.12ZM137.729 17.08V25H136.817V20.02L136.925 17.932H136.913L134.309 25H133.493L130.889 17.932H130.877L130.985 20.02V25H130.073V17.08H131.549L133.289 21.892L133.889 23.872H133.913L134.525 21.904L136.253 17.08H137.729ZM143.569 21.124C143.569 20.676 143.449 20.332 143.209 20.092C142.969 19.844 142.629 19.72 142.189 19.72C141.773 19.72 141.421 19.812 141.133 19.996C140.845 20.172 140.633 20.46 140.497 20.86L139.717 20.38C139.877 19.932 140.173 19.572 140.605 19.3C141.037 19.02 141.573 18.88 142.213 18.88C142.645 18.88 143.037 18.956 143.389 19.108C143.741 19.252 144.017 19.476 144.217 19.78C144.425 20.076 144.529 20.46 144.529 20.932V23.836C144.529 24.124 144.681 24.268 144.985 24.268C145.137 24.268 145.285 24.248 145.429 24.208L145.381 24.964C145.221 25.044 145.013 25.084 144.757 25.084C144.525 25.084 144.317 25.04 144.133 24.952C143.949 24.864 143.805 24.732 143.701 24.556C143.597 24.372 143.545 24.144 143.545 23.872V23.752L143.785 23.788C143.689 24.1 143.525 24.356 143.293 24.556C143.061 24.748 142.801 24.892 142.513 24.988C142.225 25.076 141.941 25.12 141.661 25.12C141.309 25.12 140.981 25.06 140.677 24.94C140.373 24.82 140.129 24.64 139.945 24.4C139.769 24.152 139.681 23.848 139.681 23.488C139.681 23.04 139.829 22.672 140.125 22.384C140.429 22.088 140.849 21.888 141.385 21.784L143.761 21.316V22.108L141.829 22.504C141.437 22.584 141.145 22.696 140.953 22.84C140.761 22.984 140.665 23.184 140.665 23.44C140.665 23.688 140.761 23.892 140.953 24.052C141.153 24.204 141.433 24.28 141.793 24.28C142.025 24.28 142.245 24.252 142.453 24.196C142.669 24.132 142.861 24.04 143.029 23.92C143.197 23.792 143.329 23.636 143.425 23.452C143.521 23.26 143.569 23.036 143.569 22.78V21.124ZM148.044 17.296V23.344C148.044 23.64 148.128 23.86 148.296 24.004C148.464 24.148 148.68 24.22 148.944 24.22C149.176 24.22 149.376 24.18 149.544 24.1C149.712 24.02 149.864 23.912 150 23.776L150.336 24.58C150.152 24.748 149.932 24.88 149.676 24.976C149.428 25.072 149.14 25.12 148.812 25.12C148.508 25.12 148.224 25.068 147.96 24.964C147.696 24.852 147.484 24.68 147.324 24.448C147.172 24.208 147.092 23.896 147.084 23.512V17.56L148.044 17.296ZM150.228 19V19.828H145.884V19H150.228ZM154.139 18.88C154.555 18.88 154.919 18.944 155.231 19.072C155.551 19.2 155.827 19.384 156.059 19.624C156.291 19.864 156.479 20.148 156.623 20.476L155.711 20.908C155.583 20.524 155.387 20.232 155.123 20.032C154.867 19.824 154.531 19.72 154.115 19.72C153.715 19.72 153.371 19.812 153.083 19.996C152.795 20.172 152.575 20.432 152.423 20.776C152.271 21.112 152.195 21.52 152.195 22C152.195 22.472 152.271 22.88 152.423 23.224C152.575 23.568 152.795 23.832 153.083 24.016C153.371 24.192 153.715 24.28 154.115 24.28C154.427 24.28 154.695 24.232 154.919 24.136C155.151 24.04 155.339 23.9 155.483 23.716C155.635 23.532 155.739 23.308 155.795 23.044L156.683 23.356C156.547 23.724 156.359 24.04 156.119 24.304C155.887 24.568 155.603 24.772 155.267 24.916C154.939 25.052 154.563 25.12 154.139 25.12C153.579 25.12 153.079 24.996 152.639 24.748C152.199 24.5 151.855 24.144 151.607 23.68C151.359 23.208 151.235 22.648 151.235 22C151.235 21.352 151.359 20.796 151.607 20.332C151.855 19.86 152.199 19.5 152.639 19.252C153.079 19.004 153.579 18.88 154.139 18.88ZM158.37 25V16.24H159.33V19.9C159.538 19.54 159.814 19.28 160.158 19.12C160.502 18.96 160.878 18.88 161.286 18.88C161.718 18.88 162.11 18.964 162.462 19.132C162.814 19.292 163.094 19.54 163.302 19.876C163.518 20.212 163.626 20.64 163.626 21.16V25H162.666V21.496C162.666 20.832 162.522 20.372 162.234 20.116C161.954 19.852 161.606 19.72 161.19 19.72C160.902 19.72 160.614 19.788 160.326 19.924C160.038 20.06 159.798 20.284 159.606 20.596C159.422 20.9 159.33 21.308 159.33 21.82V25H158.37ZM34.6358 39V31.08H37.4558C38.3918 31.08 39.0758 31.276 39.5078 31.668C39.9398 32.06 40.1558 32.592 40.1558 33.264C40.1558 33.664 40.0398 34.028 39.8078 34.356C39.5758 34.676 39.2478 34.88 38.8238 34.968V34.98C39.2958 35.068 39.6678 35.284 39.9398 35.628C40.2198 35.964 40.3598 36.348 40.3598 36.78C40.3598 37.452 40.1078 37.992 39.6038 38.4C39.0998 38.8 38.3798 39 37.4438 39H34.6358ZM35.5958 38.1H37.6718C38.2398 38.1 38.6598 37.984 38.9318 37.752C39.2118 37.52 39.3518 37.196 39.3518 36.78C39.3518 36.356 39.2118 36.032 38.9318 35.808C38.6598 35.576 38.2398 35.46 37.6718 35.46H35.5958V38.1ZM35.5958 34.56H37.4678C38.5878 34.56 39.1478 34.128 39.1478 33.264C39.1478 32.408 38.5878 31.98 37.4678 31.98H35.5958V34.56ZM44.7797 32.88C45.3477 32.88 45.8477 33.004 46.2797 33.252C46.7197 33.5 47.0637 33.86 47.3117 34.332C47.5597 34.796 47.6837 35.352 47.6837 36C47.6837 36.648 47.5597 37.208 47.3117 37.68C47.0637 38.144 46.7197 38.5 46.2797 38.748C45.8477 38.996 45.3477 39.12 44.7797 39.12C44.2197 39.12 43.7197 38.996 43.2797 38.748C42.8397 38.5 42.4957 38.144 42.2477 37.68C41.9997 37.208 41.8757 36.648 41.8757 36C41.8757 35.352 41.9997 34.796 42.2477 34.332C42.4957 33.86 42.8397 33.5 43.2797 33.252C43.7197 33.004 44.2197 32.88 44.7797 32.88ZM44.7797 33.708C44.3717 33.708 44.0237 33.8 43.7357 33.984C43.4477 34.168 43.2237 34.432 43.0637 34.776C42.9117 35.112 42.8357 35.52 42.8357 36C42.8357 36.472 42.9117 36.88 43.0637 37.224C43.2237 37.568 43.4477 37.832 43.7357 38.016C44.0237 38.2 44.3717 38.292 44.7797 38.292C45.1877 38.292 45.5357 38.2 45.8237 38.016C46.1117 37.832 46.3317 37.568 46.4837 37.224C46.6437 36.88 46.7237 36.472 46.7237 36C46.7237 35.52 46.6437 35.112 46.4837 34.776C46.3317 34.432 46.1117 34.168 45.8237 33.984C45.5357 33.8 45.1877 33.708 44.7797 33.708ZM51.975 32.88C52.543 32.88 53.043 33.004 53.475 33.252C53.915 33.5 54.259 33.86 54.507 34.332C54.755 34.796 54.879 35.352 54.879 36C54.879 36.648 54.755 37.208 54.507 37.68C54.259 38.144 53.915 38.5 53.475 38.748C53.043 38.996 52.543 39.12 51.975 39.12C51.415 39.12 50.915 38.996 50.475 38.748C50.035 38.5 49.691 38.144 49.443 37.68C49.195 37.208 49.071 36.648 49.071 36C49.071 35.352 49.195 34.796 49.443 34.332C49.691 33.86 50.035 33.5 50.475 33.252C50.915 33.004 51.415 32.88 51.975 32.88ZM51.975 33.708C51.567 33.708 51.219 33.8 50.931 33.984C50.643 34.168 50.419 34.432 50.259 34.776C50.107 35.112 50.031 35.52 50.031 36C50.031 36.472 50.107 36.88 50.259 37.224C50.419 37.568 50.643 37.832 50.931 38.016C51.219 38.2 51.567 38.292 51.975 38.292C52.383 38.292 52.731 38.2 53.019 38.016C53.307 37.832 53.527 37.568 53.679 37.224C53.839 36.88 53.919 36.472 53.919 36C53.919 35.52 53.839 35.112 53.679 34.776C53.527 34.432 53.307 34.168 53.019 33.984C52.731 33.8 52.383 33.708 51.975 33.708ZM58.8463 39.12C58.2623 39.12 57.7223 38.996 57.2263 38.748C56.7383 38.5 56.3623 38.148 56.0983 37.692L56.9143 37.104C57.0903 37.472 57.3463 37.76 57.6823 37.968C58.0263 38.176 58.4383 38.28 58.9183 38.28C59.3423 38.28 59.6743 38.2 59.9143 38.04C60.1543 37.872 60.2743 37.656 60.2743 37.392C60.2743 37.224 60.2183 37.072 60.1063 36.936C60.0023 36.792 59.7983 36.688 59.4943 36.624L58.0543 36.324C57.4703 36.204 57.0503 36.004 56.7943 35.724C56.5463 35.444 56.4223 35.096 56.4223 34.68C56.4223 34.352 56.5143 34.052 56.6983 33.78C56.8903 33.508 57.1583 33.292 57.5023 33.132C57.8543 32.964 58.2663 32.88 58.7383 32.88C59.3303 32.88 59.8303 32.996 60.2383 33.228C60.6463 33.46 60.9503 33.788 61.1503 34.212L60.3463 34.74C60.2103 34.388 59.9903 34.132 59.6863 33.972C59.3823 33.804 59.0663 33.72 58.7383 33.72C58.4503 33.72 58.2023 33.76 57.9943 33.84C57.7943 33.92 57.6383 34.032 57.5263 34.176C57.4223 34.312 57.3703 34.468 57.3703 34.644C57.3703 34.82 57.4303 34.984 57.5503 35.136C57.6703 35.28 57.8943 35.384 58.2223 35.448L59.7223 35.76C60.2823 35.872 60.6743 36.056 60.8983 36.312C61.1223 36.568 61.2343 36.88 61.2343 37.248C61.2343 37.624 61.1343 37.956 60.9343 38.244C60.7343 38.524 60.4543 38.74 60.0943 38.892C59.7343 39.044 59.3183 39.12 58.8463 39.12ZM64.4304 31.296V37.344C64.4304 37.64 64.5144 37.86 64.6824 38.004C64.8504 38.148 65.0664 38.22 65.3304 38.22C65.5624 38.22 65.7624 38.18 65.9304 38.1C66.0984 38.02 66.2504 37.912 66.3864 37.776L66.7224 38.58C66.5384 38.748 66.3184 38.88 66.0624 38.976C65.8144 39.072 65.5264 39.12 65.1984 39.12C64.8944 39.12 64.6104 39.068 64.3464 38.964C64.0824 38.852 63.8704 38.68 63.7104 38.448C63.5584 38.208 63.4784 37.896 63.4704 37.512V31.56L64.4304 31.296ZM66.6144 33V33.828H62.2704V33H66.6144ZM72.1316 41.52V33H72.9716L73.0556 34.464L72.9236 34.296C73.0276 34.016 73.1836 33.772 73.3916 33.564C73.5996 33.348 73.8516 33.18 74.1476 33.06C74.4436 32.94 74.7636 32.88 75.1076 32.88C75.5956 32.88 76.0436 33.004 76.4516 33.252C76.8676 33.5 77.1996 33.856 77.4476 34.32C77.6956 34.784 77.8196 35.344 77.8196 36C77.8196 36.648 77.6916 37.208 77.4356 37.68C77.1876 38.144 76.8556 38.5 76.4396 38.748C76.0236 38.996 75.5676 39.12 75.0716 39.12C74.5756 39.12 74.1396 39 73.7636 38.76C73.3956 38.512 73.1316 38.2 72.9716 37.824L73.0916 37.644V41.52H72.1316ZM74.9756 38.28C75.5676 38.28 76.0276 38.072 76.3556 37.656C76.6916 37.24 76.8596 36.688 76.8596 36C76.8596 35.312 76.6956 34.76 76.3676 34.344C76.0476 33.928 75.5956 33.72 75.0116 33.72C74.6276 33.72 74.2916 33.816 74.0036 34.008C73.7156 34.192 73.4916 34.456 73.3316 34.8C73.1716 35.136 73.0916 35.536 73.0916 36C73.0916 36.456 73.1676 36.856 73.3196 37.2C73.4796 37.544 73.6996 37.812 73.9796 38.004C74.2676 38.188 74.5996 38.28 74.9756 38.28ZM79.6551 39V33H80.4351L80.5671 33.984C80.7351 33.616 80.9791 33.34 81.2991 33.156C81.6271 32.972 82.0231 32.88 82.4871 32.88C82.5911 32.88 82.7031 32.888 82.8231 32.904C82.9511 32.92 83.0591 32.952 83.1471 33L82.9791 33.876C82.8911 33.844 82.7951 33.82 82.6911 33.804C82.5871 33.788 82.4391 33.78 82.2471 33.78C81.9991 33.78 81.7471 33.852 81.4911 33.996C81.2431 34.14 81.0351 34.36 80.8671 34.656C80.6991 34.944 80.6151 35.312 80.6151 35.76V39H79.6551ZM86.85 32.88C87.418 32.88 87.918 33.004 88.35 33.252C88.79 33.5 89.134 33.86 89.382 34.332C89.63 34.796 89.754 35.352 89.754 36C89.754 36.648 89.63 37.208 89.382 37.68C89.134 38.144 88.79 38.5 88.35 38.748C87.918 38.996 87.418 39.12 86.85 39.12C86.29 39.12 85.79 38.996 85.35 38.748C84.91 38.5 84.566 38.144 84.318 37.68C84.07 37.208 83.946 36.648 83.946 36C83.946 35.352 84.07 34.796 84.318 34.332C84.566 33.86 84.91 33.5 85.35 33.252C85.79 33.004 86.29 32.88 86.85 32.88ZM86.85 33.708C86.442 33.708 86.094 33.8 85.806 33.984C85.518 34.168 85.294 34.432 85.134 34.776C84.982 35.112 84.906 35.52 84.906 36C84.906 36.472 84.982 36.88 85.134 37.224C85.294 37.568 85.518 37.832 85.806 38.016C86.094 38.2 86.442 38.292 86.85 38.292C87.258 38.292 87.606 38.2 87.894 38.016C88.182 37.832 88.402 37.568 88.554 37.224C88.714 36.88 88.794 36.472 88.794 36C88.794 35.52 88.714 35.112 88.554 34.776C88.402 34.432 88.182 34.168 87.894 33.984C87.606 33.8 87.258 33.708 86.85 33.708ZM93.8918 30.18C94.0998 30.18 94.2958 30.204 94.4798 30.252C94.6638 30.3 94.8078 30.368 94.9118 30.456L94.6598 31.236C94.5638 31.172 94.4598 31.128 94.3478 31.104C94.2358 31.072 94.1118 31.056 93.9758 31.056C93.6318 31.056 93.3638 31.14 93.1718 31.308C92.9798 31.468 92.8838 31.728 92.8838 32.088V33V33.312V39H91.9238V31.992C91.9238 31.728 91.9638 31.484 92.0438 31.26C92.1238 31.036 92.2438 30.844 92.4038 30.684C92.5718 30.524 92.7798 30.4 93.0278 30.312C93.2758 30.224 93.5638 30.18 93.8918 30.18ZM94.8878 33V33.828H90.7238V33H94.8878ZM96.6518 31.848C96.4358 31.848 96.2598 31.784 96.1238 31.656C95.9958 31.52 95.9318 31.344 95.9318 31.128C95.9318 30.912 95.9958 30.74 96.1238 30.612C96.2598 30.476 96.4358 30.408 96.6518 30.408C96.8678 30.408 97.0398 30.476 97.1678 30.612C97.3038 30.74 97.3718 30.912 97.3718 31.128C97.3718 31.344 97.3038 31.52 97.1678 31.656C97.0398 31.784 96.8678 31.848 96.6518 31.848ZM97.1318 33V39H96.1718V33H97.1318ZM100.278 30.24V37.476C100.278 37.78 100.334 37.992 100.446 38.112C100.558 38.224 100.738 38.28 100.986 38.28C101.146 38.28 101.278 38.268 101.382 38.244C101.486 38.22 101.626 38.176 101.802 38.112L101.646 38.952C101.518 39.008 101.378 39.048 101.226 39.072C101.074 39.104 100.918 39.12 100.758 39.12C100.27 39.12 99.906 38.988 99.666 38.724C99.434 38.46 99.318 38.056 99.318 37.512V30.24H100.278ZM105.542 39.12C104.974 39.12 104.466 38.996 104.018 38.748C103.578 38.5 103.234 38.144 102.986 37.68C102.738 37.208 102.614 36.648 102.614 36C102.614 35.352 102.738 34.796 102.986 34.332C103.234 33.86 103.574 33.5 104.006 33.252C104.438 33.004 104.93 32.88 105.482 32.88C106.042 32.88 106.518 33 106.91 33.24C107.31 33.48 107.614 33.808 107.822 34.224C108.03 34.632 108.134 35.092 108.134 35.604C108.134 35.74 108.13 35.864 108.122 35.976C108.114 36.088 108.102 36.188 108.086 36.276H103.238V35.424H107.666L107.174 35.52C107.174 34.944 107.014 34.5 106.694 34.188C106.382 33.876 105.97 33.72 105.458 33.72C105.066 33.72 104.726 33.812 104.438 33.996C104.158 34.172 103.938 34.432 103.778 34.776C103.626 35.112 103.55 35.52 103.55 36C103.55 36.472 103.63 36.88 103.79 37.224C103.95 37.568 104.174 37.832 104.462 38.016C104.758 38.192 105.11 38.28 105.518 38.28C105.958 38.28 106.314 38.196 106.586 38.028C106.866 37.86 107.09 37.632 107.258 37.344L108.014 37.788C107.862 38.06 107.666 38.296 107.426 38.496C107.194 38.696 106.918 38.852 106.598 38.964C106.286 39.068 105.934 39.12 105.542 39.12ZM37.1681 44.96C37.8641 44.96 38.4641 45.104 38.9681 45.392C39.4721 45.672 39.8921 46.088 40.2281 46.64L39.4241 47.264C39.1281 46.752 38.7921 46.392 38.4161 46.184C38.0481 45.968 37.6001 45.86 37.0721 45.86C36.6481 45.86 36.2961 45.92 36.0161 46.04C35.7441 46.16 35.5441 46.32 35.4161 46.52C35.2881 46.712 35.2241 46.932 35.2241 47.18C35.2241 47.46 35.3121 47.708 35.4881 47.924C35.6641 48.132 36.0161 48.296 36.5441 48.416L38.2601 48.8C39.0201 48.968 39.5481 49.224 39.8441 49.568C40.1481 49.904 40.3001 50.324 40.3001 50.828C40.3001 51.276 40.1721 51.676 39.9161 52.028C39.6681 52.372 39.3161 52.64 38.8601 52.832C38.4041 53.024 37.8681 53.12 37.2521 53.12C36.6761 53.12 36.1681 53.044 35.7281 52.892C35.2961 52.732 34.9241 52.52 34.6121 52.256C34.3001 51.992 34.0441 51.696 33.8441 51.368L34.6841 50.684C34.8361 50.988 35.0321 51.256 35.2721 51.488C35.5121 51.72 35.8001 51.9 36.1361 52.028C36.4801 52.156 36.8721 52.22 37.3121 52.22C37.7201 52.22 38.0721 52.172 38.3681 52.076C38.6721 51.972 38.9041 51.824 39.0641 51.632C39.2241 51.432 39.3041 51.192 39.3041 50.912C39.3041 50.656 39.2201 50.428 39.0521 50.228C38.8841 50.02 38.5681 49.864 38.1041 49.76L36.2441 49.34C35.7561 49.228 35.3601 49.076 35.0561 48.884C34.7601 48.684 34.5441 48.452 34.4081 48.188C34.2801 47.916 34.2161 47.624 34.2161 47.312C34.2161 46.888 34.3321 46.5 34.5641 46.148C34.8041 45.788 35.1441 45.5 35.5841 45.284C36.0321 45.068 36.5601 44.96 37.1681 44.96ZM44.245 53.12C43.861 53.12 43.497 53.048 43.153 52.904C42.817 52.76 42.541 52.528 42.325 52.208C42.117 51.88 42.013 51.456 42.013 50.936V47H42.973V50.684C42.973 51.292 43.105 51.712 43.369 51.944C43.633 52.168 44.005 52.28 44.485 52.28C44.709 52.28 44.929 52.244 45.145 52.172C45.361 52.092 45.553 51.972 45.721 51.812C45.897 51.644 46.033 51.432 46.129 51.176C46.233 50.92 46.285 50.616 46.285 50.264V47H47.245V53H46.405L46.345 52.088C46.137 52.448 45.853 52.712 45.493 52.88C45.141 53.04 44.725 53.12 44.245 53.12ZM49.4793 55.52V47H50.3193L50.4033 48.464L50.2713 48.296C50.3753 48.016 50.5313 47.772 50.7393 47.564C50.9473 47.348 51.1993 47.18 51.4953 47.06C51.7913 46.94 52.1113 46.88 52.4553 46.88C52.9433 46.88 53.3913 47.004 53.7993 47.252C54.2153 47.5 54.5473 47.856 54.7953 48.32C55.0433 48.784 55.1673 49.344 55.1673 50C55.1673 50.648 55.0393 51.208 54.7833 51.68C54.5353 52.144 54.2033 52.5 53.7873 52.748C53.3713 52.996 52.9153 53.12 52.4193 53.12C51.9233 53.12 51.4873 53 51.1113 52.76C50.7433 52.512 50.4793 52.2 50.3193 51.824L50.4393 51.644V55.52H49.4793ZM52.3233 52.28C52.9153 52.28 53.3753 52.072 53.7033 51.656C54.0393 51.24 54.2073 50.688 54.2073 50C54.2073 49.312 54.0433 48.76 53.7153 48.344C53.3953 47.928 52.9433 47.72 52.3593 47.72C51.9753 47.72 51.6393 47.816 51.3513 48.008C51.0633 48.192 50.8393 48.456 50.6793 48.8C50.5193 49.136 50.4393 49.536 50.4393 50C50.4393 50.456 50.5153 50.856 50.6673 51.2C50.8273 51.544 51.0473 51.812 51.3273 52.004C51.6153 52.188 51.9473 52.28 52.3233 52.28ZM59.5107 53.12C58.9427 53.12 58.4347 52.996 57.9867 52.748C57.5467 52.5 57.2027 52.144 56.9547 51.68C56.7067 51.208 56.5827 50.648 56.5827 50C56.5827 49.352 56.7067 48.796 56.9547 48.332C57.2027 47.86 57.5427 47.5 57.9747 47.252C58.4067 47.004 58.8987 46.88 59.4507 46.88C60.0107 46.88 60.4867 47 60.8787 47.24C61.2787 47.48 61.5827 47.808 61.7907 48.224C61.9987 48.632 62.1027 49.092 62.1027 49.604C62.1027 49.74 62.0987 49.864 62.0907 49.976C62.0827 50.088 62.0707 50.188 62.0547 50.276H57.2067V49.424H61.6347L61.1427 49.52C61.1427 48.944 60.9827 48.5 60.6627 48.188C60.3507 47.876 59.9387 47.72 59.4267 47.72C59.0347 47.72 58.6947 47.812 58.4067 47.996C58.1267 48.172 57.9067 48.432 57.7467 48.776C57.5947 49.112 57.5187 49.52 57.5187 50C57.5187 50.472 57.5987 50.88 57.7587 51.224C57.9187 51.568 58.1427 51.832 58.4307 52.016C58.7267 52.192 59.0787 52.28 59.4867 52.28C59.9267 52.28 60.2827 52.196 60.5547 52.028C60.8347 51.86 61.0587 51.632 61.2267 51.344L61.9827 51.788C61.8307 52.06 61.6347 52.296 61.3947 52.496C61.1627 52.696 60.8867 52.852 60.5667 52.964C60.2547 53.068 59.9027 53.12 59.5107 53.12ZM63.9285 53V47H64.7085L64.8405 47.984C65.0085 47.616 65.2525 47.34 65.5725 47.156C65.9005 46.972 66.2965 46.88 66.7605 46.88C66.8645 46.88 66.9765 46.888 67.0965 46.904C67.2245 46.92 67.3325 46.952 67.4205 47L67.2525 47.876C67.1645 47.844 67.0685 47.82 66.9645 47.804C66.8605 47.788 66.7125 47.78 66.5205 47.78C66.2725 47.78 66.0205 47.852 65.7645 47.996C65.5165 48.14 65.3085 48.36 65.1405 48.656C64.9725 48.944 64.8885 49.312 64.8885 49.76V53H63.9285ZM72.8155 53V45.08H75.6355C76.5715 45.08 77.2555 45.276 77.6875 45.668C78.1195 46.06 78.3355 46.592 78.3355 47.264C78.3355 47.664 78.2195 48.028 77.9875 48.356C77.7555 48.676 77.4275 48.88 77.0035 48.968V48.98C77.4755 49.068 77.8475 49.284 78.1195 49.628C78.3995 49.964 78.5395 50.348 78.5395 50.78C78.5395 51.452 78.2875 51.992 77.7835 52.4C77.2795 52.8 76.5595 53 75.6235 53H72.8155ZM73.7755 52.1H75.8515C76.4195 52.1 76.8395 51.984 77.1115 51.752C77.3915 51.52 77.5315 51.196 77.5315 50.78C77.5315 50.356 77.3915 50.032 77.1115 49.808C76.8395 49.576 76.4195 49.46 75.8515 49.46H73.7755V52.1ZM73.7755 48.56H75.6475C76.7675 48.56 77.3275 48.128 77.3275 47.264C77.3275 46.408 76.7675 45.98 75.6475 45.98H73.7755V48.56ZM82.9594 46.88C83.5274 46.88 84.0274 47.004 84.4594 47.252C84.8994 47.5 85.2434 47.86 85.4914 48.332C85.7394 48.796 85.8634 49.352 85.8634 50C85.8634 50.648 85.7394 51.208 85.4914 51.68C85.2434 52.144 84.8994 52.5 84.4594 52.748C84.0274 52.996 83.5274 53.12 82.9594 53.12C82.3994 53.12 81.8994 52.996 81.4594 52.748C81.0194 52.5 80.6754 52.144 80.4274 51.68C80.1794 51.208 80.0554 50.648 80.0554 50C80.0554 49.352 80.1794 48.796 80.4274 48.332C80.6754 47.86 81.0194 47.5 81.4594 47.252C81.8994 47.004 82.3994 46.88 82.9594 46.88ZM82.9594 47.708C82.5514 47.708 82.2034 47.8 81.9154 47.984C81.6274 48.168 81.4034 48.432 81.2434 48.776C81.0914 49.112 81.0154 49.52 81.0154 50C81.0154 50.472 81.0914 50.88 81.2434 51.224C81.4034 51.568 81.6274 51.832 81.9154 52.016C82.2034 52.2 82.5514 52.292 82.9594 52.292C83.3674 52.292 83.7154 52.2 84.0034 52.016C84.2914 51.832 84.5114 51.568 84.6634 51.224C84.8234 50.88 84.9034 50.472 84.9034 50C84.9034 49.52 84.8234 49.112 84.6634 48.776C84.5114 48.432 84.2914 48.168 84.0034 47.984C83.7154 47.8 83.3674 47.708 82.9594 47.708ZM90.1547 46.88C90.7227 46.88 91.2227 47.004 91.6547 47.252C92.0947 47.5 92.4387 47.86 92.6867 48.332C92.9347 48.796 93.0587 49.352 93.0587 50C93.0587 50.648 92.9347 51.208 92.6867 51.68C92.4387 52.144 92.0947 52.5 91.6547 52.748C91.2227 52.996 90.7227 53.12 90.1547 53.12C89.5947 53.12 89.0947 52.996 88.6547 52.748C88.2147 52.5 87.8707 52.144 87.6227 51.68C87.3747 51.208 87.2507 50.648 87.2507 50C87.2507 49.352 87.3747 48.796 87.6227 48.332C87.8707 47.86 88.2147 47.5 88.6547 47.252C89.0947 47.004 89.5947 46.88 90.1547 46.88ZM90.1547 47.708C89.7467 47.708 89.3987 47.8 89.1107 47.984C88.8227 48.168 88.5987 48.432 88.4387 48.776C88.2867 49.112 88.2107 49.52 88.2107 50C88.2107 50.472 88.2867 50.88 88.4387 51.224C88.5987 51.568 88.8227 51.832 89.1107 52.016C89.3987 52.2 89.7467 52.292 90.1547 52.292C90.5627 52.292 90.9107 52.2 91.1987 52.016C91.4867 51.832 91.7067 51.568 91.8587 51.224C92.0187 50.88 92.0987 50.472 92.0987 50C92.0987 49.52 92.0187 49.112 91.8587 48.776C91.7067 48.432 91.4867 48.168 91.1987 47.984C90.9107 47.8 90.5627 47.708 90.1547 47.708ZM97.026 53.12C96.442 53.12 95.902 52.996 95.406 52.748C94.918 52.5 94.542 52.148 94.278 51.692L95.094 51.104C95.27 51.472 95.526 51.76 95.862 51.968C96.206 52.176 96.618 52.28 97.098 52.28C97.522 52.28 97.854 52.2 98.094 52.04C98.334 51.872 98.454 51.656 98.454 51.392C98.454 51.224 98.398 51.072 98.286 50.936C98.182 50.792 97.978 50.688 97.674 50.624L96.234 50.324C95.65 50.204 95.23 50.004 94.974 49.724C94.726 49.444 94.602 49.096 94.602 48.68C94.602 48.352 94.694 48.052 94.878 47.78C95.07 47.508 95.338 47.292 95.682 47.132C96.034 46.964 96.446 46.88 96.918 46.88C97.51 46.88 98.01 46.996 98.418 47.228C98.826 47.46 99.13 47.788 99.33 48.212L98.526 48.74C98.39 48.388 98.17 48.132 97.866 47.972C97.562 47.804 97.246 47.72 96.918 47.72C96.63 47.72 96.382 47.76 96.174 47.84C95.974 47.92 95.818 48.032 95.706 48.176C95.602 48.312 95.55 48.468 95.55 48.644C95.55 48.82 95.61 48.984 95.73 49.136C95.85 49.28 96.074 49.384 96.402 49.448L97.902 49.76C98.462 49.872 98.854 50.056 99.078 50.312C99.302 50.568 99.414 50.88 99.414 51.248C99.414 51.624 99.314 51.956 99.114 52.244C98.914 52.524 98.634 52.74 98.274 52.892C97.914 53.044 97.498 53.12 97.026 53.12ZM102.61 45.296V51.344C102.61 51.64 102.694 51.86 102.862 52.004C103.03 52.148 103.246 52.22 103.51 52.22C103.742 52.22 103.942 52.18 104.11 52.1C104.278 52.02 104.43 51.912 104.566 51.776L104.902 52.58C104.718 52.748 104.498 52.88 104.242 52.976C103.994 53.072 103.706 53.12 103.378 53.12C103.074 53.12 102.79 53.068 102.526 52.964C102.262 52.852 102.05 52.68 101.89 52.448C101.738 52.208 101.658 51.896 101.65 51.512V45.56L102.61 45.296ZM104.794 47V47.828H100.45V47H104.794ZM110.311 55.52V47H111.151L111.235 48.464L111.103 48.296C111.207 48.016 111.363 47.772 111.571 47.564C111.779 47.348 112.031 47.18 112.327 47.06C112.623 46.94 112.943 46.88 113.287 46.88C113.775 46.88 114.223 47.004 114.631 47.252C115.047 47.5 115.379 47.856 115.627 48.32C115.875 48.784 115.999 49.344 115.999 50C115.999 50.648 115.871 51.208 115.615 51.68C115.367 52.144 115.035 52.5 114.619 52.748C114.203 52.996 113.747 53.12 113.251 53.12C112.755 53.12 112.319 53 111.943 52.76C111.575 52.512 111.311 52.2 111.151 51.824L111.271 51.644V55.52H110.311ZM113.155 52.28C113.747 52.28 114.207 52.072 114.535 51.656C114.871 51.24 115.039 50.688 115.039 50C115.039 49.312 114.875 48.76 114.547 48.344C114.227 47.928 113.775 47.72 113.191 47.72C112.807 47.72 112.471 47.816 112.183 48.008C111.895 48.192 111.671 48.456 111.511 48.8C111.351 49.136 111.271 49.536 111.271 50C111.271 50.456 111.347 50.856 111.499 51.2C111.659 51.544 111.879 51.812 112.159 52.004C112.447 52.188 112.779 52.28 113.155 52.28ZM117.835 53V47H118.615L118.747 47.984C118.915 47.616 119.159 47.34 119.479 47.156C119.807 46.972 120.203 46.88 120.667 46.88C120.771 46.88 120.883 46.888 121.003 46.904C121.131 46.92 121.239 46.952 121.327 47L121.159 47.876C121.071 47.844 120.975 47.82 120.871 47.804C120.767 47.788 120.619 47.78 120.427 47.78C120.179 47.78 119.927 47.852 119.671 47.996C119.423 48.14 119.215 48.36 119.047 48.656C118.879 48.944 118.795 49.312 118.795 49.76V53H117.835ZM125.03 46.88C125.598 46.88 126.098 47.004 126.53 47.252C126.97 47.5 127.314 47.86 127.562 48.332C127.81 48.796 127.934 49.352 127.934 50C127.934 50.648 127.81 51.208 127.562 51.68C127.314 52.144 126.97 52.5 126.53 52.748C126.098 52.996 125.598 53.12 125.03 53.12C124.47 53.12 123.97 52.996 123.53 52.748C123.09 52.5 122.746 52.144 122.498 51.68C122.25 51.208 122.126 50.648 122.126 50C122.126 49.352 122.25 48.796 122.498 48.332C122.746 47.86 123.09 47.5 123.53 47.252C123.97 47.004 124.47 46.88 125.03 46.88ZM125.03 47.708C124.622 47.708 124.274 47.8 123.986 47.984C123.698 48.168 123.474 48.432 123.314 48.776C123.162 49.112 123.086 49.52 123.086 50C123.086 50.472 123.162 50.88 123.314 51.224C123.474 51.568 123.698 51.832 123.986 52.016C124.274 52.2 124.622 52.292 125.03 52.292C125.438 52.292 125.786 52.2 126.074 52.016C126.362 51.832 126.582 51.568 126.734 51.224C126.894 50.88 126.974 50.472 126.974 50C126.974 49.52 126.894 49.112 126.734 48.776C126.582 48.432 126.362 48.168 126.074 47.984C125.786 47.8 125.438 47.708 125.03 47.708ZM132.072 44.18C132.28 44.18 132.476 44.204 132.66 44.252C132.844 44.3 132.988 44.368 133.092 44.456L132.84 45.236C132.744 45.172 132.64 45.128 132.528 45.104C132.416 45.072 132.292 45.056 132.156 45.056C131.812 45.056 131.544 45.14 131.352 45.308C131.16 45.468 131.064 45.728 131.064 46.088V47V47.312V53H130.104V45.992C130.104 45.728 130.144 45.484 130.224 45.26C130.304 45.036 130.424 44.844 130.584 44.684C130.752 44.524 130.96 44.4 131.208 44.312C131.456 44.224 131.744 44.18 132.072 44.18ZM133.068 47V47.828H128.904V47H133.068ZM134.832 45.848C134.616 45.848 134.44 45.784 134.304 45.656C134.176 45.52 134.112 45.344 134.112 45.128C134.112 44.912 134.176 44.74 134.304 44.612C134.44 44.476 134.616 44.408 134.832 44.408C135.048 44.408 135.22 44.476 135.348 44.612C135.484 44.74 135.552 44.912 135.552 45.128C135.552 45.344 135.484 45.52 135.348 45.656C135.22 45.784 135.048 45.848 134.832 45.848ZM135.312 47V53H134.352V47H135.312ZM138.458 44.24V51.476C138.458 51.78 138.514 51.992 138.626 52.112C138.738 52.224 138.918 52.28 139.166 52.28C139.326 52.28 139.458 52.268 139.562 52.244C139.666 52.22 139.806 52.176 139.982 52.112L139.826 52.952C139.698 53.008 139.558 53.048 139.406 53.072C139.254 53.104 139.098 53.12 138.938 53.12C138.45 53.12 138.086 52.988 137.846 52.724C137.614 52.46 137.498 52.056 137.498 51.512V44.24H138.458ZM143.722 53.12C143.154 53.12 142.646 52.996 142.198 52.748C141.758 52.5 141.414 52.144 141.166 51.68C140.918 51.208 140.794 50.648 140.794 50C140.794 49.352 140.918 48.796 141.166 48.332C141.414 47.86 141.754 47.5 142.186 47.252C142.618 47.004 143.11 46.88 143.662 46.88C144.222 46.88 144.698 47 145.09 47.24C145.49 47.48 145.794 47.808 146.002 48.224C146.21 48.632 146.314 49.092 146.314 49.604C146.314 49.74 146.31 49.864 146.302 49.976C146.294 50.088 146.282 50.188 146.266 50.276H141.418V49.424H145.846L145.354 49.52C145.354 48.944 145.194 48.5 144.874 48.188C144.562 47.876 144.15 47.72 143.638 47.72C143.246 47.72 142.906 47.812 142.618 47.996C142.338 48.172 142.118 48.432 141.958 48.776C141.806 49.112 141.73 49.52 141.73 50C141.73 50.472 141.81 50.88 141.97 51.224C142.13 51.568 142.354 51.832 142.642 52.016C142.938 52.192 143.29 52.28 143.698 52.28C144.138 52.28 144.494 52.196 144.766 52.028C145.046 51.86 145.27 51.632 145.438 51.344L146.194 51.788C146.042 52.06 145.846 52.296 145.606 52.496C145.374 52.696 145.098 52.852 144.778 52.964C144.466 53.068 144.114 53.12 143.722 53.12Z" fill="#999999"/>
</svg>
