<svg width="65" height="65" viewBox="0 0 65 65" fill="none" xmlns="http://www.w3.org/2000/svg">
<rect x="0.5" y="0.5" width="64" height="64" rx="14.5" fill="#F5F5F7" stroke="#ECECEC"/>
<path fill-rule="evenodd" clip-rule="evenodd" d="M40 28.3333V20.8667C40 20.3716 39.8156 19.8968 39.4874 19.5467C39.1592 19.1967 38.7141 19 38.25 19H27.75C27.2859 19 26.8408 19.1967 26.5126 19.5467C26.1844 19.8968 26 20.3716 26 20.8667V28.3333C26 28.8284 26.1844 29.3032 26.5126 29.6533C26.8408 30.0033 27.2859 30.2 27.75 30.2H30.375L33 33L35.625 30.2H38.25C38.7141 30.2 39.1592 30.0033 39.4874 29.6533C39.8156 29.3032 40 28.8284 40 28.3333ZM28.625 22.7333C28.625 22.4858 28.7172 22.2484 28.8813 22.0734C29.0454 21.8983 29.2679 21.8 29.5 21.8H36.5C36.7321 21.8 36.9546 21.8983 37.1187 22.0734C37.2828 22.2484 37.375 22.4858 37.375 22.7333C37.375 22.9809 37.2828 23.2183 37.1187 23.3933C36.9546 23.5683 36.7321 23.6667 36.5 23.6667H29.5C29.2679 23.6667 29.0454 23.5683 28.8813 23.3933C28.7172 23.2183 28.625 22.9809 28.625 22.7333ZM29.5 25.5333C29.2679 25.5333 29.0454 25.6317 28.8813 25.8067C28.7172 25.9817 28.625 26.2191 28.625 26.4667C28.625 26.7142 28.7172 26.9516 28.8813 27.1266C29.0454 27.3017 29.2679 27.4 29.5 27.4H32.125C32.3571 27.4 32.5796 27.3017 32.7437 27.1266C32.9078 26.9516 33 26.7142 33 26.4667C33 26.2191 32.9078 25.9817 32.7437 25.8067C32.5796 25.6317 32.3571 25.5333 32.125 25.5333H29.5Z" fill="#666666"/>
<path d="M23.0887 40.72V44.072C23.0887 44.728 22.91 45.2267 22.5527 45.568C22.2007 45.9093 21.702 46.08 21.0567 46.08C20.4114 46.08 19.91 45.9093 19.5527 45.568C19.1954 45.2267 19.0167 44.728 19.0167 44.072V40.72H19.4167V43.992C19.4167 44.5573 19.5554 44.9867 19.8327 45.28C20.1154 45.568 20.5234 45.712 21.0567 45.712C21.59 45.712 21.9954 45.568 22.2727 45.28C22.55 44.9867 22.6887 44.5573 22.6887 43.992V40.72H23.0887ZM24.4854 47.68V42H24.8454L24.8774 43.112L24.8214 43.048C24.8908 42.8187 24.9974 42.6187 25.1414 42.448C25.2908 42.2773 25.4721 42.1467 25.6854 42.056C25.8988 41.9653 26.1308 41.92 26.3814 41.92C26.7228 41.92 27.0294 42.0027 27.3014 42.168C27.5734 42.3333 27.7894 42.5707 27.9494 42.88C28.1094 43.1893 28.1894 43.5627 28.1894 44C28.1894 44.432 28.1094 44.8053 27.9494 45.12C27.7894 45.4293 27.5708 45.6667 27.2934 45.832C27.0214 45.9973 26.7121 46.08 26.3654 46.08C25.9974 46.08 25.6774 45.984 25.4054 45.792C25.1334 45.5947 24.9441 45.3307 24.8374 45L24.8854 44.928V47.68H24.4854ZM26.3174 45.728C26.7708 45.728 27.1281 45.5733 27.3894 45.264C27.6561 44.9547 27.7894 44.5333 27.7894 44C27.7894 43.4667 27.6588 43.0453 27.3974 42.736C27.1361 42.4267 26.7814 42.272 26.3334 42.272C26.0508 42.272 25.8001 42.344 25.5814 42.488C25.3681 42.6267 25.1974 42.8267 25.0694 43.088C24.9468 43.344 24.8854 43.648 24.8854 44C24.8854 44.3467 24.9468 44.6507 25.0694 44.912C25.1921 45.1733 25.3601 45.376 25.5734 45.52C25.7921 45.6587 26.0401 45.728 26.3174 45.728ZM30.9048 46.08C30.5581 46.08 30.2461 45.9973 29.9688 45.832C29.6915 45.6667 29.4728 45.4293 29.3128 45.12C29.1581 44.8053 29.0808 44.432 29.0808 44C29.0808 43.5573 29.1635 43.1813 29.3288 42.872C29.4941 42.5627 29.7181 42.328 30.0008 42.168C30.2835 42.0027 30.5955 41.92 30.9368 41.92C31.3101 41.92 31.6275 42.0187 31.8888 42.216C32.1555 42.4133 32.3341 42.688 32.4248 43.04L32.3768 43.072V40.16H32.7768V46H32.4168L32.3928 44.888L32.4408 44.872C32.3928 45.128 32.2941 45.3467 32.1448 45.528C32.0008 45.7093 31.8195 45.848 31.6008 45.944C31.3875 46.0347 31.1555 46.08 30.9048 46.08ZM30.9528 45.728C31.2355 45.728 31.4835 45.6587 31.6968 45.52C31.9101 45.376 32.0755 45.1707 32.1928 44.904C32.3155 44.6373 32.3768 44.3253 32.3768 43.968C32.3768 43.616 32.3155 43.3147 32.1928 43.064C32.0755 42.808 31.9101 42.6133 31.6968 42.48C31.4888 42.3413 31.2461 42.272 30.9688 42.272C30.5101 42.272 30.1475 42.4267 29.8808 42.736C29.6141 43.0453 29.4808 43.4667 29.4808 44C29.4808 44.5333 29.6115 44.9547 29.8728 45.264C30.1395 45.5733 30.4995 45.728 30.9528 45.728ZM36.6522 43.368C36.6522 43.0213 36.5589 42.752 36.3722 42.56C36.1855 42.368 35.9189 42.272 35.5722 42.272C35.2682 42.272 35.0069 42.3387 34.7882 42.472C34.5695 42.6 34.4069 42.816 34.3002 43.12L33.9722 42.912C34.0895 42.5973 34.2842 42.3547 34.5562 42.184C34.8335 42.008 35.1749 41.92 35.5802 41.92C35.8735 41.92 36.1295 41.9733 36.3482 42.08C36.5722 42.1813 36.7455 42.3333 36.8682 42.536C36.9909 42.7387 37.0522 42.992 37.0522 43.296V45.296C37.0522 45.5787 37.1802 45.72 37.4362 45.72C37.5482 45.72 37.6442 45.7013 37.7242 45.664L37.7002 45.984C37.6095 46.032 37.4922 46.056 37.3482 46.056C37.2255 46.056 37.1109 46.032 37.0042 45.984C36.8975 45.936 36.8095 45.856 36.7402 45.744C36.6762 45.632 36.6442 45.48 36.6442 45.288V45.072L36.7562 45.064C36.7082 45.2933 36.6015 45.4853 36.4362 45.64C36.2762 45.7893 36.0895 45.9013 35.8762 45.976C35.6629 46.0453 35.4495 46.08 35.2362 46.08C34.9855 46.08 34.7615 46.04 34.5642 45.96C34.3669 45.88 34.2122 45.7653 34.1002 45.616C33.9882 45.4613 33.9322 45.272 33.9322 45.048C33.9322 44.7493 34.0309 44.5093 34.2282 44.328C34.4309 44.1413 34.7135 44.0133 35.0762 43.944L36.7322 43.616V43.952L35.2762 44.24C34.9615 44.304 34.7269 44.3973 34.5722 44.52C34.4175 44.6427 34.3402 44.8107 34.3402 45.024C34.3402 45.2427 34.4229 45.416 34.5882 45.544C34.7535 45.6667 34.9882 45.728 35.2922 45.728C35.4469 45.728 35.6042 45.7067 35.7642 45.664C35.9242 45.6213 36.0709 45.5547 36.2042 45.464C36.3429 45.368 36.4522 45.2507 36.5322 45.112C36.6122 44.968 36.6522 44.7947 36.6522 44.592V43.368ZM39.0948 40.888V44.944C39.0948 45.1947 39.1534 45.3867 39.2708 45.52C39.3934 45.648 39.5694 45.712 39.7988 45.712C39.9481 45.712 40.0788 45.688 40.1908 45.64C40.3081 45.5867 40.4121 45.512 40.5028 45.416L40.6548 45.744C40.5534 45.8453 40.4254 45.928 40.2708 45.992C40.1161 46.0507 39.9428 46.08 39.7508 46.08C39.5428 46.08 39.3588 46.0427 39.1988 45.968C39.0388 45.888 38.9134 45.768 38.8228 45.608C38.7374 45.448 38.6948 45.2453 38.6948 45V41L39.0948 40.888ZM40.5908 42V42.344H37.8948V42H40.5908ZM43.0784 46.08C42.7104 46.08 42.3824 45.9973 42.0944 45.832C41.8064 45.6667 41.5797 45.4293 41.4144 45.12C41.2544 44.8053 41.1744 44.432 41.1744 44C41.1744 43.568 41.2544 43.1973 41.4144 42.888C41.5797 42.5733 41.801 42.3333 42.0784 42.168C42.3557 42.0027 42.673 41.92 43.0304 41.92C43.393 41.92 43.7024 42 43.9584 42.16C44.2144 42.32 44.4117 42.544 44.5504 42.832C44.689 43.1147 44.7584 43.4427 44.7584 43.816C44.7584 43.864 44.7557 43.912 44.7504 43.96C44.7504 44.0027 44.7477 44.0427 44.7424 44.08H41.4224V43.72H44.5664L44.3664 43.776C44.361 43.3173 44.2384 42.952 43.9984 42.68C43.7637 42.408 43.4384 42.272 43.0224 42.272C42.7344 42.272 42.481 42.3413 42.2624 42.48C42.0437 42.6133 41.873 42.8107 41.7504 43.072C41.6277 43.328 41.5664 43.6373 41.5664 44C41.5664 44.3573 41.6277 44.6667 41.7504 44.928C41.8784 45.1893 42.0544 45.3893 42.2784 45.528C42.5077 45.6613 42.7717 45.728 43.0704 45.728C43.3797 45.728 43.6437 45.6613 43.8624 45.528C44.0864 45.3947 44.2597 45.2107 44.3824 44.976L44.7024 45.16C44.6064 45.352 44.4784 45.5173 44.3184 45.656C44.1584 45.7893 43.9744 45.8933 43.7664 45.968C43.5584 46.0427 43.329 46.08 43.0784 46.08ZM23.4757 49.64C23.9611 49.64 24.3691 49.736 24.6997 49.928C25.0357 50.12 25.2917 50.4133 25.4677 50.808L25.1317 51.064C24.9771 50.6907 24.7584 50.4213 24.4757 50.256C24.1984 50.0907 23.8544 50.008 23.4437 50.008C23.1291 50.008 22.8624 50.0587 22.6437 50.16C22.4251 50.256 22.2571 50.3867 22.1397 50.552C22.0277 50.712 21.9717 50.8933 21.9717 51.096C21.9717 51.3413 22.0517 51.544 22.2117 51.704C22.3717 51.864 22.6651 51.992 23.0917 52.088L24.1317 52.312C24.6491 52.424 25.0117 52.5867 25.2197 52.8C25.4331 53.008 25.5397 53.2773 25.5397 53.608C25.5397 53.896 25.4544 54.152 25.2837 54.376C25.1184 54.6 24.8891 54.7733 24.5957 54.896C24.3024 55.0187 23.9584 55.08 23.5637 55.08C23.1851 55.08 22.8464 55.0293 22.5477 54.928C22.2544 54.8213 22.0064 54.6747 21.8037 54.488C21.6011 54.296 21.4517 54.0667 21.3557 53.8L21.7077 53.528C21.7824 53.7787 21.9051 53.9947 22.0757 54.176C22.2517 54.352 22.4677 54.4853 22.7237 54.576C22.9797 54.6667 23.2651 54.712 23.5797 54.712C23.8784 54.712 24.1451 54.672 24.3797 54.592C24.6144 54.5067 24.7957 54.384 24.9237 54.224C25.0571 54.064 25.1237 53.8667 25.1237 53.632C25.1237 53.408 25.0437 53.2187 24.8837 53.064C24.7291 52.9093 24.4517 52.792 24.0517 52.712L22.9637 52.472C22.6277 52.3973 22.3557 52.2987 22.1477 52.176C21.9397 52.0533 21.7877 51.9067 21.6917 51.736C21.6011 51.56 21.5557 51.3627 21.5557 51.144C21.5557 50.872 21.6331 50.624 21.7877 50.4C21.9424 50.1707 22.1637 49.9867 22.4517 49.848C22.7397 49.7093 23.0811 49.64 23.4757 49.64ZM27.3408 49.888V53.944C27.3408 54.1947 27.3995 54.3867 27.5168 54.52C27.6395 54.648 27.8155 54.712 28.0448 54.712C28.1942 54.712 28.3248 54.688 28.4368 54.64C28.5542 54.5867 28.6582 54.512 28.7488 54.416L28.9008 54.744C28.7995 54.8453 28.6715 54.928 28.5168 54.992C28.3622 55.0507 28.1888 55.08 27.9968 55.08C27.7888 55.08 27.6048 55.0427 27.4448 54.968C27.2848 54.888 27.1595 54.768 27.0688 54.608C26.9835 54.448 26.9408 54.2453 26.9408 54V50L27.3408 49.888ZM28.8368 51V51.344H26.1408V51H28.8368ZM32.1405 52.368C32.1405 52.0213 32.0471 51.752 31.8605 51.56C31.6738 51.368 31.4071 51.272 31.0605 51.272C30.7565 51.272 30.4951 51.3387 30.2765 51.472C30.0578 51.6 29.8951 51.816 29.7885 52.12L29.4605 51.912C29.5778 51.5973 29.7725 51.3547 30.0445 51.184C30.3218 51.008 30.6631 50.92 31.0685 50.92C31.3618 50.92 31.6178 50.9733 31.8365 51.08C32.0605 51.1813 32.2338 51.3333 32.3565 51.536C32.4791 51.7387 32.5405 51.992 32.5405 52.296V54.296C32.5405 54.5787 32.6685 54.72 32.9245 54.72C33.0365 54.72 33.1325 54.7013 33.2125 54.664L33.1885 54.984C33.0978 55.032 32.9805 55.056 32.8365 55.056C32.7138 55.056 32.5991 55.032 32.4925 54.984C32.3858 54.936 32.2978 54.856 32.2285 54.744C32.1645 54.632 32.1325 54.48 32.1325 54.288V54.072L32.2445 54.064C32.1965 54.2933 32.0898 54.4853 31.9245 54.64C31.7645 54.7893 31.5778 54.9013 31.3645 54.976C31.1511 55.0453 30.9378 55.08 30.7245 55.08C30.4738 55.08 30.2498 55.04 30.0525 54.96C29.8551 54.88 29.7005 54.7653 29.5885 54.616C29.4765 54.4613 29.4205 54.272 29.4205 54.048C29.4205 53.7493 29.5191 53.5093 29.7165 53.328C29.9191 53.1413 30.2018 53.0133 30.5645 52.944L32.2205 52.616V52.952L30.7645 53.24C30.4498 53.304 30.2151 53.3973 30.0605 53.52C29.9058 53.6427 29.8285 53.8107 29.8285 54.024C29.8285 54.2427 29.9111 54.416 30.0765 54.544C30.2418 54.6667 30.4765 54.728 30.7805 54.728C30.9351 54.728 31.0925 54.7067 31.2525 54.664C31.4125 54.6213 31.5591 54.5547 31.6925 54.464C31.8311 54.368 31.9405 54.2507 32.0205 54.112C32.1005 53.968 32.1405 53.7947 32.1405 53.592V52.368ZM34.583 49.888V53.944C34.583 54.1947 34.6417 54.3867 34.759 54.52C34.8817 54.648 35.0577 54.712 35.287 54.712C35.4364 54.712 35.567 54.688 35.679 54.64C35.7964 54.5867 35.9004 54.512 35.991 54.416L36.143 54.744C36.0417 54.8453 35.9137 54.928 35.759 54.992C35.6044 55.0507 35.431 55.08 35.239 55.08C35.031 55.08 34.847 55.0427 34.687 54.968C34.527 54.888 34.4017 54.768 34.311 54.608C34.2257 54.448 34.183 54.2453 34.183 54V50L34.583 49.888ZM36.079 51V51.344H33.383V51H36.079ZM38.3427 55.08C38.0653 55.08 37.8173 55.0293 37.5987 54.928C37.38 54.8267 37.2067 54.6693 37.0787 54.456C36.956 54.2373 36.8947 53.9653 36.8947 53.64V51H37.2947V53.544C37.2947 53.96 37.3933 54.2613 37.5907 54.448C37.7933 54.6347 38.076 54.728 38.4387 54.728C38.652 54.728 38.844 54.6907 39.0147 54.616C39.1907 54.5413 39.34 54.4373 39.4627 54.304C39.5853 54.1707 39.6787 54.0187 39.7427 53.848C39.812 53.6773 39.8467 53.4933 39.8467 53.296V51H40.2467V55H39.8867L39.8707 54.176C39.7533 54.4587 39.5613 54.68 39.2947 54.84C39.028 55 38.7107 55.08 38.3427 55.08ZM43.021 55.08C42.6157 55.08 42.2557 54.9973 41.941 54.832C41.6317 54.6667 41.413 54.4293 41.285 54.12L41.629 53.888C41.725 54.1547 41.8957 54.3627 42.141 54.512C42.3917 54.656 42.6957 54.728 43.053 54.728C43.405 54.728 43.6797 54.6587 43.877 54.52C44.0797 54.3813 44.181 54.1973 44.181 53.968C44.181 53.8133 44.1304 53.68 44.029 53.568C43.933 53.4507 43.749 53.3627 43.477 53.304L42.541 53.104C42.157 53.024 41.8824 52.896 41.717 52.72C41.557 52.5387 41.477 52.32 41.477 52.064C41.477 51.8507 41.541 51.6587 41.669 51.488C41.797 51.3173 41.973 51.1813 42.197 51.08C42.4264 50.9733 42.693 50.92 42.997 50.92C43.397 50.92 43.7277 51 43.989 51.16C44.2504 51.3147 44.4344 51.5493 44.541 51.864L44.205 52.08C44.125 51.7973 43.9757 51.592 43.757 51.464C43.5437 51.336 43.2904 51.272 42.997 51.272C42.773 51.272 42.5757 51.3067 42.405 51.376C42.2397 51.44 42.109 51.5307 42.013 51.648C41.9224 51.76 41.877 51.8907 41.877 52.04C41.877 52.1947 41.9304 52.336 42.037 52.464C42.1437 52.5867 42.333 52.6773 42.605 52.736L43.565 52.944C43.9437 53.024 44.2077 53.1467 44.357 53.312C44.5064 53.472 44.581 53.672 44.581 53.912C44.581 54.152 44.517 54.36 44.389 54.536C44.261 54.712 44.0797 54.848 43.845 54.944C43.6104 55.0347 43.3357 55.08 43.021 55.08Z" fill="#666666"/>
</svg>
