<svg width="140" height="78" viewBox="0 0 140 78" fill="none" xmlns="http://www.w3.org/2000/svg">
<rect width="139.5" height="78" rx="15" fill="#F5F5F7"/>
<circle cx="120.5" cy="20" r="15" fill="#FEFEFA"/>
<path fill-rule="evenodd" clip-rule="evenodd" d="M126.27 15.1742C126.481 15.384 126.603 15.6652 126.61 15.956L126.728 20.6078C126.734 20.7534 126.712 20.8975 126.661 21.0316C126.611 21.1657 126.533 21.2872 126.434 21.3889C126.334 21.4907 126.215 21.5707 126.082 21.6243C125.949 21.6778 125.806 21.7039 125.66 21.7009C125.514 21.6979 125.37 21.666 125.234 21.607C125.098 21.5479 124.974 21.463 124.87 21.3571C124.765 21.2511 124.682 21.1264 124.624 20.9901C124.567 20.8537 124.537 20.7086 124.535 20.5631L124.445 17.0075L120.89 16.935C120.744 16.9346 120.599 16.9052 120.462 16.8485C120.326 16.7917 120.2 16.7089 120.094 16.6047C119.987 16.5005 119.902 16.3772 119.842 16.2417C119.783 16.1063 119.75 15.9616 119.746 15.816C119.743 15.6704 119.768 15.5269 119.821 15.3938C119.874 15.2607 119.953 15.1406 120.054 15.0407C120.156 14.9408 120.277 14.8629 120.411 14.8117C120.544 14.7605 120.688 14.737 120.834 14.7425L125.486 14.8374C125.777 14.8433 126.059 14.9644 126.27 15.1742ZM116.299 19.2994C116.59 19.3054 116.872 19.4266 117.083 19.6364C117.294 19.8461 117.416 20.1273 117.424 20.418L117.514 23.9735L121.07 24.0461C121.215 24.0465 121.36 24.0759 121.497 24.1326C121.634 24.1894 121.759 24.2722 121.865 24.3764C121.972 24.4806 122.057 24.6039 122.117 24.7394C122.177 24.8748 122.209 25.0195 122.213 25.1651C122.217 25.3107 122.191 25.4542 122.138 25.5873C122.085 25.7204 122.006 25.8405 121.905 25.9404C121.803 26.0403 121.682 26.1182 121.548 26.1694C121.415 26.2206 121.271 26.2441 121.125 26.2386L116.473 26.1437C116.182 26.1378 115.9 26.0166 115.689 25.8068C115.479 25.597 115.356 25.3158 115.349 25.0251L115.231 20.3733C115.224 20.0826 115.332 19.8061 115.532 19.6047C115.733 19.4034 116.009 19.2935 116.299 19.2994Z" fill="#666666" fill-opacity="0.5"/>
<path d="M19.108 68H18.088L17.248 65.804H13.66L12.82 68H11.812L14.896 60.08H16.036L19.108 68ZM14.008 64.904H16.9L15.448 61.004L14.008 64.904ZM23.4779 68.12C23.1419 68.12 22.8299 68.06 22.5419 67.94C22.2539 67.82 22.0059 67.652 21.7979 67.436C21.5899 67.22 21.4339 66.976 21.3299 66.704L21.4619 66.536L21.3779 68H20.5379V59.24H21.4979V63.356L21.3779 63.176C21.5379 62.8 21.8059 62.492 22.1819 62.252C22.5659 62.004 23.0019 61.88 23.4899 61.88C23.9859 61.88 24.4419 62.004 24.8579 62.252C25.2739 62.5 25.6059 62.856 25.8539 63.32C26.1019 63.784 26.2259 64.344 26.2259 65C26.2259 65.648 26.0979 66.208 25.8419 66.68C25.5939 67.144 25.2619 67.5 24.8459 67.748C24.4299 67.996 23.9739 68.12 23.4779 68.12ZM23.3819 67.28C23.9739 67.28 24.4339 67.072 24.7619 66.656C25.0979 66.24 25.2659 65.688 25.2659 65C25.2659 64.312 25.1019 63.76 24.7739 63.344C24.4459 62.928 23.9859 62.72 23.3939 62.72C23.0179 62.72 22.6859 62.816 22.3979 63.008C22.1179 63.2 21.8979 63.468 21.7379 63.812C21.5779 64.156 21.4979 64.56 21.4979 65.024C21.4979 65.48 21.5739 65.88 21.7259 66.224C21.8859 66.56 22.1059 66.82 22.3859 67.004C22.6739 67.188 23.0059 67.28 23.3819 67.28ZM30.5453 61.88C31.1133 61.88 31.6133 62.004 32.0453 62.252C32.4853 62.5 32.8293 62.86 33.0773 63.332C33.3253 63.796 33.4493 64.352 33.4493 65C33.4493 65.648 33.3253 66.208 33.0773 66.68C32.8293 67.144 32.4853 67.5 32.0453 67.748C31.6133 67.996 31.1133 68.12 30.5453 68.12C29.9853 68.12 29.4853 67.996 29.0453 67.748C28.6053 67.5 28.2613 67.144 28.0133 66.68C27.7653 66.208 27.6413 65.648 27.6413 65C27.6413 64.352 27.7653 63.796 28.0133 63.332C28.2613 62.86 28.6053 62.5 29.0453 62.252C29.4853 62.004 29.9853 61.88 30.5453 61.88ZM30.5453 62.708C30.1373 62.708 29.7893 62.8 29.5013 62.984C29.2133 63.168 28.9893 63.432 28.8293 63.776C28.6773 64.112 28.6013 64.52 28.6013 65C28.6013 65.472 28.6773 65.88 28.8293 66.224C28.9893 66.568 29.2133 66.832 29.5013 67.016C29.7893 67.2 30.1373 67.292 30.5453 67.292C30.9533 67.292 31.3013 67.2 31.5893 67.016C31.8773 66.832 32.0973 66.568 32.2493 66.224C32.4093 65.88 32.4893 65.472 32.4893 65C32.4893 64.52 32.4093 64.112 32.2493 63.776C32.0973 63.432 31.8773 63.168 31.5893 62.984C31.3013 62.8 30.9533 62.708 30.5453 62.708ZM37.4286 68.12C37.0446 68.12 36.6806 68.048 36.3366 67.904C36.0006 67.76 35.7246 67.528 35.5086 67.208C35.3006 66.88 35.1966 66.456 35.1966 65.936V62H36.1566V65.684C36.1566 66.292 36.2886 66.712 36.5526 66.944C36.8166 67.168 37.1886 67.28 37.6686 67.28C37.8926 67.28 38.1126 67.244 38.3286 67.172C38.5446 67.092 38.7366 66.972 38.9046 66.812C39.0806 66.644 39.2166 66.432 39.3126 66.176C39.4166 65.92 39.4686 65.616 39.4686 65.264V62H40.4286V68H39.5886L39.5286 67.088C39.3206 67.448 39.0366 67.712 38.6766 67.88C38.3246 68.04 37.9086 68.12 37.4286 68.12ZM44.0789 60.296V66.344C44.0789 66.64 44.1629 66.86 44.3309 67.004C44.4989 67.148 44.7149 67.22 44.9789 67.22C45.2109 67.22 45.4109 67.18 45.5789 67.1C45.7469 67.02 45.8989 66.912 46.0349 66.776L46.3709 67.58C46.1869 67.748 45.9669 67.88 45.7109 67.976C45.4629 68.072 45.1749 68.12 44.8469 68.12C44.5429 68.12 44.2589 68.068 43.9949 67.964C43.7309 67.852 43.5189 67.68 43.3589 67.448C43.2069 67.208 43.1269 66.896 43.1189 66.512V60.56L44.0789 60.296ZM46.2629 62V62.828H41.9189V62H46.2629ZM51.7801 68V62H52.6201L52.6801 62.936C52.8961 62.568 53.1761 62.3 53.5201 62.132C53.8721 61.964 54.2321 61.88 54.6001 61.88C55.0241 61.88 55.4241 61.976 55.8001 62.168C56.1761 62.36 56.4641 62.656 56.6641 63.056C56.7921 62.784 56.9721 62.564 57.2041 62.396C57.4361 62.22 57.6881 62.092 57.9601 62.012C58.2401 61.924 58.5041 61.88 58.7521 61.88C59.1361 61.88 59.5001 61.96 59.8441 62.12C60.1961 62.28 60.4841 62.528 60.7081 62.864C60.9321 63.2 61.0441 63.632 61.0441 64.16V68H60.0841V64.256C60.0841 63.712 59.9481 63.32 59.6761 63.08C59.4041 62.84 59.0681 62.72 58.6681 62.72C58.3561 62.72 58.0641 62.796 57.7921 62.948C57.5201 63.1 57.3001 63.324 57.1321 63.62C56.9721 63.916 56.8921 64.28 56.8921 64.712V68H55.9321V64.256C55.9321 63.712 55.7961 63.32 55.5241 63.08C55.2521 62.84 54.9161 62.72 54.5161 62.72C54.2521 62.72 53.9801 62.792 53.7001 62.936C53.4281 63.072 53.2001 63.292 53.0161 63.596C52.8321 63.9 52.7401 64.3 52.7401 64.796V68H51.7801ZM65.7256 68.12C65.1576 68.12 64.6496 67.996 64.2016 67.748C63.7616 67.5 63.4176 67.144 63.1696 66.68C62.9216 66.208 62.7976 65.648 62.7976 65C62.7976 64.352 62.9216 63.796 63.1696 63.332C63.4176 62.86 63.7576 62.5 64.1896 62.252C64.6216 62.004 65.1136 61.88 65.6656 61.88C66.2256 61.88 66.7016 62 67.0936 62.24C67.4936 62.48 67.7976 62.808 68.0056 63.224C68.2136 63.632 68.3176 64.092 68.3176 64.604C68.3176 64.74 68.3136 64.864 68.3056 64.976C68.2976 65.088 68.2856 65.188 68.2696 65.276H63.4216V64.424H67.8496L67.3576 64.52C67.3576 63.944 67.1976 63.5 66.8776 63.188C66.5656 62.876 66.1536 62.72 65.6416 62.72C65.2496 62.72 64.9096 62.812 64.6216 62.996C64.3416 63.172 64.1216 63.432 63.9616 63.776C63.8096 64.112 63.7336 64.52 63.7336 65C63.7336 65.472 63.8136 65.88 63.9736 66.224C64.1336 66.568 64.3576 66.832 64.6456 67.016C64.9416 67.192 65.2936 67.28 65.7016 67.28C66.1416 67.28 66.4976 67.196 66.7696 67.028C67.0496 66.86 67.2736 66.632 67.4416 66.344L68.1976 66.788C68.0456 67.06 67.8496 67.296 67.6096 67.496C67.3776 67.696 67.1016 67.852 66.7816 67.964C66.4696 68.068 66.1176 68.12 65.7256 68.12Z" fill="#666666"/>
<path fill-rule="evenodd" clip-rule="evenodd" d="M14.3359 40.9991C14.8713 40.3856 15.5974 40.0409 16.3544 40.0409C17.1115 40.0409 17.8375 40.3856 18.3729 40.9991L19.2094 41.9572L20.0459 40.9991C20.3093 40.6865 20.6243 40.4372 20.9727 40.2657C21.321 40.0942 21.6956 40.0039 22.0747 40.0001C22.4538 39.9963 22.8298 40.0792 23.1806 40.2437C23.5315 40.4083 23.8503 40.6513 24.1183 40.9586C24.3864 41.2658 24.5984 41.6313 24.7419 42.0335C24.8855 42.4357 24.9577 42.8666 24.9544 43.3012C24.9511 43.7357 24.8724 44.1652 24.7228 44.5644C24.5731 44.9637 24.3556 45.3249 24.0829 45.6268L19.2094 51.2141L14.3359 45.6268C13.8007 45.013 13.5 44.1808 13.5 43.3129C13.5 42.4451 13.8007 41.6129 14.3359 40.9991Z" fill="#666666"/>
</svg>
