<svg width="169" height="28" viewBox="0 0 169 28" fill="none" xmlns="http://www.w3.org/2000/svg">
<path d="M7.17046 9.5701C6.38274 10.3578 5.31436 10.8004 4.20036 10.8004C3.08635 10.8004 2.01798 10.3578 1.23026 9.5701C0.442536 8.78238 8.29997e-09 7.714 0 6.6C-8.29997e-09 5.486 0.442536 4.41762 1.23026 3.6299C1.23026 5.2 1.40036 6.6 3.50036 7.3C3.50036 5.9 4.20036 1.7 5.25036 1C5.70481 1.99795 6.3579 2.8928 7.16976 3.6299C7.55984 4.01992 7.86927 4.48295 8.08038 4.99257C8.2915 5.50218 8.40016 6.04839 8.40016 6.6C8.40016 7.15161 8.2915 7.69782 8.08038 8.20743C7.86927 8.71705 7.55984 9.18008 7.16976 9.5701H7.17046Z" fill="#7D67EE"/>
<path d="M2.71491 9.4849C2.90863 9.68547 3.14035 9.84545 3.39656 9.95551C3.65277 10.0656 3.92833 10.1235 4.20717 10.1259C4.48601 10.1283 4.76253 10.0752 5.02062 9.96962C5.2787 9.86403 5.51317 9.7081 5.71034 9.51093C5.90752 9.31375 6.06345 9.07928 6.16904 8.8212C6.27463 8.56312 6.32776 8.28659 6.32534 8.00775C6.32291 7.72892 6.26498 7.45335 6.15492 7.19715C6.04487 6.94094 5.88488 6.70921 5.68431 6.5155C5.27843 6.14677 4.95189 5.69924 4.72461 5.2002C4.19961 5.5502 3.84961 7.6502 3.84961 8.3502C3.24674 8.37439 2.6468 8.2544 2.09961 8.0002C2.09921 8.27602 2.15337 8.5492 2.25897 8.804C2.36457 9.05881 2.51952 9.29021 2.71491 9.4849Z" fill="#7D67EE"/>
<path d="M7.17046 23.5701C6.38274 24.3578 5.31436 24.8004 4.20036 24.8004C3.08635 24.8004 2.01798 24.3578 1.23026 23.5701C0.442536 22.7824 8.29997e-09 21.714 0 20.6C-8.29997e-09 19.486 0.442536 18.4176 1.23026 17.6299C1.23026 19.2 1.40036 20.6 3.50036 21.3C3.50036 19.9 4.20036 15.7 5.25036 15C5.70481 15.9979 6.3579 16.8928 7.16976 17.6299C7.55984 18.0199 7.86927 18.483 8.08038 18.9926C8.2915 19.5022 8.40016 20.0484 8.40016 20.6C8.40016 21.1516 8.2915 21.6978 8.08038 22.2074C7.86927 22.717 7.55984 23.1801 7.16976 23.5701H7.17046Z" fill="#7D67EE"/>
<path d="M2.71491 23.4849C2.90863 23.6855 3.14035 23.8455 3.39656 23.9555C3.65277 24.0656 3.92833 24.1235 4.20717 24.1259C4.48601 24.1283 4.76253 24.0752 5.02062 23.9696C5.2787 23.864 5.51317 23.7081 5.71034 23.5109C5.90752 23.3138 6.06345 23.0793 6.16904 22.8212C6.27463 22.5631 6.32776 22.2866 6.32534 22.0078C6.32291 21.7289 6.26498 21.4534 6.15492 21.1971C6.04487 20.9409 5.88488 20.7092 5.68431 20.5155C5.27843 20.1468 4.95189 19.6992 4.72461 19.2002C4.19961 19.5502 3.84961 21.6502 3.84961 22.3502C3.24674 22.3744 2.6468 22.2544 2.09961 22.0002C2.09921 22.276 2.15337 22.5492 2.25897 22.804C2.36457 23.0588 2.51952 23.2902 2.71491 23.4849Z" fill="#7D67EE"/>
<path d="M14.692 5L16.48 7.508L16.54 7.592L19 11H17.824L15.964 8.396L15.856 8.264L13.492 5H14.692ZM18.964 5L16.588 8.204H16.528L14.464 11H13.348L15.964 7.556H16.036L17.836 5H18.964ZM25.5155 11V5.192C25.5155 5.056 25.5155 4.912 25.5155 4.76C25.5235 4.6 25.5315 4.436 25.5395 4.268C25.2675 4.532 24.9515 4.764 24.5915 4.964C24.2315 5.156 23.8635 5.296 23.4875 5.384L23.2355 4.508C23.3795 4.492 23.5595 4.44 23.7755 4.352C23.9995 4.256 24.2315 4.14 24.4715 4.004C24.7195 3.86 24.9475 3.708 25.1555 3.548C25.3635 3.388 25.5235 3.232 25.6355 3.08H26.4755V11H25.5155ZM14.692 19L16.48 21.508L16.54 21.592L19 25H17.824L15.964 22.396L15.856 22.264L13.492 19H14.692ZM18.964 19L16.588 22.204H16.528L14.464 25H13.348L15.964 21.556H16.036L17.836 19H18.964ZM24.1419 25V24.22C24.9339 23.636 25.5939 23.124 26.1219 22.684C26.6579 22.244 27.0859 21.844 27.4059 21.484C27.7259 21.124 27.9539 20.784 28.0899 20.464C28.2259 20.136 28.2939 19.796 28.2939 19.444C28.2939 18.972 28.1419 18.592 27.8379 18.304C27.5419 18.008 27.1339 17.86 26.6139 17.86C26.0699 17.86 25.6339 18.04 25.3059 18.4C24.9779 18.752 24.7859 19.224 24.7299 19.816L23.8899 19.312C23.9619 18.848 24.1099 18.44 24.3339 18.088C24.5659 17.736 24.8739 17.46 25.2579 17.26C25.6499 17.06 26.1139 16.96 26.6499 16.96C27.0579 16.96 27.4219 17.02 27.7419 17.14C28.0699 17.26 28.3499 17.432 28.5819 17.656C28.8139 17.872 28.9899 18.132 29.1099 18.436C29.2379 18.74 29.3019 19.076 29.3019 19.444C29.3019 19.94 29.1819 20.428 28.9419 20.908C28.7019 21.38 28.3059 21.876 27.7539 22.396C27.2019 22.916 26.4539 23.492 25.5099 24.124V24.136C25.5979 24.128 25.7179 24.124 25.8699 24.124C26.0299 24.116 26.1859 24.112 26.3379 24.112C26.4979 24.104 26.6179 24.1 26.6979 24.1H29.4699V25H24.1419Z" fill="#7D67EE"/>
<path d="M35.6252 2.96C36.3212 2.96 36.9212 3.104 37.4252 3.392C37.9292 3.672 38.3492 4.088 38.6852 4.64L37.8812 5.264C37.5852 4.752 37.2492 4.392 36.8732 4.184C36.5052 3.968 36.0572 3.86 35.5292 3.86C35.1052 3.86 34.7532 3.92 34.4732 4.04C34.2012 4.16 34.0012 4.32 33.8732 4.52C33.7452 4.712 33.6812 4.932 33.6812 5.18C33.6812 5.46 33.7692 5.708 33.9452 5.924C34.1212 6.132 34.4732 6.296 35.0012 6.416L36.7172 6.8C37.4772 6.968 38.0052 7.224 38.3012 7.568C38.6052 7.904 38.7572 8.324 38.7572 8.828C38.7572 9.276 38.6292 9.676 38.3732 10.028C38.1252 10.372 37.7732 10.64 37.3172 10.832C36.8612 11.024 36.3252 11.12 35.7092 11.12C35.1332 11.12 34.6252 11.044 34.1852 10.892C33.7532 10.732 33.3812 10.52 33.0692 10.256C32.7572 9.992 32.5012 9.696 32.3012 9.368L33.1412 8.684C33.2932 8.988 33.4892 9.256 33.7292 9.488C33.9692 9.72 34.2572 9.9 34.5932 10.028C34.9372 10.156 35.3292 10.22 35.7692 10.22C36.1772 10.22 36.5292 10.172 36.8252 10.076C37.1292 9.972 37.3612 9.824 37.5212 9.632C37.6812 9.432 37.7612 9.192 37.7612 8.912C37.7612 8.656 37.6772 8.428 37.5092 8.228C37.3412 8.02 37.0252 7.864 36.5612 7.76L34.7012 7.34C34.2132 7.228 33.8172 7.076 33.5132 6.884C33.2172 6.684 33.0012 6.452 32.8652 6.188C32.7372 5.916 32.6732 5.624 32.6732 5.312C32.6732 4.888 32.7892 4.5 33.0212 4.148C33.2612 3.788 33.6012 3.5 34.0412 3.284C34.4892 3.068 35.0172 2.96 35.6252 2.96ZM43.0967 11.12C42.5287 11.12 42.0207 10.996 41.5727 10.748C41.1327 10.5 40.7887 10.144 40.5407 9.68C40.2927 9.208 40.1687 8.648 40.1687 8C40.1687 7.352 40.2927 6.796 40.5407 6.332C40.7887 5.86 41.1287 5.5 41.5607 5.252C41.9927 5.004 42.4847 4.88 43.0367 4.88C43.5967 4.88 44.0727 5 44.4647 5.24C44.8647 5.48 45.1687 5.808 45.3767 6.224C45.5847 6.632 45.6887 7.092 45.6887 7.604C45.6887 7.74 45.6847 7.864 45.6767 7.976C45.6687 8.088 45.6567 8.188 45.6407 8.276H40.7927V7.424H45.2207L44.7287 7.52C44.7287 6.944 44.5687 6.5 44.2487 6.188C43.9367 5.876 43.5247 5.72 43.0127 5.72C42.6207 5.72 42.2807 5.812 41.9927 5.996C41.7127 6.172 41.4927 6.432 41.3327 6.776C41.1807 7.112 41.1047 7.52 41.1047 8C41.1047 8.472 41.1847 8.88 41.3447 9.224C41.5047 9.568 41.7287 9.832 42.0167 10.016C42.3127 10.192 42.6647 10.28 43.0727 10.28C43.5127 10.28 43.8687 10.196 44.1407 10.028C44.4207 9.86 44.6447 9.632 44.8127 9.344L45.5687 9.788C45.4167 10.06 45.2207 10.296 44.9807 10.496C44.7487 10.696 44.4727 10.852 44.1527 10.964C43.8407 11.068 43.4887 11.12 43.0967 11.12ZM47.5144 11V5H48.3544L48.4384 6.344L48.2824 6.212C48.4104 5.892 48.5824 5.636 48.7984 5.444C49.0144 5.244 49.2624 5.1 49.5424 5.012C49.8304 4.924 50.1264 4.88 50.4304 4.88C50.8624 4.88 51.2544 4.964 51.6064 5.132C51.9584 5.292 52.2384 5.54 52.4464 5.876C52.6624 6.212 52.7704 6.64 52.7704 7.16V11H51.8104V7.496C51.8104 6.832 51.6664 6.372 51.3784 6.116C51.0984 5.852 50.7504 5.72 50.3344 5.72C50.0464 5.72 49.7584 5.788 49.4704 5.924C49.1824 6.06 48.9424 6.28 48.7504 6.584C48.5664 6.888 48.4744 7.296 48.4744 7.808V11H47.5144ZM57.2841 11.12C56.7881 11.12 56.3321 10.996 55.9161 10.748C55.5001 10.5 55.1681 10.144 54.9201 9.68C54.6721 9.208 54.5481 8.648 54.5481 8C54.5481 7.336 54.6801 6.772 54.9441 6.308C55.2081 5.844 55.5561 5.492 55.9881 5.252C56.4201 5.004 56.8841 4.88 57.3801 4.88C57.8761 4.88 58.3041 5.008 58.6641 5.264C59.0321 5.52 59.2761 5.86 59.3961 6.284L59.2761 6.368V2.24H60.2361V11H59.3961L59.3121 9.548L59.4441 9.476C59.3881 9.828 59.2521 10.128 59.0361 10.376C58.8281 10.616 58.5681 10.8 58.2561 10.928C57.9521 11.056 57.6281 11.12 57.2841 11.12ZM57.3801 10.28C57.7641 10.28 58.0961 10.184 58.3761 9.992C58.6641 9.8 58.8841 9.528 59.0361 9.176C59.1961 8.816 59.2761 8.396 59.2761 7.916C59.2761 7.46 59.1961 7.068 59.0361 6.74C58.8841 6.412 58.6681 6.16 58.3881 5.984C58.1161 5.808 57.7961 5.72 57.4281 5.72C56.8201 5.72 56.3481 5.928 56.0121 6.344C55.6761 6.76 55.5081 7.312 55.5081 8C55.5081 8.688 55.6721 9.24 56.0001 9.656C56.3281 10.072 56.7881 10.28 57.3801 10.28ZM70.3494 2.24L66.6774 11.84H65.7774L69.4494 2.24H70.3494ZM81.8971 11H80.8771L80.0371 8.804H76.4491L75.6091 11H74.6011L77.6851 3.08H78.8251L81.8971 11ZM76.7971 7.904H79.6891L78.2371 4.004L76.7971 7.904ZM85.7055 4.88C86.1215 4.88 86.4855 4.944 86.7975 5.072C87.1175 5.2 87.3935 5.384 87.6255 5.624C87.8575 5.864 88.0455 6.148 88.1895 6.476L87.2775 6.908C87.1495 6.524 86.9535 6.232 86.6895 6.032C86.4335 5.824 86.0975 5.72 85.6815 5.72C85.2815 5.72 84.9375 5.812 84.6495 5.996C84.3615 6.172 84.1415 6.432 83.9895 6.776C83.8375 7.112 83.7615 7.52 83.7615 8C83.7615 8.472 83.8375 8.88 83.9895 9.224C84.1415 9.568 84.3615 9.832 84.6495 10.016C84.9375 10.192 85.2815 10.28 85.6815 10.28C85.9935 10.28 86.2615 10.232 86.4855 10.136C86.7175 10.04 86.9055 9.9 87.0495 9.716C87.2015 9.532 87.3055 9.308 87.3615 9.044L88.2495 9.356C88.1135 9.724 87.9255 10.04 87.6855 10.304C87.4535 10.568 87.1695 10.772 86.8335 10.916C86.5055 11.052 86.1295 11.12 85.7055 11.12C85.1455 11.12 84.6455 10.996 84.2055 10.748C83.7655 10.5 83.4215 10.144 83.1735 9.68C82.9255 9.208 82.8015 8.648 82.8015 8C82.8015 7.352 82.9255 6.796 83.1735 6.332C83.4215 5.86 83.7655 5.5 84.2055 5.252C84.6455 5.004 85.1455 4.88 85.7055 4.88ZM92.4203 4.88C92.8363 4.88 93.2003 4.944 93.5123 5.072C93.8323 5.2 94.1083 5.384 94.3403 5.624C94.5723 5.864 94.7603 6.148 94.9043 6.476L93.9923 6.908C93.8643 6.524 93.6683 6.232 93.4043 6.032C93.1483 5.824 92.8123 5.72 92.3963 5.72C91.9963 5.72 91.6523 5.812 91.3643 5.996C91.0763 6.172 90.8563 6.432 90.7043 6.776C90.5523 7.112 90.4763 7.52 90.4763 8C90.4763 8.472 90.5523 8.88 90.7043 9.224C90.8563 9.568 91.0763 9.832 91.3643 10.016C91.6523 10.192 91.9963 10.28 92.3963 10.28C92.7083 10.28 92.9763 10.232 93.2003 10.136C93.4323 10.04 93.6203 9.9 93.7643 9.716C93.9163 9.532 94.0203 9.308 94.0763 9.044L94.9643 9.356C94.8283 9.724 94.6403 10.04 94.4003 10.304C94.1683 10.568 93.8843 10.772 93.5483 10.916C93.2203 11.052 92.8443 11.12 92.4203 11.12C91.8603 11.12 91.3603 10.996 90.9203 10.748C90.4803 10.5 90.1363 10.144 89.8883 9.68C89.6403 9.208 89.5163 8.648 89.5163 8C89.5163 7.352 89.6403 6.796 89.8883 6.332C90.1363 5.86 90.4803 5.5 90.9203 5.252C91.3603 5.004 91.8603 4.88 92.4203 4.88ZM99.1592 11.12C98.5912 11.12 98.0832 10.996 97.6352 10.748C97.1952 10.5 96.8512 10.144 96.6032 9.68C96.3552 9.208 96.2312 8.648 96.2312 8C96.2312 7.352 96.3552 6.796 96.6032 6.332C96.8512 5.86 97.1912 5.5 97.6232 5.252C98.0552 5.004 98.5472 4.88 99.0992 4.88C99.6592 4.88 100.135 5 100.527 5.24C100.927 5.48 101.231 5.808 101.439 6.224C101.647 6.632 101.751 7.092 101.751 7.604C101.751 7.74 101.747 7.864 101.739 7.976C101.731 8.088 101.719 8.188 101.703 8.276H96.8552V7.424H101.283L100.791 7.52C100.791 6.944 100.631 6.5 100.311 6.188C99.9992 5.876 99.5872 5.72 99.0752 5.72C98.6832 5.72 98.3432 5.812 98.0552 5.996C97.7752 6.172 97.5552 6.432 97.3952 6.776C97.2432 7.112 97.1672 7.52 97.1672 8C97.1672 8.472 97.2472 8.88 97.4072 9.224C97.5672 9.568 97.7912 9.832 98.0792 10.016C98.3752 10.192 98.7272 10.28 99.1352 10.28C99.5752 10.28 99.9312 10.196 100.203 10.028C100.483 9.86 100.707 9.632 100.875 9.344L101.631 9.788C101.479 10.06 101.283 10.296 101.043 10.496C100.811 10.696 100.535 10.852 100.215 10.964C99.9032 11.068 99.5512 11.12 99.1592 11.12ZM103.577 13.52V5H104.417L104.501 6.464L104.369 6.296C104.473 6.016 104.629 5.772 104.837 5.564C105.045 5.348 105.297 5.18 105.593 5.06C105.889 4.94 106.209 4.88 106.553 4.88C107.041 4.88 107.489 5.004 107.897 5.252C108.313 5.5 108.645 5.856 108.893 6.32C109.141 6.784 109.265 7.344 109.265 8C109.265 8.648 109.137 9.208 108.881 9.68C108.633 10.144 108.301 10.5 107.885 10.748C107.469 10.996 107.013 11.12 106.517 11.12C106.021 11.12 105.585 11 105.209 10.76C104.841 10.512 104.577 10.2 104.417 9.824L104.537 9.644V13.52H103.577ZM106.421 10.28C107.013 10.28 107.473 10.072 107.801 9.656C108.137 9.24 108.305 8.688 108.305 8C108.305 7.312 108.141 6.76 107.813 6.344C107.493 5.928 107.041 5.72 106.457 5.72C106.073 5.72 105.737 5.816 105.449 6.008C105.161 6.192 104.937 6.456 104.777 6.8C104.617 7.136 104.537 7.536 104.537 8C104.537 8.456 104.613 8.856 104.765 9.2C104.925 9.544 105.145 9.812 105.425 10.004C105.713 10.188 106.045 10.28 106.421 10.28ZM112.411 3.296V9.344C112.411 9.64 112.495 9.86 112.663 10.004C112.831 10.148 113.047 10.22 113.311 10.22C113.543 10.22 113.743 10.18 113.911 10.1C114.079 10.02 114.231 9.912 114.367 9.776L114.703 10.58C114.519 10.748 114.299 10.88 114.043 10.976C113.795 11.072 113.507 11.12 113.179 11.12C112.875 11.12 112.591 11.068 112.327 10.964C112.063 10.852 111.851 10.68 111.691 10.448C111.539 10.208 111.459 9.896 111.451 9.512V3.56L112.411 3.296ZM114.595 5V5.828H110.251V5H114.595ZM121.252 3.08V11H120.292V3.08H121.252ZM123.604 11V5H124.444L124.528 6.344L124.372 6.212C124.5 5.892 124.672 5.636 124.888 5.444C125.104 5.244 125.352 5.1 125.632 5.012C125.92 4.924 126.216 4.88 126.52 4.88C126.952 4.88 127.344 4.964 127.696 5.132C128.048 5.292 128.328 5.54 128.536 5.876C128.752 6.212 128.86 6.64 128.86 7.16V11H127.9V7.496C127.9 6.832 127.756 6.372 127.468 6.116C127.188 5.852 126.84 5.72 126.424 5.72C126.136 5.72 125.848 5.788 125.56 5.924C125.272 6.06 125.032 6.28 124.84 6.584C124.656 6.888 124.564 7.296 124.564 7.808V11H123.604ZM132.368 3.296V9.344C132.368 9.64 132.452 9.86 132.62 10.004C132.788 10.148 133.004 10.22 133.268 10.22C133.5 10.22 133.7 10.18 133.868 10.1C134.036 10.02 134.188 9.912 134.324 9.776L134.66 10.58C134.476 10.748 134.256 10.88 134 10.976C133.752 11.072 133.464 11.12 133.136 11.12C132.832 11.12 132.548 11.068 132.284 10.964C132.02 10.852 131.808 10.68 131.648 10.448C131.496 10.208 131.416 9.896 131.408 9.512V3.56L132.368 3.296ZM134.552 5V5.828H130.208V5H134.552ZM138.487 11.12C137.919 11.12 137.411 10.996 136.963 10.748C136.523 10.5 136.179 10.144 135.931 9.68C135.683 9.208 135.559 8.648 135.559 8C135.559 7.352 135.683 6.796 135.931 6.332C136.179 5.86 136.519 5.5 136.951 5.252C137.383 5.004 137.875 4.88 138.427 4.88C138.987 4.88 139.463 5 139.855 5.24C140.255 5.48 140.559 5.808 140.767 6.224C140.975 6.632 141.079 7.092 141.079 7.604C141.079 7.74 141.075 7.864 141.067 7.976C141.059 8.088 141.047 8.188 141.031 8.276H136.183V7.424H140.611L140.119 7.52C140.119 6.944 139.959 6.5 139.639 6.188C139.327 5.876 138.915 5.72 138.403 5.72C138.011 5.72 137.671 5.812 137.383 5.996C137.103 6.172 136.883 6.432 136.723 6.776C136.571 7.112 136.495 7.52 136.495 8C136.495 8.472 136.575 8.88 136.735 9.224C136.895 9.568 137.119 9.832 137.407 10.016C137.703 10.192 138.055 10.28 138.463 10.28C138.903 10.28 139.259 10.196 139.531 10.028C139.811 9.86 140.035 9.632 140.203 9.344L140.959 9.788C140.807 10.06 140.611 10.296 140.371 10.496C140.139 10.696 139.863 10.852 139.543 10.964C139.231 11.068 138.879 11.12 138.487 11.12ZM142.905 11V5H143.685L143.817 5.984C143.985 5.616 144.229 5.34 144.549 5.156C144.877 4.972 145.273 4.88 145.737 4.88C145.841 4.88 145.953 4.888 146.073 4.904C146.201 4.92 146.309 4.952 146.397 5L146.229 5.876C146.141 5.844 146.045 5.82 145.941 5.804C145.837 5.788 145.689 5.78 145.497 5.78C145.249 5.78 144.997 5.852 144.741 5.996C144.493 6.14 144.285 6.36 144.117 6.656C143.949 6.944 143.865 7.312 143.865 7.76V11H142.905ZM150.124 11.12C149.556 11.12 149.048 10.996 148.6 10.748C148.16 10.5 147.816 10.144 147.568 9.68C147.32 9.208 147.196 8.648 147.196 8C147.196 7.352 147.32 6.796 147.568 6.332C147.816 5.86 148.156 5.5 148.588 5.252C149.02 5.004 149.512 4.88 150.064 4.88C150.624 4.88 151.1 5 151.492 5.24C151.892 5.48 152.196 5.808 152.404 6.224C152.612 6.632 152.716 7.092 152.716 7.604C152.716 7.74 152.712 7.864 152.704 7.976C152.696 8.088 152.684 8.188 152.668 8.276H147.82V7.424H152.248L151.756 7.52C151.756 6.944 151.596 6.5 151.276 6.188C150.964 5.876 150.552 5.72 150.04 5.72C149.648 5.72 149.308 5.812 149.02 5.996C148.74 6.172 148.52 6.432 148.36 6.776C148.208 7.112 148.132 7.52 148.132 8C148.132 8.472 148.212 8.88 148.372 9.224C148.532 9.568 148.756 9.832 149.044 10.016C149.34 10.192 149.692 10.28 150.1 10.28C150.54 10.28 150.896 10.196 151.168 10.028C151.448 9.86 151.672 9.632 151.84 9.344L152.596 9.788C152.444 10.06 152.248 10.296 152.008 10.496C151.776 10.696 151.5 10.852 151.18 10.964C150.868 11.068 150.516 11.12 150.124 11.12ZM156.702 11.12C156.118 11.12 155.578 10.996 155.082 10.748C154.594 10.5 154.218 10.148 153.954 9.692L154.77 9.104C154.946 9.472 155.202 9.76 155.538 9.968C155.882 10.176 156.294 10.28 156.774 10.28C157.198 10.28 157.53 10.2 157.77 10.04C158.01 9.872 158.13 9.656 158.13 9.392C158.13 9.224 158.074 9.072 157.962 8.936C157.858 8.792 157.654 8.688 157.35 8.624L155.91 8.324C155.326 8.204 154.906 8.004 154.65 7.724C154.402 7.444 154.278 7.096 154.278 6.68C154.278 6.352 154.37 6.052 154.554 5.78C154.746 5.508 155.014 5.292 155.358 5.132C155.71 4.964 156.122 4.88 156.594 4.88C157.186 4.88 157.686 4.996 158.094 5.228C158.502 5.46 158.806 5.788 159.006 6.212L158.202 6.74C158.066 6.388 157.846 6.132 157.542 5.972C157.238 5.804 156.922 5.72 156.594 5.72C156.306 5.72 156.058 5.76 155.85 5.84C155.65 5.92 155.494 6.032 155.382 6.176C155.278 6.312 155.226 6.468 155.226 6.644C155.226 6.82 155.286 6.984 155.406 7.136C155.526 7.28 155.75 7.384 156.078 7.448L157.578 7.76C158.138 7.872 158.53 8.056 158.754 8.312C158.978 8.568 159.09 8.88 159.09 9.248C159.09 9.624 158.99 9.956 158.79 10.244C158.59 10.524 158.31 10.74 157.95 10.892C157.59 11.044 157.174 11.12 156.702 11.12ZM162.286 3.296V9.344C162.286 9.64 162.37 9.86 162.538 10.004C162.706 10.148 162.922 10.22 163.186 10.22C163.418 10.22 163.618 10.18 163.786 10.1C163.954 10.02 164.106 9.912 164.242 9.776L164.578 10.58C164.394 10.748 164.174 10.88 163.918 10.976C163.67 11.072 163.382 11.12 163.054 11.12C162.75 11.12 162.466 11.068 162.202 10.964C161.938 10.852 161.726 10.68 161.566 10.448C161.414 10.208 161.334 9.896 161.326 9.512V3.56L162.286 3.296ZM164.47 5V5.828H160.126V5H164.47ZM42.0198 22.972C41.8518 23.42 41.6118 23.808 41.2998 24.136C40.9878 24.456 40.6198 24.7 40.1958 24.868C39.7798 25.036 39.3238 25.12 38.8278 25.12C38.0758 25.12 37.4238 24.956 36.8718 24.628C36.3278 24.292 35.9038 23.82 35.5998 23.212C35.3038 22.604 35.1558 21.88 35.1558 21.04C35.1558 20.2 35.3038 19.476 35.5998 18.868C35.9038 18.26 36.3278 17.792 36.8718 17.464C37.4238 17.128 38.0678 16.96 38.8038 16.96C39.3158 16.96 39.7718 17.032 40.1718 17.176C40.5718 17.312 40.9118 17.52 41.1918 17.8C41.4798 18.072 41.7078 18.408 41.8758 18.808L40.9278 19.252C40.7518 18.796 40.4958 18.452 40.1598 18.22C39.8318 17.98 39.4038 17.86 38.8758 17.86C38.3398 17.86 37.8678 17.988 37.4598 18.244C37.0518 18.492 36.7318 18.852 36.4998 19.324C36.2758 19.796 36.1638 20.368 36.1638 21.04C36.1638 21.704 36.2718 22.276 36.4878 22.756C36.7038 23.228 37.0118 23.592 37.4118 23.848C37.8118 24.096 38.2838 24.22 38.8278 24.22C39.3558 24.22 39.8158 24.088 40.2078 23.824C40.5998 23.552 40.8838 23.148 41.0598 22.612L42.0198 22.972ZM43.6824 25V16.24H44.6424V19.9C44.8504 19.54 45.1264 19.28 45.4704 19.12C45.8144 18.96 46.1904 18.88 46.5984 18.88C47.0304 18.88 47.4224 18.964 47.7744 19.132C48.1264 19.292 48.4064 19.54 48.6144 19.876C48.8304 20.212 48.9384 20.64 48.9384 21.16V25H47.9784V21.496C47.9784 20.832 47.8344 20.372 47.5464 20.116C47.2664 19.852 46.9184 19.72 46.5024 19.72C46.2144 19.72 45.9264 19.788 45.6384 19.924C45.3504 20.06 45.1104 20.284 44.9184 20.596C44.7344 20.9 44.6424 21.308 44.6424 21.82V25H43.6824ZM53.6201 25.12C53.0521 25.12 52.5441 24.996 52.0961 24.748C51.6561 24.5 51.3121 24.144 51.0641 23.68C50.8161 23.208 50.6921 22.648 50.6921 22C50.6921 21.352 50.8161 20.796 51.0641 20.332C51.3121 19.86 51.6521 19.5 52.0841 19.252C52.5161 19.004 53.0081 18.88 53.5601 18.88C54.1201 18.88 54.5961 19 54.9881 19.24C55.3881 19.48 55.6921 19.808 55.9001 20.224C56.1081 20.632 56.2121 21.092 56.2121 21.604C56.2121 21.74 56.2081 21.864 56.2001 21.976C56.1921 22.088 56.1801 22.188 56.1641 22.276H51.3161V21.424H55.7441L55.2521 21.52C55.2521 20.944 55.0921 20.5 54.7721 20.188C54.4601 19.876 54.0481 19.72 53.5361 19.72C53.1441 19.72 52.8041 19.812 52.5161 19.996C52.2361 20.172 52.0161 20.432 51.8561 20.776C51.7041 21.112 51.6281 21.52 51.6281 22C51.6281 22.472 51.7081 22.88 51.8681 23.224C52.0281 23.568 52.2521 23.832 52.5401 24.016C52.8361 24.192 53.1881 24.28 53.5961 24.28C54.0361 24.28 54.3921 24.196 54.6641 24.028C54.9441 23.86 55.1681 23.632 55.3361 23.344L56.0921 23.788C55.9401 24.06 55.7441 24.296 55.5041 24.496C55.2721 24.696 54.9961 24.852 54.6761 24.964C54.3641 25.068 54.0121 25.12 53.6201 25.12ZM60.5219 18.88C60.9379 18.88 61.3019 18.944 61.6139 19.072C61.9339 19.2 62.2099 19.384 62.4419 19.624C62.6739 19.864 62.8619 20.148 63.0059 20.476L62.0939 20.908C61.9659 20.524 61.7699 20.232 61.5059 20.032C61.2499 19.824 60.9139 19.72 60.4979 19.72C60.0979 19.72 59.7539 19.812 59.4659 19.996C59.1779 20.172 58.9579 20.432 58.8059 20.776C58.6539 21.112 58.5779 21.52 58.5779 22C58.5779 22.472 58.6539 22.88 58.8059 23.224C58.9579 23.568 59.1779 23.832 59.4659 24.016C59.7539 24.192 60.0979 24.28 60.4979 24.28C60.8099 24.28 61.0779 24.232 61.3019 24.136C61.5339 24.04 61.7219 23.9 61.8659 23.716C62.0179 23.532 62.1219 23.308 62.1779 23.044L63.0659 23.356C62.9299 23.724 62.7419 24.04 62.5019 24.304C62.2699 24.568 61.9859 24.772 61.6499 24.916C61.3219 25.052 60.9459 25.12 60.5219 25.12C59.9619 25.12 59.4619 24.996 59.0219 24.748C58.5819 24.5 58.2379 24.144 57.9899 23.68C57.7419 23.208 57.6179 22.648 57.6179 22C57.6179 21.352 57.7419 20.796 57.9899 20.332C58.2379 19.86 58.5819 19.5 59.0219 19.252C59.4619 19.004 59.9619 18.88 60.5219 18.88ZM70.0207 19L67.4287 21.592L67.2007 21.82L65.2327 23.788V22.588L68.8087 19H70.0207ZM65.7127 16.24V25H64.7527V16.24H65.7127ZM67.5127 21.1L70.1647 25H69.0007L66.7087 21.64L67.5127 21.1ZM81.3932 25H80.3732L79.5332 22.804H75.9452L75.1052 25H74.0972L77.1812 17.08H78.3212L81.3932 25ZM76.2932 21.904H79.1852L77.7332 18.004L76.2932 21.904ZM85.2016 18.88C85.6176 18.88 85.9816 18.944 86.2936 19.072C86.6136 19.2 86.8896 19.384 87.1216 19.624C87.3536 19.864 87.5416 20.148 87.6856 20.476L86.7736 20.908C86.6456 20.524 86.4496 20.232 86.1856 20.032C85.9296 19.824 85.5936 19.72 85.1776 19.72C84.7776 19.72 84.4336 19.812 84.1456 19.996C83.8576 20.172 83.6376 20.432 83.4856 20.776C83.3336 21.112 83.2576 21.52 83.2576 22C83.2576 22.472 83.3336 22.88 83.4856 23.224C83.6376 23.568 83.8576 23.832 84.1456 24.016C84.4336 24.192 84.7776 24.28 85.1776 24.28C85.4896 24.28 85.7576 24.232 85.9816 24.136C86.2136 24.04 86.4016 23.9 86.5456 23.716C86.6976 23.532 86.8016 23.308 86.8576 23.044L87.7456 23.356C87.6096 23.724 87.4216 24.04 87.1816 24.304C86.9496 24.568 86.6656 24.772 86.3296 24.916C86.0016 25.052 85.6256 25.12 85.2016 25.12C84.6416 25.12 84.1416 24.996 83.7016 24.748C83.2616 24.5 82.9176 24.144 82.6696 23.68C82.4216 23.208 82.2976 22.648 82.2976 22C82.2976 21.352 82.4216 20.796 82.6696 20.332C82.9176 19.86 83.2616 19.5 83.7016 19.252C84.1416 19.004 84.6416 18.88 85.2016 18.88ZM91.9164 18.88C92.3324 18.88 92.6964 18.944 93.0084 19.072C93.3284 19.2 93.6044 19.384 93.8364 19.624C94.0684 19.864 94.2564 20.148 94.4004 20.476L93.4884 20.908C93.3604 20.524 93.1644 20.232 92.9004 20.032C92.6444 19.824 92.3084 19.72 91.8924 19.72C91.4924 19.72 91.1484 19.812 90.8604 19.996C90.5724 20.172 90.3524 20.432 90.2004 20.776C90.0484 21.112 89.9724 21.52 89.9724 22C89.9724 22.472 90.0484 22.88 90.2004 23.224C90.3524 23.568 90.5724 23.832 90.8604 24.016C91.1484 24.192 91.4924 24.28 91.8924 24.28C92.2044 24.28 92.4724 24.232 92.6964 24.136C92.9284 24.04 93.1164 23.9 93.2604 23.716C93.4124 23.532 93.5164 23.308 93.5724 23.044L94.4604 23.356C94.3244 23.724 94.1364 24.04 93.8964 24.304C93.6644 24.568 93.3804 24.772 93.0444 24.916C92.7164 25.052 92.3404 25.12 91.9164 25.12C91.3564 25.12 90.8564 24.996 90.4164 24.748C89.9764 24.5 89.6324 24.144 89.3844 23.68C89.1364 23.208 89.0124 22.648 89.0124 22C89.0124 21.352 89.1364 20.796 89.3844 20.332C89.6324 19.86 89.9764 19.5 90.4164 19.252C90.8564 19.004 91.3564 18.88 91.9164 18.88ZM98.3193 25.12C97.9353 25.12 97.5713 25.048 97.2273 24.904C96.8913 24.76 96.6153 24.528 96.3993 24.208C96.1913 23.88 96.0873 23.456 96.0873 22.936V19H97.0473V22.684C97.0473 23.292 97.1793 23.712 97.4433 23.944C97.7073 24.168 98.0793 24.28 98.5592 24.28C98.7833 24.28 99.0033 24.244 99.2193 24.172C99.4353 24.092 99.6273 23.972 99.7953 23.812C99.9713 23.644 100.107 23.432 100.203 23.176C100.307 22.92 100.359 22.616 100.359 22.264V19H101.319V25H100.479L100.419 24.088C100.211 24.448 99.9273 24.712 99.5673 24.88C99.2153 25.04 98.7993 25.12 98.3193 25.12ZM103.554 25V19H104.334L104.466 19.984C104.634 19.616 104.878 19.34 105.198 19.156C105.526 18.972 105.922 18.88 106.386 18.88C106.49 18.88 106.602 18.888 106.722 18.904C106.85 18.92 106.958 18.952 107.046 19L106.878 19.876C106.79 19.844 106.694 19.82 106.59 19.804C106.486 19.788 106.338 19.78 106.146 19.78C105.898 19.78 105.646 19.852 105.39 19.996C105.142 20.14 104.934 20.36 104.766 20.656C104.598 20.944 104.514 21.312 104.514 21.76V25H103.554ZM111.792 21.124C111.792 20.676 111.672 20.332 111.432 20.092C111.192 19.844 110.852 19.72 110.412 19.72C109.996 19.72 109.644 19.812 109.356 19.996C109.068 20.172 108.856 20.46 108.72 20.86L107.94 20.38C108.1 19.932 108.396 19.572 108.828 19.3C109.26 19.02 109.796 18.88 110.436 18.88C110.868 18.88 111.26 18.956 111.612 19.108C111.964 19.252 112.24 19.476 112.44 19.78C112.648 20.076 112.752 20.46 112.752 20.932V23.836C112.752 24.124 112.904 24.268 113.208 24.268C113.36 24.268 113.508 24.248 113.652 24.208L113.604 24.964C113.444 25.044 113.236 25.084 112.98 25.084C112.748 25.084 112.54 25.04 112.356 24.952C112.172 24.864 112.028 24.732 111.924 24.556C111.82 24.372 111.768 24.144 111.768 23.872V23.752L112.008 23.788C111.912 24.1 111.748 24.356 111.516 24.556C111.284 24.748 111.024 24.892 110.736 24.988C110.448 25.076 110.164 25.12 109.884 25.12C109.532 25.12 109.204 25.06 108.9 24.94C108.596 24.82 108.352 24.64 108.168 24.4C107.992 24.152 107.904 23.848 107.904 23.488C107.904 23.04 108.052 22.672 108.348 22.384C108.652 22.088 109.072 21.888 109.608 21.784L111.984 21.316V22.108L110.052 22.504C109.66 22.584 109.368 22.696 109.176 22.84C108.984 22.984 108.888 23.184 108.888 23.44C108.888 23.688 108.984 23.892 109.176 24.052C109.376 24.204 109.656 24.28 110.016 24.28C110.248 24.28 110.468 24.252 110.676 24.196C110.892 24.132 111.084 24.04 111.252 23.92C111.42 23.792 111.552 23.636 111.648 23.452C111.744 23.26 111.792 23.036 111.792 22.78V21.124ZM116.266 17.296V23.344C116.266 23.64 116.35 23.86 116.518 24.004C116.686 24.148 116.902 24.22 117.166 24.22C117.398 24.22 117.598 24.18 117.766 24.1C117.934 24.02 118.086 23.912 118.222 23.776L118.558 24.58C118.374 24.748 118.154 24.88 117.898 24.976C117.65 25.072 117.362 25.12 117.034 25.12C116.73 25.12 116.446 25.068 116.182 24.964C115.918 24.852 115.706 24.68 115.546 24.448C115.394 24.208 115.314 23.896 115.306 23.512V17.56L116.266 17.296ZM118.45 19V19.828H114.106V19H118.45ZM122.386 25.12C121.818 25.12 121.31 24.996 120.862 24.748C120.422 24.5 120.078 24.144 119.83 23.68C119.582 23.208 119.458 22.648 119.458 22C119.458 21.352 119.582 20.796 119.83 20.332C120.078 19.86 120.418 19.5 120.85 19.252C121.282 19.004 121.774 18.88 122.326 18.88C122.886 18.88 123.362 19 123.754 19.24C124.154 19.48 124.458 19.808 124.666 20.224C124.874 20.632 124.978 21.092 124.978 21.604C124.978 21.74 124.974 21.864 124.966 21.976C124.958 22.088 124.946 22.188 124.93 22.276H120.082V21.424H124.51L124.018 21.52C124.018 20.944 123.858 20.5 123.538 20.188C123.226 19.876 122.814 19.72 122.302 19.72C121.91 19.72 121.57 19.812 121.282 19.996C121.002 20.172 120.782 20.432 120.622 20.776C120.47 21.112 120.394 21.52 120.394 22C120.394 22.472 120.474 22.88 120.634 23.224C120.794 23.568 121.018 23.832 121.306 24.016C121.602 24.192 121.954 24.28 122.362 24.28C122.802 24.28 123.158 24.196 123.43 24.028C123.71 23.86 123.934 23.632 124.102 23.344L124.858 23.788C124.706 24.06 124.51 24.296 124.27 24.496C124.038 24.696 123.762 24.852 123.442 24.964C123.13 25.068 122.778 25.12 122.386 25.12ZM138.729 17.08V25H137.817V20.02L137.925 17.932H137.913L135.309 25H134.493L131.889 17.932H131.877L131.985 20.02V25H131.073V17.08H132.549L134.289 21.892L134.889 23.872H134.913L135.525 21.904L137.253 17.08H138.729ZM144.569 21.124C144.569 20.676 144.449 20.332 144.209 20.092C143.969 19.844 143.629 19.72 143.189 19.72C142.773 19.72 142.421 19.812 142.133 19.996C141.845 20.172 141.633 20.46 141.497 20.86L140.717 20.38C140.877 19.932 141.173 19.572 141.605 19.3C142.037 19.02 142.573 18.88 143.213 18.88C143.645 18.88 144.037 18.956 144.389 19.108C144.741 19.252 145.017 19.476 145.217 19.78C145.425 20.076 145.529 20.46 145.529 20.932V23.836C145.529 24.124 145.681 24.268 145.985 24.268C146.137 24.268 146.285 24.248 146.429 24.208L146.381 24.964C146.221 25.044 146.013 25.084 145.757 25.084C145.525 25.084 145.317 25.04 145.133 24.952C144.949 24.864 144.805 24.732 144.701 24.556C144.597 24.372 144.545 24.144 144.545 23.872V23.752L144.785 23.788C144.689 24.1 144.525 24.356 144.293 24.556C144.061 24.748 143.801 24.892 143.513 24.988C143.225 25.076 142.941 25.12 142.661 25.12C142.309 25.12 141.981 25.06 141.677 24.94C141.373 24.82 141.129 24.64 140.945 24.4C140.769 24.152 140.681 23.848 140.681 23.488C140.681 23.04 140.829 22.672 141.125 22.384C141.429 22.088 141.849 21.888 142.385 21.784L144.761 21.316V22.108L142.829 22.504C142.437 22.584 142.145 22.696 141.953 22.84C141.761 22.984 141.665 23.184 141.665 23.44C141.665 23.688 141.761 23.892 141.953 24.052C142.153 24.204 142.433 24.28 142.793 24.28C143.025 24.28 143.245 24.252 143.453 24.196C143.669 24.132 143.861 24.04 144.029 23.92C144.197 23.792 144.329 23.636 144.425 23.452C144.521 23.26 144.569 23.036 144.569 22.78V21.124ZM149.044 17.296V23.344C149.044 23.64 149.128 23.86 149.296 24.004C149.464 24.148 149.68 24.22 149.944 24.22C150.176 24.22 150.376 24.18 150.544 24.1C150.712 24.02 150.864 23.912 151 23.776L151.336 24.58C151.152 24.748 150.932 24.88 150.676 24.976C150.428 25.072 150.14 25.12 149.812 25.12C149.508 25.12 149.224 25.068 148.96 24.964C148.696 24.852 148.484 24.68 148.324 24.448C148.172 24.208 148.092 23.896 148.084 23.512V17.56L149.044 17.296ZM151.228 19V19.828H146.884V19H151.228ZM155.139 18.88C155.555 18.88 155.919 18.944 156.231 19.072C156.551 19.2 156.827 19.384 157.059 19.624C157.291 19.864 157.479 20.148 157.623 20.476L156.711 20.908C156.583 20.524 156.387 20.232 156.123 20.032C155.867 19.824 155.531 19.72 155.115 19.72C154.715 19.72 154.371 19.812 154.083 19.996C153.795 20.172 153.575 20.432 153.423 20.776C153.271 21.112 153.195 21.52 153.195 22C153.195 22.472 153.271 22.88 153.423 23.224C153.575 23.568 153.795 23.832 154.083 24.016C154.371 24.192 154.715 24.28 155.115 24.28C155.427 24.28 155.695 24.232 155.919 24.136C156.151 24.04 156.339 23.9 156.483 23.716C156.635 23.532 156.739 23.308 156.795 23.044L157.683 23.356C157.547 23.724 157.359 24.04 157.119 24.304C156.887 24.568 156.603 24.772 156.267 24.916C155.939 25.052 155.563 25.12 155.139 25.12C154.579 25.12 154.079 24.996 153.639 24.748C153.199 24.5 152.855 24.144 152.607 23.68C152.359 23.208 152.235 22.648 152.235 22C152.235 21.352 152.359 20.796 152.607 20.332C152.855 19.86 153.199 19.5 153.639 19.252C154.079 19.004 154.579 18.88 155.139 18.88ZM159.37 25V16.24H160.33V19.9C160.538 19.54 160.814 19.28 161.158 19.12C161.502 18.96 161.878 18.88 162.286 18.88C162.718 18.88 163.11 18.964 163.462 19.132C163.814 19.292 164.094 19.54 164.302 19.876C164.518 20.212 164.626 20.64 164.626 21.16V25H163.666V21.496C163.666 20.832 163.522 20.372 163.234 20.116C162.954 19.852 162.606 19.72 162.19 19.72C161.902 19.72 161.614 19.788 161.326 19.924C161.038 20.06 160.798 20.284 160.606 20.596C160.422 20.9 160.33 21.308 160.33 21.82V25H159.37Z" fill="#999999"/>
</svg>
