<svg width="65" height="65" viewBox="0 0 65 65" fill="none" xmlns="http://www.w3.org/2000/svg">
<rect x="0.5" y="0.5" width="64" height="64" rx="14.5" fill="#F5F5F7" stroke="#ECECEC"/>
<path d="M25.5 27C25.7761 27 26 26.7761 26 26.5C26 26.2239 25.7761 26 25.5 26C25.2239 26 25 26.2239 25 26.5C25 26.7761 25.2239 27 25.5 27Z" fill="#666666"/>
<path d="M26 19L39 33" stroke="#666666" stroke-width="2" stroke-miterlimit="10"/>
<path d="M34 26.1205C34 24.9493 33.288 24 32.4096 24C31.7925 24 31.2635 24.4736 31 25.1578L33.1316 28C33.6448 27.6487 34 26.9433 34 26.1205Z" fill="#666666"/>
<path d="M30.3677 23.829C30.9725 23.0084 31.9207 22.4768 32.9903 22.4768C34.8168 22.4768 36.2974 24.0195 36.2974 25.9226C36.2974 27.0371 35.7872 28.0251 34.9996 28.6551L36.2903 30C38.7792 28.6591 40 26.1904 40 26.1904L39.9839 25.6312C39.9839 25.6312 37.2423 21 32.9903 21C31.4378 21 30.0895 21.6198 29 22.4034L30.3677 23.829Z" fill="#666666"/>
<path d="M33.6967 29.2702C33.3144 29.4119 32.903 29.4927 32.4719 29.4927C30.525 29.4927 28.9467 27.9182 28.9467 25.9758C28.9467 25.5458 29.0278 25.1353 29.1698 24.7539L27.4112 23C25.8894 24.2771 25.0171 25.6784 25.0171 25.6784L25 26.2491C25 26.2491 27.4359 31 32.4719 31C33.4036 31 34.2451 30.8357 35 30.5709L33.6967 29.2702Z" fill="#666666"/>
<path d="M23.8574 40.72C24.2254 40.72 24.5428 40.784 24.8094 40.912C25.0761 41.0347 25.2814 41.2107 25.4254 41.44C25.5748 41.6693 25.6494 41.944 25.6494 42.264C25.6494 42.5893 25.5748 42.8667 25.4254 43.096C25.2814 43.3253 25.0761 43.504 24.8094 43.632C24.5428 43.7547 24.2254 43.816 23.8574 43.816H22.5054V46H22.1054V40.72H23.8574ZM23.8094 43.44C24.2734 43.44 24.6254 43.3387 24.8654 43.136C25.1054 42.928 25.2254 42.6373 25.2254 42.264C25.2254 41.8907 25.1054 41.6027 24.8654 41.4C24.6254 41.192 24.2734 41.088 23.8094 41.088H22.5054V43.44H23.8094ZM26.6808 46V42H27.0168L27.0648 42.84C27.1661 42.5573 27.3288 42.3333 27.5528 42.168C27.7768 42.0027 28.0461 41.92 28.3608 41.92C28.4674 41.92 28.5634 41.9307 28.6488 41.952C28.7341 41.9733 28.8034 42.008 28.8568 42.056L28.7688 42.408C28.7101 42.3707 28.6461 42.3413 28.5768 42.32C28.5074 42.2987 28.4034 42.288 28.2648 42.288C28.0621 42.288 27.8701 42.352 27.6888 42.48C27.5074 42.6027 27.3608 42.776 27.2488 43C27.1368 43.2187 27.0808 43.472 27.0808 43.76V46H26.6808ZM31.1487 41.92C31.522 41.92 31.85 42.0027 32.1327 42.168C32.4207 42.3333 32.6447 42.5733 32.8047 42.888C32.97 43.1973 33.0527 43.568 33.0527 44C33.0527 44.432 32.97 44.8053 32.8047 45.12C32.6447 45.4293 32.4207 45.6667 32.1327 45.832C31.85 45.9973 31.522 46.08 31.1487 46.08C30.7754 46.08 30.4447 45.9973 30.1567 45.832C29.874 45.6667 29.65 45.4293 29.4847 45.12C29.3247 44.8053 29.2447 44.432 29.2447 44C29.2447 43.568 29.3247 43.1973 29.4847 42.888C29.65 42.5733 29.874 42.3333 30.1567 42.168C30.4447 42.0027 30.7754 41.92 31.1487 41.92ZM31.1487 42.264C30.8447 42.264 30.5807 42.3333 30.3567 42.472C30.1327 42.6107 29.9567 42.8107 29.8287 43.072C29.706 43.328 29.6447 43.6373 29.6447 44C29.6447 44.3573 29.706 44.6667 29.8287 44.928C29.9567 45.1893 30.1327 45.3893 30.3567 45.528C30.5807 45.6667 30.8447 45.736 31.1487 45.736C31.4527 45.736 31.7167 45.6667 31.9407 45.528C32.1647 45.3893 32.338 45.1893 32.4607 44.928C32.5887 44.6667 32.6527 44.3573 32.6527 44C32.6527 43.6373 32.5887 43.328 32.4607 43.072C32.338 42.8107 32.1647 42.6107 31.9407 42.472C31.7167 42.3333 31.4527 42.264 31.1487 42.264ZM35.5901 40.12C35.7341 40.12 35.8621 40.1387 35.9741 40.176C36.0861 40.2133 36.1741 40.2667 36.2381 40.336L36.1261 40.656C36.0567 40.592 35.9821 40.5467 35.9021 40.52C35.8221 40.4933 35.7287 40.48 35.6221 40.48C35.3607 40.48 35.1581 40.5547 35.0141 40.704C34.8701 40.8533 34.7981 41.0747 34.7981 41.368V42V42.144V46H34.3981V41.328C34.3981 41.1467 34.4221 40.9813 34.4701 40.832C34.5234 40.6827 34.6007 40.5573 34.7021 40.456C34.8034 40.3493 34.9287 40.2667 35.0781 40.208C35.2274 40.1493 35.3981 40.12 35.5901 40.12ZM36.2061 42V42.344H33.5981V42H36.2061ZM37.1981 41.224C37.0967 41.224 37.0141 41.1947 36.9501 41.136C36.8914 41.072 36.8621 40.9893 36.8621 40.888C36.8621 40.7867 36.8914 40.7067 36.9501 40.648C37.0141 40.584 37.0967 40.552 37.1981 40.552C37.2994 40.552 37.3794 40.584 37.4381 40.648C37.5021 40.7067 37.5341 40.7867 37.5341 40.888C37.5341 40.9893 37.5021 41.072 37.4381 41.136C37.3794 41.1947 37.2994 41.224 37.1981 41.224ZM37.3981 42V46H36.9981V42H37.3981ZM39.1894 40.16V45.056C39.1894 45.3013 39.232 45.4747 39.3174 45.576C39.4027 45.6773 39.536 45.728 39.7174 45.728C39.8294 45.728 39.9174 45.72 39.9814 45.704C40.0507 45.688 40.1307 45.6613 40.2214 45.624L40.1654 45.976C40.096 46.008 40.016 46.032 39.9254 46.048C39.84 46.0693 39.744 46.08 39.6374 46.08C39.3547 46.08 39.1414 46 38.9974 45.84C38.8587 45.6747 38.7894 45.4187 38.7894 45.072V40.16H39.1894ZM42.6174 46.08C42.2494 46.08 41.9214 45.9973 41.6334 45.832C41.3454 45.6667 41.1188 45.4293 40.9534 45.12C40.7934 44.8053 40.7134 44.432 40.7134 44C40.7134 43.568 40.7934 43.1973 40.9534 42.888C41.1188 42.5733 41.3401 42.3333 41.6174 42.168C41.8948 42.0027 42.2121 41.92 42.5694 41.92C42.9321 41.92 43.2414 42 43.4974 42.16C43.7534 42.32 43.9508 42.544 44.0894 42.832C44.2281 43.1147 44.2974 43.4427 44.2974 43.816C44.2974 43.864 44.2948 43.912 44.2894 43.96C44.2894 44.0027 44.2868 44.0427 44.2814 44.08H40.9614V43.72H44.1054L43.9054 43.776C43.9001 43.3173 43.7774 42.952 43.5374 42.68C43.3028 42.408 42.9774 42.272 42.5614 42.272C42.2734 42.272 42.0201 42.3413 41.8014 42.48C41.5828 42.6133 41.4121 42.8107 41.2894 43.072C41.1668 43.328 41.1054 43.6373 41.1054 44C41.1054 44.3573 41.1668 44.6667 41.2894 44.928C41.4174 45.1893 41.5934 45.3893 41.8174 45.528C42.0468 45.6613 42.3108 45.728 42.6094 45.728C42.9188 45.728 43.1828 45.6613 43.4014 45.528C43.6254 45.3947 43.7988 45.2107 43.9214 44.976L44.2414 45.16C44.1454 45.352 44.0174 45.5173 43.8574 45.656C43.6974 45.7893 43.5134 45.8933 43.3054 45.968C43.0974 46.0427 42.8681 46.08 42.6174 46.08ZM14.1889 49.72L12.1569 55H11.6849L9.64494 49.72H10.0689L11.6369 53.808L11.9169 54.624L12.1969 53.808L13.7649 49.72H14.1889ZM15.287 50.224C15.1857 50.224 15.103 50.1947 15.039 50.136C14.9803 50.072 14.951 49.9893 14.951 49.888C14.951 49.7867 14.9803 49.7067 15.039 49.648C15.103 49.584 15.1857 49.552 15.287 49.552C15.3883 49.552 15.4683 49.584 15.527 49.648C15.591 49.7067 15.623 49.7867 15.623 49.888C15.623 49.9893 15.591 50.072 15.527 50.136C15.4683 50.1947 15.3883 50.224 15.287 50.224ZM15.487 51V55H15.087V51H15.487ZM18.2593 55.08C17.854 55.08 17.494 54.9973 17.1793 54.832C16.87 54.6667 16.6513 54.4293 16.5233 54.12L16.8673 53.888C16.9633 54.1547 17.134 54.3627 17.3793 54.512C17.63 54.656 17.934 54.728 18.2913 54.728C18.6433 54.728 18.918 54.6587 19.1153 54.52C19.318 54.3813 19.4193 54.1973 19.4193 53.968C19.4193 53.8133 19.3686 53.68 19.2673 53.568C19.1713 53.4507 18.9873 53.3627 18.7153 53.304L17.7793 53.104C17.3953 53.024 17.1206 52.896 16.9553 52.72C16.7953 52.5387 16.7153 52.32 16.7153 52.064C16.7153 51.8507 16.7793 51.6587 16.9073 51.488C17.0353 51.3173 17.2113 51.1813 17.4353 51.08C17.6646 50.9733 17.9313 50.92 18.2353 50.92C18.6353 50.92 18.966 51 19.2273 51.16C19.4886 51.3147 19.6726 51.5493 19.7793 51.864L19.4433 52.08C19.3633 51.7973 19.214 51.592 18.9953 51.464C18.782 51.336 18.5286 51.272 18.2353 51.272C18.0113 51.272 17.814 51.3067 17.6433 51.376C17.478 51.44 17.3473 51.5307 17.2513 51.648C17.1606 51.76 17.1153 51.8907 17.1153 52.04C17.1153 52.1947 17.1686 52.336 17.2753 52.464C17.382 52.5867 17.5713 52.6773 17.8433 52.736L18.8033 52.944C19.182 53.024 19.446 53.1467 19.5953 53.312C19.7446 53.472 19.8193 53.672 19.8193 53.912C19.8193 54.152 19.7553 54.36 19.6273 54.536C19.4993 54.712 19.318 54.848 19.0833 54.944C18.8486 55.0347 18.574 55.08 18.2593 55.08ZM21.1386 50.224C21.0372 50.224 20.9546 50.1947 20.8906 50.136C20.8319 50.072 20.8026 49.9893 20.8026 49.888C20.8026 49.7867 20.8319 49.7067 20.8906 49.648C20.9546 49.584 21.0372 49.552 21.1386 49.552C21.2399 49.552 21.3199 49.584 21.3786 49.648C21.4426 49.7067 21.4746 49.7867 21.4746 49.888C21.4746 49.9893 21.4426 50.072 21.3786 50.136C21.3199 50.1947 21.2399 50.224 21.1386 50.224ZM21.3386 51V55H20.9386V51H21.3386ZM24.6389 55.08C24.3935 55.08 24.1642 55.0347 23.9509 54.944C23.7429 54.8533 23.5642 54.7227 23.4149 54.552C23.2709 54.3813 23.1642 54.1813 23.0949 53.952L23.1509 53.888L23.1189 55H22.7589V49.16H23.1589V52.072L23.1109 52C23.2175 51.6693 23.4069 51.408 23.6789 51.216C23.9562 51.0187 24.2762 50.92 24.6389 50.92C24.9909 50.92 25.3029 51.0027 25.5749 51.168C25.8469 51.3333 26.0629 51.5707 26.2229 51.88C26.3829 52.1893 26.4629 52.5627 26.4629 53C26.4629 53.432 26.3829 53.8053 26.2229 54.12C26.0629 54.4293 25.8442 54.6667 25.5669 54.832C25.2949 54.9973 24.9855 55.08 24.6389 55.08ZM24.5909 54.728C25.0442 54.728 25.4015 54.5733 25.6629 54.264C25.9295 53.9547 26.0629 53.5333 26.0629 53C26.0629 52.4667 25.9322 52.0453 25.6709 51.736C25.4095 51.4267 25.0522 51.272 24.5989 51.272C24.3215 51.272 24.0735 51.344 23.8549 51.488C23.6362 51.6267 23.4655 51.8267 23.3429 52.088C23.2202 52.3493 23.1589 52.656 23.1589 53.008C23.1589 53.36 23.2202 53.6667 23.3429 53.928C23.4655 54.184 23.6335 54.3813 23.8469 54.52C24.0655 54.6587 24.3135 54.728 24.5909 54.728ZM27.9863 49.16V54.056C27.9863 54.3013 28.0289 54.4747 28.1143 54.576C28.1996 54.6773 28.3329 54.728 28.5143 54.728C28.6263 54.728 28.7143 54.72 28.7783 54.704C28.8476 54.688 28.9276 54.6613 29.0182 54.624L28.9622 54.976C28.8929 55.008 28.8129 55.032 28.7223 55.048C28.6369 55.0693 28.5409 55.08 28.4343 55.08C28.1516 55.08 27.9383 55 27.7943 54.84C27.6556 54.6747 27.5863 54.4187 27.5863 54.072V49.16H27.9863ZM31.4143 55.08C31.0463 55.08 30.7183 54.9973 30.4303 54.832C30.1423 54.6667 29.9156 54.4293 29.7503 54.12C29.5903 53.8053 29.5103 53.432 29.5103 53C29.5103 52.568 29.5903 52.1973 29.7503 51.888C29.9156 51.5733 30.137 51.3333 30.4143 51.168C30.6916 51.0027 31.009 50.92 31.3663 50.92C31.729 50.92 32.0383 51 32.2943 51.16C32.5503 51.32 32.7476 51.544 32.8863 51.832C33.025 52.1147 33.0943 52.4427 33.0943 52.816C33.0943 52.864 33.0916 52.912 33.0863 52.96C33.0863 53.0027 33.0836 53.0427 33.0783 53.08H29.7583V52.72H32.9023L32.7023 52.776C32.697 52.3173 32.5743 51.952 32.3343 51.68C32.0996 51.408 31.7743 51.272 31.3583 51.272C31.0703 51.272 30.817 51.3413 30.5983 51.48C30.3796 51.6133 30.209 51.8107 30.0863 52.072C29.9636 52.328 29.9023 52.6373 29.9023 53C29.9023 53.3573 29.9636 53.6667 30.0863 53.928C30.2143 54.1893 30.3903 54.3893 30.6143 54.528C30.8436 54.6613 31.1076 54.728 31.4063 54.728C31.7156 54.728 31.9796 54.6613 32.1983 54.528C32.4223 54.3947 32.5956 54.2107 32.7183 53.976L33.0383 54.16C32.9423 54.352 32.8143 54.5173 32.6543 54.656C32.4943 54.7893 32.3103 54.8933 32.1023 54.968C31.8943 55.0427 31.665 55.08 31.4143 55.08ZM41.7753 49.72V55H41.3913V51.064L41.4393 50.104H41.4313L39.5033 55H39.1353L37.2072 50.104H37.1993L37.2473 51.064V55H36.8633V49.72H37.4633L39.0553 53.72L39.3193 54.528H39.3273L39.5833 53.728L41.1753 49.72H41.7753ZM44.8909 50.92C45.2642 50.92 45.5922 51.0027 45.8749 51.168C46.1629 51.3333 46.3869 51.5733 46.5469 51.888C46.7122 52.1973 46.7949 52.568 46.7949 53C46.7949 53.432 46.7122 53.8053 46.5469 54.12C46.3869 54.4293 46.1629 54.6667 45.8749 54.832C45.5922 54.9973 45.2642 55.08 44.8909 55.08C44.5175 55.08 44.1869 54.9973 43.8989 54.832C43.6162 54.6667 43.3922 54.4293 43.2269 54.12C43.0669 53.8053 42.9869 53.432 42.9869 53C42.9869 52.568 43.0669 52.1973 43.2269 51.888C43.3922 51.5733 43.6162 51.3333 43.8989 51.168C44.1869 51.0027 44.5175 50.92 44.8909 50.92ZM44.8909 51.264C44.5869 51.264 44.3229 51.3333 44.0989 51.472C43.8749 51.6107 43.6989 51.8107 43.5709 52.072C43.4482 52.328 43.3869 52.6373 43.3869 53C43.3869 53.3573 43.4482 53.6667 43.5709 53.928C43.6989 54.1893 43.8749 54.3893 44.0989 54.528C44.3229 54.6667 44.5869 54.736 44.8909 54.736C45.1949 54.736 45.4589 54.6667 45.6829 54.528C45.9069 54.3893 46.0802 54.1893 46.2029 53.928C46.3309 53.6667 46.3949 53.3573 46.3949 53C46.3949 52.6373 46.3309 52.328 46.2029 52.072C46.0802 51.8107 45.9069 51.6107 45.6829 51.472C45.4589 51.3333 45.1949 51.264 44.8909 51.264ZM49.4986 55.08C49.1519 55.08 48.8399 54.9973 48.5626 54.832C48.2852 54.6667 48.0666 54.4293 47.9066 54.12C47.7519 53.8053 47.6746 53.432 47.6746 53C47.6746 52.5573 47.7572 52.1813 47.9226 51.872C48.0879 51.5627 48.3119 51.328 48.5946 51.168C48.8772 51.0027 49.1892 50.92 49.5306 50.92C49.9039 50.92 50.2212 51.0187 50.4826 51.216C50.7492 51.4133 50.9279 51.688 51.0186 52.04L50.9706 52.072V49.16H51.3706V55H51.0106L50.9866 53.888L51.0346 53.872C50.9866 54.128 50.8879 54.3467 50.7386 54.528C50.5946 54.7093 50.4132 54.848 50.1946 54.944C49.9812 55.0347 49.7492 55.08 49.4986 55.08ZM49.5466 54.728C49.8292 54.728 50.0772 54.6587 50.2906 54.52C50.5039 54.376 50.6692 54.1707 50.7866 53.904C50.9092 53.6373 50.9706 53.3253 50.9706 52.968C50.9706 52.616 50.9092 52.3147 50.7866 52.064C50.6692 51.808 50.5039 51.6133 50.2906 51.48C50.0826 51.3413 49.8399 51.272 49.5626 51.272C49.1039 51.272 48.7412 51.4267 48.4746 51.736C48.2079 52.0453 48.0746 52.4667 48.0746 53C48.0746 53.5333 48.2052 53.9547 48.4666 54.264C48.7332 54.5733 49.0932 54.728 49.5466 54.728ZM54.4299 55.08C54.0619 55.08 53.7339 54.9973 53.4459 54.832C53.1579 54.6667 52.9313 54.4293 52.7659 54.12C52.6059 53.8053 52.5259 53.432 52.5259 53C52.5259 52.568 52.6059 52.1973 52.7659 51.888C52.9313 51.5733 53.1526 51.3333 53.4299 51.168C53.7073 51.0027 54.0246 50.92 54.3819 50.92C54.7446 50.92 55.0539 51 55.3099 51.16C55.5659 51.32 55.7633 51.544 55.9019 51.832C56.0406 52.1147 56.1099 52.4427 56.1099 52.816C56.1099 52.864 56.1073 52.912 56.1019 52.96C56.1019 53.0027 56.0993 53.0427 56.0939 53.08H52.7739V52.72H55.9179L55.7179 52.776C55.7126 52.3173 55.5899 51.952 55.3499 51.68C55.1153 51.408 54.7899 51.272 54.3739 51.272C54.0859 51.272 53.8326 51.3413 53.6139 51.48C53.3953 51.6133 53.2246 51.8107 53.1019 52.072C52.9793 52.328 52.9179 52.6373 52.9179 53C52.9179 53.3573 52.9793 53.6667 53.1019 53.928C53.2299 54.1893 53.4059 54.3893 53.6299 54.528C53.8593 54.6613 54.1233 54.728 54.4219 54.728C54.7313 54.728 54.9953 54.6613 55.2139 54.528C55.4379 54.3947 55.6113 54.2107 55.7339 53.976L56.0539 54.16C55.9579 54.352 55.8299 54.5173 55.6699 54.656C55.5099 54.7893 55.3259 54.8933 55.1179 54.968C54.9099 55.0427 54.6806 55.08 54.4299 55.08Z" fill="#666666"/>
</svg>
