<svg width="140" height="78" viewBox="0 0 140 78" fill="none" xmlns="http://www.w3.org/2000/svg">
<rect x="0.5" width="139.5" height="78" rx="15" fill="#F5F5F7"/>
<circle cx="121" cy="20" r="15" fill="#FEFEFA"/>
<path fill-rule="evenodd" clip-rule="evenodd" d="M126.77 15.1742C126.981 15.384 127.103 15.6652 127.11 15.956L127.228 20.6078C127.234 20.7534 127.212 20.8975 127.161 21.0316C127.111 21.1657 127.033 21.2872 126.934 21.3889C126.834 21.4907 126.715 21.5707 126.582 21.6243C126.449 21.6778 126.306 21.7039 126.16 21.7009C126.014 21.6979 125.87 21.666 125.734 21.607C125.598 21.5479 125.474 21.463 125.37 21.3571C125.265 21.2511 125.182 21.1264 125.124 20.9901C125.067 20.8537 125.037 20.7086 125.035 20.5631L124.945 17.0075L121.39 16.935C121.244 16.9346 121.099 16.9052 120.962 16.8485C120.826 16.7917 120.7 16.7089 120.594 16.6047C120.487 16.5005 120.402 16.3772 120.342 16.2417C120.283 16.1063 120.25 15.9616 120.246 15.816C120.243 15.6704 120.268 15.5269 120.321 15.3938C120.374 15.2607 120.453 15.1406 120.554 15.0407C120.656 14.9408 120.777 14.8629 120.911 14.8117C121.044 14.7605 121.188 14.737 121.334 14.7425L125.986 14.8374C126.277 14.8433 126.559 14.9644 126.77 15.1742ZM116.799 19.2994C117.09 19.3054 117.372 19.4266 117.583 19.6364C117.794 19.8461 117.916 20.1273 117.924 20.418L118.014 23.9735L121.57 24.0461C121.715 24.0465 121.86 24.0759 121.997 24.1326C122.134 24.1894 122.259 24.2722 122.365 24.3764C122.472 24.4806 122.557 24.6039 122.617 24.7394C122.677 24.8748 122.709 25.0195 122.713 25.1651C122.717 25.3107 122.691 25.4542 122.638 25.5873C122.585 25.7204 122.506 25.8405 122.405 25.9404C122.303 26.0403 122.182 26.1182 122.048 26.1694C121.915 26.2206 121.771 26.2441 121.625 26.2386L116.973 26.1437C116.682 26.1378 116.4 26.0166 116.189 25.8068C115.979 25.597 115.856 25.3158 115.849 25.0251L115.731 20.3733C115.724 20.0826 115.832 19.8061 116.032 19.6047C116.233 19.4034 116.509 19.2935 116.799 19.2994Z" fill="#666666" fill-opacity="0.5"/>
<path fill-rule="evenodd" clip-rule="evenodd" d="M14 35C13.4696 35 12.9609 35.2107 12.5858 35.5858C12.2107 35.9609 12 36.4696 12 37V41C12 41.5304 12.2107 42.0391 12.5858 42.4142C12.9609 42.7893 13.4696 43 14 43V37H24C24 36.4696 23.7893 35.9609 23.4142 35.5858C23.0391 35.2107 22.5304 35 22 35H14ZM16 41C16 40.4696 16.2107 39.9609 16.5858 39.5858C16.9609 39.2107 17.4696 39 18 39H26C26.5304 39 27.0391 39.2107 27.4142 39.5858C27.7893 39.9609 28 40.4696 28 41V45C28 45.5304 27.7893 46.0391 27.4142 46.4142C27.0391 46.7893 26.5304 47 26 47H18C17.4696 47 16.9609 46.7893 16.5858 46.4142C16.2107 46.0391 16 45.5304 16 45V41ZM22 45C22.3956 45 22.7822 44.8827 23.1111 44.6629C23.44 44.4432 23.6964 44.1308 23.8478 43.7654C23.9991 43.3999 24.0387 42.9978 23.9616 42.6098C23.8844 42.2219 23.6939 41.8655 23.4142 41.5858C23.1345 41.3061 22.7781 41.1156 22.3902 41.0384C22.0022 40.9613 21.6001 41.0009 21.2346 41.1522C20.8692 41.3036 20.5568 41.56 20.3371 41.8889C20.1173 42.2178 20 42.6044 20 43C20 43.5304 20.2107 44.0391 20.5858 44.4142C20.9609 44.7893 21.4696 45 22 45Z" fill="#666666"/>
<path d="M16.092 56.08C16.628 56.08 17.092 56.18 17.484 56.38C17.884 56.572 18.196 56.848 18.42 57.208C18.644 57.568 18.756 57.996 18.756 58.492C18.756 58.988 18.644 59.416 18.42 59.776C18.196 60.136 17.884 60.416 17.484 60.616C17.092 60.808 16.628 60.904 16.092 60.904H14.256V64H13.296V56.08H16.092ZM15.948 60.004C16.572 60.004 17.028 59.876 17.316 59.62C17.604 59.356 17.748 58.98 17.748 58.492C17.748 57.996 17.604 57.62 17.316 57.364C17.028 57.108 16.572 56.98 15.948 56.98H14.256V60.004H15.948ZM20.4402 64V55.24H21.4002V58.9C21.6082 58.54 21.8842 58.28 22.2282 58.12C22.5722 57.96 22.9482 57.88 23.3562 57.88C23.7882 57.88 24.1802 57.964 24.5322 58.132C24.8842 58.292 25.1642 58.54 25.3722 58.876C25.5882 59.212 25.6962 59.64 25.6962 60.16V64H24.7362V60.496C24.7362 59.832 24.5922 59.372 24.3042 59.116C24.0242 58.852 23.6762 58.72 23.2602 58.72C22.9722 58.72 22.6842 58.788 22.3962 58.924C22.1082 59.06 21.8682 59.284 21.6762 59.596C21.4922 59.9 21.4002 60.308 21.4002 60.82V64H20.4402ZM30.3539 57.88C30.9219 57.88 31.4219 58.004 31.8539 58.252C32.2939 58.5 32.6379 58.86 32.8859 59.332C33.1339 59.796 33.2579 60.352 33.2579 61C33.2579 61.648 33.1339 62.208 32.8859 62.68C32.6379 63.144 32.2939 63.5 31.8539 63.748C31.4219 63.996 30.9219 64.12 30.3539 64.12C29.7939 64.12 29.2939 63.996 28.8539 63.748C28.4139 63.5 28.0699 63.144 27.8219 62.68C27.5739 62.208 27.4499 61.648 27.4499 61C27.4499 60.352 27.5739 59.796 27.8219 59.332C28.0699 58.86 28.4139 58.5 28.8539 58.252C29.2939 58.004 29.7939 57.88 30.3539 57.88ZM30.3539 58.708C29.9459 58.708 29.5979 58.8 29.3099 58.984C29.0219 59.168 28.7979 59.432 28.6379 59.776C28.4859 60.112 28.4099 60.52 28.4099 61C28.4099 61.472 28.4859 61.88 28.6379 62.224C28.7979 62.568 29.0219 62.832 29.3099 63.016C29.5979 63.2 29.9459 63.292 30.3539 63.292C30.7619 63.292 31.1099 63.2 31.3979 63.016C31.6859 62.832 31.9059 62.568 32.0579 62.224C32.2179 61.88 32.2979 61.472 32.2979 61C32.2979 60.52 32.2179 60.112 32.0579 59.776C31.9059 59.432 31.6859 59.168 31.3979 58.984C31.1099 58.8 30.7619 58.708 30.3539 58.708ZM36.3758 56.296V62.344C36.3758 62.64 36.4598 62.86 36.6278 63.004C36.7958 63.148 37.0118 63.22 37.2758 63.22C37.5078 63.22 37.7078 63.18 37.8758 63.1C38.0438 63.02 38.1958 62.912 38.3318 62.776L38.6678 63.58C38.4838 63.748 38.2638 63.88 38.0078 63.976C37.7598 64.072 37.4718 64.12 37.1438 64.12C36.8398 64.12 36.5558 64.068 36.2918 63.964C36.0278 63.852 35.8158 63.68 35.6558 63.448C35.5038 63.208 35.4238 62.896 35.4158 62.512V56.56L36.3758 56.296ZM38.5598 58V58.828H34.2158V58H38.5598ZM42.4711 57.88C43.0391 57.88 43.5391 58.004 43.9711 58.252C44.4111 58.5 44.7551 58.86 45.0031 59.332C45.2511 59.796 45.3751 60.352 45.3751 61C45.3751 61.648 45.2511 62.208 45.0031 62.68C44.7551 63.144 44.4111 63.5 43.9711 63.748C43.5391 63.996 43.0391 64.12 42.4711 64.12C41.9111 64.12 41.4111 63.996 40.9711 63.748C40.5311 63.5 40.1871 63.144 39.9391 62.68C39.6911 62.208 39.5671 61.648 39.5671 61C39.5671 60.352 39.6911 59.796 39.9391 59.332C40.1871 58.86 40.5311 58.5 40.9711 58.252C41.4111 58.004 41.9111 57.88 42.4711 57.88ZM42.4711 58.708C42.0631 58.708 41.7151 58.8 41.4271 58.984C41.1391 59.168 40.9151 59.432 40.7551 59.776C40.6031 60.112 40.5271 60.52 40.5271 61C40.5271 61.472 40.6031 61.88 40.7551 62.224C40.9151 62.568 41.1391 62.832 41.4271 63.016C41.7151 63.2 42.0631 63.292 42.4711 63.292C42.8791 63.292 43.2271 63.2 43.5151 63.016C43.8031 62.832 44.0231 62.568 44.1751 62.224C44.3351 61.88 44.4151 61.472 44.4151 61C44.4151 60.52 44.3351 60.112 44.1751 59.776C44.0231 59.432 43.8031 59.168 43.5151 58.984C43.2271 58.8 42.8791 58.708 42.4711 58.708ZM54.6443 64.12C53.8923 64.12 53.2403 63.956 52.6883 63.628C52.1443 63.292 51.7203 62.82 51.4163 62.212C51.1203 61.604 50.9723 60.88 50.9723 60.04C50.9723 59.2 51.1283 58.476 51.4403 57.868C51.7603 57.26 52.2043 56.792 52.7723 56.464C53.3403 56.128 53.9923 55.96 54.7283 55.96C55.5123 55.96 56.1483 56.108 56.6363 56.404C57.1323 56.7 57.5323 57.156 57.8363 57.772L56.9603 58.252C56.7843 57.796 56.5043 57.452 56.1203 57.22C55.7443 56.98 55.2803 56.86 54.7283 56.86C54.1923 56.86 53.7163 56.988 53.3003 57.244C52.8923 57.492 52.5683 57.856 52.3283 58.336C52.0963 58.808 51.9803 59.376 51.9803 60.04C51.9803 60.704 52.0803 61.276 52.2803 61.756C52.4883 62.228 52.7923 62.592 53.1923 62.848C53.6003 63.096 54.0963 63.22 54.6803 63.22C55.0083 63.22 55.3123 63.18 55.5923 63.1C55.8803 63.012 56.1283 62.884 56.3363 62.716C56.5523 62.548 56.7203 62.336 56.8403 62.08C56.9603 61.824 57.0203 61.524 57.0203 61.18V60.904H54.5003V60.004H57.8963V64H57.1403L57.0923 62.524L57.2963 62.56C57.0883 63.056 56.7603 63.44 56.3123 63.712C55.8643 63.984 55.3083 64.12 54.6443 64.12ZM63.4598 60.124C63.4598 59.676 63.3398 59.332 63.0998 59.092C62.8598 58.844 62.5198 58.72 62.0798 58.72C61.6638 58.72 61.3118 58.812 61.0238 58.996C60.7358 59.172 60.5238 59.46 60.3878 59.86L59.6078 59.38C59.7678 58.932 60.0638 58.572 60.4958 58.3C60.9278 58.02 61.4638 57.88 62.1038 57.88C62.5358 57.88 62.9278 57.956 63.2798 58.108C63.6318 58.252 63.9078 58.476 64.1078 58.78C64.3158 59.076 64.4198 59.46 64.4198 59.932V62.836C64.4198 63.124 64.5718 63.268 64.8758 63.268C65.0278 63.268 65.1758 63.248 65.3198 63.208L65.2718 63.964C65.1118 64.044 64.9038 64.084 64.6478 64.084C64.4158 64.084 64.2078 64.04 64.0238 63.952C63.8398 63.864 63.6958 63.732 63.5918 63.556C63.4878 63.372 63.4358 63.144 63.4358 62.872V62.752L63.6758 62.788C63.5798 63.1 63.4158 63.356 63.1838 63.556C62.9518 63.748 62.6918 63.892 62.4038 63.988C62.1158 64.076 61.8318 64.12 61.5518 64.12C61.1998 64.12 60.8718 64.06 60.5678 63.94C60.2638 63.82 60.0198 63.64 59.8358 63.4C59.6598 63.152 59.5718 62.848 59.5718 62.488C59.5718 62.04 59.7198 61.672 60.0158 61.384C60.3198 61.088 60.7398 60.888 61.2758 60.784L63.6518 60.316V61.108L61.7198 61.504C61.3278 61.584 61.0358 61.696 60.8438 61.84C60.6518 61.984 60.5558 62.184 60.5558 62.44C60.5558 62.688 60.6518 62.892 60.8438 63.052C61.0438 63.204 61.3238 63.28 61.6838 63.28C61.9158 63.28 62.1358 63.252 62.3438 63.196C62.5598 63.132 62.7518 63.04 62.9198 62.92C63.0878 62.792 63.2198 62.636 63.3158 62.452C63.4118 62.26 63.4598 62.036 63.4598 61.78V60.124ZM67.6647 55.24V62.476C67.6647 62.78 67.7207 62.992 67.8327 63.112C67.9447 63.224 68.1247 63.28 68.3727 63.28C68.5327 63.28 68.6647 63.268 68.7687 63.244C68.8727 63.22 69.0127 63.176 69.1887 63.112L69.0327 63.952C68.9047 64.008 68.7647 64.048 68.6127 64.072C68.4607 64.104 68.3047 64.12 68.1447 64.12C67.6567 64.12 67.2927 63.988 67.0527 63.724C66.8207 63.46 66.7047 63.056 66.7047 62.512V55.24H67.6647ZM71.3327 55.24V62.476C71.3327 62.78 71.3887 62.992 71.5007 63.112C71.6127 63.224 71.7927 63.28 72.0407 63.28C72.2007 63.28 72.3327 63.268 72.4367 63.244C72.5407 63.22 72.6807 63.176 72.8567 63.112L72.7007 63.952C72.5727 64.008 72.4327 64.048 72.2807 64.072C72.1287 64.104 71.9727 64.12 71.8127 64.12C71.3247 64.12 70.9607 63.988 70.7207 63.724C70.4887 63.46 70.3727 63.056 70.3727 62.512V55.24H71.3327ZM76.5967 64.12C76.0287 64.12 75.5207 63.996 75.0727 63.748C74.6327 63.5 74.2887 63.144 74.0407 62.68C73.7927 62.208 73.6687 61.648 73.6687 61C73.6687 60.352 73.7927 59.796 74.0407 59.332C74.2887 58.86 74.6287 58.5 75.0607 58.252C75.4927 58.004 75.9847 57.88 76.5367 57.88C77.0967 57.88 77.5727 58 77.9647 58.24C78.3647 58.48 78.6687 58.808 78.8767 59.224C79.0847 59.632 79.1887 60.092 79.1887 60.604C79.1887 60.74 79.1847 60.864 79.1767 60.976C79.1687 61.088 79.1567 61.188 79.1407 61.276H74.2927V60.424H78.7207L78.2287 60.52C78.2287 59.944 78.0687 59.5 77.7487 59.188C77.4367 58.876 77.0247 58.72 76.5127 58.72C76.1207 58.72 75.7807 58.812 75.4927 58.996C75.2127 59.172 74.9927 59.432 74.8327 59.776C74.6807 60.112 74.6047 60.52 74.6047 61C74.6047 61.472 74.6847 61.88 74.8447 62.224C75.0047 62.568 75.2287 62.832 75.5167 63.016C75.8127 63.192 76.1647 63.28 76.5727 63.28C77.0127 63.28 77.3687 63.196 77.6407 63.028C77.9207 62.86 78.1447 62.632 78.3127 62.344L79.0687 62.788C78.9167 63.06 78.7207 63.296 78.4807 63.496C78.2487 63.696 77.9727 63.852 77.6527 63.964C77.3407 64.068 76.9887 64.12 76.5967 64.12ZM81.0144 64V58H81.7944L81.9264 58.984C82.0944 58.616 82.3384 58.34 82.6584 58.156C82.9864 57.972 83.3824 57.88 83.8464 57.88C83.9504 57.88 84.0624 57.888 84.1824 57.904C84.3104 57.92 84.4184 57.952 84.5064 58L84.3384 58.876C84.2504 58.844 84.1544 58.82 84.0504 58.804C83.9464 58.788 83.7984 58.78 83.6064 58.78C83.3584 58.78 83.1064 58.852 82.8504 58.996C82.6024 59.14 82.3944 59.36 82.2264 59.656C82.0584 59.944 81.9744 60.312 81.9744 60.76V64H81.0144ZM90.8449 58L88.0249 65.008C87.8729 65.4 87.7049 65.708 87.5209 65.932C87.3449 66.164 87.1449 66.328 86.9209 66.424C86.7049 66.528 86.4529 66.58 86.1649 66.58C85.8929 66.58 85.6409 66.54 85.4089 66.46C85.1849 66.388 84.9849 66.288 84.8089 66.16L85.0729 65.32C85.2329 65.464 85.4009 65.568 85.5769 65.632C85.7609 65.704 85.9409 65.74 86.1169 65.74C86.3249 65.74 86.5209 65.676 86.7049 65.548C86.8889 65.42 87.0569 65.16 87.2089 64.768L87.5209 63.988L86.9209 62.56L85.0129 58H86.1049L87.6049 61.912L87.9769 62.98L88.4089 61.792L89.8129 58H90.8449Z" fill="#666666"/>
</svg>
