<svg width="65" height="65" viewBox="0 0 65 65" fill="none" xmlns="http://www.w3.org/2000/svg">
<rect x="0.5" y="0.5" width="64" height="64" rx="14.5" fill="#F5F5F7" stroke="#ECECEC"/>
<path d="M37.9505 31.117C36.6377 32.3227 34.8571 33 33.0005 33C31.1438 33 29.3632 32.3227 28.0504 31.117C26.7375 29.9114 26 28.2762 26 26.5711C26 24.8661 26.7375 23.2309 28.0504 22.0252C28.0504 24.4283 28.3339 26.5711 31.8338 27.6425C31.8338 25.4997 33.0005 19.0714 34.7504 18C35.5078 19.5274 36.5963 20.897 37.9494 22.0252C38.5995 22.6222 39.1152 23.3309 39.4671 24.1108C39.8189 24.8908 40 25.7268 40 26.5711C40 27.4154 39.8189 28.2514 39.4671 29.0314C39.1152 29.8114 38.5995 30.5201 37.9494 31.117H37.9505Z" fill="#666666"/>
<path d="M30.5255 30.9862C30.8483 31.2932 31.2345 31.538 31.6615 31.7065C32.0886 31.875 32.5478 31.9636 33.0125 31.9673C33.4773 31.971 33.9381 31.8897 34.3683 31.7281C34.7984 31.5665 35.1892 31.3278 35.5178 31.026C35.8464 30.7243 36.1063 30.3654 36.2823 29.9704C36.4582 29.5754 36.5468 29.1521 36.5427 28.7253C36.5387 28.2986 36.4422 27.8768 36.2587 27.4847C36.0753 27.0925 35.8087 26.7379 35.4744 26.4414C34.7979 25.877 34.2537 25.192 33.8749 24.4282C32.9999 24.9639 32.4166 28.1781 32.4166 29.2495C31.4119 29.2865 30.412 29.1029 29.5 28.7138C29.4993 29.1359 29.5896 29.5541 29.7656 29.9441C29.9416 30.3341 30.1998 30.6882 30.5255 30.9862Z" fill="#666666"/>
<path d="M24.5648 44.72V45.088H22.6368V50H22.2368V45.088H20.3088V44.72H24.5648ZM26.1878 45.92C26.5611 45.92 26.8891 46.0027 27.1718 46.168C27.4598 46.3333 27.6838 46.5733 27.8438 46.888C28.0091 47.1973 28.0918 47.568 28.0918 48C28.0918 48.432 28.0091 48.8053 27.8438 49.12C27.6838 49.4293 27.4598 49.6667 27.1718 49.832C26.8891 49.9973 26.5611 50.08 26.1878 50.08C25.8144 50.08 25.4838 49.9973 25.1958 49.832C24.9131 49.6667 24.6891 49.4293 24.5238 49.12C24.3638 48.8053 24.2838 48.432 24.2838 48C24.2838 47.568 24.3638 47.1973 24.5238 46.888C24.6891 46.5733 24.9131 46.3333 25.1958 46.168C25.4838 46.0027 25.8144 45.92 26.1878 45.92ZM26.1878 46.264C25.8838 46.264 25.6198 46.3333 25.3958 46.472C25.1718 46.6107 24.9958 46.8107 24.8678 47.072C24.7451 47.328 24.6838 47.6373 24.6838 48C24.6838 48.3573 24.7451 48.6667 24.8678 48.928C24.9958 49.1893 25.1718 49.3893 25.3958 49.528C25.6198 49.6667 25.8838 49.736 26.1878 49.736C26.4918 49.736 26.7558 49.6667 26.9798 49.528C27.2038 49.3893 27.3771 49.1893 27.4998 48.928C27.6278 48.6667 27.6918 48.3573 27.6918 48C27.6918 47.6373 27.6278 47.328 27.4998 47.072C27.3771 46.8107 27.2038 46.6107 26.9798 46.472C26.7558 46.3333 26.4918 46.264 26.1878 46.264ZM32.5314 46L30.7714 47.696L30.6754 47.792L29.4354 48.992V48.48L32.0114 46H32.5314ZM29.6354 44.16V50H29.2354V44.16H29.6354ZM30.7954 47.488L32.5954 50H32.1074L30.4674 47.72L30.7954 47.488ZM34.9456 50.08C34.5776 50.08 34.2496 49.9973 33.9616 49.832C33.6736 49.6667 33.4469 49.4293 33.2816 49.12C33.1216 48.8053 33.0416 48.432 33.0416 48C33.0416 47.568 33.1216 47.1973 33.2816 46.888C33.4469 46.5733 33.6682 46.3333 33.9456 46.168C34.2229 46.0027 34.5402 45.92 34.8976 45.92C35.2602 45.92 35.5696 46 35.8256 46.16C36.0816 46.32 36.2789 46.544 36.4176 46.832C36.5562 47.1147 36.6256 47.4427 36.6256 47.816C36.6256 47.864 36.6229 47.912 36.6176 47.96C36.6176 48.0027 36.6149 48.0427 36.6096 48.08H33.2896V47.72H36.4336L36.2336 47.776C36.2282 47.3173 36.1056 46.952 35.8656 46.68C35.6309 46.408 35.3056 46.272 34.8896 46.272C34.6016 46.272 34.3482 46.3413 34.1296 46.48C33.9109 46.6133 33.7402 46.8107 33.6176 47.072C33.4949 47.328 33.4336 47.6373 33.4336 48C33.4336 48.3573 33.4949 48.6667 33.6176 48.928C33.7456 49.1893 33.9216 49.3893 34.1456 49.528C34.3749 49.6613 34.6389 49.728 34.9376 49.728C35.2469 49.728 35.5109 49.6613 35.7296 49.528C35.9536 49.3947 36.1269 49.2107 36.2496 48.976L36.5696 49.16C36.4736 49.352 36.3456 49.5173 36.1856 49.656C36.0256 49.7893 35.8416 49.8933 35.6336 49.968C35.4256 50.0427 35.1962 50.08 34.9456 50.08ZM37.7667 50V46H38.1267L38.1587 47L38.0947 46.944C38.1694 46.7253 38.2814 46.5413 38.4307 46.392C38.58 46.2373 38.7587 46.12 38.9667 46.04C39.1747 45.96 39.3987 45.92 39.6387 45.92C39.9374 45.92 40.2014 45.976 40.4307 46.088C40.66 46.2 40.8387 46.3653 40.9667 46.584C41.1 46.8027 41.1667 47.0773 41.1667 47.408V50H40.7667V47.536C40.7667 47.0987 40.6574 46.7787 40.4387 46.576C40.2254 46.3733 39.9454 46.272 39.5987 46.272C39.348 46.272 39.1134 46.3307 38.8947 46.448C38.6814 46.56 38.5054 46.7253 38.3667 46.944C38.2334 47.1627 38.1667 47.4293 38.1667 47.744V50H37.7667ZM43.8999 50.08C43.4946 50.08 43.1346 49.9973 42.8199 49.832C42.5106 49.6667 42.2919 49.4293 42.1639 49.12L42.5079 48.888C42.6039 49.1547 42.7746 49.3627 43.0199 49.512C43.2706 49.656 43.5746 49.728 43.9319 49.728C44.2839 49.728 44.5586 49.6587 44.7559 49.52C44.9586 49.3813 45.0599 49.1973 45.0599 48.968C45.0599 48.8133 45.0093 48.68 44.9079 48.568C44.8119 48.4507 44.6279 48.3627 44.3559 48.304L43.4199 48.104C43.0359 48.024 42.7613 47.896 42.5959 47.72C42.4359 47.5387 42.3559 47.32 42.3559 47.064C42.3559 46.8507 42.4199 46.6587 42.5479 46.488C42.6759 46.3173 42.8519 46.1813 43.0759 46.08C43.3053 45.9733 43.5719 45.92 43.8759 45.92C44.2759 45.92 44.6066 46 44.8679 46.16C45.1293 46.3147 45.3133 46.5493 45.4199 46.864L45.0839 47.08C45.0039 46.7973 44.8546 46.592 44.6359 46.464C44.4226 46.336 44.1693 46.272 43.8759 46.272C43.6519 46.272 43.4546 46.3067 43.2839 46.376C43.1186 46.44 42.9879 46.5307 42.8919 46.648C42.8013 46.76 42.7559 46.8907 42.7559 47.04C42.7559 47.1947 42.8093 47.336 42.9159 47.464C43.0226 47.5867 43.2119 47.6773 43.4839 47.736L44.4439 47.944C44.8226 48.024 45.0866 48.1467 45.2359 48.312C45.3853 48.472 45.4599 48.672 45.4599 48.912C45.4599 49.152 45.3959 49.36 45.2679 49.536C45.1399 49.712 44.9586 49.848 44.7239 49.944C44.4893 50.0347 44.2146 50.08 43.8999 50.08Z" fill="#666666"/>
</svg>
