<svg width="28" height="28" viewBox="0 0 28 28" fill="none" xmlns="http://www.w3.org/2000/svg">
<path d="M23.2678 4.73199C22.799 4.2633 22.1632 4 21.5003 4C20.8374 4 20.2016 4.2633 19.7328 4.73199L10.25 14.2147V17.7498H13.7851L23.2678 8.26708C23.7365 7.79825 23.9998 7.16246 23.9998 6.49953C23.9998 5.8366 23.7365 5.20082 23.2678 4.73199Z" fill="#7D67EE"/>
<path fill-rule="evenodd" clip-rule="evenodd" d="M4 8.9997C4 8.33664 4.2634 7.70074 4.73225 7.23189C5.20111 6.76303 5.83701 6.49963 6.50007 6.49963H11.5002C11.8317 6.49963 12.1497 6.63133 12.3841 6.86576C12.6185 7.10019 12.7502 7.41814 12.7502 7.74967C12.7502 8.0812 12.6185 8.39915 12.3841 8.63357C12.1497 8.868 11.8317 8.9997 11.5002 8.9997H6.50007V21.5H19.0004V16.4999C19.0004 16.1684 19.1321 15.8504 19.3665 15.616C19.601 15.3816 19.9189 15.2499 20.2504 15.2499C20.582 15.2499 20.8999 15.3816 21.1343 15.616C21.3688 15.8504 21.5005 16.1684 21.5005 16.4999V21.5C21.5005 22.1631 21.2371 22.799 20.7682 23.2678C20.2994 23.7367 19.6635 24.0001 19.0004 24.0001H6.50007C5.83701 24.0001 5.20111 23.7367 4.73225 23.2678C4.2634 22.799 4 22.1631 4 21.5V8.9997Z" fill="#7D67EE"/>
</svg>
