<svg width="28" height="28" viewBox="0 0 28 28" fill="none" xmlns="http://www.w3.org/2000/svg">
<path d="M4 8.355L14 13.355L24 8.355C23.963 7.71741 23.6833 7.11817 23.2184 6.68025C22.7535 6.24232 22.1387 5.99893 21.5 6H6.5C5.86133 5.99893 5.24647 6.24232 4.78159 6.68025C4.3167 7.11817 4.03704 7.71741 4 8.355Z" fill="#7D67EE"/>
<path d="M24 11.1475L14 16.1475L4 11.1475V18.5C4 19.163 4.26339 19.7989 4.73223 20.2677C5.20107 20.7366 5.83696 21 6.5 21H21.5C22.163 21 22.7989 20.7366 23.2678 20.2677C23.7366 19.7989 24 19.163 24 18.5V11.1475Z" fill="#7D67EE"/>
</svg>
