<svg width="65" height="65" viewBox="0 0 65 65" fill="none" xmlns="http://www.w3.org/2000/svg">
<rect x="0.5" y="0.5" width="64" height="64" rx="14.5" fill="#F5F5F7" stroke="#ECECEC"/>
<path fill-rule="evenodd" clip-rule="evenodd" d="M34.2999 19.0353C34.5029 19.0849 34.6802 19.1837 34.8061 19.3171C34.932 19.4505 34.9999 19.6118 34.9999 19.7773V23.6662H38.9996C39.1825 23.6661 39.362 23.7051 39.5184 23.7788C39.6748 23.8525 39.8022 23.9582 39.8868 24.0844C39.9713 24.2106 40.0097 24.3523 39.9979 24.4943C39.9861 24.6363 39.9244 24.773 39.8196 24.8896L32.82 32.6674C32.6982 32.8031 32.5239 32.9051 32.3224 32.9585C32.1209 33.0118 31.9028 33.0138 31.6998 32.9641C31.4968 32.9144 31.3194 32.8156 31.1936 32.6821C31.0678 32.5485 31 32.3873 31.0001 32.2217V28.3328H27.0004C26.8175 28.3329 26.638 28.2939 26.4816 28.2202C26.3252 28.1464 26.1978 28.0407 26.1132 27.9146C26.0287 27.7884 25.9903 27.6467 26.0021 27.5047C26.0139 27.3627 26.0756 27.226 26.1804 27.1094L33.18 19.3316C33.302 19.1961 33.4764 19.0944 33.6778 19.0412C33.8792 18.9881 34.0971 18.9863 34.2999 19.036V19.0353Z" fill="#666666"/>
<path d="M22.1015 50V44.72H23.9655C24.5469 44.72 24.9789 44.8427 25.2615 45.088C25.5442 45.328 25.6855 45.672 25.6855 46.12C25.6855 46.424 25.6029 46.6853 25.4375 46.904C25.2722 47.1173 25.0322 47.256 24.7175 47.32V47.328C25.0589 47.3813 25.3282 47.5227 25.5255 47.752C25.7282 47.976 25.8295 48.2533 25.8295 48.584C25.8295 49.0267 25.6695 49.3733 25.3495 49.624C25.0295 49.8747 24.5682 50 23.9655 50H22.1015ZM22.5015 49.632H24.0455C24.4989 49.632 24.8375 49.5413 25.0615 49.36C25.2909 49.1787 25.4055 48.9173 25.4055 48.576C25.4055 48.2293 25.2909 47.968 25.0615 47.792C24.8375 47.6107 24.4989 47.52 24.0455 47.52H22.5015V49.632ZM22.5015 47.152H23.9735C24.8322 47.152 25.2615 46.808 25.2615 46.12C25.2615 45.432 24.8322 45.088 23.9735 45.088H22.5015V47.152ZM28.6682 45.92C29.0416 45.92 29.3696 46.0027 29.6522 46.168C29.9402 46.3333 30.1642 46.5733 30.3242 46.888C30.4896 47.1973 30.5722 47.568 30.5722 48C30.5722 48.432 30.4896 48.8053 30.3242 49.12C30.1642 49.4293 29.9402 49.6667 29.6522 49.832C29.3696 49.9973 29.0416 50.08 28.6682 50.08C28.2949 50.08 27.9642 49.9973 27.6762 49.832C27.3936 49.6667 27.1696 49.4293 27.0042 49.12C26.8442 48.8053 26.7642 48.432 26.7642 48C26.7642 47.568 26.8442 47.1973 27.0042 46.888C27.1696 46.5733 27.3936 46.3333 27.6762 46.168C27.9642 46.0027 28.2949 45.92 28.6682 45.92ZM28.6682 46.264C28.3642 46.264 28.1002 46.3333 27.8762 46.472C27.6522 46.6107 27.4762 46.8107 27.3482 47.072C27.2256 47.328 27.1642 47.6373 27.1642 48C27.1642 48.3573 27.2256 48.6667 27.3482 48.928C27.4762 49.1893 27.6522 49.3893 27.8762 49.528C28.1002 49.6667 28.3642 49.736 28.6682 49.736C28.9722 49.736 29.2362 49.6667 29.4602 49.528C29.6842 49.3893 29.8576 49.1893 29.9802 48.928C30.1082 48.6667 30.1722 48.3573 30.1722 48C30.1722 47.6373 30.1082 47.328 29.9802 47.072C29.8576 46.8107 29.6842 46.6107 29.4602 46.472C29.2362 46.3333 28.9722 46.264 28.6682 46.264ZM33.3479 45.92C33.7212 45.92 34.0492 46.0027 34.3319 46.168C34.6199 46.3333 34.8439 46.5733 35.0039 46.888C35.1692 47.1973 35.2519 47.568 35.2519 48C35.2519 48.432 35.1692 48.8053 35.0039 49.12C34.8439 49.4293 34.6199 49.6667 34.3319 49.832C34.0492 49.9973 33.7212 50.08 33.3479 50.08C32.9746 50.08 32.6439 49.9973 32.3559 49.832C32.0732 49.6667 31.8492 49.4293 31.6839 49.12C31.5239 48.8053 31.4439 48.432 31.4439 48C31.4439 47.568 31.5239 47.1973 31.6839 46.888C31.8492 46.5733 32.0732 46.3333 32.3559 46.168C32.6439 46.0027 32.9746 45.92 33.3479 45.92ZM33.3479 46.264C33.0439 46.264 32.7799 46.3333 32.5559 46.472C32.3319 46.6107 32.1559 46.8107 32.0279 47.072C31.9052 47.328 31.8439 47.6373 31.8439 48C31.8439 48.3573 31.9052 48.6667 32.0279 48.928C32.1559 49.1893 32.3319 49.3893 32.5559 49.528C32.7799 49.6667 33.0439 49.736 33.3479 49.736C33.6519 49.736 33.9159 49.6667 34.1399 49.528C34.3639 49.3893 34.5372 49.1893 34.6599 48.928C34.7879 48.6667 34.8519 48.3573 34.8519 48C34.8519 47.6373 34.7879 47.328 34.6599 47.072C34.5372 46.8107 34.3639 46.6107 34.1399 46.472C33.9159 46.3333 33.6519 46.264 33.3479 46.264ZM37.7476 50.08C37.3423 50.08 36.9823 49.9973 36.6676 49.832C36.3583 49.6667 36.1396 49.4293 36.0116 49.12L36.3556 48.888C36.4516 49.1547 36.6223 49.3627 36.8676 49.512C37.1183 49.656 37.4223 49.728 37.7796 49.728C38.1316 49.728 38.4063 49.6587 38.6036 49.52C38.8063 49.3813 38.9076 49.1973 38.9076 48.968C38.9076 48.8133 38.8569 48.68 38.7556 48.568C38.6596 48.4507 38.4756 48.3627 38.2036 48.304L37.2676 48.104C36.8836 48.024 36.6089 47.896 36.4436 47.72C36.2836 47.5387 36.2036 47.32 36.2036 47.064C36.2036 46.8507 36.2676 46.6587 36.3956 46.488C36.5236 46.3173 36.6996 46.1813 36.9236 46.08C37.1529 45.9733 37.4196 45.92 37.7236 45.92C38.1236 45.92 38.4543 46 38.7156 46.16C38.9769 46.3147 39.1609 46.5493 39.2676 46.864L38.9316 47.08C38.8516 46.7973 38.7023 46.592 38.4836 46.464C38.2703 46.336 38.0169 46.272 37.7236 46.272C37.4996 46.272 37.3023 46.3067 37.1316 46.376C36.9663 46.44 36.8356 46.5307 36.7396 46.648C36.6489 46.76 36.6036 46.8907 36.6036 47.04C36.6036 47.1947 36.6569 47.336 36.7636 47.464C36.8703 47.5867 37.0596 47.6773 37.3316 47.736L38.2916 47.944C38.6703 48.024 38.9343 48.1467 39.0836 48.312C39.2329 48.472 39.3076 48.672 39.3076 48.912C39.3076 49.152 39.2436 49.36 39.1156 49.536C38.9876 49.712 38.8063 49.848 38.5716 49.944C38.3369 50.0347 38.0623 50.08 37.7476 50.08ZM41.0908 44.888V48.944C41.0908 49.1947 41.1495 49.3867 41.2668 49.52C41.3895 49.648 41.5655 49.712 41.7948 49.712C41.9442 49.712 42.0748 49.688 42.1868 49.64C42.3042 49.5867 42.4082 49.512 42.4988 49.416L42.6508 49.744C42.5495 49.8453 42.4215 49.928 42.2668 49.992C42.1122 50.0507 41.9388 50.08 41.7468 50.08C41.5388 50.08 41.3548 50.0427 41.1948 49.968C41.0348 49.888 40.9095 49.768 40.8188 49.608C40.7335 49.448 40.6908 49.2453 40.6908 49V45L41.0908 44.888ZM42.5868 46V46.344H39.8908V46H42.5868Z" fill="#666666"/>
</svg>
