<svg width="44" height="44" viewBox="0 0 44 44" fill="none" xmlns="http://www.w3.org/2000/svg">
<path d="M22.2496 8C19.4649 8 16.7941 9.10625 14.825 11.0754C12.8559 13.0445 11.7496 15.7152 11.7496 18.5V24.7755L10.5124 26.0128C10.2677 26.2575 10.1011 26.5693 10.0336 26.9087C9.96611 27.2481 10.0008 27.5999 10.1332 27.9196C10.2656 28.2394 10.4899 28.5127 10.7776 28.705C11.0653 28.8973 11.4036 28.9999 11.7496 29H32.7496C33.0957 28.9999 33.434 28.8973 33.7217 28.705C34.0094 28.5127 34.2336 28.2394 34.3661 27.9196C34.4985 27.5999 34.5331 27.2481 34.4656 26.9087C34.3982 26.5693 34.2315 26.2575 33.9869 26.0128L32.7496 24.7755V18.5C32.7496 15.7152 31.6434 13.0445 29.6742 11.0754C27.7051 9.10625 25.0344 8 22.2496 8ZM22.2496 36C20.8572 36 19.5219 35.4469 18.5373 34.4623C17.5528 33.4777 16.9996 32.1424 16.9996 30.75H27.4996C27.4996 32.1424 26.9465 33.4777 25.9619 34.4623C24.9774 35.4469 23.642 36 22.2496 36Z" fill="#E2E6FE"/>
</svg>
