<svg width="66" height="16" viewBox="0 0 66 16" fill="none" xmlns="http://www.w3.org/2000/svg">
<path d="M2.92818 0.801447V1.58879L4.39513 1.59351V0.801477C4.39094 -0.27375 2.92471 -0.260537 2.92818 0.801447ZM10.2644 0.801447V1.59816H4.39513V4.00237C4.34685 5.09315 2.88974 5.03657 2.92818 4.00237V1.59816H0.730622C0.325551 1.59992 -0.00153412 1.95941 1.24611e-05 2.40113V5.60206H14.6666V2.40113C14.6682 1.95696 14.3376 1.59647 13.9303 1.59816H11.7327V0.801447C11.7167 -0.276999 10.2508 -0.257218 10.2644 0.801447ZM10.2644 1.60285H11.7327V4.00237C11.7169 5.07422 10.2512 5.05514 10.2644 4.00237V1.60285ZM1.24611e-05 7.19549V15.1955C-0.00232681 15.6378 0.324988 15.9982 0.730622 16C5.13052 16 9.53041 16 13.9303 16C14.3382 16.0017 14.669 15.6402 14.6666 15.1955V7.19549H1.24611e-05ZM2.92818 7.99846H4.39513C5.37225 7.98957 5.38159 9.58892 4.39513 9.5997H2.92818C1.96177 9.61222 1.94627 8.01346 2.92818 7.99846ZM6.59985 7.99846H8.0668C9.0445 8.00134 9.04121 9.60096 8.0668 9.5997H6.59985C5.61539 9.58909 5.62455 7.98973 6.59985 7.99846ZM10.2644 7.99846H11.7327C12.6998 7.97829 12.7216 9.57609 11.7327 9.5997H10.2644C9.28375 9.58912 9.29284 7.98976 10.2644 7.99846ZM2.92818 11.1994H4.39513C5.36843 11.1818 5.38543 12.7803 4.39513 12.7991H2.92818C1.95431 12.7975 1.95375 11.1978 2.92818 11.1994ZM6.59985 11.1994H8.0668C9.05177 11.2149 9.03397 12.8134 8.0668 12.7991H6.59985C5.63717 12.8281 5.60264 11.2331 6.59985 11.1994ZM10.2644 11.1994H11.7327C12.7198 11.2153 12.7016 12.8137 11.7327 12.7991H10.2644C9.27983 12.7803 9.29675 11.1817 10.2644 11.1994Z" fill="#7D67EE"/>
<path d="M34.667 16C33.0847 16 31.538 15.5308 30.2224 14.6518C28.9068 13.7727 27.8815 12.5233 27.276 11.0615C26.6705 9.59966 26.512 7.99113 26.8207 6.43928C27.1294 4.88743 27.8913 3.46197 29.0101 2.34315C30.129 1.22433 31.5544 0.462403 33.1063 0.153721C34.6581 -0.15496 36.2667 0.00346635 37.7285 0.608967C39.1903 1.21447 40.4397 2.23985 41.3187 3.55544C42.1978 4.87103 42.667 6.41775 42.667 8C42.667 10.1217 41.8241 12.1566 40.3238 13.6569C38.8236 15.1571 36.7887 16 34.667 16ZM34.667 1.06667C33.2957 1.06667 31.9552 1.4733 30.815 2.23515C29.6749 2.99699 28.7862 4.07983 28.2614 5.34673C27.7367 6.61363 27.5994 8.00769 27.8669 9.35263C28.1344 10.6976 28.7947 11.933 29.7644 12.9026C30.734 13.8723 31.9694 14.5326 33.3144 14.8001C34.6593 15.0676 36.0534 14.9303 37.3203 14.4056C38.5872 13.8808 39.67 12.9921 40.4318 11.852C41.1937 10.7118 41.6003 9.37128 41.6003 8C41.6003 6.16117 40.8699 4.39765 39.5696 3.0974C38.2693 1.79714 36.5058 1.06667 34.667 1.06667Z" fill="#7D67EE"/>
<path d="M36.9275 11.0182L34.2875 8.37824C34.2381 8.32841 34.199 8.26931 34.1724 8.20433C34.1459 8.13935 34.1324 8.06977 34.1328 7.99958V3.73291H35.1995V7.78091L37.6848 10.2609L36.9275 11.0182Z" fill="#7D67EE"/>
<path d="M60.267 0C57.175 0 54.667 2.508 54.667 5.6C54.667 9.8 60.267 16 60.267 16C60.267 16 65.867 9.8 65.867 5.6C65.867 2.508 63.359 0 60.267 0ZM60.267 7.6C59.163 7.6 58.267 6.704 58.267 5.6C58.267 4.496 59.163 3.6 60.267 3.6C61.371 3.6 62.267 4.496 62.267 5.6C62.267 6.704 61.371 7.6 60.267 7.6Z" fill="#7D67EE"/>
</svg>
