<svg width="18" height="18" viewBox="0 0 18 18" fill="none" xmlns="http://www.w3.org/2000/svg">
<path d="M11.4549 5.72725C11.4549 6.21271 11.3109 6.68728 11.0412 7.09092C10.7715 7.49457 10.3882 7.80918 9.93967 7.99496C9.49116 8.18073 8.99763 8.22934 8.5215 8.13463C8.04536 8.03992 7.608 7.80615 7.26473 7.46288C6.92146 7.1196 6.68768 6.68224 6.59297 6.20611C6.49826 5.72997 6.54687 5.23645 6.73265 4.78794C6.91843 4.33943 7.23304 3.95608 7.63668 3.68637C8.04033 3.41666 8.51489 3.27271 9.00036 3.27271C9.65134 3.27271 10.2757 3.53131 10.736 3.99162C11.1963 4.45194 11.4549 5.07626 11.4549 5.72725ZM15.5458 7.36361C15.5458 7.68726 15.4498 8.00363 15.27 8.27273C15.0902 8.54183 14.8347 8.75156 14.5357 8.87542C14.2366 8.99927 13.9076 9.03167 13.5902 8.96854C13.2728 8.9054 12.9812 8.74955 12.7524 8.5207C12.5235 8.29185 12.3677 8.00028 12.3045 7.68285C12.2414 7.36543 12.2738 7.03641 12.3976 6.7374C12.5215 6.4384 12.7312 6.18283 13.0003 6.00303C13.2694 5.82322 13.5858 5.72725 13.9094 5.72725C14.3434 5.72725 14.7597 5.89965 15.0665 6.20653C15.3734 6.51341 15.5458 6.92962 15.5458 7.36361ZM12.2731 13.0909C12.2731 12.2229 11.9283 11.3905 11.3145 10.7767C10.7008 10.163 9.86834 9.81816 9.00036 9.81816C8.13237 9.81816 7.29994 10.163 6.68619 10.7767C6.07243 11.3905 5.72763 12.2229 5.72763 13.0909V15.5454H12.2731V13.0909ZM5.72763 7.36361C5.72763 7.68726 5.63166 8.00363 5.45185 8.27273C5.27205 8.54183 5.01648 8.75156 4.71747 8.87542C4.41847 8.99927 4.08945 9.03167 3.77203 8.96854C3.4546 8.9054 3.16303 8.74955 2.93418 8.5207C2.70533 8.29185 2.54948 8.00028 2.48634 7.68285C2.4232 7.36543 2.45561 7.03641 2.57946 6.7374C2.70331 6.4384 2.91305 6.18283 3.18215 6.00303C3.45125 5.82322 3.76762 5.72725 4.09126 5.72725C4.52525 5.72725 4.94147 5.89965 5.24835 6.20653C5.55523 6.51341 5.72763 6.92962 5.72763 7.36361ZM13.9094 15.5454V13.0909C13.9106 12.259 13.6994 11.4406 13.2958 10.7133C13.6585 10.6204 14.0377 10.6117 14.4043 10.6877C14.771 10.7636 15.1154 10.9224 15.4114 11.1517C15.7073 11.3811 15.947 11.675 16.1121 12.0111C16.2772 12.3471 16.3633 12.7165 16.364 13.0909V15.5454H13.9094ZM4.7049 10.7133C4.30133 11.4407 4.09012 12.259 4.09126 13.0909V15.5454H1.63672V13.0909C1.63656 12.7162 1.72219 12.3464 1.88704 12.01C2.05189 11.6735 2.29159 11.3792 2.58776 11.1497C2.88393 10.9202 3.22872 10.7615 3.5957 10.6859C3.96268 10.6102 4.3421 10.6196 4.7049 10.7133Z" fill="#666666"/>
</svg>
