<svg width="65" height="65" viewBox="0 0 65 65" fill="none" xmlns="http://www.w3.org/2000/svg">
<rect x="0.5" y="0.5" width="64" height="64" rx="14.5" fill="#F5F5F7" stroke="#ECECEC"/>
<path d="M38.7363 22.0637L36.9363 20.2637C36.8528 20.1801 36.7536 20.1138 36.6444 20.0685C36.5352 20.0233 36.4182 20 36.3 20C36.1818 20 36.0648 20.0233 35.9556 20.0685C35.8464 20.1138 35.7472 20.1801 35.6637 20.2637L30.2637 25.6637C30.1801 25.7472 30.1137 25.8464 30.0685 25.9556C30.0233 26.0648 30 26.1818 30 26.3V28.1C29.9999 28.2182 30.0232 28.3353 30.0684 28.4445C30.1136 28.5537 30.1799 28.653 30.2635 28.7365C30.347 28.8201 30.4463 28.8864 30.5555 28.9316C30.6647 28.9768 30.7818 29.0001 30.9 29H32.7C32.8182 29 32.9352 28.9767 33.0444 28.9315C33.1536 28.8863 33.2528 28.8199 33.3363 28.7363L38.7363 23.3363C38.8199 23.2528 38.8862 23.1536 38.9315 23.0444C38.9767 22.9352 39 22.8182 39 22.7C39 22.5818 38.9767 22.4648 38.9315 22.3556C38.8862 22.2464 38.8199 22.1472 38.7363 22.0637ZM32.3273 27.2H31.8V26.6727L36.3 22.1727L36.8273 22.7L32.3273 27.2Z" fill="#666666"/>
<path d="M37.1429 27.8571C37.0303 27.8571 36.9188 27.8792 36.8148 27.9223C36.7107 27.9653 36.6162 28.0284 36.5366 28.1081C36.457 28.1877 36.3939 28.2822 36.3508 28.3862C36.3078 28.4902 36.2857 28.6017 36.2857 28.7143V31.2857H27.7143V22.7143H30.2857C30.513 22.7143 30.7311 22.624 30.8918 22.4632C31.0526 22.3025 31.1429 22.0845 31.1429 21.8571C31.1429 21.6298 31.0526 21.4118 30.8918 21.2511C30.7311 21.0903 30.513 21 30.2857 21H26.8571C26.7446 20.9999 26.6331 21.0221 26.5291 21.0651C26.425 21.1082 26.3305 21.1713 26.2509 21.2509C26.1713 21.3305 26.1082 21.425 26.0651 21.5291C26.0221 21.6331 25.9999 21.7446 26 21.8571V32.1429C25.9999 32.2554 26.0221 32.3669 26.0651 32.4709C26.1082 32.575 26.1713 32.6695 26.2509 32.7491C26.3305 32.8287 26.425 32.8918 26.5291 32.9349C26.6331 32.9779 26.7446 33.0001 26.8571 33H37.1429C37.2554 33.0001 37.3669 32.9779 37.4709 32.9349C37.575 32.8918 37.6695 32.8287 37.7491 32.7491C37.8287 32.6695 37.8918 32.575 37.9349 32.4709C37.9779 32.3669 38.0001 32.2554 38 32.1429V28.7143C38.0001 28.6017 37.9779 28.4902 37.9349 28.3862C37.8918 28.2822 37.8287 28.1877 37.7491 28.1081C37.6695 28.0284 37.575 27.9653 37.4709 27.9223C37.3669 27.8792 37.2554 27.8571 37.1429 27.8571Z" fill="#666666"/>
<path d="M12.832 50V44.72H16.44V45.088H13.232V47.128H15.768V47.504H13.232V49.632H16.568V50H12.832ZM18.9361 50.08C18.5894 50.08 18.2774 49.9973 18.0001 49.832C17.7227 49.6667 17.5041 49.4293 17.3441 49.12C17.1894 48.8053 17.1121 48.432 17.1121 48C17.1121 47.5573 17.1947 47.1813 17.3601 46.872C17.5254 46.5627 17.7494 46.328 18.0321 46.168C18.3147 46.0027 18.6267 45.92 18.9681 45.92C19.3414 45.92 19.6587 46.0187 19.9201 46.216C20.1867 46.4133 20.3654 46.688 20.4561 47.04L20.4081 47.072V44.16H20.8081V50H20.4481L20.4241 48.888L20.4721 48.872C20.4241 49.128 20.3254 49.3467 20.1761 49.528C20.0321 49.7093 19.8507 49.848 19.6321 49.944C19.4187 50.0347 19.1867 50.08 18.9361 50.08ZM18.9841 49.728C19.2667 49.728 19.5147 49.6587 19.7281 49.52C19.9414 49.376 20.1067 49.1707 20.2241 48.904C20.3467 48.6373 20.4081 48.3253 20.4081 47.968C20.4081 47.616 20.3467 47.3147 20.2241 47.064C20.1067 46.808 19.9414 46.6133 19.7281 46.48C19.5201 46.3413 19.2774 46.272 19.0001 46.272C18.5414 46.272 18.1787 46.4267 17.9121 46.736C17.6454 47.0453 17.5121 47.4667 17.5121 48C17.5121 48.5333 17.6427 48.9547 17.9041 49.264C18.1707 49.5733 18.5307 49.728 18.9841 49.728ZM22.4354 45.224C22.3341 45.224 22.2514 45.1947 22.1874 45.136C22.1288 45.072 22.0994 44.9893 22.0994 44.888C22.0994 44.7867 22.1288 44.7067 22.1874 44.648C22.2514 44.584 22.3341 44.552 22.4354 44.552C22.5368 44.552 22.6168 44.584 22.6754 44.648C22.7394 44.7067 22.7714 44.7867 22.7714 44.888C22.7714 44.9893 22.7394 45.072 22.6754 45.136C22.6168 45.1947 22.5368 45.224 22.4354 45.224ZM22.6354 46V50H22.2354V46H22.6354ZM24.7198 44.888V48.944C24.7198 49.1947 24.7784 49.3867 24.8958 49.52C25.0184 49.648 25.1944 49.712 25.4238 49.712C25.5731 49.712 25.7038 49.688 25.8158 49.64C25.9331 49.5867 26.0371 49.512 26.1278 49.416L26.2798 49.744C26.1784 49.8453 26.0504 49.928 25.8958 49.992C25.7411 50.0507 25.5678 50.08 25.3758 50.08C25.1678 50.08 24.9838 50.0427 24.8238 49.968C24.6638 49.888 24.5384 49.768 24.4478 49.608C24.3624 49.448 24.3198 49.2453 24.3198 49V45L24.7198 44.888ZM26.2158 46V46.344H23.5198V46H26.2158ZM31.4121 44.72C31.7801 44.72 32.0975 44.784 32.3641 44.912C32.6308 45.0347 32.8361 45.2107 32.9801 45.44C33.1295 45.6693 33.2041 45.944 33.2041 46.264C33.2041 46.5893 33.1295 46.8667 32.9801 47.096C32.8361 47.3253 32.6308 47.504 32.3641 47.632C32.0975 47.7547 31.7801 47.816 31.4121 47.816H30.0601V50H29.6601V44.72H31.4121ZM31.3641 47.44C31.8281 47.44 32.1801 47.3387 32.4201 47.136C32.6601 46.928 32.7801 46.6373 32.7801 46.264C32.7801 45.8907 32.6601 45.6027 32.4201 45.4C32.1801 45.192 31.8281 45.088 31.3641 45.088H30.0601V47.44H31.3641ZM34.2354 50V46H34.5714L34.6194 46.84C34.7208 46.5573 34.8834 46.3333 35.1074 46.168C35.3314 46.0027 35.6008 45.92 35.9154 45.92C36.0221 45.92 36.1181 45.9307 36.2034 45.952C36.2888 45.9733 36.3581 46.008 36.4114 46.056L36.3234 46.408C36.2648 46.3707 36.2008 46.3413 36.1314 46.32C36.0621 46.2987 35.9581 46.288 35.8194 46.288C35.6168 46.288 35.4248 46.352 35.2434 46.48C35.0621 46.6027 34.9154 46.776 34.8034 47C34.6914 47.2187 34.6354 47.472 34.6354 47.76V50H34.2354ZM38.7034 45.92C39.0767 45.92 39.4047 46.0027 39.6874 46.168C39.9754 46.3333 40.1994 46.5733 40.3594 46.888C40.5247 47.1973 40.6074 47.568 40.6074 48C40.6074 48.432 40.5247 48.8053 40.3594 49.12C40.1994 49.4293 39.9754 49.6667 39.6874 49.832C39.4047 49.9973 39.0767 50.08 38.7034 50.08C38.33 50.08 37.9994 49.9973 37.7114 49.832C37.4287 49.6667 37.2047 49.4293 37.0394 49.12C36.8794 48.8053 36.7994 48.432 36.7994 48C36.7994 47.568 36.8794 47.1973 37.0394 46.888C37.2047 46.5733 37.4287 46.3333 37.7114 46.168C37.9994 46.0027 38.33 45.92 38.7034 45.92ZM38.7034 46.264C38.3994 46.264 38.1354 46.3333 37.9114 46.472C37.6874 46.6107 37.5114 46.8107 37.3834 47.072C37.2607 47.328 37.1994 47.6373 37.1994 48C37.1994 48.3573 37.2607 48.6667 37.3834 48.928C37.5114 49.1893 37.6874 49.3893 37.9114 49.528C38.1354 49.6667 38.3994 49.736 38.7034 49.736C39.0074 49.736 39.2714 49.6667 39.4954 49.528C39.7194 49.3893 39.8927 49.1893 40.0154 48.928C40.1434 48.6667 40.2074 48.3573 40.2074 48C40.2074 47.6373 40.1434 47.328 40.0154 47.072C39.8927 46.8107 39.7194 46.6107 39.4954 46.472C39.2714 46.3333 39.0074 46.264 38.7034 46.264ZM43.1448 44.12C43.2888 44.12 43.4168 44.1387 43.5288 44.176C43.6408 44.2133 43.7288 44.2667 43.7928 44.336L43.6808 44.656C43.6114 44.592 43.5368 44.5467 43.4568 44.52C43.3768 44.4933 43.2834 44.48 43.1768 44.48C42.9154 44.48 42.7128 44.5547 42.5688 44.704C42.4248 44.8533 42.3528 45.0747 42.3528 45.368V46V46.144V50H41.9528V45.328C41.9528 45.1467 41.9768 44.9813 42.0247 44.832C42.0781 44.6827 42.1554 44.5573 42.2568 44.456C42.3581 44.3493 42.4834 44.2667 42.6328 44.208C42.7821 44.1493 42.9528 44.12 43.1448 44.12ZM43.7608 46V46.344H41.1528V46H43.7608ZM44.7528 45.224C44.6514 45.224 44.5688 45.1947 44.5048 45.136C44.4461 45.072 44.4168 44.9893 44.4168 44.888C44.4168 44.7867 44.4461 44.7067 44.5048 44.648C44.5688 44.584 44.6514 44.552 44.7528 44.552C44.8541 44.552 44.9341 44.584 44.9928 44.648C45.0568 44.7067 45.0888 44.7867 45.0888 44.888C45.0888 44.9893 45.0568 45.072 44.9928 45.136C44.9341 45.1947 44.8541 45.224 44.7528 45.224ZM44.9528 46V50H44.5528V46H44.9528ZM46.7441 44.16V49.056C46.7441 49.3013 46.7867 49.4747 46.8721 49.576C46.9574 49.6773 47.0907 49.728 47.2721 49.728C47.3841 49.728 47.4721 49.72 47.5361 49.704C47.6054 49.688 47.6854 49.6613 47.7761 49.624L47.7201 49.976C47.6507 50.008 47.5707 50.032 47.4801 50.048C47.3947 50.0693 47.2987 50.08 47.1921 50.08C46.9094 50.08 46.6961 50 46.5521 49.84C46.4134 49.6747 46.3441 49.4187 46.3441 49.072V44.16H46.7441ZM50.1721 50.08C49.8041 50.08 49.4761 49.9973 49.1881 49.832C48.9001 49.6667 48.6735 49.4293 48.5081 49.12C48.3481 48.8053 48.2681 48.432 48.2681 48C48.2681 47.568 48.3481 47.1973 48.5081 46.888C48.6735 46.5733 48.8948 46.3333 49.1721 46.168C49.4495 46.0027 49.7668 45.92 50.1241 45.92C50.4868 45.92 50.7961 46 51.0521 46.16C51.3081 46.32 51.5055 46.544 51.6441 46.832C51.7828 47.1147 51.8521 47.4427 51.8521 47.816C51.8521 47.864 51.8495 47.912 51.8441 47.96C51.8441 48.0027 51.8415 48.0427 51.8361 48.08H48.5161V47.72H51.6601L51.4601 47.776C51.4548 47.3173 51.3321 46.952 51.0921 46.68C50.8575 46.408 50.5321 46.272 50.1161 46.272C49.8281 46.272 49.5748 46.3413 49.3561 46.48C49.1375 46.6133 48.9668 46.8107 48.8441 47.072C48.7215 47.328 48.6601 47.6373 48.6601 48C48.6601 48.3573 48.7215 48.6667 48.8441 48.928C48.9721 49.1893 49.1481 49.3893 49.3721 49.528C49.6015 49.6613 49.8655 49.728 50.1641 49.728C50.4735 49.728 50.7375 49.6613 50.9561 49.528C51.1801 49.3947 51.3535 49.2107 51.4761 48.976L51.7961 49.16C51.7001 49.352 51.5721 49.5173 51.4121 49.656C51.2521 49.7893 51.0681 49.8933 50.8601 49.968C50.6521 50.0427 50.4228 50.08 50.1721 50.08Z" fill="#666666"/>
</svg>
