<svg width="28" height="28" viewBox="0 0 28 28" fill="none" xmlns="http://www.w3.org/2000/svg">
<path fill-rule="evenodd" clip-rule="evenodd" d="M4.96284 5.24847C5.89978 4.17477 7.17038 3.5716 8.49521 3.5716C9.82005 3.5716 11.0906 4.17477 12.0276 5.24847L13.4915 6.92513L14.9554 5.24847C15.4163 4.70146 15.9676 4.26514 16.5772 3.96498C17.1867 3.66482 17.8424 3.50682 18.5058 3.50022C19.1692 3.49361 19.8271 3.63852 20.4411 3.92649C21.0551 4.21446 21.613 4.63973 22.0821 5.17748C22.5512 5.71523 22.9222 6.35469 23.1734 7.05855C23.4246 7.76241 23.551 8.51658 23.5453 9.27704C23.5395 10.0375 23.4017 10.789 23.1398 11.4878C22.878 12.1865 22.4973 12.8185 22.0201 13.3468L13.4915 23.1247L4.96284 13.3468C4.02619 12.2728 3.5 10.8163 3.5 9.29765C3.5 7.77898 4.02619 6.32249 4.96284 5.24847Z" fill="#7D67EE"/>
</svg>
