<svg width="22" height="22" viewBox="0 0 22 22" fill="none" xmlns="http://www.w3.org/2000/svg">
<path fill-rule="evenodd" clip-rule="evenodd" d="M11 9C11.5933 9 12.1734 8.82405 12.6667 8.49441C13.1601 8.16477 13.5446 7.69623 13.7716 7.14805C13.9987 6.59987 14.0581 5.99667 13.9424 5.41473C13.8266 4.83279 13.5409 4.29824 13.1213 3.87868C12.7018 3.45912 12.1672 3.1734 11.5853 3.05765C11.0033 2.94189 10.4001 3.0013 9.85195 3.22836C9.30377 3.45543 8.83524 3.83994 8.50559 4.33329C8.17595 4.82664 8 5.40666 8 6C8 6.79565 8.31607 7.55871 8.87868 8.12132C9.44129 8.68393 10.2044 9 11 9ZM4 18C4 16.1435 4.7375 14.363 6.05025 13.0503C7.36301 11.7375 9.14348 11 11 11C12.8565 11 14.637 11.7375 15.9497 13.0503C17.2625 14.363 18 16.1435 18 18H4Z" fill="#7D67EE"/>
</svg>
