<svg width="28" height="28" viewBox="0 0 28 28" fill="none" xmlns="http://www.w3.org/2000/svg">
<mask id="mask0_900_1940" style="mask-type:luminance" maskUnits="userSpaceOnUse" x="1" y="1" width="26" height="26">
<path d="M1.75 1.75H26.25V26.25H1.75V1.75Z" fill="white"/>
</mask>
<g mask="url(#mask0_900_1940)">
<path d="M19.1977 20.4227C17.8192 21.8012 15.9495 22.5757 14 22.5757C12.0505 22.5757 10.1809 21.8012 8.80236 20.4227C7.42385 19.0442 6.64941 17.1746 6.64941 15.225C6.64941 13.2755 7.42385 11.4059 8.80236 10.0274C8.80236 12.775 9.10004 15.225 12.775 16.45C12.775 14 14 6.65005 15.8375 5.42505C16.6328 7.17146 17.7757 8.73744 19.1965 10.0274C19.8791 10.7099 20.4206 11.5202 20.7901 12.412C21.1595 13.3039 21.3497 14.2597 21.3497 15.225C21.3497 16.1904 21.1595 17.1462 20.7901 18.0381C20.4206 18.9299 19.8791 19.7402 19.1965 20.4227H19.1977Z" fill="#7D67EE"/>
<path d="M11.401 20.2731C11.74 20.6241 12.1455 20.9041 12.5939 21.0967C13.0423 21.2893 13.5245 21.3907 14.0124 21.3949C14.5004 21.3992 14.9843 21.3062 15.436 21.1214C15.8876 20.9366 16.2979 20.6637 16.643 20.3187C16.9881 19.9736 17.2609 19.5633 17.4457 19.1117C17.6305 18.66 17.7235 18.1761 17.7192 17.6881C17.715 17.2002 17.6136 16.7179 17.421 16.2696C17.2284 15.8212 16.9484 15.4157 16.5974 15.0767C15.8872 14.4314 15.3157 13.6482 14.918 12.7749C13.9992 13.3874 13.3867 17.0624 13.3867 18.2874C12.3317 18.3297 11.2818 18.1198 10.3242 17.6749C10.3235 18.1576 10.4183 18.6357 10.6031 19.0816C10.7879 19.5275 11.0591 19.9324 11.401 20.2731Z" fill="#7D67EE"/>
</g>
</svg>
