<svg width="65" height="65" viewBox="0 0 65 65" fill="none" xmlns="http://www.w3.org/2000/svg">
<rect x="0.5" y="0.5" width="64" height="64" rx="14.5" fill="#F5F5F7" stroke="#ECECEC"/>
<path d="M39.9068 19.6813C39.7413 19.2613 39.3909 19 38.9924 19H27.0077C26.6092 19 26.2588 19.2613 26.0928 19.6813C25.9283 20.0978 25.9853 20.5738 26.2413 20.9227L26.2418 20.9232L31.0003 27.3831V32.4167C31.0003 32.6319 31.1018 32.8297 31.2642 32.9312C31.3382 32.9772 31.4192 33 31.5002 33C31.5972 33 31.6937 32.9667 31.7777 32.902L34.7774 30.5687C34.9164 30.4602 34.9998 30.2782 34.9998 30.0833V27.3831L39.7588 20.9232C40.0148 20.5738 40.0718 20.0978 39.9068 19.6813Z" fill="#666666"/>
<path d="M26.8968 45.088H23.6968V47.128H26.2328V47.504H23.6968V50H23.2968V44.72H26.8968V45.088ZM28.0487 45.224C27.9474 45.224 27.8647 45.1947 27.8007 45.136C27.7421 45.072 27.7127 44.9893 27.7127 44.888C27.7127 44.7867 27.7421 44.7067 27.8007 44.648C27.8647 44.584 27.9474 44.552 28.0487 44.552C28.1501 44.552 28.2301 44.584 28.2887 44.648C28.3527 44.7067 28.3847 44.7867 28.3847 44.888C28.3847 44.9893 28.3527 45.072 28.2887 45.136C28.2301 45.1947 28.1501 45.224 28.0487 45.224ZM28.2487 46V50H27.8487V46H28.2487ZM30.037 44.16V49.056C30.037 49.3013 30.0797 49.4747 30.165 49.576C30.2504 49.6773 30.3837 49.728 30.565 49.728C30.677 49.728 30.765 49.72 30.829 49.704C30.8984 49.688 30.9784 49.6613 31.069 49.624L31.013 49.976C30.9437 50.008 30.8637 50.032 30.773 50.048C30.6877 50.0693 30.5917 50.08 30.485 50.08C30.2024 50.08 29.989 50 29.845 49.84C29.7064 49.6747 29.637 49.4187 29.637 49.072V44.16H30.037ZM32.419 44.888V48.944C32.419 49.1947 32.4776 49.3867 32.595 49.52C32.7176 49.648 32.8936 49.712 33.123 49.712C33.2723 49.712 33.403 49.688 33.515 49.64C33.6323 49.5867 33.7363 49.512 33.827 49.416L33.979 49.744C33.8776 49.8453 33.7496 49.928 33.595 49.992C33.4403 50.0507 33.267 50.08 33.075 50.08C32.867 50.08 32.683 50.0427 32.523 49.968C32.363 49.888 32.2376 49.768 32.147 49.608C32.0616 49.448 32.019 49.2453 32.019 49V45L32.419 44.888ZM33.915 46V46.344H31.219V46H33.915ZM36.4026 50.08C36.0346 50.08 35.7066 49.9973 35.4186 49.832C35.1306 49.6667 34.9039 49.4293 34.7386 49.12C34.5786 48.8053 34.4986 48.432 34.4986 48C34.4986 47.568 34.5786 47.1973 34.7386 46.888C34.9039 46.5733 35.1253 46.3333 35.4026 46.168C35.6799 46.0027 35.9973 45.92 36.3546 45.92C36.7173 45.92 37.0266 46 37.2826 46.16C37.5386 46.32 37.7359 46.544 37.8746 46.832C38.0133 47.1147 38.0826 47.4427 38.0826 47.816C38.0826 47.864 38.0799 47.912 38.0746 47.96C38.0746 48.0027 38.0719 48.0427 38.0666 48.08H34.7466V47.72H37.8906L37.6906 47.776C37.6853 47.3173 37.5626 46.952 37.3226 46.68C37.0879 46.408 36.7626 46.272 36.3466 46.272C36.0586 46.272 35.8053 46.3413 35.5866 46.48C35.3679 46.6133 35.1973 46.8107 35.0746 47.072C34.9519 47.328 34.8906 47.6373 34.8906 48C34.8906 48.3573 34.9519 48.6667 35.0746 48.928C35.2026 49.1893 35.3786 49.3893 35.6026 49.528C35.8319 49.6613 36.0959 49.728 36.3946 49.728C36.7039 49.728 36.9679 49.6613 37.1866 49.528C37.4106 49.3947 37.5839 49.2107 37.7066 48.976L38.0266 49.16C37.9306 49.352 37.8026 49.5173 37.6426 49.656C37.4826 49.7893 37.2986 49.8933 37.0906 49.968C36.8826 50.0427 36.6533 50.08 36.4026 50.08ZM39.2237 50V46H39.5597L39.6077 46.84C39.7091 46.5573 39.8717 46.3333 40.0957 46.168C40.3197 46.0027 40.5891 45.92 40.9037 45.92C41.0104 45.92 41.1064 45.9307 41.1917 45.952C41.2771 45.9733 41.3464 46.008 41.3997 46.056L41.3117 46.408C41.2531 46.3707 41.1891 46.3413 41.1197 46.32C41.0504 46.2987 40.9464 46.288 40.8077 46.288C40.6051 46.288 40.4131 46.352 40.2317 46.48C40.0504 46.6027 39.9037 46.776 39.7917 47C39.6797 47.2187 39.6237 47.472 39.6237 47.76V50H39.2237Z" fill="#666666"/>
</svg>
