<svg width="366" height="286" viewBox="0 0 366 286" fill="none" xmlns="http://www.w3.org/2000/svg">
<ellipse cx="79" cy="68.5" rx="7" ry="6.5" fill="#E2E6FE"/>
<circle cx="84.5" cy="215.5" r="12.5" fill="#E2E6FE"/>
<ellipse cx="290.5" cy="89" rx="8.5" ry="8" fill="#E2E6FE"/>
<ellipse cx="183.173" cy="156" rx="95.3991" ry="91" fill="#E2E6FE"/>
<g filter="url(#filter0_dd_231_865)">
<rect x="84" y="90" width="198" height="118" rx="18" fill="#7D67EE"/>
<rect opacity="0.5" x="99" y="103" width="31.0588" height="24" rx="7" fill="#DFE3FB"/>
<path d="M123.139 174.8V188H120.639V181.12L120.779 177.26H120.739L117.079 188H114.819L111.179 177.26H111.139L111.279 181.12V188H108.779V174.8H112.779L115.159 182L115.999 184.98H116.039L116.899 182.02L119.259 174.8H123.139ZM131.913 181.62C131.913 181.047 131.747 180.6 131.413 180.28C131.093 179.96 130.667 179.8 130.133 179.8C129.64 179.8 129.207 179.927 128.833 180.18C128.46 180.433 128.187 180.853 128.013 181.44L125.673 180.72C125.9 179.84 126.393 179.133 127.153 178.6C127.927 178.067 128.96 177.8 130.253 177.8C131.133 177.8 131.9 177.94 132.553 178.22C133.207 178.487 133.713 178.893 134.073 179.44C134.447 179.987 134.633 180.673 134.633 181.5V185.56C134.633 186.067 134.873 186.32 135.353 186.32C135.58 186.32 135.793 186.287 135.993 186.22L135.833 187.92C135.487 188.093 135.053 188.18 134.533 188.18C134.067 188.18 133.647 188.1 133.273 187.94C132.9 187.78 132.607 187.54 132.393 187.22C132.18 186.887 132.073 186.473 132.073 185.98V185.9L132.553 185.82C132.473 186.327 132.253 186.76 131.893 187.12C131.533 187.467 131.093 187.733 130.573 187.92C130.067 188.107 129.54 188.2 128.993 188.2C128.313 188.2 127.727 188.1 127.233 187.9C126.74 187.687 126.36 187.38 126.093 186.98C125.827 186.58 125.693 186.087 125.693 185.5C125.693 184.753 125.933 184.147 126.413 183.68C126.893 183.2 127.58 182.873 128.473 182.7L132.233 181.94L132.213 183.64L129.813 184.12C129.36 184.213 129.013 184.34 128.773 184.5C128.547 184.647 128.433 184.893 128.433 185.24C128.433 185.573 128.553 185.827 128.793 186C129.047 186.173 129.347 186.26 129.693 186.26C129.973 186.26 130.247 186.227 130.513 186.16C130.78 186.093 131.02 185.987 131.233 185.84C131.447 185.693 131.613 185.493 131.733 185.24C131.853 184.987 131.913 184.68 131.913 184.32V181.62ZM140.847 174.94V184.74C140.847 185.22 140.967 185.573 141.207 185.8C141.461 186.013 141.801 186.12 142.227 186.12C142.561 186.12 142.854 186.073 143.107 185.98C143.361 185.873 143.587 185.733 143.787 185.56L144.227 187.38C143.907 187.633 143.507 187.833 143.027 187.98C142.547 188.127 142.041 188.2 141.507 188.2C140.841 188.2 140.247 188.1 139.727 187.9C139.221 187.7 138.821 187.38 138.527 186.94C138.247 186.5 138.107 185.913 138.107 185.18V175.7L140.847 174.94ZM144.047 178V180.04H136.267V178H144.047ZM150.441 177.8C151.334 177.8 152.088 177.933 152.701 178.2C153.328 178.453 153.828 178.807 154.201 179.26C154.588 179.7 154.861 180.193 155.021 180.74L152.461 181.66C152.328 181.06 152.101 180.607 151.781 180.3C151.461 179.993 151.028 179.84 150.481 179.84C149.974 179.84 149.541 179.96 149.181 180.2C148.821 180.427 148.548 180.78 148.361 181.26C148.174 181.727 148.081 182.313 148.081 183.02C148.081 183.727 148.174 184.313 148.361 184.78C148.561 185.247 148.841 185.593 149.201 185.82C149.574 186.047 150.008 186.16 150.501 186.16C150.901 186.16 151.241 186.093 151.521 185.96C151.801 185.813 152.028 185.607 152.201 185.34C152.388 185.073 152.514 184.753 152.581 184.38L155.061 185.18C154.914 185.78 154.641 186.307 154.241 186.76C153.841 187.213 153.328 187.567 152.701 187.82C152.074 188.073 151.348 188.2 150.521 188.2C149.494 188.2 148.588 187.993 147.801 187.58C147.014 187.167 146.408 186.573 145.981 185.8C145.554 185.027 145.341 184.093 145.341 183C145.341 181.907 145.554 180.973 145.981 180.2C146.408 179.427 147.008 178.833 147.781 178.42C148.554 178.007 149.441 177.8 150.441 177.8ZM157.19 188V173.62H159.93V179.7C160.25 179.06 160.69 178.587 161.25 178.28C161.81 177.96 162.443 177.8 163.15 177.8C163.843 177.8 164.457 177.933 164.99 178.2C165.537 178.467 165.963 178.873 166.27 179.42C166.59 179.953 166.75 180.627 166.75 181.44V188H164.01V182.24C164.01 181.373 163.843 180.78 163.51 180.46C163.177 180.127 162.75 179.96 162.23 179.96C161.843 179.96 161.47 180.053 161.11 180.24C160.763 180.413 160.477 180.707 160.25 181.12C160.037 181.52 159.93 182.053 159.93 182.72V188H157.19ZM174.213 188.2C173.159 188.2 172.239 187.993 171.453 187.58C170.679 187.167 170.079 186.573 169.653 185.8C169.226 185.027 169.013 184.093 169.013 183C169.013 181.907 169.226 180.973 169.653 180.2C170.079 179.427 170.673 178.833 171.433 178.42C172.206 178.007 173.086 177.8 174.073 177.8C175.086 177.8 175.946 178.007 176.653 178.42C177.359 178.82 177.899 179.373 178.273 180.08C178.646 180.773 178.833 181.567 178.833 182.46C178.833 182.727 178.826 182.98 178.813 183.22C178.799 183.46 178.779 183.673 178.753 183.86H170.773V181.96H177.553L176.233 182.44C176.233 181.6 176.039 180.953 175.653 180.5C175.279 180.047 174.746 179.82 174.053 179.82C173.546 179.82 173.106 179.94 172.733 180.18C172.373 180.42 172.099 180.78 171.913 181.26C171.726 181.727 171.633 182.32 171.633 183.04C171.633 183.747 171.733 184.333 171.933 184.8C172.146 185.253 172.439 185.593 172.813 185.82C173.199 186.047 173.659 186.16 174.193 186.16C174.779 186.16 175.253 186.047 175.613 185.82C175.973 185.593 176.253 185.28 176.453 184.88L178.633 185.72C178.419 186.24 178.093 186.687 177.653 187.06C177.226 187.433 176.713 187.72 176.113 187.92C175.526 188.107 174.893 188.2 174.213 188.2ZM185.155 188.2C184.142 188.2 183.215 188.02 182.375 187.66C181.548 187.3 180.875 186.793 180.355 186.14L181.935 184.54C182.255 185.02 182.682 185.413 183.215 185.72C183.748 186.027 184.382 186.18 185.115 186.18C185.635 186.18 186.048 186.107 186.355 185.96C186.675 185.8 186.835 185.553 186.835 185.22C186.835 185.007 186.762 184.827 186.615 184.68C186.468 184.52 186.175 184.393 185.735 184.3L183.975 183.94C182.815 183.7 181.988 183.34 181.495 182.86C181.015 182.367 180.775 181.733 180.775 180.96C180.775 180.413 180.935 179.9 181.255 179.42C181.588 178.94 182.082 178.553 182.735 178.26C183.388 177.953 184.202 177.8 185.175 177.8C186.175 177.8 187.042 177.96 187.775 178.28C188.522 178.587 189.108 179.047 189.535 179.66L187.895 181.26C187.602 180.793 187.215 180.44 186.735 180.2C186.268 179.947 185.775 179.82 185.255 179.82C184.882 179.82 184.562 179.86 184.295 179.94C184.028 180.02 183.828 180.133 183.695 180.28C183.562 180.413 183.495 180.587 183.495 180.8C183.495 181.013 183.588 181.2 183.775 181.36C183.962 181.507 184.302 181.633 184.795 181.74L186.835 182.16C187.822 182.36 188.528 182.7 188.955 183.18C189.382 183.647 189.595 184.213 189.595 184.88C189.595 185.52 189.422 186.093 189.075 186.6C188.742 187.093 188.242 187.487 187.575 187.78C186.922 188.06 186.115 188.2 185.155 188.2ZM208.053 177.02H200.933V180.38H206.553V182.6H200.933V188H198.173V174.8H208.053V177.02ZM213.684 177.8C214.697 177.8 215.584 178.007 216.344 178.42C217.117 178.833 217.717 179.427 218.144 180.2C218.584 180.973 218.804 181.907 218.804 183C218.804 184.08 218.584 185.013 218.144 185.8C217.717 186.573 217.117 187.167 216.344 187.58C215.584 187.993 214.697 188.2 213.684 188.2C212.684 188.2 211.797 187.993 211.024 187.58C210.25 187.167 209.644 186.573 209.204 185.8C208.777 185.013 208.564 184.08 208.564 183C208.564 181.907 208.777 180.973 209.204 180.2C209.644 179.427 210.25 178.833 211.024 178.42C211.797 178.007 212.684 177.8 213.684 177.8ZM213.684 179.84C213.177 179.84 212.744 179.96 212.384 180.2C212.037 180.427 211.77 180.773 211.584 181.24C211.397 181.707 211.304 182.293 211.304 183C211.304 183.707 211.397 184.293 211.584 184.76C211.77 185.227 212.037 185.58 212.384 185.82C212.744 186.047 213.177 186.16 213.684 186.16C214.177 186.16 214.597 186.047 214.944 185.82C215.304 185.58 215.577 185.227 215.764 184.76C215.95 184.293 216.044 183.707 216.044 183C216.044 182.293 215.95 181.707 215.764 181.24C215.577 180.773 215.304 180.427 214.944 180.2C214.597 179.96 214.177 179.84 213.684 179.84ZM224.576 188.2C223.91 188.2 223.31 188.08 222.776 187.84C222.243 187.6 221.816 187.22 221.496 186.7C221.19 186.167 221.036 185.48 221.036 184.64V178H223.776V183.98C223.776 184.753 223.936 185.293 224.256 185.6C224.576 185.893 225.036 186.04 225.636 186.04C225.916 186.04 226.19 185.993 226.456 185.9C226.723 185.793 226.956 185.633 227.156 185.42C227.37 185.207 227.536 184.933 227.656 184.6C227.776 184.253 227.836 183.847 227.836 183.38V178H230.576V188H228.136L228.036 186.26C227.703 186.927 227.243 187.42 226.656 187.74C226.083 188.047 225.39 188.2 224.576 188.2ZM233.46 188V178H235.92L236.08 181L235.74 180.68C235.9 180.027 236.153 179.487 236.5 179.06C236.846 178.633 237.266 178.32 237.76 178.12C238.266 177.907 238.82 177.8 239.42 177.8C240.113 177.8 240.726 177.933 241.26 178.2C241.806 178.467 242.233 178.873 242.54 179.42C242.86 179.953 243.02 180.627 243.02 181.44V188H240.28V182.22C240.28 181.367 240.113 180.78 239.78 180.46C239.446 180.127 239.013 179.96 238.48 179.96C238.106 179.96 237.74 180.053 237.38 180.24C237.033 180.413 236.746 180.7 236.52 181.1C236.306 181.5 236.2 182.033 236.2 182.7V188H233.46ZM249.622 188.2C248.796 188.2 248.056 187.993 247.402 187.58C246.762 187.167 246.256 186.573 245.882 185.8C245.522 185.027 245.342 184.1 245.342 183.02C245.342 181.913 245.536 180.973 245.922 180.2C246.309 179.413 246.829 178.82 247.482 178.42C248.149 178.007 248.896 177.8 249.722 177.8C250.602 177.8 251.329 178.053 251.902 178.56C252.476 179.067 252.849 179.72 253.022 180.52L252.762 180.84V173.62H255.502V188H253.042L252.862 184.96L253.202 185.12C253.109 185.747 252.896 186.293 252.562 186.76C252.229 187.213 251.809 187.567 251.302 187.82C250.796 188.073 250.236 188.2 249.622 188.2ZM250.422 186.1C250.902 186.1 251.316 185.98 251.662 185.74C252.009 185.487 252.276 185.12 252.462 184.64C252.662 184.16 252.762 183.587 252.762 182.92C252.762 182.28 252.669 181.74 252.482 181.3C252.296 180.847 252.029 180.5 251.682 180.26C251.336 180.02 250.929 179.9 250.462 179.9C249.716 179.9 249.129 180.167 248.702 180.7C248.289 181.22 248.082 181.987 248.082 183C248.082 184.013 248.289 184.787 248.702 185.32C249.116 185.84 249.689 186.1 250.422 186.1Z" fill="#FEFEFA"/>
<path d="M157.933 160V139.936C157.933 139.2 157.933 138.448 157.933 137.68C157.965 136.88 157.997 136.064 158.029 135.232C156.941 136.224 155.725 137.088 154.381 137.824C153.037 138.56 151.661 139.072 150.253 139.36L149.389 133.792C150.125 133.728 150.941 133.52 151.837 133.168C152.765 132.784 153.693 132.336 154.621 131.824C155.581 131.28 156.445 130.72 157.213 130.144C158.013 129.536 158.621 128.928 159.037 128.32H164.413V160H157.933ZM182.701 160.48C179.533 160.48 176.829 159.824 174.589 158.512C172.381 157.168 170.861 155.248 170.029 152.752L176.269 150.016C176.493 151.168 176.861 152.128 177.373 152.896C177.885 153.632 178.573 154.192 179.437 154.576C180.333 154.96 181.389 155.152 182.605 155.152C183.693 155.152 184.605 154.96 185.341 154.576C186.109 154.192 186.701 153.648 187.117 152.944C187.533 152.24 187.741 151.44 187.741 150.544C187.741 149.584 187.549 148.8 187.165 148.192C186.813 147.584 186.269 147.152 185.533 146.896C184.797 146.608 183.869 146.464 182.749 146.464C182.333 146.464 181.933 146.48 181.549 146.512C181.197 146.512 180.797 146.544 180.349 146.608V141.76C180.605 141.792 180.861 141.824 181.117 141.856C181.405 141.856 181.693 141.856 181.981 141.856C183.773 141.856 185.053 141.504 185.821 140.8C186.621 140.064 187.021 138.896 187.021 137.296C187.021 135.984 186.621 134.976 185.821 134.272C185.053 133.536 183.949 133.168 182.509 133.168C180.973 133.168 179.757 133.552 178.861 134.32C177.965 135.056 177.341 136.192 176.989 137.728L171.085 135.52C171.469 133.92 172.205 132.544 173.293 131.392C174.413 130.24 175.789 129.36 177.421 128.752C179.053 128.112 180.861 127.792 182.845 127.792C185.213 127.792 187.181 128.16 188.749 128.896C190.349 129.632 191.549 130.64 192.349 131.92C193.181 133.2 193.597 134.672 193.597 136.336C193.597 137.648 193.389 138.768 192.973 139.696C192.589 140.592 192.077 141.36 191.437 142C190.829 142.608 190.189 143.072 189.517 143.392C188.845 143.712 188.221 143.904 187.645 143.968V144.112C188.381 144.144 189.133 144.304 189.901 144.592C190.669 144.848 191.373 145.248 192.013 145.792C192.685 146.336 193.229 147.04 193.645 147.904C194.061 148.736 194.269 149.728 194.269 150.88C194.269 152.8 193.757 154.496 192.733 155.968C191.741 157.408 190.381 158.528 188.653 159.328C186.925 160.096 184.941 160.48 182.701 160.48ZM196.844 128.32H221.948V133.36C219.292 136.016 217.18 138.752 215.612 141.568C214.044 144.384 212.908 147.312 212.204 150.352C211.532 153.392 211.196 156.608 211.196 160H204.62C204.62 156.48 205.052 153.104 205.916 149.872C206.812 146.608 208.172 143.504 209.996 140.56C211.852 137.584 214.204 134.736 217.052 132.016L218.396 133.744H196.844V128.32Z" fill="#FEFEFA"/>
</g>
<ellipse cx="296.5" cy="57" rx="5.5" ry="5" fill="#E2E6FE"/>
<defs>
<filter id="filter0_dd_231_865" x="0" y="0" width="366.15" height="286.325" filterUnits="userSpaceOnUse" color-interpolation-filters="sRGB">
<feFlood flood-opacity="0" result="BackgroundImageFix"/>
<feColorMatrix in="SourceAlpha" type="matrix" values="0 0 0 0 0 0 0 0 0 0 0 0 0 0 0 0 0 0 127 0" result="hardAlpha"/>
<feMorphology radius="4" operator="erode" in="SourceAlpha" result="effect1_dropShadow_231_865"/>
<feOffset dy="-6"/>
<feGaussianBlur stdDeviation="44"/>
<feColorMatrix type="matrix" values="0 0 0 0 0.0627451 0 0 0 0 0.0941176 0 0 0 0 0.156863 0 0 0 0.03 0"/>
<feBlend mode="normal" in2="BackgroundImageFix" result="effect1_dropShadow_231_865"/>
<feColorMatrix in="SourceAlpha" type="matrix" values="0 0 0 0 0 0 0 0 0 0 0 0 0 0 0 0 0 0 127 0" result="hardAlpha"/>
<feMorphology radius="4" operator="erode" in="SourceAlpha" result="effect2_dropShadow_231_865"/>
<feOffset dy="20"/>
<feGaussianBlur stdDeviation="17"/>
<feColorMatrix type="matrix" values="0 0 0 0 0.0627451 0 0 0 0 0.0941176 0 0 0 0 0.156863 0 0 0 0.08 0"/>
<feBlend mode="normal" in2="effect1_dropShadow_231_865" result="effect2_dropShadow_231_865"/>
<feBlend mode="normal" in="SourceGraphic" in2="effect2_dropShadow_231_865" result="shape"/>
</filter>
</defs>
</svg>
