<svg width="64" height="46" viewBox="0 0 64 46" fill="none" xmlns="http://www.w3.org/2000/svg">
<path d="M41.1891 7.59008C41.1939 7.73027 41.1601 7.8684 41.0917 7.99064L40.0509 9.85047C40.0427 9.86566 40.0337 9.88016 40.0233 9.89467L36.7781 14.5087C36.7574 14.5391 36.7332 14.566 36.7063 14.5909L35.8009 15.4182C35.7422 15.4721 35.6966 15.5391 35.6683 15.6144L34.2028 19.5557C34.1973 19.5709 34.1917 19.5868 34.1876 19.6027L32.1641 27.2526C32.1061 27.4722 31.9058 27.6263 31.6786 27.6263C31.4514 27.6263 31.2511 27.4722 31.1931 27.2526L29.1696 19.6027C29.1654 19.5868 29.1606 19.5709 29.1544 19.5557L27.6889 15.6144C27.6613 15.5398 27.6157 15.4721 27.5563 15.4182L26.6509 14.5909C26.624 14.566 26.5998 14.5391 26.5791 14.5087L23.3339 9.89467C23.3235 9.88016 23.3145 9.86566 23.3062 9.85047L22.2696 7.99823C22.1985 7.87185 22.1653 7.72751 22.1729 7.58248L22.2696 5.74751C22.2745 5.65911 22.2938 5.57209 22.3269 5.48991L24.4395 0.266776C24.4458 0.250892 24.454 0.235008 24.4637 0.220505C24.751 -0.206296 25.4313 0.0305855 25.3788 0.554073L25.0411 6.07763C25.0217 6.27238 25.117 6.46161 25.2862 6.56037L26.2448 7.1246C26.2773 7.14325 26.3077 7.16604 26.3346 7.19228L28.3312 9.07767C28.5308 9.2669 28.8457 9.25999 29.037 9.06178L29.8671 8.20473C29.9514 8.11771 30.0011 8.00307 30.0073 7.8829V7.87185C30.0121 7.79519 30.0342 7.7206 30.0715 7.65361L31.24 5.56726C31.432 5.22471 31.9251 5.22471 32.1164 5.56726L33.285 7.65361C33.3223 7.7206 33.3437 7.79519 33.3485 7.87185V7.8829C33.3561 8.00376 33.4058 8.1184 33.4894 8.20473L34.3195 9.06178C34.5108 9.25999 34.8257 9.2669 35.0253 9.07767L37.0219 7.19228C37.0495 7.16604 37.0792 7.14325 37.1117 7.1246L38.0702 6.56037C38.2394 6.46092 38.3354 6.27238 38.3154 6.07763L37.9777 0.554073C37.9542 0.321335 38.0965 0.101719 38.3175 0.027823C38.5309 -0.0440012 38.7664 0.036801 38.8921 0.221196C38.9018 0.235699 38.9093 0.250892 38.9163 0.267467C39.6241 2.01749 40.332 3.76751 41.0406 5.51754C41.0682 5.58591 41.0855 5.65704 41.0931 5.73025C41.14 6.19503 41.1746 7.16051 41.1891 7.59008Z" fill="#FEFEFA"/>
<path d="M5.46457 40.6236C5.40969 40.4385 5.3326 40.275 5.23329 40.1331C5.13398 39.9886 5.01246 39.8669 4.86872 39.7681C4.7276 39.6667 4.56557 39.5894 4.38264 39.5361C4.20231 39.4829 4.00239 39.4563 3.78287 39.4563C3.37256 39.4563 3.01192 39.5551 2.70093 39.7529C2.39255 39.9506 2.15212 40.2383 1.97963 40.616C1.80715 40.9911 1.72091 41.4499 1.72091 41.9924C1.72091 42.5349 1.80584 42.9962 1.97571 43.3764C2.14558 43.7567 2.38601 44.0469 2.69701 44.2471C3.008 44.4449 3.37518 44.5437 3.79855 44.5437C4.18271 44.5437 4.51069 44.4778 4.78248 44.346C5.05689 44.2117 5.26596 44.0228 5.40969 43.7795C5.55604 43.5361 5.62922 43.2484 5.62922 42.9163L5.97418 42.9658H3.90439V41.7262H7.26389V42.7072C7.26389 43.3916 7.11492 43.9797 6.817 44.4715C6.51907 44.9607 6.10877 45.3384 5.5861 45.6046C5.06342 45.8682 4.46496 46 3.79071 46C3.03805 46 2.37687 45.839 1.80715 45.5171C1.23743 45.1926 0.79316 44.7326 0.474328 44.1369C0.158109 43.5387 0 42.8289 0 42.0076C0 41.3764 0.0940816 40.8137 0.282245 40.3194C0.473021 39.8226 0.739586 39.4018 1.08194 39.057C1.42429 38.7123 1.82283 38.4499 2.27756 38.27C2.73229 38.09 3.22491 38 3.75542 38C4.21015 38 4.63352 38.0646 5.02553 38.1939C5.41753 38.3207 5.76511 38.5006 6.06826 38.7338C6.37403 38.967 6.62361 39.2446 6.817 39.5665C7.01039 39.8859 7.13452 40.2383 7.1894 40.6236H5.46457Z" fill="#FEFEFA"/>
<path d="M8.53889 45.8935V38.1065H11.7063C12.3126 38.1065 12.8301 38.2117 13.2586 38.4221C13.6899 38.6299 14.0178 38.9252 14.2426 39.308C14.4699 39.6882 14.5836 40.1356 14.5836 40.6502C14.5836 41.1673 14.4686 41.6122 14.2387 41.9848C14.0087 42.3549 13.6755 42.6388 13.239 42.8365C12.8052 43.0342 12.2799 43.1331 11.6632 43.1331H9.54242V41.8099H11.3888C11.7128 41.8099 11.982 41.7668 12.1963 41.6806C12.4106 41.5944 12.57 41.4651 12.6746 41.2928C12.7817 41.1204 12.8353 40.9062 12.8353 40.6502C12.8353 40.3916 12.7817 40.1736 12.6746 39.9962C12.57 39.8188 12.4093 39.6844 12.1924 39.5932C11.9781 39.4994 11.7076 39.4525 11.3809 39.4525H10.2363V45.8935H8.53889ZM12.8745 42.3498L14.8698 45.8935H12.996L11.0438 42.3498H12.8745Z" fill="#FEFEFA"/>
<path d="M17.167 45.8935H15.348L18.1195 38.1065H20.3069L23.0745 45.8935H21.2556L19.2446 39.8859H19.1819L17.167 45.8935ZM17.0533 42.8327H21.3497V44.1179H17.0533V42.8327Z" fill="#FEFEFA"/>
<path d="M22.7511 38.1065H24.6523L26.483 41.4601H26.5614L28.3921 38.1065H30.2933L27.365 43.1407V45.8935H25.6794V43.1407L22.7511 38.1065Z" fill="#FEFEFA"/>
<path d="M40.8589 40.8327H39.1419C39.1105 40.6172 39.0465 40.4259 38.9498 40.2586C38.8531 40.0887 38.729 39.9442 38.5774 39.8251C38.4258 39.706 38.2507 39.6147 38.0521 39.5513C37.8561 39.488 37.6431 39.4563 37.4131 39.4563C36.9976 39.4563 36.6356 39.5564 36.3273 39.7567C36.0189 39.9544 35.7798 40.2433 35.6099 40.6236C35.44 41.0013 35.3551 41.4601 35.3551 42C35.3551 42.5551 35.44 43.0215 35.6099 43.3992C35.7824 43.7769 36.0228 44.0621 36.3312 44.2548C36.6396 44.4474 36.9963 44.5437 37.4014 44.5437C37.6287 44.5437 37.8391 44.5146 38.0325 44.4563C38.2285 44.398 38.4023 44.3131 38.5539 44.2015C38.7054 44.0875 38.8309 43.9493 38.9302 43.7871C39.0321 43.6248 39.1027 43.4398 39.1419 43.2319L40.8589 43.2395C40.8144 43.597 40.7034 43.9417 40.5257 44.2738C40.3506 44.6033 40.114 44.8986 39.8161 45.1597C39.5208 45.4183 39.168 45.6236 38.7577 45.7757C38.35 45.9252 37.8888 46 37.3739 46C36.6579 46 36.0176 45.8428 35.4531 45.5285C34.8912 45.2142 34.4469 44.7592 34.1203 44.1635C33.7962 43.5678 33.6342 42.8466 33.6342 42C33.6342 41.1508 33.7988 40.4284 34.1281 39.8327C34.4574 39.237 34.9043 38.7833 35.4688 38.4715C36.0333 38.1572 36.6683 38 37.3739 38C37.8391 38 38.2703 38.0634 38.6675 38.1901C39.0674 38.3169 39.4215 38.5019 39.7299 38.7452C40.0383 38.9861 40.2891 39.2814 40.4825 39.6312C40.6785 39.981 40.804 40.3815 40.8589 40.8327Z" fill="#FEFEFA"/>
<path d="M49.4536 42C49.4536 42.8492 49.2877 43.5716 48.9558 44.1673C48.6265 44.763 48.177 45.218 47.6073 45.5323C47.0401 45.8441 46.4025 46 45.6943 46C44.9808 46 44.3405 45.8428 43.7734 45.5285C43.2063 45.2142 42.7581 44.7592 42.4288 44.1635C42.0996 43.5678 41.9349 42.8466 41.9349 42C41.9349 41.1508 42.0996 40.4284 42.4288 39.8327C42.7581 39.237 43.2063 38.7833 43.7734 38.4715C44.3405 38.1572 44.9808 38 45.6943 38C46.4025 38 47.0401 38.1572 47.6073 38.4715C48.177 38.7833 48.6265 39.237 48.9558 39.8327C49.2877 40.4284 49.4536 41.1508 49.4536 42ZM47.7327 42C47.7327 41.4499 47.6478 40.9861 47.4779 40.6084C47.3106 40.2307 47.0741 39.9442 46.7684 39.749C46.4626 39.5539 46.1046 39.4563 45.6943 39.4563C45.284 39.4563 44.9259 39.5539 44.6202 39.749C44.3144 39.9442 44.0766 40.2307 43.9067 40.6084C43.7395 40.9861 43.6558 41.4499 43.6558 42C43.6558 42.5501 43.7395 43.0139 43.9067 43.3916C44.0766 43.7693 44.3144 44.0558 44.6202 44.251C44.9259 44.4461 45.284 44.5437 45.6943 44.5437C46.1046 44.5437 46.4626 44.4461 46.7684 44.251C47.0741 44.0558 47.3106 43.7693 47.4779 43.3916C47.6478 43.0139 47.7327 42.5501 47.7327 42Z" fill="#FEFEFA"/>
<path d="M50.711 45.8935V38.1065H53.8784C54.4847 38.1065 55.0021 38.2117 55.4307 38.4221C55.8619 38.6299 56.1899 38.9252 56.4147 39.308C56.642 39.6882 56.7557 40.1356 56.7557 40.6502C56.7557 41.1673 56.6407 41.6122 56.4107 41.9848C56.1808 42.3549 55.8476 42.6388 55.4111 42.8365C54.9773 43.0342 54.452 43.1331 53.8353 43.1331H51.7145V41.8099H53.5609C53.8849 41.8099 54.1541 41.7668 54.3684 41.6806C54.5827 41.5944 54.7421 41.4651 54.8466 41.2928C54.9538 41.1204 55.0074 40.9062 55.0074 40.6502C55.0074 40.3916 54.9538 40.1736 54.8466 39.9962C54.7421 39.8188 54.5814 39.6844 54.3645 39.5932C54.1502 39.4994 53.8797 39.4525 53.553 39.4525H52.4084V45.8935H50.711ZM55.0466 42.3498L57.0419 45.8935H55.1681L53.2159 42.3498H55.0466Z" fill="#FEFEFA"/>
<path d="M57.9552 45.8935V38.1065H61.1227C61.7316 38.1065 62.2503 38.2193 62.6789 38.4449C63.1075 38.6679 63.4342 38.9785 63.6589 39.3764C63.8863 39.7719 64 40.2281 64 40.7452C64 41.2624 63.885 41.7186 63.655 42.1141C63.4251 42.5095 63.0918 42.8175 62.6554 43.038C62.2216 43.2586 61.6963 43.3688 61.0795 43.3688H59.0607V42.0494H60.8051C61.1318 42.0494 61.401 41.9949 61.6127 41.8859C61.827 41.7744 61.9864 41.621 62.0909 41.4259C62.1981 41.2281 62.2516 41.0013 62.2516 40.7452C62.2516 40.4867 62.1981 40.2611 62.0909 40.0684C61.9864 39.8733 61.827 39.7224 61.6127 39.616C61.3984 39.507 61.1266 39.4525 60.7973 39.4525H59.6526V45.8935H57.9552Z" fill="#FEFEFA"/>
</svg>
