<svg width="18" height="18" viewBox="0 0 18 18" fill="none" xmlns="http://www.w3.org/2000/svg">
<path fill-rule="evenodd" clip-rule="evenodd" d="M4.10837 4.27183C4.64377 3.65829 5.36982 3.31362 6.12687 3.31362C6.88392 3.31362 7.60997 3.65829 8.14537 4.27183L8.98189 5.22992L9.81841 4.27183C10.0818 3.95925 10.3968 3.70993 10.7451 3.53841C11.0935 3.36689 11.4681 3.2766 11.8472 3.27283C12.2263 3.26905 12.6022 3.35186 12.9531 3.51641C13.304 3.68097 13.6227 3.92398 13.8908 4.23126C14.1589 4.53855 14.3709 4.90396 14.5144 5.30616C14.658 5.70837 14.7302 6.13932 14.7269 6.57387C14.7236 7.00842 14.6448 7.43787 14.4952 7.83715C14.3456 8.23644 14.1281 8.59757 13.8554 8.89947L8.98189 14.4868L4.10837 8.89947C3.57314 8.28574 3.27246 7.45346 3.27246 6.58565C3.27246 5.71784 3.57314 4.88556 4.10837 4.27183Z" fill="#666666"/>
</svg>
