<svg width="65" height="65" viewBox="0 0 65 65" fill="none" xmlns="http://www.w3.org/2000/svg">
<rect x="0.5" y="0.5" width="64" height="64" rx="14.5" fill="#F5F5F7" stroke="#ECECEC"/>
<path d="M37.3074 32H28.6922C27.9782 32 27.2934 31.7165 26.7885 31.2117C26.2836 30.707 26 30.0224 26 29.3086V21.7728C26 21.63 26.0567 21.4931 26.1577 21.3922C26.2587 21.2912 26.3956 21.2345 26.5384 21.2345H37.3074C38.0214 21.2345 38.7062 21.5181 39.2111 22.0228C39.716 22.5275 39.9996 23.2121 39.9996 23.9259V29.3086C39.9996 30.0224 39.716 30.707 39.2111 31.2117C38.7062 31.7165 38.0214 32 37.3074 32ZM27.0769 22.311V29.3086C27.0769 29.7369 27.2471 30.1477 27.55 30.4505C27.8529 30.7533 28.2638 30.9235 28.6922 30.9235H37.3074C37.7358 30.9235 38.1466 30.7533 38.4496 30.4505C38.7525 30.1477 38.9227 29.7369 38.9227 29.3086V23.9259C38.9227 23.4976 38.7525 23.0869 38.4496 22.784C38.1466 22.4812 37.7358 22.311 37.3074 22.311H27.0769Z" fill="#666666"/>
<path d="M38.3843 22.3111C38.2415 22.3111 38.1046 22.2543 38.0036 22.1534C37.9026 22.0524 37.8459 21.9155 37.8459 21.7728V20.2925C37.8562 20.104 37.8238 19.9155 37.7511 19.7412C37.6783 19.5669 37.5672 19.4113 37.4259 19.2859C37.2989 19.1909 37.152 19.1259 36.9962 19.0961C36.8404 19.0662 36.6798 19.0723 36.5267 19.1137L27.4969 21.1645C27.3755 21.1919 27.2672 21.2604 27.1907 21.3586C27.1141 21.4567 27.0739 21.5784 27.077 21.7028C27.077 21.8456 27.0202 21.9825 26.9192 22.0834C26.8183 22.1844 26.6813 22.2411 26.5385 22.2411C26.3957 22.2411 26.2587 22.1844 26.1578 22.0834C26.0568 21.9825 26.0001 21.8456 26.0001 21.7028C25.9969 21.3348 26.1196 20.9768 26.3477 20.688C26.5759 20.3993 26.8958 20.1971 27.2546 20.1149L36.2898 18.0641C36.6005 17.9855 36.9251 17.9791 37.2387 18.0454C37.5523 18.1116 37.8466 18.2487 38.0989 18.4462C38.3658 18.6727 38.5784 18.9561 38.721 19.2757C38.8636 19.5952 38.9325 19.9427 38.9228 20.2925V21.7728C38.9228 21.9155 38.866 22.0524 38.7651 22.1534C38.6641 22.2543 38.5271 22.3111 38.3843 22.3111Z" fill="#666666"/>
<path d="M39.462 28.7703H35.6928C35.1216 28.7703 34.5738 28.5435 34.1699 28.1397C33.766 27.7359 33.5391 27.1883 33.5391 26.6172C33.5391 26.0462 33.766 25.4985 34.1699 25.0947C34.5738 24.691 35.1216 24.4641 35.6928 24.4641H39.462C39.6048 24.4641 39.7417 24.5208 39.8427 24.6218C39.9437 24.7227 40.0004 24.8596 40.0004 25.0024V28.232C40.0004 28.3748 39.9437 28.5117 39.8427 28.6127C39.7417 28.7136 39.6048 28.7703 39.462 28.7703ZM35.6928 25.5407C35.4072 25.5407 35.1333 25.6541 34.9314 25.856C34.7294 26.0579 34.616 26.3317 34.616 26.6172C34.616 26.9027 34.7294 27.1766 34.9314 27.3785C35.1333 27.5803 35.4072 27.6938 35.6928 27.6938H38.9235V25.5407H35.6928Z" fill="#666666"/>
<path d="M19.0176 40.72C19.3856 40.72 19.7029 40.784 19.9696 40.912C20.2363 41.0347 20.4416 41.2107 20.5856 41.44C20.7349 41.6693 20.8096 41.944 20.8096 42.264C20.8096 42.5893 20.7349 42.8667 20.5856 43.096C20.4416 43.3253 20.2363 43.504 19.9696 43.632C19.7029 43.7547 19.3856 43.816 19.0176 43.816H17.6656V46H17.2656V40.72H19.0176ZM18.9696 43.44C19.4336 43.44 19.7856 43.3387 20.0256 43.136C20.2656 42.928 20.3856 42.6373 20.3856 42.264C20.3856 41.8907 20.2656 41.6027 20.0256 41.4C19.7856 41.192 19.4336 41.088 18.9696 41.088H17.6656V43.44H18.9696ZM24.2733 43.368C24.2733 43.0213 24.1799 42.752 23.9933 42.56C23.8066 42.368 23.5399 42.272 23.1933 42.272C22.8893 42.272 22.6279 42.3387 22.4093 42.472C22.1906 42.6 22.0279 42.816 21.9213 43.12L21.5933 42.912C21.7106 42.5973 21.9053 42.3547 22.1773 42.184C22.4546 42.008 22.7959 41.92 23.2013 41.92C23.4946 41.92 23.7506 41.9733 23.9693 42.08C24.1933 42.1813 24.3666 42.3333 24.4893 42.536C24.6119 42.7387 24.6733 42.992 24.6733 43.296V45.296C24.6733 45.5787 24.8013 45.72 25.0573 45.72C25.1693 45.72 25.2653 45.7013 25.3453 45.664L25.3213 45.984C25.2306 46.032 25.1133 46.056 24.9693 46.056C24.8466 46.056 24.7319 46.032 24.6253 45.984C24.5186 45.936 24.4306 45.856 24.3613 45.744C24.2973 45.632 24.2653 45.48 24.2653 45.288V45.072L24.3773 45.064C24.3293 45.2933 24.2226 45.4853 24.0573 45.64C23.8973 45.7893 23.7106 45.9013 23.4973 45.976C23.2839 46.0453 23.0706 46.08 22.8573 46.08C22.6066 46.08 22.3826 46.04 22.1853 45.96C21.9879 45.88 21.8333 45.7653 21.7213 45.616C21.6093 45.4613 21.5533 45.272 21.5533 45.048C21.5533 44.7493 21.6519 44.5093 21.8493 44.328C22.0519 44.1413 22.3346 44.0133 22.6973 43.944L24.3533 43.616V43.952L22.8973 44.24C22.5826 44.304 22.3479 44.3973 22.1933 44.52C22.0386 44.6427 21.9613 44.8107 21.9613 45.024C21.9613 45.2427 22.0439 45.416 22.2093 45.544C22.3746 45.6667 22.6093 45.728 22.9133 45.728C23.0679 45.728 23.2253 45.7067 23.3853 45.664C23.5453 45.6213 23.6919 45.5547 23.8253 45.464C23.9639 45.368 24.0733 45.2507 24.1533 45.112C24.2333 44.968 24.2733 44.7947 24.2733 44.592V43.368ZM29.1335 42L27.1975 46.736C27.1015 46.9813 26.9975 47.176 26.8855 47.32C26.7735 47.464 26.6482 47.5653 26.5095 47.624C26.3709 47.688 26.2109 47.72 26.0295 47.72C25.8695 47.72 25.7229 47.696 25.5895 47.648C25.4562 47.6 25.3469 47.5333 25.2615 47.448L25.3895 47.104C25.4695 47.2 25.5655 47.2667 25.6775 47.304C25.7895 47.3467 25.9042 47.368 26.0215 47.368C26.1922 47.368 26.3442 47.3173 26.4775 47.216C26.6109 47.12 26.7362 46.928 26.8535 46.64L27.1175 46L26.6935 45.008L25.4295 42H25.8855L27.1095 45.032L27.3095 45.568L27.5255 44.992L28.7015 42H29.1335ZM29.9815 46V42H30.3415L30.3655 42.832C30.4829 42.544 30.6722 42.32 30.9335 42.16C31.2002 42 31.4962 41.92 31.8215 41.92C32.1682 41.92 32.4669 42.0027 32.7175 42.168C32.9735 42.3333 33.1495 42.576 33.2455 42.896C33.3149 42.6933 33.4269 42.52 33.5815 42.376C33.7362 42.2267 33.9175 42.112 34.1255 42.032C34.3335 41.952 34.5495 41.912 34.7735 41.912C35.0509 41.912 35.3015 41.968 35.5255 42.08C35.7549 42.1867 35.9362 42.352 36.0695 42.576C36.2082 42.7947 36.2775 43.0693 36.2775 43.4V45.992H35.8775V43.44C35.8775 43.0453 35.7709 42.752 35.5575 42.56C35.3495 42.3627 35.0722 42.264 34.7255 42.264C34.4749 42.264 34.2429 42.3253 34.0295 42.448C33.8162 42.5653 33.6455 42.7333 33.5175 42.952C33.3949 43.1653 33.3335 43.4133 33.3335 43.696V46H32.9335V43.448C32.9335 43.0533 32.8269 42.76 32.6135 42.568C32.4002 42.3707 32.1229 42.272 31.7815 42.272C31.5415 42.272 31.3149 42.3307 31.1015 42.448C30.8882 42.5653 30.7149 42.7333 30.5815 42.952C30.4482 43.1707 30.3815 43.432 30.3815 43.736V46H29.9815ZM39.2932 46.08C38.9252 46.08 38.5972 45.9973 38.3092 45.832C38.0212 45.6667 37.7946 45.4293 37.6292 45.12C37.4692 44.8053 37.3892 44.432 37.3892 44C37.3892 43.568 37.4692 43.1973 37.6292 42.888C37.7946 42.5733 38.0159 42.3333 38.2932 42.168C38.5706 42.0027 38.8879 41.92 39.2452 41.92C39.6079 41.92 39.9172 42 40.1732 42.16C40.4292 42.32 40.6266 42.544 40.7652 42.832C40.9039 43.1147 40.9732 43.4427 40.9732 43.816C40.9732 43.864 40.9706 43.912 40.9652 43.96C40.9652 44.0027 40.9626 44.0427 40.9572 44.08H37.6372V43.72H40.7812L40.5812 43.776C40.5759 43.3173 40.4532 42.952 40.2132 42.68C39.9786 42.408 39.6532 42.272 39.2372 42.272C38.9492 42.272 38.6959 42.3413 38.4772 42.48C38.2586 42.6133 38.0879 42.8107 37.9652 43.072C37.8426 43.328 37.7812 43.6373 37.7812 44C37.7812 44.3573 37.8426 44.6667 37.9652 44.928C38.0932 45.1893 38.2692 45.3893 38.4932 45.528C38.7226 45.6613 38.9866 45.728 39.2852 45.728C39.5946 45.728 39.8586 45.6613 40.0772 45.528C40.3012 45.3947 40.4746 45.2107 40.5972 44.976L40.9172 45.16C40.8212 45.352 40.6932 45.5173 40.5332 45.656C40.3732 45.7893 40.1892 45.8933 39.9812 45.968C39.7732 46.0427 39.5439 46.08 39.2932 46.08ZM42.1143 46V42H42.4743L42.5063 43L42.4423 42.944C42.517 42.7253 42.629 42.5413 42.7783 42.392C42.9277 42.2373 43.1063 42.12 43.3143 42.04C43.5223 41.96 43.7463 41.92 43.9863 41.92C44.285 41.92 44.549 41.976 44.7783 42.088C45.0077 42.2 45.1863 42.3653 45.3143 42.584C45.4477 42.8027 45.5143 43.0773 45.5143 43.408V46H45.1143V43.536C45.1143 43.0987 45.005 42.7787 44.7863 42.576C44.573 42.3733 44.293 42.272 43.9463 42.272C43.6957 42.272 43.461 42.3307 43.2423 42.448C43.029 42.56 42.853 42.7253 42.7143 42.944C42.581 43.1627 42.5143 43.4293 42.5143 43.744V46H42.1143ZM47.458 40.888V44.944C47.458 45.1947 47.5167 45.3867 47.634 45.52C47.7567 45.648 47.9327 45.712 48.162 45.712C48.3114 45.712 48.442 45.688 48.554 45.64C48.6714 45.5867 48.7754 45.512 48.866 45.416L49.018 45.744C48.9167 45.8453 48.7887 45.928 48.634 45.992C48.4794 46.0507 48.306 46.08 48.114 46.08C47.906 46.08 47.722 46.0427 47.562 45.968C47.402 45.888 47.2767 45.768 47.186 45.608C47.1007 45.448 47.058 45.2453 47.058 45V41L47.458 40.888ZM48.954 42V42.344H46.258V42H48.954ZM28.1617 49.72V55H27.7617V49.72H28.1617ZM29.6808 55V51H30.0408L30.0728 52L30.0088 51.944C30.0834 51.7253 30.1954 51.5413 30.3448 51.392C30.4941 51.2373 30.6728 51.12 30.8808 51.04C31.0888 50.96 31.3128 50.92 31.5528 50.92C31.8514 50.92 32.1154 50.976 32.3448 51.088C32.5741 51.2 32.7528 51.3653 32.8808 51.584C33.0141 51.8027 33.0807 52.0773 33.0807 52.408V55H32.6808V52.536C32.6808 52.0987 32.5714 51.7787 32.3528 51.576C32.1394 51.3733 31.8594 51.272 31.5128 51.272C31.2621 51.272 31.0274 51.3307 30.8088 51.448C30.5954 51.56 30.4194 51.7253 30.2808 51.944C30.1474 52.1627 30.0808 52.4293 30.0808 52.744V55H29.6808ZM35.8635 49.12C36.0075 49.12 36.1355 49.1387 36.2475 49.176C36.3595 49.2133 36.4475 49.2667 36.5115 49.336L36.3995 49.656C36.3302 49.592 36.2555 49.5467 36.1755 49.52C36.0955 49.4933 36.0022 49.48 35.8955 49.48C35.6342 49.48 35.4315 49.5547 35.2875 49.704C35.1435 49.8533 35.0715 50.0747 35.0715 50.368V51V51.144V55H34.6715V50.328C34.6715 50.1467 34.6955 49.9813 34.7435 49.832C34.7968 49.6827 34.8742 49.5573 34.9755 49.456C35.0768 49.3493 35.2022 49.2667 35.3515 49.208C35.5008 49.1493 35.6715 49.12 35.8635 49.12ZM36.4795 51V51.344H33.8715V51H36.4795ZM38.7346 50.92C39.108 50.92 39.436 51.0027 39.7186 51.168C40.0066 51.3333 40.2306 51.5733 40.3906 51.888C40.556 52.1973 40.6386 52.568 40.6386 53C40.6386 53.432 40.556 53.8053 40.3906 54.12C40.2306 54.4293 40.0066 54.6667 39.7186 54.832C39.436 54.9973 39.108 55.08 38.7346 55.08C38.3613 55.08 38.0306 54.9973 37.7426 54.832C37.46 54.6667 37.236 54.4293 37.0706 54.12C36.9106 53.8053 36.8306 53.432 36.8306 53C36.8306 52.568 36.9106 52.1973 37.0706 51.888C37.236 51.5733 37.46 51.3333 37.7426 51.168C38.0306 51.0027 38.3613 50.92 38.7346 50.92ZM38.7346 51.264C38.4306 51.264 38.1666 51.3333 37.9426 51.472C37.7186 51.6107 37.5426 51.8107 37.4146 52.072C37.292 52.328 37.2306 52.6373 37.2306 53C37.2306 53.3573 37.292 53.6667 37.4146 53.928C37.5426 54.1893 37.7186 54.3893 37.9426 54.528C38.1666 54.6667 38.4306 54.736 38.7346 54.736C39.0386 54.736 39.3026 54.6667 39.5266 54.528C39.7506 54.3893 39.924 54.1893 40.0466 53.928C40.1746 53.6667 40.2386 53.3573 40.2386 53C40.2386 52.6373 40.1746 52.328 40.0466 52.072C39.924 51.8107 39.7506 51.6107 39.5266 51.472C39.3026 51.3333 39.0386 51.264 38.7346 51.264Z" fill="#666666"/>
</svg>
