<svg width="30" height="30" viewBox="0 0 30 30" fill="none" xmlns="http://www.w3.org/2000/svg">
<circle cx="15" cy="15" r="15" fill="#7D67EE"/>
<g clip-path="url(#clip0_2619_1348)">
<path d="M23.2404 12.2C23.2404 11.6922 22.8282 11.28 22.3204 11.28C21.8126 11.28 21.4004 11.6922 21.4004 12.2C21.4004 12.419 21.4004 18.8811 21.4004 19.1C21.4004 19.6079 21.8126 20.02 22.3204 20.02C22.8282 20.02 23.2404 19.6079 23.2404 19.1C23.2404 18.8811 23.2404 12.419 23.2404 12.2Z" stroke="#F5F5F7" stroke-width="2" stroke-miterlimit="10"/>
<path d="M15.8802 24.62C16.388 24.62 16.8002 24.2079 16.8002 23.7C16.8002 23.1922 16.388 22.78 15.8802 22.78C15.6612 22.78 13.7991 22.78 13.5802 22.78C13.0723 22.78 12.6602 23.1922 12.6602 23.7C12.6602 24.2079 13.0723 24.62 13.5802 24.62C13.7991 24.62 15.6612 24.62 15.8802 24.62Z" stroke="#F5F5F7" stroke-width="2" stroke-miterlimit="10"/>
<path d="M6.67969 11.74C6.67969 7.4211 10.1807 3.92004 14.4997 3.92004C18.8186 3.92004 22.3197 7.4211 22.3197 11.74" stroke="#F5F5F7" stroke-width="2" stroke-miterlimit="10"/>
<path d="M23.2402 12.2C24.5108 12.2 25.5402 13.7442 25.5402 15.65C25.5402 17.5548 24.5108 19.1 23.2402 19.1" stroke="#F5F5F7" stroke-width="2" stroke-miterlimit="10"/>
<path d="M5.75977 12.2C5.75977 11.6922 6.17193 11.28 6.67977 11.28C7.18761 11.28 7.59977 11.6922 7.59977 12.2C7.59977 12.419 7.59977 18.8811 7.59977 19.1C7.59977 19.6079 7.18761 20.02 6.67977 20.02C6.17193 20.02 5.75977 19.6079 5.75977 19.1C5.75977 18.8811 5.75977 12.419 5.75977 12.2Z" stroke="#F5F5F7" stroke-width="2" stroke-miterlimit="10"/>
<path d="M5.76094 12.2C4.49088 12.2 3.46094 13.7442 3.46094 15.65C3.46094 17.5548 4.49088 19.1 5.76094 19.1" stroke="#F5F5F7" stroke-width="2" stroke-miterlimit="10"/>
<path d="M22.3208 20.02C22.3208 22.32 20.9408 23.7 18.6408 23.7H16.8008" stroke="#F5F5F7" stroke-width="2" stroke-miterlimit="10"/>
</g>
<defs>
<clipPath id="clip0_2619_1348">
<rect width="23" height="23" fill="white" transform="translate(3 3)"/>
</clipPath>
</defs>
</svg>
