<svg width="12" height="11" viewBox="0 0 12 11" fill="none" xmlns="http://www.w3.org/2000/svg">
<path fill-rule="evenodd" clip-rule="evenodd" d="M0.875716 0.913108C1.43661 0.352388 2.19723 0.0373922 2.99033 0.0373922C3.78343 0.0373922 4.54406 0.352388 5.10495 0.913108L5.9813 1.78871L6.85766 0.913108C7.13357 0.62744 7.4636 0.399581 7.82851 0.242827C8.19342 0.0860734 8.5859 0.00356396 8.98304 0.000112929C9.38018 -0.0033381 9.77403 0.0723387 10.1416 0.222727C10.5092 0.373116 10.8431 0.595205 11.124 0.876035C11.4048 1.15687 11.6269 1.49081 11.7773 1.85839C11.9277 2.22597 12.0033 2.61982 11.9999 3.01696C11.9964 3.4141 11.9139 3.80658 11.7572 4.17149C11.6004 4.5364 11.3726 4.86643 11.0869 5.14234L5.9813 10.2487L0.875716 5.14234C0.314995 4.58145 0 3.82082 0 3.02773C0 2.23463 0.314995 1.474 0.875716 0.913108Z" fill="#7D67EE"/>
</svg>
