<svg width="180" height="56" viewBox="0 0 180 56" fill="none" xmlns="http://www.w3.org/2000/svg">
<path d="M25 21.4141C25 21.1488 24.8946 20.8945 24.7071 20.707C24.5196 20.5194 24.2652 20.4141 24 20.4141C23.7348 20.4141 23.4804 20.5194 23.2929 20.707C23.1054 20.8945 23 21.1488 23 21.4141V22.4141C23 22.6793 23.1054 22.9336 23.2929 23.1212C23.4804 23.3087 23.7348 23.4141 24 23.4141C24.2652 23.4141 24.5196 23.3087 24.7071 23.1212C24.8946 22.9336 25 22.6793 25 22.4141V21.4141ZM29.657 24.1711C29.7525 24.0788 29.8287 23.9685 29.8811 23.8465C29.9335 23.7245 29.9611 23.5932 29.9623 23.4605C29.9634 23.3277 29.9381 23.196 29.8878 23.0731C29.8375 22.9502 29.7633 22.8386 29.6694 22.7447C29.5755 22.6508 29.4639 22.5765 29.341 22.5262C29.2181 22.476 29.0864 22.4507 28.9536 22.4518C28.8208 22.453 28.6896 22.4806 28.5676 22.533C28.4456 22.5854 28.3352 22.6616 28.243 22.7571L27.536 23.4641C27.4405 23.5563 27.3643 23.6667 27.3119 23.7887C27.2595 23.9107 27.2319 24.0419 27.2307 24.1747C27.2296 24.3074 27.2549 24.4391 27.3052 24.562C27.3555 24.6849 27.4297 24.7966 27.5236 24.8905C27.6175 24.9844 27.7291 25.0586 27.852 25.1089C27.9749 25.1592 28.1066 25.1845 28.2394 25.1833C28.3722 25.1822 28.5034 25.1546 28.6254 25.1022C28.7474 25.0498 28.8578 24.9736 28.95 24.8781L29.657 24.1711ZM32 28.4141C32 28.6793 31.8946 28.9336 31.7071 29.1212C31.5196 29.3087 31.2652 29.4141 31 29.4141H30C29.7348 29.4141 29.4804 29.3087 29.2929 29.1212C29.1054 28.9336 29 28.6793 29 28.4141C29 28.1488 29.1054 27.8945 29.2929 27.707C29.4804 27.5194 29.7348 27.4141 30 27.4141H31C31.2652 27.4141 31.5196 27.5194 31.7071 27.707C31.8946 27.8945 32 28.1488 32 28.4141ZM19.05 24.8781C19.1422 24.9736 19.2526 25.0498 19.3746 25.1022C19.4966 25.1546 19.6278 25.1822 19.7606 25.1833C19.8934 25.1845 20.0251 25.1592 20.148 25.1089C20.2709 25.0586 20.3825 24.9844 20.4764 24.8905C20.5703 24.7966 20.6445 24.6849 20.6948 24.562C20.7451 24.4391 20.7704 24.3074 20.7693 24.1747C20.7681 24.0419 20.7405 23.9107 20.6881 23.7887C20.6357 23.6667 20.5595 23.5563 20.464 23.4641L19.757 22.7571C19.6648 22.6616 19.5544 22.5854 19.4324 22.533C19.3104 22.4806 19.1792 22.453 19.0464 22.4518C18.9136 22.4507 18.7819 22.476 18.659 22.5262C18.5361 22.5765 18.4245 22.6508 18.3306 22.7447C18.2367 22.8386 18.1625 22.9502 18.1122 23.0731C18.0619 23.196 18.0366 23.3277 18.0377 23.4605C18.0389 23.5932 18.0665 23.7245 18.1189 23.8465C18.1713 23.9685 18.2475 24.0788 18.343 24.1711L19.05 24.8781ZM19 28.4141C19 28.6793 18.8946 28.9336 18.7071 29.1212C18.5196 29.3087 18.2652 29.4141 18 29.4141H17C16.7348 29.4141 16.4804 29.3087 16.2929 29.1212C16.1054 28.9336 16 28.6793 16 28.4141C16 28.1488 16.1054 27.8945 16.2929 27.707C16.4804 27.5194 16.7348 27.4141 17 27.4141H18C18.2652 27.4141 18.5196 27.5194 18.7071 27.707C18.8946 27.8945 19 28.1488 19 28.4141ZM22 34.4141V33.4141H26V34.4141C26 34.9445 25.7893 35.4532 25.4142 35.8283C25.0391 36.2033 24.5304 36.4141 24 36.4141C23.4696 36.4141 22.9609 36.2033 22.5858 35.8283C22.2107 35.4532 22 34.9445 22 34.4141ZM26 32.4141C26.0136 32.2451 26.0632 32.0811 26.1454 31.9329C26.2277 31.7847 26.3408 31.6559 26.477 31.5551C27.1297 31.0403 27.6058 30.335 27.8391 29.5372C28.0725 28.7394 28.0515 27.8887 27.7791 27.1034C27.5067 26.3181 26.9964 25.6371 26.3191 25.1552C25.6418 24.6732 24.8312 24.4143 24 24.4143C23.1688 24.4143 22.3582 24.6732 21.6809 25.1552C21.0036 25.6371 20.4933 26.3181 20.2209 27.1034C19.9485 27.8887 19.9275 28.7394 20.1609 29.5372C20.3942 30.335 20.8703 31.0403 21.523 31.5551C21.6596 31.6556 21.7728 31.7843 21.8552 31.9326C21.9375 32.0808 21.9869 32.245 22 32.4141H26Z" fill="#666666"/>
<path d="M58.224 22.94V33.5H56.496V22.94H58.224ZM51.28 22.94V33.5H49.568V22.94H51.28ZM57.36 27.42V28.892H50.432V27.42H57.36ZM64.5199 33.66C63.7199 33.66 63.0159 33.4947 62.4079 33.164C61.7999 32.8333 61.3252 32.3587 60.9839 31.74C60.6532 31.1107 60.4879 30.364 60.4879 29.5C60.4879 28.636 60.6532 27.8947 60.9839 27.276C61.3252 26.6467 61.7945 26.1667 62.3919 25.836C62.9892 25.5053 63.6665 25.34 64.4239 25.34C65.2025 25.34 65.8639 25.5 66.4079 25.82C66.9519 26.14 67.3679 26.5773 67.6559 27.132C67.9439 27.6867 68.0879 28.316 68.0879 29.02C68.0879 29.212 68.0825 29.3933 68.0719 29.564C68.0612 29.7347 68.0452 29.884 68.0239 30.012H61.5919V28.7H67.2719L66.4239 28.956C66.4239 28.2307 66.2425 27.676 65.8799 27.292C65.5172 26.8973 65.0212 26.7 64.3919 26.7C63.9332 26.7 63.5332 26.8067 63.1919 27.02C62.8505 27.2333 62.5892 27.5533 62.4079 27.98C62.2265 28.396 62.1359 28.908 62.1359 29.516C62.1359 30.1133 62.2319 30.62 62.4239 31.036C62.6159 31.452 62.8879 31.7667 63.2399 31.98C63.5919 32.1933 64.0079 32.3 64.4879 32.3C65.0212 32.3 65.4532 32.1987 65.7839 31.996C66.1145 31.7933 66.3759 31.5107 66.5679 31.148L67.9279 31.788C67.7359 32.172 67.4745 32.508 67.1439 32.796C66.8239 33.0733 66.4399 33.2867 65.9919 33.436C65.5439 33.5853 65.0532 33.66 64.5199 33.66ZM71.9139 21.9V31.26C71.9139 31.6547 71.9832 31.9267 72.1219 32.076C72.2605 32.2253 72.4899 32.3 72.8099 32.3C73.0019 32.3 73.1619 32.2893 73.2899 32.268C73.4285 32.236 73.5992 32.1827 73.8019 32.108L73.6099 33.388C73.4285 33.4733 73.2205 33.5373 72.9859 33.58C72.7512 33.6333 72.5165 33.66 72.2819 33.66C71.5672 33.66 71.0392 33.4787 70.6979 33.116C70.3672 32.7427 70.2019 32.172 70.2019 31.404V21.9H71.9139ZM75.2343 36.86V25.5H76.7543L76.8823 27.74L76.6583 27.468C76.7863 27.052 76.9836 26.684 77.2503 26.364C77.5169 26.044 77.8476 25.7933 78.2423 25.612C78.6476 25.4307 79.0903 25.34 79.5703 25.34C80.2209 25.34 80.8129 25.5053 81.3463 25.836C81.8796 26.1667 82.3009 26.6413 82.6103 27.26C82.9196 27.868 83.0743 28.6093 83.0743 29.484C83.0743 30.3587 82.9143 31.1107 82.5943 31.74C82.2849 32.3587 81.8583 32.8333 81.3143 33.164C80.7809 33.4947 80.1836 33.66 79.5223 33.66C78.8396 33.66 78.2583 33.484 77.7783 33.132C77.2983 32.7693 76.9569 32.3107 76.7543 31.756L76.9463 31.484V36.86H75.2343ZM79.1543 32.268C79.8476 32.268 80.3863 32.0227 80.7703 31.532C81.1649 31.0413 81.3623 30.364 81.3623 29.5C81.3623 28.636 81.1703 27.9587 80.7863 27.468C80.4023 26.9667 79.8689 26.716 79.1863 26.716C78.7383 26.716 78.3436 26.8333 78.0023 27.068C77.6716 27.292 77.4103 27.612 77.2183 28.028C77.0369 28.4333 76.9463 28.924 76.9463 29.5C76.9463 30.0653 77.0369 30.556 77.2183 30.972C77.3996 31.388 77.6556 31.708 77.9863 31.932C78.3169 32.156 78.7063 32.268 79.1543 32.268ZM93.2686 33.66C92.554 33.66 91.9353 33.5427 91.4126 33.308C90.9006 33.0627 90.5006 32.7267 90.2126 32.3C89.9353 31.8733 89.7966 31.372 89.7966 30.796C89.7966 30.4653 89.8393 30.1507 89.9246 29.852C90.0206 29.5427 90.17 29.2493 90.3726 28.972C90.586 28.684 90.874 28.4227 91.2366 28.188C91.5993 27.9427 92.0526 27.7293 92.5966 27.548L93.2206 27.276C93.6473 27.0307 93.9886 26.8067 94.2446 26.604C94.5113 26.4013 94.7033 26.188 94.8206 25.964C94.9486 25.74 95.0126 25.4787 95.0126 25.18C95.0126 24.828 94.906 24.556 94.6926 24.364C94.4793 24.172 94.1966 24.076 93.8446 24.076C93.4286 24.076 93.114 24.1933 92.9006 24.428C92.698 24.652 92.5966 24.924 92.5966 25.244C92.5966 25.436 92.6233 25.6227 92.6766 25.804C92.7406 25.9853 92.858 26.2093 93.0286 26.476C93.21 26.7427 93.4713 27.0947 93.8126 27.532C94.154 27.9587 94.618 28.524 95.2046 29.228C95.7806 29.9213 96.2606 30.4867 96.6446 30.924C97.0393 31.3507 97.3753 31.676 97.6526 31.9C97.93 32.1133 98.186 32.2573 98.4206 32.332C98.666 32.396 98.938 32.4227 99.2366 32.412L98.9486 33.66C98.6073 33.66 98.2873 33.6227 97.9886 33.548C97.7006 33.484 97.386 33.3347 97.0446 33.1C96.714 32.8653 96.3193 32.5133 95.8606 32.044C95.4126 31.5747 94.858 30.9507 94.1966 30.172C93.578 29.4467 93.0606 28.8387 92.6446 28.348C92.2393 27.8467 91.9193 27.4253 91.6846 27.084C91.4606 26.732 91.3006 26.4173 91.2046 26.14C91.1086 25.852 91.0606 25.548 91.0606 25.228C91.0606 24.8333 91.162 24.4493 91.3646 24.076C91.5673 23.692 91.8713 23.3827 92.2766 23.148C92.6926 22.9027 93.2313 22.78 93.8926 22.78C94.426 22.78 94.8793 22.876 95.2526 23.068C95.626 23.26 95.914 23.5267 96.1166 23.868C96.3193 24.1987 96.4206 24.5827 96.4206 25.02C96.4206 25.4253 96.346 25.804 96.1966 26.156C96.0473 26.508 95.7806 26.844 95.3966 27.164C95.0233 27.484 94.49 27.7987 93.7966 28.108L93.2686 28.332C92.778 28.5773 92.394 28.812 92.1166 29.036C91.8393 29.26 91.642 29.5 91.5246 29.756C91.4073 30.0013 91.3486 30.3 91.3486 30.652C91.3486 31.0147 91.4393 31.3293 91.6206 31.596C91.8126 31.852 92.0686 32.0493 92.3886 32.188C92.7086 32.3267 93.066 32.396 93.4606 32.396C94.026 32.396 94.506 32.3 94.9006 32.108C95.2953 31.9053 95.6633 31.628 96.0046 31.276L96.2286 31.036C96.4846 30.6307 96.682 30.172 96.8206 29.66C96.97 29.148 97.018 28.5667 96.9646 27.916L98.2926 27.996C98.314 28.6787 98.2233 29.34 98.0206 29.98C97.8286 30.62 97.53 31.196 97.1246 31.708L96.8046 32.06C96.4206 32.5507 95.9353 32.94 95.3486 33.228C94.762 33.516 94.0686 33.66 93.2686 33.66ZM109.59 22.78C110.539 22.78 111.361 22.9613 112.054 23.324C112.747 23.676 113.334 24.1987 113.814 24.892L112.662 25.996C112.257 25.3773 111.798 24.9347 111.286 24.668C110.785 24.3907 110.187 24.252 109.494 24.252C108.982 24.252 108.561 24.3213 108.23 24.46C107.899 24.5987 107.654 24.7853 107.494 25.02C107.345 25.244 107.27 25.5 107.27 25.788C107.27 26.1187 107.382 26.4067 107.606 26.652C107.841 26.8973 108.273 27.0893 108.902 27.228L111.046 27.708C112.07 27.932 112.795 28.2733 113.222 28.732C113.649 29.1907 113.862 29.772 113.862 30.476C113.862 31.1267 113.686 31.692 113.334 32.172C112.982 32.652 112.491 33.02 111.862 33.276C111.243 33.532 110.513 33.66 109.67 33.66C108.923 33.66 108.251 33.564 107.654 33.372C107.057 33.18 106.534 32.9187 106.086 32.588C105.638 32.2573 105.27 31.8787 104.982 31.452L106.166 30.268C106.39 30.6413 106.673 30.9773 107.014 31.276C107.355 31.564 107.75 31.788 108.198 31.948C108.657 32.108 109.163 32.188 109.718 32.188C110.209 32.188 110.63 32.1293 110.982 32.012C111.345 31.8947 111.617 31.724 111.798 31.5C111.99 31.2653 112.086 30.988 112.086 30.668C112.086 30.3587 111.979 30.0867 111.766 29.852C111.563 29.6173 111.179 29.436 110.614 29.308L108.294 28.78C107.654 28.6413 107.126 28.444 106.71 28.188C106.294 27.932 105.985 27.6227 105.782 27.26C105.579 26.8867 105.478 26.4707 105.478 26.012C105.478 25.4147 105.638 24.876 105.958 24.396C106.289 23.9053 106.763 23.516 107.382 23.228C108.001 22.9293 108.737 22.78 109.59 22.78ZM118.801 33.66C118.278 33.66 117.793 33.564 117.345 33.372C116.908 33.18 116.556 32.8707 116.289 32.444C116.022 32.0173 115.889 31.4627 115.889 30.78V25.5H117.601V30.348C117.601 31.0733 117.756 31.5747 118.065 31.852C118.374 32.1187 118.806 32.252 119.361 32.252C119.628 32.252 119.884 32.2093 120.129 32.124C120.385 32.028 120.614 31.884 120.817 31.692C121.02 31.4893 121.174 31.2333 121.281 30.924C121.398 30.6147 121.457 30.252 121.457 29.836V25.5H123.169V33.5H121.665L121.585 32.204C121.308 32.7053 120.934 33.0733 120.465 33.308C119.996 33.5427 119.441 33.66 118.801 33.66ZM125.844 36.86V25.5H127.364L127.492 27.74L127.268 27.468C127.396 27.052 127.593 26.684 127.86 26.364C128.126 26.044 128.457 25.7933 128.852 25.612C129.257 25.4307 129.7 25.34 130.18 25.34C130.83 25.34 131.422 25.5053 131.956 25.836C132.489 26.1667 132.91 26.6413 133.22 27.26C133.529 27.868 133.684 28.6093 133.684 29.484C133.684 30.3587 133.524 31.1107 133.204 31.74C132.894 32.3587 132.468 32.8333 131.924 33.164C131.39 33.4947 130.793 33.66 130.132 33.66C129.449 33.66 128.868 33.484 128.388 33.132C127.908 32.7693 127.566 32.3107 127.364 31.756L127.556 31.484V36.86H125.844ZM129.764 32.268C130.457 32.268 130.996 32.0227 131.38 31.532C131.774 31.0413 131.972 30.364 131.972 29.5C131.972 28.636 131.78 27.9587 131.396 27.468C131.012 26.9667 130.478 26.716 129.796 26.716C129.348 26.716 128.953 26.8333 128.612 27.068C128.281 27.292 128.02 27.612 127.828 28.028C127.646 28.4333 127.556 28.924 127.556 29.5C127.556 30.0653 127.646 30.556 127.828 30.972C128.009 31.388 128.265 31.708 128.596 31.932C128.926 32.156 129.316 32.268 129.764 32.268ZM135.875 36.86V25.5H137.395L137.523 27.74L137.299 27.468C137.427 27.052 137.624 26.684 137.891 26.364C138.158 26.044 138.488 25.7933 138.883 25.612C139.288 25.4307 139.731 25.34 140.211 25.34C140.862 25.34 141.454 25.5053 141.987 25.836C142.52 26.1667 142.942 26.6413 143.251 27.26C143.56 27.868 143.715 28.6093 143.715 29.484C143.715 30.3587 143.555 31.1107 143.235 31.74C142.926 32.3587 142.499 32.8333 141.955 33.164C141.422 33.4947 140.824 33.66 140.163 33.66C139.48 33.66 138.899 33.484 138.419 33.132C137.939 32.7693 137.598 32.3107 137.395 31.756L137.587 31.484V36.86H135.875ZM139.795 32.268C140.488 32.268 141.027 32.0227 141.411 31.532C141.806 31.0413 142.003 30.364 142.003 29.5C142.003 28.636 141.811 27.9587 141.427 27.468C141.043 26.9667 140.51 26.716 139.827 26.716C139.379 26.716 138.984 26.8333 138.643 27.068C138.312 27.292 138.051 27.612 137.859 28.028C137.678 28.4333 137.587 28.924 137.587 29.5C137.587 30.0653 137.678 30.556 137.859 30.972C138.04 31.388 138.296 31.708 138.627 31.932C138.958 32.156 139.347 32.268 139.795 32.268ZM149.378 25.34C150.157 25.34 150.845 25.5053 151.442 25.836C152.039 26.1667 152.503 26.6467 152.834 27.276C153.175 27.8947 153.346 28.636 153.346 29.5C153.346 30.364 153.175 31.1107 152.834 31.74C152.503 32.3587 152.039 32.8333 151.442 33.164C150.845 33.4947 150.157 33.66 149.378 33.66C148.599 33.66 147.911 33.4947 147.314 33.164C146.717 32.8333 146.247 32.3587 145.906 31.74C145.565 31.1107 145.394 30.364 145.394 29.5C145.394 28.636 145.565 27.8947 145.906 27.276C146.247 26.6467 146.717 26.1667 147.314 25.836C147.911 25.5053 148.599 25.34 149.378 25.34ZM149.378 26.684C148.898 26.684 148.487 26.796 148.146 27.02C147.815 27.2333 147.559 27.548 147.378 27.964C147.197 28.38 147.106 28.892 147.106 29.5C147.106 30.0973 147.197 30.6093 147.378 31.036C147.559 31.452 147.815 31.772 148.146 31.996C148.487 32.2093 148.898 32.316 149.378 32.316C149.858 32.316 150.263 32.2093 150.594 31.996C150.925 31.772 151.181 31.452 151.362 31.036C151.543 30.6093 151.634 30.0973 151.634 29.5C151.634 28.892 151.543 28.38 151.362 27.964C151.181 27.548 150.925 27.2333 150.594 27.02C150.263 26.796 149.858 26.684 149.378 26.684ZM155.5 33.5V25.5H156.956L157.116 26.94C157.329 26.4173 157.644 26.0227 158.06 25.756C158.487 25.4787 159.009 25.34 159.628 25.34C159.788 25.34 159.948 25.356 160.108 25.388C160.268 25.4093 160.401 25.4467 160.508 25.5L160.268 27.004C160.151 26.9613 160.017 26.9293 159.868 26.908C159.729 26.876 159.537 26.86 159.292 26.86C158.961 26.86 158.636 26.9507 158.316 27.132C157.996 27.3027 157.729 27.564 157.516 27.916C157.313 28.268 157.212 28.716 157.212 29.26V33.5H155.5ZM164.07 23.148V31.1C164.07 31.4947 164.172 31.7827 164.374 31.964C164.588 32.1453 164.87 32.236 165.222 32.236C165.51 32.236 165.761 32.1933 165.974 32.108C166.188 32.012 166.385 31.884 166.566 31.724L166.95 32.972C166.705 33.1853 166.401 33.356 166.038 33.484C165.686 33.6013 165.292 33.66 164.854 33.66C164.396 33.66 163.974 33.5853 163.59 33.436C163.206 33.2867 162.908 33.0467 162.694 32.716C162.481 32.3747 162.369 31.932 162.358 31.388V23.628L164.07 23.148ZM166.822 25.5V26.844H160.822V25.5H166.822Z" fill="#666666"/>
</svg>
