<svg width="20" height="20" viewBox="0 0 20 20" fill="none" xmlns="http://www.w3.org/2000/svg">
<path d="M10.8824 0.365988C10.6483 0.131646 10.3309 0 10 0C9.66905 0 9.35166 0.131646 9.1176 0.365988L0.381025 9.11611C0.26182 9.23141 0.166739 9.36935 0.101328 9.52186C0.0359172 9.67436 0.00148718 9.83839 4.71235e-05 10.0044C-0.00139293 10.1703 0.0301857 10.3349 0.0929404 10.4886C0.155695 10.6422 0.248369 10.7818 0.365555 10.8991C0.482741 11.0165 0.622092 11.1093 0.775477 11.1722C0.928861 11.235 1.09321 11.2666 1.25893 11.2652C1.42465 11.2638 1.58842 11.2293 1.74069 11.1638C1.89296 11.0982 2.03068 11.003 2.14581 10.8836L2.5115 10.5174V18.75C2.5115 19.0815 2.643 19.3995 2.87706 19.6339C3.11112 19.8683 3.42857 20 3.75958 20H6.25575C6.58676 20 6.90422 19.8683 7.13828 19.6339C7.37234 19.3995 7.50383 19.0815 7.50383 18.75V16.25C7.50383 15.9184 7.63533 15.6005 7.86939 15.3661C8.10345 15.1316 8.4209 14.9999 8.75192 14.9999H11.2481C11.5791 14.9999 11.8965 15.1316 12.1306 15.3661C12.3647 15.6005 12.4962 15.9184 12.4962 16.25V18.75C12.4962 19.0815 12.6277 19.3995 12.8617 19.6339C13.0958 19.8683 13.4132 20 13.7442 20H16.2404C16.5714 20 16.8889 19.8683 17.1229 19.6339C17.357 19.3995 17.4885 19.0815 17.4885 18.75V10.5174L17.8542 10.8836C17.9693 11.003 18.107 11.0982 18.2593 11.1638C18.4116 11.2293 18.5754 11.2638 18.7411 11.2652C18.9068 11.2666 19.0711 11.235 19.2245 11.1722C19.3779 11.1093 19.5173 11.0165 19.6344 10.8991C19.7516 10.7818 19.8443 10.6422 19.9071 10.4886C19.9698 10.3349 20.0014 10.1703 20 10.0044C19.9985 9.83839 19.9641 9.67436 19.8987 9.52186C19.8333 9.36935 19.7382 9.23141 19.619 9.11611L10.8824 0.365988Z" fill="#7D67EE"/>
</svg>
