<svg width="33" height="9" viewBox="0 0 33 9" fill="none" xmlns="http://www.w3.org/2000/svg">
<path d="M6.87333 0.0799997V8H5.91333V0.0799997H6.87333ZM1.61733 0.0799997V8H0.657328V0.0799997H1.61733ZM6.35733 3.536V4.436H1.16133V3.536H6.35733ZM11.6801 1.88C12.2481 1.88 12.7481 2.004 13.1801 2.252C13.6201 2.5 13.9641 2.86 14.2121 3.332C14.4601 3.796 14.5841 4.352 14.5841 5C14.5841 5.648 14.4601 6.208 14.2121 6.68C13.9641 7.144 13.6201 7.5 13.1801 7.748C12.7481 7.996 12.2481 8.12 11.6801 8.12C11.1201 8.12 10.6201 7.996 10.1801 7.748C9.74008 7.5 9.39608 7.144 9.14808 6.68C8.90008 6.208 8.77608 5.648 8.77608 5C8.77608 4.352 8.90008 3.796 9.14808 3.332C9.39608 2.86 9.74008 2.5 10.1801 2.252C10.6201 2.004 11.1201 1.88 11.6801 1.88ZM11.6801 2.708C11.2721 2.708 10.9241 2.8 10.6361 2.984C10.3481 3.168 10.1241 3.432 9.96408 3.776C9.81208 4.112 9.73608 4.52 9.73608 5C9.73608 5.472 9.81208 5.88 9.96408 6.224C10.1241 6.568 10.3481 6.832 10.6361 7.016C10.9241 7.2 11.2721 7.292 11.6801 7.292C12.0881 7.292 12.4361 7.2 12.7241 7.016C13.0121 6.832 13.2321 6.568 13.3841 6.224C13.5441 5.88 13.6241 5.472 13.6241 5C13.6241 4.52 13.5441 4.112 13.3841 3.776C13.2321 3.432 13.0121 3.168 12.7241 2.984C12.4361 2.8 12.0881 2.708 11.6801 2.708ZM16.3914 8V2H17.2314L17.2914 2.936C17.5074 2.568 17.7874 2.3 18.1314 2.132C18.4834 1.964 18.8434 1.88 19.2114 1.88C19.6354 1.88 20.0354 1.976 20.4114 2.168C20.7874 2.36 21.0754 2.656 21.2754 3.056C21.4034 2.784 21.5834 2.564 21.8154 2.396C22.0474 2.22 22.2994 2.092 22.5714 2.012C22.8514 1.924 23.1154 1.88 23.3634 1.88C23.7474 1.88 24.1114 1.96 24.4554 2.12C24.8074 2.28 25.0954 2.528 25.3194 2.864C25.5434 3.2 25.6554 3.632 25.6554 4.16V8H24.6954V4.256C24.6954 3.712 24.5594 3.32 24.2874 3.08C24.0154 2.84 23.6794 2.72 23.2794 2.72C22.9674 2.72 22.6754 2.796 22.4034 2.948C22.1314 3.1 21.9114 3.324 21.7434 3.62C21.5834 3.916 21.5034 4.28 21.5034 4.712V8H20.5434V4.256C20.5434 3.712 20.4074 3.32 20.1354 3.08C19.8634 2.84 19.5274 2.72 19.1274 2.72C18.8634 2.72 18.5914 2.792 18.3114 2.936C18.0394 3.072 17.8114 3.292 17.6274 3.596C17.4434 3.9 17.3514 4.3 17.3514 4.796V8H16.3914ZM30.3369 8.12C29.7689 8.12 29.2609 7.996 28.8129 7.748C28.3729 7.5 28.0289 7.144 27.7809 6.68C27.5329 6.208 27.4089 5.648 27.4089 5C27.4089 4.352 27.5329 3.796 27.7809 3.332C28.0289 2.86 28.3689 2.5 28.8009 2.252C29.2329 2.004 29.7249 1.88 30.2769 1.88C30.8369 1.88 31.3129 2 31.7049 2.24C32.1049 2.48 32.4089 2.808 32.6169 3.224C32.8249 3.632 32.9289 4.092 32.9289 4.604C32.9289 4.74 32.9249 4.864 32.9169 4.976C32.9089 5.088 32.8969 5.188 32.8809 5.276H28.0329V4.424H32.4609L31.9689 4.52C31.9689 3.944 31.8089 3.5 31.4889 3.188C31.1769 2.876 30.7649 2.72 30.2529 2.72C29.8609 2.72 29.5209 2.812 29.2329 2.996C28.9529 3.172 28.7329 3.432 28.5729 3.776C28.4209 4.112 28.3449 4.52 28.3449 5C28.3449 5.472 28.4249 5.88 28.5849 6.224C28.7449 6.568 28.9689 6.832 29.2569 7.016C29.5529 7.192 29.9049 7.28 30.3129 7.28C30.7529 7.28 31.1089 7.196 31.3809 7.028C31.6609 6.86 31.8849 6.632 32.0529 6.344L32.8089 6.788C32.6569 7.06 32.4609 7.296 32.2209 7.496C31.9889 7.696 31.7129 7.852 31.3929 7.964C31.0809 8.068 30.7289 8.12 30.3369 8.12Z" fill="#7D67EE"/>
</svg>
