<svg width="19" height="18" viewBox="0 0 19 18" fill="none" xmlns="http://www.w3.org/2000/svg">
<path fill-rule="evenodd" clip-rule="evenodd" d="M5.59184 0H13.2681C16.1508 0 18.508 2.32812 18.508 5.17224V12.8278C18.508 15.6726 16.1508 18 13.2681 18H5.59184C2.70918 18 0.351562 15.6726 0.351562 12.8278V5.17224C0.351562 2.32812 2.70915 0 5.59184 0ZM9.3809 4.14022C12.1821 4.14022 14.4553 6.41338 14.4553 9.21461C14.4553 12.0162 12.1821 14.289 9.3809 14.289C6.57898 14.289 4.30616 12.0162 4.30616 9.21461C4.30616 6.41338 6.57898 4.14022 9.3809 4.14022ZM9.3809 5.85413C11.2359 5.85413 12.7414 7.3593 12.7414 9.21461C12.7414 11.0699 11.2359 12.5754 9.3809 12.5754C7.52525 12.5754 6.02007 11.07 6.02007 9.21461C6.02007 7.3593 7.52525 5.85413 9.3809 5.85413ZM14.2901 3.43691C14.7451 3.43691 15.1141 3.80583 15.1141 4.26053C15.1141 4.71558 14.7451 5.0845 14.2901 5.0845C13.8354 5.0845 13.4665 4.71558 13.4665 4.26053C13.4665 3.80583 13.8354 3.43691 14.2901 3.43691ZM6.21909 1.47034H12.6415C15.0531 1.47034 17.0253 3.43288 17.0253 5.83107V12.2856C17.0253 14.6838 15.0531 16.646 12.6415 16.646H6.21909C3.80754 16.646 1.83495 14.6838 1.83495 12.2856V5.83101C1.83495 3.43288 3.80754 1.47034 6.21909 1.47034Z" fill="#666666"/>
</svg>
