<svg width="229" height="56" viewBox="0 0 229 56" fill="none" xmlns="http://www.w3.org/2000/svg">
<path d="M53.632 22.94C54.3893 22.94 55.04 23.0733 55.584 23.34C56.1387 23.6067 56.5707 23.9853 56.88 24.476C57.1893 24.9667 57.344 25.5587 57.344 26.252C57.344 26.9347 57.1893 27.5267 56.88 28.028C56.5707 28.5187 56.1387 28.8973 55.584 29.164C55.04 29.4307 54.3893 29.564 53.632 29.564H51.28V33.5H49.568V22.94H53.632ZM53.36 28.092C54.1173 28.092 54.672 27.9373 55.024 27.628C55.3867 27.308 55.568 26.8493 55.568 26.252C55.568 25.644 55.3867 25.1853 55.024 24.876C54.672 24.556 54.1173 24.396 53.36 24.396H51.28V28.092H53.36ZM59.3593 33.5V25.5H60.8153L60.9753 26.94C61.1886 26.4173 61.5033 26.0227 61.9193 25.756C62.3459 25.4787 62.8686 25.34 63.4873 25.34C63.6473 25.34 63.8073 25.356 63.9673 25.388C64.1273 25.4093 64.2606 25.4467 64.3673 25.5L64.1273 27.004C64.0099 26.9613 63.8766 26.9293 63.7273 26.908C63.5886 26.876 63.3966 26.86 63.1513 26.86C62.8206 26.86 62.4953 26.9507 62.1753 27.132C61.8553 27.3027 61.5886 27.564 61.3753 27.916C61.1726 28.268 61.0713 28.716 61.0713 29.26V33.5H59.3593ZM69.2531 25.34C70.0318 25.34 70.7198 25.5053 71.3171 25.836C71.9145 26.1667 72.3785 26.6467 72.7091 27.276C73.0505 27.8947 73.2211 28.636 73.2211 29.5C73.2211 30.364 73.0505 31.1107 72.7091 31.74C72.3785 32.3587 71.9145 32.8333 71.3171 33.164C70.7198 33.4947 70.0318 33.66 69.2531 33.66C68.4745 33.66 67.7865 33.4947 67.1891 33.164C66.5918 32.8333 66.1225 32.3587 65.7811 31.74C65.4398 31.1107 65.2691 30.364 65.2691 29.5C65.2691 28.636 65.4398 27.8947 65.7811 27.276C66.1225 26.6467 66.5918 26.1667 67.1891 25.836C67.7865 25.5053 68.4745 25.34 69.2531 25.34ZM69.2531 26.684C68.7731 26.684 68.3625 26.796 68.0211 27.02C67.6905 27.2333 67.4345 27.548 67.2531 27.964C67.0718 28.38 66.9811 28.892 66.9811 29.5C66.9811 30.0973 67.0718 30.6093 67.2531 31.036C67.4345 31.452 67.6905 31.772 68.0211 31.996C68.3625 32.2093 68.7731 32.316 69.2531 32.316C69.7331 32.316 70.1385 32.2093 70.4691 31.996C70.7998 31.772 71.0558 31.452 71.2371 31.036C71.4185 30.6093 71.5091 30.0973 71.5091 29.5C71.5091 28.892 71.4185 28.38 71.2371 27.964C71.0558 27.548 70.7998 27.2333 70.4691 27.02C70.1385 26.796 69.7331 26.684 69.2531 26.684ZM78.6575 21.788C78.9882 21.788 79.2868 21.8253 79.5535 21.9C79.8308 21.964 80.0388 22.0547 80.1775 22.172L79.8575 23.404C79.7402 23.3293 79.6068 23.276 79.4575 23.244C79.3082 23.2013 79.1375 23.18 78.9455 23.18C78.5082 23.18 78.1615 23.2813 77.9055 23.484C77.6602 23.6867 77.5375 24.0173 77.5375 24.476V25.644L77.5855 26.076V33.5H75.8735V24.348C75.8735 23.9427 75.9322 23.58 76.0495 23.26C76.1775 22.94 76.3642 22.6733 76.6095 22.46C76.8548 22.236 77.1482 22.0707 77.4895 21.964C77.8415 21.8467 78.2308 21.788 78.6575 21.788ZM80.1295 25.5V26.844H74.3695V25.5H80.1295ZM82.5295 24.156C82.1562 24.156 81.8682 24.0653 81.6655 23.884C81.4735 23.692 81.3775 23.4253 81.3775 23.084C81.3775 22.7427 81.4735 22.4813 81.6655 22.3C81.8682 22.1187 82.1562 22.028 82.5295 22.028C82.8922 22.028 83.1695 22.1187 83.3615 22.3C83.5642 22.4813 83.6655 22.7427 83.6655 23.084C83.6655 23.4253 83.5642 23.692 83.3615 23.884C83.1695 24.0653 82.8922 24.156 82.5295 24.156ZM83.3775 25.5V33.5H81.6655V25.5H83.3775ZM87.6951 21.9V31.26C87.6951 31.6547 87.7645 31.9267 87.9031 32.076C88.0418 32.2253 88.2711 32.3 88.5911 32.3C88.7831 32.3 88.9431 32.2893 89.0711 32.268C89.2098 32.236 89.3805 32.1827 89.5831 32.108L89.3911 33.388C89.2098 33.4733 89.0018 33.5373 88.7671 33.58C88.5325 33.6333 88.2978 33.66 88.0631 33.66C87.3485 33.66 86.8205 33.4787 86.4791 33.116C86.1485 32.7427 85.9831 32.172 85.9831 31.404V21.9H87.6951ZM94.5355 33.66C93.7355 33.66 93.0315 33.4947 92.4235 33.164C91.8155 32.8333 91.3408 32.3587 90.9995 31.74C90.6688 31.1107 90.5035 30.364 90.5035 29.5C90.5035 28.636 90.6688 27.8947 90.9995 27.276C91.3408 26.6467 91.8102 26.1667 92.4075 25.836C93.0048 25.5053 93.6822 25.34 94.4395 25.34C95.2182 25.34 95.8795 25.5 96.4235 25.82C96.9675 26.14 97.3835 26.5773 97.6715 27.132C97.9595 27.6867 98.1035 28.316 98.1035 29.02C98.1035 29.212 98.0982 29.3933 98.0875 29.564C98.0768 29.7347 98.0608 29.884 98.0395 30.012H91.6075V28.7H97.2875L96.4395 28.956C96.4395 28.2307 96.2582 27.676 95.8955 27.292C95.5328 26.8973 95.0368 26.7 94.4075 26.7C93.9488 26.7 93.5488 26.8067 93.2075 27.02C92.8662 27.2333 92.6048 27.5533 92.4235 27.98C92.2422 28.396 92.1515 28.908 92.1515 29.516C92.1515 30.1133 92.2475 30.62 92.4395 31.036C92.6315 31.452 92.9035 31.7667 93.2555 31.98C93.6075 32.1933 94.0235 32.3 94.5035 32.3C95.0368 32.3 95.4688 32.1987 95.7995 31.996C96.1302 31.7933 96.3915 31.5107 96.5835 31.148L97.9435 31.788C97.7515 32.172 97.4902 32.508 97.1595 32.796C96.8395 33.0733 96.4555 33.2867 96.0075 33.436C95.5595 33.5853 95.0688 33.66 94.5355 33.66ZM107.421 22.94V33.5H105.709V22.94H107.421ZM110.25 33.5V25.5H111.77L111.882 27.58L111.658 27.356C111.807 26.8973 112.021 26.5187 112.298 26.22C112.586 25.9107 112.922 25.6867 113.306 25.548C113.701 25.4093 114.117 25.34 114.554 25.34C115.119 25.34 115.626 25.452 116.074 25.676C116.533 25.8893 116.895 26.2147 117.162 26.652C117.429 27.0893 117.562 27.644 117.562 28.316V33.5H115.85V28.844C115.85 28.0547 115.685 27.5107 115.354 27.212C115.034 26.9027 114.629 26.748 114.138 26.748C113.786 26.748 113.445 26.8333 113.114 27.004C112.783 27.164 112.506 27.4253 112.282 27.788C112.069 28.1507 111.962 28.636 111.962 29.244V33.5H110.25ZM125.217 25.5H127.009L123.825 33.5H121.953L118.753 25.5H120.625L122.897 32.012L125.217 25.5ZM129.333 24.156C128.959 24.156 128.671 24.0653 128.469 23.884C128.277 23.692 128.181 23.4253 128.181 23.084C128.181 22.7427 128.277 22.4813 128.469 22.3C128.671 22.1187 128.959 22.028 129.333 22.028C129.695 22.028 129.973 22.1187 130.165 22.3C130.367 22.4813 130.469 22.7427 130.469 23.084C130.469 23.4253 130.367 23.692 130.165 23.884C129.973 24.0653 129.695 24.156 129.333 24.156ZM130.181 25.5V33.5H128.469V25.5H130.181ZM135.899 33.66C135.099 33.66 134.369 33.5053 133.707 33.196C133.046 32.8867 132.523 32.4493 132.139 31.884L133.323 30.86C133.558 31.2973 133.894 31.6493 134.331 31.916C134.779 32.172 135.313 32.3 135.931 32.3C136.422 32.3 136.811 32.2147 137.099 32.044C137.387 31.8733 137.531 31.6333 137.531 31.324C137.531 31.1213 137.462 30.9453 137.323 30.796C137.195 30.636 136.945 30.5133 136.571 30.428L134.891 30.076C134.038 29.9053 133.43 29.6333 133.067 29.26C132.705 28.876 132.523 28.3907 132.523 27.804C132.523 27.3667 132.651 26.9613 132.907 26.588C133.163 26.2147 133.537 25.916 134.027 25.692C134.529 25.4573 135.126 25.34 135.819 25.34C136.619 25.34 137.302 25.484 137.867 25.772C138.433 26.0493 138.865 26.4493 139.163 26.972L137.979 27.964C137.777 27.5373 137.478 27.2227 137.083 27.02C136.689 26.8067 136.278 26.7 135.851 26.7C135.51 26.7 135.217 26.7427 134.971 26.828C134.726 26.9133 134.539 27.0307 134.411 27.18C134.283 27.3293 134.219 27.5053 134.219 27.708C134.219 27.9213 134.299 28.108 134.459 28.268C134.619 28.428 134.907 28.5507 135.323 28.636L137.147 29.02C137.915 29.1693 138.454 29.4253 138.763 29.788C139.083 30.14 139.243 30.572 139.243 31.084C139.243 31.596 139.11 32.0493 138.843 32.444C138.577 32.828 138.193 33.1267 137.691 33.34C137.19 33.5533 136.593 33.66 135.899 33.66ZM142.192 24.156C141.819 24.156 141.531 24.0653 141.328 23.884C141.136 23.692 141.04 23.4253 141.04 23.084C141.04 22.7427 141.136 22.4813 141.328 22.3C141.531 22.1187 141.819 22.028 142.192 22.028C142.555 22.028 142.832 22.1187 143.024 22.3C143.227 22.4813 143.328 22.7427 143.328 23.084C143.328 23.4253 143.227 23.692 143.024 23.884C142.832 24.0653 142.555 24.156 142.192 24.156ZM143.04 25.5V33.5H141.328V25.5H143.04ZM150.007 33.66C149.537 33.66 149.105 33.5693 148.711 33.388C148.327 33.2067 148.001 32.956 147.735 32.636C147.468 32.3053 147.271 31.9373 147.143 31.532L147.351 31.26L147.223 33.5H145.719V21.9H147.431V27.516L147.239 27.244C147.441 26.6893 147.788 26.236 148.279 25.884C148.769 25.5213 149.361 25.34 150.055 25.34C150.695 25.34 151.281 25.5053 151.815 25.836C152.359 26.1667 152.785 26.6413 153.095 27.26C153.404 27.8787 153.559 28.6307 153.559 29.516C153.559 30.38 153.399 31.1213 153.079 31.74C152.769 32.3587 152.343 32.8333 151.799 33.164C151.265 33.4947 150.668 33.66 150.007 33.66ZM149.639 32.284C150.332 32.284 150.871 32.0387 151.255 31.548C151.649 31.0467 151.847 30.364 151.847 29.5C151.847 28.636 151.655 27.9587 151.271 27.468C150.887 26.9773 150.348 26.732 149.655 26.732C149.207 26.732 148.817 26.8493 148.487 27.084C148.156 27.308 147.895 27.628 147.703 28.044C147.521 28.46 147.431 28.956 147.431 29.532C147.431 30.0973 147.521 30.588 147.703 31.004C147.884 31.4093 148.14 31.724 148.471 31.948C148.812 32.172 149.201 32.284 149.639 32.284ZM157.414 21.9V31.26C157.414 31.6547 157.483 31.9267 157.622 32.076C157.761 32.2253 157.99 32.3 158.31 32.3C158.502 32.3 158.662 32.2893 158.79 32.268C158.929 32.236 159.099 32.1827 159.302 32.108L159.11 33.388C158.929 33.4733 158.721 33.5373 158.486 33.58C158.251 33.6333 158.017 33.66 157.782 33.66C157.067 33.66 156.539 33.4787 156.198 33.116C155.867 32.7427 155.702 32.172 155.702 31.404V21.9H157.414ZM164.254 33.66C163.454 33.66 162.75 33.4947 162.142 33.164C161.534 32.8333 161.06 32.3587 160.718 31.74C160.388 31.1107 160.222 30.364 160.222 29.5C160.222 28.636 160.388 27.8947 160.718 27.276C161.06 26.6467 161.529 26.1667 162.126 25.836C162.724 25.5053 163.401 25.34 164.158 25.34C164.937 25.34 165.598 25.5 166.142 25.82C166.686 26.14 167.102 26.5773 167.39 27.132C167.678 27.6867 167.822 28.316 167.822 29.02C167.822 29.212 167.817 29.3933 167.806 29.564C167.796 29.7347 167.78 29.884 167.758 30.012H161.326V28.7H167.006L166.158 28.956C166.158 28.2307 165.977 27.676 165.614 27.292C165.252 26.8973 164.756 26.7 164.126 26.7C163.668 26.7 163.268 26.8067 162.926 27.02C162.585 27.2333 162.324 27.5533 162.142 27.98C161.961 28.396 161.87 28.908 161.87 29.516C161.87 30.1133 161.966 30.62 162.158 31.036C162.35 31.452 162.622 31.7667 162.974 31.98C163.326 32.1933 163.742 32.3 164.222 32.3C164.756 32.3 165.188 32.1987 165.518 31.996C165.849 31.7933 166.11 31.5107 166.302 31.148L167.662 31.788C167.47 32.172 167.209 32.508 166.878 32.796C166.558 33.0733 166.174 33.2867 165.726 33.436C165.278 33.5853 164.788 33.66 164.254 33.66ZM186.227 22.94V33.5H184.643V27.388L184.771 24.476H184.755L181.539 33.5H180.115L176.899 24.476H176.883L177.011 27.388V33.5H175.427V22.94H177.971L180.099 29.052L180.835 31.564H180.867L181.619 29.052L183.731 22.94H186.227ZM192.488 25.34C193.266 25.34 193.954 25.5053 194.552 25.836C195.149 26.1667 195.613 26.6467 195.944 27.276C196.285 27.8947 196.456 28.636 196.456 29.5C196.456 30.364 196.285 31.1107 195.944 31.74C195.613 32.3587 195.149 32.8333 194.552 33.164C193.954 33.4947 193.266 33.66 192.488 33.66C191.709 33.66 191.021 33.4947 190.424 33.164C189.826 32.8333 189.357 32.3587 189.016 31.74C188.674 31.1107 188.504 30.364 188.504 29.5C188.504 28.636 188.674 27.8947 189.016 27.276C189.357 26.6467 189.826 26.1667 190.424 25.836C191.021 25.5053 191.709 25.34 192.488 25.34ZM192.488 26.684C192.008 26.684 191.597 26.796 191.256 27.02C190.925 27.2333 190.669 27.548 190.488 27.964C190.306 28.38 190.216 28.892 190.216 29.5C190.216 30.0973 190.306 30.6093 190.488 31.036C190.669 31.452 190.925 31.772 191.256 31.996C191.597 32.2093 192.008 32.316 192.488 32.316C192.968 32.316 193.373 32.2093 193.704 31.996C194.034 31.772 194.29 31.452 194.472 31.036C194.653 30.6093 194.744 30.0973 194.744 29.5C194.744 28.892 194.653 28.38 194.472 27.964C194.29 27.548 194.034 27.2333 193.704 27.02C193.373 26.796 192.968 26.684 192.488 26.684ZM201.681 33.66C201.02 33.66 200.417 33.4947 199.873 33.164C199.34 32.8333 198.919 32.3587 198.609 31.74C198.3 31.1213 198.145 30.38 198.145 29.516C198.145 28.62 198.311 27.8627 198.641 27.244C198.972 26.6253 199.415 26.156 199.969 25.836C200.524 25.5053 201.132 25.34 201.793 25.34C202.476 25.34 203.052 25.5267 203.521 25.9C203.991 26.2733 204.305 26.7587 204.465 27.356L204.273 27.532V21.9H205.985V33.5H204.465L204.337 31.324L204.561 31.34C204.487 31.82 204.311 32.236 204.033 32.588C203.756 32.9293 203.409 33.196 202.993 33.388C202.588 33.5693 202.151 33.66 201.681 33.66ZM202.049 32.284C202.508 32.284 202.903 32.1667 203.233 31.932C203.564 31.6973 203.82 31.3667 204.001 30.94C204.183 30.5133 204.273 30.0013 204.273 29.404C204.273 28.8493 204.183 28.3747 204.001 27.98C203.82 27.5747 203.564 27.2653 203.233 27.052C202.913 26.8387 202.54 26.732 202.113 26.732C201.399 26.732 200.844 26.9773 200.449 27.468C200.055 27.9587 199.857 28.636 199.857 29.5C199.857 30.364 200.049 31.0467 200.433 31.548C200.817 32.0387 201.356 32.284 202.049 32.284ZM212.161 33.66C211.361 33.66 210.657 33.4947 210.049 33.164C209.441 32.8333 208.966 32.3587 208.625 31.74C208.294 31.1107 208.129 30.364 208.129 29.5C208.129 28.636 208.294 27.8947 208.625 27.276C208.966 26.6467 209.435 26.1667 210.033 25.836C210.63 25.5053 211.307 25.34 212.065 25.34C212.843 25.34 213.505 25.5 214.049 25.82C214.593 26.14 215.009 26.5773 215.297 27.132C215.585 27.6867 215.729 28.316 215.729 29.02C215.729 29.212 215.723 29.3933 215.713 29.564C215.702 29.7347 215.686 29.884 215.665 30.012H209.233V28.7H214.913L214.065 28.956C214.065 28.2307 213.883 27.676 213.521 27.292C213.158 26.8973 212.662 26.7 212.033 26.7C211.574 26.7 211.174 26.8067 210.833 27.02C210.491 27.2333 210.23 27.5533 210.049 27.98C209.867 28.396 209.777 28.908 209.777 29.516C209.777 30.1133 209.873 30.62 210.065 31.036C210.257 31.452 210.529 31.7667 210.881 31.98C211.233 32.1933 211.649 32.3 212.129 32.3C212.662 32.3 213.094 32.1987 213.425 31.996C213.755 31.7933 214.017 31.5107 214.209 31.148L215.569 31.788C215.377 32.172 215.115 32.508 214.785 32.796C214.465 33.0733 214.081 33.2867 213.633 33.436C213.185 33.5853 212.694 33.66 212.161 33.66Z" fill="#666666"/>
<path d="M17 23L30 37" stroke="#666666" stroke-width="2" stroke-miterlimit="10"/>
<path d="M21.3677 27.829C21.9725 27.0084 22.9207 26.4768 23.9903 26.4768C25.8168 26.4768 27.2974 28.0195 27.2974 29.9226C27.2974 31.0371 26.7872 32.0251 25.9996 32.6551L27.2903 34C29.7792 32.6591 31 30.1904 31 30.1904L30.9839 29.6312C30.9839 29.6312 28.2423 25 23.9903 25C22.4378 25 21.0895 25.6198 20 26.4034L21.3677 27.829Z" fill="#666666"/>
<path d="M24.6967 33.2702C24.3144 33.4119 23.903 33.4927 23.4719 33.4927C21.525 33.4927 19.9467 31.9182 19.9467 29.9758C19.9467 29.5458 20.0278 29.1353 20.1698 28.7539L18.4112 27C16.8894 28.2771 16.0171 29.6784 16.0171 29.6784L16 30.2491C16 30.2491 18.4359 35 23.4719 35C24.4036 35 25.2451 34.8357 26 34.5709L24.6967 33.2702Z" fill="#666666"/>
</svg>
