<svg width="89" height="98" viewBox="0 0 89 98" fill="none" xmlns="http://www.w3.org/2000/svg">
<path d="M83.3229 0C86.0843 0 88.3316 2.2401 88.2396 5C87.1374 38.0707 75.1269 69.8555 54.0836 95.3911C52.3275 97.5222 49.1604 97.7164 47.089 95.8902L1.70726 55.8808C-0.364116 54.0547 -0.548915 50.904 1.1435 48.722C10.9072 36.1336 16.6648 20.8967 17.6658 4.9971C17.8393 2.24113 20.0615 0 22.8229 0H83.3229Z" fill="#7D67EE"/>
<path d="M44.296 36.6897C44.4324 36.3944 44.6003 36.1517 44.7996 35.9618C44.999 35.7719 45.2195 35.6506 45.4613 35.5978C45.7031 35.5449 45.9498 35.5767 46.2016 35.693C46.4631 35.8138 46.6569 35.9855 46.7831 36.2083C46.9119 36.4382 46.9578 36.7267 46.9208 37.0739C46.8864 37.4281 46.7563 37.8497 46.5304 38.3387L46.111 39.2466C45.9165 39.6678 45.6928 39.9992 45.4402 40.2409C45.1876 40.4826 44.9195 40.6496 44.636 40.7418C44.3525 40.8341 44.0659 40.8633 43.7761 40.8293C43.4889 40.8024 43.2122 40.7274 42.9459 40.6044C42.5585 40.4255 42.2476 40.2084 42.013 39.9531C41.7761 39.7027 41.6041 39.4265 41.497 39.1244C41.3849 38.82 41.3297 38.5007 41.3313 38.1666C41.3329 37.8325 41.3785 37.4922 41.468 37.1458C41.5553 36.8043 41.675 36.4689 41.8271 36.1397L41.9243 35.929C42.1614 35.4158 42.4337 34.9982 42.7411 34.676C43.0437 34.3517 43.3678 34.1078 43.7135 33.9444C44.0522 33.7836 44.3988 33.6882 44.7535 33.6581C45.1081 33.6281 45.4571 33.6483 45.8005 33.7188C46.1439 33.7893 46.4682 33.895 46.7732 34.0359L46.9257 34.1064C47.3227 34.2898 47.6732 34.5104 47.977 34.7683C48.2809 35.0262 48.5472 35.3019 48.7758 35.5955C49.0092 35.8913 49.2127 36.1821 49.3862 36.4679L48.8217 36.8505C48.6401 36.5315 48.4353 36.2372 48.2074 35.9674C47.9844 35.6999 47.7395 35.4605 47.4729 35.2492C47.2111 35.0401 46.9301 34.8663 46.6299 34.7276L46.4919 34.6639C46.1288 34.4961 45.7604 34.3906 45.3868 34.3473C45.0062 34.3065 44.6374 34.3418 44.2805 34.4531C43.9188 34.5621 43.5814 34.7646 43.2684 35.0606C42.9554 35.3567 42.6815 35.7589 42.4467 36.2673L42.4064 36.3544C42.2163 36.7659 42.0899 37.154 42.0272 37.5187C41.9622 37.8882 41.9644 38.227 42.0336 38.5351C42.0957 38.8457 42.2295 39.122 42.435 39.3638C42.6335 39.6082 42.9046 39.8098 43.2483 39.9686C43.6115 40.1364 43.9439 40.1989 44.2456 40.1561C44.5474 40.1134 44.8154 39.9846 45.0498 39.7698C45.2819 39.5597 45.4752 39.2877 45.6295 38.9536L46.0455 38.0531C46.1596 37.8061 46.2423 37.5888 46.2938 37.4011C46.343 37.2182 46.3617 37.0506 46.3498 36.8982C46.3361 36.7627 46.2955 36.647 46.2281 36.5512C46.1634 36.4625 46.0608 36.3858 45.9204 36.3209C45.6976 36.218 45.4857 36.2318 45.2845 36.3621C45.0881 36.4946 44.9251 36.7013 44.7954 36.9821C44.697 37.1951 44.6446 37.3912 44.6382 37.5704C44.6344 37.7567 44.6934 37.9278 44.8151 38.084C44.9395 38.2471 45.1445 38.3947 45.4302 38.5267L47.3838 39.4291L47.9608 38.18L46.6536 37.5761L46.8024 36.9487L48.7488 37.8478L46.9942 41.6461L46.4713 41.4046L47.0986 40.0465L45.2394 39.1876C44.915 39.0378 44.6742 38.8913 44.5171 38.7482C44.3577 38.61 44.2386 38.4609 44.1597 38.3011C44.045 38.066 44.0037 37.8119 44.0359 37.5389C44.0706 37.273 44.1573 36.9899 44.296 36.6897Z" fill="#FFB743"/>
<path d="M42.0617 47.8408C41.9409 48.1023 41.7645 48.2998 41.5324 48.4335C41.3051 48.5694 41.035 48.6326 40.7221 48.6232C40.4092 48.6138 40.0688 48.5241 39.7008 48.3541C39.1828 48.1148 38.7811 47.8206 38.4959 47.4715C38.2085 47.1272 38.0214 46.75 37.9347 46.3398C37.8432 45.9274 37.8348 45.5005 37.9095 45.0592C37.977 44.6204 38.1092 44.188 38.306 43.7619L38.3731 43.6166C38.6035 43.1179 38.8689 42.7088 39.1692 42.3893C39.4647 42.0676 39.7829 41.8239 40.1238 41.6583C40.4576 41.4952 40.8005 41.3951 41.1525 41.358C41.5023 41.3257 41.8524 41.3435 42.2029 41.4114C42.5464 41.4819 42.8754 41.5899 43.1901 41.7353L43.3281 41.799C43.73 41.9846 44.0816 42.2029 44.3828 42.4536C44.6889 42.7067 44.9598 42.9787 45.1955 43.2697C45.429 43.5655 45.6399 43.8656 45.8283 44.17L45.2605 44.5598C44.9786 44.0889 44.6627 43.6727 44.3127 43.3113C43.9627 42.9498 43.531 42.6506 43.0178 42.4135L42.8944 42.3565C42.5409 42.1932 42.1809 42.0886 41.8144 42.0427C41.4408 41.9993 41.0767 42.0309 40.722 42.1373C40.3651 42.2486 40.0324 42.4474 39.7239 42.7337C39.4132 43.0249 39.1415 43.4223 38.9089 43.9258L38.872 44.0057C38.6282 44.5334 38.5004 45.0325 38.4887 45.503C38.4748 45.9783 38.5918 46.4054 38.8398 46.7843C39.0829 47.161 39.4659 47.4701 39.9888 47.7116C40.2648 47.8391 40.5069 47.9128 40.7151 47.9326C40.9259 47.9595 41.1053 47.9337 41.2532 47.8551C41.3988 47.7814 41.5108 47.6598 41.5891 47.4904C41.6517 47.3548 41.6844 47.2142 41.687 47.0685C41.6874 46.9277 41.6761 46.7933 41.6531 46.6651L42.1832 46.91C42.2085 47.0333 42.2141 47.1739 42.1999 47.3319C42.1905 47.492 42.1444 47.6617 42.0617 47.8408ZM41.2848 43.4371L45.3083 45.2957L43.557 49.0868L43.0341 48.8452L43.6212 47.5743L40.1207 45.9572L40.4092 45.3327L43.9097 46.9497L44.4968 45.6787L40.9963 44.0617L41.2848 43.4371Z" fill="#FFB743"/>
<path d="M69.5107 32.8215L63.9427 30.3896C62.9933 29.9749 62.3612 29.3933 62.0465 28.6448C61.7367 27.9085 61.7778 27.0914 62.1701 26.1933C62.4465 25.5604 62.7942 25.0909 63.213 24.785C63.6318 24.479 64.0948 24.3401 64.6019 24.3681C65.1139 24.4084 65.6408 24.613 66.1824 24.982L65.9601 26.0154C65.2742 25.6038 64.7031 25.4307 64.2467 25.4962C63.7952 25.574 63.4293 25.9336 63.1491 26.5751C62.8316 27.3021 62.8116 27.8841 63.0893 28.3211C63.3755 28.7618 63.8949 29.1465 64.6476 29.4753L69.959 31.7952L69.5107 32.8215Z" fill="#E2E6FE"/>
<path d="M58.8605 33.7707C59.0398 33.3601 59.2868 33.0046 59.6014 32.7041C59.9122 32.4121 60.2891 32.2253 60.7321 32.1438C61.1799 32.0746 61.6818 32.1614 62.2378 32.4042L66.4459 34.2422L65.9976 35.2686L62.0589 33.5483C61.4089 33.2644 60.8982 33.2094 60.5269 33.3833C60.1641 33.5609 59.8707 33.9063 59.6465 34.4195C59.5419 34.659 59.4777 34.911 59.4538 35.1756C59.4384 35.4439 59.4771 35.7052 59.5697 35.9595C59.6671 36.2261 59.8303 36.4705 60.0591 36.6927C60.2843 36.9235 60.585 37.121 60.9613 37.2854L64.451 38.8096L64.0027 39.8359L57.5879 37.0341L57.9802 36.1361L58.9832 36.4978C58.6955 36.1073 58.5458 35.6804 58.5343 35.217C58.5276 34.766 58.6364 34.2839 58.8605 33.7707Z" fill="#E2E6FE"/>
<path d="M53.8504 38.2461L62.9594 42.2247L62.5672 43.1227L60.9627 42.5289L61.204 42.4662C61.4548 42.7082 61.6428 42.9889 61.768 43.3084C61.9018 43.6316 61.9638 43.9795 61.9538 44.352C61.9439 44.7245 61.8586 45.0947 61.698 45.4624C61.4701 45.9842 61.1284 46.4052 60.6727 46.7256C60.2133 47.0546 59.6776 47.2433 59.0657 47.2918C58.4539 47.3403 57.7972 47.2113 57.0959 46.905C56.4031 46.6024 55.8641 46.2041 55.479 45.7099C55.0988 45.2281 54.8732 44.7069 54.8023 44.1464C54.7314 43.5858 54.8118 43.0404 55.0434 42.5101C55.275 41.9798 55.6069 41.5697 56.0391 41.2798C56.4761 41.0021 56.9329 40.8656 57.4096 40.8701L57.546 41.0824L53.4021 39.2725L53.8504 38.2461ZM55.9863 42.7997C55.7099 43.4326 55.7174 44.0216 56.009 44.5665C56.2969 45.12 56.8086 45.5574 57.5442 45.8786C58.2797 46.1999 58.9465 46.2823 59.5444 46.1259C60.1386 45.978 60.5721 45.5919 60.8448 44.9675C61.0241 44.557 61.0783 44.1529 61.0076 43.7554C60.9453 43.3615 60.7677 42.9988 60.4746 42.6671C60.1901 42.3391 59.7998 42.0668 59.3037 41.8501C58.8162 41.6372 58.353 41.5317 57.9143 41.5335C57.4718 41.544 57.0825 41.654 56.7465 41.8637C56.4153 42.0857 56.1619 42.3977 55.9863 42.7997Z" fill="#E2E6FE"/>
<path d="M60.4537 51.3194C60.5546 51.0884 60.7052 50.9302 60.9055 50.8445C61.1107 50.7712 61.3288 50.7849 61.5597 50.8858C61.7906 50.9867 61.9446 51.1354 62.0217 51.332C62.1036 51.5409 62.0941 51.7609 61.9933 51.9918C61.8924 52.2227 61.7394 52.3749 61.5342 52.4482C61.3339 52.5338 61.1182 52.5262 60.8873 52.4254C60.6563 52.3245 60.4999 52.1696 60.418 51.9607C60.341 51.7641 60.3528 51.5503 60.4537 51.3194ZM58.9979 51.2946L52.5831 48.4928L53.0314 47.4664L59.4462 50.2682L58.9979 51.2946Z" fill="#E2E6FE"/>
<path d="M59.1183 55.9857L52.6522 53.1615C52.3357 53.0233 52.0613 53.0104 51.8289 53.1227C51.5965 53.2351 51.4186 53.4324 51.2954 53.7147C51.187 53.9627 51.1364 54.1952 51.1435 54.4122C51.1506 54.6292 51.195 54.8421 51.2769 55.051L50.2605 55.0348C50.1668 54.7596 50.1284 54.4628 50.1453 54.1442C50.1584 53.8343 50.2416 53.5039 50.3948 53.1533C50.5367 52.8283 50.7249 52.5489 50.9594 52.3152C51.2024 52.0853 51.4853 51.9389 51.8081 51.8762C52.1357 51.8258 52.5066 51.8859 52.9209 52.0567L59.2844 54.8361L59.1183 55.9857ZM56.2767 57.525L55.3914 57.1384L57.4199 52.494L58.3052 52.8807L56.2767 57.525Z" fill="#E2E6FE"/>
<path d="M47.8959 58.8746C48.1611 58.2673 48.5309 57.7821 49.0053 57.4189C49.4759 57.0643 50.0171 56.8628 50.629 56.8143C51.2494 56.7696 51.9061 56.8985 52.5989 57.2011C53.2917 57.5037 53.8282 57.8959 54.2085 58.3777C54.5973 58.8633 54.8234 59.3949 54.8868 59.9726C54.9502 60.5502 54.8531 61.1341 54.5953 61.7243C54.3338 62.323 53.9832 62.7759 53.5436 63.0829C53.1002 63.3985 52.6076 63.5704 52.0657 63.5985C51.5324 63.6303 50.992 63.5267 50.4446 63.2876C50.2992 63.2241 50.1685 63.162 50.0525 63.1011C49.9365 63.0402 49.8352 62.9807 49.7485 62.9225L52.0124 57.7393L52.9233 58.1372L50.8556 62.8713L50.9827 62.3005C51.5985 62.5695 52.1479 62.6057 52.6309 62.4093C53.1102 62.2214 53.4694 61.8538 53.7084 61.3064C53.8915 60.8873 53.9519 60.4808 53.8897 60.087C53.8322 59.7054 53.657 59.3488 53.3639 59.0171C53.0757 58.6977 52.675 58.4259 52.1618 58.2018C51.6572 57.9814 51.1836 57.8764 50.7411 57.8868C50.2986 57.8973 49.9117 58.0135 49.5805 58.2354C49.2541 58.4697 48.9957 58.805 48.8052 59.2412C48.5997 59.7116 48.5233 60.1314 48.5759 60.5007C48.6247 60.8785 48.7639 61.2245 48.9934 61.5386L48.1656 62.1395C47.9458 61.85 47.785 61.5302 47.6833 61.1802C47.5778 60.8388 47.5399 60.4709 47.5695 60.0764C47.604 59.6943 47.7128 59.2937 47.8959 58.8746Z" fill="#E2E6FE"/>
<path d="M45.9612 63.6538L52.376 66.4556L52.0118 67.2896L50.8981 66.9712C51.2131 67.3226 51.3943 67.7124 51.4416 68.1404C51.4851 68.577 51.3986 69.0434 51.1819 69.5395C51.1333 69.6507 51.0725 69.7667 50.9993 69.8875C50.9224 70.0169 50.8378 70.1174 50.7454 70.1891L49.8873 69.6004C49.9626 69.5212 50.0331 69.4298 50.0987 69.3261C50.1644 69.2224 50.2421 69.0679 50.3317 68.8626C50.4475 68.5975 50.4882 68.2944 50.4538 67.9535C50.4157 67.6211 50.2776 67.296 50.0396 66.9781C49.8101 66.664 49.4559 66.4024 48.9769 66.1932L45.5129 64.6802L45.9612 63.6538Z" fill="#E2E6FE"/>
</svg>
