<svg width="89" height="98" viewBox="0 0 89 98" fill="none" xmlns="http://www.w3.org/2000/svg">
<path d="M4.91943 97.1359C2.15801 97.1359 -0.089259 94.8958 0.00272689 92.1359C1.10496 59.0653 13.1154 27.2805 34.1586 1.74487C35.9148 -0.386184 39.0819 -0.580363 41.1533 1.2458L86.535 41.2551C88.6064 43.0813 88.7912 46.232 87.0988 48.414C77.3351 61.0023 71.5775 76.2393 70.5766 92.1388C70.4031 94.8948 68.1809 97.1359 65.4194 97.1359L4.91943 97.1359Z" fill="#7D67EE"/>
<path d="M40.9464 63.4006C40.8073 63.8096 40.6078 64.1727 40.3478 64.4899C40.0845 64.8003 39.7693 65.048 39.4022 65.233C39.0368 65.4129 38.6255 65.5124 38.1683 65.5316C37.7111 65.5507 37.22 65.471 36.6949 65.2924C36.1697 65.1138 35.7327 64.875 35.3837 64.5761C35.0364 64.272 34.7754 63.9298 34.6006 63.5492C34.4225 63.1619 34.3305 62.7532 34.3247 62.3231C34.3139 61.8913 34.3831 61.4557 34.5325 61.0164C34.6356 60.7135 34.7746 60.4537 34.9496 60.2372C35.1264 60.0157 35.3381 59.8652 35.5848 59.7857C35.8282 59.6995 36.109 59.7105 36.4271 59.8187C36.6897 59.908 36.8955 60.0399 37.0445 60.2145C37.1885 60.3874 37.2758 60.5861 37.3065 60.8106C37.3372 61.0352 37.3105 61.2711 37.2263 61.5185C37.1387 61.776 37.0161 61.9794 36.8583 62.1285C36.6955 62.2759 36.5119 62.3684 36.3076 62.406C36.0983 62.4418 35.8825 62.422 35.6603 62.3464C35.4382 62.2708 35.255 62.155 35.111 61.999C34.9669 61.8429 34.8616 61.6804 34.7952 61.5113L35.0783 61.126C35.1668 61.28 35.2706 61.4054 35.3897 61.5023C35.5106 61.5941 35.6468 61.6658 35.7983 61.7173C36.0255 61.7946 36.2169 61.7949 36.3725 61.7183C36.5282 61.6416 36.6377 61.5099 36.7013 61.3231C36.7717 61.116 36.7601 60.9347 36.6666 60.7789C36.5698 60.6164 36.4204 60.5008 36.2184 60.4321C36.0367 60.3703 35.8723 60.3651 35.7252 60.4165C35.5799 60.4628 35.4537 60.5523 35.3466 60.6849C35.2362 60.8107 35.1493 60.967 35.0857 61.1539C35.0668 61.2094 35.0445 61.275 35.0188 61.3508C34.993 61.4265 34.9714 61.5065 34.954 61.5907C34.9016 61.894 34.8972 62.1967 34.9409 62.4989C34.9813 62.7943 35.0782 63.0807 35.2317 63.3583C35.3869 63.6307 35.6013 63.8783 35.8748 64.1009C36.1451 64.3167 36.4847 64.4942 36.8937 64.6333C37.2926 64.769 37.6657 64.8395 38.0131 64.845C38.3555 64.8488 38.6703 64.801 38.9576 64.7015C39.2416 64.5953 39.4913 64.4492 39.7066 64.2633C39.9186 64.0707 40.0987 63.8475 40.247 63.5937C40.2964 63.5147 40.3382 63.4332 40.3725 63.349C40.4016 63.2632 40.4274 63.1875 40.4497 63.1218C40.5184 62.9198 40.5482 62.7328 40.5392 62.5607C40.525 62.3869 40.4695 62.2356 40.3724 62.1069C40.2703 61.9764 40.1208 61.8777 39.9239 61.8107C39.7017 61.7351 39.4985 61.728 39.3143 61.7893C39.1268 61.8438 38.9944 61.9847 38.9171 62.2119C38.8501 62.4088 38.8625 62.5961 38.9542 62.7737C39.0425 62.9446 39.218 63.0747 39.4805 63.164C39.6623 63.2258 39.8468 63.2548 40.0341 63.2509C40.2213 63.2469 40.4011 63.2067 40.5736 63.1302L40.5351 63.641C40.3575 63.7326 40.1555 63.7964 39.9293 63.8321C39.6998 63.861 39.4461 63.8283 39.1684 63.7339C38.9362 63.6549 38.7463 63.534 38.5989 63.3711C38.4464 63.2066 38.3498 63.0104 38.309 62.7825C38.2682 62.5545 38.2942 62.3042 38.3869 62.0316C38.4711 61.7841 38.5963 61.5817 38.7625 61.4241C38.9288 61.2666 39.1292 61.1658 39.3639 61.1217C39.5936 61.0759 39.8498 61.101 40.1326 61.1972C40.4608 61.3088 40.7026 61.4756 40.8581 61.6975C41.0136 61.9193 41.0947 62.1779 41.1013 62.4731C41.1097 62.7632 41.058 63.0724 40.9464 63.4006Z" fill="#FFB743"/>
<path d="M42.311 59.3885C42.2079 59.6914 42.0672 59.9478 41.8889 60.1575C41.7105 60.3673 41.5039 60.511 41.2689 60.5889C41.034 60.6667 40.7853 60.661 40.5227 60.5717C40.2501 60.479 40.0393 60.3284 39.8905 60.1201C39.7383 59.905 39.6624 59.6228 39.6629 59.2737C39.6583 58.9229 39.7435 58.4899 39.9187 57.9749L40.3824 56.6116C40.4717 56.349 40.5616 56.1261 40.6521 55.9428C40.7426 55.7595 40.8396 55.6067 40.9433 55.4842C41.0436 55.3549 41.1589 55.2477 41.2893 55.1624C41.4349 55.0655 41.6039 55.0075 41.7963 54.9884C41.9837 54.9677 42.1834 54.9933 42.3954 55.0654C42.7792 55.196 43.0376 55.4134 43.1707 55.7178C43.3055 56.0172 43.3016 56.3764 43.159 56.7955C43.1196 56.9116 43.069 57.0353 43.0075 57.1664C42.946 57.2976 42.8778 57.4153 42.803 57.5194L42.3445 57.2029C42.3904 57.134 42.4373 57.0542 42.4851 56.9634C42.5346 56.8676 42.5756 56.7717 42.6083 56.6757C42.689 56.4384 42.6919 56.2394 42.617 56.0787C42.5438 55.913 42.386 55.7889 42.1436 55.7065C41.9719 55.6481 41.8227 55.6396 41.696 55.681C41.5642 55.7207 41.4516 55.7951 41.3581 55.9041C41.2664 56.0081 41.1864 56.1358 41.118 56.2872C41.0463 56.4318 40.9838 56.5824 40.9306 56.7389L40.4309 58.2082C40.3433 58.4658 40.2837 58.6906 40.2522 58.8826C40.2224 59.0697 40.2214 59.2383 40.2491 59.3886C40.277 59.522 40.3294 59.6328 40.4065 59.721C40.4802 59.8024 40.5903 59.868 40.7367 59.9178C40.969 59.9968 41.1783 59.9609 41.3647 59.8103C41.5461 59.6579 41.6866 59.4353 41.7862 59.1424C41.8618 58.9203 41.8934 58.7197 41.881 58.5409C41.8652 58.3553 41.7887 58.1912 41.6512 58.0487C41.5155 57.9011 41.2962 57.7758 40.9932 57.6728L38.9558 56.9799L38.5128 58.2826L39.8761 58.7463L39.7938 59.3858L37.7639 58.6955L39.1111 54.7343L39.6565 54.9198L39.1748 56.3361L41.1137 56.9955C41.452 57.1106 41.7068 57.231 41.8781 57.3569C42.051 57.4777 42.1851 57.6134 42.2804 57.7641C42.419 57.9859 42.4866 58.2342 42.4833 58.5091C42.4766 58.7773 42.4191 59.0704 42.311 59.3885Z" fill="#FFB743"/>
<path d="M44.4366 53.1385C44.3336 53.4415 44.1929 53.6978 44.0145 53.9075C43.8361 54.1173 43.6295 54.2611 43.3946 54.3389C43.1597 54.4168 42.9084 54.4102 42.6408 54.3191C42.3732 54.2281 42.165 54.0784 42.0161 53.8701C41.8639 53.655 41.7881 53.3729 41.7885 53.0237C41.7839 52.6729 41.8692 52.24 42.0443 51.7249L42.441 50.5585C42.5561 50.2202 42.7046 49.9327 42.8865 49.696C43.065 49.4526 43.2753 49.2649 43.5173 49.1332C43.7542 48.9997 44.0186 48.9263 44.3105 48.9128C44.5973 48.8977 44.9048 48.946 45.233 49.0576C45.4451 49.1297 45.6368 49.2203 45.8082 49.3293C45.9846 49.44 46.1373 49.5623 46.2664 49.6964L46.664 50.0428C46.8764 50.3292 47.0288 50.6514 47.1211 51.0095C47.2134 51.3676 47.2413 51.7574 47.205 52.1788C47.1738 52.6019 47.0758 53.0559 46.9109 53.5406L46.8774 53.6391C46.7572 53.9925 46.6052 54.307 46.4214 54.5825C46.2426 54.8597 46.0364 55.06 45.8029 55.1833C45.5694 55.3067 45.3138 55.3212 45.0361 55.2268C44.925 55.189 44.836 55.1361 44.7689 55.0683C44.7019 55.0004 44.656 54.92 44.6312 54.8271C44.6048 54.7392 44.5953 54.643 44.6026 54.5385C44.6151 54.4357 44.6582 54.2758 44.7321 54.0586L46.7181 48.2191L47.2634 48.4046L45.2568 54.3047C45.2362 54.3653 45.2231 54.4285 45.2177 54.4942C45.219 54.5566 45.2626 54.6024 45.3484 54.6316C45.4948 54.6814 45.6529 54.6141 45.8227 54.4296C45.9993 54.2417 46.1639 53.9231 46.3168 53.4738L46.3503 53.3753C46.4756 53.0067 46.5595 52.669 46.6018 52.3623C46.6442 52.0556 46.6476 51.7723 46.612 51.5124C46.5816 51.2541 46.5155 51.0176 46.414 50.8028L46.0345 50.378C45.9491 50.2814 45.8544 50.1956 45.7502 50.1208C45.6478 50.0409 45.537 49.9694 45.4176 49.9062C45.2982 49.8431 45.1679 49.7875 45.0265 49.7394C44.673 49.6192 44.3604 49.5861 44.0885 49.6401C43.8166 49.6941 43.5856 49.8268 43.3954 50.0381C43.2019 50.2427 43.0485 50.5116 42.9352 50.8449L42.5565 51.9583C42.4689 52.2158 42.4094 52.4406 42.3778 52.6327C42.348 52.8197 42.347 52.9883 42.3748 53.1386C42.4026 53.272 42.4551 53.3828 42.5321 53.471C42.6058 53.5524 42.7159 53.618 42.8623 53.6678C43.0946 53.7468 43.3039 53.7109 43.4904 53.5603C43.6718 53.4079 43.8123 53.1853 43.9119 52.8924C43.9874 52.6703 44.019 52.4698 44.0066 52.2909C43.9909 52.1053 43.9143 51.9412 43.7769 51.7987C43.6361 51.6494 43.4168 51.5241 43.1188 51.4228L41.0815 50.7299L40.6384 52.0326L42.0017 52.4963L41.9194 53.1358L39.8896 52.4455L41.2368 48.4843L41.7821 48.6698L41.3004 50.0861L43.2393 50.7455C43.5776 50.8606 43.8324 50.9811 44.0037 51.1069C44.1767 51.2277 44.3108 51.3634 44.406 51.5141C44.5446 51.7359 44.6123 51.9843 44.6089 52.2591C44.6022 52.5273 44.5448 52.8204 44.4366 53.1385ZM47.217 48.5409L41.8395 46.712L42.0611 46.0607L47.4386 47.8896L47.217 48.5409Z" fill="#FFB743"/>
<path d="M19.2926 55.5073L21.8104 60.701L21.9247 60.9208L23.4681 64.1113L22.0457 63.5985L18.794 56.8902L19.2926 55.5073ZM17.2178 61.2628L25.9102 64.3964L25.5303 65.45L16.8379 62.3164L17.2178 61.2628ZM21.1767 60.3535L27.9992 58.6014L27.5434 59.8658L21.456 61.4364L21.1767 60.3535Z" fill="#E2E6FE"/>
<path d="M29.4995 54.8525C29.2748 55.4759 28.9377 55.9843 28.4883 56.3779C28.042 56.7627 27.5152 56.9994 26.9078 57.088C26.2917 57.1734 25.628 57.088 24.9168 56.8316C24.2056 56.5752 23.6444 56.2191 23.2333 55.7633C22.8134 55.3044 22.5528 54.7888 22.4515 54.2166C22.3503 53.6443 22.4088 53.0553 22.6272 52.4494C22.8488 51.8348 23.1688 51.3599 23.5873 51.0246C24.009 50.6805 24.4893 50.4767 25.0281 50.413C25.5582 50.3461 26.1042 50.414 26.6662 50.6165C26.8154 50.6703 26.95 50.7238 27.0697 50.7769C27.1895 50.83 27.2945 50.8827 27.3847 50.9351L25.4666 56.2559L24.5315 55.9188L26.2835 51.059L26.1942 51.6369C25.562 51.409 25.0114 51.409 24.5423 51.6367C24.0765 51.8557 23.7422 52.2462 23.5397 52.8081C23.3846 53.2383 23.351 53.6479 23.439 54.0368C23.5214 54.4137 23.7197 54.7581 24.034 55.0698C24.3426 55.3695 24.7603 55.6144 25.2871 55.8043C25.8052 55.991 26.2846 56.0647 26.7254 56.0252C27.1663 55.9857 27.5447 55.8443 27.8606 55.601C28.1709 55.3457 28.4067 54.9942 28.5681 54.5464C28.7422 54.0635 28.7909 53.6396 28.7141 53.2746C28.6405 52.9008 28.4789 52.5647 28.2293 52.2664L29.0157 51.6124C29.2541 51.8868 29.4356 52.1953 29.5601 52.5378C29.6878 52.8716 29.7498 53.2362 29.7461 53.6317C29.7368 54.0153 29.6546 54.4222 29.4995 54.8525Z" fill="#E2E6FE"/>
<path d="M23.1511 45.547L29.789 47.94C30.1138 48.0571 30.3885 48.0519 30.613 47.9245C30.8375 47.7971 31.002 47.5885 31.1065 47.2988C31.1983 47.0441 31.2335 46.8088 31.2122 46.5928C31.1908 46.3767 31.1324 46.1672 31.037 45.9641L32.0523 45.9135C32.1639 46.1819 32.2218 46.4755 32.2258 46.7945C32.2331 47.1047 32.1718 47.4397 32.042 47.7997C31.9218 48.1334 31.7523 48.4245 31.5337 48.6731C31.3063 48.9185 31.0337 49.0832 30.7158 49.167C30.3922 49.2388 30.0181 49.2032 29.5935 49.0601L23.061 46.7051L23.1511 45.547ZM25.8854 43.8242L26.7942 44.1518L25.0754 48.9195L24.1667 48.5919L25.8854 43.8242Z" fill="#E2E6FE"/>
<path d="M34.0264 42.2953C33.8744 42.7167 33.6514 43.0877 33.3573 43.4083C33.0663 43.7201 32.7024 43.9312 32.2658 44.0417C31.8235 44.1402 31.317 44.0866 30.7463 43.8808L26.4264 42.3235L26.8062 41.2699L30.8495 42.7275C31.5168 42.9681 32.03 42.9894 32.3891 42.7914C32.7394 42.5903 33.0095 42.2263 33.1994 41.6995C33.288 41.4537 33.3356 41.198 33.342 40.9324C33.3397 40.6637 33.2839 40.4055 33.1748 40.1578C33.06 39.8982 32.8812 39.665 32.6382 39.4584C32.3984 39.2429 32.0853 39.0656 31.699 38.9263L28.1166 37.6349L28.4965 36.5813L35.0816 38.9552L34.7493 39.8771L33.7246 39.5821C34.0374 39.9529 34.2148 40.369 34.2567 40.8306C34.2931 41.2802 34.2163 41.7684 34.0264 42.2953Z" fill="#E2E6FE"/>
</svg>
