<svg width="135" height="56" viewBox="0 0 135 56" fill="none" xmlns="http://www.w3.org/2000/svg">
<path d="M51.28 32.028H57.104V33.5H49.568V22.94H51.28V32.028ZM63.5301 28.364C63.5301 27.8307 63.3808 27.42 63.0821 27.132C62.7941 26.8333 62.3941 26.684 61.8821 26.684C61.4021 26.684 60.9915 26.796 60.6501 27.02C60.3088 27.244 60.0581 27.6067 59.8981 28.108L58.4581 27.5C58.6608 26.8493 59.0555 26.3267 59.6421 25.932C60.2395 25.5373 61.0075 25.34 61.9461 25.34C62.5861 25.34 63.1515 25.4467 63.6421 25.66C64.1328 25.8627 64.5168 26.172 64.7941 26.588C65.0821 27.004 65.2261 27.5373 65.2261 28.188V31.756C65.2261 32.1507 65.4235 32.348 65.8181 32.348C66.0101 32.348 66.1968 32.3213 66.3781 32.268L66.2821 33.452C66.0368 33.5693 65.7275 33.628 65.3541 33.628C65.0128 33.628 64.7035 33.5693 64.4261 33.452C64.1595 33.324 63.9461 33.1373 63.7861 32.892C63.6368 32.636 63.5621 32.3213 63.5621 31.948V31.836L63.9141 31.82C63.8181 32.236 63.6208 32.5827 63.3221 32.86C63.0235 33.1267 62.6768 33.3293 62.2821 33.468C61.8875 33.596 61.4875 33.66 61.0821 33.66C60.5808 33.66 60.1275 33.58 59.7221 33.42C59.3275 33.26 59.0128 33.02 58.7781 32.7C58.5541 32.3693 58.4421 31.964 58.4421 31.484C58.4421 30.8867 58.6341 30.396 59.0181 30.012C59.4128 29.628 59.9675 29.3667 60.6821 29.228L63.7861 28.62L63.7701 29.82L61.5141 30.284C61.0661 30.3693 60.7301 30.492 60.5061 30.652C60.2821 30.812 60.1701 31.0467 60.1701 31.356C60.1701 31.6547 60.2821 31.8947 60.5061 32.076C60.7408 32.2467 61.0501 32.332 61.4341 32.332C61.7008 32.332 61.9568 32.3 62.2021 32.236C62.4581 32.172 62.6875 32.0707 62.8901 31.932C63.0928 31.7827 63.2475 31.596 63.3541 31.372C63.4715 31.1373 63.5301 30.86 63.5301 30.54V28.364ZM68.0311 33.5V25.5H69.5511L69.6631 27.58L69.4391 27.356C69.5885 26.8973 69.8018 26.5187 70.0791 26.22C70.3671 25.9107 70.7031 25.6867 71.0871 25.548C71.4818 25.4093 71.8978 25.34 72.3351 25.34C72.9005 25.34 73.4071 25.452 73.8551 25.676C74.3138 25.8893 74.6765 26.2147 74.9431 26.652C75.2098 27.0893 75.3431 27.644 75.3431 28.316V33.5H73.6311V28.844C73.6311 28.0547 73.4658 27.5107 73.1351 27.212C72.8151 26.9027 72.4098 26.748 71.9191 26.748C71.5671 26.748 71.2258 26.8333 70.8951 27.004C70.5645 27.164 70.2871 27.4253 70.0631 27.788C69.8498 28.1507 69.7431 28.636 69.7431 29.244V33.5H68.0311ZM84.9774 23.82L85.2494 25.164C85.2174 25.164 85.1854 25.164 85.1534 25.164C85.1214 25.1533 85.0894 25.148 85.0574 25.148C84.5454 25.148 84.156 25.26 83.8894 25.484C83.6227 25.6973 83.4894 26.012 83.4894 26.428L82.6574 26.044C82.6574 25.6173 82.748 25.2387 82.9294 24.908C83.1107 24.5667 83.3667 24.3 83.6974 24.108C84.0387 23.916 84.4227 23.82 84.8494 23.82C84.8707 23.82 84.892 23.82 84.9134 23.82C84.9347 23.82 84.956 23.82 84.9774 23.82ZM82.4494 32.252C83.26 32.252 83.8894 32.4333 84.3374 32.796C84.7854 33.148 85.0094 33.6387 85.0094 34.268C85.0094 34.8227 84.8334 35.2973 84.4814 35.692C84.1294 36.0973 83.6494 36.4067 83.0414 36.62C82.444 36.8333 81.756 36.94 80.9774 36.94C79.6654 36.94 78.6947 36.7373 78.0654 36.332C77.436 35.9267 77.1214 35.42 77.1214 34.812C77.1214 34.3853 77.2707 34.012 77.5694 33.692C77.8787 33.372 78.396 33.1907 79.1214 33.148L79.0254 33.404C78.5774 33.308 78.2147 33.1373 77.9374 32.892C77.6707 32.636 77.5374 32.2787 77.5374 31.82C77.5374 31.3613 77.7134 30.972 78.0654 30.652C78.4174 30.332 78.9134 30.1453 79.5534 30.092L80.4494 30.524H80.2574C79.7667 30.5667 79.42 30.6787 79.2174 30.86C79.0147 31.0413 78.9134 31.244 78.9134 31.468C78.9134 31.7347 79.0094 31.932 79.2014 32.06C79.404 32.188 79.6867 32.252 80.0494 32.252H82.4494ZM80.9774 35.66C81.564 35.66 82.044 35.6013 82.4174 35.484C82.8014 35.3773 83.084 35.2333 83.2654 35.052C83.4574 34.8813 83.5534 34.6893 83.5534 34.476C83.5534 34.2307 83.452 34.0333 83.2494 33.884C83.0574 33.7347 82.7054 33.66 82.1934 33.66H79.6174C79.3187 33.66 79.068 33.7347 78.8654 33.884C78.6627 34.044 78.5614 34.2573 78.5614 34.524C78.5614 34.876 78.7747 35.1533 79.2014 35.356C79.628 35.5587 80.22 35.66 80.9774 35.66ZM80.9134 25.34C81.6174 25.34 82.2254 25.452 82.7374 25.676C83.26 25.9 83.66 26.2147 83.9374 26.62C84.2254 27.0253 84.3694 27.5 84.3694 28.044C84.3694 28.588 84.2254 29.0627 83.9374 29.468C83.66 29.8733 83.26 30.188 82.7374 30.412C82.2254 30.636 81.6174 30.748 80.9134 30.748C79.804 30.748 78.9507 30.5027 78.3534 30.012C77.7667 29.5107 77.4734 28.8547 77.4734 28.044C77.4734 27.5 77.6174 27.0253 77.9054 26.62C78.1934 26.2147 78.5934 25.9 79.1054 25.676C79.628 25.452 80.2307 25.34 80.9134 25.34ZM80.9134 26.54C80.4227 26.54 80.012 26.6787 79.6814 26.956C79.3614 27.2227 79.2014 27.5853 79.2014 28.044C79.2014 28.5027 79.3614 28.8707 79.6814 29.148C80.012 29.4253 80.4227 29.564 80.9134 29.564C81.4147 29.564 81.8254 29.4253 82.1454 29.148C82.476 28.8707 82.6414 28.5027 82.6414 28.044C82.6414 27.5853 82.476 27.2227 82.1454 26.956C81.8254 26.6787 81.4147 26.54 80.9134 26.54ZM89.426 33.66C88.9033 33.66 88.418 33.564 87.97 33.372C87.5327 33.18 87.1807 32.8707 86.914 32.444C86.6473 32.0173 86.514 31.4627 86.514 30.78V25.5H88.226V30.348C88.226 31.0733 88.3807 31.5747 88.69 31.852C88.9993 32.1187 89.4313 32.252 89.986 32.252C90.2527 32.252 90.5087 32.2093 90.754 32.124C91.01 32.028 91.2393 31.884 91.442 31.692C91.6447 31.4893 91.7993 31.2333 91.906 30.924C92.0233 30.6147 92.082 30.252 92.082 29.836V25.5H93.794V33.5H92.29L92.21 32.204C91.9327 32.7053 91.5593 33.0733 91.09 33.308C90.6207 33.5427 90.066 33.66 89.426 33.66ZM101.093 28.364C101.093 27.8307 100.943 27.42 100.645 27.132C100.357 26.8333 99.9566 26.684 99.4446 26.684C98.9646 26.684 98.554 26.796 98.2126 27.02C97.8713 27.244 97.6206 27.6067 97.4606 28.108L96.0206 27.5C96.2233 26.8493 96.618 26.3267 97.2046 25.932C97.802 25.5373 98.57 25.34 99.5086 25.34C100.149 25.34 100.714 25.4467 101.205 25.66C101.695 25.8627 102.079 26.172 102.357 26.588C102.645 27.004 102.789 27.5373 102.789 28.188V31.756C102.789 32.1507 102.986 32.348 103.381 32.348C103.573 32.348 103.759 32.3213 103.941 32.268L103.845 33.452C103.599 33.5693 103.29 33.628 102.917 33.628C102.575 33.628 102.266 33.5693 101.989 33.452C101.722 33.324 101.509 33.1373 101.349 32.892C101.199 32.636 101.125 32.3213 101.125 31.948V31.836L101.477 31.82C101.381 32.236 101.183 32.5827 100.885 32.86C100.586 33.1267 100.239 33.3293 99.8446 33.468C99.45 33.596 99.05 33.66 98.6446 33.66C98.1433 33.66 97.69 33.58 97.2846 33.42C96.89 33.26 96.5753 33.02 96.3406 32.7C96.1166 32.3693 96.0046 31.964 96.0046 31.484C96.0046 30.8867 96.1966 30.396 96.5806 30.012C96.9753 29.628 97.53 29.3667 98.2446 29.228L101.349 28.62L101.333 29.82L99.0766 30.284C98.6286 30.3693 98.2926 30.492 98.0686 30.652C97.8446 30.812 97.7326 31.0467 97.7326 31.356C97.7326 31.6547 97.8446 31.8947 98.0686 32.076C98.3033 32.2467 98.6126 32.332 98.9966 32.332C99.2633 32.332 99.5193 32.3 99.7646 32.236C100.021 32.172 100.25 32.0707 100.453 31.932C100.655 31.7827 100.81 31.596 100.917 31.372C101.034 31.1373 101.093 30.86 101.093 30.54V28.364ZM112.665 23.82L112.937 25.164C112.905 25.164 112.873 25.164 112.841 25.164C112.809 25.1533 112.777 25.148 112.745 25.148C112.233 25.148 111.844 25.26 111.577 25.484C111.31 25.6973 111.177 26.012 111.177 26.428L110.345 26.044C110.345 25.6173 110.436 25.2387 110.617 24.908C110.798 24.5667 111.054 24.3 111.385 24.108C111.726 23.916 112.11 23.82 112.537 23.82C112.558 23.82 112.58 23.82 112.601 23.82C112.622 23.82 112.644 23.82 112.665 23.82ZM110.137 32.252C110.948 32.252 111.577 32.4333 112.025 32.796C112.473 33.148 112.697 33.6387 112.697 34.268C112.697 34.8227 112.521 35.2973 112.169 35.692C111.817 36.0973 111.337 36.4067 110.729 36.62C110.132 36.8333 109.444 36.94 108.665 36.94C107.353 36.94 106.382 36.7373 105.753 36.332C105.124 35.9267 104.809 35.42 104.809 34.812C104.809 34.3853 104.958 34.012 105.257 33.692C105.566 33.372 106.084 33.1907 106.809 33.148L106.713 33.404C106.265 33.308 105.902 33.1373 105.625 32.892C105.358 32.636 105.225 32.2787 105.225 31.82C105.225 31.3613 105.401 30.972 105.753 30.652C106.105 30.332 106.601 30.1453 107.241 30.092L108.137 30.524H107.945C107.454 30.5667 107.108 30.6787 106.905 30.86C106.702 31.0413 106.601 31.244 106.601 31.468C106.601 31.7347 106.697 31.932 106.889 32.06C107.092 32.188 107.374 32.252 107.737 32.252H110.137ZM108.665 35.66C109.252 35.66 109.732 35.6013 110.105 35.484C110.489 35.3773 110.772 35.2333 110.953 35.052C111.145 34.8813 111.241 34.6893 111.241 34.476C111.241 34.2307 111.14 34.0333 110.937 33.884C110.745 33.7347 110.393 33.66 109.881 33.66H107.305C107.006 33.66 106.756 33.7347 106.553 33.884C106.35 34.044 106.249 34.2573 106.249 34.524C106.249 34.876 106.462 35.1533 106.889 35.356C107.316 35.5587 107.908 35.66 108.665 35.66ZM108.601 25.34C109.305 25.34 109.913 25.452 110.425 25.676C110.948 25.9 111.348 26.2147 111.625 26.62C111.913 27.0253 112.057 27.5 112.057 28.044C112.057 28.588 111.913 29.0627 111.625 29.468C111.348 29.8733 110.948 30.188 110.425 30.412C109.913 30.636 109.305 30.748 108.601 30.748C107.492 30.748 106.638 30.5027 106.041 30.012C105.454 29.5107 105.161 28.8547 105.161 28.044C105.161 27.5 105.305 27.0253 105.593 26.62C105.881 26.2147 106.281 25.9 106.793 25.676C107.316 25.452 107.918 25.34 108.601 25.34ZM108.601 26.54C108.11 26.54 107.7 26.6787 107.369 26.956C107.049 27.2227 106.889 27.5853 106.889 28.044C106.889 28.5027 107.049 28.8707 107.369 29.148C107.7 29.4253 108.11 29.564 108.601 29.564C109.102 29.564 109.513 29.4253 109.833 29.148C110.164 28.8707 110.329 28.5027 110.329 28.044C110.329 27.5853 110.164 27.2227 109.833 26.956C109.513 26.6787 109.102 26.54 108.601 26.54ZM117.786 33.66C116.986 33.66 116.282 33.4947 115.674 33.164C115.066 32.8333 114.591 32.3587 114.25 31.74C113.919 31.1107 113.754 30.364 113.754 29.5C113.754 28.636 113.919 27.8947 114.25 27.276C114.591 26.6467 115.06 26.1667 115.658 25.836C116.255 25.5053 116.932 25.34 117.69 25.34C118.468 25.34 119.13 25.5 119.674 25.82C120.218 26.14 120.634 26.5773 120.922 27.132C121.21 27.6867 121.354 28.316 121.354 29.02C121.354 29.212 121.348 29.3933 121.338 29.564C121.327 29.7347 121.311 29.884 121.29 30.012H114.858V28.7H120.538L119.69 28.956C119.69 28.2307 119.508 27.676 119.146 27.292C118.783 26.8973 118.287 26.7 117.658 26.7C117.199 26.7 116.799 26.8067 116.458 27.02C116.116 27.2333 115.855 27.5533 115.674 27.98C115.492 28.396 115.402 28.908 115.402 29.516C115.402 30.1133 115.498 30.62 115.69 31.036C115.882 31.452 116.154 31.7667 116.506 31.98C116.858 32.1933 117.274 32.3 117.754 32.3C118.287 32.3 118.719 32.1987 119.05 31.996C119.38 31.7933 119.642 31.5107 119.834 31.148L121.194 31.788C121.002 32.172 120.74 32.508 120.41 32.796C120.09 33.0733 119.706 33.2867 119.258 33.436C118.81 33.5853 118.319 33.66 117.786 33.66Z" fill="#666666"/>
<path d="M23.996 20C19.576 20 16 23.58 16 28C16 32.42 19.576 36 23.996 36C28.416 36 32 32.42 32 28C32 23.58 28.416 20 23.996 20ZM29.536 24.8H27.176C26.916 23.8 26.552 22.84 26.072 21.952C27.544 22.456 28.768 23.476 29.536 24.8ZM24 21.628C24.668 22.588 25.188 23.656 25.528 24.8H22.472C22.812 23.656 23.332 22.588 24 21.628ZM17.808 29.6C17.676 29.088 17.6 28.552 17.6 28C17.6 27.448 17.676 26.912 17.808 26.4H20.508C20.444 26.924 20.4 27.456 20.4 28C20.4 28.544 20.444 29.076 20.512 29.6H17.808ZM18.46 31.2H20.82C21.08 32.2 21.444 33.16 21.924 34.052C20.452 33.548 19.228 32.524 18.46 31.2ZM20.82 24.8H18.46C19.228 23.476 20.452 22.452 21.924 21.948C21.444 22.84 21.08 23.8 20.82 24.8ZM24 34.372C23.336 33.412 22.816 32.344 22.472 31.2H25.528C25.184 32.344 24.664 33.412 24 34.372ZM25.872 29.6H22.128C22.052 29.076 22 28.544 22 28C22 27.456 22.052 26.924 22.128 26.4H25.872C25.948 26.924 26 27.456 26 28C26 28.544 25.948 29.076 25.872 29.6ZM26.076 34.048C26.556 33.156 26.92 32.2 27.18 31.2H29.54C28.768 32.524 27.544 33.544 26.076 34.048ZM27.488 29.6C27.552 29.076 27.6 28.544 27.6 28C27.6 27.456 27.556 26.924 27.488 26.4H30.188C30.32 26.912 30.4 27.448 30.4 28C30.4 28.552 30.324 29.088 30.188 29.6H27.488Z" fill="#666666"/>
</svg>
