<svg width="44" height="44" viewBox="0 0 44 44" fill="none" xmlns="http://www.w3.org/2000/svg">
<path d="M8.80762 29.196V32.467C8.80762 32.467 8.79962 33.376 9.92262 33.591H34.1136C34.1136 33.591 35.0076 33.547 35.2026 32.451V29.196H8.80762Z" fill="#FFB643"/>
<path d="M7.01062 15.428L8.79462 27.038L35.1786 27.013L36.9956 15.354C37.0086 15.112 37.0226 14.363 36.5856 14.095C36.1506 13.827 35.4986 14.179 35.0456 14.444C33.2496 15.497 31.2786 17.129 30.0886 18.163C30.0886 18.163 28.6316 19.62 27.4986 17.677L23.2866 11.339C23.2866 11.339 22.0576 9.30397 20.7266 11.256L16.3246 17.919C16.3246 17.919 15.5046 19.667 13.7266 18.029C12.7446 17.137 10.4746 15.139 8.72762 14.273C8.27562 14.049 7.78162 13.862 7.42262 14.083C6.92762 14.387 6.99662 15.279 7.00962 15.429L7.01062 15.428Z" fill="#FFB643"/>
</svg>
