<svg width="19" height="44" viewBox="0 0 19 24" fill="none" xmlns="http://www.w3.org/2000/svg">
<path fill-rule="evenodd" clip-rule="evenodd" d="M11.2642 0.0604603C11.5397 0.145583 11.7803 0.314835 11.9512 0.543602C12.122 0.772368 12.2141 1.04872 12.2141 1.33246L10.4198 11.4466L17.6423 7.99913C17.8906 7.99903 18.1341 8.06581 18.3464 8.19223C18.5586 8.31865 18.7316 8.49986 18.8463 8.71612C18.9611 8.93239 19.0132 9.17544 18.9972 9.41882C18.9811 9.6622 18.8974 9.89659 18.7551 10.0965L9.25573 23.4298C9.0904 23.6625 8.85381 23.8373 8.58038 23.9288C8.30694 24.0203 8.01093 24.0237 7.73542 23.9385C7.4599 23.8532 7.21924 23.6839 7.04847 23.455C6.87769 23.2261 6.7857 22.9496 6.78589 22.6658L8.82087 13.4466L1.35766 15.9991C1.10943 15.9992 0.865924 15.9325 0.653643 15.806C0.441363 15.6796 0.268439 15.4984 0.153693 15.2822C0.0389465 15.0659 -0.0132272 14.8228 0.00284959 14.5795C0.0189264 14.3361 0.102638 14.1017 0.244874 13.9018L9.74427 0.568461C9.90985 0.336176 10.1465 0.16181 10.4198 0.0706951C10.6931 -0.0204201 10.9889 -0.0235382 11.2642 0.0617937V0.0604603Z" fill="#666666"/>
</svg>
