<svg width="300" height="300" viewBox="0 0 300 300" fill="none" xmlns="http://www.w3.org/2000/svg">
<path d="M252.53 47.4695C254.483 45.5169 257.656 45.5118 259.543 47.5284C282.148 71.6923 296.13 102.66 299.307 135.596C299.572 138.345 297.47 140.722 294.714 140.895L234.333 144.694C231.577 144.868 229.219 142.77 228.873 140.031C226.875 124.225 220.172 109.38 209.637 97.4296C207.811 95.3581 207.798 92.2021 209.751 90.2495L252.53 47.4695Z" fill="#7D67EE"/>
<path d="M248.864 104.814C248.767 104.548 248.744 104.281 248.794 104.013C248.849 103.744 248.993 103.492 249.227 103.26C249.462 103.033 249.805 102.837 250.256 102.673C250.752 102.492 251.22 102.444 251.659 102.528C252.105 102.615 252.498 102.821 252.837 103.146C253.182 103.469 253.451 103.896 253.644 104.427C253.732 104.668 253.795 104.903 253.833 105.133C253.878 105.367 253.897 105.598 253.89 105.828C253.888 106.056 253.86 106.29 253.806 106.531L253.616 106.992C253.477 107.343 253.266 107.661 252.984 107.946C252.706 108.228 252.362 108.444 251.951 108.594C251.615 108.716 251.316 108.768 251.054 108.75C250.799 108.735 250.58 108.656 250.398 108.512C250.222 108.372 250.088 108.177 249.997 107.926C249.891 107.635 249.87 107.374 249.932 107.141C249.997 106.913 250.123 106.714 250.311 106.543C250.505 106.376 250.745 106.24 251.031 106.136C251.297 106.04 251.557 105.976 251.813 105.945C252.07 105.92 252.325 105.926 252.578 105.965C252.83 106.004 253.08 106.074 253.328 106.177L253.773 106.441C253.918 106.559 254.054 106.691 254.181 106.837C254.308 106.984 254.433 107.171 254.556 107.399C254.685 107.63 254.816 107.928 254.95 108.294L255.768 110.542L255.226 110.739L254.761 109.461L251.138 110.78L250.902 110.133L254.526 108.815L254.345 108.318C254.285 108.153 254.221 108 254.153 107.86C254.09 107.719 254.02 107.588 253.942 107.469C253.87 107.348 253.787 107.236 253.693 107.134C253.599 107.032 253.491 106.938 253.369 106.852C253.203 106.725 253.003 106.642 252.767 106.603C252.537 106.562 252.29 106.555 252.028 106.582C251.772 106.613 251.524 106.672 251.284 106.76C250.938 106.885 250.704 107.03 250.582 107.194C250.46 107.357 250.432 107.532 250.5 107.717C250.556 107.873 250.648 107.976 250.774 108.026C250.902 108.082 251.045 108.101 251.203 108.083C251.361 108.065 251.516 108.029 251.666 107.974C252.062 107.83 252.389 107.623 252.649 107.352C252.915 107.085 253.108 106.765 253.227 106.393C253.307 106.097 253.328 105.797 253.291 105.492C253.254 105.188 253.177 104.876 253.061 104.555C252.926 104.184 252.74 103.885 252.505 103.659C252.269 103.432 252.003 103.279 251.708 103.2C251.414 103.125 251.105 103.118 250.781 103.18C250.704 103.202 250.629 103.223 250.557 103.244C250.49 103.263 250.437 103.279 250.397 103.294C250.071 103.412 249.824 103.545 249.656 103.691C249.49 103.842 249.388 103.999 249.35 104.16C249.314 104.326 249.326 104.492 249.386 104.658C249.435 104.793 249.505 104.898 249.595 104.973C249.691 105.052 249.804 105.096 249.932 105.106C250.063 105.121 250.208 105.099 250.369 105.041C250.619 104.95 250.786 104.815 250.869 104.637C250.957 104.458 250.963 104.265 250.888 104.06C250.815 103.859 250.694 103.691 250.525 103.554C250.356 103.416 250.165 103.304 249.952 103.217L250.392 102.93C250.622 103.016 250.832 103.15 251.023 103.33C251.22 103.513 251.364 103.728 251.453 103.974C251.584 104.334 251.58 104.665 251.44 104.966C251.301 105.272 251.044 105.493 250.668 105.63C250.392 105.73 250.135 105.764 249.896 105.732C249.658 105.7 249.45 105.605 249.274 105.448C249.099 105.296 248.963 105.084 248.864 104.814ZM255.061 105.7C255.008 105.554 255.009 105.418 255.065 105.29C255.125 105.16 255.231 105.067 255.381 105.013C255.527 104.96 255.664 104.964 255.794 105.024C255.924 105.085 256.015 105.188 256.068 105.333C256.121 105.478 256.117 105.616 256.057 105.746C255.996 105.876 255.893 105.967 255.748 106.02C255.597 106.075 255.457 106.072 255.327 106.011C255.203 105.949 255.114 105.845 255.061 105.7Z" fill="#FFB743"/>
<path d="M246.639 98.7004C246.53 98.3997 246.479 98.1117 246.487 97.8365C246.494 97.5613 246.565 97.3198 246.7 97.112C246.834 96.9041 247.031 96.7528 247.292 96.6579C247.563 96.5594 247.821 96.5448 248.068 96.614C248.321 96.6863 248.557 96.8587 248.775 97.1312C248.999 97.4018 249.203 97.7926 249.389 98.3038L249.786 99.3939C249.945 99.8299 250.031 100.238 250.045 100.619C250.064 100.998 249.982 101.329 249.801 101.61C249.622 101.897 249.314 102.12 248.878 102.278C248.542 102.401 248.239 102.44 247.968 102.397C247.691 102.356 247.426 102.251 247.172 102.082C246.996 101.959 246.835 101.804 246.689 101.62C246.544 101.44 246.409 101.219 246.286 100.957C246.157 100.698 246.027 100.387 245.896 100.027L245.587 99.1771C245.51 98.9666 245.436 98.8092 245.364 98.7049C245.292 98.6005 245.213 98.5158 245.127 98.4507C245.042 98.3906 244.942 98.3562 244.825 98.3476C244.708 98.3389 244.567 98.3647 244.402 98.4249C244.327 98.4523 244.258 98.4803 244.194 98.5091C244.126 98.5396 244.063 98.5683 244.004 98.5952L243.75 97.9897C243.835 97.9419 243.93 97.8929 244.037 97.8427C244.139 97.7944 244.232 97.7547 244.317 97.7237C244.538 97.6434 244.74 97.6151 244.925 97.6388C245.104 97.6642 245.264 97.7223 245.405 97.8129C245.503 97.8794 245.59 97.953 245.664 98.0336C245.736 98.1211 245.805 98.2238 245.87 98.3418C245.933 98.4666 245.994 98.6117 246.054 98.7771L246.352 99.5965C246.515 100.043 246.668 100.401 246.812 100.672C246.951 100.945 247.093 101.155 247.237 101.301C247.376 101.449 247.529 101.558 247.696 101.627C247.843 101.688 247.998 101.716 248.162 101.713C248.332 101.714 248.51 101.68 248.695 101.613C248.941 101.523 249.121 101.401 249.234 101.246C249.35 101.096 249.418 100.924 249.438 100.73C249.46 100.54 249.449 100.339 249.406 100.128C249.365 99.9217 249.307 99.7157 249.233 99.5102L248.844 98.4427C248.751 98.1872 248.657 97.9746 248.561 97.8051C248.467 97.6407 248.362 97.5086 248.246 97.4088C248.141 97.3223 248.031 97.2688 247.916 97.2483C247.807 97.231 247.68 97.2488 247.535 97.3017C247.304 97.3856 247.164 97.5447 247.113 97.7789C247.067 98.0113 247.097 98.2728 247.202 98.5635C247.283 98.784 247.384 98.9601 247.505 99.0918C247.634 99.2266 247.796 99.3065 247.993 99.3315C248.196 99.3597 248.445 99.32 248.741 99.2124L250.763 98.4764L250.293 97.1833L248.94 97.6758L248.603 97.1257L250.618 96.3925L252.049 100.324L251.508 100.521L250.996 99.1153L249.071 99.8158C248.736 99.938 248.462 100.004 248.249 100.013C248.039 100.027 247.849 100.005 247.681 99.9474C247.434 99.8614 247.225 99.7102 247.056 99.4938C246.893 99.2806 246.754 99.0161 246.639 98.7004Z" fill="#FFB743"/>
<path d="M243.412 96.1692L245.539 95.3949L244.127 91.5158L248.292 90L248.527 90.6465L244.904 91.9653L246.08 95.1979L249.704 93.8791L249.939 94.5256L243.647 96.8157L243.412 96.1692Z" fill="#FFB743"/>
<path d="M275.923 119.929L267.111 120.04C266.621 120.052 266.214 120.009 265.89 119.912C265.561 119.826 265.294 119.685 265.09 119.487C264.881 119.301 264.712 119.053 264.583 118.743C264.461 118.45 264.391 118.16 264.373 117.875C264.35 117.601 264.368 117.341 264.426 117.094L265.449 117.001C265.366 117.238 265.33 117.466 265.34 117.684C265.345 117.914 265.387 118.124 265.466 118.314C265.559 118.538 265.716 118.72 265.937 118.861C266.157 119.001 266.513 119.066 267.003 119.053L267.983 119.039L269.251 117.752L273.304 113.649L273.795 114.825L270.256 118.197L269.273 119.077L270.746 119.009L275.46 118.818L275.923 119.929Z" fill="#E2E6FE"/>
<path d="M265.048 112.038L271.508 109.344L271.859 110.184L270.858 110.768C271.33 110.783 271.737 110.922 272.079 111.184C272.424 111.455 272.701 111.84 272.909 112.339C272.956 112.451 272.998 112.576 273.034 112.712C273.075 112.857 273.089 112.988 273.077 113.104L272.058 113.317C272.053 113.207 272.036 113.093 272.006 112.974C271.977 112.855 271.919 112.692 271.833 112.485C271.721 112.218 271.53 111.979 271.26 111.768C270.994 111.566 270.664 111.441 270.27 111.393C269.884 111.341 269.45 111.416 268.968 111.617L265.479 113.072L265.048 112.038Z" fill="#E2E6FE"/>
<path d="M262.569 106.456C262.396 106.043 262.31 105.619 262.311 105.183C262.315 104.757 262.441 104.356 262.688 103.979C262.948 103.608 263.358 103.306 263.918 103.072L268.156 101.305L268.587 102.338L264.62 103.993C263.966 104.266 263.573 104.596 263.442 104.985C263.319 105.37 263.365 105.821 263.581 106.338C263.681 106.579 263.819 106.799 263.994 107C264.177 107.196 264.392 107.349 264.64 107.458C264.9 107.572 265.189 107.624 265.508 107.612C265.83 107.609 266.181 107.528 266.56 107.37L270.075 105.905L270.506 106.938L264.045 109.633L263.668 108.728L264.623 108.254C264.142 108.192 263.73 108.005 263.387 107.692C263.057 107.385 262.784 106.973 262.569 106.456Z" fill="#E2E6FE"/>
<path d="M266.412 96.7598C266.599 97.2077 266.694 97.6284 266.696 98.0219C266.702 98.4239 266.628 98.8037 266.474 99.1613C266.319 99.5189 266.098 99.8489 265.809 100.151L264.935 99.3632C265.291 99.0529 265.517 98.7107 265.614 98.3367C265.723 97.9676 265.684 97.5591 265.497 97.1112C265.318 96.6804 265.064 96.3513 264.737 96.1239C264.418 95.8928 264.039 95.7726 263.6 95.7634C263.17 95.7506 262.697 95.852 262.18 96.0676C261.672 96.2795 261.266 96.5446 260.964 96.8627C260.662 97.1809 260.477 97.5363 260.408 97.9291C260.348 98.3182 260.407 98.7281 260.587 99.1588C260.727 99.4948 260.899 99.7618 261.103 99.9599C261.311 100.167 261.546 100.306 261.809 100.379C262.075 100.46 262.363 100.471 262.672 100.413L262.735 101.509C262.278 101.528 261.853 101.467 261.461 101.327C261.073 101.196 260.725 100.982 260.42 100.685C260.126 100.393 259.884 100.018 259.693 99.5619C259.442 98.9589 259.351 98.3648 259.42 97.7797C259.49 97.1945 259.719 96.6642 260.107 96.1888C260.504 95.7098 261.051 95.3248 261.749 95.0339C262.447 94.7429 263.101 94.6267 263.712 94.6854C264.332 94.7405 264.874 94.9492 265.338 95.3117C265.803 95.6741 266.161 96.1568 266.412 96.7598Z" fill="#E2E6FE"/>
<path d="M256.592 91.7604L263.052 89.0661L263.403 89.906L262.402 90.49C262.874 90.5056 263.281 90.6444 263.623 90.9064C263.968 91.1769 264.245 91.562 264.453 92.0617C264.5 92.1736 264.542 92.2978 264.578 92.4342C264.619 92.5792 264.633 92.7099 264.621 92.8262L263.602 93.0387C263.597 92.9296 263.579 92.8154 263.55 92.6962C263.521 92.5771 263.463 92.4141 263.376 92.2074C263.265 91.9403 263.074 91.7013 262.804 91.4903C262.538 91.2879 262.208 91.1628 261.814 91.1148C261.428 91.0632 260.994 91.138 260.512 91.3392L257.023 92.7941L256.592 91.7604Z" fill="#E2E6FE"/>
<path d="M254.479 87.0575C254.223 86.4458 254.129 85.8432 254.195 85.2494C254.264 84.6642 254.493 84.134 254.881 83.6586C255.278 83.1796 255.825 82.7946 256.523 82.5036C257.221 82.2126 257.875 82.0964 258.486 82.1551C259.106 82.2102 259.646 82.4147 260.107 82.7685C260.568 83.1223 260.923 83.5964 261.171 84.1908C261.422 84.7938 261.507 85.3602 261.424 85.8901C261.346 86.4285 261.129 86.9032 260.774 87.314C260.428 87.7211 259.98 88.0397 259.428 88.2696C259.282 88.3307 259.147 88.3821 259.022 88.4237C258.898 88.4654 258.785 88.4974 258.683 88.5197L256.506 83.2994L257.424 82.9168L259.412 87.6848L259.088 87.1982C259.708 86.9395 260.114 86.5679 260.307 86.0832C260.502 85.6071 260.485 85.0934 260.255 84.5421C260.079 84.12 259.828 83.7952 259.5 83.5677C259.185 83.3453 258.806 83.2251 258.364 83.2073C257.934 83.1945 257.46 83.2959 256.944 83.5115C256.435 83.7234 256.032 83.9928 255.733 84.3195C255.435 84.6463 255.251 85.006 255.182 85.3988C255.126 85.7965 255.189 86.2151 255.372 86.6544C255.57 87.1282 255.82 87.4738 256.123 87.6913C256.43 87.9173 256.776 88.0561 257.161 88.1077L257.023 89.1211C256.662 89.0796 256.32 88.9745 255.996 88.8059C255.677 88.6459 255.385 88.4188 255.121 88.1245C254.869 87.8352 254.655 87.4796 254.479 87.0575Z" fill="#E2E6FE"/>
<path d="M260.966 78.2438L252.438 81.8004L252.029 80.8183L257.391 78.582L259.688 77.7607L259.682 77.7478L250.902 78.1178L250.536 77.2391L256.977 71.2612L256.972 71.2483L254.772 72.3022L249.41 74.5385L249 73.5565L257.528 70L258.191 71.5893L253.791 75.6238L251.928 77.159L251.939 77.1848L254.333 76.9601L260.303 76.6545L260.966 78.2438Z" fill="#E2E6FE"/>
</svg>
