<svg width="92" height="88" viewBox="0 0 92 88" fill="none" xmlns="http://www.w3.org/2000/svg">
<path d="M6.75765e-07 4.9086C7.0661e-07 2.14717 2.2402 -0.101308 4.99963 0.00352297C35.9052 1.17763 65.5954 13.2097 89.4494 34.2356C91.4265 35.9784 91.6089 38.9727 89.9307 41.005L52.6418 86.1608C50.8023 88.3884 47.4719 88.5844 45.2341 86.7573C33.6049 77.2625 19.6057 71.636 4.9959 70.5876C2.24156 70.39 -3.08441e-08 68.17 0 65.4086L6.75765e-07 4.9086Z" fill="#7D67EE"/>
<path d="M39.003 17.4353L35.4889 25.981L34.5048 25.5763L36.7145 20.2029L37.7575 17.9979L37.7445 17.9926L31.7987 24.4635L30.9183 24.1015L31.2446 15.3197L31.2317 15.3144L30.4218 17.6153L28.2121 22.9887L27.2281 22.584L30.7422 14.0383L32.3348 14.6932L32.0772 20.6574L31.846 23.0601L31.8719 23.0707L33.4055 21.2188L37.4104 16.7804L39.003 17.4353Z" fill="#E2E6FE"/>
<path d="M43.5099 24.39C43.7087 23.9066 43.7318 23.4821 43.5794 23.1167C43.4304 22.7426 43.1186 22.458 42.6438 22.2627C42.195 22.0782 41.7744 22.0212 41.382 22.092C40.9931 22.1541 40.6366 22.3708 40.3124 22.7421L39.6837 21.878C40.0551 21.4656 40.5342 21.2085 41.1211 21.1067C41.7114 20.9963 42.3519 21.0831 43.0424 21.367C43.5086 21.5587 43.8978 21.8146 44.2102 22.1348C44.5261 22.4464 44.7245 22.8105 44.8054 23.2273C44.8985 23.639 44.8404 24.0995 44.6309 24.6087L43.3424 27.7422C43.2146 28.0529 43.3148 28.2757 43.6428 28.4106C43.8068 28.4781 43.9753 28.5221 44.1485 28.5429L43.7612 29.3373C43.5531 29.3526 43.3109 29.3035 43.0347 29.1899C42.7844 29.087 42.5795 28.9472 42.42 28.7706C42.2605 28.594 42.1637 28.3877 42.1296 28.1517C42.099 27.907 42.144 27.6379 42.2647 27.3444L42.318 27.2149L42.5609 27.3603C42.3189 27.6543 42.0284 27.8578 41.6893 27.9706C41.3538 28.0749 41.0094 28.1149 40.656 28.0907C40.3062 28.0578 39.9803 27.9793 39.6781 27.8551C39.2983 27.6989 38.971 27.4886 38.6963 27.2242C38.4215 26.9599 38.2381 26.6574 38.146 26.3168C38.0662 25.9711 38.1061 25.604 38.2658 25.2156C38.4646 24.7322 38.7876 24.4008 39.2348 24.2214C39.6941 24.0369 40.236 24.0074 40.8605 24.1331L43.6319 24.6823L43.2805 25.5369L41.0201 25.1069C40.5617 25.0193 40.1969 25.0106 39.9258 25.0808C39.6548 25.151 39.4625 25.3242 39.3489 25.6004C39.2388 25.868 39.2519 26.1307 39.3881 26.3885C39.5364 26.6413 39.8048 26.8475 40.1933 27.0073C40.4436 27.1102 40.6934 27.1776 40.9427 27.2095C41.2042 27.2363 41.4521 27.2222 41.6867 27.1672C41.9247 27.1037 42.1364 26.9939 42.3216 26.838C42.5104 26.6734 42.6615 26.453 42.7751 26.1768L43.5099 24.39Z" fill="#E2E6FE"/>
<path d="M45.3431 30.0332L48.0053 23.5592L48.847 23.9053L48.5528 25.0256C48.8973 24.7031 49.2831 24.5135 49.71 24.457C50.1455 24.404 50.6137 24.4804 51.1143 24.6863C51.2265 24.7324 51.3438 24.7908 51.4662 24.8613C51.5972 24.9353 51.6996 25.0178 51.7732 25.1086L51.2033 25.9793C51.1225 25.9057 51.0296 25.8372 50.9244 25.7738C50.8193 25.7104 50.6632 25.6361 50.456 25.5509C50.1884 25.4409 49.8846 25.4068 49.5445 25.4485C49.213 25.4939 48.8909 25.639 48.5783 25.8838C48.2693 26.12 48.0153 26.4798 47.8166 26.9632L46.379 30.4592L45.3431 30.0332Z" fill="#E2E6FE"/>
<path d="M52.6278 33.1801C51.9976 32.921 51.47 32.5476 51.0448 32.06C50.6283 31.5758 50.3788 31.0292 50.2963 30.42L51.4376 30.1477C51.4643 30.6228 51.6127 31.0472 51.8829 31.4207C52.1618 31.7977 52.5602 32.0928 53.0782 32.3057C53.5356 32.4939 53.9294 32.5549 54.2593 32.4887C54.5928 32.4139 54.8181 32.2341 54.9353 31.9492C55.0098 31.768 55.0168 31.5791 54.9563 31.3827C54.908 31.1812 54.734 30.9784 54.4344 30.7745L53.0138 29.8119C52.4369 29.4232 52.0724 29.0211 51.9205 28.6054C51.7771 28.1932 51.7977 27.7627 51.9823 27.3139C52.1278 26.9599 52.3602 26.6771 52.6794 26.4652C53.0073 26.2569 53.3923 26.1428 53.8345 26.1228C54.2888 26.0977 54.7706 26.1898 55.2799 26.3993C55.9187 26.6619 56.4067 27.009 56.744 27.4403C57.0813 27.8717 57.2638 28.3605 57.2915 28.9067L56.1897 29.1197C56.1991 28.6795 56.0753 28.3057 55.8183 27.9982C55.5648 27.682 55.2611 27.4512 54.9072 27.3056C54.5965 27.1778 54.3111 27.111 54.0512 27.105C53.7999 27.1026 53.5819 27.1542 53.3971 27.2599C53.2246 27.3605 53.0993 27.5057 53.0212 27.6956C52.9431 27.8855 52.935 28.0891 52.9971 28.3064C53.0627 28.515 53.2582 28.7266 53.5837 28.9412L55.0638 29.9434C55.6183 30.3127 55.9597 30.6852 56.0878 31.0608C56.2159 31.4364 56.1983 31.8227 56.035 32.2198C55.8682 32.6255 55.613 32.9394 55.2694 33.1614C54.9293 33.3748 54.5314 33.4836 54.0755 33.4879C53.6196 33.4921 53.137 33.3896 52.6278 33.1801Z" fill="#E2E6FE"/>
<path d="M17.4223 31.7929C17.0581 31.6275 16.7551 31.4049 16.5131 31.1251C16.276 30.8476 16.1018 30.5283 15.9904 30.1672C15.8839 29.8084 15.8527 29.4193 15.8967 29C15.9407 28.5807 16.0631 28.1501 16.2638 27.7082C16.5108 27.1643 16.8143 26.7281 17.1744 26.3996C17.5393 26.0733 17.9292 25.8404 18.3441 25.7008C18.766 25.5585 19.1875 25.501 19.6086 25.5282C20.0319 25.5506 20.4281 25.6456 20.7972 25.8132C21.1856 25.9897 21.4938 26.1882 21.7216 26.4088C21.9494 26.6295 22.1219 26.8689 22.2389 27.1271C22.3507 27.3711 22.4117 27.6302 22.4219 27.9043C22.4343 28.1735 22.3945 28.4805 22.3023 28.8253C22.2102 29.17 22.0571 29.5779 21.8432 30.0489L20.4703 33.0718L19.8439 32.7873L21.0514 30.1286C21.2543 29.6819 21.4104 29.293 21.5198 28.9619C21.6292 28.6308 21.6922 28.3373 21.7089 28.0813C21.7278 27.8204 21.6961 27.5805 21.614 27.3616C21.542 27.159 21.4181 26.9739 21.2424 26.8062C21.0667 26.6386 20.8356 26.4897 20.549 26.3595C20.3014 26.2471 20.0147 26.1754 19.6889 26.1446C19.3632 26.1138 19.0269 26.1514 18.68 26.2575C18.3379 26.3657 18.0087 26.5618 17.6923 26.8457C17.3759 27.1296 17.0997 27.5314 16.8637 28.0509C16.727 28.352 16.6315 28.6396 16.5773 28.9137C16.5302 29.1852 16.5194 29.441 16.5451 29.6811C16.5708 29.9212 16.6291 30.141 16.7201 30.3405C16.8111 30.54 16.9299 30.7169 17.0764 30.8714L17.1798 30.9534C17.2614 31.0315 17.3475 31.0999 17.438 31.1586C17.5334 31.2195 17.6321 31.2731 17.734 31.3194C17.9817 31.4319 18.2092 31.4532 18.4167 31.3834C18.6312 31.311 18.8024 31.1339 18.9303 30.8523C19.0295 30.6338 19.0504 30.4265 18.993 30.2306C18.9426 30.0319 18.8106 29.8841 18.5969 29.7871C18.3881 29.6922 18.1897 29.6841 18.0017 29.7628C17.8137 29.8414 17.6646 30.0021 17.5543 30.2449C17.4749 30.4197 17.4279 30.6005 17.4134 30.7872C17.3989 30.9739 17.4237 31.1579 17.4877 31.3393L17.0123 31.264C16.9386 31.0782 16.8937 30.8674 16.8778 30.6318C16.864 30.3912 16.9233 30.1252 17.0556 29.8339C17.1482 29.6299 17.2793 29.4639 17.4487 29.3359C17.6204 29.203 17.8252 29.1261 18.0631 29.1053C18.301 29.0845 18.5632 29.1391 18.8497 29.2693C19.0876 29.3773 19.2757 29.5242 19.4139 29.71C19.5543 29.891 19.6338 30.1028 19.6525 30.3456C19.6781 30.5857 19.6292 30.8417 19.5057 31.1136C19.3624 31.4293 19.1775 31.6557 18.9511 31.7931C18.7296 31.9326 18.4861 31.9978 18.2209 31.9886C17.9604 31.9816 17.6943 31.9164 17.4223 31.7929Z" fill="#FFB743"/>
<path d="M22.9754 34.315C22.684 34.1826 22.4427 34.0174 22.2516 33.8193C22.0604 33.6212 21.9376 33.4014 21.8832 33.16C21.8289 32.9185 21.859 32.6716 21.9737 32.4191C22.0928 32.1568 22.2634 31.9619 22.4853 31.8343C22.7144 31.704 23.0026 31.6563 23.35 31.691C23.6996 31.7209 24.122 31.8484 24.6173 32.0733L27.174 33.2345L26.9424 33.7444L24.3348 32.56C24.0871 32.4476 23.8692 32.3662 23.6812 32.3159C23.498 32.2679 23.3303 32.2503 23.178 32.2631C23.0425 32.2777 22.9271 32.319 22.8318 32.387C22.7435 32.4524 22.6674 32.5555 22.6034 32.6963C22.502 32.9197 22.5171 33.1315 22.6487 33.3319C22.7825 33.5274 22.9902 33.6891 23.2718 33.817C23.4855 33.914 23.6819 33.9652 23.8611 33.9704C24.0474 33.973 24.2182 33.9129 24.3735 33.7902C24.5359 33.6648 24.6822 33.4588 24.8123 33.1723L25.7022 31.2129L24.4494 30.6439L23.8539 31.955L23.2255 31.8102L24.1121 29.8581L27.9216 31.5883L27.6834 32.1128L26.3213 31.4941L25.4744 33.3588C25.3267 33.6842 25.1817 33.9259 25.0397 34.0839C24.9024 34.2442 24.7542 34.3643 24.5949 34.4443C24.3605 34.5604 24.1067 34.6033 23.8335 34.5729C23.5673 34.5399 23.2813 34.4539 22.9754 34.315Z" fill="#FFB743"/>
<path d="M28.1517 36.666C27.8944 36.5491 27.6875 36.379 27.5312 36.1557C27.3771 35.9276 27.2987 35.6488 27.2959 35.3196C27.298 34.9925 27.3983 34.6104 27.5968 34.1734C27.8328 33.6538 28.1322 33.2655 28.4949 33.0085C28.8625 32.7537 29.256 32.6161 29.6753 32.5957C30.0946 32.5753 30.5033 32.6555 30.9015 32.8363C31.2706 33.0039 31.5609 33.2031 31.7724 33.4339C31.9909 33.6621 32.1386 33.9107 32.2155 34.18C32.2995 34.4465 32.3229 34.7237 32.2859 35.0115C32.256 35.2967 32.176 35.5825 32.0459 35.869C31.9047 36.1798 31.745 36.4411 31.5668 36.653C31.3885 36.865 31.2023 37.0557 31.0081 37.2253L32.9529 38.1086L34.5475 34.5977L35.1739 34.8822L33.3412 38.9175L30.129 37.4586L30.3082 36.9865C30.4971 36.8672 30.6818 36.6992 30.8622 36.4824C31.0498 36.263 31.2185 35.9882 31.3685 35.658C31.5251 35.3132 31.5978 34.9919 31.5867 34.6939C31.5756 34.396 31.487 34.1332 31.321 33.9055C31.1598 33.68 30.9287 33.4988 30.6276 33.3621C30.2877 33.2077 29.9588 33.1579 29.641 33.2128C29.3255 33.2627 29.0382 33.3988 28.7791 33.6209C28.5223 33.8381 28.3134 34.124 28.1524 34.4785C28.0046 34.8038 27.9231 35.0801 27.9077 35.3075C27.8994 35.5321 27.9385 35.7168 28.025 35.8616C28.1186 36.0037 28.2456 36.1111 28.4058 36.1839C28.5321 36.2413 28.6535 36.2642 28.77 36.2527C28.8936 36.2385 29.0063 36.1901 29.1083 36.1076C29.2102 36.025 29.2965 35.906 29.367 35.7506C29.4773 35.5078 29.498 35.2946 29.4291 35.111C29.3624 34.9226 29.2295 34.7831 29.0304 34.6927C28.8361 34.6045 28.6309 34.5728 28.4146 34.5976C28.1983 34.6223 27.9845 34.6804 27.7731 34.7719L27.8756 34.2561C28.0984 34.1523 28.341 34.0955 28.6032 34.0857C28.8724 34.0733 29.126 34.1211 29.3639 34.2292C29.7136 34.3879 29.9467 34.6227 30.0633 34.9334C30.1848 35.2463 30.1628 35.5849 29.9974 35.9491C29.8761 36.2161 29.7204 36.4236 29.5302 36.5716C29.34 36.7195 29.127 36.8014 28.8913 36.8174C28.6605 36.8356 28.4139 36.7851 28.1517 36.666ZM32.4229 32.5432C32.2821 32.4793 32.1854 32.3826 32.1328 32.2533C32.0825 32.1192 32.0904 31.9792 32.1565 31.8336C32.2205 31.6927 32.3196 31.5971 32.4537 31.5468C32.5879 31.4964 32.7254 31.5032 32.8662 31.5672C33.007 31.6311 33.1026 31.7302 33.153 31.8644C33.2034 31.9985 33.1966 32.136 33.1326 32.2769C33.0664 32.4225 32.9663 32.5206 32.8321 32.5709C32.7001 32.6164 32.5637 32.6072 32.4229 32.5432Z" fill="#FFB743"/>
<path d="M35.7557 40.1196C35.4984 40.0027 35.2915 39.8326 35.1352 39.6093C34.9811 39.3812 34.9027 39.1025 34.8999 38.7732C34.902 38.4461 35.0023 38.0641 35.2008 37.627C35.4368 37.1074 35.7362 36.7191 36.0989 36.4621C36.4665 36.2074 36.86 36.0697 37.2793 36.0493C37.6986 36.0289 38.1074 36.1091 38.5056 36.2899C38.8746 36.4576 39.1649 36.6568 39.3764 36.8875C39.5949 37.1157 39.7427 37.3644 39.8195 37.6336C39.9035 37.9002 39.927 38.1773 39.89 38.4651C39.86 38.7503 39.78 39.0361 39.6499 39.3226C39.5087 39.6334 39.349 39.8947 39.1708 40.1067C38.9925 40.3186 38.8063 40.5093 38.6121 40.6789L40.557 41.5622L42.1515 38.0513L42.7779 38.3358L40.9452 42.3711L37.733 40.9122L37.9123 40.4401C38.1011 40.3208 38.2858 40.1528 38.4663 39.9361C38.6538 39.7166 38.8225 39.4418 38.9725 39.1116C39.1291 38.7668 39.2018 38.4455 39.1907 38.1475C39.1796 37.8496 39.091 37.5868 38.925 37.3591C38.7638 37.1336 38.5327 36.9525 38.2316 36.8157C37.8917 36.6613 37.5628 36.6116 37.2451 36.6664C36.9295 36.7164 36.6422 36.8524 36.3832 37.0745C36.1263 37.2917 35.9174 37.5776 35.7564 37.9321C35.6086 38.2574 35.5271 38.5338 35.5117 38.7611C35.5034 38.9858 35.5425 39.1705 35.629 39.3152C35.7227 39.4573 35.8496 39.5648 36.0098 39.6375C36.1361 39.6949 36.2575 39.7178 36.374 39.7063C36.4976 39.6921 36.6104 39.6438 36.7123 39.5612C36.8142 39.4786 36.9005 39.3596 36.9711 39.2042C37.0813 38.9614 37.102 38.7482 37.0331 38.5646C36.9664 38.3762 36.8335 38.2368 36.6344 38.1463C36.4402 38.0581 36.2349 38.0264 36.0186 38.0512C35.8024 38.076 35.5885 38.1341 35.3771 38.2255L35.4796 37.7097C35.7025 37.6059 35.945 37.5491 36.2072 37.5393C36.4764 37.5269 36.73 37.5747 36.968 37.6828C37.3176 37.8416 37.5507 38.0763 37.6673 38.387C37.7888 38.6999 37.7668 39.0385 37.6014 39.4027C37.4801 39.6698 37.3244 39.8773 37.1342 40.0252C36.944 40.1731 36.731 40.255 36.4953 40.271C36.2645 40.2892 36.018 40.2387 35.7557 40.1196Z" fill="#FFB743"/>
<path d="M42.2268 42.9532L44.0595 38.9179L47.9564 40.6878L47.7182 41.2122L46.48 40.6498L44.8854 44.1607L44.259 43.8762L45.8535 40.3653L44.4477 39.7268L42.8532 43.2377L42.2268 42.9532Z" fill="#FFB743"/>
<path d="M48.8234 45.9493L50.6562 41.914L51.2826 42.1985L49.688 45.7094L52.2301 46.8639L53.8247 43.3531L54.4511 43.6376L52.6184 47.6729L48.8234 45.9493ZM47.9567 45.6523C47.777 45.5707 47.6324 45.4699 47.5229 45.3498C47.4205 45.2272 47.3474 45.0914 47.3036 44.9427C47.2833 44.8456 47.2698 44.7399 47.2632 44.6256C47.2614 44.5135 47.2801 44.3755 47.3193 44.2118C47.3634 44.0502 47.4417 43.8456 47.5542 43.5979L48.7187 41.034L49.3451 41.3185L48.2501 43.7295C48.1486 43.9529 48.0657 44.1612 48.0013 44.3546C47.9391 44.5431 47.9345 44.7079 47.9875 44.8492C48.0141 44.9198 48.0523 44.984 48.1021 45.0418C48.1591 45.0969 48.2337 45.1455 48.326 45.1874C48.4668 45.2513 48.6145 45.2745 48.7689 45.2568C48.9283 45.2413 49.0988 45.1752 49.2807 45.0586L48.9816 45.6784C48.8474 45.7288 48.6923 45.7608 48.5162 45.7746C48.3423 45.7835 48.1558 45.7427 47.9567 45.6523ZM51.9915 41.4309C51.8507 41.367 51.754 41.2703 51.7014 41.141C51.651 41.0069 51.6589 40.8669 51.7251 40.7213C51.7891 40.5804 51.8881 40.4848 52.0223 40.4345C52.1565 40.3841 52.294 40.3909 52.4348 40.4549C52.5756 40.5188 52.6712 40.6179 52.7215 40.7521C52.7719 40.8862 52.7651 41.0237 52.7011 41.1646C52.635 41.3102 52.5348 41.4083 52.4007 41.4586C52.2687 41.5041 52.1323 41.4949 51.9915 41.4309Z" fill="#FFB743"/>
</svg>
