<svg width="92" height="99" viewBox="0 0 92 99" fill="none" xmlns="http://www.w3.org/2000/svg">
<path d="M44.2538 1.45907C46.2064 -0.493548 49.3795 -0.498616 51.266 1.51797C73.8711 25.6819 87.8537 56.6498 91.0303 89.586C91.2954 92.3347 89.1932 94.7115 86.4372 94.8849L26.0566 98.6837C23.3006 98.8571 20.9421 96.76 20.5959 94.0203C18.5985 78.215 11.8956 63.3696 1.36069 51.4192C-0.465392 49.3477 -0.47879 46.1917 1.47383 44.239L44.2538 1.45907Z" fill="#7D67EE"/>
<path d="M43.1785 43.8381L45.3059 43.0638L43.8941 39.1847L48.0588 37.6689L48.2941 38.3154L44.6706 39.6342L45.8472 42.8668L49.4706 41.548L49.7059 42.1945L43.4138 44.4846L43.1785 43.8381Z" fill="#FFB743"/>
<path d="M46.4068 46.3692C46.2974 46.0685 46.2465 45.7805 46.2541 45.5053C46.2618 45.2301 46.3328 44.9885 46.4672 44.7807C46.6015 44.5729 46.799 44.4216 47.0596 44.3267C47.3303 44.2282 47.5888 44.2136 47.8354 44.2827C48.0887 44.3551 48.3246 44.5275 48.5429 44.7999C48.7663 45.0705 48.971 45.4614 49.157 45.9726L49.5538 47.0627C49.7125 47.4987 49.7987 47.9071 49.8125 48.2881C49.8313 48.6672 49.7501 48.9976 49.5688 49.2792C49.3893 49.5659 49.0816 49.7885 48.6456 49.9472C48.3098 50.0695 48.0064 50.109 47.7352 50.0658C47.4591 50.0244 47.1939 49.9194 46.9396 49.7509C46.7641 49.6275 46.603 49.4733 46.4562 49.2883C46.3112 49.1084 46.177 48.8877 46.0534 48.6261C45.9249 48.3665 45.7949 48.0562 45.6636 47.6953L45.3544 46.8459C45.2778 46.6354 45.2035 46.478 45.1314 46.3736C45.0594 46.2693 44.9803 46.1846 44.8942 46.1195C44.8099 46.0593 44.7094 46.025 44.5927 46.0163C44.4761 46.0077 44.3351 46.0335 44.1697 46.0937C44.0945 46.1211 44.0253 46.1491 43.9619 46.1778C43.8936 46.2084 43.8303 46.2371 43.7719 46.264L43.5175 45.6585C43.6022 45.6106 43.6979 45.5616 43.8045 45.5115C43.9061 45.4631 43.9995 45.4235 44.0847 45.3925C44.3052 45.3122 44.5078 45.2839 44.6923 45.3075C44.8719 45.333 45.032 45.391 45.1729 45.4817C45.2708 45.5482 45.3572 45.6217 45.432 45.7024C45.5035 45.7898 45.5721 45.8926 45.6378 46.0106C45.7002 46.1354 45.7616 46.2805 45.8218 46.4459L46.12 47.2653C46.2824 47.7113 46.4356 48.0699 46.5796 48.341C46.7187 48.6139 46.8602 48.8234 47.0043 48.9697C47.1433 49.1177 47.2964 49.2266 47.4637 49.2962C47.6104 49.3563 47.7656 49.385 47.9291 49.3822C48.0996 49.3826 48.2775 49.3491 48.4629 49.2816C48.7085 49.1922 48.8882 49.07 49.0021 48.9151C49.1178 48.7651 49.1856 48.5929 49.2056 48.3983C49.2274 48.2087 49.2169 48.0082 49.174 47.7968C49.1329 47.5904 49.075 47.3845 49.0002 47.179L48.6117 46.1115C48.5186 45.8559 48.4242 45.6434 48.3285 45.4739C48.2346 45.3095 48.1298 45.1773 48.014 45.0776C47.9087 44.991 47.7984 44.9375 47.6831 44.9171C47.5747 44.8998 47.4478 44.9176 47.3024 44.9705C47.0719 45.0544 46.9312 45.2135 46.8802 45.4477C46.8342 45.6801 46.8642 45.9416 46.97 46.2323C47.0502 46.4528 47.1512 46.6289 47.2729 46.7605C47.4014 46.8954 47.5639 46.9753 47.7603 47.0003C47.9635 47.0285 48.213 46.9888 48.5087 46.8812L50.5309 46.1451L50.0603 44.8521L48.7071 45.3446L48.3707 44.7945L50.3854 44.0612L51.8164 47.9929L51.2751 48.1899L50.7635 46.7841L48.839 47.4846C48.5032 47.6068 48.2291 47.6725 48.0168 47.6817C47.8063 47.6959 47.6167 47.674 47.4481 47.6162C47.2011 47.5302 46.9929 47.379 46.8233 47.1626C46.6606 46.9494 46.5217 46.6849 46.4068 46.3692Z" fill="#FFB743"/>
<path d="M48.6318 52.4824C48.5352 52.2168 48.5119 51.95 48.5619 51.6821C48.6169 51.4123 48.7611 51.1612 48.9943 50.9287C49.2294 50.7013 49.5724 50.5055 50.0235 50.3413C50.5196 50.1607 50.9873 50.1125 51.4266 50.1967C51.8727 50.284 52.2656 50.4901 52.6051 50.8149C52.9497 51.1378 53.2187 51.5649 53.412 52.0962C53.4996 52.3367 53.5625 52.5721 53.6009 52.8022C53.6461 53.0355 53.665 53.2669 53.6578 53.4966C53.6556 53.7244 53.6274 53.9588 53.5733 54.1999L53.3834 54.6606C53.2445 55.012 53.0339 55.3299 52.7515 55.6143C52.474 55.8969 52.1299 56.113 51.7189 56.2625C51.3831 56.3847 51.0842 56.4368 50.8222 56.4186C50.567 56.4037 50.3481 56.3244 50.1653 56.181C49.9894 56.0407 49.8558 55.8452 49.7646 55.5947C49.6588 55.304 49.6373 55.0422 49.7001 54.8093C49.7648 54.5815 49.8909 54.3823 50.0786 54.2119C50.2731 54.0446 50.5132 53.909 50.7989 53.805C51.0645 53.7083 51.3251 53.6447 51.5807 53.6141C51.8382 53.5885 52.0931 53.595 52.3456 53.6337C52.598 53.6723 52.848 53.7431 53.0954 53.846L53.5404 54.1097C53.6854 54.2272 53.8214 54.3593 53.9486 54.506C54.0758 54.6527 54.2007 54.8399 54.3233 55.0677C54.4528 55.2987 54.5841 55.5971 54.7173 55.963L55.5354 58.2107L54.9941 58.4077L54.529 57.1297L50.9055 58.4486L50.6702 57.8021L54.2937 56.4832L54.1131 55.9871C54.0529 55.8217 53.9888 55.6691 53.9209 55.5292C53.858 55.3875 53.7877 55.257 53.7102 55.1376C53.6378 55.0164 53.5546 54.9048 53.4607 54.8028C53.3668 54.7007 53.2588 54.6067 53.1366 54.5206C52.9712 54.3935 52.7707 54.3104 52.5351 54.2713C52.3045 54.2304 52.058 54.2236 51.7955 54.251C51.5399 54.2816 51.2918 54.3407 51.0513 54.4282C50.7055 54.5541 50.4715 54.6989 50.3495 54.8625C50.2274 55.0261 50.2001 55.2006 50.2676 55.386C50.3241 55.5414 50.4155 55.6444 50.5418 55.6949C50.6698 55.7505 50.8129 55.7693 50.971 55.7515C51.1291 55.7337 51.2833 55.6974 51.4337 55.6427C51.8296 55.4986 52.1572 55.2914 52.4164 55.0211C52.6824 54.754 52.8753 54.4341 52.995 54.0613C53.0747 53.7656 53.096 53.4655 53.059 53.1612C53.022 52.8568 52.9451 52.5442 52.8284 52.2235C52.6934 51.8526 52.5081 51.554 52.2724 51.3276C52.0368 51.1012 51.7711 50.9482 51.4754 50.8685C51.1814 50.7939 50.8725 50.7871 50.5485 50.8483C50.4715 50.8706 50.397 50.8921 50.3251 50.9126C50.2581 50.9313 50.2045 50.948 50.1645 50.9626C49.8387 51.0811 49.5918 51.2136 49.4237 51.3599C49.2574 51.5112 49.1554 51.6675 49.1176 51.8288C49.0817 51.9952 49.0938 52.161 49.154 52.3264C49.2032 52.4617 49.2728 52.567 49.3625 52.6421C49.4592 52.7205 49.5717 52.7646 49.7002 52.7746C49.8305 52.7896 49.9759 52.7679 50.1363 52.7096C50.3868 52.6183 50.5536 52.4839 50.6365 52.3061C50.7243 52.1266 50.7309 51.9341 50.6561 51.7286C50.5831 51.5281 50.4621 51.3593 50.293 51.2222C50.1239 51.0851 49.9328 50.9731 49.7195 50.8861L50.1596 50.5983C50.3897 50.6848 50.6 50.8182 50.7905 50.9986C50.9879 51.1822 51.1313 51.3967 51.2206 51.6423C51.352 52.0032 51.3475 52.334 51.2073 52.6347C51.0688 52.9405 50.8117 53.1618 50.4358 53.2986C50.1602 53.399 49.903 53.433 49.6642 53.4007C49.4254 53.3684 49.2178 53.2737 49.0414 53.1166C48.8669 52.9644 48.7303 52.753 48.6318 52.4824ZM54.8286 53.3684C54.7757 53.2231 54.777 53.0864 54.8326 52.9583C54.8931 52.8284 54.9986 52.7361 55.1489 52.6814C55.2943 52.6285 55.4319 52.6324 55.5618 52.6929C55.6917 52.7535 55.783 52.8564 55.8359 53.0018C55.8888 53.1471 55.885 53.2847 55.8244 53.4146C55.7639 53.5445 55.6609 53.6359 55.5156 53.6888C55.3652 53.7435 55.2251 53.7406 55.0952 53.68C54.9704 53.6176 54.8815 53.5138 54.8286 53.3684Z" fill="#FFB743"/>
<path d="M60.1529 27.9262L51.6248 31.4827L51.2152 30.5006L56.5776 28.2644L58.8744 27.443L58.869 27.4301L50.089 27.8001L49.7226 26.9214L56.1639 20.9436L56.1585 20.9306L53.9587 21.9846L48.5963 24.2208L48.1868 23.2388L56.7149 19.6823L57.3777 21.2716L52.9776 25.3061L51.115 26.8413L51.1258 26.8671L53.5197 26.6424L59.4901 26.3368L60.1529 27.9262Z" fill="#E2E6FE"/>
<path d="M53.6602 36.7271C53.4051 36.1155 53.3105 35.5128 53.3764 34.9191C53.4459 34.3339 53.6747 33.8036 54.063 33.3282C54.4598 32.8492 55.0072 32.4642 55.7049 32.1733C56.4027 31.8823 57.0571 31.7661 57.668 31.8248C58.2877 31.8799 58.828 32.0843 59.289 32.4381C59.75 32.7919 60.1045 33.266 60.3524 33.8604C60.6038 34.4634 60.6884 35.0299 60.606 35.5597C60.5272 36.0982 60.3105 36.5728 59.956 36.9836C59.61 37.3908 59.1614 37.7094 58.6101 37.9393C58.4637 38.0003 58.3283 38.0517 58.2042 38.0934C58.08 38.1351 57.9669 38.1671 57.865 38.1893L55.6879 32.9691L56.6054 32.5865L58.5938 37.3545L58.2695 36.8678C58.8897 36.6092 59.2959 36.2375 59.4882 35.7528C59.684 35.2768 59.667 34.7631 59.4371 34.2118C59.2611 33.7897 59.0093 33.4649 58.6819 33.2374C58.3666 33.0149 57.9879 32.8948 57.5456 32.877C57.1155 32.8642 56.6421 32.9656 56.1252 33.1811C55.617 33.3931 55.2136 33.6624 54.915 33.9892C54.6165 34.316 54.4328 34.6757 54.364 35.0684C54.3074 35.4662 54.3707 35.8847 54.5539 36.3241C54.7515 36.7979 55.0018 37.1435 55.3048 37.3609C55.6115 37.587 55.9576 37.7258 56.3431 37.7774L56.2045 38.7908C55.8434 38.7493 55.5012 38.6442 55.1781 38.4756C54.8586 38.3156 54.5667 38.0884 54.3024 37.7942C54.0503 37.5049 53.8362 37.1492 53.6602 36.7271Z" fill="#E2E6FE"/>
<path d="M55.7732 41.4302L62.2339 38.7359L62.5842 39.5758L61.5839 40.1598C62.0556 40.1754 62.4624 40.3142 62.8042 40.5762C63.1496 40.8467 63.4265 41.2318 63.6349 41.7315C63.6816 41.8434 63.7232 41.9676 63.7599 42.104C63.8001 42.2491 63.8142 42.3797 63.802 42.496L62.7833 42.7085C62.7783 42.5994 62.761 42.4852 62.7315 42.3661C62.702 42.2469 62.6442 42.0839 62.558 41.8772C62.4466 41.6101 62.2559 41.3711 61.9859 41.1601C61.7195 40.9578 61.3892 40.8326 60.995 40.7846C60.6095 40.733 60.1755 40.8078 59.6931 41.009L56.2043 42.4639L55.7732 41.4302Z" fill="#E2E6FE"/>
<path d="M65.5941 46.4294C65.7809 46.8773 65.8754 47.298 65.8777 47.6915C65.8835 48.0935 65.8094 48.4733 65.6551 48.8309C65.5009 49.1885 65.2795 49.5185 64.991 49.8208L64.1163 49.0328C64.4723 48.7225 64.6987 48.3803 64.7955 48.0063C64.9045 47.6372 64.8656 47.2287 64.6788 46.7808C64.4992 46.35 64.2456 46.0209 63.9182 45.7935C63.5993 45.5624 63.2206 45.4422 62.7819 45.433C62.3518 45.4203 61.8784 45.5216 61.3615 45.7372C60.8533 45.9491 60.4481 46.2142 60.1459 46.5323C59.8438 46.8505 59.6583 47.2059 59.5895 47.5987C59.5293 47.9878 59.589 48.3977 59.7687 48.8284C59.9088 49.1644 60.0808 49.4314 60.2847 49.6295C60.4923 49.8362 60.7275 49.9758 60.9903 50.0482C61.2566 50.1293 61.5445 50.1407 61.854 50.0824L61.9168 51.1787C61.4594 51.1975 61.0348 51.137 60.6427 50.9971C60.2543 50.8658 59.9071 50.6516 59.6011 50.3545C59.3074 50.0624 59.0653 49.6881 58.8749 49.2315C58.6235 48.6285 58.5325 48.0344 58.6019 47.4493C58.6714 46.8641 58.9002 46.3338 59.2885 45.8584C59.6854 45.3794 60.2327 44.9945 60.9304 44.7035C61.6282 44.4125 62.2826 44.2963 62.8936 44.355C63.5132 44.4101 64.0553 44.6189 64.5199 44.9813C64.9845 45.3437 65.3426 45.8264 65.5941 46.4294Z" fill="#E2E6FE"/>
<path d="M61.7502 56.126C61.5777 55.7125 61.4918 55.2882 61.4924 54.8531C61.4965 54.4267 61.6224 54.0253 61.87 53.649C62.1298 53.2777 62.5396 52.9754 63.0996 52.7419L67.3378 50.9744L67.7689 52.0081L63.802 53.6624C63.1473 53.9354 62.7543 54.2662 62.6231 54.6546C62.5004 55.0395 62.5469 55.4903 62.7624 56.0072C62.863 56.2484 63.0006 56.4691 63.1751 56.6694C63.3582 56.866 63.5737 57.0189 63.8214 57.1279C64.0813 57.242 64.3707 57.2933 64.6894 57.2817C65.0118 57.2787 65.3625 57.1982 65.7415 57.0401L69.2561 55.5744L69.6872 56.6081L63.2265 59.3024L62.8493 58.3979L63.8044 57.9238C63.3234 57.8615 62.9116 57.6742 62.569 57.362C62.2387 57.0548 61.9657 56.6428 61.7502 56.126Z" fill="#E2E6FE"/>
<path d="M64.2298 61.7082L70.6905 59.0139L71.0408 59.8538L70.0405 60.4378C70.5122 60.4535 70.919 60.5923 71.2608 60.8542C71.6062 61.1248 71.8831 61.5098 72.0915 62.0095C72.1382 62.1215 72.1798 62.2457 72.2165 62.382C72.2568 62.5271 72.2708 62.6577 72.2586 62.774L71.2399 62.9865C71.2349 62.8774 71.2176 62.7632 71.1881 62.6441C71.1587 62.5249 71.1008 62.3619 71.0146 62.1552C70.9032 61.8882 70.7125 61.6491 70.4425 61.4381C70.1761 61.2358 69.8458 61.1106 69.4516 61.0626C69.0661 61.011 68.6321 61.0858 68.1497 61.287L64.6609 62.7419L64.2298 61.7082Z" fill="#E2E6FE"/>
<path d="M75.1049 69.5992L66.2925 69.7096C65.8021 69.722 65.3951 69.6794 65.0712 69.5818C64.7424 69.4965 64.476 69.3548 64.272 69.1567C64.063 68.9708 63.8939 68.7228 63.7646 68.4127C63.6424 68.1198 63.5723 67.8305 63.5543 67.5448C63.5312 67.2712 63.5491 67.011 63.6079 66.764L64.6309 66.671C64.5477 66.908 64.5112 67.1356 64.5213 67.3538C64.5264 67.5843 64.5685 67.7943 64.6475 67.9838C64.7409 68.2078 64.8978 68.3901 65.1183 68.5307C65.3387 68.6714 65.6941 68.7355 66.1845 68.7232L67.1645 68.7089L68.4327 67.4215L72.486 63.3194L72.9764 64.4952L69.4376 67.8671L68.4547 68.7472L69.9279 68.6789L74.6415 68.4879L75.1049 69.5992Z" fill="#E2E6FE"/>
</svg>
