<svg width="99" height="92" viewBox="0 0 99 92" fill="none" xmlns="http://www.w3.org/2000/svg">
<path d="M1.46884 47.4694C-0.483782 45.5168 -0.488851 42.3438 1.52773 40.4573C25.6916 17.8522 56.6596 3.86957 89.5958 0.692986C92.3445 0.427887 94.7213 2.53007 94.8947 5.28604L98.6935 65.6667C98.8669 68.4226 96.7697 70.7812 94.0301 71.1274C78.2248 73.1247 63.3794 79.8276 51.4289 90.3625C49.3575 92.1886 46.2014 92.202 44.2488 90.2494L1.46884 47.4694Z" fill="#7D67EE"/>
<path d="M37.0877 53.334C36.7972 53.4684 36.5146 53.5433 36.2397 53.5588C35.9648 53.5744 35.7182 53.5239 35.4998 53.4075C35.2814 53.2912 35.114 53.1071 34.9975 52.8554C34.8766 52.594 34.8402 52.3376 34.8884 52.0861C34.9392 51.8276 35.0911 51.578 35.3442 51.3375C35.595 51.0922 35.9673 50.8553 36.461 50.6269L39.0095 49.4478L39.2446 49.956L36.6453 51.1586C36.3985 51.2729 36.1947 51.3848 36.0338 51.4945C35.8779 51.6019 35.755 51.7175 35.6654 51.8412C35.588 51.9534 35.544 52.0678 35.5333 52.1844C35.5252 52.2939 35.5536 52.4189 35.6186 52.5593C35.7216 52.7819 35.8919 52.9088 36.1296 52.9398C36.3651 52.9661 36.6231 52.9142 36.9039 52.7843C37.1169 52.6858 37.2838 52.5704 37.4048 52.438C37.5283 52.2986 37.5943 52.13 37.6026 51.9322C37.6136 51.7273 37.5531 51.4821 37.4209 51.1965L36.5173 49.2434L35.2685 49.8212L35.8731 51.1281L35.3533 51.5096L34.453 49.5638L38.2503 47.8069L38.4922 48.3297L37.1344 48.9579L37.9944 50.8166C38.1444 51.1409 38.233 51.4084 38.26 51.6192C38.2918 51.8278 38.2861 52.0185 38.2426 52.1914C38.1777 52.4447 38.0445 52.665 37.8432 52.8522C37.6445 53.0323 37.3926 53.1929 37.0877 53.334Z" fill="#FFB743"/>
<path d="M43.2273 47.1966C43.4742 47.0824 43.7259 47.0423 43.9826 47.0764C44.2441 47.1081 44.4925 47.2195 44.7277 47.4103C44.963 47.6012 45.1634 47.8757 45.3292 48.2339C45.5307 48.6696 45.6268 49.0423 45.6174 49.3523C45.608 49.6622 45.5276 49.9521 45.3763 50.2219C45.2729 50.4049 45.1352 50.5773 44.9633 50.7391C44.7962 50.8987 44.5875 51.0511 44.3374 51.1962C44.0894 51.3462 43.7912 51.5018 43.4427 51.663L42.8981 51.915C42.6948 52.009 42.5443 52.0963 42.4464 52.1769C42.3485 52.2574 42.2707 52.3434 42.213 52.4347C42.1602 52.5238 42.1344 52.6268 42.1357 52.7437C42.1369 52.8607 42.1745 52.9991 42.2484 53.1588C42.282 53.2314 42.3157 53.298 42.3497 53.3587C42.3859 53.4242 42.4198 53.4849 42.4515 53.5408L41.8696 53.8453C41.8148 53.7649 41.7579 53.6737 41.6989 53.5717C41.6422 53.4745 41.5948 53.3848 41.5568 53.3025C41.4582 53.0895 41.413 52.8901 41.421 52.7042C41.4313 52.5231 41.4756 52.3586 41.5541 52.2107C41.6121 52.1075 41.6781 52.0152 41.7522 51.9339C41.8333 51.8552 41.9299 51.7782 42.0419 51.7029C42.1611 51.6301 42.3005 51.5568 42.4602 51.4829L43.1355 51.1705C43.5324 50.9869 43.8464 50.821 44.0776 50.6729C44.3136 50.5226 44.4912 50.3728 44.6102 50.2237C44.7315 50.0795 44.8199 49.9211 44.8752 49.7486C44.9227 49.5973 44.9364 49.4235 44.9161 49.2272C44.8984 49.0238 44.8313 48.7963 44.7148 48.5446C44.5984 48.2929 44.4671 48.098 44.3209 47.96C44.1796 47.8197 44.0235 47.7362 43.8525 47.7095C43.6863 47.6806 43.5088 47.7099 43.3201 47.7972C43.1845 47.8599 43.0611 47.9552 42.9499 48.0831C42.8412 48.2038 42.7551 48.3289 42.6915 48.4582L42.4178 47.9237C42.5078 47.7881 42.6168 47.6554 42.7449 47.5256C42.8729 47.3959 43.0337 47.2862 43.2273 47.1966ZM41.0382 51.4004L39.1771 47.3781L42.9599 45.6279L43.2017 46.1507L41.9312 46.7385L43.5503 50.2381L42.9259 50.527L41.3067 47.0274L40.0434 47.6119L41.6626 51.1115L41.0382 51.4004ZM40.9896 45.4465C40.8492 45.5114 40.7129 45.5216 40.5806 45.477C40.4461 45.4276 40.3452 45.3303 40.2781 45.1851C40.2131 45.0447 40.2053 44.9073 40.2548 44.7728C40.3042 44.6383 40.3991 44.5385 40.5394 44.4736C40.6798 44.4086 40.8173 44.4009 40.9518 44.4503C41.0863 44.4997 41.186 44.5946 41.251 44.735C41.3182 44.8802 41.327 45.02 41.2776 45.1546C41.226 45.2842 41.13 45.3815 40.9896 45.4465Z" fill="#FFB743"/>
<path d="M48.0636 48.2558C47.7731 48.3901 47.4905 48.4651 47.2156 48.4806C46.9407 48.4961 46.6941 48.4457 46.4757 48.3293C46.2573 48.2129 46.0899 48.0289 45.9734 47.7772C45.8525 47.5158 45.8161 47.2594 45.8643 47.0079C45.9151 46.7493 46.067 46.4998 46.3201 46.2593C46.5709 46.014 46.9432 45.7771 47.4369 45.5487L48.4897 45.0616C48.9108 44.8667 49.3106 44.7464 49.689 44.7006C50.0652 44.65 50.4012 44.7031 50.6971 44.86C50.9979 45.0147 51.2457 45.3026 51.4405 45.7237C51.5905 46.048 51.6554 46.3471 51.6352 46.6209C51.6172 46.8995 51.535 47.1726 51.3885 47.4402C51.2802 47.6255 51.1401 47.799 50.9682 47.9608C50.8011 48.1204 50.5925 48.2728 50.3423 48.4179C50.0943 48.5679 49.7961 48.7235 49.4476 48.8847L48.6272 49.2643C48.4239 49.3584 48.2733 49.4457 48.1754 49.5262C48.0775 49.6068 47.9997 49.6927 47.9421 49.784C47.8893 49.8731 47.8635 49.9761 47.8647 50.0931C47.8659 50.2101 47.9035 50.3484 47.9774 50.5081C48.011 50.5807 48.0448 50.6474 48.0787 50.7081C48.1149 50.7736 48.1489 50.8343 48.1806 50.8901L47.5986 51.1946C47.5438 51.1142 47.4869 51.023 47.428 50.921C47.3713 50.8238 47.3239 50.7341 47.2858 50.6518C47.1873 50.4388 47.142 50.2394 47.15 50.0535C47.1603 49.8725 47.2046 49.708 47.2831 49.56C47.3411 49.4568 47.4071 49.3645 47.4812 49.2833C47.5623 49.2046 47.6589 49.1276 47.771 49.0522C47.8901 48.9795 48.0295 48.9062 48.1893 48.8323L48.9807 48.4661C49.4115 48.2668 49.7558 48.0839 50.0138 47.9176C50.2741 47.756 50.471 47.5974 50.6045 47.4415C50.7404 47.2905 50.8359 47.1288 50.8913 46.9563C50.9388 46.805 50.9543 46.648 50.9378 46.4852C50.9238 46.3154 50.8754 46.1409 50.7926 45.9618C50.6828 45.7246 50.546 45.5558 50.382 45.4554C50.2228 45.3527 50.0455 45.2996 49.8499 45.2961C49.6592 45.2903 49.4603 45.3177 49.2532 45.3782C49.051 45.4365 48.8507 45.5116 48.6522 45.6034L47.6212 46.0804C47.3744 46.1946 47.1706 46.3066 47.0097 46.4162C46.8538 46.5237 46.7309 46.6392 46.6413 46.763C46.5639 46.8752 46.5199 46.9896 46.5092 47.1062C46.5011 47.2157 46.5295 47.3407 46.5945 47.481C46.6975 47.7037 46.8678 47.8305 47.1055 47.8616C47.341 47.8878 47.599 47.836 47.8798 47.7061C48.0928 47.6076 48.2597 47.4921 48.3807 47.3598C48.5042 47.2204 48.5702 47.0517 48.5785 46.8539C48.5895 46.6491 48.529 46.4038 48.3968 46.1182L47.4932 44.1652L46.2444 44.743L46.849 46.0498L46.3292 46.4314L45.4289 44.4856L49.2262 42.7287L49.4681 43.2514L48.1103 43.8796L48.9703 45.7383C49.1203 46.0626 49.2089 46.3302 49.2359 46.541C49.2677 46.7496 49.262 46.9403 49.2185 47.1132C49.1536 47.3665 49.0204 47.5868 48.8191 47.774C48.6204 47.9541 48.3685 48.1147 48.0636 48.2558Z" fill="#FFB743"/>
<path d="M48.2132 40.6499C48.4843 40.5245 48.7651 40.4328 49.0556 40.3748C49.346 40.3168 49.6368 40.3291 49.9278 40.4119C50.1834 40.4817 50.4187 40.5903 50.6338 40.7376C50.8537 40.8827 51.0634 41.0883 51.2629 41.3544C51.4625 41.6206 51.6641 41.9739 51.8679 42.4143L53.383 45.6889L52.7585 45.9777L51.2738 42.7686C51.1036 42.4007 50.9303 42.096 50.7538 41.8544C50.5774 41.6128 50.3958 41.4236 50.2091 41.2867C50.0201 41.1449 49.8224 41.0542 49.616 41.0146C49.4334 40.9756 49.2474 40.9736 49.0578 41.0084C48.8612 41.0406 48.6685 41.1004 48.4797 41.1877C48.0441 41.3893 47.7418 41.6378 47.573 41.9334C47.3993 42.2312 47.4009 42.5712 47.5778 42.9536C47.6361 43.0795 47.7077 43.1962 47.7927 43.3038C47.8778 43.4113 47.9738 43.5109 48.0808 43.6024L47.4491 43.8947C47.3537 43.8154 47.259 43.7123 47.165 43.5854C47.071 43.4585 46.996 43.3345 46.94 43.2135C46.7608 42.8262 46.7132 42.4693 46.7971 42.1425C46.8761 41.818 47.0448 41.5284 47.3031 41.2737C47.5613 41.0191 47.8647 40.8111 48.2132 40.6499Z" fill="#FFB743"/>
<path d="M56.4092 46.1574L55.8173 45.9641L56.6038 43.9871L55.0653 40.6618L53.664 41.3101L55.2832 44.8097L54.6588 45.0986L52.7978 41.0762L56.6821 39.279L56.924 39.8018L55.6897 40.3729L57.3089 43.8724L56.4092 46.1574Z" fill="#FFB743"/>
<path d="M60.2853 42.6011C60.0288 42.7198 59.7649 42.7655 59.4937 42.7382C59.2203 42.706 58.9579 42.5835 58.7067 42.3707C58.4602 42.1556 58.2363 41.8303 58.0347 41.3946C57.813 40.9154 57.7256 40.4534 57.7725 40.0086C57.822 39.5568 57.9942 39.148 58.2893 38.7823C58.5821 38.4117 58.985 38.1078 59.4981 37.8704C59.7305 37.7629 59.9597 37.6804 60.1857 37.6228C60.4144 37.5581 60.6434 37.5197 60.8728 37.5076C61.1001 37.4906 61.336 37.499 61.5808 37.5326L62.0559 37.6831C62.4177 37.7919 62.7522 37.975 63.0593 38.2325C63.3643 38.4851 63.6086 38.8099 63.7922 39.2068C63.9422 39.5311 64.0193 39.8246 64.0232 40.0872C64.0298 40.3427 63.9693 40.5676 63.8417 40.7617C63.7167 40.9489 63.5332 41.0984 63.2912 41.2104C63.0105 41.3403 62.7514 41.3837 62.5141 41.3407C62.2816 41.2955 62.0726 41.1866 61.8869 41.0139C61.7038 40.8341 61.5485 40.6063 61.4208 40.3304C61.3021 40.0739 61.2168 39.8195 61.1648 39.5674C61.1176 39.313 61.1026 39.0585 61.1199 38.8037C61.1372 38.5489 61.1867 38.2938 61.2684 38.0386L61.4937 37.5729C61.5986 37.4186 61.7188 37.2719 61.8542 37.1329C61.9897 36.9938 62.1657 36.8536 62.3824 36.7122C62.6017 36.5638 62.888 36.4078 63.2413 36.2443L65.4122 35.2399L65.6541 35.7626L64.4198 36.3337L66.0389 39.8333L65.4145 40.1222L63.7954 36.6226L63.3162 36.8443C63.1564 36.9182 63.0098 36.9949 62.8761 37.0744C62.7402 37.149 62.6161 37.2299 62.5036 37.3172C62.389 37.3996 62.2848 37.4919 62.191 37.5941C62.0972 37.6962 62.0126 37.8118 61.9371 37.9408C61.8244 38.1163 61.7585 38.3231 61.7393 38.5611C61.7179 38.7943 61.732 39.0406 61.7814 39.2998C61.8334 39.5519 61.9131 39.7941 62.0206 40.0265C62.1752 40.3605 62.3391 40.5814 62.5124 40.6892C62.6857 40.7971 62.8619 40.8096 63.041 40.7267C63.191 40.6573 63.2859 40.5576 63.3257 40.4275C63.3702 40.2953 63.377 40.1511 63.3459 39.9951C63.3149 39.839 63.2658 39.6884 63.1986 39.5432C63.0216 39.1608 62.7876 38.8518 62.4965 38.6163C62.2079 38.3737 61.8729 38.2084 61.4914 38.1205C61.19 38.066 60.8892 38.0701 60.589 38.1325C60.2889 38.195 59.9839 38.2979 59.6741 38.4413C59.3159 38.607 59.0339 38.8168 58.8282 39.0706C58.6224 39.3245 58.4923 39.6021 58.4378 39.9035C58.3882 40.2027 58.4075 40.5111 58.4957 40.8288C58.5244 40.9036 58.5521 40.976 58.5786 41.046C58.6029 41.1112 58.624 41.1631 58.6419 41.2019C58.7874 41.5165 58.9402 41.7514 59.1001 41.9066C59.2649 42.0595 59.4293 42.148 59.5932 42.1721C59.762 42.1939 59.9262 42.1679 60.0859 42.0939C60.2166 42.0335 60.3156 41.9554 60.383 41.8596C60.4529 41.7567 60.4874 41.6408 60.4866 41.5119C60.4906 41.3808 60.4567 41.2378 60.385 41.0829C60.2731 40.8409 60.125 40.6861 59.941 40.6184C59.7547 40.546 59.5623 40.5557 59.3638 40.6475C59.1702 40.7371 59.0122 40.8719 58.8898 41.0519C58.7674 41.2319 58.6719 41.4319 58.6032 41.6517L58.2793 41.2374C58.3461 41.0008 58.4614 40.78 58.6251 40.575C58.7914 40.3629 58.9931 40.2019 59.2303 40.0922C59.5788 39.931 59.9088 39.9076 60.2203 40.022C60.5367 40.1342 60.7789 40.3718 60.9468 40.7348C61.07 41.0011 61.1255 41.2545 61.1135 41.4951C61.1014 41.7358 61.0245 41.9506 60.8828 42.1396C60.7459 42.3263 60.5467 42.4802 60.2853 42.6011ZM60.6466 36.3518C60.5062 36.4167 60.3699 36.4269 60.2376 36.3823C60.1031 36.3329 60.0023 36.2356 59.9351 36.0904C59.8701 35.95 59.8624 35.8126 59.9118 35.678C59.9612 35.5435 60.0561 35.4438 60.1965 35.3789C60.3368 35.3139 60.4743 35.3061 60.6088 35.3556C60.7433 35.405 60.843 35.4999 60.908 35.6402C60.9752 35.7855 60.9841 35.9253 60.9346 36.0598C60.883 36.1895 60.787 36.2868 60.6466 36.3518Z" fill="#FFB743"/>
<path d="M34.1322 30.3539L38.2409 38.6301L37.2879 39.1032L34.7044 33.8992L33.7341 31.6613L33.7215 31.6675L34.667 40.4043L33.8143 40.8276L27.4265 34.7926L27.414 34.7988L28.6101 36.9247L31.1935 42.1287L30.2405 42.6018L26.1318 34.3256L27.6742 33.5599L31.9888 37.6856L33.643 39.4435L33.6681 39.431L33.2867 37.057L32.5898 31.1196L34.1322 30.3539Z" fill="#E2E6FE"/>
<path d="M40.0782 29.7466C40.6718 29.4519 41.2586 29.3221 41.8387 29.3572C42.4271 29.3881 42.9733 29.5858 43.4774 29.9504C43.9772 30.3066 44.3952 30.8233 44.7314 31.5004C45.0676 32.1776 45.2285 32.8271 45.2142 33.449C45.1958 34.0625 45.021 34.613 44.6898 35.1004C44.367 35.5836 43.9089 35.9726 43.3153 36.2673C42.7301 36.5578 42.1433 36.6876 41.5549 36.6567C40.9664 36.6258 40.4223 36.4322 39.9224 36.076C39.4184 35.7114 38.9983 35.1906 38.6621 34.5134C38.326 33.8363 38.1671 33.1909 38.1856 32.5774C38.1999 31.9555 38.3726 31.4009 38.7037 30.9135C39.0349 30.426 39.493 30.0371 40.0782 29.7466ZM40.5078 30.6118C40.0814 30.8235 39.7655 31.1001 39.56 31.4418C39.3545 31.7835 39.2573 32.1756 39.2686 32.6181C39.2841 33.048 39.4163 33.5138 39.6653 34.0154C39.9102 34.5086 40.2013 34.8956 40.5386 35.1762C40.8842 35.4527 41.2552 35.6123 41.6516 35.6552C42.0481 35.6981 42.4594 35.6137 42.8858 35.402C43.3121 35.1904 43.6281 34.9137 43.8336 34.572C44.0391 34.2303 44.132 33.8403 44.1124 33.402C44.1011 32.9595 43.9731 32.4917 43.7282 31.9984C43.4792 31.4968 43.184 31.112 42.8424 30.8439C42.5052 30.5633 42.1383 30.4015 41.7419 30.3586C41.3455 30.3158 40.9341 30.4002 40.5078 30.6118Z" fill="#E2E6FE"/>
<path d="M47.5972 26.0139C48.1907 25.7192 48.7776 25.5894 49.3576 25.6244C49.9461 25.6553 50.4923 25.8531 50.9963 26.2177C51.4962 26.5739 51.9142 27.0906 52.2504 27.7677C52.5865 28.4449 52.7475 29.0944 52.7332 29.7163C52.7147 30.3298 52.5399 30.8803 52.2088 31.3677C51.886 31.8509 51.4279 32.2399 50.8343 32.5346C50.2491 32.8251 49.6623 32.9549 49.0739 32.924C48.4854 32.8931 47.9413 32.6995 47.4414 32.3433C46.9374 31.9787 46.5173 31.4579 46.1811 30.7807C45.845 30.1036 45.6861 29.4582 45.7045 28.8447C45.7188 28.2228 45.8916 27.6682 46.2227 27.1808C46.5538 26.6933 47.012 26.3044 47.5972 26.0139ZM48.0267 26.8791C47.6004 27.0908 47.2845 27.3674 47.0789 27.7091C46.8734 28.0508 46.7763 28.4429 46.7876 28.8854C46.8031 29.3153 46.9353 29.7811 47.1843 30.2827C47.4292 30.7759 47.7202 31.1629 48.0575 31.4435C48.4032 31.7199 48.7742 31.8796 49.1706 31.9225C49.567 31.9654 49.9784 31.881 50.4048 31.6693C50.8311 31.4577 51.1471 31.181 51.3526 30.8393C51.5581 30.4976 51.651 30.1076 51.6314 29.6693C51.6201 29.2268 51.4921 28.759 51.2472 28.2657C50.9982 27.7641 50.7029 27.3793 50.3614 27.1112C50.0241 26.8305 49.6573 26.6688 49.2609 26.6259C48.8645 26.5831 48.4531 26.6675 48.0267 26.8791Z" fill="#E2E6FE"/>
<path d="M55.6953 29.9651L52.5827 23.6952L53.4605 23.2594L54.2455 24.6203L54.014 24.5633C53.9817 24.1625 54.0287 23.8057 54.1548 23.493C54.2767 23.172 54.4612 22.8929 54.7081 22.6556C54.9634 22.4143 55.2499 22.2147 55.5676 22.057C56.019 21.8329 56.4722 21.7174 56.9272 21.7103C57.3781 21.6949 57.7993 21.8088 58.191 22.052C58.591 22.2911 58.9259 22.6823 59.1957 23.2257L61.1877 27.2384L60.1845 27.7364L58.3668 24.0748C58.0223 23.3809 57.6332 22.975 57.1994 22.8568C56.7699 22.7262 56.3378 22.7688 55.903 22.9846C55.6021 23.134 55.3364 23.3545 55.106 23.646C54.8756 23.9375 54.7389 24.292 54.696 24.7092C54.6614 25.1224 54.777 25.5964 55.0426 26.1315L56.6985 29.4671L55.6953 29.9651Z" fill="#E2E6FE"/>
</svg>
