<svg width="106" height="127" viewBox="0 0 106 127" fill="none" xmlns="http://www.w3.org/2000/svg">
<path d="M0 5C0 2.23857 2.23858 0 5 0H101C103.761 0 106 2.23858 106 5V122C106 124.761 103.761 127 101 127H5C2.23858 127 0 124.761 0 122V5Z" fill="#7D67EE"/>
<path d="M20.276 103.08V111H19.088V106.416L19.184 104.232H19.172L16.76 111H15.692L13.28 104.232H13.268L13.364 106.416V111H12.176V103.08H14.084L15.68 107.664L16.232 109.548H16.256L16.82 107.664L18.404 103.08H20.276ZM27.7171 105L25.0891 111.708C24.9131 112.172 24.7211 112.54 24.5131 112.812C24.3131 113.084 24.0811 113.28 23.8171 113.4C23.5531 113.52 23.2451 113.58 22.8931 113.58C22.6051 113.58 22.3371 113.54 22.0891 113.46C21.8491 113.388 21.6371 113.288 21.4531 113.16L21.7651 112.164C21.9171 112.292 22.0771 112.388 22.2451 112.452C22.4211 112.516 22.6091 112.548 22.8091 112.548C23.0251 112.548 23.2171 112.488 23.3851 112.368C23.5611 112.256 23.7171 112.028 23.8531 111.684L24.1171 111.036L23.4811 109.548L21.6091 105H23.0491L24.3811 108.768L24.7291 109.896L25.1251 108.66L26.3851 105H27.7171ZM40.7018 103.08V111H39.5138V106.416L39.6098 104.232H39.5978L37.1858 111H36.1178L33.7058 104.232H33.6938L33.7898 106.416V111H32.6018V103.08H34.5098L36.1058 107.664L36.6578 109.548H36.6818L37.2458 107.664L38.8298 103.08H40.7018ZM46.2843 107.148C46.2843 106.748 46.1723 106.44 45.9483 106.224C45.7323 106 45.4323 105.888 45.0483 105.888C44.6883 105.888 44.3803 105.972 44.1243 106.14C43.8683 106.308 43.6803 106.58 43.5603 106.956L42.4803 106.5C42.6323 106.012 42.9283 105.62 43.3683 105.324C43.8163 105.028 44.3923 104.88 45.0963 104.88C45.5763 104.88 46.0003 104.96 46.3683 105.12C46.7363 105.272 47.0243 105.504 47.2323 105.816C47.4483 106.128 47.5563 106.528 47.5563 107.016V109.692C47.5563 109.988 47.7043 110.136 48.0003 110.136C48.1443 110.136 48.2843 110.116 48.4203 110.076L48.3483 110.964C48.1643 111.052 47.9323 111.096 47.6523 111.096C47.3963 111.096 47.1643 111.052 46.9563 110.964C46.7563 110.868 46.5963 110.728 46.4763 110.544C46.3643 110.352 46.3083 110.116 46.3083 109.836V109.752L46.5723 109.74C46.5003 110.052 46.3523 110.312 46.1283 110.52C45.9043 110.72 45.6443 110.872 45.3483 110.976C45.0523 111.072 44.7523 111.12 44.4483 111.12C44.0723 111.12 43.7323 111.06 43.4283 110.94C43.1323 110.82 42.8963 110.64 42.7203 110.4C42.5523 110.152 42.4683 109.848 42.4683 109.488C42.4683 109.04 42.6123 108.672 42.9003 108.384C43.1963 108.096 43.6123 107.9 44.1483 107.796L46.4763 107.34L46.4643 108.24L44.7723 108.588C44.4363 108.652 44.1843 108.744 44.0163 108.864C43.8483 108.984 43.7643 109.16 43.7643 109.392C43.7643 109.616 43.8483 109.796 44.0163 109.932C44.1923 110.06 44.4243 110.124 44.7123 110.124C44.9123 110.124 45.1043 110.1 45.2883 110.052C45.4803 110.004 45.6523 109.928 45.8043 109.824C45.9563 109.712 46.0723 109.572 46.1523 109.404C46.2403 109.228 46.2843 109.02 46.2843 108.78V107.148ZM51.1777 103.236V109.2C51.1777 109.496 51.2537 109.712 51.4057 109.848C51.5657 109.984 51.7777 110.052 52.0417 110.052C52.2577 110.052 52.4457 110.02 52.6057 109.956C52.7657 109.884 52.9137 109.788 53.0497 109.668L53.3377 110.604C53.1537 110.764 52.9257 110.892 52.6537 110.988C52.3897 111.076 52.0937 111.12 51.7657 111.12C51.4217 111.12 51.1057 111.064 50.8177 110.952C50.5297 110.84 50.3057 110.66 50.1457 110.412C49.9857 110.156 49.9017 109.824 49.8937 109.416V103.596L51.1777 103.236ZM53.2417 105V106.008H48.7417V105H53.2417ZM57.1516 111.12C56.5516 111.12 56.0236 110.996 55.5676 110.748C55.1116 110.5 54.7556 110.144 54.4996 109.68C54.2516 109.208 54.1276 108.648 54.1276 108C54.1276 107.352 54.2516 106.796 54.4996 106.332C54.7556 105.86 55.1076 105.5 55.5556 105.252C56.0036 105.004 56.5116 104.88 57.0796 104.88C57.6636 104.88 58.1596 105 58.5676 105.24C58.9756 105.48 59.2876 105.808 59.5036 106.224C59.7196 106.64 59.8276 107.112 59.8276 107.64C59.8276 107.784 59.8236 107.92 59.8156 108.048C59.8076 108.176 59.7956 108.288 59.7796 108.384H54.9556V107.4H59.2156L58.5796 107.592C58.5796 107.048 58.4436 106.632 58.1716 106.344C57.8996 106.048 57.5276 105.9 57.0556 105.9C56.7116 105.9 56.4116 105.98 56.1556 106.14C55.8996 106.3 55.7036 106.54 55.5676 106.86C55.4316 107.172 55.3636 107.556 55.3636 108.012C55.3636 108.46 55.4356 108.84 55.5796 109.152C55.7236 109.464 55.9276 109.7 56.1916 109.86C56.4556 110.02 56.7676 110.1 57.1276 110.1C57.5276 110.1 57.8516 110.024 58.0996 109.872C58.3476 109.72 58.5436 109.508 58.6876 109.236L59.7076 109.716C59.5636 110.004 59.3676 110.256 59.1196 110.472C58.8796 110.68 58.5916 110.84 58.2556 110.952C57.9196 111.064 57.5516 111.12 57.1516 111.12ZM63.7291 111.12C63.1291 111.12 62.5811 111.004 62.0851 110.772C61.5891 110.54 61.1971 110.212 60.9091 109.788L61.7971 109.02C61.9731 109.348 62.2251 109.612 62.5531 109.812C62.8891 110.004 63.2891 110.1 63.7531 110.1C64.1211 110.1 64.4131 110.036 64.6291 109.908C64.8451 109.78 64.9531 109.6 64.9531 109.368C64.9531 109.216 64.9011 109.084 64.7971 108.972C64.7011 108.852 64.5131 108.76 64.2331 108.696L62.9731 108.432C62.3331 108.304 61.8771 108.1 61.6051 107.82C61.3331 107.532 61.1971 107.168 61.1971 106.728C61.1971 106.4 61.2931 106.096 61.4851 105.816C61.6771 105.536 61.9571 105.312 62.3251 105.144C62.7011 104.968 63.1491 104.88 63.6691 104.88C64.2691 104.88 64.7811 104.988 65.2051 105.204C65.6291 105.412 65.9531 105.712 66.1771 106.104L65.2891 106.848C65.1371 106.528 64.9131 106.292 64.6171 106.14C64.3211 105.98 64.0131 105.9 63.6931 105.9C63.4371 105.9 63.2171 105.932 63.0331 105.996C62.8491 106.06 62.7091 106.148 62.6131 106.26C62.5171 106.372 62.4691 106.504 62.4691 106.656C62.4691 106.816 62.5291 106.956 62.6491 107.076C62.7691 107.196 62.9851 107.288 63.2971 107.352L64.6651 107.64C65.2411 107.752 65.6451 107.944 65.8771 108.216C66.1171 108.48 66.2371 108.804 66.2371 109.188C66.2371 109.572 66.1371 109.912 65.9371 110.208C65.7371 110.496 65.4491 110.72 65.0731 110.88C64.6971 111.04 64.2491 111.12 63.7291 111.12Z" fill="#E2E6FE"/>
<mask id="mask0_1543_922" style="mask-type:luminance" maskUnits="userSpaceOnUse" x="6" y="70" width="30" height="30">
<path d="M6 70H36V100H6V70Z" fill="white"/>
</mask>
<g mask="url(#mask0_1543_922)">
<path fill-rule="evenodd" clip-rule="evenodd" d="M14.1711 79.5864C14.9213 78.8365 15.9385 78.4152 16.9991 78.4152C18.0598 78.4152 19.077 78.8365 19.8271 79.5864L20.9991 80.7574L22.1711 79.5864C22.5401 79.2043 22.9815 78.8996 23.4695 78.69C23.9575 78.4803 24.4824 78.37 25.0135 78.3654C25.5447 78.3608 26.0714 78.462 26.563 78.6631C27.0545 78.8642 27.5012 79.1612 27.8767 79.5368C28.2523 79.9124 28.5493 80.359 28.7504 80.8506C28.9516 81.3422 29.0528 81.8689 29.0481 82.4C29.0435 82.9311 28.9332 83.456 28.7236 83.944C28.5139 84.432 28.2092 84.8734 27.8271 85.2424L20.9991 92.0714L14.1711 85.2424C13.4213 84.4923 13 83.475 13 82.4144C13 81.3537 13.4213 80.3365 14.1711 79.5864Z" fill="#E2E6FE"/>
</g>
</svg>
