<svg width="122" height="51" viewBox="0 0 122 51" fill="none" xmlns="http://www.w3.org/2000/svg">
<path d="M43.368 20.44V31H41.784V24.888L41.912 21.976H41.896L38.68 31H37.256L34.04 21.976H34.024L34.152 24.888V31H32.568V20.44H35.112L37.24 26.552L37.976 29.064H38.008L38.76 26.552L40.872 20.44H43.368ZM53.2895 23L49.7855 31.944C49.5508 32.5627 49.2948 33.0533 49.0175 33.416C48.7508 33.7787 48.4415 34.04 48.0895 34.2C47.7375 34.36 47.3268 34.44 46.8575 34.44C46.4735 34.44 46.1162 34.3867 45.7855 34.28C45.4655 34.184 45.1828 34.0507 44.9375 33.88L45.3535 32.552C45.5562 32.7227 45.7695 32.8507 45.9935 32.936C46.2282 33.0213 46.4788 33.064 46.7455 33.064C47.0335 33.064 47.2895 32.984 47.5135 32.824C47.7482 32.6747 47.9562 32.3707 48.1375 31.912L48.4895 31.048L47.6415 29.064L45.1455 23H47.0655L48.8415 28.024L49.3055 29.528L49.8335 27.88L51.5135 23H53.2895ZM59.5624 34.36V23H61.0824L61.2104 25.24L60.9864 24.968C61.1144 24.552 61.3117 24.184 61.5784 23.864C61.845 23.544 62.1757 23.2933 62.5704 23.112C62.9757 22.9307 63.4184 22.84 63.8984 22.84C64.549 22.84 65.141 23.0053 65.6744 23.336C66.2077 23.6667 66.629 24.1413 66.9384 24.76C67.2477 25.368 67.4024 26.1093 67.4024 26.984C67.4024 27.8587 67.2424 28.6107 66.9224 29.24C66.613 29.8587 66.1864 30.3333 65.6424 30.664C65.109 30.9947 64.5117 31.16 63.8504 31.16C63.1677 31.16 62.5864 30.984 62.1064 30.632C61.6264 30.2693 61.285 29.8107 61.0824 29.256L61.2744 28.984V34.36H59.5624ZM63.4824 29.768C64.1757 29.768 64.7144 29.5227 65.0984 29.032C65.493 28.5413 65.6904 27.864 65.6904 27C65.6904 26.136 65.4984 25.4587 65.1144 24.968C64.7304 24.4667 64.197 24.216 63.5144 24.216C63.0664 24.216 62.6717 24.3333 62.3304 24.568C61.9997 24.792 61.7384 25.112 61.5464 25.528C61.365 25.9333 61.2744 26.424 61.2744 27C61.2744 27.5653 61.365 28.056 61.5464 28.472C61.7277 28.888 61.9837 29.208 62.3144 29.432C62.645 29.656 63.0344 29.768 63.4824 29.768ZM69.5936 31V23H71.0496L71.2096 24.44C71.423 23.9173 71.7376 23.5227 72.1536 23.256C72.5803 22.9787 73.103 22.84 73.7216 22.84C73.8816 22.84 74.0416 22.856 74.2016 22.888C74.3616 22.9093 74.495 22.9467 74.6016 23L74.3616 24.504C74.2443 24.4613 74.111 24.4293 73.9616 24.408C73.823 24.376 73.631 24.36 73.3856 24.36C73.055 24.36 72.7296 24.4507 72.4096 24.632C72.0896 24.8027 71.823 25.064 71.6096 25.416C71.407 25.768 71.3056 26.216 71.3056 26.76V31H69.5936ZM79.4875 22.84C80.2662 22.84 80.9542 23.0053 81.5515 23.336C82.1488 23.6667 82.6128 24.1467 82.9435 24.776C83.2848 25.3947 83.4555 26.136 83.4555 27C83.4555 27.864 83.2848 28.6107 82.9435 29.24C82.6128 29.8587 82.1488 30.3333 81.5515 30.664C80.9542 30.9947 80.2662 31.16 79.4875 31.16C78.7088 31.16 78.0208 30.9947 77.4235 30.664C76.8262 30.3333 76.3568 29.8587 76.0155 29.24C75.6742 28.6107 75.5035 27.864 75.5035 27C75.5035 26.136 75.6742 25.3947 76.0155 24.776C76.3568 24.1467 76.8262 23.6667 77.4235 23.336C78.0208 23.0053 78.7088 22.84 79.4875 22.84ZM79.4875 24.184C79.0075 24.184 78.5968 24.296 78.2555 24.52C77.9248 24.7333 77.6688 25.048 77.4875 25.464C77.3062 25.88 77.2155 26.392 77.2155 27C77.2155 27.5973 77.3062 28.1093 77.4875 28.536C77.6688 28.952 77.9248 29.272 78.2555 29.496C78.5968 29.7093 79.0075 29.816 79.4875 29.816C79.9675 29.816 80.3728 29.7093 80.7035 29.496C81.0342 29.272 81.2902 28.952 81.4715 28.536C81.6528 28.1093 81.7435 27.5973 81.7435 27C81.7435 26.392 81.6528 25.88 81.4715 25.464C81.2902 25.048 81.0342 24.7333 80.7035 24.52C80.3728 24.296 79.9675 24.184 79.4875 24.184ZM88.8919 19.288C89.2225 19.288 89.5212 19.3253 89.7879 19.4C90.0652 19.464 90.2732 19.5547 90.4119 19.672L90.0919 20.904C89.9745 20.8293 89.8412 20.776 89.6919 20.744C89.5425 20.7013 89.3719 20.68 89.1799 20.68C88.7425 20.68 88.3959 20.7813 88.1399 20.984C87.8945 21.1867 87.7719 21.5173 87.7719 21.976V23.144L87.8199 23.576V31H86.1079V21.848C86.1079 21.4427 86.1665 21.08 86.2839 20.76C86.4119 20.44 86.5985 20.1733 86.8439 19.96C87.0892 19.736 87.3825 19.5707 87.7239 19.464C88.0759 19.3467 88.4652 19.288 88.8919 19.288ZM90.3639 23V24.344H84.6039V23H90.3639ZM92.7639 21.656C92.3905 21.656 92.1025 21.5653 91.8999 21.384C91.7079 21.192 91.6119 20.9253 91.6119 20.584C91.6119 20.2427 91.7079 19.9813 91.8999 19.8C92.1025 19.6187 92.3905 19.528 92.7639 19.528C93.1265 19.528 93.4039 19.6187 93.5959 19.8C93.7985 19.9813 93.8999 20.2427 93.8999 20.584C93.8999 20.9253 93.7985 21.192 93.5959 21.384C93.4039 21.5653 93.1265 21.656 92.7639 21.656ZM93.6119 23V31H91.8999V23H93.6119ZM97.9295 19.4V28.76C97.9295 29.1547 97.9988 29.4267 98.1375 29.576C98.2762 29.7253 98.5055 29.8 98.8255 29.8C99.0175 29.8 99.1775 29.7893 99.3055 29.768C99.4442 29.736 99.6148 29.6827 99.8175 29.608L99.6255 30.888C99.4442 30.9733 99.2362 31.0373 99.0015 31.08C98.7668 31.1333 98.5322 31.16 98.2975 31.16C97.5828 31.16 97.0548 30.9787 96.7135 30.616C96.3828 30.2427 96.2175 29.672 96.2175 28.904V19.4H97.9295ZM104.77 31.16C103.97 31.16 103.266 30.9947 102.658 30.664C102.05 30.3333 101.575 29.8587 101.234 29.24C100.903 28.6107 100.738 27.864 100.738 27C100.738 26.136 100.903 25.3947 101.234 24.776C101.575 24.1467 102.045 23.6667 102.642 23.336C103.239 23.0053 103.917 22.84 104.674 22.84C105.453 22.84 106.114 23 106.658 23.32C107.202 23.64 107.618 24.0773 107.906 24.632C108.194 25.1867 108.338 25.816 108.338 26.52C108.338 26.712 108.333 26.8933 108.322 27.064C108.311 27.2347 108.295 27.384 108.274 27.512H101.842V26.2H107.522L106.674 26.456C106.674 25.7307 106.493 25.176 106.13 24.792C105.767 24.3973 105.271 24.2 104.642 24.2C104.183 24.2 103.783 24.3067 103.442 24.52C103.101 24.7333 102.839 25.0533 102.658 25.48C102.477 25.896 102.386 26.408 102.386 27.016C102.386 27.6133 102.482 28.12 102.674 28.536C102.866 28.952 103.138 29.2667 103.49 29.48C103.842 29.6933 104.258 29.8 104.738 29.8C105.271 29.8 105.703 29.6987 106.034 29.496C106.365 29.2933 106.626 29.0107 106.818 28.648L108.178 29.288C107.986 29.672 107.725 30.008 107.394 30.296C107.074 30.5733 106.69 30.7867 106.242 30.936C105.794 31.0853 105.303 31.16 104.77 31.16Z" fill="#666666"/>
<path fill-rule="evenodd" clip-rule="evenodd" d="M7 26C7.59334 26 8.17336 25.8241 8.66671 25.4944C9.16006 25.1648 9.54458 24.6962 9.77164 24.1481C9.9987 23.5999 10.0581 22.9967 9.94236 22.4147C9.8266 21.8328 9.54088 21.2982 9.12132 20.8787C8.70176 20.4591 8.16721 20.1734 7.58527 20.0576C7.00333 19.9419 6.40013 20.0013 5.85195 20.2284C5.30377 20.4554 4.83524 20.8399 4.50559 21.3333C4.17595 21.8266 4 22.4067 4 23C4 23.7957 4.31607 24.5587 4.87868 25.1213C5.44129 25.6839 6.20435 26 7 26ZM0 35C2.76642e-08 33.1435 0.737498 31.363 2.05025 30.0503C3.36301 28.7375 5.14348 28 7 28C8.85652 28 10.637 28.7375 11.9497 30.0503C13.2625 31.363 14 33.1435 14 35H0Z" fill="#666666"/>
</svg>
