<svg width="65" height="56" viewBox="0 0 65 56" fill="none" xmlns="http://www.w3.org/2000/svg">
<g filter="url(#filter0_d_1318_951)">
<rect x="4.16211" y="4" width="56.75" height="47.6667" rx="6" transform="rotate(0.194149 4.16211 4)" fill="#7D67EE"/>
<path d="M32.2324 19.6951C33.3658 19.699 34.3182 19.9822 35.0896 20.5448C35.8743 21.1075 36.4583 21.8961 36.8416 22.9108C37.2381 23.9255 37.4341 25.1195 37.4294 26.4928C37.4243 28.0128 37.2133 29.2787 36.7966 30.2907C36.3798 31.2893 35.784 32.0406 35.0089 32.5446C34.2339 33.0487 33.2997 33.2988 32.2064 33.2951C31.0864 33.2913 30.1272 33.0414 29.3289 32.5454C28.5306 32.0493 27.9331 31.3073 27.5364 30.3193L29.5596 29.3861C29.7441 30.0134 30.0491 30.5145 30.4745 30.8892C30.9132 31.2641 31.5059 31.4527 32.2526 31.4553C32.8659 31.4573 33.3797 31.3391 33.7938 31.1005C34.208 30.8619 34.5358 30.5163 34.7773 30.0638C35.0322 29.6113 35.214 29.0653 35.3229 28.4257C35.4317 27.786 35.4875 27.0662 35.4902 26.2662C35.4903 26.2262 35.4904 26.1929 35.4905 26.1662C35.4907 26.1262 35.4908 26.0862 35.4909 26.0462L35.4109 26.0459C35.2625 26.5788 34.9943 27.0112 34.6065 27.3432C34.2321 27.6753 33.8046 27.9205 33.324 28.0789C32.8435 28.2239 32.3633 28.2956 31.8833 28.294C31.03 28.2911 30.2705 28.1219 29.605 27.7863C28.9529 27.4374 28.4412 26.9557 28.0699 26.3411C27.6986 25.7265 27.5144 24.9992 27.5173 24.1592C27.5204 23.2392 27.7098 22.4465 28.0854 21.7811C28.4743 21.1157 29.016 20.6042 29.7106 20.2466C30.4185 19.8757 31.2591 19.6918 32.2324 19.6951ZM32.2461 21.5752C31.4061 21.5723 30.7586 21.7968 30.3038 22.2486C29.8622 22.7005 29.6401 23.333 29.6373 24.1464C29.6349 24.8664 29.8663 25.4338 30.3316 25.8487C30.8102 26.2504 31.4429 26.4525 32.2295 26.4552C32.7362 26.4569 33.1832 26.3584 33.5705 26.1597C33.9579 25.9477 34.2589 25.662 34.4735 25.3028C34.7013 24.9435 34.8161 24.5239 34.8177 24.0439C34.8194 23.5373 34.7076 23.1035 34.4821 22.7428C34.2701 22.3687 33.971 22.081 33.5851 21.8797C33.1991 21.6784 32.7527 21.5769 32.2461 21.5752Z" fill="#666666"/>
</g>
<defs>
<filter id="filter0_d_1318_951" x="0" y="0" width="64.9121" height="55.8586" filterUnits="userSpaceOnUse" color-interpolation-filters="sRGB">
<feFlood flood-opacity="0" result="BackgroundImageFix"/>
<feColorMatrix in="SourceAlpha" type="matrix" values="0 0 0 0 0 0 0 0 0 0 0 0 0 0 0 0 0 0 127 0" result="hardAlpha"/>
<feOffset/>
<feGaussianBlur stdDeviation="2"/>
<feComposite in2="hardAlpha" operator="out"/>
<feColorMatrix type="matrix" values="0 0 0 0 0 0 0 0 0 0 0 0 0 0 0 0 0 0 0.25 0"/>
<feBlend mode="normal" in2="BackgroundImageFix" result="effect1_dropShadow_1318_951"/>
<feBlend mode="normal" in="SourceGraphic" in2="effect1_dropShadow_1318_951" result="shape"/>
</filter>
</defs>
</svg>
