<svg width="152" height="56" viewBox="0 0 152 56" fill="none" xmlns="http://www.w3.org/2000/svg">
<path d="M58.224 22.94V33.5H56.192L52.112 26.844L51.088 24.972H51.072L51.136 26.684V33.5H49.568V22.94H51.584L55.648 29.58L56.688 31.484H56.704L56.64 29.756V22.94H58.224ZM64.4719 25.34C65.2505 25.34 65.9385 25.5053 66.5359 25.836C67.1332 26.1667 67.5972 26.6467 67.9279 27.276C68.2692 27.8947 68.4399 28.636 68.4399 29.5C68.4399 30.364 68.2692 31.1107 67.9279 31.74C67.5972 32.3587 67.1332 32.8333 66.5359 33.164C65.9385 33.4947 65.2505 33.66 64.4719 33.66C63.6932 33.66 63.0052 33.4947 62.4079 33.164C61.8105 32.8333 61.3412 32.3587 60.9999 31.74C60.6585 31.1107 60.4879 30.364 60.4879 29.5C60.4879 28.636 60.6585 27.8947 60.9999 27.276C61.3412 26.6467 61.8105 26.1667 62.4079 25.836C63.0052 25.5053 63.6932 25.34 64.4719 25.34ZM64.4719 26.684C63.9919 26.684 63.5812 26.796 63.2399 27.02C62.9092 27.2333 62.6532 27.548 62.4719 27.964C62.2905 28.38 62.1999 28.892 62.1999 29.5C62.1999 30.0973 62.2905 30.6093 62.4719 31.036C62.6532 31.452 62.9092 31.772 63.2399 31.996C63.5812 32.2093 63.9919 32.316 64.4719 32.316C64.9519 32.316 65.3572 32.2093 65.6879 31.996C66.0185 31.772 66.2745 31.452 66.4559 31.036C66.6372 30.6093 66.7279 30.0973 66.7279 29.5C66.7279 28.892 66.6372 28.38 66.4559 27.964C66.2745 27.548 66.0185 27.2333 65.6879 27.02C65.3572 26.796 64.9519 26.684 64.4719 26.684ZM72.8203 23.148V31.1C72.8203 31.4947 72.9216 31.7827 73.1243 31.964C73.3376 32.1453 73.6203 32.236 73.9723 32.236C74.2603 32.236 74.5109 32.1933 74.7243 32.108C74.9376 32.012 75.1349 31.884 75.3163 31.724L75.7003 32.972C75.4549 33.1853 75.1509 33.356 74.7883 33.484C74.4363 33.6013 74.0416 33.66 73.6043 33.66C73.1456 33.66 72.7243 33.5853 72.3403 33.436C71.9563 33.2867 71.6576 33.0467 71.4443 32.716C71.2309 32.3747 71.1189 31.932 71.1083 31.388V23.628L72.8203 23.148ZM75.5723 25.5V26.844H69.5723V25.5H75.5723ZM78.1295 24.156C77.7562 24.156 77.4682 24.0653 77.2655 23.884C77.0735 23.692 76.9775 23.4253 76.9775 23.084C76.9775 22.7427 77.0735 22.4813 77.2655 22.3C77.4682 22.1187 77.7562 22.028 78.1295 22.028C78.4922 22.028 78.7695 22.1187 78.9615 22.3C79.1642 22.4813 79.2655 22.7427 79.2655 23.084C79.2655 23.4253 79.1642 23.692 78.9615 23.884C78.7695 24.0653 78.4922 24.156 78.1295 24.156ZM78.9775 25.5V33.5H77.2655V25.5H78.9775ZM85.0481 21.788C85.3788 21.788 85.6775 21.8253 85.9441 21.9C86.2215 21.964 86.4295 22.0547 86.5681 22.172L86.2481 23.404C86.1308 23.3293 85.9975 23.276 85.8481 23.244C85.6988 23.2013 85.5281 23.18 85.3361 23.18C84.8988 23.18 84.5521 23.2813 84.2961 23.484C84.0508 23.6867 83.9281 24.0173 83.9281 24.476V25.644L83.9761 26.076V33.5H82.2641V24.348C82.2641 23.9427 82.3228 23.58 82.4401 23.26C82.5681 22.94 82.7548 22.6733 83.0001 22.46C83.2455 22.236 83.5388 22.0707 83.8801 21.964C84.2321 21.8467 84.6215 21.788 85.0481 21.788ZM86.5201 25.5V26.844H80.7601V25.5H86.5201ZM88.9201 24.156C88.5468 24.156 88.2588 24.0653 88.0561 23.884C87.8641 23.692 87.7681 23.4253 87.7681 23.084C87.7681 22.7427 87.8641 22.4813 88.0561 22.3C88.2588 22.1187 88.5468 22.028 88.9201 22.028C89.2828 22.028 89.5601 22.1187 89.7521 22.3C89.9548 22.4813 90.0561 22.7427 90.0561 23.084C90.0561 23.4253 89.9548 23.692 89.7521 23.884C89.5601 24.0653 89.2828 24.156 88.9201 24.156ZM89.7681 25.5V33.5H88.0561V25.5H89.7681ZM95.8778 25.34C96.5178 25.34 97.0618 25.436 97.5098 25.628C97.9684 25.8093 98.3524 26.0707 98.6618 26.412C98.9711 26.7533 99.2058 27.1427 99.3658 27.58L97.7498 28.22C97.6111 27.7293 97.3871 27.356 97.0778 27.1C96.7791 26.8333 96.3844 26.7 95.8938 26.7C95.4138 26.7 95.0031 26.812 94.6618 27.036C94.3204 27.2493 94.0591 27.564 93.8778 27.98C93.7071 28.396 93.6218 28.908 93.6218 29.516C93.6218 30.1133 93.7124 30.62 93.8938 31.036C94.0751 31.452 94.3364 31.7667 94.6778 31.98C95.0191 32.1933 95.4244 32.3 95.8938 32.3C96.2564 32.3 96.5711 32.2413 96.8378 32.124C97.1044 31.996 97.3231 31.82 97.4938 31.596C97.6751 31.3613 97.7978 31.0787 97.8618 30.748L99.4138 31.276C99.2644 31.756 99.0298 32.1773 98.7098 32.54C98.4004 32.892 98.0111 33.1693 97.5418 33.372C97.0724 33.564 96.5338 33.66 95.9258 33.66C95.1364 33.66 94.4378 33.4947 93.8298 33.164C93.2218 32.8333 92.7471 32.3587 92.4058 31.74C92.0751 31.1107 91.9098 30.364 91.9098 29.5C91.9098 28.636 92.0751 27.8947 92.4058 27.276C92.7471 26.6467 93.2164 26.1667 93.8138 25.836C94.4218 25.5053 95.1098 25.34 95.8778 25.34ZM106.03 28.364C106.03 27.8307 105.881 27.42 105.582 27.132C105.294 26.8333 104.894 26.684 104.382 26.684C103.902 26.684 103.491 26.796 103.15 27.02C102.809 27.244 102.558 27.6067 102.398 28.108L100.958 27.5C101.161 26.8493 101.555 26.3267 102.142 25.932C102.739 25.5373 103.507 25.34 104.446 25.34C105.086 25.34 105.651 25.4467 106.142 25.66C106.633 25.8627 107.017 26.172 107.294 26.588C107.582 27.004 107.726 27.5373 107.726 28.188V31.756C107.726 32.1507 107.923 32.348 108.318 32.348C108.51 32.348 108.697 32.3213 108.878 32.268L108.782 33.452C108.537 33.5693 108.227 33.628 107.854 33.628C107.513 33.628 107.203 33.5693 106.926 33.452C106.659 33.324 106.446 33.1373 106.286 32.892C106.137 32.636 106.062 32.3213 106.062 31.948V31.836L106.414 31.82C106.318 32.236 106.121 32.5827 105.822 32.86C105.523 33.1267 105.177 33.3293 104.782 33.468C104.387 33.596 103.987 33.66 103.582 33.66C103.081 33.66 102.627 33.58 102.222 33.42C101.827 33.26 101.513 33.02 101.278 32.7C101.054 32.3693 100.942 31.964 100.942 31.484C100.942 30.8867 101.134 30.396 101.518 30.012C101.913 29.628 102.467 29.3667 103.182 29.228L106.286 28.62L106.27 29.82L104.014 30.284C103.566 30.3693 103.23 30.492 103.006 30.652C102.782 30.812 102.67 31.0467 102.67 31.356C102.67 31.6547 102.782 31.8947 103.006 32.076C103.241 32.2467 103.55 32.332 103.934 32.332C104.201 32.332 104.457 32.3 104.702 32.236C104.958 32.172 105.187 32.0707 105.39 31.932C105.593 31.7827 105.747 31.596 105.854 31.372C105.971 31.1373 106.03 30.86 106.03 30.54V28.364ZM112.555 23.148V31.1C112.555 31.4947 112.656 31.7827 112.859 31.964C113.072 32.1453 113.355 32.236 113.707 32.236C113.995 32.236 114.245 32.1933 114.459 32.108C114.672 32.012 114.869 31.884 115.051 31.724L115.435 32.972C115.189 33.1853 114.885 33.356 114.523 33.484C114.171 33.6013 113.776 33.66 113.339 33.66C112.88 33.66 112.459 33.5853 112.075 33.436C111.691 33.2867 111.392 33.0467 111.179 32.716C110.965 32.3747 110.853 31.932 110.843 31.388V23.628L112.555 23.148ZM115.307 25.5V26.844H109.307V25.5H115.307ZM117.864 24.156C117.491 24.156 117.203 24.0653 117 23.884C116.808 23.692 116.712 23.4253 116.712 23.084C116.712 22.7427 116.808 22.4813 117 22.3C117.203 22.1187 117.491 22.028 117.864 22.028C118.227 22.028 118.504 22.1187 118.696 22.3C118.899 22.4813 119 22.7427 119 23.084C119 23.4253 118.899 23.692 118.696 23.884C118.504 24.0653 118.227 24.156 117.864 24.156ZM118.712 25.5V33.5H117V25.5H118.712ZM124.863 25.34C125.641 25.34 126.329 25.5053 126.927 25.836C127.524 26.1667 127.988 26.6467 128.319 27.276C128.66 27.8947 128.831 28.636 128.831 29.5C128.831 30.364 128.66 31.1107 128.319 31.74C127.988 32.3587 127.524 32.8333 126.927 33.164C126.329 33.4947 125.641 33.66 124.863 33.66C124.084 33.66 123.396 33.4947 122.799 33.164C122.201 32.8333 121.732 32.3587 121.391 31.74C121.049 31.1107 120.879 30.364 120.879 29.5C120.879 28.636 121.049 27.8947 121.391 27.276C121.732 26.6467 122.201 26.1667 122.799 25.836C123.396 25.5053 124.084 25.34 124.863 25.34ZM124.863 26.684C124.383 26.684 123.972 26.796 123.631 27.02C123.3 27.2333 123.044 27.548 122.863 27.964C122.681 28.38 122.591 28.892 122.591 29.5C122.591 30.0973 122.681 30.6093 122.863 31.036C123.044 31.452 123.3 31.772 123.631 31.996C123.972 32.2093 124.383 32.316 124.863 32.316C125.343 32.316 125.748 32.2093 126.079 31.996C126.409 31.772 126.665 31.452 126.847 31.036C127.028 30.6093 127.119 30.0973 127.119 29.5C127.119 28.892 127.028 28.38 126.847 27.964C126.665 27.548 126.409 27.2333 126.079 27.02C125.748 26.796 125.343 26.684 124.863 26.684ZM130.984 33.5V25.5H132.504L132.616 27.58L132.392 27.356C132.542 26.8973 132.755 26.5187 133.032 26.22C133.32 25.9107 133.656 25.6867 134.04 25.548C134.435 25.4093 134.851 25.34 135.288 25.34C135.854 25.34 136.36 25.452 136.808 25.676C137.267 25.8893 137.63 26.2147 137.896 26.652C138.163 27.0893 138.296 27.644 138.296 28.316V33.5H136.584V28.844C136.584 28.0547 136.419 27.5107 136.088 27.212C135.768 26.9027 135.363 26.748 134.872 26.748C134.52 26.748 134.179 26.8333 133.848 27.004C133.518 27.164 133.24 27.4253 133.016 27.788C132.803 28.1507 132.696 28.636 132.696 29.244V33.5H130.984Z" fill="#666666"/>
<path d="M23.9998 20C22.4085 20 20.8824 20.6321 19.7571 21.7574C18.6319 22.8826 17.9998 24.4087 17.9998 26V29.586L17.2928 30.293C17.153 30.4329 17.0578 30.611 17.0192 30.805C16.9806 30.9989 17.0004 31.2 17.0761 31.3827C17.1518 31.5654 17.2799 31.7215 17.4443 31.8314C17.6087 31.9413 17.802 32 17.9998 32H29.9998C30.1975 32 30.3908 31.9413 30.5552 31.8314C30.7197 31.7215 30.8478 31.5654 30.9235 31.3827C30.9991 31.2 31.0189 30.9989 30.9804 30.805C30.9418 30.611 30.8466 30.4329 30.7068 30.293L29.9998 29.586V26C29.9998 24.4087 29.3676 22.8826 28.2424 21.7574C27.1172 20.6321 25.5911 20 23.9998 20ZM23.9998 36C23.2041 36 22.4411 35.6839 21.8785 35.1213C21.3159 34.5587 20.9998 33.7956 20.9998 33H26.9998C26.9998 33.7956 26.6837 34.5587 26.1211 35.1213C25.5585 35.6839 24.7954 36 23.9998 36Z" fill="#666666"/>
</svg>
