<svg width="74" height="10" viewBox="0 0 74 10" fill="none" xmlns="http://www.w3.org/2000/svg">
<path d="M6.82255 1.08V9H5.63455L2.32255 3.696L1.48255 2.208H1.47055L1.51855 3.408V9H0.606547V1.08H1.79455L5.09455 6.36L5.94655 7.884H5.95855L5.91055 6.672V1.08H6.82255ZM11.6293 2.88C12.1973 2.88 12.6973 3.004 13.1293 3.252C13.5693 3.5 13.9133 3.86 14.1613 4.332C14.4093 4.796 14.5333 5.352 14.5333 6C14.5333 6.648 14.4093 7.208 14.1613 7.68C13.9133 8.144 13.5693 8.5 13.1293 8.748C12.6973 8.996 12.1973 9.12 11.6293 9.12C11.0693 9.12 10.5693 8.996 10.1293 8.748C9.6893 8.5 9.3453 8.144 9.0973 7.68C8.8493 7.208 8.7253 6.648 8.7253 6C8.7253 5.352 8.8493 4.796 9.0973 4.332C9.3453 3.86 9.6893 3.5 10.1293 3.252C10.5693 3.004 11.0693 2.88 11.6293 2.88ZM11.6293 3.708C11.2213 3.708 10.8733 3.8 10.5853 3.984C10.2973 4.168 10.0733 4.432 9.9133 4.776C9.7613 5.112 9.6853 5.52 9.6853 6C9.6853 6.472 9.7613 6.88 9.9133 7.224C10.0733 7.568 10.2973 7.832 10.5853 8.016C10.8733 8.2 11.2213 8.292 11.6293 8.292C12.0373 8.292 12.3853 8.2 12.6733 8.016C12.9613 7.832 13.1813 7.568 13.3333 7.224C13.4933 6.88 13.5733 6.472 13.5733 6C13.5733 5.52 13.4933 5.112 13.3333 4.776C13.1813 4.432 12.9613 4.168 12.6733 3.984C12.3853 3.8 12.0373 3.708 11.6293 3.708ZM17.6511 1.296V7.344C17.6511 7.64 17.7351 7.86 17.9031 8.004C18.0711 8.148 18.2871 8.22 18.5511 8.22C18.7831 8.22 18.9831 8.18 19.1511 8.1C19.3191 8.02 19.4711 7.912 19.6071 7.776L19.9431 8.58C19.7591 8.748 19.5391 8.88 19.2831 8.976C19.0351 9.072 18.7471 9.12 18.4191 9.12C18.1151 9.12 17.8311 9.068 17.5671 8.964C17.3031 8.852 17.0911 8.68 16.9311 8.448C16.7791 8.208 16.6991 7.896 16.6911 7.512V1.56L17.6511 1.296ZM19.8351 3V3.828H15.4911V3H19.8351ZM21.7425 1.848C21.5265 1.848 21.3505 1.784 21.2145 1.656C21.0865 1.52 21.0225 1.344 21.0225 1.128C21.0225 0.912 21.0865 0.74 21.2145 0.611999C21.3505 0.476 21.5265 0.408 21.7425 0.408C21.9585 0.408 22.1305 0.476 22.2585 0.611999C22.3945 0.74 22.4625 0.912 22.4625 1.128C22.4625 1.344 22.3945 1.52 22.2585 1.656C22.1305 1.784 21.9585 1.848 21.7425 1.848ZM22.2225 3V9H21.2625V3H22.2225ZM26.886 0.18C27.094 0.18 27.29 0.204 27.474 0.252C27.658 0.299999 27.802 0.368 27.906 0.456L27.654 1.236C27.558 1.172 27.454 1.128 27.342 1.104C27.23 1.072 27.106 1.056 26.97 1.056C26.626 1.056 26.358 1.14 26.166 1.308C25.974 1.468 25.878 1.728 25.878 2.088V3V3.312V9H24.918V1.992C24.918 1.728 24.958 1.484 25.038 1.26C25.118 1.036 25.238 0.844 25.398 0.684C25.566 0.523999 25.774 0.399999 26.022 0.312C26.27 0.224 26.558 0.18 26.886 0.18ZM27.882 3V3.828H23.718V3H27.882ZM29.646 1.848C29.43 1.848 29.254 1.784 29.118 1.656C28.99 1.52 28.926 1.344 28.926 1.128C28.926 0.912 28.99 0.74 29.118 0.611999C29.254 0.476 29.43 0.408 29.646 0.408C29.862 0.408 30.034 0.476 30.162 0.611999C30.298 0.74 30.366 0.912 30.366 1.128C30.366 1.344 30.298 1.52 30.162 1.656C30.034 1.784 29.862 1.848 29.646 1.848ZM30.126 3V9H29.166V3H30.126ZM34.8441 2.88C35.2601 2.88 35.6241 2.944 35.9361 3.072C36.2561 3.2 36.5321 3.384 36.7641 3.624C36.9961 3.864 37.1841 4.148 37.3281 4.476L36.4161 4.908C36.2881 4.524 36.0921 4.232 35.8281 4.032C35.5721 3.824 35.2361 3.72 34.8201 3.72C34.4201 3.72 34.0761 3.812 33.7881 3.996C33.5001 4.172 33.2801 4.432 33.1281 4.776C32.9761 5.112 32.9001 5.52 32.9001 6C32.9001 6.472 32.9761 6.88 33.1281 7.224C33.2801 7.568 33.5001 7.832 33.7881 8.016C34.0761 8.192 34.4201 8.28 34.8201 8.28C35.1321 8.28 35.4001 8.232 35.6241 8.136C35.8561 8.04 36.0441 7.9 36.1881 7.716C36.3401 7.532 36.4441 7.308 36.5001 7.044L37.3881 7.356C37.2521 7.724 37.0641 8.04 36.8241 8.304C36.5921 8.568 36.3081 8.772 35.9721 8.916C35.6441 9.052 35.2681 9.12 34.8441 9.12C34.2841 9.12 33.7841 8.996 33.3441 8.748C32.9041 8.5 32.5601 8.144 32.3121 7.68C32.0641 7.208 31.9401 6.648 31.9401 6C31.9401 5.352 32.0641 4.796 32.3121 4.332C32.5601 3.86 32.9041 3.5 33.3441 3.252C33.7841 3.004 34.2841 2.88 34.8441 2.88ZM42.579 5.124C42.579 4.676 42.459 4.332 42.219 4.092C41.979 3.844 41.639 3.72 41.199 3.72C40.783 3.72 40.431 3.812 40.143 3.996C39.855 4.172 39.643 4.46 39.507 4.86L38.727 4.38C38.887 3.932 39.183 3.572 39.615 3.3C40.047 3.02 40.583 2.88 41.223 2.88C41.655 2.88 42.047 2.956 42.399 3.108C42.751 3.252 43.027 3.476 43.227 3.78C43.435 4.076 43.539 4.46 43.539 4.932V7.836C43.539 8.124 43.691 8.268 43.995 8.268C44.147 8.268 44.295 8.248 44.439 8.208L44.391 8.964C44.231 9.044 44.023 9.084 43.767 9.084C43.535 9.084 43.327 9.04 43.143 8.952C42.959 8.864 42.815 8.732 42.711 8.556C42.607 8.372 42.555 8.144 42.555 7.872V7.752L42.795 7.788C42.699 8.1 42.535 8.356 42.303 8.556C42.071 8.748 41.811 8.892 41.523 8.988C41.235 9.076 40.951 9.12 40.671 9.12C40.319 9.12 39.991 9.06 39.687 8.94C39.383 8.82 39.139 8.64 38.955 8.4C38.779 8.152 38.691 7.848 38.691 7.488C38.691 7.04 38.839 6.672 39.135 6.384C39.439 6.088 39.859 5.888 40.395 5.784L42.771 5.316V6.108L40.839 6.504C40.447 6.584 40.155 6.696 39.963 6.84C39.771 6.984 39.675 7.184 39.675 7.44C39.675 7.688 39.771 7.892 39.963 8.052C40.163 8.204 40.443 8.28 40.803 8.28C41.035 8.28 41.255 8.252 41.463 8.196C41.679 8.132 41.871 8.04 42.039 7.92C42.207 7.792 42.339 7.636 42.435 7.452C42.531 7.26 42.579 7.036 42.579 6.78V5.124ZM47.0535 1.296V7.344C47.0535 7.64 47.1375 7.86 47.3055 8.004C47.4735 8.148 47.6895 8.22 47.9535 8.22C48.1855 8.22 48.3855 8.18 48.5535 8.1C48.7215 8.02 48.8735 7.912 49.0095 7.776L49.3455 8.58C49.1615 8.748 48.9415 8.88 48.6855 8.976C48.4375 9.072 48.1495 9.12 47.8215 9.12C47.5175 9.12 47.2335 9.068 46.9695 8.964C46.7055 8.852 46.4935 8.68 46.3335 8.448C46.1815 8.208 46.1015 7.896 46.0935 7.512V1.56L47.0535 1.296ZM49.2375 3V3.828H44.8935V3H49.2375ZM51.1448 1.848C50.9288 1.848 50.7528 1.784 50.6168 1.656C50.4888 1.52 50.4248 1.344 50.4248 1.128C50.4248 0.912 50.4888 0.74 50.6168 0.611999C50.7528 0.476 50.9288 0.408 51.1448 0.408C51.3608 0.408 51.5328 0.476 51.6608 0.611999C51.7968 0.74 51.8648 0.912 51.8648 1.128C51.8648 1.344 51.7968 1.52 51.6608 1.656C51.5328 1.784 51.3608 1.848 51.1448 1.848ZM51.6248 3V9H50.6648V3H51.6248ZM56.3363 2.88C56.9043 2.88 57.4043 3.004 57.8363 3.252C58.2763 3.5 58.6203 3.86 58.8683 4.332C59.1163 4.796 59.2403 5.352 59.2403 6C59.2403 6.648 59.1163 7.208 58.8683 7.68C58.6203 8.144 58.2763 8.5 57.8363 8.748C57.4043 8.996 56.9043 9.12 56.3363 9.12C55.7763 9.12 55.2763 8.996 54.8363 8.748C54.3963 8.5 54.0523 8.144 53.8043 7.68C53.5563 7.208 53.4323 6.648 53.4323 6C53.4323 5.352 53.5563 4.796 53.8043 4.332C54.0523 3.86 54.3963 3.5 54.8363 3.252C55.2763 3.004 55.7763 2.88 56.3363 2.88ZM56.3363 3.708C55.9283 3.708 55.5803 3.8 55.2923 3.984C55.0043 4.168 54.7803 4.432 54.6203 4.776C54.4683 5.112 54.3923 5.52 54.3923 6C54.3923 6.472 54.4683 6.88 54.6203 7.224C54.7803 7.568 55.0043 7.832 55.2923 8.016C55.5803 8.2 55.9283 8.292 56.3363 8.292C56.7443 8.292 57.0923 8.2 57.3803 8.016C57.6683 7.832 57.8883 7.568 58.0403 7.224C58.2003 6.88 58.2803 6.472 58.2803 6C58.2803 5.52 58.2003 5.112 58.0403 4.776C57.8883 4.432 57.6683 4.168 57.3803 3.984C57.0923 3.8 56.7443 3.708 56.3363 3.708ZM61.0476 9V3H61.8876L61.9716 4.344L61.8156 4.212C61.9436 3.892 62.1156 3.636 62.3316 3.444C62.5476 3.244 62.7956 3.1 63.0756 3.012C63.3636 2.924 63.6596 2.88 63.9636 2.88C64.3956 2.88 64.7876 2.964 65.1396 3.132C65.4916 3.292 65.7716 3.54 65.9796 3.876C66.1956 4.212 66.3036 4.64 66.3036 5.16V9H65.3436V5.496C65.3436 4.832 65.1996 4.372 64.9116 4.116C64.6316 3.852 64.2836 3.72 63.8676 3.72C63.5796 3.72 63.2916 3.788 63.0036 3.924C62.7156 4.06 62.4756 4.28 62.2836 4.584C62.0996 4.888 62.0076 5.296 62.0076 5.808V9H61.0476ZM70.6373 9.12C70.0533 9.12 69.5133 8.996 69.0173 8.748C68.5293 8.5 68.1533 8.148 67.8893 7.692L68.7053 7.104C68.8813 7.472 69.1373 7.76 69.4733 7.968C69.8173 8.176 70.2293 8.28 70.7093 8.28C71.1333 8.28 71.4653 8.2 71.7053 8.04C71.9453 7.872 72.0653 7.656 72.0653 7.392C72.0653 7.224 72.0093 7.072 71.8973 6.936C71.7933 6.792 71.5893 6.688 71.2853 6.624L69.8453 6.324C69.2613 6.204 68.8413 6.004 68.5853 5.724C68.3373 5.444 68.2133 5.096 68.2133 4.68C68.2133 4.352 68.3053 4.052 68.4893 3.78C68.6813 3.508 68.9493 3.292 69.2933 3.132C69.6453 2.964 70.0573 2.88 70.5293 2.88C71.1213 2.88 71.6213 2.996 72.0293 3.228C72.4373 3.46 72.7413 3.788 72.9413 4.212L72.1373 4.74C72.0013 4.388 71.7813 4.132 71.4773 3.972C71.1733 3.804 70.8573 3.72 70.5293 3.72C70.2413 3.72 69.9933 3.76 69.7853 3.84C69.5853 3.92 69.4293 4.032 69.3173 4.176C69.2133 4.312 69.1613 4.468 69.1613 4.644C69.1613 4.82 69.2213 4.984 69.3413 5.136C69.4613 5.28 69.6853 5.384 70.0133 5.448L71.5133 5.76C72.0733 5.872 72.4653 6.056 72.6893 6.312C72.9133 6.568 73.0253 6.88 73.0253 7.248C73.0253 7.624 72.9253 7.956 72.7253 8.244C72.5253 8.524 72.2453 8.74 71.8853 8.892C71.5253 9.044 71.1093 9.12 70.6373 9.12Z" fill="#7D67EE"/>
</svg>
