<svg width="227" height="59" viewBox="0 0 227 59" fill="none" xmlns="http://www.w3.org/2000/svg">
<rect width="227" height="59" rx="5" fill="#7D67EE"/>
<path d="M110.655 24.28C111.679 24.28 112.564 24.4987 113.311 24.936C114.058 25.3733 114.634 25.9973 115.039 26.808C115.444 27.6187 115.647 28.5893 115.647 29.72C115.647 30.8507 115.444 31.8213 115.039 32.632C114.634 33.4427 114.058 34.0667 113.311 34.504C112.564 34.9413 111.679 35.16 110.655 35.16C109.642 35.16 108.762 34.9413 108.015 34.504C107.268 34.0667 106.692 33.4427 106.287 32.632C105.882 31.8213 105.679 30.8507 105.679 29.72C105.679 28.5893 105.882 27.6187 106.287 26.808C106.692 25.9973 107.268 25.3733 108.015 24.936C108.762 24.4987 109.642 24.28 110.655 24.28ZM110.655 25.768C109.994 25.768 109.423 25.9227 108.943 26.232C108.474 26.5413 108.111 26.9893 107.855 27.576C107.599 28.1627 107.471 28.8773 107.471 29.72C107.471 30.552 107.599 31.2667 107.855 31.864C108.111 32.4507 108.474 32.8987 108.943 33.208C109.423 33.5173 109.994 33.672 110.655 33.672C111.327 33.672 111.898 33.5173 112.367 33.208C112.847 32.8987 113.215 32.4507 113.471 31.864C113.727 31.2667 113.855 30.552 113.855 29.72C113.855 28.8773 113.727 28.1627 113.471 27.576C113.215 26.9893 112.847 26.5413 112.367 26.232C111.898 25.9227 111.327 25.768 110.655 25.768ZM126.849 24.44L122.145 29.528L121.953 29.544L119.217 32.488L119.057 30.616L124.753 24.44H126.849ZM119.905 24.44V35H118.193V24.44H119.905ZM122.497 28.216L126.945 35H124.929L121.137 29.176L122.497 28.216Z" fill="white"/>
</svg>
