<svg width="65" height="56" viewBox="0 0 65 56" fill="none" xmlns="http://www.w3.org/2000/svg">
<g filter="url(#filter0_d_1387_850)">
<rect x="4.16211" y="4" width="56.75" height="47.6667" rx="6" transform="rotate(0.194149 4.16211 4)" fill="#7D67EE"/>
<path d="M32.4755 33.096L32.5062 24.0361C32.5071 23.7694 32.508 23.4961 32.509 23.2161C32.5233 22.9228 32.5377 22.6162 32.5521 22.2962C32.0972 22.7347 31.576 23.1129 30.9882 23.4309C30.4138 23.7357 29.8198 23.9537 29.206 24.0849L28.8123 22.2236C29.0924 22.1845 29.4194 22.0923 29.7932 21.9469C30.1671 21.8015 30.5544 21.6161 30.9551 21.3908C31.3559 21.1655 31.7234 20.9267 32.0576 20.6745C32.3918 20.409 32.6527 20.1499 32.8402 19.8972L34.6402 19.9033L34.5955 33.1032L32.4755 33.096Z" fill="#666666"/>
</g>
<defs>
<filter id="filter0_d_1387_850" x="0" y="0" width="64.9121" height="55.8586" filterUnits="userSpaceOnUse" color-interpolation-filters="sRGB">
<feFlood flood-opacity="0" result="BackgroundImageFix"/>
<feColorMatrix in="SourceAlpha" type="matrix" values="0 0 0 0 0 0 0 0 0 0 0 0 0 0 0 0 0 0 127 0" result="hardAlpha"/>
<feOffset/>
<feGaussianBlur stdDeviation="2"/>
<feComposite in2="hardAlpha" operator="out"/>
<feColorMatrix type="matrix" values="0 0 0 0 0 0 0 0 0 0 0 0 0 0 0 0 0 0 0.25 0"/>
<feBlend mode="normal" in2="BackgroundImageFix" result="effect1_dropShadow_1387_850"/>
<feBlend mode="normal" in="SourceGraphic" in2="effect1_dropShadow_1387_850" result="shape"/>
</filter>
</defs>
</svg>
