<svg width="103" height="96" viewBox="0 0 103 96" fill="none" xmlns="http://www.w3.org/2000/svg">
<path d="M4.06804 48.5285C1.91584 46.3972 2.146 42.847 4.56747 41.0275C33.8732 19.0061 54.4775 8.85406 93.4014 1.07895C96.3587 0.488223 99.1482 2.66757 99.3155 5.67866L102.762 67.7161C102.899 70.1805 101.214 72.3698 98.8078 72.919C79.6154 77.2998 69.6089 82.184 54.976 92.9104C52.971 94.3801 50.1889 94.2017 48.4226 92.4525L4.06804 48.5285Z" fill="#7D67EE"/>
<path d="M48.1329 37.3539L52.2416 45.6301L51.2885 46.1033L48.7051 40.8992L47.7347 38.6613L47.7222 38.6675L48.6677 47.4043L47.815 47.8276L41.4272 41.7926L41.4147 41.7988L42.6107 43.9247L45.1942 49.1287L44.2412 49.6018L40.1325 41.3256L41.6749 40.5599L45.9895 44.6857L47.6437 46.4435L47.6687 46.431L47.2873 44.057L46.5905 38.1196L48.1329 37.3539ZM54.0789 36.7466C54.6724 36.4519 55.2592 36.3221 55.8393 36.3572C56.4278 36.3881 56.974 36.5858 57.478 36.9504C57.9779 37.3066 58.3959 37.8233 58.7321 38.5004C59.0682 39.1776 59.2292 39.8271 59.2149 40.449C59.1964 41.0625 59.0216 41.613 58.6905 42.1004C58.3677 42.5837 57.9096 42.9726 57.316 43.2673C56.7308 43.5578 56.144 43.6876 55.5555 43.6567C54.9671 43.6258 54.4229 43.4323 53.9231 43.076C53.4191 42.7115 52.999 42.1906 52.6628 41.5135C52.3266 40.8363 52.1678 40.191 52.1862 39.5774C52.2005 38.9556 52.3733 38.4009 52.7044 37.9135C53.0355 37.4261 53.4937 37.0371 54.0789 36.7466ZM54.5084 37.6118C54.0821 37.8235 53.7661 38.1002 53.5606 38.4419C53.3551 38.7835 53.258 39.1756 53.2693 39.6181C53.2847 40.0481 53.417 40.5138 53.666 41.0154C53.9109 41.5087 54.2019 41.8956 54.5392 42.1762C54.8849 42.4527 55.2559 42.6124 55.6523 42.6552C56.0487 42.6981 56.4601 42.6137 56.8865 42.402C57.3128 42.1904 57.6287 41.9137 57.8342 41.572C58.0397 41.2304 58.1327 40.8403 58.1131 40.402C58.1018 39.9595 57.9737 39.4917 57.7289 38.9985C57.4799 38.4969 57.1846 38.112 56.8431 37.8439C56.5058 37.5633 56.139 37.4015 55.7426 37.3587C55.3462 37.3158 54.9348 37.4002 54.5084 37.6118ZM61.5979 33.0139C62.1914 32.7192 62.7782 32.5894 63.3583 32.6245C63.9468 32.6554 64.493 32.8531 64.997 33.2177C65.4969 33.5739 65.9149 34.0906 66.2511 34.7677C66.5872 35.4449 66.7481 36.0944 66.7338 36.7163C66.7154 37.3298 66.5406 37.8803 66.2095 38.3677C65.8867 38.851 65.4285 39.2399 64.835 39.5346C64.2498 39.8251 63.663 39.9549 63.0745 39.924C62.4861 39.8931 61.9419 39.6995 61.4421 39.3433C60.938 38.9788 60.518 38.4579 60.1818 37.7807C59.8456 37.1036 59.6868 36.4583 59.7052 35.8447C59.7195 35.2228 59.8922 34.6682 60.2234 34.1808C60.5545 33.6934 61.0127 33.3044 61.5979 33.0139ZM62.0274 33.8791C61.601 34.0908 61.2851 34.3675 61.0796 34.7091C60.8741 35.0508 60.777 35.4429 60.7883 35.8854C60.8037 36.3154 60.936 36.7811 61.185 37.2827C61.4298 37.776 61.7209 38.1629 62.0582 38.4435C62.4039 38.72 62.7749 38.8796 63.1713 38.9225C63.5677 38.9654 63.9791 38.881 64.4054 38.6693C64.8318 38.4577 65.1477 38.181 65.3532 37.8393C65.5587 37.4976 65.6517 37.1076 65.632 36.6693C65.6208 36.2268 65.4927 35.759 65.2479 35.2657C64.9989 34.7642 64.7036 34.3793 64.3621 34.1112C64.0248 33.8306 63.658 33.6688 63.2615 33.626C62.8651 33.5831 62.4538 33.6675 62.0274 33.8791ZM69.696 36.9651L66.5834 30.6952L67.4611 30.2594L68.2461 31.6203L68.0146 31.5633C67.9824 31.1625 68.0293 30.8058 68.1554 30.4931C68.2774 30.172 68.4619 29.8929 68.7088 29.6557C68.9641 29.4143 69.2506 29.2148 69.5683 29.0571C70.0197 28.833 70.4729 28.7174 70.9279 28.7103C71.3787 28.6949 71.8 28.8088 72.1916 29.052C72.5917 29.2911 72.9266 29.6823 73.1963 30.2257L75.1884 34.2384L74.1852 34.7365L72.3674 31.0748C72.023 30.381 71.6339 29.975 71.2001 29.8569C70.7706 29.7263 70.3384 29.7688 69.9037 29.9847C69.6028 30.1341 69.3371 30.3545 69.1067 30.646C68.8763 30.9376 68.7396 31.292 68.6967 31.7093C68.6621 32.1224 68.7776 32.5965 69.0432 33.1315L70.6992 36.4671L69.696 36.9651Z" fill="#E2E6FE"/>
<path d="M53.0874 60.5815C52.7969 60.7159 52.5143 60.7908 52.2394 60.8064C51.9645 60.8219 51.7179 60.7714 51.4995 60.6551C51.2811 60.5387 51.1137 60.3546 50.9972 60.1029C50.8763 59.8416 50.8399 59.5851 50.8881 59.3336C50.9389 59.0751 51.0908 58.8256 51.3439 58.5851C51.5947 58.3397 51.967 58.1028 52.4607 57.8744L55.0092 56.6953L55.2443 57.2036L52.645 58.4062C52.3982 58.5204 52.1943 58.6323 52.0335 58.742C51.8776 58.8494 51.7547 58.965 51.6651 59.0887C51.5877 59.2009 51.5437 59.3153 51.533 59.4319C51.5249 59.5415 51.5533 59.6664 51.6183 59.8068C51.7213 60.0294 51.8916 60.1563 52.1293 60.1874C52.3647 60.2136 52.6228 60.1618 52.9036 60.0319C53.1166 59.9333 53.2835 59.8179 53.4044 59.6855C53.528 59.5461 53.5939 59.3775 53.6023 59.1797C53.6133 58.9748 53.5527 58.7296 53.4206 58.444L52.517 56.4909L51.2682 57.0687L51.8728 58.3756L51.353 58.7571L50.4527 56.8113L54.25 55.0544L54.4918 55.5772L53.1341 56.2054L53.9941 58.0641C54.1441 58.3884 54.2327 58.6559 54.2597 58.8667C54.2915 59.0753 54.2858 59.266 54.2423 59.4389C54.1774 59.6923 54.0442 59.9125 53.8429 60.0997C53.6441 60.2798 53.3923 60.4404 53.0874 60.5815ZM59.227 54.4441C59.4739 54.3299 59.7256 54.2898 59.9823 54.3239C60.2438 54.3557 60.4922 54.467 60.7274 54.6579C60.9627 54.8487 61.1631 55.1233 61.3289 55.4815C61.5304 55.9171 61.6265 56.2899 61.6171 56.5998C61.6077 56.9097 61.5273 57.1996 61.376 57.4694C61.2726 57.6524 61.1349 57.8248 60.963 57.9866C60.7959 58.1462 60.5872 58.2986 60.337 58.4437C60.0891 58.5937 59.7909 58.7493 59.4424 58.9105L58.8978 59.1625C58.6945 59.2566 58.5439 59.3439 58.4461 59.4244C58.3482 59.505 58.2704 59.5909 58.2127 59.6822C58.1599 59.7713 58.1341 59.8743 58.1354 59.9913C58.1366 60.1082 58.1742 60.2466 58.2481 60.4063C58.2817 60.4789 58.3154 60.5456 58.3494 60.6062C58.3856 60.6718 58.4195 60.7325 58.4512 60.7883L57.8693 61.0928C57.8145 61.0124 57.7576 60.9212 57.6986 60.8192C57.6419 60.722 57.5945 60.6323 57.5565 60.55C57.4579 60.337 57.4127 60.1376 57.4207 59.9517C57.431 59.7707 57.4753 59.6062 57.5538 59.4582C57.6118 59.355 57.6778 59.2627 57.7519 59.1814C57.833 59.1028 57.9296 59.0258 58.0416 58.9504C58.1608 58.8777 58.3002 58.8043 58.4599 58.7304L59.1352 58.418C59.5321 58.2344 59.8461 58.0685 60.0773 57.9204C60.3133 57.7701 60.4909 57.6204 60.6099 57.4713C60.7312 57.327 60.8195 57.1686 60.8749 56.9961C60.9224 56.8448 60.936 56.671 60.9157 56.4747C60.8981 56.2714 60.831 56.0438 60.7145 55.7921C60.5981 55.5404 60.4668 55.3455 60.3206 55.2075C60.1793 55.0672 60.0232 54.9837 59.8522 54.9571C59.686 54.9282 59.5085 54.9574 59.3198 55.0447C59.1842 55.1074 59.0608 55.2027 58.9496 55.3306C58.8409 55.4514 58.7548 55.5764 58.6912 55.7057L58.4175 55.1713C58.5075 55.0356 58.6165 54.9029 58.7446 54.7731C58.8726 54.6434 59.0334 54.5337 59.227 54.4441ZM57.0379 58.6479L55.1768 54.6256L58.9596 52.8754L59.2014 53.3982L57.9308 53.9861L59.55 57.4857L58.9256 57.7745L57.3064 54.275L56.0431 54.8595L57.6623 58.3591L57.0379 58.6479ZM56.9893 52.694C56.8489 52.759 56.7126 52.7691 56.5803 52.7246C56.4458 52.6751 56.3449 52.5778 56.2777 52.4326C56.2128 52.2923 56.205 52.1548 56.2545 52.0203C56.3039 51.8858 56.3988 51.786 56.5391 51.7211C56.6795 51.6562 56.817 51.6484 56.9515 51.6978C57.086 51.7472 57.1857 51.8421 57.2507 51.9825C57.3178 52.1277 57.3267 52.2676 57.2773 52.4021C57.2257 52.5318 57.1296 52.6291 56.9893 52.694ZM64.0633 55.5033C63.7728 55.6376 63.4902 55.7126 63.2153 55.7281C62.9404 55.7437 62.6938 55.6932 62.4754 55.5768C62.257 55.4604 62.0896 55.2764 61.9731 55.0247C61.8522 54.7633 61.8158 54.5069 61.864 54.2554C61.9148 53.9969 62.0667 53.7473 62.3198 53.5068C62.5706 53.2615 62.9429 53.0246 63.4366 52.7962L64.4894 52.3091C64.9105 52.1143 65.3103 51.9939 65.6887 51.9481C66.0649 51.8975 66.4009 51.9506 66.6968 52.1076C66.9976 52.2622 67.2453 52.5501 67.4402 52.9712C67.5902 53.2956 67.6551 53.5946 67.6349 53.8684C67.6169 54.1471 67.5347 54.4202 67.3881 54.6878C67.2799 54.873 67.1398 55.0465 66.9679 55.2083C66.8008 55.3679 66.5922 55.5203 66.342 55.6654C66.094 55.8154 65.7958 55.971 65.4473 56.1322L64.6269 56.5118C64.4236 56.6059 64.273 56.6932 64.1751 56.7738C64.0772 56.8543 63.9994 56.9402 63.9418 57.0316C63.889 57.1206 63.8632 57.2236 63.8644 57.3406C63.8656 57.4576 63.9032 57.5959 63.9771 57.7557C64.0107 57.8283 64.0444 57.8949 64.0784 57.9556C64.1146 58.0211 64.1485 58.0818 64.1803 58.1376L63.5983 58.4421C63.5435 58.3617 63.4866 58.2705 63.4277 58.1685C63.371 58.0714 63.3236 57.9816 63.2855 57.8993C63.187 57.6864 63.1417 57.4869 63.1497 57.301C63.16 57.12 63.2043 56.9555 63.2828 56.8076C63.3408 56.7043 63.4068 56.6121 63.4809 56.5308C63.562 56.4521 63.6586 56.3751 63.7707 56.2998C63.8898 56.227 64.0292 56.1537 64.189 56.0798L64.9804 55.7136C65.4111 55.5143 65.7555 55.3315 66.0135 55.1651C66.2737 55.0036 66.4706 54.8449 66.6042 54.689C66.7401 54.5381 66.8356 54.3763 66.891 54.2038C66.9385 54.0525 66.954 53.8955 66.9375 53.7327C66.9235 53.5629 66.8751 53.3884 66.7923 53.2093C66.6825 52.9721 66.5457 52.8033 66.3817 52.7029C66.2225 52.6003 66.0452 52.5472 65.8496 52.5436C65.6589 52.5378 65.46 52.5652 65.2529 52.6257C65.0507 52.684 64.8504 52.7591 64.6519 52.8509L63.6209 53.3279C63.3741 53.4422 63.1702 53.5541 63.0094 53.6638C62.8535 53.7712 62.7306 53.8868 62.641 54.0105C62.5636 54.1227 62.5196 54.2371 62.5089 54.3537C62.5008 54.4632 62.5292 54.5882 62.5942 54.7285C62.6972 54.9512 62.8675 55.0781 63.1052 55.1091C63.3406 55.1354 63.5987 55.0835 63.8795 54.9536C64.0925 54.8551 64.2594 54.7397 64.3804 54.6073C64.5039 54.4679 64.5699 54.2993 64.5782 54.1015C64.5892 53.8966 64.5286 53.6513 64.3965 53.3658L63.4929 51.4127L62.2441 51.9905L62.8487 53.2974L62.3289 53.6789L61.4286 51.7331L65.2259 49.9762L65.4677 50.499L64.11 51.1271L64.97 52.9858C65.12 53.3101 65.2086 53.5777 65.2356 53.7885C65.2674 53.9971 65.2617 54.1878 65.2182 54.3607C65.1533 54.614 65.0201 54.8343 64.8188 55.0215C64.62 55.2016 64.3682 55.3622 64.0633 55.5033ZM64.2129 47.8974C64.484 47.772 64.7648 47.6803 65.0552 47.6223C65.3457 47.5643 65.6365 47.5767 65.9275 47.6595C66.1831 47.7293 66.4184 47.8378 66.6335 47.9851C66.8534 48.1302 67.0631 48.3358 67.2626 48.6019C67.4622 48.8681 67.6638 49.2214 67.8676 49.6619L69.3826 52.9364L68.7582 53.2253L67.2735 50.0161C67.1033 49.6482 66.9299 49.3435 66.7535 49.1019C66.5771 48.8603 66.3955 48.6711 66.2088 48.5342C66.0198 48.3924 65.8221 48.3017 65.6157 48.2621C65.4331 48.2231 65.2471 48.2211 65.0575 48.2559C64.8609 48.2881 64.6682 48.3479 64.4794 48.4352C64.0437 48.6368 63.7415 48.8853 63.5727 49.1809C63.399 49.4787 63.4006 49.8188 63.5775 50.2011C63.6358 50.327 63.7074 50.4437 63.7924 50.5513C63.8775 50.6589 63.9735 50.7584 64.0805 50.8499L63.4488 51.1422C63.3534 51.0629 63.2586 50.9598 63.1647 50.8329C63.0707 50.706 62.9957 50.582 62.9397 50.461C62.7605 50.0738 62.7129 49.7168 62.7968 49.39C62.8758 49.0655 63.0445 48.7759 63.3027 48.5213C63.561 48.2666 63.8644 48.0587 64.2129 47.8974ZM72.4089 53.405L71.817 53.2116L72.6035 51.2346L71.065 47.9093L69.6637 48.5576L71.2829 52.0572L70.6585 52.3461L68.7974 48.3237L72.6818 46.5266L72.9237 47.0493L71.6894 47.6204L73.3086 51.12L72.4089 53.405ZM76.285 49.8486C76.0285 49.9673 75.7646 50.013 75.4934 49.9857C75.22 49.9535 74.9576 49.8311 74.7064 49.6182C74.4599 49.4031 74.2359 49.0778 74.0344 48.6422C73.8127 48.163 73.7253 47.701 73.7722 47.2562C73.8217 46.8043 73.9939 46.3955 74.289 46.0298C74.5818 45.6593 74.9847 45.3553 75.4978 45.1179C75.7301 45.0104 75.9593 44.9279 76.1854 44.8703C76.414 44.8056 76.6431 44.7673 76.8725 44.7551C77.0997 44.7381 77.3357 44.7465 77.5805 44.7802L78.0556 44.9306C78.4174 45.0394 78.7519 45.2225 79.059 45.48C79.364 45.7326 79.6083 46.0574 79.7919 46.4543C79.9419 46.7786 80.0189 47.0721 80.0229 47.3347C80.0295 47.5902 79.969 47.8151 79.8414 48.0093C79.7164 48.1964 79.5329 48.3459 79.2909 48.4579C79.0102 48.5878 78.7511 48.6312 78.5138 48.5883C78.2813 48.543 78.0722 48.4341 77.8866 48.2614C77.7035 48.0817 77.5482 47.8538 77.4205 47.5779C77.3018 47.3214 77.2165 47.0671 77.1645 46.8149C77.1173 46.5606 77.1023 46.306 77.1196 46.0512C77.1369 45.7964 77.1864 45.5414 77.2681 45.2861L77.4934 44.8205C77.5983 44.6662 77.7184 44.5195 77.8539 44.3804C77.9894 44.2413 78.1654 44.1011 78.3821 43.9597C78.6013 43.8113 78.8877 43.6553 79.241 43.4918L81.4119 42.4874L81.6538 43.0102L80.4195 43.5812L82.0386 47.0808L81.4142 47.3697L79.7951 43.8701L79.3159 44.0918C79.1561 44.1657 79.0094 44.2424 78.8758 44.3219C78.7399 44.3965 78.6158 44.4775 78.5033 44.5647C78.3887 44.6472 78.2845 44.7395 78.1907 44.8416C78.0969 44.9438 78.0123 45.0593 77.9368 45.1883C77.8241 45.3638 77.7582 45.5706 77.739 45.8087C77.7176 46.0419 77.7316 46.2881 77.7811 46.5473C77.8331 46.7994 77.9128 47.0416 78.0203 47.274C78.1748 47.608 78.3388 47.8289 78.5121 47.9368C78.6854 48.0446 78.8616 48.0571 79.0407 47.9743C79.1907 47.9048 79.2856 47.8051 79.3254 47.6751C79.3699 47.5428 79.3767 47.3986 79.3456 47.2426C79.3146 47.0865 79.2654 46.9359 79.1983 46.7907C79.0213 46.4083 78.7873 46.0993 78.4962 45.8638C78.2076 45.6212 77.8726 45.456 77.4911 45.368C77.1897 45.3136 76.8889 45.3176 76.5887 45.3801C76.2886 45.4425 75.9836 45.5455 75.6738 45.6888C75.3156 45.8545 75.0336 46.0643 74.8279 46.3182C74.6221 46.572 74.492 46.8497 74.4375 47.1511C74.3879 47.4502 74.4072 47.7586 74.4954 48.0763C74.5241 48.1511 74.5518 48.2235 74.5783 48.2936C74.6026 48.3587 74.6237 48.4107 74.6416 48.4494C74.7871 48.764 74.9399 48.9989 75.0998 49.1541C75.2646 49.307 75.429 49.3955 75.5929 49.4196C75.7617 49.4414 75.9259 49.4154 76.0856 49.3415C76.2163 49.281 76.3153 49.2029 76.3827 49.1071C76.4526 49.0042 76.4871 48.8883 76.4863 48.7594C76.4903 48.6283 76.4564 48.4853 76.3847 48.3304C76.2728 48.0884 76.1247 47.9336 75.9407 47.866C75.7544 47.7935 75.562 47.8032 75.3635 47.895C75.1699 47.9846 75.0119 48.1194 74.8895 48.2994C74.7671 48.4794 74.6716 48.6794 74.6029 48.8992L74.279 48.4849C74.3458 48.2483 74.4611 48.0275 74.6248 47.8225C74.7911 47.6104 74.9928 47.4495 75.23 47.3397C75.5785 47.1785 75.9085 47.1551 76.22 47.2695C76.5364 47.3817 76.7786 47.6193 76.9465 47.9824C77.0697 48.2486 77.1252 48.502 77.1132 48.7427C77.1011 48.9833 77.0242 49.1981 76.8825 49.3871C76.7455 49.5738 76.5464 49.7277 76.285 49.8486ZM76.6463 43.5993C76.5059 43.6642 76.3696 43.6744 76.2373 43.6298C76.1028 43.5804 76.0019 43.4831 75.9348 43.3379C75.8698 43.1975 75.8621 43.0601 75.9115 42.9256C75.9609 42.7911 76.0558 42.6913 76.1962 42.6264C76.3365 42.5614 76.474 42.5537 76.6085 42.6031C76.743 42.6525 76.8427 42.7474 76.9077 42.8878C76.9749 43.033 76.9837 43.1728 76.9343 43.3074C76.8827 43.437 76.7867 43.5343 76.6463 43.5993Z" fill="#FFB743"/>
<path d="M24.041 27.7534C49.422 22.6574 66.2281 24.6292 101.499 41" stroke="#A394F2" stroke-width="0.4"/>
<path d="M36.8943 80.773C60.5917 59.1733 74.8964 53.1501 101.894 50.773" stroke="#A394F2" stroke-width="0.4"/>
<path d="M18.9999 64.0119C40.9431 44.5552 65.8118 46.8752 102 65" stroke="#A394F2" stroke-width="0.4"/>
</svg>
