<svg width="96" height="103" viewBox="0 0 96 103" fill="none" xmlns="http://www.w3.org/2000/svg">
<path d="M0.994686 10.0029C0.443392 7.07671 2.59683 4.3377 5.56867 4.15196L67.4759 0.282756C70.043 0.122312 72.3061 1.94181 72.7607 4.47343C76.0376 22.7229 80.1993 32.4244 92.6199 47.967C94.2319 49.9841 94.1038 52.8962 92.278 54.722L48.5152 98.4848C46.385 100.615 42.8579 100.382 41.0405 97.9797C17.4028 66.7306 7.76413 45.9338 0.994686 10.0029Z" fill="#7D67EE"/>
<path d="M55.9214 46.6847L55.7822 47.2916L53.7424 46.6864L50.5692 48.5184L51.3412 49.8556L54.6806 47.9276L55.0246 48.5234L51.1864 50.7394L49.0464 47.0328L49.5452 46.7448L50.2252 47.9226L53.5646 45.9946L55.9214 46.6847ZM52.5832 44.2948L48.745 46.5108L46.605 42.8042L47.1038 42.5162L47.7838 43.694L51.1232 41.766L51.4672 42.3618L48.1278 44.2898L48.8998 45.6269L52.2392 43.6989L52.5832 44.2948ZM48.581 37.1706C48.7436 37.4524 48.8451 37.7294 48.8853 38.0018C48.9256 38.2742 48.8976 38.5244 48.8013 38.7524C48.7051 38.9803 48.5369 39.1637 48.2967 39.3023C48.0473 39.4463 47.7952 39.5057 47.5404 39.4804C47.2783 39.4531 47.0161 39.3243 46.7538 39.0939C46.4842 38.8616 46.2147 38.5122 45.9454 38.0457L45.4454 37.1796C45.2134 36.7778 45.0715 36.404 45.0196 36.0583C44.9678 35.7125 44.9859 35.3972 45.074 35.1124C45.162 34.8275 45.3035 34.5765 45.4983 34.3593C45.6859 34.1402 45.9067 33.9573 46.1607 33.8106C46.5302 33.5973 46.8868 33.4683 47.2306 33.4238C47.5718 33.3747 47.8967 33.3934 48.2053 33.48C48.5186 33.5639 48.8113 33.7029 49.0834 33.8968C49.3555 34.0908 49.6072 34.3242 49.8386 34.597C50.0674 34.8652 50.2724 35.1564 50.4538 35.4704L50.5698 35.6714C50.8524 36.161 51.0368 36.6242 51.1227 37.0611C51.2133 37.4953 51.2257 37.9008 51.1599 38.2775C51.096 38.6469 50.9742 38.9851 50.7943 39.2922C50.6144 39.5993 50.3966 39.8728 50.141 40.1128C49.8854 40.3527 49.6121 40.5567 49.3212 40.7247L49.1757 40.8087C48.7969 41.0274 48.4146 41.1865 48.0287 41.2861C47.6428 41.3858 47.264 41.4443 46.8923 41.4619C46.516 41.4821 46.1611 41.4807 45.8276 41.4577L45.8404 40.7759C46.2058 40.8113 46.5643 40.8137 46.9161 40.783C47.2633 40.755 47.6001 40.693 47.9264 40.5969C48.2482 40.5036 48.5522 40.3742 48.8386 40.2089L48.9702 40.1329C49.3166 39.9329 49.6152 39.6927 49.866 39.4124C50.1188 39.1249 50.3026 38.8032 50.4174 38.4475C50.5369 38.0891 50.5659 37.6966 50.5045 37.2702C50.443 36.8438 50.2723 36.3881 49.9923 35.9032L49.9443 35.82C49.7176 35.4274 49.4734 35.1004 49.2116 34.8389C48.9471 34.5729 48.6691 34.3793 48.3775 34.2582C48.0878 34.1298 47.7849 34.0799 47.4689 34.1084C47.1547 34.1297 46.8337 34.235 46.5058 34.4243C46.1594 34.6243 45.9166 34.8599 45.7776 35.1311C45.6386 35.4023 45.5893 35.6955 45.6297 36.0109C45.6675 36.3216 45.7783 36.6364 45.9623 36.9551L46.4583 37.8142C46.5943 38.0497 46.7242 38.2426 46.8479 38.3929C46.969 38.5386 47.0951 38.6505 47.2265 38.7286C47.3452 38.7956 47.4631 38.8291 47.5802 38.8292C47.69 38.8274 47.8119 38.7879 47.9458 38.7105C48.1583 38.5879 48.2693 38.4068 48.2788 38.1672C48.2837 37.9304 48.2088 37.678 48.0541 37.4101C47.9368 37.2069 47.8068 37.051 47.6641 36.9425C47.5141 36.8321 47.3402 36.7816 47.1424 36.791C46.9374 36.7986 46.6986 36.881 46.4261 37.0383L44.5624 38.1143L45.2504 39.306L46.4975 38.586L46.9244 39.0693L45.0676 40.1413L42.9756 36.5179L43.4744 36.2299L44.2224 37.5254L45.996 36.5014C46.3055 36.3228 46.564 36.2105 46.7715 36.1646C46.9764 36.114 47.1668 36.1026 47.3429 36.1303C47.6011 36.1721 47.8325 36.2849 48.037 36.4685C48.2343 36.6502 48.4156 36.8843 48.581 37.1706Z" fill="#FFB743"/>
<path d="M35.8847 60.1241C35.4436 59.2909 35.3044 58.5092 35.467 57.779C35.6296 57.0488 36.0779 56.4893 36.8121 56.1007C37.5462 55.7121 38.2549 55.6643 38.9381 55.9574C39.6086 56.2466 40.1644 56.8078 40.6054 57.6409L40.7131 57.6948L41.7742 59.6993L45.1645 57.9046L45.6885 58.8945L37.5221 63.2174L35.8847 60.1241ZM39.7393 58.0994C39.4293 57.5138 39.0804 57.144 38.6927 56.9902C38.2924 56.8325 37.8489 56.8824 37.3623 57.14C36.8756 57.3977 36.589 57.7342 36.5027 58.1495C36.4037 58.561 36.5092 59.0595 36.8192 59.6452L37.9261 61.7363L40.8462 60.1905L39.7393 58.0994ZM39.636 57.4254L42.3284 52.547L42.9507 53.7224L40.6192 57.9663L39.636 57.4254ZM35.5217 49.3539C35.0597 49.5985 34.7705 49.91 34.6541 50.2884C34.5293 50.6713 34.5871 51.0895 34.8272 51.5432C35.0543 51.9721 35.3413 52.2849 35.6882 52.4814C36.0269 52.6823 36.4396 52.7437 36.9262 52.6656L36.857 53.7319C36.3078 53.8114 35.775 53.7027 35.2588 53.4057C34.7342 53.1131 34.2973 52.6369 33.948 51.977C33.7122 51.5315 33.5766 51.0858 33.5412 50.6399C33.4976 50.1984 33.5779 49.7915 33.7822 49.4194C33.9738 49.0433 34.313 48.7265 34.7997 48.4689L37.794 46.8838C38.091 46.7266 38.1565 46.4913 37.9906 46.1778C37.9076 46.0211 37.8062 45.8794 37.6864 45.7527L38.4921 45.3896C38.6619 45.5109 38.8167 45.7035 38.9564 45.9675C39.0831 46.2067 39.1512 46.4452 39.1609 46.683C39.1706 46.9207 39.1131 47.1413 38.9884 47.3446C38.8554 47.5522 38.6487 47.7303 38.3683 47.8788L38.2445 47.9443L38.1506 47.6771C38.5248 47.6058 38.8782 47.6352 39.2111 47.7653C39.5357 47.8997 39.8261 48.0892 40.0823 48.3337C40.3302 48.5826 40.5306 48.8515 40.6834 49.1402C40.8755 49.5031 40.9927 49.8741 41.0349 50.253C41.0771 50.632 41.0247 50.9818 40.8777 51.3026C40.718 51.6194 40.4526 51.8761 40.0814 52.0726C39.6194 52.3171 39.1592 52.3653 38.7007 52.2173C38.2295 52.0654 37.7941 51.7415 37.3943 51.2456L35.6148 49.0512L36.4315 48.6189L37.8943 50.3948C38.1908 50.7554 38.4657 50.9953 38.7189 51.1147C38.9722 51.2341 39.2308 51.2239 39.4948 51.0841C39.7505 50.9488 39.9085 50.7384 39.9686 50.4531C40.0162 50.164 39.9417 49.8338 39.7452 49.4626C39.6186 49.2233 39.4697 49.0118 39.2984 48.8279C39.1145 48.6401 38.9148 48.4923 38.6994 48.3846C38.4757 48.2812 38.2428 48.2303 38.0007 48.2317C37.7503 48.2375 37.4932 48.3103 37.2292 48.45L35.5217 49.3539ZM37.7209 43.843L28.6884 48.6244L28.1644 47.6346L31.9383 45.6368C31.4535 45.6189 31.0348 45.4762 30.6821 45.2088C30.3293 44.9415 30.0416 44.5974 29.8189 44.1767C29.5831 43.7313 29.4558 43.2813 29.4368 42.8266C29.4097 42.3763 29.5126 41.9523 29.7455 41.5544C29.9741 41.1483 30.3564 40.8033 30.8926 40.5195L34.8521 38.4235L35.3761 39.4134L31.763 41.3259C31.0784 41.6884 30.6827 42.0879 30.5759 42.5246C30.4565 42.9574 30.5104 43.3883 30.7374 43.8172C30.8946 44.1142 31.1219 44.374 31.4194 44.5968C31.7168 44.8195 32.0788 44.9447 32.5053 44.9724C32.9192 44.9962 33.3901 44.8683 33.918 44.5889L37.1969 42.8531L37.7209 43.843ZM32.6038 33.8771C32.8134 34.2731 32.9378 34.6877 32.9771 35.121C33.012 35.546 32.9235 35.9573 32.7114 36.3546C32.4867 36.7481 32.1063 37.0868 31.5701 37.3706L27.5117 39.519L26.9877 38.5291L30.7863 36.5183C31.4132 36.1865 31.7742 35.8211 31.8694 35.4223C31.9562 35.0278 31.8687 34.5831 31.6067 34.0881C31.4844 33.8572 31.3272 33.65 31.1351 33.4666C30.9347 33.2875 30.7062 33.155 30.4495 33.0691C30.1802 32.9794 29.8874 32.9548 29.571 32.9956C29.2503 33.0281 28.9084 33.1404 28.5455 33.3325L25.1799 35.1141L24.6559 34.1242L30.8426 30.8493L31.3011 31.7154L30.3935 32.2751C30.8782 32.2931 31.3054 32.4418 31.6752 32.7213C32.0323 32.9969 32.3418 33.3822 32.6038 33.8771Z" fill="#E2E6FE"/>
<path d="M52 1C56.0657 27.3495 61.7197 41.2716 84 63" stroke="#A394F2" stroke-width="0.4"/>
<path d="M52 1C66.1049 23.0714 75.3282 35.1774 93 53" stroke="#A394F2" stroke-width="0.4"/>
</svg>
