<svg width="103" height="96" viewBox="0 0 103 96" fill="none" xmlns="http://www.w3.org/2000/svg">
<path d="M0.288211 27.6434C0.125788 25.0266 2.01897 22.7367 4.60971 22.334C22.9832 19.4781 33.2318 15.1768 47.944 3.01482C49.9665 1.34299 52.9379 1.4379 54.7933 3.29332L98.6227 47.1227C100.704 49.2038 100.541 52.634 98.2449 54.4754C71.3856 76.0188 50.2593 85.1851 10.1975 94.2399C7.21102 94.9149 4.32911 92.7467 4.13943 89.6908L0.288211 27.6434Z" fill="#7D67EE"/>
<path d="M52.5528 37.4003C52.8484 37.2778 53.1339 37.2144 53.4092 37.2101C53.6845 37.2057 53.9289 37.2661 54.1424 37.3913C54.3558 37.5165 54.5156 37.7072 54.6218 37.9634C54.732 38.2295 54.7579 38.4872 54.6995 38.7365C54.6383 38.9928 54.4763 39.2359 54.2137 39.4659C53.9531 39.7009 53.5715 39.9224 53.0689 40.1306L49.292 41.6949L49.0777 41.1775L52.9063 39.5918C53.1576 39.4877 53.3658 39.3841 53.531 39.2811C53.6912 39.1801 53.8186 39.0696 53.9132 38.9496C53.9951 38.8406 54.0437 38.7281 54.0592 38.6121C54.0717 38.5029 54.0484 38.3769 53.9892 38.2341C53.8953 38.0074 53.7303 37.8737 53.494 37.833C53.2599 37.7972 52.9999 37.8385 52.7141 37.9569C52.4973 38.0467 52.3258 38.1553 52.1996 38.2826C52.0704 38.4169 51.9977 38.5827 51.9813 38.78C51.962 38.9842 52.0125 39.2317 52.1329 39.5224L52.9564 41.5107L54.2277 40.9841L53.6767 39.6537L54.2116 39.2936L55.032 41.2744L51.1665 42.8755L50.9461 42.3433L52.3282 41.7709L51.5445 39.8787C51.4077 39.5486 51.3302 39.2777 51.3117 39.0659C51.2884 38.8563 51.3019 38.6659 51.3523 38.495C51.4275 38.2444 51.5695 38.0298 51.7783 37.8509C51.9842 37.6791 52.2424 37.5288 52.5528 37.4003ZM49.8474 38.6247L50.6893 40.6573L50.0514 40.8522L49.234 38.8788L49.8474 38.6247ZM46.1433 40.055C46.439 39.9325 46.7244 39.8692 46.9997 39.8648C47.275 39.8605 47.5194 39.9209 47.7329 40.046C47.9464 40.1712 48.1062 40.3619 48.2123 40.6181C48.3225 40.8842 48.3484 41.1419 48.2901 41.3912C48.2288 41.6475 48.0669 41.8907 47.8042 42.1207C47.5436 42.3556 47.162 42.5772 46.6594 42.7853L45.329 43.3364C45.0728 43.4425 44.846 43.522 44.6485 43.5749C44.4511 43.6279 44.2721 43.6558 44.1117 43.6587C43.9484 43.6686 43.7917 43.6527 43.6417 43.611C43.4727 43.5655 43.3176 43.4767 43.1764 43.3447C43.0372 43.2177 42.9247 43.0507 42.839 42.8437C42.6839 42.4692 42.6768 42.1316 42.8177 41.8308C42.9537 41.532 43.2262 41.2979 43.6352 41.1285C43.7485 41.0815 43.8748 41.0379 44.014 40.9976C44.1531 40.9573 44.2865 40.9309 44.4141 40.9184L44.4788 41.4718C44.3967 41.4827 44.3058 41.5002 44.2061 41.5241C44.1014 41.5502 44.0023 41.5826 43.9086 41.6214C43.6771 41.7173 43.5256 41.8464 43.4543 42.0087C43.378 42.1731 43.3889 42.3735 43.4869 42.61C43.5563 42.7776 43.6483 42.8953 43.763 42.9632C43.8798 43.0361 44.01 43.0716 44.1536 43.0699C44.2923 43.0702 44.441 43.0461 44.5999 42.9976C44.7559 42.9561 44.9102 42.9037 45.063 42.8404L46.4969 42.2465C46.7482 42.1424 46.9564 42.0389 47.1215 41.9358C47.2817 41.8348 47.4091 41.7243 47.5038 41.6043C47.5856 41.4954 47.6343 41.3829 47.6497 41.2668C47.6622 41.1577 47.6389 41.0317 47.5797 40.8888C47.4859 40.6621 47.3208 40.5285 47.0846 40.4878C46.8504 40.452 46.5904 40.4933 46.3046 40.6117C46.0878 40.7015 45.9163 40.81 45.7901 40.9373C45.661 41.0716 45.5882 41.2374 45.5718 41.4347C45.5505 41.6341 45.601 41.8816 45.7235 42.1772L46.547 44.1654L47.8182 43.6389L47.2672 42.3085L47.8021 41.9484L48.6226 43.9292L44.757 45.5302L44.5366 44.9981L45.9187 44.4256L45.135 42.5335C44.9983 42.2034 44.9207 41.9324 44.9023 41.7207C44.8789 41.511 44.8925 41.3207 44.9429 41.1497C45.0181 40.8992 45.1601 40.6845 45.3688 40.5057C45.5747 40.3338 45.8329 40.1836 46.1433 40.055ZM46.9918 45.6783C47.1347 45.6192 47.2713 45.6145 47.4017 45.6644C47.5341 45.7193 47.6309 45.8206 47.6921 45.9684C47.7513 46.1113 47.7534 46.249 47.6986 46.3814C47.6438 46.5138 47.5449 46.6096 47.402 46.6688C47.2591 46.7279 47.1215 46.7301 46.9891 46.6753C46.8567 46.6204 46.7609 46.5216 46.7017 46.3787C46.6405 46.2308 46.6373 46.0907 46.6921 45.9583C46.749 45.8309 46.8489 45.7375 46.9918 45.6783ZM39.6537 41.0111L40.2372 41.2284L39.371 43.1718L40.7731 46.5569L42.1996 45.9661L40.724 42.4036L41.3596 42.1403L43.0556 46.2349L39.1014 47.8728L38.881 47.3406L40.1374 46.8202L38.6619 43.2577L39.6537 41.0111ZM35.6362 44.407C35.8974 44.2988 36.1629 44.2639 36.4327 44.3022C36.7046 44.3454 36.9618 44.4785 37.2042 44.7014C37.4417 44.9263 37.6523 45.2605 37.8359 45.7039C38.038 46.1917 38.1065 46.6569 38.0416 47.0994C37.9738 47.5489 37.785 47.9504 37.4754 48.3038C37.1677 48.6621 36.7528 48.9494 36.2305 49.1658C35.994 49.2637 35.7616 49.3369 35.5334 49.3852C35.3023 49.4405 35.0719 49.4696 34.8421 49.4724C34.6144 49.4801 34.379 49.4622 34.1358 49.4186L33.6672 49.249C33.3101 49.1256 32.9834 48.929 32.6869 48.6592C32.3925 48.3944 32.1616 48.06 31.9943 47.6559C31.8575 47.3258 31.7925 47.0294 31.7992 46.7669C31.803 46.5113 31.8726 46.2891 32.008 46.1002C32.1405 45.9184 32.3299 45.7764 32.5763 45.6744C32.8621 45.556 33.1227 45.5231 33.358 45.5757C33.5885 45.6303 33.793 45.7477 33.9715 45.9278C34.1471 46.1148 34.293 46.3488 34.4094 46.6296C34.5175 46.8908 34.5925 47.1484 34.6342 47.4024C34.671 47.6585 34.6756 47.9135 34.648 48.1674C34.6203 48.4213 34.5605 48.674 34.4685 48.9258L34.2245 49.3819C34.1134 49.5318 33.9873 49.6735 33.8463 49.8069C33.7053 49.9403 33.5237 50.0733 33.3015 50.2058C33.0764 50.3452 32.784 50.4894 32.4243 50.6384L30.2143 51.5537L29.9939 51.0215L31.2504 50.5011L29.7748 46.9386L30.4105 46.6753L31.886 50.2378L32.3739 50.0358C32.5365 49.9684 32.6862 49.8978 32.8229 49.8238C32.9617 49.7548 33.0891 49.6789 33.2049 49.5963C33.3228 49.5186 33.4307 49.4306 33.5286 49.3324C33.6264 49.2341 33.7157 49.1221 33.7964 48.9963C33.9161 48.8255 33.9904 48.6216 34.0192 48.3845C34.05 48.1524 34.046 47.9058 34.0072 47.6448C33.9655 47.3907 33.8957 47.1455 33.7977 46.9089C33.6569 46.569 33.5021 46.3416 33.3333 46.2267C33.1645 46.1119 32.989 46.0923 32.8066 46.1678C32.6539 46.231 32.555 46.3268 32.51 46.4552C32.4601 46.5855 32.4475 46.7293 32.4722 46.8865C32.4969 47.0436 32.5399 47.1961 32.6011 47.344C32.7623 47.7332 32.9836 48.0514 33.2649 48.2986C33.5433 48.5527 33.8714 48.7315 34.249 48.8348C34.5479 48.9015 34.8487 48.9097 35.1511 48.8595C35.4536 48.8093 35.7625 48.7188 36.0778 48.5882C36.4425 48.4372 36.7327 48.239 36.9486 47.9938C37.1645 47.7485 37.3058 47.4764 37.3725 47.1774C37.4343 46.8805 37.4275 46.5716 37.3523 46.2506C37.3266 46.1746 37.302 46.1012 37.2783 46.0301C37.2567 45.964 37.2378 45.9113 37.2214 45.8719C37.0888 45.5516 36.9457 45.3107 36.7922 45.1491C36.6337 44.9896 36.4731 44.8945 36.3103 44.8638C36.1426 44.8351 35.9774 44.8545 35.8148 44.9218C35.6818 44.9769 35.5797 45.051 35.5085 45.1439C35.4344 45.2439 35.3952 45.3583 35.3908 45.4871C35.3815 45.6179 35.4096 45.7622 35.4749 45.9199C35.5769 46.1662 35.7185 46.3269 35.8997 46.402C36.0829 46.482 36.2755 46.4801 36.4775 46.3964C36.6746 46.3148 36.838 46.1865 36.9676 46.0116C37.0972 45.8367 37.2008 45.6408 37.2784 45.424L37.5852 45.8511C37.5088 46.0848 37.3846 46.3007 37.2127 46.4989C37.0379 46.7041 36.8298 46.8567 36.5884 46.9567C36.2336 47.1036 35.9029 47.1136 35.5963 46.9866C35.2848 46.8616 35.0525 46.6144 34.8994 46.2448C34.7872 45.9738 34.7419 45.7183 34.7638 45.4784C34.7856 45.2384 34.8712 45.0269 35.0205 44.8438C35.1649 44.6628 35.3701 44.5172 35.6362 44.407ZM35.0212 50.6365C35.1641 50.5773 35.3007 50.5726 35.4311 50.6226C35.5635 50.6774 35.6603 50.7787 35.7215 50.9266C35.7807 51.0694 35.7829 51.2071 35.728 51.3395C35.6732 51.4719 35.5743 51.5677 35.4314 51.6269C35.2885 51.6861 35.1509 51.6882 35.0185 51.6334C34.8861 51.5785 34.7903 51.4797 34.7311 51.3368C34.6699 51.189 34.6667 51.0488 34.7215 50.9164C34.7784 50.789 34.8783 50.6956 35.0212 50.6365Z" fill="#FFB743"/>
<path d="M62.07 58.8514L61.5742 48.9831L62.7414 48.4726L69.6635 55.5303L68.5604 56.0128L63.8474 51.1062L62.5737 49.6615L62.7643 51.5646L63.1731 58.3689L62.07 58.8514ZM54.6616 51.8536C55.2688 51.588 55.8697 51.4831 56.4645 51.5388C57.0508 51.5981 57.5849 51.8179 58.0669 52.1979C58.5527 52.5865 58.947 53.1271 59.2499 53.8198C59.5529 54.5124 59.6803 55.1647 59.6321 55.7766C59.5877 56.3971 59.3925 56.9408 59.0467 57.4079C58.7009 57.8749 58.2329 58.2375 57.6429 58.4955C57.0443 58.7573 56.4794 58.8516 55.9482 58.7783C55.4084 58.7087 54.9301 58.5003 54.5133 58.1528C54.1003 57.8139 53.7741 57.3709 53.5347 56.8236C53.4711 56.6782 53.4174 56.5438 53.3736 56.4203C53.3298 56.2969 53.2959 56.1844 53.2719 56.0828L58.4539 53.8165L58.8522 54.7272L54.1191 56.7972L54.6001 56.4646C54.8694 57.0803 55.248 57.4801 55.7359 57.664C56.2152 57.8516 56.7286 57.8258 57.2758 57.5864C57.6949 57.4032 58.0153 57.1459 58.2371 56.8145C58.4541 56.4955 58.5677 56.1148 58.5779 55.6723C58.5833 55.242 58.4738 54.7704 58.2494 54.2573C58.0288 53.7528 57.7525 53.3541 57.4207 53.0612C57.0889 52.7683 56.726 52.5908 56.3321 52.5288C55.9335 52.479 55.5161 52.5495 55.08 52.7402C54.6096 52.9459 54.2684 53.2021 54.0562 53.5089C53.8354 53.8194 53.7026 54.1678 53.6576 54.5542L52.642 54.433C52.6773 54.0712 52.7765 53.7273 52.9395 53.4013C53.094 53.0791 53.3161 52.7833 53.6058 52.514C53.8907 52.257 54.2426 52.0368 54.6616 51.8536ZM49.9955 54.0471L52.8005 60.4606L51.9026 60.8533L51.1845 59.4559L51.4129 59.5241C51.4257 59.926 51.3615 60.28 51.2204 60.5862C51.083 60.901 50.8853 61.1708 50.6271 61.3958C50.3604 61.6245 50.0646 61.8099 49.7396 61.952C49.2778 62.154 48.8196 62.2475 48.3648 62.2324C47.9137 62.226 47.4985 62.0918 47.1191 61.8299C46.7311 61.5717 46.4156 61.1647 46.1725 60.6088L44.3773 56.5042L45.4035 56.0554L47.0416 59.8009C47.352 60.5107 47.7209 60.935 48.1485 61.074C48.5712 61.2253 49.0049 61.2037 49.4495 61.0093C49.7574 60.8746 50.0334 60.6673 50.2777 60.3873C50.522 60.1073 50.6757 59.7599 50.7388 59.3452C50.7933 58.9343 50.7009 58.4551 50.4616 57.9079L48.9694 54.4959L49.9955 54.0471ZM39.6761 58.4075C40.0866 58.228 40.5093 58.1348 40.9443 58.1279C41.3708 58.1248 41.7743 58.2437 42.1547 58.4848C42.5304 58.7382 42.8398 59.1428 43.0829 59.6986L44.9229 63.9058L43.8968 64.3546L42.1745 60.4167C41.8903 59.7669 41.5529 59.3796 41.1622 59.255C40.7753 59.139 40.3253 59.1932 39.8122 59.4176C39.5728 59.5223 39.3545 59.6637 39.1573 59.8416C38.9638 60.0281 38.8146 60.2461 38.7099 60.4957C38.6003 60.7575 38.554 61.0477 38.5711 61.3662C38.5796 61.6885 38.6661 62.0378 38.8307 62.414L40.3566 65.9029L39.3304 66.3517L36.5255 59.9383L37.4234 59.5456L37.9138 60.4924C37.9679 60.0103 38.148 59.5954 38.4543 59.2475C38.7558 58.9119 39.163 58.6319 39.6761 58.4075ZM31.7723 61.8643C32.3966 61.5913 33.0317 61.4714 33.6779 61.5046C34.3154 61.5415 34.8819 61.742 35.3773 62.106L34.7799 63.116C34.4197 62.8049 34.0115 62.6168 33.5551 62.5515C33.0901 62.49 32.6011 62.5714 32.0881 62.7958C31.6348 62.994 31.3174 63.2348 31.1356 63.518C30.9576 63.8097 30.9303 64.0967 31.0537 64.3789C31.1323 64.5585 31.2632 64.6948 31.4465 64.7878C31.625 64.8931 31.8917 64.9089 32.2465 64.8352L33.926 64.4827C34.6063 64.3379 35.1488 64.3554 35.5533 64.535C35.9493 64.7184 36.2445 65.0324 36.439 65.477C36.5923 65.8276 36.6343 66.1913 36.5647 66.5681C36.4867 66.9486 36.3012 67.3047 36.0083 67.6366C35.7105 67.9807 35.3094 68.2631 34.8049 68.4838C34.1721 68.7605 33.5834 68.8703 33.0389 68.813C32.4943 68.7558 32.016 68.5473 31.604 68.1876L32.2166 67.2473C32.5265 67.56 32.8813 67.7308 33.2811 67.7597C33.6846 67.7972 34.0616 67.7392 34.4122 67.5859C34.7201 67.4513 34.9664 67.2926 35.1514 67.1098C35.3278 66.9308 35.4422 66.7381 35.4945 66.5319C35.5421 66.3379 35.5248 66.1468 35.4425 65.9587C35.3602 65.7706 35.2194 65.6233 35.0201 65.5169C34.8245 65.4191 34.5365 65.4127 34.1559 65.4976L32.4067 65.8653C31.7558 66.0074 31.2507 65.994 30.8916 65.8251C30.5325 65.6561 30.2669 65.375 30.0949 64.9816C29.9191 64.5797 29.8708 64.1781 29.95 63.7768C30.0328 63.384 30.2312 63.0222 30.5449 62.6914C30.8587 62.3606 31.2678 62.0849 31.7723 61.8643Z" fill="#E2E6FE"/>
<path d="M0.5 25.5C40.1123 42.8272 60.6477 43.6427 81.0244 29.5006" stroke="#A394F2" stroke-width="0.4"/>
<path d="M1.00065 39.5C27.8479 37.3056 41.7304 30.8374 63.9246 12.8151" stroke="#A394F2" stroke-width="0.4"/>
<path d="M2 49C37.0085 68.4023 72.6907 69.9397 98.9547 53.8967" stroke="#BEB3F5" stroke-width="0.4"/>
</svg>
