<svg width="164" height="56" viewBox="0 0 164 56" fill="none" xmlns="http://www.w3.org/2000/svg">
<path d="M53.632 22.94C54.3893 22.94 55.04 23.0733 55.584 23.34C56.1387 23.6067 56.5707 23.9853 56.88 24.476C57.1893 24.9667 57.344 25.5587 57.344 26.252C57.344 26.9347 57.1893 27.5267 56.88 28.028C56.5707 28.5187 56.1387 28.8973 55.584 29.164C55.04 29.4307 54.3893 29.564 53.632 29.564H51.28V33.5H49.568V22.94H53.632ZM53.36 28.092C54.1173 28.092 54.672 27.9373 55.024 27.628C55.3867 27.308 55.568 26.8493 55.568 26.252C55.568 25.644 55.3867 25.1853 55.024 24.876C54.672 24.556 54.1173 24.396 53.36 24.396H51.28V28.092H53.36ZM63.9833 28.364C63.9833 27.8307 63.8339 27.42 63.5353 27.132C63.2473 26.8333 62.8473 26.684 62.3353 26.684C61.8553 26.684 61.4446 26.796 61.1033 27.02C60.7619 27.244 60.5113 27.6067 60.3513 28.108L58.9113 27.5C59.1139 26.8493 59.5086 26.3267 60.0953 25.932C60.6926 25.5373 61.4606 25.34 62.3993 25.34C63.0393 25.34 63.6046 25.4467 64.0953 25.66C64.5859 25.8627 64.9699 26.172 65.2473 26.588C65.5353 27.004 65.6793 27.5373 65.6793 28.188V31.756C65.6793 32.1507 65.8766 32.348 66.2713 32.348C66.4633 32.348 66.6499 32.3213 66.8313 32.268L66.7353 33.452C66.4899 33.5693 66.1806 33.628 65.8073 33.628C65.4659 33.628 65.1566 33.5693 64.8793 33.452C64.6126 33.324 64.3993 33.1373 64.2393 32.892C64.0899 32.636 64.0153 32.3213 64.0153 31.948V31.836L64.3673 31.82C64.2713 32.236 64.0739 32.5827 63.7753 32.86C63.4766 33.1267 63.1299 33.3293 62.7352 33.468C62.3406 33.596 61.9406 33.66 61.5353 33.66C61.0339 33.66 60.5806 33.58 60.1753 33.42C59.7806 33.26 59.4659 33.02 59.2313 32.7C59.0073 32.3693 58.8953 31.964 58.8953 31.484C58.8953 30.8867 59.0873 30.396 59.4713 30.012C59.8659 29.628 60.4206 29.3667 61.1353 29.228L64.2393 28.62L64.2233 29.82L61.9673 30.284C61.5193 30.3693 61.1833 30.492 60.9593 30.652C60.7353 30.812 60.6233 31.0467 60.6233 31.356C60.6233 31.6547 60.7353 31.8947 60.9593 32.076C61.1939 32.2467 61.5033 32.332 61.8873 32.332C62.1539 32.332 62.4099 32.3 62.6553 32.236C62.9113 32.172 63.1406 32.0707 63.3433 31.932C63.5459 31.7827 63.7006 31.596 63.8073 31.372C63.9246 31.1373 63.9833 30.86 63.9833 30.54V28.364ZM75.0239 25.5L71.5199 34.444C71.2852 35.0627 71.0292 35.5533 70.7519 35.916C70.4852 36.2787 70.1759 36.54 69.8239 36.7C69.4719 36.86 69.0612 36.94 68.5919 36.94C68.2079 36.94 67.8505 36.8867 67.5199 36.78C67.1999 36.684 66.9172 36.5507 66.6719 36.38L67.0879 35.052C67.2905 35.2227 67.5039 35.3507 67.7279 35.436C67.9625 35.5213 68.2132 35.564 68.4799 35.564C68.7679 35.564 69.0239 35.484 69.2479 35.324C69.4825 35.1747 69.6905 34.8707 69.8719 34.412L70.2239 33.548L69.3759 31.564L66.8799 25.5H68.7999L70.5759 30.524L71.0399 32.028L71.5679 30.38L73.2479 25.5H75.0239ZM76.4843 33.5V25.5H78.0043L78.0843 26.844C78.3616 26.332 78.7296 25.9533 79.1883 25.708C79.6576 25.4627 80.1536 25.34 80.6763 25.34C81.2523 25.34 81.7803 25.4733 82.2603 25.74C82.7509 25.996 83.1189 26.3853 83.3643 26.908C83.5349 26.556 83.7696 26.2627 84.0683 26.028C84.3669 25.7933 84.6976 25.6227 85.0603 25.516C85.4229 25.3987 85.7803 25.34 86.1323 25.34C86.6443 25.34 87.1243 25.4467 87.5723 25.66C88.0203 25.8733 88.3829 26.1987 88.6603 26.636C88.9376 27.0733 89.0763 27.6333 89.0763 28.316V33.5H87.3643V28.588C87.3643 27.9373 87.2096 27.468 86.9003 27.18C86.5909 26.892 86.1963 26.748 85.7163 26.748C85.3429 26.748 84.9963 26.8387 84.6763 27.02C84.3669 27.2013 84.1163 27.4733 83.9243 27.836C83.7323 28.188 83.6363 28.6253 83.6363 29.148V33.5H81.9243V28.588C81.9243 27.9373 81.7696 27.468 81.4603 27.18C81.1509 26.892 80.7563 26.748 80.2763 26.748C79.9563 26.748 79.6363 26.8333 79.3163 27.004C78.9963 27.1747 78.7296 27.4413 78.5163 27.804C78.3029 28.1667 78.1963 28.6467 78.1963 29.244V33.5H76.4843ZM95.1918 33.66C94.3918 33.66 93.6878 33.4947 93.0798 33.164C92.4718 32.8333 91.9971 32.3587 91.6558 31.74C91.3251 31.1107 91.1598 30.364 91.1598 29.5C91.1598 28.636 91.3251 27.8947 91.6558 27.276C91.9971 26.6467 92.4664 26.1667 93.0638 25.836C93.6611 25.5053 94.3384 25.34 95.0958 25.34C95.8744 25.34 96.5358 25.5 97.0798 25.82C97.6238 26.14 98.0398 26.5773 98.3278 27.132C98.6158 27.6867 98.7598 28.316 98.7598 29.02C98.7598 29.212 98.7544 29.3933 98.7438 29.564C98.7331 29.7347 98.7171 29.884 98.6958 30.012H92.2638V28.7H97.9438L97.0958 28.956C97.0958 28.2307 96.9144 27.676 96.5518 27.292C96.1891 26.8973 95.6931 26.7 95.0638 26.7C94.6051 26.7 94.2051 26.8067 93.8638 27.02C93.5224 27.2333 93.2611 27.5533 93.0798 27.98C92.8984 28.396 92.8078 28.908 92.8078 29.516C92.8078 30.1133 92.9038 30.62 93.0958 31.036C93.2878 31.452 93.5598 31.7667 93.9118 31.98C94.2638 32.1933 94.6798 32.3 95.1598 32.3C95.6931 32.3 96.1251 32.1987 96.4558 31.996C96.7864 31.7933 97.0478 31.5107 97.2398 31.148L98.5998 31.788C98.4078 32.172 98.1464 32.508 97.8158 32.796C97.4958 33.0733 97.1118 33.2867 96.6638 33.436C96.2158 33.5853 95.7251 33.66 95.1918 33.66ZM100.922 33.5V25.5H102.442L102.554 27.58L102.33 27.356C102.479 26.8973 102.692 26.5187 102.97 26.22C103.258 25.9107 103.594 25.6867 103.978 25.548C104.372 25.4093 104.788 25.34 105.226 25.34C105.791 25.34 106.298 25.452 106.746 25.676C107.204 25.8893 107.567 26.2147 107.834 26.652C108.1 27.0893 108.234 27.644 108.234 28.316V33.5H106.522V28.844C106.522 28.0547 106.356 27.5107 106.026 27.212C105.706 26.9027 105.3 26.748 104.81 26.748C104.458 26.748 104.116 26.8333 103.786 27.004C103.455 27.164 103.178 27.4253 102.954 27.788C102.74 28.1507 102.634 28.636 102.634 29.244V33.5H100.922ZM113.07 23.148V31.1C113.07 31.4947 113.172 31.7827 113.374 31.964C113.588 32.1453 113.87 32.236 114.222 32.236C114.51 32.236 114.761 32.1933 114.974 32.108C115.188 32.012 115.385 31.884 115.566 31.724L115.95 32.972C115.705 33.1853 115.401 33.356 115.038 33.484C114.686 33.6013 114.292 33.66 113.854 33.66C113.396 33.66 112.974 33.5853 112.59 33.436C112.206 33.2867 111.908 33.0467 111.694 32.716C111.481 32.3747 111.369 31.932 111.358 31.388V23.628L113.07 23.148ZM115.822 25.5V26.844H109.822V25.5H115.822ZM124.671 22.94V33.5H122.959V22.94H124.671ZM127.5 33.5V25.5H129.02L129.132 27.58L128.908 27.356C129.057 26.8973 129.271 26.5187 129.548 26.22C129.836 25.9107 130.172 25.6867 130.556 25.548C130.951 25.4093 131.367 25.34 131.804 25.34C132.369 25.34 132.876 25.452 133.324 25.676C133.783 25.8893 134.145 26.2147 134.412 26.652C134.679 27.0893 134.812 27.644 134.812 28.316V33.5H133.1V28.844C133.1 28.0547 132.935 27.5107 132.604 27.212C132.284 26.9027 131.879 26.748 131.388 26.748C131.036 26.748 130.695 26.8333 130.364 27.004C130.033 27.164 129.756 27.4253 129.532 27.788C129.319 28.1507 129.212 28.636 129.212 29.244V33.5H127.5ZM140.704 21.788C141.035 21.788 141.334 21.8253 141.6 21.9C141.878 21.964 142.086 22.0547 142.224 22.172L141.904 23.404C141.787 23.3293 141.654 23.276 141.504 23.244C141.355 23.2013 141.184 23.18 140.992 23.18C140.555 23.18 140.208 23.2813 139.952 23.484C139.707 23.6867 139.584 24.0173 139.584 24.476V25.644L139.632 26.076V33.5H137.92V24.348C137.92 23.9427 137.979 23.58 138.096 23.26C138.224 22.94 138.411 22.6733 138.656 22.46C138.902 22.236 139.195 22.0707 139.536 21.964C139.888 21.8467 140.278 21.788 140.704 21.788ZM142.176 25.5V26.844H136.416V25.5H142.176ZM147.019 25.34C147.797 25.34 148.485 25.5053 149.083 25.836C149.68 26.1667 150.144 26.6467 150.475 27.276C150.816 27.8947 150.987 28.636 150.987 29.5C150.987 30.364 150.816 31.1107 150.475 31.74C150.144 32.3587 149.68 32.8333 149.083 33.164C148.485 33.4947 147.797 33.66 147.019 33.66C146.24 33.66 145.552 33.4947 144.955 33.164C144.357 32.8333 143.888 32.3587 143.547 31.74C143.205 31.1107 143.035 30.364 143.035 29.5C143.035 28.636 143.205 27.8947 143.547 27.276C143.888 26.6467 144.357 26.1667 144.955 25.836C145.552 25.5053 146.24 25.34 147.019 25.34ZM147.019 26.684C146.539 26.684 146.128 26.796 145.787 27.02C145.456 27.2333 145.2 27.548 145.019 27.964C144.837 28.38 144.747 28.892 144.747 29.5C144.747 30.0973 144.837 30.6093 145.019 31.036C145.2 31.452 145.456 31.772 145.787 31.996C146.128 32.2093 146.539 32.316 147.019 32.316C147.499 32.316 147.904 32.2093 148.235 31.996C148.565 31.772 148.821 31.452 149.003 31.036C149.184 30.6093 149.275 30.0973 149.275 29.5C149.275 28.892 149.184 28.38 149.003 27.964C148.821 27.548 148.565 27.2333 148.235 27.02C147.904 26.796 147.499 26.684 147.019 26.684Z" fill="#666666"/>
<path d="M29.3074 35H20.6922C19.9782 35 19.2934 34.7165 18.7885 34.2117C18.2836 33.707 18 33.0224 18 32.3086V24.7728C18 24.63 18.0567 24.4931 18.1577 24.3922C18.2587 24.2912 18.3956 24.2345 18.5384 24.2345H29.3074C30.0214 24.2345 30.7062 24.5181 31.2111 25.0228C31.716 25.5275 31.9996 26.2121 31.9996 26.9259V32.3086C31.9996 33.0224 31.716 33.707 31.2111 34.2117C30.7062 34.7165 30.0214 35 29.3074 35ZM19.0769 25.311V32.3086C19.0769 32.7369 19.2471 33.1477 19.55 33.4505C19.8529 33.7533 20.2638 33.9235 20.6922 33.9235H29.3074C29.7358 33.9235 30.1466 33.7533 30.4496 33.4505C30.7525 33.1477 30.9227 32.7369 30.9227 32.3086V26.9259C30.9227 26.4976 30.7525 26.0869 30.4496 25.784C30.1466 25.4812 29.7358 25.311 29.3074 25.311H19.0769Z" fill="#666666"/>
<path d="M30.3843 25.3111C30.2415 25.3111 30.1046 25.2543 30.0036 25.1534C29.9026 25.0524 29.8459 24.9155 29.8459 24.7728V23.2925C29.8562 23.104 29.8238 22.9155 29.7511 22.7412C29.6783 22.5669 29.5672 22.4113 29.4259 22.2859C29.2989 22.1909 29.152 22.1259 28.9962 22.0961C28.8404 22.0662 28.6798 22.0723 28.5267 22.1137L19.4969 24.1645C19.3755 24.1919 19.2672 24.2604 19.1907 24.3586C19.1141 24.4567 19.0739 24.5784 19.077 24.7028C19.077 24.8456 19.0202 24.9825 18.9192 25.0834C18.8183 25.1844 18.6813 25.2411 18.5385 25.2411C18.3957 25.2411 18.2587 25.1844 18.1578 25.0834C18.0568 24.9825 18.0001 24.8456 18.0001 24.7028C17.9969 24.3348 18.1196 23.9768 18.3477 23.688C18.5759 23.3993 18.8958 23.1971 19.2546 23.1149L28.2898 21.0641C28.6005 20.9855 28.9251 20.9791 29.2387 21.0454C29.5523 21.1116 29.8466 21.2487 30.0989 21.4462C30.3658 21.6727 30.5784 21.9561 30.721 22.2757C30.8636 22.5952 30.9325 22.9427 30.9228 23.2925V24.7728C30.9228 24.9155 30.866 25.0524 30.7651 25.1534C30.6641 25.2543 30.5271 25.3111 30.3843 25.3111Z" fill="#666666"/>
<path d="M31.462 31.7703H27.6928C27.1216 31.7703 26.5738 31.5435 26.1699 31.1397C25.766 30.7359 25.5391 30.1883 25.5391 29.6172C25.5391 29.0462 25.766 28.4985 26.1699 28.0947C26.5738 27.691 27.1216 27.4641 27.6928 27.4641H31.462C31.6048 27.4641 31.7417 27.5208 31.8427 27.6218C31.9437 27.7227 32.0004 27.8596 32.0004 28.0024V31.232C32.0004 31.3748 31.9437 31.5117 31.8427 31.6127C31.7417 31.7136 31.6048 31.7703 31.462 31.7703ZM27.6928 28.5407C27.4072 28.5407 27.1333 28.6541 26.9314 28.856C26.7294 29.0579 26.616 29.3317 26.616 29.6172C26.616 29.9027 26.7294 30.1766 26.9314 30.3785C27.1333 30.5803 27.4072 30.6938 27.6928 30.6938H30.9235V28.5407H27.6928Z" fill="#666666"/>
</svg>
