<svg width="94" height="28" viewBox="0 0 94 28" fill="none" xmlns="http://www.w3.org/2000/svg">
<rect width="94" height="28" rx="14" fill="url(#paint0_linear_1789_915)"/>
<path d="M24.2736 10.08C24.8096 10.08 25.2736 10.18 25.6656 10.38C26.0656 10.572 26.3776 10.848 26.6016 11.208C26.8256 11.568 26.9376 11.996 26.9376 12.492C26.9376 12.988 26.8256 13.416 26.6016 13.776C26.3776 14.136 26.0656 14.416 25.6656 14.616C25.2736 14.808 24.8096 14.904 24.2736 14.904H22.4376V18H21.4776V10.08H24.2736ZM24.1296 14.004C24.7536 14.004 25.2096 13.876 25.4976 13.62C25.7856 13.356 25.9296 12.98 25.9296 12.492C25.9296 11.996 25.7856 11.62 25.4976 11.364C25.2096 11.108 24.7536 10.98 24.1296 10.98H22.4376V14.004H24.1296ZM30.7939 18.12C30.4099 18.12 30.0459 18.048 29.7019 17.904C29.3659 17.76 29.0899 17.528 28.8739 17.208C28.6659 16.88 28.5619 16.456 28.5619 15.936V12H29.5219V15.684C29.5219 16.292 29.6539 16.712 29.9179 16.944C30.1819 17.168 30.5539 17.28 31.0339 17.28C31.2579 17.28 31.4779 17.244 31.6939 17.172C31.9099 17.092 32.1019 16.972 32.2699 16.812C32.4459 16.644 32.5819 16.432 32.6779 16.176C32.7819 15.92 32.8339 15.616 32.8339 15.264V12H33.7939V18H32.9539L32.8939 17.088C32.6859 17.448 32.4019 17.712 32.0419 17.88C31.6899 18.04 31.2739 18.12 30.7939 18.12ZM36.0281 18V12H36.8081L36.9401 12.984C37.1081 12.616 37.3521 12.34 37.6721 12.156C38.0001 11.972 38.3961 11.88 38.8601 11.88C38.9641 11.88 39.0761 11.888 39.1961 11.904C39.3241 11.92 39.4321 11.952 39.5201 12L39.3521 12.876C39.2641 12.844 39.1681 12.82 39.0641 12.804C38.9601 12.788 38.8121 12.78 38.6201 12.78C38.3721 12.78 38.1201 12.852 37.8641 12.996C37.6161 13.14 37.4081 13.36 37.2401 13.656C37.0721 13.944 36.9881 14.312 36.9881 14.76V18H36.0281ZM43.223 11.88C43.639 11.88 44.003 11.944 44.315 12.072C44.635 12.2 44.911 12.384 45.143 12.624C45.375 12.864 45.563 13.148 45.707 13.476L44.795 13.908C44.667 13.524 44.471 13.232 44.207 13.032C43.951 12.824 43.615 12.72 43.199 12.72C42.799 12.72 42.455 12.812 42.167 12.996C41.879 13.172 41.659 13.432 41.507 13.776C41.355 14.112 41.279 14.52 41.279 15C41.279 15.472 41.355 15.88 41.507 16.224C41.659 16.568 41.879 16.832 42.167 17.016C42.455 17.192 42.799 17.28 43.199 17.28C43.511 17.28 43.779 17.232 44.003 17.136C44.235 17.04 44.423 16.9 44.567 16.716C44.719 16.532 44.823 16.308 44.879 16.044L45.767 16.356C45.631 16.724 45.443 17.04 45.203 17.304C44.971 17.568 44.687 17.772 44.351 17.916C44.023 18.052 43.647 18.12 43.223 18.12C42.663 18.12 42.163 17.996 41.723 17.748C41.283 17.5 40.939 17.144 40.691 16.68C40.443 16.208 40.319 15.648 40.319 15C40.319 14.352 40.443 13.796 40.691 13.332C40.939 12.86 41.283 12.5 41.723 12.252C42.163 12.004 42.663 11.88 43.223 11.88ZM47.4539 18V9.24H48.4139V12.9C48.6219 12.54 48.8979 12.28 49.2419 12.12C49.5859 11.96 49.9619 11.88 50.3699 11.88C50.8019 11.88 51.1939 11.964 51.5459 12.132C51.8979 12.292 52.1779 12.54 52.3859 12.876C52.6019 13.212 52.7099 13.64 52.7099 14.16V18H51.7499V14.496C51.7499 13.832 51.6059 13.372 51.3179 13.116C51.0379 12.852 50.6899 12.72 50.2739 12.72C49.9859 12.72 49.6979 12.788 49.4099 12.924C49.1219 13.06 48.8819 13.284 48.6899 13.596C48.5059 13.9 48.4139 14.308 48.4139 14.82V18H47.4539ZM58.3876 14.124C58.3876 13.676 58.2676 13.332 58.0276 13.092C57.7876 12.844 57.4476 12.72 57.0076 12.72C56.5916 12.72 56.2396 12.812 55.9516 12.996C55.6636 13.172 55.4516 13.46 55.3156 13.86L54.5356 13.38C54.6956 12.932 54.9916 12.572 55.4236 12.3C55.8556 12.02 56.3916 11.88 57.0316 11.88C57.4636 11.88 57.8556 11.956 58.2076 12.108C58.5596 12.252 58.8356 12.476 59.0356 12.78C59.2436 13.076 59.3476 13.46 59.3476 13.932V16.836C59.3476 17.124 59.4996 17.268 59.8036 17.268C59.9556 17.268 60.1036 17.248 60.2476 17.208L60.1996 17.964C60.0396 18.044 59.8316 18.084 59.5756 18.084C59.3436 18.084 59.1356 18.04 58.9516 17.952C58.7676 17.864 58.6236 17.732 58.5196 17.556C58.4156 17.372 58.3636 17.144 58.3636 16.872V16.752L58.6036 16.788C58.5076 17.1 58.3436 17.356 58.1116 17.556C57.8796 17.748 57.6196 17.892 57.3316 17.988C57.0436 18.076 56.7596 18.12 56.4796 18.12C56.1276 18.12 55.7996 18.06 55.4956 17.94C55.1916 17.82 54.9476 17.64 54.7636 17.4C54.5876 17.152 54.4996 16.848 54.4996 16.488C54.4996 16.04 54.6476 15.672 54.9436 15.384C55.2476 15.088 55.6676 14.888 56.2036 14.784L58.5796 14.316V15.108L56.6476 15.504C56.2556 15.584 55.9636 15.696 55.7716 15.84C55.5796 15.984 55.4836 16.184 55.4836 16.44C55.4836 16.688 55.5796 16.892 55.7716 17.052C55.9716 17.204 56.2516 17.28 56.6116 17.28C56.8436 17.28 57.0636 17.252 57.2716 17.196C57.4876 17.132 57.6796 17.04 57.8476 16.92C58.0156 16.792 58.1476 16.636 58.2436 16.452C58.3396 16.26 58.3876 16.036 58.3876 15.78V14.124ZM63.8405 18.12C63.2565 18.12 62.7165 17.996 62.2205 17.748C61.7325 17.5 61.3565 17.148 61.0925 16.692L61.9085 16.104C62.0845 16.472 62.3405 16.76 62.6765 16.968C63.0205 17.176 63.4325 17.28 63.9125 17.28C64.3365 17.28 64.6685 17.2 64.9085 17.04C65.1485 16.872 65.2685 16.656 65.2685 16.392C65.2685 16.224 65.2125 16.072 65.1005 15.936C64.9965 15.792 64.7925 15.688 64.4885 15.624L63.0485 15.324C62.4645 15.204 62.0445 15.004 61.7885 14.724C61.5405 14.444 61.4165 14.096 61.4165 13.68C61.4165 13.352 61.5085 13.052 61.6925 12.78C61.8845 12.508 62.1525 12.292 62.4965 12.132C62.8485 11.964 63.2605 11.88 63.7325 11.88C64.3245 11.88 64.8245 11.996 65.2325 12.228C65.6405 12.46 65.9445 12.788 66.1445 13.212L65.3405 13.74C65.2045 13.388 64.9845 13.132 64.6805 12.972C64.3765 12.804 64.0605 12.72 63.7325 12.72C63.4445 12.72 63.1965 12.76 62.9885 12.84C62.7885 12.92 62.6325 13.032 62.5205 13.176C62.4165 13.312 62.3645 13.468 62.3645 13.644C62.3645 13.82 62.4245 13.984 62.5445 14.136C62.6645 14.28 62.8885 14.384 63.2165 14.448L64.7165 14.76C65.2765 14.872 65.6685 15.056 65.8925 15.312C66.1165 15.568 66.2285 15.88 66.2285 16.248C66.2285 16.624 66.1285 16.956 65.9285 17.244C65.7285 17.524 65.4485 17.74 65.0885 17.892C64.7285 18.044 64.3125 18.12 63.8405 18.12ZM70.5166 18.12C69.9486 18.12 69.4406 17.996 68.9926 17.748C68.5526 17.5 68.2086 17.144 67.9606 16.68C67.7126 16.208 67.5886 15.648 67.5886 15C67.5886 14.352 67.7126 13.796 67.9606 13.332C68.2086 12.86 68.5486 12.5 68.9806 12.252C69.4126 12.004 69.9046 11.88 70.4566 11.88C71.0166 11.88 71.4926 12 71.8846 12.24C72.2846 12.48 72.5886 12.808 72.7966 13.224C73.0046 13.632 73.1086 14.092 73.1086 14.604C73.1086 14.74 73.1046 14.864 73.0966 14.976C73.0886 15.088 73.0766 15.188 73.0606 15.276H68.2126V14.424H72.6406L72.1486 14.52C72.1486 13.944 71.9886 13.5 71.6686 13.188C71.3566 12.876 70.9446 12.72 70.4326 12.72C70.0406 12.72 69.7006 12.812 69.4126 12.996C69.1326 13.172 68.9126 13.432 68.7526 13.776C68.6006 14.112 68.5246 14.52 68.5246 15C68.5246 15.472 68.6046 15.88 68.7646 16.224C68.9246 16.568 69.1486 16.832 69.4366 17.016C69.7326 17.192 70.0846 17.28 70.4926 17.28C70.9326 17.28 71.2886 17.196 71.5606 17.028C71.8406 16.86 72.0646 16.632 72.2326 16.344L72.9886 16.788C72.8366 17.06 72.6406 17.296 72.4006 17.496C72.1686 17.696 71.8926 17.852 71.5726 17.964C71.2606 18.068 70.9086 18.12 70.5166 18.12Z" fill="#F5F5F5"/>
<defs>
<linearGradient id="paint0_linear_1789_915" x1="0" y1="14" x2="94" y2="14" gradientUnits="userSpaceOnUse">
<stop stop-color="#B02E94"/>
<stop offset="1" stop-color="#8773EF"/>
</linearGradient>
</defs>
</svg>
