<svg width="115" height="56" viewBox="0 0 115 56" fill="none" xmlns="http://www.w3.org/2000/svg">
<path d="M53.632 22.94C54.3893 22.94 55.04 23.0733 55.584 23.34C56.1387 23.6067 56.5707 23.9853 56.88 24.476C57.1893 24.9667 57.344 25.5587 57.344 26.252C57.344 26.9347 57.1893 27.5267 56.88 28.028C56.5707 28.5187 56.1387 28.8973 55.584 29.164C55.04 29.4307 54.3893 29.564 53.632 29.564H51.28V33.5H49.568V22.94H53.632ZM53.36 28.092C54.1173 28.092 54.672 27.9373 55.024 27.628C55.3867 27.308 55.568 26.8493 55.568 26.252C55.568 25.644 55.3867 25.1853 55.024 24.876C54.672 24.556 54.1173 24.396 53.36 24.396H51.28V28.092H53.36ZM59.3593 33.5V21.9H61.0713V26.78C61.3379 26.2787 61.6953 25.916 62.1432 25.692C62.6019 25.4573 63.1086 25.34 63.6633 25.34C64.2286 25.34 64.7353 25.452 65.1833 25.676C65.6419 25.8893 66.0046 26.2147 66.2713 26.652C66.5379 27.0893 66.6713 27.644 66.6713 28.316V33.5H64.9593V28.86C64.9593 28.0707 64.7939 27.5213 64.4633 27.212C64.1433 26.9027 63.7379 26.748 63.2473 26.748C62.9059 26.748 62.5646 26.8333 62.2233 27.004C61.8926 27.164 61.6153 27.4307 61.3913 27.804C61.1779 28.1667 61.0713 28.6573 61.0713 29.276V33.5H59.3593ZM72.7375 25.34C73.5162 25.34 74.2042 25.5053 74.8015 25.836C75.3988 26.1667 75.8628 26.6467 76.1935 27.276C76.5348 27.8947 76.7055 28.636 76.7055 29.5C76.7055 30.364 76.5348 31.1107 76.1935 31.74C75.8628 32.3587 75.3988 32.8333 74.8015 33.164C74.2042 33.4947 73.5162 33.66 72.7375 33.66C71.9588 33.66 71.2708 33.4947 70.6735 33.164C70.0762 32.8333 69.6068 32.3587 69.2655 31.74C68.9242 31.1107 68.7535 30.364 68.7535 29.5C68.7535 28.636 68.9242 27.8947 69.2655 27.276C69.6068 26.6467 70.0762 26.1667 70.6735 25.836C71.2708 25.5053 71.9588 25.34 72.7375 25.34ZM72.7375 26.684C72.2575 26.684 71.8468 26.796 71.5055 27.02C71.1748 27.2333 70.9188 27.548 70.7375 27.964C70.5562 28.38 70.4655 28.892 70.4655 29.5C70.4655 30.0973 70.5562 30.6093 70.7375 31.036C70.9188 31.452 71.1748 31.772 71.5055 31.996C71.8468 32.2093 72.2575 32.316 72.7375 32.316C73.2175 32.316 73.6228 32.2093 73.9535 31.996C74.2842 31.772 74.5402 31.452 74.7215 31.036C74.9028 30.6093 74.9935 30.0973 74.9935 29.5C74.9935 28.892 74.9028 28.38 74.7215 27.964C74.5402 27.548 74.2842 27.2333 73.9535 27.02C73.6228 26.796 73.2175 26.684 72.7375 26.684ZM81.0859 23.148V31.1C81.0859 31.4947 81.1872 31.7827 81.3899 31.964C81.6032 32.1453 81.8859 32.236 82.2379 32.236C82.5259 32.236 82.7765 32.1933 82.9899 32.108C83.2032 32.012 83.4005 31.884 83.5819 31.724L83.9659 32.972C83.7205 33.1853 83.4165 33.356 83.0539 33.484C82.7019 33.6013 82.3072 33.66 81.8699 33.66C81.4112 33.66 80.9899 33.5853 80.6059 33.436C80.2219 33.2867 79.9232 33.0467 79.7099 32.716C79.4965 32.3747 79.3845 31.932 79.3739 31.388V23.628L81.0859 23.148ZM83.8379 25.5V26.844H77.8379V25.5H83.8379ZM89.0031 25.34C89.7818 25.34 90.4698 25.5053 91.0671 25.836C91.6645 26.1667 92.1285 26.6467 92.4591 27.276C92.8005 27.8947 92.9711 28.636 92.9711 29.5C92.9711 30.364 92.8005 31.1107 92.4591 31.74C92.1285 32.3587 91.6645 32.8333 91.0671 33.164C90.4698 33.4947 89.7818 33.66 89.0031 33.66C88.2245 33.66 87.5365 33.4947 86.9391 33.164C86.3418 32.8333 85.8725 32.3587 85.5311 31.74C85.1898 31.1107 85.0191 30.364 85.0191 29.5C85.0191 28.636 85.1898 27.8947 85.5311 27.276C85.8725 26.6467 86.3418 26.1667 86.9391 25.836C87.5365 25.5053 88.2245 25.34 89.0031 25.34ZM89.0031 26.684C88.5231 26.684 88.1125 26.796 87.7711 27.02C87.4405 27.2333 87.1845 27.548 87.0031 27.964C86.8218 28.38 86.7311 28.892 86.7311 29.5C86.7311 30.0973 86.8218 30.6093 87.0031 31.036C87.1845 31.452 87.4405 31.772 87.7711 31.996C88.1125 32.2093 88.5231 32.316 89.0031 32.316C89.4831 32.316 89.8885 32.2093 90.2191 31.996C90.5498 31.772 90.8058 31.452 90.9871 31.036C91.1685 30.6093 91.2591 30.0973 91.2591 29.5C91.2591 28.892 91.1685 28.38 90.9871 27.964C90.8058 27.548 90.5498 27.2333 90.2191 27.02C89.8885 26.796 89.4831 26.684 89.0031 26.684ZM98.1649 33.66C97.3649 33.66 96.6342 33.5053 95.9729 33.196C95.3115 32.8867 94.7889 32.4493 94.4049 31.884L95.5889 30.86C95.8235 31.2973 96.1595 31.6493 96.5969 31.916C97.0449 32.172 97.5782 32.3 98.1969 32.3C98.6875 32.3 99.0769 32.2147 99.3649 32.044C99.6529 31.8733 99.7969 31.6333 99.7969 31.324C99.7969 31.1213 99.7275 30.9453 99.5889 30.796C99.4609 30.636 99.2102 30.5133 98.8369 30.428L97.1569 30.076C96.3035 29.9053 95.6955 29.6333 95.3329 29.26C94.9702 28.876 94.7889 28.3907 94.7889 27.804C94.7889 27.3667 94.9169 26.9613 95.1729 26.588C95.4289 26.2147 95.8022 25.916 96.2929 25.692C96.7942 25.4573 97.3915 25.34 98.0849 25.34C98.8849 25.34 99.5675 25.484 100.133 25.772C100.698 26.0493 101.13 26.4493 101.429 26.972L100.245 27.964C100.042 27.5373 99.7435 27.2227 99.3489 27.02C98.9542 26.8067 98.5435 26.7 98.1169 26.7C97.7755 26.7 97.4822 26.7427 97.2369 26.828C96.9915 26.9133 96.8049 27.0307 96.6769 27.18C96.5489 27.3293 96.4849 27.5053 96.4849 27.708C96.4849 27.9213 96.5649 28.108 96.7249 28.268C96.8849 28.428 97.1729 28.5507 97.5889 28.636L99.4129 29.02C100.181 29.1693 100.72 29.4253 101.029 29.788C101.349 30.14 101.509 30.572 101.509 31.084C101.509 31.596 101.376 32.0493 101.109 32.444C100.842 32.828 100.458 33.1267 99.9569 33.34C99.4555 33.5533 98.8582 33.66 98.1649 33.66Z" fill="#666666"/>
<path fill-rule="evenodd" clip-rule="evenodd" d="M18 21C17.4696 21 16.9609 21.2107 16.5858 21.5858C16.2107 21.9609 16 22.4696 16 23V33C16 33.5304 16.2107 34.0391 16.5858 34.4142C16.9609 34.7893 17.4696 35 18 35H30C30.5304 35 31.0391 34.7893 31.4142 34.4142C31.7893 34.0391 32 33.5304 32 33V23C32 22.4696 31.7893 21.9609 31.4142 21.5858C31.0391 21.2107 30.5304 21 30 21H18ZM30 33H18L22 25L25 31L27 27L30 33Z" fill="#666666"/>
</svg>
