<svg width="29" height="40" viewBox="0 0 29 40" fill="none" xmlns="http://www.w3.org/2000/svg">
<path d="M24.9125 14.3305C23.8934 14.3305 22.9634 14.7195 22.2631 15.3567C21.5629 14.7195 20.6327 14.3305 19.6136 14.3305C18.5938 14.3305 17.6629 14.7197 16.9622 15.3569C16.6744 15.0949 16.3462 14.8778 15.9906 14.7097C17.2758 13.1325 18.0265 11.1309 18.0265 9.01331C18.0266 4.04331 13.9838 0 9.01452 0C4.04399 0 0 4.04331 0 9.01331C0 12.4738 2.00504 15.6228 5.07225 17.1177V28.1112C5.07225 34.6666 10.4059 40 16.9619 40C23.5183 40 28.8526 34.6666 28.8526 28.1112V18.2707C28.8526 16.098 27.085 14.3305 24.9125 14.3305ZM2.58182 9.01331C2.58182 5.46692 5.46744 2.58182 9.01452 2.58182C12.5602 2.58182 15.4448 5.46692 15.4448 9.01331C15.4448 11.0275 14.4931 12.8945 12.9547 14.0935V9.01331C12.9547 6.83976 11.187 5.07139 9.01435 5.07139C6.84062 5.07139 5.07208 6.83976 5.07208 9.01331V14.0931C3.53348 12.8945 2.58182 11.0275 2.58182 9.01331ZM26.2707 28.1112C26.2707 33.243 22.0947 37.4182 16.9619 37.4182C11.8296 37.4182 7.65407 33.243 7.65407 28.1112V16.3321C7.65631 16.2889 7.65631 16.2457 7.65407 16.2028V9.01331C7.65407 8.26338 8.26441 7.65321 9.01452 7.65321C9.76359 7.65321 10.3731 8.26338 10.3731 9.01331V18.2707V21.1023C10.3731 21.8152 10.9511 22.3932 11.664 22.3932C12.3769 22.3932 12.9549 21.8152 12.9549 21.1023V18.2707C12.9549 17.5216 13.5642 16.9121 14.3131 16.9121C15.062 16.9121 15.6711 17.5216 15.6711 18.2707V21.1023C15.6711 21.8152 16.2491 22.3932 16.9621 22.3932C17.675 22.3932 18.253 21.8152 18.253 21.1023V18.2707C18.253 17.5216 18.8635 16.9121 19.6139 16.9121C20.363 16.9121 20.9725 17.5216 20.9725 18.2707V21.1023C20.9725 21.8152 21.5505 22.3932 22.2634 22.3932C22.9763 22.3932 23.5543 21.8152 23.5543 21.1023V18.2707C23.5543 17.5216 24.1638 16.9121 24.9129 16.9121C25.6618 16.9121 26.2711 17.5216 26.2711 18.2707V28.1112H26.2707Z" fill="#7D67EE"/>
</svg>
