<svg width="37" height="10" viewBox="0 0 37 10" fill="none" xmlns="http://www.w3.org/2000/svg">
<path d="M3.27755 1.08C3.81355 1.08 4.27755 1.18 4.66955 1.38C5.06955 1.572 5.38155 1.848 5.60555 2.208C5.82955 2.568 5.94155 2.996 5.94155 3.492C5.94155 3.988 5.82955 4.416 5.60555 4.776C5.38155 5.136 5.06955 5.416 4.66955 5.616C4.27755 5.808 3.81355 5.904 3.27755 5.904H1.44155V9H0.481547V1.08H3.27755ZM3.13355 5.004C3.75755 5.004 4.21355 4.876 4.50155 4.62C4.78955 4.356 4.93355 3.98 4.93355 3.492C4.93355 2.996 4.78955 2.62 4.50155 2.364C4.21355 2.108 3.75755 1.98 3.13355 1.98H1.44155V5.004H3.13355ZM7.62577 9V3H8.40577L8.53777 3.984C8.70577 3.616 8.94977 3.34 9.26977 3.156C9.59777 2.972 9.99377 2.88 10.4578 2.88C10.5618 2.88 10.6738 2.888 10.7938 2.904C10.9218 2.92 11.0298 2.952 11.1178 3L10.9498 3.876C10.8618 3.844 10.7658 3.82 10.6618 3.804C10.5578 3.788 10.4098 3.78 10.2178 3.78C9.96977 3.78 9.71777 3.852 9.46177 3.996C9.21377 4.14 9.00577 4.36 8.83777 4.656C8.66977 4.944 8.58577 5.312 8.58577 5.76V9H7.62577ZM14.8207 2.88C15.3887 2.88 15.8887 3.004 16.3207 3.252C16.7607 3.5 17.1047 3.86 17.3527 4.332C17.6007 4.796 17.7247 5.352 17.7247 6C17.7247 6.648 17.6007 7.208 17.3527 7.68C17.1047 8.144 16.7607 8.5 16.3207 8.748C15.8887 8.996 15.3887 9.12 14.8207 9.12C14.2607 9.12 13.7607 8.996 13.3207 8.748C12.8807 8.5 12.5367 8.144 12.2887 7.68C12.0407 7.208 11.9167 6.648 11.9167 6C11.9167 5.352 12.0407 4.796 12.2887 4.332C12.5367 3.86 12.8807 3.5 13.3207 3.252C13.7607 3.004 14.2607 2.88 14.8207 2.88ZM14.8207 3.708C14.4127 3.708 14.0647 3.8 13.7767 3.984C13.4887 4.168 13.2647 4.432 13.1047 4.776C12.9527 5.112 12.8767 5.52 12.8767 6C12.8767 6.472 12.9527 6.88 13.1047 7.224C13.2647 7.568 13.4887 7.832 13.7767 8.016C14.0647 8.2 14.4127 8.292 14.8207 8.292C15.2287 8.292 15.5767 8.2 15.8647 8.016C16.1527 7.832 16.3727 7.568 16.5247 7.224C16.6847 6.88 16.7647 6.472 16.7647 6C16.7647 5.52 16.6847 5.112 16.5247 4.776C16.3727 4.432 16.1527 4.168 15.8647 3.984C15.5767 3.8 15.2287 3.708 14.8207 3.708ZM21.8625 0.18C22.0705 0.18 22.2665 0.204 22.4505 0.252C22.6345 0.299999 22.7785 0.368 22.8825 0.456L22.6305 1.236C22.5345 1.172 22.4305 1.128 22.3185 1.104C22.2065 1.072 22.0825 1.056 21.9465 1.056C21.6025 1.056 21.3345 1.14 21.1425 1.308C20.9505 1.468 20.8545 1.728 20.8545 2.088V3V3.312V9H19.8945V1.992C19.8945 1.728 19.9345 1.484 20.0145 1.26C20.0945 1.036 20.2145 0.844 20.3745 0.684C20.5425 0.523999 20.7505 0.399999 20.9985 0.312C21.2465 0.224 21.5345 0.18 21.8625 0.18ZM22.8585 3V3.828H18.6945V3H22.8585ZM24.6225 1.848C24.4065 1.848 24.2305 1.784 24.0945 1.656C23.9665 1.52 23.9025 1.344 23.9025 1.128C23.9025 0.912 23.9665 0.74 24.0945 0.611999C24.2305 0.476 24.4065 0.408 24.6225 0.408C24.8385 0.408 25.0105 0.476 25.1385 0.611999C25.2745 0.74 25.3425 0.912 25.3425 1.128C25.3425 1.344 25.2745 1.52 25.1385 1.656C25.0105 1.784 24.8385 1.848 24.6225 1.848ZM25.1025 3V9H24.1425V3H25.1025ZM28.2487 0.24V7.476C28.2487 7.78 28.3047 7.992 28.4167 8.112C28.5287 8.224 28.7087 8.28 28.9567 8.28C29.1167 8.28 29.2487 8.268 29.3527 8.244C29.4567 8.22 29.5967 8.176 29.7727 8.112L29.6167 8.952C29.4887 9.008 29.3487 9.048 29.1967 9.072C29.0447 9.104 28.8887 9.12 28.7287 9.12C28.2407 9.12 27.8767 8.988 27.6367 8.724C27.4047 8.46 27.2887 8.056 27.2887 7.512V0.24H28.2487ZM33.5127 9.12C32.9447 9.12 32.4367 8.996 31.9887 8.748C31.5487 8.5 31.2047 8.144 30.9567 7.68C30.7087 7.208 30.5847 6.648 30.5847 6C30.5847 5.352 30.7087 4.796 30.9567 4.332C31.2047 3.86 31.5447 3.5 31.9767 3.252C32.4087 3.004 32.9007 2.88 33.4527 2.88C34.0127 2.88 34.4887 3 34.8807 3.24C35.2807 3.48 35.5847 3.808 35.7927 4.224C36.0007 4.632 36.1047 5.092 36.1047 5.604C36.1047 5.74 36.1007 5.864 36.0927 5.976C36.0847 6.088 36.0727 6.188 36.0567 6.276H31.2087V5.424H35.6367L35.1447 5.52C35.1447 4.944 34.9847 4.5 34.6647 4.188C34.3527 3.876 33.9407 3.72 33.4287 3.72C33.0367 3.72 32.6967 3.812 32.4087 3.996C32.1287 4.172 31.9087 4.432 31.7487 4.776C31.5967 5.112 31.5207 5.52 31.5207 6C31.5207 6.472 31.6007 6.88 31.7607 7.224C31.9207 7.568 32.1447 7.832 32.4327 8.016C32.7287 8.192 33.0807 8.28 33.4887 8.28C33.9287 8.28 34.2847 8.196 34.5567 8.028C34.8367 7.86 35.0607 7.632 35.2287 7.344L35.9847 7.788C35.8327 8.06 35.6367 8.296 35.3967 8.496C35.1647 8.696 34.8887 8.852 34.5687 8.964C34.2567 9.068 33.9047 9.12 33.5127 9.12Z" fill="#7D67EE"/>
</svg>
