<svg width="17" height="20" viewBox="0 0 17 20" fill="none" xmlns="http://www.w3.org/2000/svg">
<path d="M14.3409 17.1402C12.7655 18.7156 10.6287 19.6007 8.40071 19.6007C6.1727 19.6007 4.03595 18.7156 2.46051 17.1402C0.885072 15.5648 1.65999e-08 13.428 0 11.2C-1.65999e-08 8.97199 0.885072 6.83524 2.46051 5.2598C2.46051 8.4 2.80071 11.2 7.00071 12.6C7.00071 9.8 8.40071 1.4 10.5007 0C11.4096 1.9959 12.7158 3.78559 14.3395 5.2598C15.1197 6.03983 15.7385 6.9659 16.1608 7.98513C16.583 9.00436 16.8003 10.0968 16.8003 11.2C16.8003 12.3032 16.583 13.3956 16.1608 14.4149C15.7385 15.4341 15.1197 16.3602 14.3395 17.1402H14.3409Z" fill="#7D67EE"/>
<path d="M5.4308 16.9693C5.81824 17.3704 6.28168 17.6904 6.7941 17.9105C7.30652 18.1306 7.85764 18.2465 8.41531 18.2514C8.97299 18.2562 9.52604 18.1499 10.0422 17.9388C10.5584 17.7276 11.0273 17.4157 11.4217 17.0214C11.816 16.627 12.1279 16.1581 12.3391 15.6419C12.5502 15.1257 12.6565 14.5727 12.6517 14.015C12.6468 13.4573 12.5309 12.9062 12.3108 12.3938C12.0907 11.8814 11.7707 11.4179 11.3696 11.0305C10.5578 10.293 9.90476 9.39799 9.4502 8.3999C8.4002 9.0999 7.7002 13.2999 7.7002 14.6999C6.49446 14.7483 5.29458 14.5083 4.2002 13.9999C4.1994 14.5515 4.30772 15.0979 4.51891 15.6075C4.73011 16.1171 5.04002 16.5799 5.4308 16.9693Z" fill="#7D67EE"/>
</svg>
