<svg width="92" height="99" viewBox="0 0 92 99" fill="none" xmlns="http://www.w3.org/2000/svg">
<path d="M46.799 97.2347C44.8464 99.1874 41.6734 99.1924 39.7869 97.1758C17.1817 73.0119 3.19915 42.0439 0.0225755 9.10769C-0.242523 6.35902 1.85966 3.98222 4.61563 3.80884L64.9963 0.0100226C67.7522 -0.163363 70.1108 1.93382 70.457 4.67344C72.4543 20.4788 79.1572 35.3242 89.6921 47.2747C91.5182 49.3461 91.5316 52.5021 89.579 54.4548L46.799 97.2347Z" fill="#7D67EE"/>
<path d="M46.2509 48.3888L46.1117 48.9957L44.0719 48.3906L40.8987 50.2226L41.6707 51.5597L45.0101 49.6317L45.3541 50.2275L41.5159 52.4435L39.3759 48.7369L39.8747 48.449L40.5547 49.6267L43.8941 47.6987L46.2509 48.3888Z" fill="#FFB743"/>
<path d="M42.9127 45.9989L39.0745 48.2149L36.9345 44.5083L37.4333 44.2203L38.1133 45.3981L41.4527 43.4701L41.7967 44.0659L38.4573 45.9939L39.2293 47.3311L42.5687 45.4031L42.9127 45.9989Z" fill="#FFB743"/>
<path d="M38.9105 38.8748C39.0731 39.1565 39.1746 39.4336 39.2148 39.7059C39.2551 39.9783 39.2271 40.2285 39.1309 40.4565C39.0346 40.6845 38.8664 40.8678 38.6262 41.0065C38.3768 41.1505 38.1247 41.2098 37.8699 41.1845C37.6078 41.1572 37.3456 41.0284 37.0833 40.798C36.8137 40.5657 36.5442 40.2163 36.2749 39.7498L35.7749 38.8838C35.5429 38.4819 35.401 38.1081 35.3492 37.7624C35.2973 37.4166 35.3154 37.1013 35.4035 36.8165C35.4915 36.5317 35.633 36.2806 35.8278 36.0634C36.0154 35.8443 36.2362 35.6614 36.4902 35.5147C36.8597 35.3014 37.2164 35.1725 37.5602 35.1279C37.9013 35.0788 38.2262 35.0975 38.5348 35.1841C38.8481 35.2681 39.1408 35.407 39.4129 35.601C39.685 35.7949 39.9367 36.0283 40.1681 36.3011C40.3969 36.5693 40.602 36.8605 40.7833 37.1746L40.8993 37.3755C41.1819 37.8651 41.3663 38.3283 41.4522 38.7652C41.5428 39.1994 41.5552 39.6049 41.4894 39.9816C41.4255 40.351 41.3037 40.6893 41.1238 40.9963C40.9439 41.3034 40.7261 41.577 40.4705 41.8169C40.2149 42.0568 39.9416 42.2608 39.6507 42.4288L39.5052 42.5128C39.1264 42.7315 38.7441 42.8906 38.3582 42.9903C37.9723 43.0899 37.5935 43.1485 37.2218 43.166C36.8455 43.1862 36.4906 43.1848 36.1571 43.1618L36.1699 42.48C36.5353 42.5155 36.8938 42.5178 37.2456 42.4872C37.5928 42.4592 37.9296 42.3971 38.2559 42.3011C38.5777 42.2077 38.8817 42.0783 39.1681 41.913L39.2997 41.837C39.6461 41.637 39.9447 41.3969 40.1955 41.1166C40.4483 40.829 40.6321 40.5074 40.7469 40.1516C40.8664 39.7932 40.8954 39.4008 40.834 38.9744C40.7725 38.548 40.6018 38.0923 40.3218 37.6073L40.2738 37.5241C40.0471 37.1315 39.8029 36.8045 39.5411 36.5431C39.2766 36.277 38.9986 36.0834 38.707 35.9623C38.4173 35.8339 38.1145 35.784 37.7984 35.8126C37.4842 35.8338 37.1632 35.9391 36.8353 36.1284C36.4889 36.3284 36.2461 36.564 36.1071 36.8352C35.9681 37.1064 35.9188 37.3997 35.9592 37.715C35.997 38.0258 36.1078 38.3405 36.2919 38.6592L36.7879 39.5183C36.9239 39.7538 37.0537 39.9468 37.1774 40.097C37.2985 40.2427 37.4247 40.3546 37.556 40.4327C37.6747 40.4997 37.7926 40.5332 37.9097 40.5334C38.0195 40.5316 38.1414 40.492 38.2753 40.4146C38.4878 40.292 38.5988 40.1109 38.6083 39.8714C38.6132 39.6345 38.5383 39.3822 38.3836 39.1143C38.2663 38.911 38.1363 38.7552 37.9936 38.6467C37.8436 38.5362 37.6697 38.4857 37.4719 38.4952C37.2669 38.5027 37.0281 38.5851 36.7556 38.7425L34.8919 39.8185L35.5799 41.0101L36.827 40.2901L37.2539 40.7734L35.3971 41.8454L33.3051 38.222L33.8039 37.934L34.5519 39.2296L36.3256 38.2056C36.635 38.0269 36.8935 37.9146 37.101 37.8687C37.3059 37.8182 37.4963 37.8067 37.6724 37.8344C37.9306 37.8763 38.162 37.989 38.3665 38.1727C38.5638 38.3544 38.7451 38.5884 38.9105 38.8748Z" fill="#FFB743"/>
<path d="M30.1088 61.8462C29.6709 61.0113 29.5347 60.2291 29.7001 59.4995C29.8654 58.7699 30.3159 58.2122 31.0516 57.8264C31.7872 57.4405 32.496 57.3955 33.1781 57.6912C33.8475 57.983 34.4012 58.5463 34.839 59.3811L34.9465 59.4353L35.9999 61.4439L39.3971 59.6621L39.9173 60.654L31.7344 64.9457L30.1088 61.8462ZM33.9711 59.8363C33.6633 59.2494 33.3159 58.8783 32.9288 58.723C32.5291 58.5638 32.0854 58.612 31.5978 58.8678C31.1101 59.1236 30.8223 59.459 30.7343 59.874C30.6338 60.285 30.7374 60.784 31.0451 61.3709L32.1441 63.4662L35.0701 61.9316L33.9711 59.8363ZM33.8704 59.1619L36.5814 54.2937L37.1992 55.4715L34.8516 59.7065L33.8704 59.1619Z" fill="#E2E6FE"/>
<path d="M29.7869 51.0747C29.3241 51.3175 29.0337 51.6279 28.9158 52.0059C28.7896 52.3882 28.8457 52.8067 29.0841 53.2613C29.3096 53.6911 29.5954 54.005 29.9415 54.2028C30.2794 54.405 30.6919 54.468 31.1788 54.3917L31.1056 55.4577C30.556 55.5352 30.0237 55.4244 29.5085 55.1255C28.9852 54.8309 28.5501 54.3529 28.2033 53.6917C27.9692 53.2454 27.8353 52.7992 27.8016 52.3531C27.7596 51.9114 27.8415 51.5049 28.0472 51.1335C28.2403 50.7582 28.5807 50.4427 29.0684 50.1869L32.0687 48.6133C32.3663 48.4572 32.4327 48.2221 32.268 47.908C32.1856 47.751 32.0847 47.6089 31.9654 47.4818L32.7725 47.1218C32.9418 47.2437 33.0959 47.4369 33.2346 47.7014C33.3603 47.9411 33.4276 48.1799 33.4364 48.4177C33.4451 48.6555 33.3868 48.8758 33.2613 49.0786C33.1276 49.2858 32.9202 49.463 32.6391 49.6104L32.5152 49.6754L32.4223 49.408C32.7967 49.3381 33.15 49.3688 33.4824 49.5001C33.8065 49.6358 34.0961 49.8264 34.3514 50.0719C34.5984 50.3218 34.7977 50.5914 34.9495 50.8807C35.1402 51.2444 35.256 51.6158 35.2967 51.9949C35.3374 52.374 35.2837 52.7236 35.1354 53.0438C34.9746 53.36 34.7082 53.6157 34.3362 53.8107C33.8734 54.0535 33.4129 54.1 32.955 53.9502C32.4844 53.7966 32.0502 53.471 31.6523 52.9736L29.8813 50.7723L30.6996 50.3431L32.1556 52.1247C32.4507 52.4863 32.7246 52.7273 32.9775 52.8477C33.2303 52.968 33.4889 52.9588 33.7534 52.8201C34.0097 52.6857 34.1684 52.476 34.2297 52.1909C34.2783 51.9019 34.2051 51.5714 34.0101 51.1995C33.8843 50.9598 33.7362 50.7477 33.5656 50.5631C33.3825 50.3746 33.1834 50.2261 32.9683 50.1175C32.7451 50.0133 32.5124 49.9615 32.2702 49.962C32.0198 49.9669 31.7624 50.0386 31.4979 50.1774L29.7869 51.0747Z" fill="#E2E6FE"/>
<path d="M32.0072 45.5722L22.9565 50.3191L22.4363 49.3273L26.2178 47.344C25.7331 47.3241 25.3149 47.1799 24.9632 46.9112C24.6115 46.6424 24.3251 46.2973 24.104 45.8758C23.8699 45.4294 23.7443 44.9789 23.7271 44.5242C23.7017 44.0738 23.8062 43.6501 24.0406 43.2532C24.2707 42.8479 24.6544 42.5044 25.1916 42.2226L29.1591 40.1418L29.6793 41.1337L26.059 43.0324C25.373 43.3922 24.9757 43.7903 24.8673 44.2266C24.7463 44.6589 24.7985 45.09 25.0239 45.5198C25.1799 45.8173 25.4063 46.078 25.7028 46.3019C25.9994 46.5258 26.3609 46.6524 26.7873 46.6817C27.2011 46.707 27.6725 46.581 28.2015 46.3036L31.487 44.5804L32.0072 45.5722Z" fill="#E2E6FE"/>
<path d="M26.9282 35.5869C27.1363 35.9836 27.2591 36.3987 27.2968 36.8322C27.3301 37.2573 27.2399 37.6682 27.0264 38.0648C26.8002 38.4574 26.4185 38.7946 25.8812 39.0764L21.8146 41.2093L21.2944 40.2174L25.1006 38.2211C25.7288 37.8916 26.0912 37.5277 26.1879 37.1292C26.2762 36.7351 26.1904 36.29 25.9303 35.7941C25.8089 35.5627 25.6525 35.3549 25.4611 35.1707C25.2614 34.9909 25.0333 34.8575 24.777 34.7707C24.508 34.6799 24.2153 34.6542 23.8988 34.6938C23.5779 34.725 23.2357 34.836 22.872 35.0268L19.4997 36.7955L18.9795 35.8036L25.1786 32.5523L25.6338 33.4202L24.724 33.9764C25.2087 33.9962 25.6353 34.1466 26.004 34.4275C26.36 34.7045 26.6681 35.0909 26.9282 35.5869Z" fill="#E2E6FE"/>
</svg>
