<svg width="92" height="102" viewBox="0 0 92 102" fill="none" xmlns="http://www.w3.org/2000/svg">
<path d="M19.5492 5.55642C19.8326 2.98213 21.9854 1 24.5752 1H86.4466C89.4149 1 91.7321 3.58556 91.3744 6.53226C86.6676 45.3093 77.0782 65.8303 57.6186 96.6081C55.9881 99.187 52.4359 99.701 50.1358 97.6964L3.41113 56.973C1.47467 55.2853 1.14003 52.4057 2.5944 50.2883C13.3518 34.6271 17.435 24.7621 19.5492 5.55642Z" fill="#E2E6FE"/>
<path d="M40.9731 29.767C41.1095 29.4716 41.2774 29.229 41.4768 29.0391C41.6761 28.8492 41.8967 28.7278 42.1384 28.675C42.3802 28.6222 42.627 28.6539 42.8787 28.7702C43.1402 28.891 43.334 29.0628 43.4602 29.2856C43.589 29.5155 43.6349 29.804 43.5979 30.1511C43.5635 30.5054 43.4334 30.927 43.2075 31.416L42.7882 32.3238C42.5936 32.745 42.37 33.0765 42.1173 33.3182C41.8647 33.5598 41.5966 33.7268 41.3131 33.8191C41.0296 33.9114 40.743 33.9405 40.4532 33.9065C40.166 33.8796 39.8893 33.8046 39.623 33.6816C39.2356 33.5027 38.9247 33.2856 38.6901 33.0304C38.4533 32.78 38.2813 32.5037 38.1741 32.2016C38.0621 31.8972 38.0069 31.578 38.0085 31.2439C38.0101 30.9097 38.0556 30.5695 38.1451 30.2231C38.2324 29.8815 38.3521 29.5461 38.5042 29.2169L38.6015 29.0063C38.8385 28.4931 39.1108 28.0754 39.4182 27.7533C39.7208 27.4289 40.0449 27.1851 40.3907 27.0216C40.7293 26.8608 41.076 26.7654 41.4306 26.7354C41.7852 26.7053 42.1342 26.7255 42.4776 26.796C42.8211 26.8666 43.1453 26.9723 43.4503 27.1132L43.6028 27.1836C43.9998 27.367 44.3503 27.5877 44.6542 27.8455C44.958 28.1034 45.2243 28.3791 45.4529 28.6727C45.6864 28.9686 45.8898 29.2594 46.0633 29.5451L45.4989 29.9277C45.3172 29.6088 45.1124 29.3144 44.8845 29.0447C44.6615 28.7771 44.4167 28.5377 44.15 28.3264C43.8882 28.1174 43.6072 27.9435 43.307 27.8049L43.1691 27.7411C42.8059 27.5734 42.4376 27.4678 42.064 27.4245C41.6833 27.3838 41.3145 27.419 40.9576 27.5303C40.5959 27.6393 40.2585 27.8418 39.9455 28.1379C39.6325 28.4339 39.3586 28.8361 39.1238 29.3445L39.0835 29.4316C38.8934 29.8432 38.767 30.2313 38.7043 30.5959C38.6394 30.9654 38.6415 31.3042 38.7107 31.6123C38.7728 31.923 38.9066 32.1992 39.1121 32.441C39.3106 32.6855 39.5817 32.8871 39.9255 33.0459C40.2886 33.2136 40.621 33.2761 40.9228 33.2334C41.2245 33.1906 41.4926 33.0619 41.7269 32.847C41.9591 32.637 42.1523 32.3649 42.3066 32.0309L42.7226 31.1303C42.8367 30.8834 42.9194 30.6661 42.9709 30.4783C43.0201 30.2955 43.0388 30.1278 43.027 29.9755C43.0132 29.8399 42.9727 29.7242 42.9053 29.6285C42.8405 29.5398 42.7379 29.463 42.5975 29.3982C42.3748 29.2953 42.1628 29.309 41.9616 29.4393C41.7653 29.5718 41.6022 29.7785 41.4725 30.0593C41.3741 30.2724 41.3217 30.4685 41.3153 30.6476C41.3115 30.8339 41.3705 31.0051 41.4923 31.1612C41.6166 31.3244 41.8216 31.472 42.1073 31.6039L44.0609 32.5064L44.638 31.2572L43.3307 30.6533L43.4795 30.0259L45.4259 30.925L43.6713 34.7233L43.1484 34.4818L43.7757 33.1237L41.9165 32.2649C41.5921 32.115 41.3514 31.9685 41.1942 31.8254C41.0348 31.6872 40.9157 31.5382 40.8368 31.3783C40.7221 31.1432 40.6809 30.8892 40.713 30.6162C40.7477 30.3502 40.8344 30.0671 40.9731 29.767ZM38.7388 40.9181C38.618 41.1795 38.4416 41.3771 38.2095 41.5107C37.9822 41.6466 37.7121 41.7099 37.3992 41.7004C37.0863 41.691 36.7459 41.6013 36.3779 41.4313C35.8599 41.192 35.4582 40.8978 35.173 40.5487C34.8856 40.2044 34.6985 39.8272 34.6119 39.417C34.5204 39.0047 34.5119 38.5778 34.5866 38.1364C34.6541 37.6976 34.7863 37.2652 34.9832 36.8391L35.0503 36.6939C35.2806 36.1952 35.546 35.7861 35.8463 35.4666C36.1418 35.1448 36.46 34.9011 36.8009 34.7355C37.1347 34.5725 37.4776 34.4724 37.8296 34.4352C38.1794 34.4029 38.5296 34.4207 38.8801 34.4887C39.2235 34.5592 39.5525 34.6671 39.8673 34.8125L40.0052 34.8762C40.4071 35.0619 40.7587 35.2801 41.0599 35.5309C41.366 35.7839 41.6369 36.0559 41.8726 36.3469C42.1061 36.6428 42.317 36.9429 42.5054 37.2473L41.9376 37.6371C41.6558 37.1661 41.3398 36.75 40.9898 36.3885C40.6398 36.0271 40.2082 35.7278 39.6949 35.4908L39.5715 35.4337C39.218 35.2705 38.858 35.1658 38.4915 35.1199C38.1179 35.0766 37.7538 35.1081 37.3991 35.2145C37.0423 35.3258 36.7096 35.5246 36.401 35.8109C36.0903 36.1021 35.8186 36.4995 35.586 37.003L35.5491 37.0829C35.3053 37.6107 35.1776 38.1098 35.1659 38.5802C35.1519 39.0555 35.2689 39.4826 35.5169 39.8615C35.76 40.2382 36.143 40.5473 36.6659 40.7889C36.9419 40.9164 37.184 40.99 37.3922 41.0098C37.603 41.0367 37.7824 41.0109 37.9303 40.9323C38.076 40.8586 38.1879 40.7371 38.2662 40.5676C38.3288 40.432 38.3615 40.2914 38.3641 40.1458C38.3646 40.005 38.3532 39.8705 38.3302 39.7423L38.8604 39.9873C38.8856 40.1106 38.8912 40.2512 38.877 40.4091C38.8676 40.5693 38.8216 40.7389 38.7388 40.9181ZM37.9619 36.5144L41.9854 38.373L40.2342 42.164L39.7112 41.9225L40.2983 40.6515L36.7978 39.0345L37.0863 38.4099L40.5869 40.0269L41.174 38.756L37.6734 37.1389L37.9619 36.5144Z" fill="#FFB743"/>
<path d="M69.6615 29.8215L64.0934 27.3895C63.144 26.9748 62.512 26.3932 62.1973 25.6447C61.8874 24.9085 61.9286 24.0913 62.3208 23.1932C62.5973 22.5603 62.9449 22.0909 63.3637 21.7849C63.7825 21.479 64.2455 21.34 64.7527 21.368C65.2647 21.4083 65.7915 21.6129 66.3331 21.9819L66.1109 23.0153C65.425 22.6037 64.8538 22.4306 64.3975 22.4961C63.9459 22.5739 63.5801 22.9335 63.2999 23.575C62.9823 24.302 62.9624 24.884 63.24 25.321C63.5262 25.7617 64.0456 26.1465 64.7983 26.4752L70.1098 28.7951L69.6615 29.8215ZM59.0113 30.7706C59.1906 30.3601 59.4375 30.0045 59.7521 29.704C60.063 29.412 60.4399 29.2253 60.8829 29.1438C61.3307 29.0745 61.8326 29.1613 62.3885 29.4042L66.5966 31.2421L66.1484 32.2685L62.2097 30.5482C61.5596 30.2643 61.0489 30.2093 60.6776 30.3832C60.3149 30.5609 60.0214 30.9063 59.7973 31.4195C59.6927 31.659 59.6284 31.911 59.6045 32.1755C59.5892 32.4438 59.6278 32.7051 59.7204 32.9595C59.8179 33.2261 59.981 33.4705 60.2099 33.6927C60.435 33.9234 60.7358 34.1209 61.1121 34.2853L64.6018 35.8095L64.1535 36.8359L57.7387 34.0341L58.1309 33.136L59.134 33.4977C58.8462 33.1072 58.6966 32.6803 58.6851 32.217C58.6784 31.7659 58.7871 31.2838 59.0113 30.7706ZM54.0011 35.246L63.1102 39.2246L62.7179 40.1227L61.1135 39.5288L61.3547 39.4662C61.6055 39.7081 61.7935 39.9888 61.9188 40.3083C62.0526 40.6316 62.1145 40.9795 62.1046 41.352C62.0947 41.7245 62.0094 42.0946 61.8488 42.4624C61.6209 42.9841 61.2791 43.4052 60.8234 43.7256C60.364 44.0545 59.8284 44.2433 59.2165 44.2917C58.6046 44.3402 57.948 44.2113 57.2466 43.9049C56.5538 43.6023 56.0149 43.204 55.6298 42.7099C55.2495 42.2281 55.024 41.7069 54.9531 41.1463C54.8822 40.5857 54.9625 40.0403 55.1942 39.51C55.4258 38.9797 55.7577 38.5696 56.1898 38.2797C56.6268 38.0021 57.0837 37.8655 57.5604 37.87L57.6968 38.0824L53.5528 36.2724L54.0011 35.246ZM56.1371 39.7996C55.8606 40.4326 55.8682 41.0215 56.1598 41.5664C56.4476 42.1199 56.9594 42.5573 57.6949 42.8786C58.4305 43.1998 59.0972 43.2823 59.6952 43.1259C60.2894 42.978 60.7228 42.5919 60.9955 41.9675C61.1748 41.5569 61.2291 41.1529 61.1583 40.7553C61.0961 40.3615 60.9184 39.9987 60.6253 39.667C60.3408 39.3391 59.9505 39.0667 59.4545 38.8501C58.9669 38.6371 58.5038 38.5316 58.065 38.5335C57.6225 38.5439 57.2333 38.654 56.8972 38.8637C56.566 39.0856 56.3126 39.3976 56.1371 39.7996ZM60.6045 48.3193C60.7053 48.0884 60.8559 47.9301 61.0563 47.8445C61.2615 47.7711 61.4795 47.7849 61.7105 47.8857C61.9414 47.9866 62.0954 48.1354 62.1725 48.332C62.2544 48.5409 62.2449 48.7608 62.144 48.9917C62.0432 49.2227 61.8901 49.3748 61.685 49.4482C61.4846 49.5338 61.269 49.5262 61.038 49.4253C60.8071 49.3244 60.6507 49.1695 60.5688 48.9606C60.4917 48.764 60.5036 48.5502 60.6045 48.3193ZM59.1487 48.2945L52.7339 45.4927L53.1821 44.4664L59.597 47.2682L59.1487 48.2945ZM59.2691 52.9857L52.8029 50.1614C52.4865 50.0232 52.212 50.0103 51.9796 50.1227C51.7472 50.235 51.5694 50.4323 51.4461 50.7146C51.3378 50.9626 51.2872 51.1951 51.2942 51.4121C51.3013 51.6291 51.3458 51.842 51.4277 52.0509L50.4112 52.0347C50.3175 51.7596 50.2791 51.4627 50.296 51.1442C50.3092 50.8342 50.3924 50.5039 50.5455 50.1532C50.6875 49.8282 50.8757 49.5488 51.1102 49.3151C51.3532 49.0852 51.6361 48.9389 51.9588 48.8761C52.2864 48.8257 52.6573 48.8859 53.0716 49.0566L59.4351 51.836L59.2691 52.9857ZM56.4274 54.5249L55.5422 54.1383L57.5707 49.494L58.4559 49.8806L56.4274 54.5249ZM48.0466 55.8745C48.3119 55.2673 48.6817 54.782 49.156 54.4189C49.6266 54.0643 50.1679 53.8627 50.7798 53.8142C51.4002 53.7695 52.0568 53.8984 52.7496 54.201C53.4424 54.5036 53.979 54.8958 54.3592 55.3776C54.7481 55.8632 54.9742 56.3948 55.0376 56.9725C55.101 57.5502 55.0038 58.1341 54.7461 58.7242C54.4846 59.323 54.134 59.7758 53.6943 60.0829C53.251 60.3984 52.7583 60.5703 52.2164 60.5984C51.6831 60.6303 51.1427 60.5267 50.5953 60.2876C50.4499 60.2241 50.3192 60.1619 50.2032 60.101C50.0872 60.0402 49.9859 59.9807 49.8993 59.9225L52.1631 54.7393L53.0741 55.1371L51.0063 59.8713L51.1334 59.3004C51.7493 59.5694 52.2987 59.6057 52.7817 59.4092C53.2609 59.2214 53.6201 58.8537 53.8592 58.3063C54.0422 57.8872 54.1027 57.4808 54.0404 57.0869C53.983 56.7054 53.8078 56.3488 53.5147 56.0171C53.2264 55.6977 52.8257 55.4259 52.3125 55.2017C51.8079 54.9813 51.3343 54.8763 50.8918 54.8868C50.4493 54.8972 50.0625 55.0134 49.7313 55.2354C49.4049 55.4697 49.1464 55.8049 48.9559 56.2411C48.7504 56.7115 48.674 57.1314 48.7266 57.5006C48.7755 57.8784 48.9146 58.2244 49.1441 58.5385L48.3164 59.1394C48.0966 58.8499 47.9358 58.5302 47.834 58.1802C47.7285 57.8387 47.6906 57.4708 47.7203 57.0764C47.7548 56.6942 47.8636 56.2936 48.0466 55.8745ZM46.112 60.6538L52.5268 63.4556L52.1626 64.2895L51.0489 63.9711C51.3639 64.3226 51.545 64.7123 51.5923 65.1404C51.6359 65.577 51.5493 66.0433 51.3326 66.5394C51.2841 66.6506 51.2232 66.7666 51.1501 66.8874C51.0732 67.0168 50.9886 67.1173 50.8961 67.189L50.038 66.6003C50.1133 66.5212 50.1838 66.4297 50.2495 66.326C50.3152 66.2223 50.3928 66.0678 50.4825 65.8625C50.5983 65.5974 50.639 65.2944 50.6046 64.9534C50.5664 64.621 50.4284 64.2959 50.1903 63.9781C49.9609 63.664 49.6067 63.4023 49.1277 63.1931L45.6637 61.6801L46.112 60.6538Z" fill="#666666"/>
<path d="M23.4979 0.950859C42.1521 41.9009 42.3688 58.7077 31.4979 81.9509" stroke="#EAEDFE" stroke-width="0.4"/>
<path d="M12.5361 65.8143C31.3664 42.9987 36.7386 28.7394 38.5361 0.814302" stroke="#EAEDFE" stroke-width="0.4"/>
<path d="M46.4975 0.953813C66.6824 51.3884 68.3105 75.2776 55.4975 97.9538" stroke="#EAEDFE" stroke-width="0.4"/>
<circle cx="63" cy="75" r="2" fill="#EAEDFE"/>
<circle cx="38.5" cy="52.5" r="1.5" fill="#EAEDFE"/>
</svg>
