<svg width="92" height="101" viewBox="0 0 92 101" fill="none" xmlns="http://www.w3.org/2000/svg">
<path d="M35.2942 4.58971C36.9854 2.13616 40.4488 1.73024 42.6772 3.70871L88.6431 44.5196C90.5527 46.215 90.8703 49.075 89.4245 51.1799C78.5991 66.9404 74.1917 77.5733 72.3914 95.855C72.1343 98.4658 69.9673 100.5 67.344 100.5H5.61933C2.62756 100.5 0.303774 97.8758 0.690796 94.9091C5.79615 55.7752 14.5443 34.6933 35.2942 4.58971Z" fill="#E2E6FE"/>
<path d="M25.3731 58.3714L27.891 63.5651L28.0052 63.7849L29.5487 66.9754L28.1263 66.4626L24.8746 59.7543L25.3731 58.3714ZM23.2983 64.1269L31.9907 67.2605L31.6109 68.3141L22.9185 65.1805L23.2983 64.1269ZM27.2573 63.2176L34.0798 61.4655L33.624 62.7299L27.5366 64.3005L27.2573 63.2176ZM35.5801 57.7166C35.3554 58.3399 35.0183 58.8484 34.5689 59.242C34.1226 59.6268 33.5958 59.8635 32.9884 59.9521C32.3722 60.0375 31.7085 59.9521 30.9973 59.6957C30.2861 59.4393 29.725 59.0832 29.3139 58.6274C28.8939 58.1685 28.6334 57.6529 28.5321 57.0807C28.4308 56.5084 28.4894 55.9194 28.7078 55.3135C28.9294 54.6989 29.2494 54.224 29.6679 53.8887C30.0896 53.5446 30.5698 53.3408 31.1087 53.2771C31.6388 53.2102 32.1848 53.2781 32.7467 53.4806C32.896 53.5344 33.0305 53.5879 33.1503 53.641C33.27 53.6941 33.375 53.7468 33.4653 53.7992L31.5472 59.12L30.6121 58.7829L32.364 53.9231L32.2747 54.501C31.6425 54.2731 31.0919 54.2731 30.6229 54.5008C30.157 54.7198 29.8228 55.1103 29.6202 55.6722C29.4651 56.1024 29.4316 56.512 29.5196 56.9009C29.602 57.2778 29.8003 57.6222 30.1145 57.9339C30.4231 58.2336 30.8409 58.4785 31.3677 58.6684C31.8857 58.8551 32.3652 58.9288 32.806 58.8893C33.2469 58.8498 33.6252 58.7084 33.9411 58.4651C34.2514 58.2098 34.4873 57.8583 34.6487 57.4105C34.8228 56.9276 34.8714 56.5037 34.7947 56.1387C34.7211 55.7649 34.5595 55.4288 34.3098 55.1305L35.0963 54.4765C35.3347 54.7509 35.5161 55.0594 35.6407 55.4019C35.7684 55.7357 35.8304 56.1003 35.8267 56.4958C35.8174 56.8794 35.7352 57.2863 35.5801 57.7166ZM29.2317 48.4111L35.8695 50.8041C36.1944 50.9212 36.4691 50.916 36.6936 50.7886C36.9181 50.6612 37.0826 50.4526 37.187 50.1629C37.2788 49.9082 37.3141 49.6729 37.2927 49.4569C37.2714 49.2408 37.213 49.0313 37.1176 48.8282L38.1329 48.7776C38.2445 49.046 38.3023 49.3396 38.3064 49.6586C38.3136 49.9688 38.2524 50.3038 38.1226 50.6638C38.0023 50.9975 37.8329 51.2886 37.6143 51.5372C37.3869 51.7826 37.1143 51.9473 36.7963 52.0311C36.4728 52.1029 36.0987 52.0673 35.6741 51.9242L29.1416 49.5692L29.2317 48.4111ZM31.966 46.6883L32.8747 47.0159L31.156 51.7836L30.2472 51.456L31.966 46.6883ZM40.1069 45.1594C39.955 45.5808 39.732 45.9518 39.4378 46.2724C39.1468 46.5842 38.783 46.7953 38.3463 46.9058C37.9041 47.0043 37.3976 46.9507 36.8268 46.7449L32.507 45.1876L32.8868 44.134L36.9301 45.5916C37.5974 45.8322 38.1106 45.8535 38.4697 45.6555C38.82 45.4544 39.0901 45.0904 39.28 44.5636C39.3686 44.3178 39.4161 44.0621 39.4226 43.7965C39.4202 43.5278 39.3645 43.2696 39.2554 43.0219C39.1406 42.7623 38.9617 42.5291 38.7188 42.3225C38.4789 42.107 38.1659 41.9297 37.7795 41.7904L34.1972 40.499L34.577 39.4454L41.1622 41.8193L40.8299 42.7412L39.8052 42.4462C40.118 42.817 40.2954 43.2331 40.3373 43.6947C40.3736 44.1443 40.2969 44.6325 40.1069 45.1594Z" fill="#666666"/>
<path d="M47.027 66.2646C46.8879 66.6736 46.6884 67.0367 46.4284 67.3539C46.1651 67.6643 45.8499 67.912 45.4827 68.097C45.1174 68.2769 44.7061 68.3765 44.2489 68.3956C43.7917 68.4148 43.3006 68.335 42.7754 68.1564C42.2503 67.9778 41.8132 67.7391 41.4642 67.4401C41.117 67.1361 40.856 66.7938 40.6812 66.4133C40.5031 66.026 40.4111 65.6172 40.4053 65.1871C40.3944 64.7553 40.4637 64.3197 40.6131 63.8805C40.7161 63.5775 40.8552 63.3178 41.0302 63.1013C41.2069 62.8797 41.4187 62.7292 41.6654 62.6497C41.9088 62.5635 42.1895 62.5745 42.5077 62.6827C42.7702 62.772 42.976 62.904 43.1251 63.0786C43.2691 63.2515 43.3564 63.4502 43.3871 63.6747C43.4178 63.8992 43.391 64.1352 43.3069 64.3826C43.2193 64.6401 43.0966 64.8434 42.9389 64.9926C42.7761 65.14 42.5925 65.2325 42.3882 65.27C42.1788 65.3059 41.9631 65.286 41.7409 65.2104C41.5187 65.1349 41.3356 65.0191 41.1915 64.863C41.0474 64.707 40.9421 64.5444 40.8757 64.3754L41.1589 63.99C41.2473 64.144 41.3511 64.2695 41.4703 64.3663C41.5912 64.4581 41.7273 64.5298 41.8788 64.5813C42.106 64.6586 42.2975 64.6589 42.4531 64.5823C42.6087 64.5057 42.7183 64.3739 42.7819 64.1871C42.8523 63.9801 42.8407 63.7987 42.7472 63.643C42.6504 63.4805 42.501 63.3649 42.299 63.2962C42.1172 63.2344 41.9528 63.2291 41.8058 63.2805C41.6604 63.3269 41.5343 63.4163 41.4272 63.5489C41.3168 63.6748 41.2298 63.8311 41.1663 64.0179C41.1474 64.0734 41.1251 64.1391 41.0993 64.2148C41.0736 64.2906 41.052 64.3705 41.0346 64.4548C40.9822 64.758 40.9778 65.0607 41.0215 65.3629C41.0619 65.6583 41.1588 65.9448 41.3123 66.2223C41.4675 66.4948 41.6818 66.7423 41.9554 66.9649C42.2256 67.1808 42.5652 67.3582 42.9742 67.4973C43.3731 67.633 43.7463 67.7036 44.0937 67.7091C44.436 67.7128 44.7509 67.665 45.0382 67.5655C45.3222 67.4593 45.5718 67.3133 45.7872 67.1274C45.9992 66.9347 46.1793 66.7115 46.3276 66.4577C46.377 66.3787 46.4188 66.2972 46.453 66.2131C46.4822 66.1272 46.508 66.0515 46.5303 65.9859C46.599 65.7839 46.6288 65.5969 46.6197 65.4248C46.6056 65.251 46.55 65.0997 46.453 64.9709C46.3509 64.8404 46.2014 64.7417 46.0045 64.6747C45.7823 64.5992 45.5791 64.592 45.3949 64.6533C45.2074 64.7078 45.0749 64.8487 44.9977 65.0759C44.9307 65.2728 44.9431 65.4601 45.0347 65.6378C45.1231 65.8086 45.2985 65.9387 45.5611 66.028C45.7429 66.0899 45.9274 66.1188 46.1146 66.1149C46.3019 66.111 46.4817 66.0707 46.6542 65.9942L46.6157 66.505C46.438 66.5967 46.2361 66.6604 46.0099 66.6961C45.7803 66.7251 45.5267 66.6923 45.249 66.5979C45.0167 66.5189 44.8269 66.398 44.6794 66.2352C44.527 66.0707 44.4303 65.8744 44.3896 65.6465C44.3488 65.4186 44.3748 65.1683 44.4675 64.8956C44.5516 64.6482 44.6768 64.4457 44.8431 64.2882C45.0093 64.1307 45.2098 64.0298 45.4445 63.9857C45.6742 63.9399 45.9304 63.9651 46.2131 64.0612C46.5413 64.1729 46.7832 64.3396 46.9387 64.5615C47.0942 64.7834 47.1753 65.0419 47.1819 65.3371C47.1902 65.6273 47.1386 65.9364 47.027 66.2646ZM48.3915 62.2525C48.2885 62.5555 48.1478 62.8118 47.9694 63.0216C47.7911 63.2313 47.5844 63.3751 47.3495 63.4529C47.1146 63.5308 46.8659 63.525 46.6033 63.4357C46.3306 63.343 46.1199 63.1925 45.971 62.9841C45.8189 62.769 45.743 62.4869 45.7434 62.1378C45.7388 61.7869 45.8241 61.354 45.9993 60.839L46.4629 59.4756C46.5522 59.2131 46.6421 58.9902 46.7326 58.8069C46.8231 58.6236 46.9202 58.4707 47.0238 58.3482C47.1241 58.2189 47.2395 58.1117 47.3699 58.0265C47.5155 57.9295 47.6845 57.8715 47.8769 57.8525C48.0642 57.8317 48.2639 57.8574 48.476 57.9295C48.8597 58.06 49.1182 58.2775 49.2512 58.5818C49.386 58.8812 49.3821 59.2404 49.2396 59.6595C49.2001 59.7756 49.1496 59.8993 49.0881 60.0305C49.0266 60.1616 48.9584 60.2793 48.8836 60.3834L48.425 60.0669C48.471 59.998 48.5179 59.9182 48.5656 59.8274C48.6151 59.7316 48.6562 59.6357 48.6888 59.5398C48.7695 59.3025 48.7724 59.1035 48.6975 58.9428C48.6243 58.7771 48.4665 58.653 48.2242 58.5705C48.0525 58.5122 47.9033 58.5037 47.7765 58.5451C47.6447 58.5847 47.5321 58.6591 47.4387 58.7682C47.347 58.8722 47.267 58.9999 47.1986 59.1512C47.1269 59.2958 47.0644 59.4464 47.0111 59.6029L46.5114 61.0723C46.4238 61.3298 46.3643 61.5546 46.3328 61.7467C46.3029 61.9337 46.3019 62.1024 46.3297 62.2526C46.3575 62.386 46.41 62.4968 46.487 62.585C46.5608 62.6664 46.6708 62.732 46.8173 62.7818C47.0495 62.8608 47.2589 62.825 47.4453 62.6743C47.6267 62.5219 47.7672 62.2993 47.8668 62.0065C47.9424 61.7843 47.9739 61.5838 47.9615 61.4049C47.9458 61.2193 47.8692 61.0552 47.7318 60.9127C47.5961 60.7652 47.3767 60.6399 47.0738 60.5368L45.0364 59.8439L44.5933 61.1466L45.9566 61.6103L45.8743 62.2499L43.8445 61.5595L45.1917 57.5983L45.737 57.7838L45.2553 59.2001L47.1943 59.8596C47.5326 59.9746 47.7874 60.0951 47.9586 60.2209C48.1316 60.3417 48.2657 60.4775 48.3609 60.6282C48.4996 60.8499 48.5672 61.0983 48.5638 61.3732C48.5571 61.6413 48.4997 61.9344 48.3915 62.2525ZM50.5172 56.0025C50.4141 56.3055 50.2734 56.5618 50.0951 56.7716C49.9167 56.9813 49.7101 57.1251 49.4751 57.2029C49.2402 57.2808 48.989 57.2742 48.7214 57.1832C48.4538 57.0922 48.2455 56.9425 48.0967 56.7341C47.9445 56.519 47.8686 56.2369 47.8691 55.8878C47.8645 55.5369 47.9497 55.104 48.1249 54.589L48.5216 53.4226C48.6367 53.0843 48.7851 52.7968 48.967 52.5601C49.1456 52.3166 49.3559 52.129 49.5979 51.9972C49.8348 51.8637 50.0992 51.7903 50.3911 51.7769C50.6779 51.7618 50.9854 51.81 51.3136 51.9216C51.5257 51.9938 51.7174 52.0843 51.8887 52.1933C52.0652 52.304 52.2179 52.4264 52.3469 52.5604L52.7446 52.9069C52.957 53.1932 53.1094 53.5154 53.2016 53.8735C53.2939 54.2316 53.3219 54.6214 53.2856 55.0428C53.2544 55.466 53.1563 55.9199 52.9915 56.4046L52.958 56.5031C52.8378 56.8566 52.6857 57.171 52.5019 57.4465C52.3231 57.7237 52.117 57.924 51.8835 58.0474C51.65 58.1708 51.3944 58.1852 51.1167 58.0908C51.0056 58.053 50.9165 58.0002 50.8495 57.9323C50.7824 57.8644 50.7365 57.7841 50.7118 57.6911C50.6854 57.6033 50.6758 57.5071 50.6832 57.4026C50.6956 57.2998 50.7388 57.1398 50.8126 56.9227L52.7987 51.0832L53.344 51.2686L52.7026 53.1545L52.5326 53.6544L51.3373 57.1687C51.3167 57.2293 51.3037 57.2925 51.2982 57.3582C51.2995 57.4206 51.3431 57.4664 51.429 57.4956C51.5754 57.5454 51.7335 57.4781 51.9033 57.2936C52.0798 57.1058 52.2445 56.7872 52.3973 56.3378L52.4308 56.2393C52.5562 55.8707 52.64 55.5331 52.6824 55.2264C52.7247 54.9197 52.7281 54.6364 52.6926 54.3764C52.6621 54.1182 52.5961 53.8817 52.4945 53.6668L52.1151 53.242C52.0297 53.1454 51.9349 53.0596 51.8308 52.9848C51.7284 52.9049 51.6175 52.8334 51.4982 52.7703C51.3788 52.7071 51.2484 52.6515 51.107 52.6034C50.7536 52.4832 50.4409 52.4501 50.1691 52.5041C49.8972 52.5581 49.6662 52.6908 49.476 52.9022C49.2825 53.1068 49.1291 53.3757 49.0157 53.7089L48.6371 54.8223C48.5495 55.0798 48.4899 55.3046 48.4584 55.4967C48.4286 55.6837 48.4276 55.8524 48.4553 56.0026C48.4832 56.1361 48.5356 56.2468 48.6127 56.335C48.6864 56.4164 48.7965 56.482 48.9429 56.5318C49.1752 56.6108 49.3845 56.575 49.571 56.4243C49.7523 56.272 49.8928 56.0493 49.9924 55.7565C50.068 55.5343 50.0996 55.3338 50.0872 55.1549C50.0714 54.9693 49.9949 54.8053 49.8574 54.6628C49.7167 54.5135 49.4973 54.3882 49.1994 54.2869L47.162 53.5939L46.719 54.8967L48.0823 55.3603L48 55.9999L45.9701 55.3095L47.3173 51.3484L47.8627 51.5338L47.381 52.9502L49.3199 53.6096C49.6582 53.7246 49.913 53.8451 50.0843 53.9709C50.2572 54.0917 50.3913 54.2275 50.4866 54.3782C50.6252 54.6 50.6928 54.8483 50.6895 55.1232C50.6828 55.3913 50.6253 55.6844 50.5172 56.0025ZM53.2976 51.405L47.9201 49.5761L48.1416 48.9247L53.5191 50.7536L53.2976 51.405Z" fill="#FFB743"/>
<path d="M52.8124 99.9307C54.9744 66.5955 61.1167 52.7252 77 34.5" stroke="#EAEDFE" stroke-width="0.4"/>
<path d="M69.8018 100.027C53.254 63.6509 47.0265 44.4342 58.8018 19.0269" stroke="#EAEDFE" stroke-width="0.4"/>
<path d="M46.8028 100.033C26.1731 51.4473 24.6815 33.3659 31.8028 10.0329" stroke="#EAEDFE" stroke-width="0.4"/>
<circle cx="38.5" cy="30.5" r="3.5" fill="#EAEDFE"/>
<circle cx="53" cy="42" r="2" fill="#EAEDFE"/>
</svg>
