<svg width="102" height="92" viewBox="0 0 102 92" fill="none" xmlns="http://www.w3.org/2000/svg">
<path d="M1 5.67863C1 2.66597 3.65927 0.336427 6.64313 0.751902C45.5985 6.17606 66.5648 14.2473 97.3036 34.814C99.8026 36.486 100.237 39.9855 98.2409 42.2339L57.4131 88.2189C55.7464 90.0962 52.9476 90.4376 50.8425 89.0701C35.5604 79.1426 24.4003 74.9359 5.34831 72.1055C2.86466 71.7365 1 69.622 1 67.111V5.67863Z" fill="#E2E6FE"/>
<path d="M22.6097 45.1121C22.2349 44.9724 21.9171 44.7714 21.6563 44.5091C21.4005 44.2487 21.2045 43.9422 21.0684 43.5898C20.9372 43.2392 20.8791 42.8533 20.8939 42.4319C20.9087 42.0105 21.0009 41.5724 21.1704 41.1177C21.3791 40.558 21.6516 40.1018 21.988 39.7491C22.3294 39.3983 22.7022 39.1388 23.1064 38.9707C23.5174 38.7996 23.9339 38.7129 24.3559 38.7109C24.7797 38.7038 25.1816 38.7711 25.5614 38.9127C25.9611 39.0618 26.2823 39.2384 26.5249 39.4427C26.7675 39.647 26.9561 39.8739 27.0908 40.1233C27.2192 40.359 27.298 40.6132 27.3273 40.8859C27.3584 41.1537 27.3399 41.4627 27.2719 41.813C27.2039 42.1633 27.0796 42.5809 26.8988 43.0656L25.739 46.1764L25.0944 45.9361L26.1144 43.2001C26.2859 42.7403 26.4146 42.3415 26.5008 42.0036C26.5869 41.6658 26.6294 41.3685 26.6283 41.112C26.629 40.8504 26.5808 40.6133 26.4837 40.4007C26.3978 40.2036 26.2614 40.0275 26.0744 39.8724C25.8875 39.7173 25.6466 39.5848 25.3518 39.4749C25.0969 39.3799 24.8059 39.3283 24.4788 39.3202C24.1517 39.3121 23.8188 39.373 23.4801 39.5028C23.1464 39.6345 22.8316 39.853 22.5356 40.1582C22.2397 40.4633 21.9921 40.8833 21.7927 41.418C21.6772 41.7278 21.6019 42.0214 21.5668 42.2986C21.5387 42.5727 21.5457 42.8286 21.588 43.0663C21.6302 43.3041 21.7037 43.5193 21.8083 43.712C21.9129 43.9047 22.0437 44.073 22.2006 44.2169L22.3094 44.2916C22.3963 44.3638 22.4869 44.426 22.5813 44.4783C22.6806 44.5324 22.7828 44.579 22.8877 44.6182C23.1426 44.7132 23.3711 44.7187 23.5732 44.6347C23.7821 44.5475 23.9406 44.359 24.0487 44.0691C24.1325 43.8443 24.139 43.6361 24.0681 43.4446C24.0041 43.2499 23.8621 43.1116 23.6422 43.0297C23.4273 42.9495 23.2288 42.9552 23.0467 43.0467C22.8646 43.1382 22.727 43.3089 22.6339 43.5587C22.5668 43.7386 22.5325 43.9222 22.531 44.1095C22.5294 44.2968 22.5669 44.4786 22.6434 44.6552L22.1639 44.613C22.0775 44.4328 22.0181 44.2256 21.9858 43.9916C21.9554 43.7526 21.9961 43.4832 22.1079 43.1833C22.1861 42.9734 22.3053 42.7987 22.4655 42.6592C22.6275 42.5147 22.8265 42.4238 23.0623 42.3866C23.2982 42.3493 23.5636 42.3856 23.8584 42.4955C24.1033 42.5868 24.3011 42.7204 24.4519 42.8961C24.6045 43.0668 24.6985 43.2727 24.734 43.5135C24.7762 43.7513 24.7452 44.0101 24.6409 44.2899C24.5198 44.6148 24.351 44.8535 24.1347 45.0063C23.9234 45.1608 23.6851 45.2428 23.4198 45.252C23.1596 45.2631 22.8895 45.2165 22.6097 45.1121ZM28.3243 47.2428C28.0245 47.131 27.7723 46.9829 27.5679 46.7985C27.3634 46.6141 27.2257 46.4034 27.1547 46.1663C27.0837 45.9293 27.0966 45.6808 27.1935 45.4209C27.2941 45.1511 27.4507 44.9448 27.6633 44.8021C27.8828 44.6562 28.167 44.5886 28.5159 44.5991C28.8668 44.6047 29.297 44.7025 29.8068 44.8926L32.4378 45.8735L32.2422 46.3982L29.5586 45.3977C29.3038 45.3027 29.0808 45.2366 28.8897 45.1996C28.7036 45.1643 28.5351 45.1584 28.3841 45.1818C28.2499 45.2058 28.1376 45.255 28.0473 45.3294C27.9638 45.4008 27.895 45.5089 27.841 45.6538C27.7553 45.8837 27.785 46.094 27.9302 46.2847C28.0772 46.4705 28.2957 46.6174 28.5855 46.7254C28.8054 46.8074 29.0049 46.8448 29.184 46.8376C29.37 46.8272 29.5363 46.7554 29.6827 46.6222C29.836 46.4858 29.9676 46.2702 30.0775 45.9754L30.8293 43.959L29.54 43.4783L29.037 44.8276L28.4001 44.7267L29.1491 42.7178L33.0694 44.1794L32.8682 44.7192L31.4665 44.1965L30.751 46.1155C30.6262 46.4503 30.4984 46.7015 30.3676 46.869C30.2419 47.0384 30.1023 47.1685 29.9489 47.2593C29.7232 47.3915 29.473 47.4519 29.1983 47.4405C28.9305 47.4261 28.6392 47.3602 28.3243 47.2428ZM33.6514 49.2289C33.3865 49.1301 33.1684 48.9748 32.9969 48.7629C32.8274 48.546 32.7298 48.2734 32.7042 47.9451C32.6836 47.6187 32.7571 47.2306 32.9248 46.7808C33.1242 46.2461 33.3959 45.838 33.7399 45.5564C34.0889 45.2767 34.4719 45.1121 34.8888 45.0627C35.3057 45.0132 35.719 45.0648 36.1288 45.2176C36.5086 45.3592 36.812 45.5378 37.039 45.7533C37.2728 45.9657 37.4375 46.2036 37.5328 46.4668C37.6351 46.7269 37.6777 47.0018 37.6608 47.2915C37.6507 47.578 37.5907 47.8687 37.4808 48.1635C37.3616 48.4834 37.2204 48.7552 37.0573 48.979C36.8941 49.2027 36.7216 49.4059 36.5397 49.5886L38.5411 50.3348L39.8882 46.7217L40.5328 46.9621L38.9846 51.1148L35.6788 49.8823L35.8249 49.3989C36.0051 49.2669 36.1776 49.0864 36.3426 48.8577C36.5145 48.6257 36.6637 48.3399 36.7904 48.0001C36.9227 47.6453 36.973 47.3196 36.9412 47.0232C36.9094 46.7267 36.8028 46.4707 36.6214 46.2551C36.4449 46.0413 36.2018 45.8766 35.892 45.7611C35.5422 45.6307 35.2107 45.6039 34.8974 45.6806C34.5861 45.7524 34.3089 45.908 34.0659 46.1476C33.8248 46.3821 33.6362 46.6818 33.5002 47.0466C33.3754 47.3814 33.3132 47.6627 33.3136 47.8906C33.3209 48.1153 33.3728 48.2968 33.4692 48.4352C33.5724 48.5705 33.7065 48.6688 33.8714 48.7303C34.0013 48.7788 34.124 48.7932 34.2395 48.7736C34.3618 48.7509 34.4709 48.6949 34.5669 48.6054C34.6628 48.516 34.7406 48.3913 34.8002 48.2314C34.8934 47.9815 34.8992 47.7674 34.8177 47.589C34.7381 47.4056 34.5959 47.2758 34.391 47.1994C34.1911 47.1249 33.9841 47.1075 33.7701 47.1472C33.556 47.1869 33.3468 47.2597 33.1422 47.3656L33.2086 46.8439C33.4238 46.7249 33.6618 46.6515 33.9226 46.6235C34.1904 46.5924 34.4467 46.6225 34.6915 46.7138C35.0513 46.8479 35.3002 47.0659 35.4381 47.3678C35.581 47.6715 35.5826 48.0108 35.4428 48.3856C35.3404 48.6604 35.1994 48.8782 35.0199 49.039C34.8405 49.1998 34.6337 49.2963 34.3997 49.3286C34.1707 49.3627 33.9212 49.3295 33.6514 49.2289ZM37.6261 44.8196C37.4812 44.7656 37.3781 44.6759 37.3166 44.5506C37.2571 44.4202 37.2553 44.2801 37.3112 44.1302C37.3652 43.9852 37.4574 43.883 37.5877 43.8234C37.7181 43.7639 37.8557 43.7611 38.0006 43.8152C38.1456 43.8692 38.2478 43.9614 38.3073 44.0917C38.3669 44.2221 38.3697 44.3597 38.3156 44.5047C38.2597 44.6546 38.1666 44.7593 38.0363 44.8189C37.9078 44.8734 37.7711 44.8737 37.6261 44.8196ZM41.4767 52.1464C41.2119 52.0477 40.9937 51.8924 40.8223 51.6805C40.6527 51.4635 40.5551 51.191 40.5295 50.8627C40.5089 50.5362 40.5825 50.1481 40.7502 49.6984C40.9495 49.1637 41.2212 48.7555 41.5653 48.474C41.9143 48.1943 42.2973 48.0297 42.7141 47.9802C43.131 47.9307 43.5444 47.9824 43.9541 48.1352C44.3339 48.2768 44.6373 48.4553 44.8643 48.6709C45.0982 48.8833 45.2628 49.1211 45.3582 49.3844C45.4604 49.6445 45.5031 49.9194 45.4862 50.209C45.4761 50.4956 45.4161 50.7863 45.3062 51.0811C45.1869 51.4009 45.0458 51.6727 44.8826 51.8965C44.7195 52.1203 44.547 52.3235 44.3651 52.5061L46.3665 53.2523L47.7136 49.6393L48.3582 49.8796L46.8099 54.0324L43.5042 52.7999L43.6503 52.3165C43.8304 52.1844 44.003 52.004 44.168 51.7752C44.3398 51.5433 44.4891 51.2574 44.6158 50.9176C44.7481 50.5628 44.7983 50.2372 44.7666 49.9407C44.7348 49.6443 44.6282 49.3883 44.4467 49.1726C44.2703 48.9589 44.0272 48.7942 43.7173 48.6787C43.3675 48.5483 43.036 48.5214 42.7228 48.5982C42.4115 48.6699 42.1343 48.8256 41.8913 49.0651C41.6502 49.2997 41.4616 49.5993 41.3256 49.9641C41.2008 50.299 41.1386 50.5803 41.139 50.8081C41.1463 51.0328 41.1981 51.2144 41.2945 51.3528C41.3978 51.488 41.5319 51.5864 41.6968 51.6479C41.8267 51.6963 41.9494 51.7108 42.0648 51.6912C42.1871 51.6685 42.2963 51.6124 42.3922 51.523C42.4882 51.4335 42.566 51.3089 42.6256 51.1489C42.7188 50.8991 42.7246 50.685 42.6431 50.5066C42.5635 50.3232 42.4212 50.1933 42.2163 50.1169C42.0164 50.0424 41.8095 50.025 41.5954 50.0648C41.3814 50.1045 41.1721 50.1773 40.9676 50.2832L41.034 49.7615C41.2491 49.6425 41.4871 49.569 41.748 49.5411C42.0157 49.51 42.272 49.5401 42.5169 49.6314C42.8767 49.7655 43.1256 49.9835 43.2635 50.2854C43.4064 50.5891 43.4079 50.9284 43.2682 51.3031C43.1657 51.578 43.0248 51.7958 42.8453 51.9566C42.6658 52.1173 42.4591 52.2139 42.2251 52.2461C41.996 52.2803 41.7466 52.2471 41.4767 52.1464ZM48.1288 54.5241L49.6771 50.3713L53.6874 51.8665L53.4862 52.4062L52.2119 51.9311L50.8648 55.5442L50.2202 55.3038L51.5672 51.6908L50.1205 51.1514L48.7735 54.7644L48.1288 54.5241ZM54.9175 57.0552L56.4658 52.9024L57.1104 53.1427L55.7634 56.7558L58.3795 57.7312L59.7265 54.1181L60.3712 54.3585L58.8229 58.5112L54.9175 57.0552ZM54.0322 56.819C53.8473 56.7501 53.6961 56.6595 53.5785 56.5474C53.4678 56.4321 53.3855 56.3018 53.3315 56.1565C53.3045 56.061 53.2837 55.9565 53.2691 55.8429C53.2596 55.7312 53.2687 55.5923 53.2964 55.4262C53.3292 55.262 53.3931 55.0524 53.4881 54.7976L54.4719 52.159L55.1165 52.3993L54.1915 54.8805C54.1058 55.1104 54.0375 55.324 53.9867 55.5213C53.9377 55.7137 53.9446 55.8785 54.0073 56.0157C54.0386 56.0843 54.0812 56.1457 54.135 56.1999C54.1956 56.251 54.2734 56.2942 54.3684 56.3296C54.5133 56.3836 54.6622 56.3965 54.8151 56.3681C54.9729 56.3416 55.1385 56.2639 55.3118 56.1349L55.0565 56.774C54.9261 56.8335 54.7736 56.8763 54.5989 56.9022C54.426 56.9231 54.2371 56.8954 54.0322 56.819ZM57.7643 52.3278C57.6194 52.2738 57.5162 52.1841 57.4548 52.0588C57.3953 51.9284 57.3935 51.7883 57.4493 51.6384C57.5034 51.4934 57.5956 51.3912 57.7259 51.3316C57.8563 51.2721 57.9939 51.2693 58.1388 51.3234C58.2837 51.3774 58.386 51.4696 58.4455 51.5999C58.5051 51.7303 58.5078 51.8679 58.4538 52.0129C58.3979 52.1628 58.3048 52.2675 58.1744 52.3271C58.046 52.3816 57.9092 52.3819 57.7643 52.3278Z" fill="#FFB743"/>
<path d="M42.2687 26.6774L39.0858 35.3519L38.0869 34.9854L40.0883 29.531L41.0457 27.2875L41.0325 27.2827L35.34 33.9775L34.4463 33.6496L34.4347 24.8618L34.4215 24.8569L33.7007 27.1872L31.6993 32.6417L30.7004 32.2752L33.8833 23.6007L35.4999 24.1938L35.4719 30.1635L35.3333 32.5733L35.3596 32.5829L36.8208 30.6734L40.6521 26.0843L42.2687 26.6774ZM47.0397 33.4536C47.2197 32.9629 47.2265 32.5379 47.0601 32.1786C46.8969 31.8105 46.5744 31.5381 46.0925 31.3613C45.6368 31.1941 45.2143 31.1534 44.8249 31.2392C44.4388 31.3162 44.0908 31.5464 43.7811 31.9299L43.1197 31.0907C43.475 30.6643 43.9439 30.389 44.5263 30.2647C45.112 30.1316 45.7554 30.1937 46.4563 30.4509C46.9295 30.6245 47.3283 30.8653 47.6527 31.1732C47.9804 31.4724 48.1927 31.8286 48.2895 32.242C48.3984 32.6498 48.358 33.1121 48.1683 33.6291L47.0012 36.8098C46.8855 37.1252 46.9941 37.344 47.3271 37.4662C47.4936 37.5273 47.6637 37.5648 47.8375 37.5789L47.4811 38.3876C47.2737 38.4109 47.0298 38.3712 46.7494 38.2683C46.4953 38.175 46.2852 38.0433 46.119 37.8729C45.9529 37.7026 45.8482 37.5002 45.805 37.2656C45.7651 37.0223 45.7997 36.7517 45.909 36.4537L45.9573 36.3223L46.2057 36.4582C45.9751 36.7613 45.6926 36.9758 45.3581 37.1016C45.0269 37.2187 44.6842 37.2719 44.3302 37.2613C43.9794 37.242 43.6507 37.176 43.344 37.0635C42.9585 36.922 42.6233 36.7245 42.3386 36.4709C42.0539 36.2173 41.859 35.9221 41.7539 35.5853C41.6608 35.2429 41.6866 34.8746 41.8313 34.4803C42.0113 33.9896 42.3213 33.646 42.7612 33.4496C43.2131 33.2475 43.7535 33.1973 44.3824 33.2988L47.1728 33.7411L46.8545 34.6085L44.5793 34.2658C44.1178 34.1959 43.753 34.2012 43.4849 34.2818C43.2167 34.3623 43.0312 34.5428 42.9283 34.8232C42.8286 35.0948 42.8518 35.3568 42.9978 35.6092C43.1557 35.8561 43.4319 36.0518 43.8262 36.1965C44.0803 36.2898 44.3325 36.3475 44.5828 36.3698C44.8451 36.3865 45.0924 36.3629 45.3246 36.2989C45.56 36.2263 45.7673 36.1085 45.9464 35.9455C46.1287 35.7738 46.2713 35.5477 46.3742 35.2674L47.0397 33.4536ZM49.0886 39.0222L51.4998 32.4506L52.3542 32.7641L52.1033 33.8948C52.4352 33.5593 52.8133 33.3551 53.2378 33.2821C53.671 33.2124 54.1417 33.2708 54.6499 33.4573C54.7638 33.4991 54.8832 33.5528 55.0082 33.6186C55.142 33.6876 55.2474 33.766 55.3245 33.8539L54.7885 34.7459C54.7049 34.6755 54.6094 34.6106 54.502 34.5513C54.3945 34.492 54.2356 34.4237 54.0253 34.3466C53.7537 34.2469 53.4487 34.2245 53.1105 34.2793C52.781 34.3374 52.4648 34.4947 52.1618 34.7514C51.862 34.9993 51.6222 35.3686 51.4421 35.8593L50.14 39.408L49.0886 39.0222ZM56.4888 41.8866C55.8492 41.6519 55.3076 41.2991 54.864 40.8282C54.4292 40.3604 54.1588 39.8238 54.0529 39.2182L55.183 38.9022C55.2278 39.3759 55.3925 39.7943 55.6769 40.1571C55.9701 40.5232 56.3795 40.8026 56.9053 40.9955C57.3697 41.1659 57.7654 41.2117 58.0926 41.133C58.423 41.0454 58.6412 40.857 58.7473 40.5679C58.8148 40.3839 58.8146 40.1949 58.7466 40.0009C58.6905 39.8014 58.5089 39.6055 58.2017 39.4133L56.745 38.506C56.1536 38.1399 55.774 37.752 55.6061 37.3425C55.447 36.9361 55.4511 36.5051 55.6183 36.0495C55.7501 35.6903 55.9714 35.3987 56.2822 35.1747C56.6018 34.9539 56.9822 34.8251 57.4232 34.7881C57.8763 34.7455 58.3613 34.8191 58.8783 35.0088C59.5267 35.2467 60.0277 35.5747 60.3813 35.9927C60.7349 36.4108 60.9361 36.8922 60.9847 37.437L59.892 37.6922C59.8845 37.252 59.7464 36.8832 59.4777 36.5858C59.2123 36.2796 58.8999 36.0606 58.5407 35.9288C58.2253 35.8131 57.9376 35.7572 57.6776 35.7612C57.4264 35.7685 57.2105 35.8285 57.03 35.9412C56.8614 36.0483 56.7418 36.1983 56.671 36.3911C56.6003 36.5838 56.6001 36.7876 56.6705 37.0023C56.744 37.2082 56.9476 37.4121 57.2811 37.614L58.7986 38.5586C59.3669 38.9063 59.7223 39.2654 59.8648 39.6358C60.0073 40.0062 60.0045 40.3929 59.8566 40.796C59.7055 41.2078 59.4626 41.5312 59.1278 41.7663C58.7962 41.9926 58.4027 42.1167 57.9474 42.1385C57.492 42.1603 57.0058 42.0763 56.4888 41.8866Z" fill="#666666"/>
<path d="M1.00081 51.2288C30.5327 53.039 44.7972 58.7631 67.068 76.8669" stroke="#EAEDFE" stroke-width="0.4"/>
<path d="M1.00041 43.8274C24.6134 58.0348 37.2729 67.3751 58.3211 87.3121" stroke="#EAEDFE" stroke-width="0.4"/>
<path d="M1.14139 66.4998C2.43867 67.3536 10.2579 72.501 9.99951 72.9995" stroke="#EAEDFE" stroke-width="0.4"/>
</svg>
