<svg width="96" height="103" viewBox="0 0 96 103" fill="none" xmlns="http://www.w3.org/2000/svg">
<path d="M2.84904 54.5427C1.25183 52.5202 1.39816 49.6154 3.22932 47.802L47.4133 4.04704C49.572 1.90932 53.1324 2.18389 54.9263 4.63575C77.0111 34.8204 87.2503 55.2692 94.4708 92.4717C95.0401 95.4053 92.8836 98.1624 89.9009 98.3475L27.7348 102.206C25.0806 102.371 22.7724 100.421 22.3943 97.7885C19.867 80.1914 15.1105 70.0689 2.84904 54.5427Z" fill="#E2E6FE"/>
<path d="M41.4551 55.8486L43.5826 55.0742L42.1707 51.1952L46.3355 49.6793L46.5708 50.3258L42.9473 51.6447L44.1239 54.8772L47.7473 53.5584L47.9826 54.2049L41.6904 56.4951L41.4551 55.8486ZM44.6835 58.3796C44.574 58.0789 44.5232 57.7909 44.5308 57.5157C44.5385 57.2405 44.6095 56.999 44.7439 56.7912C44.8782 56.5833 45.0757 56.432 45.3363 56.3371C45.6069 56.2386 45.8655 56.224 46.112 56.2932C46.3654 56.3655 46.6013 56.5379 46.8196 56.8104C47.043 57.081 47.2477 57.4719 47.4337 57.983L47.8305 59.0731C47.9892 59.5091 48.0754 59.9176 48.0892 60.2985C48.108 60.6776 48.0267 61.008 47.8455 61.2896C47.666 61.5763 47.3583 61.799 46.9223 61.9577C46.5865 62.0799 46.283 62.1194 46.0119 62.0762C45.7358 62.0348 45.4705 61.9298 45.2162 61.7613C45.0408 61.6379 44.8797 61.4837 44.7329 61.2987C44.5879 61.1188 44.4537 60.8981 44.3301 60.6366C44.2015 60.3769 44.0716 60.0666 43.9402 59.7058L43.6311 58.8563C43.5544 58.6458 43.4801 58.4884 43.4081 58.3841C43.3361 58.2797 43.257 58.195 43.1709 58.1299C43.0865 58.0698 42.9861 58.0354 42.8694 58.0268C42.7528 58.0181 42.6117 58.0439 42.4464 58.1041C42.3712 58.1315 42.3019 58.1595 42.2386 58.1883C42.1703 58.2188 42.1069 58.2475 42.0486 58.2744L41.7942 57.6689C41.8789 57.6211 41.9746 57.5721 42.0812 57.5219C42.1828 57.4736 42.2762 57.4339 42.3614 57.4029C42.5819 57.3226 42.7844 57.2943 42.969 57.318C43.1485 57.3434 43.3087 57.4015 43.4495 57.4921C43.5475 57.5586 43.6339 57.6322 43.7086 57.7128C43.7802 57.8003 43.8488 57.903 43.9145 58.021C43.9769 58.1458 44.0383 58.2909 44.0984 58.4563L44.3967 59.2757C44.559 59.7218 44.7122 60.0803 44.8563 60.3514C44.9954 60.6243 45.1369 60.8339 45.2809 60.9801C45.42 61.1281 45.5731 61.237 45.7403 61.3067C45.8871 61.3668 46.0422 61.3954 46.2058 61.3926C46.3762 61.393 46.5542 61.3595 46.7396 61.292C46.9852 61.2026 47.1649 61.0805 47.2788 60.9255C47.3944 60.7756 47.4623 60.6033 47.4823 60.4087C47.5041 60.2192 47.4936 60.0187 47.4507 59.8073C47.4096 59.6009 47.3517 59.3949 47.2769 59.1894L46.8883 58.122C46.7953 57.8664 46.7009 57.6538 46.6052 57.4843C46.5113 57.3199 46.4064 57.1878 46.2907 57.088C46.1854 57.0015 46.0751 56.948 45.9598 56.9275C45.8514 56.9102 45.7245 56.928 45.5791 56.9809C45.3486 57.0648 45.2078 57.2239 45.1569 57.4581C45.1109 57.6905 45.1408 57.9521 45.2466 58.2427C45.3269 58.4632 45.4279 58.6393 45.5496 58.771C45.6781 58.9058 45.8406 58.9857 46.037 59.0107C46.2402 59.0389 46.4897 58.9992 46.7854 58.8916L48.8076 58.1556L48.337 56.8625L46.9838 57.3551L46.6474 56.8049L48.6621 56.0717L50.0931 60.0033L49.5518 60.2003L49.0402 58.7946L47.1157 59.495C46.7799 59.6172 46.5058 59.6829 46.2935 59.6921C46.083 59.7063 45.8934 59.6845 45.7248 59.6266C45.4778 59.5406 45.2695 59.3894 45.1 59.173C44.9372 58.9598 44.7984 58.6953 44.6835 58.3796ZM46.9085 64.4928C46.8118 64.2272 46.7885 63.9604 46.8386 63.6925C46.8936 63.4227 47.0378 63.1716 47.271 62.9392C47.506 62.7117 47.8491 62.5159 48.3002 62.3517C48.7963 62.1711 49.264 62.1229 49.7033 62.2071C50.1494 62.2945 50.5423 62.5005 50.8818 62.8253C51.2264 63.1483 51.4954 63.5754 51.6887 64.1066C51.7763 64.3472 51.8392 64.5825 51.8776 64.8126C51.9227 65.0459 51.9417 65.2773 51.9345 65.507C51.9323 65.7348 51.9041 65.9693 51.85 66.2103L51.6601 66.6711C51.5212 67.0224 51.3106 67.3403 51.0281 67.6247C50.7507 67.9073 50.4065 68.1234 49.9956 68.273C49.6598 68.3952 49.3609 68.4472 49.0989 68.4291C48.8437 68.4141 48.6247 68.3349 48.442 68.1914C48.2661 68.0511 48.1325 67.8557 48.0413 67.6051C47.9355 67.3144 47.914 67.0526 47.9768 66.8198C48.0414 66.5919 48.1676 66.3928 48.3553 66.2223C48.5498 66.055 48.7899 65.9194 49.0756 65.8154C49.3412 65.7187 49.6018 65.6551 49.8574 65.6245C50.1149 65.5989 50.3698 65.6054 50.6222 65.6441C50.8747 65.6827 51.1246 65.7535 51.3721 65.8564L51.8171 66.1201C51.962 66.2376 52.0981 66.3697 52.2253 66.5164C52.3524 66.6631 52.4774 66.8503 52.6 67.0781C52.7295 67.3091 52.8608 67.6075 52.9939 67.9734L53.8121 70.2211L53.2708 70.4181L52.8056 69.1402L49.1822 70.459L48.9469 69.8125L52.5703 68.4936L52.3897 67.9975C52.3296 67.8321 52.2655 67.6795 52.1976 67.5396C52.1346 67.3979 52.0644 67.2674 51.9869 67.148C51.9144 67.0269 51.8312 66.9152 51.7374 66.8132C51.6435 66.7112 51.5354 66.6171 51.4133 66.531C51.2479 66.4039 51.0473 66.3208 50.8118 66.2817C50.5812 66.2408 50.3347 66.234 50.0722 66.2614C49.8166 66.292 49.5685 66.3511 49.328 66.4387C48.9821 66.5645 48.7482 66.7093 48.6261 66.8729C48.5041 67.0365 48.4768 67.211 48.5443 67.3965C48.6008 67.5518 48.6922 67.6548 48.8184 67.7053C48.9465 67.7609 49.0896 67.7797 49.2477 67.7619C49.4058 67.7441 49.56 67.7078 49.7104 67.6531C50.1063 67.509 50.4339 67.3018 50.6931 67.0315C50.9591 66.7644 51.152 66.4445 51.2717 66.0718C51.3513 65.776 51.3727 65.476 51.3357 65.1716C51.2987 64.8672 51.2218 64.5547 51.1051 64.2339C50.9701 63.863 50.7848 63.5644 50.5491 63.338C50.3135 63.1116 50.0478 62.9586 49.752 62.879C49.4581 62.8043 49.1492 62.7976 48.8252 62.8587C48.7482 62.8811 48.6737 62.9025 48.6017 62.923C48.5348 62.9417 48.4812 62.9584 48.4411 62.973C48.1154 63.0915 47.8684 63.224 47.7004 63.3703C47.5341 63.5216 47.4321 63.678 47.3943 63.8393C47.3583 64.0056 47.3705 64.1714 47.4307 64.3368C47.4799 64.4721 47.5494 64.5774 47.6392 64.6525C47.7358 64.7309 47.8484 64.7751 47.9769 64.785C48.1072 64.8 48.2526 64.7784 48.4129 64.72C48.6635 64.6288 48.8303 64.4943 48.9131 64.3166C49.001 64.137 49.0076 63.9445 48.9328 63.739C48.8598 63.5386 48.7388 63.3698 48.5697 63.2327C48.4006 63.0956 48.2094 62.9835 47.9962 62.8966L48.4362 62.6087C48.6664 62.6952 48.8767 62.8286 49.0672 63.009C49.2646 63.1926 49.4079 63.4072 49.4973 63.6527C49.6287 64.0136 49.6242 64.3444 49.4839 64.6452C49.3455 64.951 49.0884 65.1722 48.7125 65.3091C48.4368 65.4094 48.1796 65.4434 47.9409 65.4111C47.7021 65.3788 47.4945 65.2841 47.3181 65.127C47.1436 64.9748 47.007 64.7635 46.9085 64.4928ZM53.1053 65.3788C53.0524 65.2335 53.0537 65.0968 53.1092 64.9688C53.1698 64.8389 53.2753 64.7466 53.4256 64.6918C53.571 64.6389 53.7086 64.6428 53.8385 64.7033C53.9683 64.7639 54.0597 64.8669 54.1126 65.0122C54.1655 65.1575 54.1617 65.2951 54.1011 65.425C54.0406 65.5549 53.9376 65.6463 53.7923 65.6992C53.6419 65.7539 53.5018 65.751 53.3719 65.6904C53.2471 65.628 53.1582 65.5242 53.1053 65.3788Z" fill="#FFB743"/>
<path d="M57.4286 36.9366L48.9005 40.4931L48.4909 39.5111L53.8533 37.2748L56.1501 36.4534L56.1447 36.4405L47.3647 36.8105L46.9983 35.9318L53.4396 29.954L53.4342 29.9411L51.2344 30.995L45.872 33.2313L45.4625 32.2492L53.9906 28.6927L54.6534 30.2821L50.2533 34.3165L48.3907 35.8517L48.4015 35.8776L50.7954 35.6528L56.7658 35.3473L57.4286 36.9366ZM50.9359 45.7375C50.6808 45.1259 50.5862 44.5232 50.6521 43.9295C50.7216 43.3443 50.9504 42.8141 51.3387 42.3387C51.7356 41.8597 52.2829 41.4747 52.9806 41.1837C53.6784 40.8927 54.3328 40.7765 54.9437 40.8352C55.5634 40.8903 56.1037 41.0948 56.5647 41.4486C57.0257 41.8024 57.3802 42.2765 57.6281 42.8708C57.8795 43.4738 57.9641 44.0403 57.8817 44.5701C57.8029 45.1086 57.5862 45.5833 57.2317 45.994C56.8857 46.4012 56.4371 46.7198 55.8858 46.9497C55.7394 47.0108 55.604 47.0621 55.4799 47.1038C55.3557 47.1455 55.2426 47.1775 55.1407 47.1998L52.9636 41.9795L53.8811 41.5969L55.8695 46.3649L55.5452 45.8783C56.1654 45.6196 56.5716 45.2479 56.7639 44.7633C56.9597 44.2872 56.9427 43.7735 56.7128 43.2222C56.5368 42.8001 56.285 42.4753 55.9576 42.2478C55.6423 42.0254 55.2636 41.9052 54.8213 41.8874C54.3912 41.8746 53.9178 41.976 53.4009 42.1915C52.8927 42.4035 52.4893 42.6729 52.1907 42.9996C51.8922 43.3264 51.7085 43.6861 51.6397 44.0789C51.5831 44.4766 51.6464 44.8952 51.8296 45.3345C52.0272 45.8083 52.2775 46.1539 52.5805 46.3713C52.8872 46.5974 53.2333 46.7362 53.6188 46.7878L53.4802 47.8012C53.1191 47.7597 52.777 47.6546 52.4538 47.486C52.1343 47.326 51.8424 47.0989 51.5781 46.8046C51.326 46.5153 51.1119 46.1596 50.9359 45.7375ZM53.0489 50.4407L59.5096 47.7463L59.8599 48.5862L58.8596 49.1702C59.3313 49.1859 59.7381 49.3247 60.0799 49.5866C60.4253 49.8572 60.7022 50.2423 60.9106 50.7419C60.9573 50.8539 60.9989 50.9781 61.0356 51.1145C61.0759 51.2595 61.0899 51.3901 61.0777 51.5065L60.059 51.7189C60.054 51.6098 60.0367 51.4957 60.0072 51.3765C59.9777 51.2573 59.9199 51.0944 59.8337 50.8876C59.7223 50.6206 59.5316 50.3816 59.2616 50.1706C58.9952 49.9682 58.6649 49.843 58.2707 49.795C57.8852 49.7435 57.4512 49.8183 56.9688 50.0194L53.48 51.4744L53.0489 50.4407ZM62.8698 55.4398C63.0566 55.8878 63.1511 56.3085 63.1534 56.7019C63.1593 57.1039 63.0851 57.4838 62.9308 57.8413C62.7766 58.1989 62.5552 58.5289 62.2667 58.8312L61.392 58.0432C61.748 57.7329 61.9744 57.3908 62.0712 57.0167C62.1802 56.6476 62.1413 56.2391 61.9545 55.7912C61.7749 55.3605 61.5213 55.0314 61.1939 54.8039C60.875 54.5728 60.4963 54.4527 60.0576 54.4435C59.6275 54.4307 59.1541 54.5321 58.6372 54.7476C58.129 54.9596 57.7238 55.2246 57.4216 55.5428C57.1195 55.8609 56.934 56.2163 56.8652 56.6091C56.805 56.9982 56.8647 57.4082 57.0444 57.8389C57.1845 58.1748 57.3565 58.4419 57.5604 58.6399C57.768 58.8467 58.0032 58.9862 58.266 59.0587C58.5323 59.1397 58.8202 59.1511 59.1297 59.0928L59.1925 60.1891C58.7351 60.2079 58.3105 60.1474 57.9184 60.0075C57.53 59.8763 57.1828 59.6621 56.8768 59.3649C56.5831 59.0728 56.341 58.6985 56.1506 58.2419C55.8992 57.6389 55.8082 57.0449 55.8776 56.4597C55.9471 55.8746 56.1759 55.3443 56.5642 54.8689C56.9611 54.3899 57.5084 54.0049 58.2061 53.7139C58.9039 53.4229 59.5583 53.3068 60.1693 53.3654C60.7889 53.4205 61.331 53.6293 61.7956 53.9917C62.2602 54.3541 62.6183 54.8368 62.8698 55.4398ZM59.0259 65.1364C58.8534 64.7229 58.7675 64.2986 58.7681 63.8636C58.7722 63.4371 58.8981 63.0357 59.1457 62.6594C59.4055 62.2882 59.8153 61.9858 60.3753 61.7523L64.6135 59.9848L65.0446 61.0185L61.0777 62.6728C60.423 62.9459 60.03 63.2766 59.8988 63.665C59.7761 64.0499 59.8226 64.5008 60.0381 65.0176C60.1387 65.2588 60.2763 65.4795 60.4508 65.6798C60.6339 65.8765 60.8494 66.0293 61.0971 66.1384C61.357 66.2524 61.6464 66.3037 61.9651 66.2921C62.2875 66.2891 62.6382 66.2086 63.0172 66.0505L66.5318 64.5848L66.9629 65.6185L60.5022 68.3129L60.125 67.4084L61.0801 66.9342C60.5991 66.8719 60.1873 66.6847 59.8447 66.3725C59.5144 66.0653 59.2414 65.6533 59.0259 65.1364ZM61.5055 70.7187L67.9662 68.0243L68.3165 68.8642L67.3162 69.4482C67.7879 69.4639 68.1947 69.6027 68.5365 69.8646C68.8819 70.1352 69.1588 70.5203 69.3672 71.0199C69.4139 71.1319 69.4555 71.2561 69.4922 71.3925C69.5325 71.5375 69.5465 71.6682 69.5343 71.7845L68.5156 71.9969C68.5106 71.8878 68.4933 71.7737 68.4638 71.6545C68.4344 71.5353 68.3765 71.3724 68.2903 71.1656C68.1789 70.8986 67.9882 70.6596 67.7182 70.4486C67.4518 70.2462 67.1215 70.121 66.7273 70.073C66.3418 70.0215 65.9078 70.0963 65.4254 70.2974L61.9366 71.7524L61.5055 70.7187ZM72.3806 78.6096L63.5682 78.72C63.0778 78.7324 62.6708 78.6898 62.3469 78.5923C62.0181 78.5069 61.7517 78.3652 61.5477 78.1671C61.3387 77.9812 61.1696 77.7332 61.0403 77.4231C60.9181 77.1302 60.848 76.8409 60.83 76.5552C60.8069 76.2817 60.8248 76.0214 60.8836 75.7744L61.9066 75.6815C61.8234 75.9184 61.7869 76.146 61.797 76.3643C61.8021 76.5947 61.8442 76.8047 61.9232 76.9942C62.0166 77.2182 62.1735 77.4005 62.394 77.5412C62.6144 77.6818 62.9698 77.746 63.4602 77.7336L64.4402 77.7193L65.7084 76.432L69.7617 72.3298L70.2521 73.5056L66.7133 76.8775L65.7304 77.7577L67.2036 77.6894L71.9172 77.4983L72.3806 78.6096Z" fill="#666666"/>
<path d="M15.8799 35.7109C31.1772 54.7172 40.6417 69.5554 43 101" stroke="#EAEDFE" stroke-width="0.4"/>
<path d="M5.15949 45.8784C23.6579 65.954 33.1601 77.7982 47.1595 100.878" stroke="#EAEDFE" stroke-width="0.4"/>
</svg>
