<svg width="101" height="93" viewBox="0 0 101 93" fill="none" xmlns="http://www.w3.org/2000/svg">
<path d="M43.9331 3.52366C45.6596 1.54006 48.6237 1.24115 50.7547 2.78195C67.1524 14.6381 77.6635 18.1046 95.2949 19.6426C97.9314 19.8725 99.9858 22.0658 99.9675 24.7123L99.5388 86.8725C99.5182 89.8672 96.8737 92.1739 93.9078 91.7595C56.6793 86.5574 35.6525 77.8602 4.66446 57.1547C2.17724 55.4928 1.72456 52.0186 3.68846 49.7622L43.9331 3.52366Z" fill="#E2E6FE"/>
<path d="M68.2916 46.635C68.5774 46.7789 68.8119 46.9537 68.9949 47.1593C69.178 47.365 69.2919 47.5895 69.3365 47.8329C69.3812 48.0763 69.3411 48.3219 69.2164 48.5696C69.0869 48.8268 68.9087 49.0147 68.6818 49.1334C68.4477 49.2544 68.1578 49.2905 67.8121 49.2419C67.464 49.198 67.047 49.0537 66.5611 48.8091L64.053 47.5463L64.3049 47.0461L66.8629 48.3341C67.1059 48.4564 67.3203 48.5464 67.5062 48.6042C67.6873 48.6595 67.8542 48.6839 68.0068 48.6771C68.1428 48.668 68.2598 48.6313 68.3578 48.5672C68.4486 48.5054 68.5288 48.4055 68.5983 48.2673C68.7086 48.0482 68.7021 47.8359 68.5786 47.6304C68.4528 47.4297 68.2517 47.2598 67.9754 47.1207C67.7658 47.0152 67.5716 46.9562 67.3927 46.9438C67.2067 46.9337 67.0336 46.9869 66.8735 47.1034C66.7062 47.2222 66.5518 47.4221 66.4103 47.7031L65.4426 49.6253L66.6716 50.244L67.3191 48.9579L67.9412 49.1277L66.977 51.0427L63.24 49.1612L63.499 48.6467L64.8352 49.3195L65.7562 47.4902C65.9169 47.1711 66.0714 46.9354 66.2197 46.7831C66.3632 46.6285 66.5162 46.5144 66.6786 46.4409C66.9174 46.3343 67.1727 46.3016 67.4445 46.3429C67.7091 46.3866 67.9915 46.4839 68.2916 46.635ZM63.2136 44.0784C63.4661 44.2055 63.666 44.3838 63.8132 44.6131C63.958 44.8473 64.0252 45.1289 64.0148 45.458C63.9996 45.7848 63.884 46.1625 63.6682 46.5912C63.4307 47.0628 63.1233 47.4185 62.7457 47.6584C62.3611 47.9006 61.9338 48.0199 61.4639 48.0162C60.9917 48.0173 60.503 47.8907 59.9981 47.6365C59.7694 47.5213 59.5623 47.3932 59.3766 47.2519C59.1838 47.113 59.0113 46.9575 58.8592 46.7854C58.7046 46.618 58.5644 46.428 58.4386 46.2153L58.261 45.7497C58.1212 45.3987 58.0567 45.0229 58.0673 44.6222C58.0756 44.2263 58.1781 43.8331 58.3747 43.4424C58.5354 43.1233 58.7174 42.8805 58.9206 42.7141C59.1166 42.5501 59.3303 42.4576 59.5618 42.4368C59.786 42.4184 60.0172 42.4691 60.2554 42.589C60.5317 42.7281 60.7268 42.904 60.8407 43.1166C60.9498 43.3268 60.9945 43.5582 60.9747 43.811C60.9478 44.0661 60.8659 44.3295 60.7292 44.601C60.6021 44.8535 60.456 45.0785 60.2909 45.276C60.121 45.4711 59.9309 45.6411 59.7206 45.786C59.5103 45.9309 59.2798 46.0507 59.0291 46.1454L58.5243 46.2585C58.3383 46.2723 58.1486 46.2694 57.9555 46.2498C57.7624 46.2302 57.5431 46.1795 57.2976 46.0977C57.045 46.0183 56.7448 45.891 56.3971 45.7159L54.2606 44.6403L54.5196 44.1258L55.7344 44.7374L57.4684 41.2933L58.0829 41.6027L56.3489 45.0468L56.8205 45.2842C56.9777 45.3634 57.1289 45.4306 57.2743 45.4858C57.4172 45.5459 57.5578 45.5928 57.6961 45.6265C57.8319 45.6651 57.969 45.6893 58.1073 45.6992C58.2456 45.7092 58.3887 45.7036 58.5367 45.6825C58.7442 45.6616 58.9472 45.5847 59.1455 45.4517C59.3415 45.3234 59.5256 45.1594 59.6979 44.9595C59.863 44.762 60.0031 44.5489 60.1182 44.3202C60.2837 43.9916 60.3548 43.7258 60.3315 43.523C60.3082 43.3202 60.2085 43.1744 60.0322 43.0857C59.8845 43.0113 59.7474 42.999 59.6209 43.0488C59.4896 43.0961 59.3725 43.1805 59.2696 43.3018C59.1667 43.4232 59.0792 43.5553 59.0073 43.6982C58.8178 44.0745 58.7214 44.4499 58.7179 44.8244C58.7073 45.2012 58.7862 45.5664 58.9546 45.9198C59.0993 46.1898 59.2895 46.4228 59.5251 46.6191C59.7607 46.8153 60.0309 46.9902 60.3358 47.1437C60.6883 47.3211 61.0279 47.4115 61.3547 47.4148C61.6814 47.4181 61.9798 47.3474 62.2497 47.2027C62.5149 47.0555 62.7444 46.8486 62.9383 46.582C62.9791 46.513 63.0186 46.4463 63.057 46.382C63.0929 46.3225 63.1205 46.2737 63.1397 46.2356C63.2956 45.9259 63.3845 45.6602 63.4066 45.4385C63.4239 45.2143 63.3911 45.0306 63.308 44.8872C63.2201 44.7415 63.0976 44.629 62.9404 44.5499C62.8118 44.4851 62.689 44.4562 62.5721 44.463C62.4481 44.4722 62.3359 44.5172 62.2355 44.598C62.1303 44.6764 62.0393 44.7919 61.9626 44.9443C61.8427 45.1825 61.8135 45.3947 61.875 45.5809C61.9341 45.7719 62.0613 45.9165 62.2566 46.0149C62.4471 46.1108 62.6509 46.1507 62.868 46.1346C63.0851 46.1185 63.3011 46.069 63.516 45.9862L63.3929 46.4974C63.1661 46.5922 62.9215 46.6392 62.6591 46.6385C62.3896 46.6401 62.1381 46.5822 61.9047 46.4647C61.5617 46.292 61.3382 46.0481 61.2341 45.733C61.1253 45.4154 61.1608 45.078 61.3407 44.7208C61.4726 44.4588 61.6365 44.2577 61.8325 44.1175C62.0285 43.9773 62.2445 43.904 62.4807 43.8975C62.7121 43.8886 62.9564 43.9489 63.2136 44.0784ZM53.6612 46.927C53.404 46.7975 53.1922 46.6371 53.0257 46.4458C52.8522 46.2569 52.7263 46.0383 52.6483 45.7901C52.5939 45.6253 52.5682 45.4392 52.5712 45.2317C52.5717 45.029 52.6165 44.7858 52.7056 44.5022C52.7874 44.221 52.9279 43.8827 53.127 43.4873L54.8862 39.9932L55.5007 40.3026L53.8062 43.6681C53.6336 44.0111 53.5075 44.3029 53.4282 44.5436C53.344 44.7819 53.2945 44.9869 53.2798 45.1586C53.2626 45.335 53.2705 45.4913 53.3035 45.6273C53.3412 45.8015 53.4147 45.952 53.5241 46.0787C53.6382 46.2078 53.7786 46.3144 53.9454 46.3983C54.1502 46.5014 54.3444 46.5485 54.5281 46.5394C54.7094 46.5352 54.8718 46.4796 55.0152 46.3726C55.1609 46.2729 55.2806 46.1301 55.3741 45.9443C55.4413 45.8109 55.4954 45.6561 55.5364 45.4797C55.5751 45.308 55.5887 45.1328 55.5772 44.9539L56.2275 45.2812C56.2174 45.4553 56.1931 45.6222 56.1545 45.7819C56.1207 45.944 56.0666 46.0989 55.9922 46.2466C55.8627 46.5038 55.7083 46.7037 55.529 46.8463C55.3498 46.9889 55.1563 47.0826 54.9487 47.1274C54.741 47.1721 54.5276 47.1751 54.3082 47.1363C54.0865 47.1023 53.8708 47.0325 53.6612 46.927Z" fill="#FFB743"/>
<path d="M70.3943 69.4797C69.6438 69.1697 69.0609 68.7472 68.6457 68.2122C68.2269 67.6858 67.9593 67.0502 67.8429 66.3053L68.9877 65.9905C69.0789 66.6745 69.2809 67.2123 69.5937 67.604C69.8943 68.0009 70.3293 68.3168 70.8986 68.552C71.3558 68.7408 71.7621 68.8329 72.1175 68.8282C72.4642 68.82 72.7511 68.7365 72.9782 68.5778C73.2018 68.4278 73.3688 68.2191 73.4792 67.9517C73.6039 67.6497 73.6195 67.3431 73.5259 67.0318C73.4288 66.7292 73.1222 66.3955 72.6063 66.031L70.927 64.8527C70.1823 64.333 69.7269 63.8218 69.561 63.319C69.3828 62.8213 69.406 62.3008 69.6304 61.7573C69.83 61.2742 70.1461 60.8999 70.579 60.6343C70.9996 60.3738 71.4985 60.2416 72.0757 60.2377C72.653 60.2337 73.2737 60.3689 73.9379 60.6433C74.559 60.8998 75.073 61.208 75.4797 61.5679C75.8743 61.9328 76.181 62.3271 76.3999 62.7507C76.6187 63.1744 76.7629 63.6076 76.8325 64.0503L75.6221 64.4138C75.5936 64.0183 75.5016 63.642 75.3461 63.2849C75.1907 62.9279 74.9603 62.6055 74.655 62.3178C74.341 62.0266 73.9468 61.783 73.4724 61.5871C73.0324 61.4053 72.6315 61.3003 72.2696 61.272C71.8954 61.2488 71.5794 61.305 71.3213 61.4408C71.0597 61.5852 70.8666 61.8084 70.7418 62.1103C70.6278 62.3863 70.6169 62.6696 70.7089 62.9601C70.7975 63.2592 71.0687 63.5682 71.5227 63.887L73.3413 65.1682C73.8177 65.5064 74.177 65.8466 74.4193 66.1891C74.6494 66.5365 74.779 66.8829 74.8081 67.2282C74.8249 67.5785 74.7639 67.9218 74.6249 68.2583C74.4361 68.7155 74.1382 69.0822 73.7313 69.3584C73.3122 69.6397 72.8173 69.7989 72.2466 69.8358C71.6673 69.8692 71.0499 69.7505 70.3943 69.4797ZM63.2446 61.2706C63.045 61.7537 63.0212 62.1781 63.1731 62.5438C63.3215 62.9181 63.6329 63.2032 64.1073 63.3992C64.5559 63.5845 64.9764 63.642 65.3689 63.5719C65.7579 63.5104 66.1148 63.2942 66.4396 62.9235L67.0669 63.7885C66.6948 64.2003 66.2153 64.4567 65.6283 64.5576C65.0378 64.6671 64.3975 64.5793 63.7073 64.2943C63.2415 64.1019 62.8527 63.8453 62.5408 63.5247C62.2254 63.2126 62.0275 62.8482 61.9472 62.4313C61.8548 62.0195 61.9137 61.5591 62.1239 61.0501L63.4172 57.9187C63.5455 57.6081 63.4457 57.3852 63.1179 57.2498C62.954 57.1821 62.7855 57.1377 62.6124 57.1167L63.0009 56.3229C63.2091 56.3079 63.4512 56.3574 63.7272 56.4714C63.9774 56.5747 64.1821 56.7148 64.3413 56.8917C64.5005 57.0685 64.597 57.275 64.6307 57.5111C64.6609 57.7558 64.6155 58.0248 64.4943 58.3181L64.4409 58.4475L64.1981 58.3018C64.4406 58.0081 64.7315 57.8051 65.0707 57.6928C65.4064 57.5891 65.7509 57.5496 66.1042 57.5743C66.4539 57.6077 66.7798 57.6868 67.0817 57.8115C67.4613 57.9682 67.7882 58.179 68.0626 58.4438C68.3369 58.7086 68.5199 59.0114 68.6114 59.3521C68.6907 59.6979 68.6502 60.0649 68.4899 60.4531C68.2904 60.9362 67.9669 61.2671 67.5194 61.4458C67.0598 61.6296 66.5178 61.6582 65.8935 61.5316L63.123 60.9781L63.4758 60.1241L65.7354 60.5575C66.1938 60.6458 66.5585 60.6551 66.8297 60.5853C67.1009 60.5156 67.2934 60.3427 67.4075 60.0666C67.5179 59.7992 67.5053 59.5365 67.3695 59.2784C67.2215 59.0255 66.9534 58.8188 66.5652 58.6585C66.3151 58.5551 66.0654 58.4873 65.8161 58.4551C65.5547 58.4279 65.3067 58.4416 65.0721 58.4962C64.8339 58.5594 64.6221 58.6688 64.4367 58.8245C64.2476 58.9887 64.0961 59.2089 63.9821 59.4849L63.2446 61.2706ZM56.7148 63.4056L59.4084 56.884C59.5402 56.5648 59.5476 56.2901 59.4306 56.06C59.3136 55.8299 59.1127 55.6561 58.8281 55.5385C58.5779 55.4352 58.3444 55.3892 58.1276 55.4007C57.9108 55.4121 57.6988 55.4609 57.4916 55.547L57.4874 54.5304C57.7606 54.4312 58.0566 54.3868 58.3754 54.3973C58.6856 54.4042 59.0175 54.4807 59.3712 54.6268C59.699 54.7622 59.9821 54.9448 60.2205 55.1745C60.4553 55.4129 60.6073 55.6927 60.6765 56.0142C60.7335 56.3407 60.6808 56.7127 60.5184 57.1304L57.8675 63.5485L56.7148 63.4056ZM55.1187 60.5954L55.4874 59.7026L60.1716 61.6373L59.8028 62.5301L55.1187 60.5954ZM53.9631 52.3931C54.3772 52.5641 54.7376 52.8039 55.0444 53.1124C55.3426 53.4173 55.5369 53.7904 55.6273 54.2317C55.7055 54.678 55.6288 55.1815 55.3972 55.7422L53.6442 59.9865L52.6091 59.5589L54.2498 55.5864C54.5206 54.9308 54.5653 54.4191 54.384 54.0514C54.1991 53.6922 53.8478 53.4058 53.3302 53.192C53.0887 53.0923 52.8354 53.0331 52.5704 53.0145C52.3019 53.0046 52.0414 53.0485 51.789 53.1462C51.5244 53.249 51.2833 53.417 51.0658 53.6503C50.8396 53.88 50.6482 54.1847 50.4914 54.5642L49.0377 58.0838L48.0025 57.6563L50.6748 51.1864L51.5805 51.5605L51.2391 52.5707C51.6237 52.2751 52.0475 52.1169 52.5105 52.0961C52.9613 52.0803 53.4455 52.1793 53.9631 52.3931ZM48.2655 50.1913L45.5933 56.6612L44.7522 56.3138L45.0481 55.194C44.7031 55.5159 44.317 55.7049 43.89 55.7608C43.4544 55.8131 42.9864 55.7359 42.4861 55.5293C42.3739 55.483 42.2567 55.4245 42.1345 55.3538C42.0036 55.2795 41.9014 55.1969 41.8278 55.1059L42.3991 54.2362C42.4798 54.3099 42.5726 54.3785 42.6776 54.4421C42.7826 54.5056 42.9387 54.5802 43.1457 54.6657C43.4131 54.7762 43.7169 54.8107 44.0571 54.7695C44.3887 54.7247 44.7109 54.5801 45.0239 54.3357C45.3333 54.1 45.5878 53.7406 45.7874 53.2575L47.2304 49.7638L48.2655 50.1913ZM42.9835 48.0097L40.3113 54.4796L39.4055 54.1054L39.9135 52.6188L40.0229 52.8306C39.7424 53.1186 39.4429 53.3181 39.1245 53.4289C38.8025 53.5484 38.4709 53.5932 38.1298 53.5634C37.78 53.53 37.4413 53.4456 37.1135 53.3102C36.6476 53.1178 36.2623 52.8527 35.9576 52.5148C35.6493 52.1855 35.4578 51.7933 35.3832 51.3384C35.2999 50.8799 35.3741 50.3702 35.6057 49.8095L37.3159 45.6688L38.3511 46.0964L36.7905 49.8748C36.4948 50.5908 36.4452 51.1509 36.6417 51.5552C36.8261 51.9646 37.1425 52.2619 37.5911 52.4472C37.9016 52.5755 38.2425 52.6304 38.6136 52.612C38.9847 52.5937 39.3415 52.4633 39.6839 52.221C40.0177 51.9752 40.2987 51.5762 40.5267 51.0241L41.9483 47.5821L42.9835 48.0097Z" fill="#666666"/>
<path d="M36.1758 11.5318C58.6006 29.1228 72.4766 34.8879 100.176 35.5318" stroke="#EAEDFE" stroke-width="0.4"/>
<path d="M46.5 2C64.7932 21.2561 77.3845 29.368 100.301 41.6009" stroke="#EAEDFE" stroke-width="0.4"/>
<circle cx="98.5" cy="35.5" r="1.5" fill="#EAEDFE"/>
</svg>
