<svg width="103" height="96" viewBox="0 0 103 96" fill="none" xmlns="http://www.w3.org/2000/svg">
<path d="M0.288211 27.6434C0.125788 25.0266 2.01897 22.7367 4.60971 22.334C22.9832 19.4781 33.2318 15.1768 47.944 3.01482C49.9665 1.34299 52.9379 1.4379 54.7933 3.29332L98.6227 47.1227C100.704 49.2038 100.541 52.634 98.2449 54.4754C71.3856 76.0188 50.2593 85.1851 10.1975 94.2399C7.21102 94.9149 4.32911 92.7467 4.13943 89.6908L0.288211 27.6434Z" fill="#E2E6FE"/>
<path d="M52.5518 37.4003C52.8475 37.2778 53.1329 37.2144 53.4082 37.2101C53.6835 37.2057 53.9279 37.2661 54.1414 37.3913C54.3549 37.5165 54.5147 37.7072 54.6208 37.9634C54.731 38.2295 54.7569 38.4872 54.6985 38.7365C54.6373 38.9928 54.4753 39.2359 54.2127 39.4659C53.9521 39.7009 53.5705 39.9224 53.0679 40.1306L49.2911 41.6949L49.0768 41.1775L52.9054 39.5918C53.1566 39.4877 53.3649 39.3841 53.53 39.2811C53.6902 39.1801 53.8176 39.0696 53.9122 38.9496C53.9941 38.8406 54.0428 38.7281 54.0582 38.6121C54.0707 38.5029 54.0474 38.3769 53.9882 38.2341C53.8943 38.0074 53.7293 37.8737 53.4931 37.833C53.2589 37.7972 52.9989 37.8385 52.7131 37.9569C52.4963 38.0467 52.3248 38.1553 52.1986 38.2826C52.0695 38.4169 51.9967 38.5827 51.9803 38.78C51.961 38.9842 52.0115 39.2317 52.132 39.5224L52.9555 41.5107L54.2267 40.9841L53.6757 39.6537L54.2106 39.2936L55.031 41.2744L51.1655 42.8755L50.9451 42.3433L52.3272 41.7709L51.5435 39.8787C51.4068 39.5486 51.3292 39.2777 51.3108 39.0659C51.2874 38.8563 51.3009 38.6659 51.3514 38.495C51.4265 38.2444 51.5685 38.0298 51.7773 37.8509C51.9832 37.6791 52.2414 37.5288 52.5518 37.4003ZM49.8465 38.6247L50.6883 40.6573L50.0504 40.8522L49.233 38.8788L49.8465 38.6247ZM46.1424 40.055C46.438 39.9325 46.7235 39.8692 46.9988 39.8648C47.2741 39.8605 47.5184 39.9209 47.7319 40.046C47.9454 40.1712 48.1052 40.3619 48.2113 40.6181C48.3215 40.8842 48.3475 41.1419 48.2891 41.3912C48.2278 41.6475 48.0659 41.8907 47.8032 42.1207C47.5426 42.3556 47.161 42.5772 46.6584 42.7853L45.328 43.3364C45.0718 43.4425 44.845 43.522 44.6475 43.5749C44.4501 43.6279 44.2712 43.6558 44.1107 43.6587C43.9474 43.6686 43.7908 43.6527 43.6407 43.611C43.4718 43.5655 43.3167 43.4767 43.1754 43.3447C43.0362 43.2177 42.9237 43.0507 42.838 42.8437C42.6829 42.4692 42.6758 42.1316 42.8168 41.8308C42.9528 41.532 43.2253 41.2979 43.6342 41.1285C43.7476 41.0815 43.8738 41.0379 44.013 40.9976C44.1521 40.9573 44.2855 40.9309 44.4131 40.9184L44.4778 41.4718C44.3958 41.4827 44.3048 41.5002 44.2051 41.5241C44.1004 41.5502 44.0013 41.5826 43.9077 41.6214C43.6761 41.7173 43.5246 41.8464 43.4533 42.0087C43.3771 42.1731 43.3879 42.3735 43.4859 42.61C43.5553 42.7776 43.6473 42.8953 43.7621 42.9632C43.8788 43.0361 44.009 43.0716 44.1526 43.0699C44.2913 43.0702 44.44 43.0461 44.5989 42.9976C44.7549 42.9561 44.9093 42.9037 45.062 42.8404L46.4959 42.2465C46.7472 42.1424 46.9554 42.0389 47.1205 41.9358C47.2808 41.8348 47.4082 41.7243 47.5028 41.6043C47.5847 41.4954 47.6333 41.3829 47.6487 41.2668C47.6613 41.1577 47.6379 41.0317 47.5788 40.8888C47.4849 40.6621 47.3198 40.5285 47.0836 40.4878C46.8494 40.452 46.5894 40.4933 46.3036 40.6117C46.0868 40.7015 45.9153 40.81 45.7891 40.9373C45.66 41.0716 45.5872 41.2374 45.5708 41.4347C45.5495 41.6341 45.6 41.8816 45.7225 42.1772L46.546 44.1654L47.8173 43.6389L47.2662 42.3085L47.8011 41.9484L48.6216 43.9292L44.756 45.5302L44.5356 44.9981L45.9178 44.4256L45.134 42.5335C44.9973 42.2034 44.9197 41.9324 44.9013 41.7207C44.8779 41.511 44.8915 41.3207 44.9419 41.1497C45.0171 40.8992 45.1591 40.6845 45.3679 40.5057C45.5738 40.3338 45.8319 40.1836 46.1424 40.055ZM46.9908 45.6783C47.1337 45.6192 47.2703 45.6145 47.4007 45.6644C47.5331 45.7193 47.6299 45.8206 47.6911 45.9684C47.7503 46.1113 47.7525 46.249 47.6976 46.3814C47.6428 46.5138 47.5439 46.6096 47.401 46.6688C47.2581 46.7279 47.1205 46.7301 46.9881 46.6753C46.8557 46.6204 46.7599 46.5216 46.7007 46.3787C46.6395 46.2308 46.6363 46.0907 46.6911 45.9583C46.748 45.8309 46.8479 45.7375 46.9908 45.6783ZM39.6527 41.0111L40.2363 41.2284L39.37 43.1718L40.7721 46.5569L42.1986 45.9661L40.723 42.4036L41.3587 42.1403L43.0546 46.2349L39.1004 47.8728L38.88 47.3406L40.1365 46.8202L38.6609 43.2577L39.6527 41.0111ZM35.6352 44.407C35.8964 44.2988 36.1619 44.2639 36.4318 44.3022C36.7037 44.3454 36.9608 44.4785 37.2032 44.7014C37.4407 44.9263 37.6513 45.2605 37.835 45.7039C38.037 46.1917 38.1056 46.6569 38.0406 47.0994C37.9728 47.5489 37.7841 47.9504 37.4744 48.3038C37.1668 48.6621 36.7518 48.9494 36.2295 49.1658C35.993 49.2637 35.7606 49.3369 35.5324 49.3852C35.3013 49.4405 35.0709 49.4696 34.8412 49.4724C34.6134 49.4801 34.378 49.4622 34.1348 49.4186L33.6662 49.249C33.3092 49.1256 32.9824 48.929 32.6859 48.6592C32.3915 48.3944 32.1606 48.06 31.9933 47.6559C31.8565 47.3258 31.7915 47.0294 31.7982 46.7669C31.8021 46.5113 31.8717 46.2891 32.007 46.1002C32.1395 45.9184 32.3289 45.7764 32.5753 45.6744C32.8611 45.556 33.1217 45.5231 33.3571 45.5757C33.5875 45.6303 33.792 45.7477 33.9705 45.9278C34.1461 46.1148 34.2921 46.3488 34.4084 46.6296C34.5165 46.8908 34.5915 47.1484 34.6332 47.4024C34.67 47.6585 34.6746 47.9135 34.647 48.1674C34.6194 48.4213 34.5596 48.674 34.4675 48.9258L34.2235 49.3819C34.1124 49.5318 33.9864 49.6735 33.8454 49.8069C33.7044 49.9403 33.5228 50.0733 33.3005 50.2058C33.0754 50.3452 32.783 50.4894 32.4233 50.6384L30.2134 51.5537L29.993 51.0215L31.2494 50.5011L29.7739 46.9386L30.4095 46.6753L31.8851 50.2378L32.3729 50.0358C32.5355 49.9684 32.6852 49.8978 32.8219 49.8238C32.9608 49.7548 33.0881 49.6789 33.204 49.5963C33.3219 49.5186 33.4298 49.4306 33.5276 49.3324C33.6254 49.2341 33.7147 49.1221 33.7954 48.9963C33.9151 48.8255 33.9894 48.6216 34.0182 48.3845C34.0491 48.1524 34.0451 47.9058 34.0062 47.6448C33.9645 47.3907 33.8947 47.1455 33.7967 46.9089C33.6559 46.569 33.5011 46.3416 33.3323 46.2267C33.1635 46.1119 32.988 46.0923 32.8057 46.1678C32.6529 46.231 32.554 46.3268 32.5091 46.4552C32.4591 46.5855 32.4465 46.7293 32.4712 46.8865C32.4959 47.0436 32.5389 47.1961 32.6001 47.344C32.7613 47.7332 32.9826 48.0514 33.2639 48.2986C33.5424 48.5527 33.8704 48.7315 34.248 48.8348C34.547 48.9015 34.8477 48.9097 35.1501 48.8595C35.4526 48.8093 35.7615 48.7188 36.0769 48.5882C36.4415 48.4372 36.7318 48.239 36.9477 47.9938C37.1636 47.7485 37.3049 47.4764 37.3715 47.1774C37.4333 46.8805 37.4266 46.5716 37.3513 46.2506C37.3257 46.1746 37.301 46.1012 37.2773 46.0301C37.2557 45.964 37.2368 45.9113 37.2204 45.8719C37.0878 45.5516 36.9447 45.3107 36.7912 45.1491C36.6328 44.9896 36.4722 44.8945 36.3093 44.8638C36.1416 44.8351 35.9764 44.8545 35.8138 44.9218C35.6808 44.9769 35.5787 45.051 35.5075 45.1439C35.4335 45.2439 35.3942 45.3583 35.3899 45.4871C35.3806 45.6179 35.4086 45.7622 35.4739 45.9199C35.5759 46.1662 35.7175 46.3269 35.8987 46.402C36.0819 46.482 36.2745 46.4801 36.4766 46.3964C36.6737 46.3148 36.837 46.1865 36.9666 46.0116C37.0962 45.8367 37.1998 45.6408 37.2774 45.424L37.5842 45.8511C37.5078 46.0848 37.3836 46.3007 37.2117 46.4989C37.0369 46.7041 36.8288 46.8567 36.5874 46.9567C36.2326 47.1036 35.9019 47.1136 35.5953 46.9866C35.2838 46.8616 35.0515 46.6144 34.8984 46.2448C34.7862 45.9738 34.741 45.7183 34.7628 45.4784C34.7847 45.2384 34.8702 45.0269 35.0195 44.8438C35.1639 44.6628 35.3691 44.5172 35.6352 44.407ZM35.0202 50.6365C35.1631 50.5773 35.2998 50.5726 35.4301 50.6226C35.5625 50.6774 35.6593 50.7787 35.7205 50.9266C35.7797 51.0694 35.7819 51.2071 35.7271 51.3395C35.6722 51.4719 35.5733 51.5677 35.4305 51.6269C35.2876 51.6861 35.1499 51.6882 35.0175 51.6334C34.8851 51.5785 34.7893 51.4797 34.7301 51.3368C34.6689 51.189 34.6657 51.0488 34.7206 50.9164C34.7775 50.789 34.8773 50.6956 35.0202 50.6365Z" fill="#FFB743"/>
<path d="M62.069 58.8514L61.5732 48.9831L62.7405 48.4726L69.6625 55.5303L68.5594 56.0128L63.8464 51.1062L62.5728 49.6615L62.7633 51.5646L63.1721 58.3689L62.069 58.8514ZM54.6606 51.8536C55.2678 51.588 55.8688 51.4831 56.4636 51.5388C57.0498 51.5981 57.5839 51.8179 58.066 52.1979C58.5517 52.5865 58.946 53.1271 59.249 53.8198C59.5519 54.5124 59.6793 55.1647 59.6311 55.7766C59.5867 56.3971 59.3915 56.9408 59.0457 57.4079C58.6999 57.8749 58.2319 58.2375 57.6419 58.4955C57.0433 58.7573 56.4784 58.8516 55.9472 58.7783C55.4075 58.7087 54.9292 58.5003 54.5124 58.1528C54.0993 57.8139 53.7731 57.3709 53.5337 56.8236C53.4701 56.6782 53.4165 56.5438 53.3726 56.4203C53.3288 56.2969 53.2949 56.1844 53.2709 56.0828L58.4529 53.8165L58.8512 54.7272L54.1181 56.7972L54.5991 56.4646C54.8684 57.0803 55.247 57.4801 55.7349 57.664C56.2143 57.8516 56.7276 57.8258 57.2749 57.5864C57.6939 57.4032 58.0143 57.1459 58.2361 56.8145C58.4531 56.4955 58.5668 56.1148 58.577 55.6723C58.5824 55.242 58.4729 54.7704 58.2485 54.2573C58.0278 53.7528 57.7516 53.3541 57.4197 53.0612C57.0879 52.7683 56.725 52.5908 56.3312 52.5288C55.9325 52.479 55.5151 52.5495 55.079 52.7402C54.6087 52.9459 54.2674 53.2021 54.0552 53.5089C53.8344 53.8194 53.7016 54.1678 53.6567 54.5542L52.641 54.433C52.6763 54.0712 52.7755 53.7273 52.9385 53.4013C53.093 53.0791 53.3151 52.7833 53.6048 52.514C53.8897 52.257 54.2416 52.0368 54.6606 51.8536ZM49.9945 54.0471L52.7995 60.4606L51.9016 60.8533L51.1835 59.4559L51.412 59.5241C51.4247 59.926 51.3606 60.28 51.2194 60.5862C51.082 60.901 50.8843 61.1708 50.6261 61.3958C50.3594 61.6245 50.0636 61.8099 49.7386 61.952C49.2769 62.154 48.8186 62.2475 48.3638 62.2324C47.9127 62.226 47.4975 62.0918 47.1181 61.8299C46.7301 61.5717 46.4146 61.1647 46.1715 60.6088L44.3764 56.5042L45.4025 56.0554L47.0406 59.8009C47.351 60.5107 47.72 60.935 48.1475 61.074C48.5702 61.2253 49.0039 61.2037 49.4486 61.0093C49.7564 60.8746 50.0325 60.6673 50.2767 60.3873C50.521 60.1073 50.6747 59.7599 50.7378 59.3452C50.7924 58.9343 50.7 58.4551 50.4606 57.9079L48.9684 54.4959L49.9945 54.0471ZM39.6751 58.4075C40.0856 58.228 40.5083 58.1348 40.9433 58.1279C41.3698 58.1248 41.7733 58.2437 42.1538 58.4848C42.5294 58.7382 42.8388 59.1428 43.0819 59.6986L44.922 63.9058L43.8958 64.3546L42.1736 60.4167C41.8893 59.7669 41.5519 59.3796 41.1612 59.255C40.7743 59.139 40.3243 59.1932 39.8113 59.4176C39.5718 59.5223 39.3535 59.6637 39.1563 59.8416C38.9628 60.0281 38.8137 60.2461 38.7089 60.4957C38.5993 60.7575 38.553 61.0477 38.5701 61.3662C38.5786 61.6885 38.6651 62.0378 38.8297 62.414L40.3556 65.9029L39.3294 66.3517L36.5245 59.9383L37.4224 59.5456L37.9129 60.4924C37.9669 60.0103 38.147 59.5954 38.4533 59.2475C38.7548 58.9119 39.162 58.6319 39.6751 58.4075ZM31.7713 61.8643C32.3956 61.5913 33.0308 61.4714 33.6769 61.5046C34.3144 61.5415 34.8809 61.742 35.3763 62.106L34.7789 63.116C34.4188 62.8049 34.0105 62.6168 33.5541 62.5515C33.0892 62.49 32.6001 62.5714 32.0871 62.7958C31.6339 62.994 31.3164 63.2348 31.1346 63.518C30.9566 63.8097 30.9293 64.0967 31.0528 64.3789C31.1313 64.5585 31.2622 64.6948 31.4455 64.7878C31.624 64.8931 31.8907 64.9089 32.2455 64.8352L33.925 64.4827C34.6054 64.3379 35.1478 64.3554 35.5523 64.535C35.9483 64.7184 36.2436 65.0324 36.438 65.477C36.5914 65.8276 36.6333 66.1913 36.5638 66.5681C36.4857 66.9486 36.3002 67.3047 36.0073 67.6366C35.7096 67.9807 35.3084 68.2631 34.8039 68.4838C34.1711 68.7605 33.5824 68.8703 33.0379 68.813C32.4933 68.7558 32.015 68.5473 31.603 68.1876L32.2156 67.2473C32.5255 67.56 32.8804 67.7308 33.2801 67.7597C33.6836 67.7972 34.0606 67.7392 34.4112 67.5859C34.7191 67.4513 34.9655 67.2926 35.1504 67.1098C35.3268 66.9308 35.4412 66.7381 35.4936 66.5319C35.5412 66.3379 35.5238 66.1468 35.4415 65.9587C35.3593 65.7706 35.2185 65.6233 35.0191 65.5169C34.8235 65.4191 34.5355 65.4127 34.155 65.4976L32.4057 65.8653C31.7548 66.0074 31.2498 65.994 30.8907 65.8251C30.5315 65.6561 30.266 65.375 30.0939 64.9816C29.9182 64.5797 29.8698 64.1781 29.949 63.7768C30.0319 63.384 30.2302 63.0222 30.5439 62.6914C30.8577 62.3606 31.2668 62.0849 31.7713 61.8643Z" fill="#666666"/>
<path d="M0.5 25.5C40.1123 42.8272 60.6477 43.6427 81.0244 29.5006" stroke="#EAEDFE" stroke-width="0.4"/>
<path d="M0.999672 39.5C27.8469 37.3056 41.7294 30.8374 63.9236 12.8151" stroke="#EAEDFE" stroke-width="0.4"/>
<path d="M2 49C37.0085 68.4023 72.6907 69.9397 98.9547 53.8967" stroke="#EAEDFE" stroke-width="0.4"/>
</svg>
