<svg width="98" height="89" viewBox="0 0 98 89" fill="none" xmlns="http://www.w3.org/2000/svg">
<path d="M97.136 83.3229C97.136 86.0843 94.8959 88.3316 92.136 88.2396C59.0653 87.1374 27.2805 75.1269 1.74487 54.0836C-0.386184 52.3275 -0.580363 49.1604 1.2458 47.089L41.2552 1.70726C43.0813 -0.364116 46.232 -0.548915 48.414 1.1435C61.0024 10.9072 76.2393 16.6648 92.1389 17.6657C94.8949 17.8393 97.136 20.0614 97.136 22.8229V83.3229Z" fill="#7D67EE"/>
<path d="M66.3192 46.9579C66.605 47.1018 66.8394 47.2766 67.0225 47.4822C67.2056 47.6879 67.3195 47.9124 67.3641 48.1558C67.4088 48.3992 67.3687 48.6448 67.244 48.8925C67.1145 49.1497 66.9363 49.3376 66.7094 49.4563C66.4753 49.5773 66.1854 49.6134 65.8397 49.5648C65.4916 49.5209 65.0746 49.3766 64.5887 49.132L62.0806 47.8692L62.3325 47.369L64.8905 48.657C65.1335 48.7793 65.3479 48.8693 65.5338 48.9271C65.7149 48.9824 65.8818 49.0068 66.0344 49C66.1704 48.9909 66.2874 48.9542 66.3854 48.8901C66.4762 48.8283 66.5564 48.7284 66.6259 48.5902C66.7362 48.3711 66.7297 48.1588 66.6062 47.9533C66.4804 47.7526 66.2793 47.5827 66.003 47.4436C65.7934 47.3381 65.5992 47.2791 65.4203 47.2667C65.2343 47.2566 65.0612 47.3098 64.9011 47.4263C64.7338 47.545 64.5794 47.745 64.4379 48.026L63.4702 49.9482L64.6992 50.5669L65.3467 49.2808L65.9688 49.4506L65.0046 51.3656L61.2676 49.4841L61.5266 48.9696L62.8628 49.6424L63.7838 47.8131C63.9445 47.494 64.099 47.2583 64.2473 47.106C64.3908 46.9514 64.5438 46.8373 64.7062 46.7638C64.945 46.6572 65.2003 46.6245 65.4721 46.6658C65.7367 46.7095 66.0191 46.8068 66.3192 46.9579Z" fill="#FFB743"/>
<path d="M61.2412 44.4013C61.4937 44.5284 61.6935 44.7067 61.8408 44.936C61.9856 45.1702 62.0528 45.4518 62.0424 45.7809C62.0272 46.1077 61.9116 46.4854 61.6958 46.9141C61.4583 47.3857 61.1508 47.7414 60.7733 47.9813C60.3886 48.2235 59.9614 48.3428 59.4915 48.3391C59.0192 48.3402 58.5306 48.2136 58.0257 47.9594C57.797 47.8442 57.5899 47.716 57.4042 47.5748C57.2114 47.4359 57.0389 47.2804 56.8868 47.1083C56.7322 46.9409 56.592 46.7509 56.4662 46.5382L56.2886 46.0726C56.1488 45.7216 56.0843 45.3458 56.0949 44.9451C56.1032 44.5492 56.2057 44.1559 56.4023 43.7653C56.563 43.4462 56.745 43.2034 56.9482 43.037C57.1442 42.873 57.3579 42.7805 57.5893 42.7597C57.8136 42.7413 58.0448 42.792 58.283 42.9119C58.5593 43.051 58.7544 43.2269 58.8683 43.4394C58.9774 43.6496 59.0221 43.8811 59.0023 44.1339C58.9754 44.389 58.8935 44.6524 58.7568 44.9239C58.6297 45.1764 58.4836 45.4014 58.3185 45.5989C58.1486 45.794 57.9585 45.964 57.7482 46.1089C57.5379 46.2538 57.3074 46.3736 57.0567 46.4683L56.5519 46.5814C56.3658 46.5952 56.1762 46.5923 55.9831 46.5727C55.7899 46.5531 55.5707 46.5024 55.3252 46.4206C55.0726 46.3412 54.7724 46.2139 54.4247 46.0388L52.2882 44.9632L52.5472 44.4487L53.7619 45.0603L55.496 41.6162L56.1105 41.9256L54.3765 45.3697L54.8481 45.6071C55.0053 45.6863 55.1565 45.7535 55.3019 45.8087C55.4448 45.8688 55.5854 45.9157 55.7236 45.9494C55.8595 45.988 55.9966 46.0122 56.1349 46.0221C56.2732 46.0321 56.4163 46.0265 56.5643 46.0054C56.7718 45.9845 56.9748 45.9076 57.1731 45.7746C57.369 45.6463 57.5532 45.4823 57.7254 45.2824C57.8906 45.0849 58.0307 44.8718 58.1458 44.6431C58.3113 44.3144 58.3824 44.0487 58.3591 43.8459C58.3358 43.6431 58.2361 43.4973 58.0598 43.4086C57.9121 43.3342 57.775 43.3219 57.6485 43.3717C57.5172 43.419 57.4 43.5033 57.2971 43.6247C57.1942 43.7461 57.1068 43.8782 57.0349 44.0211C56.8454 44.3974 56.749 44.7728 56.7455 45.1473C56.7349 45.5241 56.8138 45.8893 56.9822 46.2427C57.1269 46.5126 57.3171 46.7457 57.5527 46.942C57.7883 47.1382 58.0585 47.3131 58.3634 47.4666C58.7159 47.644 59.0555 47.7344 59.3823 47.7377C59.709 47.741 60.0074 47.6703 60.2773 47.5255C60.5424 47.3784 60.772 47.1715 60.9659 46.9049C61.0067 46.8359 61.0462 46.7692 61.0846 46.7049C61.1205 46.6454 61.1481 46.5966 61.1672 46.5585C61.3231 46.2488 61.4121 45.9831 61.4342 45.7614C61.4515 45.5372 61.4187 45.3535 61.3356 45.2101C61.2477 45.0644 61.1252 44.9519 60.968 44.8728C60.8394 44.808 60.7166 44.7791 60.5997 44.7859C60.4757 44.7951 60.3635 44.8401 60.2631 44.9209C60.1579 44.9993 60.0669 45.1148 59.9902 45.2672C59.8703 45.5054 59.8411 45.7176 59.9026 45.9038C59.9617 46.0948 60.0889 46.2394 60.2842 46.3378C60.4747 46.4337 60.6785 46.4736 60.8956 46.4575C61.1127 46.4414 61.3287 46.3919 61.5436 46.3091L61.4205 46.8203C61.1937 46.9151 60.9491 46.9621 60.6867 46.9614C60.4172 46.963 60.1657 46.9051 59.9323 46.7876C59.5893 46.6149 59.3658 46.371 59.2617 46.0559C59.1529 45.7383 59.1884 45.4009 59.3683 45.0437C59.5002 44.7817 59.6641 44.5806 59.8601 44.4404C60.0561 44.3002 60.2721 44.2269 60.5083 44.2204C60.7397 44.2115 60.984 44.2718 61.2412 44.4013Z" fill="#FFB743"/>
<path d="M51.6888 47.2499C51.4316 47.1204 51.2198 46.96 51.0533 46.7687C50.8797 46.5798 50.7539 46.3612 50.6759 46.113C50.6215 45.9482 50.5958 45.7621 50.5988 45.5546C50.5993 45.3519 50.6441 45.1087 50.7332 44.8251C50.815 44.5439 50.9555 44.2056 51.1546 43.8102L52.9138 40.3161L53.5283 40.6255L51.8338 43.991C51.6612 44.334 51.5351 44.6258 51.4557 44.8665C51.3716 45.1048 51.3221 45.3098 51.3074 45.4815C51.2902 45.6579 51.2981 45.8142 51.3311 45.9502C51.3688 46.1244 51.4423 46.2749 51.5517 46.4016C51.6658 46.5307 51.8062 46.6372 51.9729 46.7212C52.1778 46.8243 52.372 46.8714 52.5557 46.8623C52.737 46.8581 52.8993 46.8025 53.0428 46.6955C53.1885 46.5958 53.3082 46.453 53.4017 46.2672C53.4689 46.1338 53.523 45.9789 53.564 45.8026C53.6026 45.6309 53.6162 45.4557 53.6048 45.2767L54.2551 45.6041C54.245 45.7782 54.2207 45.9451 54.1821 46.1048C54.1483 46.2669 54.0942 46.4218 54.0198 46.5695C53.8903 46.8267 53.7359 47.0266 53.5566 47.1692C53.3773 47.3118 53.1839 47.4055 52.9763 47.4503C52.7686 47.495 52.5551 47.498 52.3358 47.4592C52.1141 47.4252 51.8984 47.3554 51.6888 47.2499Z" fill="#FFB743"/>
<path d="M67.5302 69.6465C66.7797 69.3365 66.1969 68.914 65.7817 68.379C65.3629 67.8526 65.0953 67.217 64.9788 66.4721L66.1237 66.1573C66.2149 66.8412 66.4168 67.3791 66.7297 67.7708C67.0303 68.1676 67.4653 68.4836 68.0346 68.7188C68.4918 68.9076 68.8981 68.9997 69.2535 68.995C69.6002 68.9867 69.8871 68.9033 70.1142 68.7446C70.3378 68.5946 70.5048 68.3859 70.6152 68.1184C70.7399 67.8165 70.7555 67.5099 70.6619 67.1986C70.5648 66.8959 70.2582 66.5623 69.7423 66.1978L68.063 65.0194C67.3183 64.4998 66.8629 63.9886 66.697 63.4858C66.5188 62.9881 66.542 62.4675 66.7664 61.924C66.966 61.441 67.2821 61.0667 67.715 60.8011C68.1356 60.5406 68.6345 60.4084 69.2117 60.4045C69.7889 60.4005 70.4097 60.5357 71.0739 60.8101C71.695 61.0666 72.209 61.3748 72.6157 61.7347C73.0103 62.0996 73.317 62.4939 73.5359 62.9175C73.7547 63.3411 73.8989 63.7743 73.9685 64.2171L72.7581 64.5805C72.7296 64.185 72.6376 63.8088 72.4821 63.4517C72.3267 63.0946 72.0963 62.7723 71.791 62.4846C71.477 62.1934 71.0828 61.9498 70.6084 61.7538C70.1684 61.5721 69.7675 61.4671 69.4055 61.4388C69.0314 61.4155 68.7153 61.4718 68.4573 61.6076C68.1957 61.752 68.0025 61.9751 67.8778 62.2771C67.7638 62.5531 67.7529 62.8364 67.8449 63.1269C67.9335 63.426 68.2047 63.7349 68.6587 64.0537L70.4773 65.335C70.9537 65.6731 71.313 66.0134 71.5553 66.3558C71.7854 66.7033 71.915 67.0497 71.944 67.3949C71.9609 67.7452 71.8999 68.0886 71.7609 68.425C71.5721 68.8822 71.2742 69.249 70.8673 69.5252C70.4481 69.8065 69.9532 69.9656 69.3826 70.0026C68.8033 70.036 68.1859 69.9173 67.5302 69.6465Z" fill="#FEFEFA"/>
<path d="M60.3806 61.4374C60.181 61.9205 60.1572 62.3449 60.3091 62.7105C60.4575 63.0849 60.7689 63.37 61.2433 63.566C61.6919 63.7512 62.1124 63.8088 62.5049 63.7387C62.8939 63.6771 63.2507 63.461 63.5755 63.0903L64.2028 63.9552C63.8308 64.3671 63.3513 64.6234 62.7643 64.7243C62.1738 64.8338 61.5334 64.7461 60.8433 64.4611C60.3775 64.2687 59.9886 64.0121 59.6768 63.6914C59.3613 63.3794 59.1635 63.0149 59.0832 62.598C58.9908 62.1862 59.0496 61.7258 59.2599 61.2169L60.5532 58.0855C60.6815 57.7749 60.5817 57.5519 60.2539 57.4165C60.09 57.3488 59.9215 57.3045 59.7484 57.2835L60.1369 56.4897C60.345 56.4747 60.5871 56.5242 60.8632 56.6382C61.1134 56.7415 61.3181 56.8816 61.4773 57.0584C61.6365 57.2353 61.733 57.4417 61.7667 57.6778C61.7969 57.9226 61.7515 58.1916 61.6303 58.4849L61.5769 58.6143L61.3341 58.4686C61.5766 58.1749 61.8674 57.9719 62.2067 57.8596C62.5424 57.7558 62.8869 57.7164 63.2402 57.7411C63.5899 57.7745 63.9158 57.8535 64.2177 57.9782C64.5972 58.135 64.9242 58.3458 65.1986 58.6106C65.4729 58.8754 65.6559 59.1781 65.7474 59.5189C65.8267 59.8647 65.7862 60.2317 65.6259 60.6199C65.4264 61.103 65.1029 61.4339 64.6554 61.6126C64.1958 61.7964 63.6538 61.825 63.0295 61.6984L60.259 61.1448L60.6118 60.2908L62.8714 60.7243C63.3298 60.8126 63.6945 60.8219 63.9657 60.7521C64.2368 60.6823 64.4294 60.5094 64.5434 60.2334C64.6539 59.966 64.6412 59.7032 64.5055 59.4452C64.3575 59.1922 64.0894 58.9856 63.7012 58.8252C63.4511 58.7219 63.2014 58.6541 62.9521 58.6219C62.6907 58.5947 62.4427 58.6084 62.2081 58.6629C61.9699 58.7261 61.7581 58.8356 61.5727 58.9912C61.3836 59.1555 61.2321 59.3757 61.1181 59.6517L60.3806 61.4374Z" fill="#FEFEFA"/>
<path d="M53.8508 63.5723L56.5444 57.0507C56.6762 56.7315 56.6836 56.4569 56.5666 56.2268C56.4496 55.9967 56.2487 55.8229 55.964 55.7053C55.7139 55.602 55.4804 55.556 55.2636 55.5675C55.0468 55.5789 54.8348 55.6277 54.6276 55.7137L54.6234 54.6971C54.8966 54.5979 55.1926 54.5536 55.5114 54.5641C55.8216 54.571 56.1535 54.6475 56.5072 54.7936C56.835 54.929 57.1181 55.1115 57.3565 55.3413C57.5913 55.5796 57.7433 55.8595 57.8125 56.1809C57.8695 56.5074 57.8168 56.8795 57.6544 57.2971L55.0035 63.7152L53.8508 63.5723ZM52.2546 60.7622L52.6234 59.8694L57.3076 61.8041L56.9388 62.6969L52.2546 60.7622Z" fill="#FEFEFA"/>
<path d="M51.0991 52.5599C51.5132 52.7309 51.8736 52.9707 52.1804 53.2792C52.4786 53.5841 52.6729 53.9572 52.7633 54.3984C52.8415 54.8448 52.7648 55.3483 52.5332 55.909L50.7802 60.1532L49.745 59.7257L51.3858 55.7532C51.6566 55.0976 51.7013 54.5859 51.52 54.2181C51.3351 53.859 50.9838 53.5726 50.4662 53.3588C50.2247 53.259 49.9714 53.1999 49.7064 53.1813C49.4379 53.1714 49.1774 53.2152 48.925 53.313C48.6604 53.4157 48.4193 53.5838 48.2018 53.817C47.9756 54.0468 47.7842 54.3514 47.6274 54.731L46.1737 58.2506L45.1385 57.823L47.8107 51.3532L48.7165 51.7273L48.375 52.7374C48.7597 52.4419 49.1835 52.2837 49.6465 52.2629C50.0973 52.2471 50.5815 52.3461 51.0991 52.5599Z" fill="#FEFEFA"/>
<path d="M45.4015 50.3581L42.7293 56.828L41.8882 56.4806L42.1841 55.3607C41.8391 55.6827 41.453 55.8717 41.026 55.9275C40.5904 55.9799 40.1224 55.9027 39.6221 55.6961C39.5099 55.6497 39.3927 55.5912 39.2704 55.5205C39.1395 55.4463 39.0373 55.3637 38.9638 55.2727L39.5351 54.4029C39.6158 54.4766 39.7086 54.5453 39.8136 54.6088C39.9186 54.6724 40.0747 54.747 40.2817 54.8325C40.5491 54.9429 40.8529 54.9775 41.1931 54.9363C41.5247 54.8914 41.8469 54.7468 42.1599 54.5025C42.4693 54.2668 42.7238 53.9073 42.9233 53.4243L44.3664 49.9305L45.4015 50.3581Z" fill="#FEFEFA"/>
<path d="M40.1195 48.1765L37.4473 54.6463L36.5415 54.2722L37.0495 52.7855L37.1589 52.9974C36.8784 53.2854 36.5789 53.4849 36.2604 53.5957C35.9385 53.7152 35.6069 53.76 35.2658 53.7302C34.916 53.6968 34.5773 53.6124 34.2495 53.477C33.7836 53.2846 33.3983 53.0194 33.0936 52.6815C32.7853 52.3522 32.5938 51.9601 32.5192 51.5051C32.4359 51.0466 32.5101 50.537 32.7417 49.9763L34.4519 45.8356L35.4871 46.2631L33.9265 50.0415C33.6308 50.7575 33.5812 51.3177 33.7777 51.722C33.962 52.1314 34.2785 52.4287 34.7271 52.614C35.0376 52.7423 35.3785 52.7972 35.7496 52.7788C36.1207 52.7604 36.4775 52.6301 36.8199 52.3878C37.1537 52.1419 37.4347 51.743 37.6627 51.1909L39.0843 47.7489L40.1195 48.1765Z" fill="#FEFEFA"/>
</svg>
