<svg width="124" height="56" viewBox="0 0 124 56" fill="none" xmlns="http://www.w3.org/2000/svg">
<path d="M23 20.4141C22.7348 20.4141 22.4804 20.5194 22.2929 20.707C22.1054 20.8945 22 21.1488 22 21.4141C22 21.6793 22.1054 21.9336 22.2929 22.1212C22.4804 22.3087 22.7348 22.4141 23 22.4141H25C25.2652 22.4141 25.5196 22.3087 25.7071 22.1212C25.8946 21.9336 26 21.6793 26 21.4141C26 21.1488 25.8946 20.8945 25.7071 20.707C25.5196 20.5194 25.2652 20.4141 25 20.4141H23Z" fill="#666666"/>
<path d="M18.9999 23.4141C18.9999 23.1488 18.8946 22.8945 18.707 22.707C18.5195 22.5194 18.2651 22.4141 17.9999 22.4141C17.7347 22.4141 17.4803 22.5194 17.2928 22.707C17.1053 22.8945 16.9999 23.1488 16.9999 23.4141V30.6821C16.6959 30.8576 16.4434 31.1101 16.2679 31.4141C16.0924 31.7181 16 32.063 16 32.4141C16 32.7651 16.0924 33.11 16.2679 33.414C16.4434 33.718 16.6959 33.9705 16.9999 34.1461V35.4141C16.9999 35.6793 17.1053 35.9336 17.2928 36.1212C17.4803 36.3087 17.7347 36.4141 17.9999 36.4141C18.2651 36.4141 18.5195 36.3087 18.707 36.1212C18.8946 35.9336 18.9999 35.6793 18.9999 35.4141V34.1461C19.3039 33.9705 19.5564 33.718 19.7319 33.414C19.9074 33.11 19.9998 32.7651 19.9998 32.4141C19.9998 32.063 19.9074 31.7181 19.7319 31.4141C19.5564 31.1101 19.3039 30.8576 18.9999 30.6821V23.4141ZM24.9999 23.4141C24.9999 23.1488 24.8946 22.8945 24.707 22.707C24.5195 22.5194 24.2651 22.4141 23.9999 22.4141C23.7347 22.4141 23.4803 22.5194 23.2928 22.707C23.1053 22.8945 22.9999 23.1488 22.9999 23.4141V24.6821C22.6959 24.8576 22.4434 25.1101 22.2679 25.4141C22.0924 25.7181 22 26.063 22 26.4141C22 26.7651 22.0924 27.11 22.2679 27.414C22.4434 27.718 22.6959 27.9705 22.9999 28.1461V35.4141C22.9999 35.6793 23.1053 35.9336 23.2928 36.1212C23.4803 36.3087 23.7347 36.4141 23.9999 36.4141C24.2651 36.4141 24.5195 36.3087 24.707 36.1212C24.8946 35.9336 24.9999 35.6793 24.9999 35.4141V28.1461C25.3039 27.9705 25.5564 27.718 25.7319 27.414C25.9074 27.11 25.9998 26.7651 25.9998 26.4141C25.9998 26.063 25.9074 25.7181 25.7319 25.4141C25.5564 25.1101 25.3039 24.8576 24.9999 24.6821V23.4141ZM29.9999 22.4141C30.2651 22.4141 30.5195 22.5194 30.707 22.707C30.8946 22.8945 30.9999 23.1488 30.9999 23.4141V30.6821C31.3039 30.8576 31.5564 31.1101 31.7319 31.4141C31.9074 31.7181 31.9998 32.063 31.9998 32.4141C31.9998 32.7651 31.9074 33.11 31.7319 33.414C31.5564 33.718 31.3039 33.9705 30.9999 34.1461V35.4141C30.9999 35.6793 30.8946 35.9336 30.707 36.1212C30.5195 36.3087 30.2651 36.4141 29.9999 36.4141C29.7347 36.4141 29.4803 36.3087 29.2928 36.1212C29.1053 35.9336 28.9999 35.6793 28.9999 35.4141V34.1461C28.6959 33.9705 28.4434 33.718 28.2679 33.414C28.0924 33.11 28 32.7651 28 32.4141C28 32.063 28.0924 31.7181 28.2679 31.4141C28.4434 31.1101 28.6959 30.8576 28.9999 30.6821V23.4141C28.9999 23.1488 29.1053 22.8945 29.2928 22.707C29.4803 22.5194 29.7347 22.4141 29.9999 22.4141Z" fill="#666666"/>
<path d="M53.168 22.78C54.1173 22.78 54.9387 22.9613 55.632 23.324C56.3253 23.676 56.912 24.1987 57.392 24.892L56.24 25.996C55.8347 25.3773 55.376 24.9347 54.864 24.668C54.3627 24.3907 53.7653 24.252 53.072 24.252C52.56 24.252 52.1387 24.3213 51.808 24.46C51.4773 24.5987 51.232 24.7853 51.072 25.02C50.9227 25.244 50.848 25.5 50.848 25.788C50.848 26.1187 50.96 26.4067 51.184 26.652C51.4187 26.8973 51.8507 27.0893 52.48 27.228L54.624 27.708C55.648 27.932 56.3733 28.2733 56.8 28.732C57.2267 29.1907 57.44 29.772 57.44 30.476C57.44 31.1267 57.264 31.692 56.912 32.172C56.56 32.652 56.0693 33.02 55.44 33.276C54.8213 33.532 54.0907 33.66 53.248 33.66C52.5013 33.66 51.8293 33.564 51.232 33.372C50.6347 33.18 50.112 32.9187 49.664 32.588C49.216 32.2573 48.848 31.8787 48.56 31.452L49.744 30.268C49.968 30.6413 50.2507 30.9773 50.592 31.276C50.9333 31.564 51.328 31.788 51.776 31.948C52.2347 32.108 52.7413 32.188 53.296 32.188C53.7867 32.188 54.208 32.1293 54.56 32.012C54.9227 31.8947 55.1947 31.724 55.376 31.5C55.568 31.2653 55.664 30.988 55.664 30.668C55.664 30.3587 55.5573 30.0867 55.344 29.852C55.1413 29.6173 54.7573 29.436 54.192 29.308L51.872 28.78C51.232 28.6413 50.704 28.444 50.288 28.188C49.872 27.932 49.5627 27.6227 49.36 27.26C49.1573 26.8867 49.056 26.4707 49.056 26.012C49.056 25.4147 49.216 24.876 49.536 24.396C49.8667 23.9053 50.3413 23.516 50.96 23.228C51.5787 22.9293 52.3147 22.78 53.168 22.78ZM63.1136 33.66C62.3136 33.66 61.6096 33.4947 61.0016 33.164C60.3936 32.8333 59.919 32.3587 59.5776 31.74C59.247 31.1107 59.0816 30.364 59.0816 29.5C59.0816 28.636 59.247 27.8947 59.5776 27.276C59.919 26.6467 60.3883 26.1667 60.9856 25.836C61.583 25.5053 62.2603 25.34 63.0176 25.34C63.7963 25.34 64.4576 25.5 65.0016 25.82C65.5456 26.14 65.9616 26.5773 66.2496 27.132C66.5376 27.6867 66.6816 28.316 66.6816 29.02C66.6816 29.212 66.6763 29.3933 66.6656 29.564C66.655 29.7347 66.639 29.884 66.6176 30.012H60.1856V28.7H65.8656L65.0176 28.956C65.0176 28.2307 64.8363 27.676 64.4736 27.292C64.111 26.8973 63.615 26.7 62.9856 26.7C62.527 26.7 62.127 26.8067 61.7856 27.02C61.4443 27.2333 61.183 27.5533 61.0016 27.98C60.8203 28.396 60.7296 28.908 60.7296 29.516C60.7296 30.1133 60.8256 30.62 61.0176 31.036C61.2096 31.452 61.4816 31.7667 61.8336 31.98C62.1856 32.1933 62.6016 32.3 63.0816 32.3C63.615 32.3 64.047 32.1987 64.3776 31.996C64.7083 31.7933 64.9696 31.5107 65.1616 31.148L66.5216 31.788C66.3296 32.172 66.0683 32.508 65.7376 32.796C65.4176 33.0733 65.0336 33.2867 64.5856 33.436C64.1376 33.5853 63.647 33.66 63.1136 33.66ZM70.9921 23.148V31.1C70.9921 31.4947 71.0935 31.7827 71.2961 31.964C71.5095 32.1453 71.7921 32.236 72.1441 32.236C72.4321 32.236 72.6828 32.1933 72.8961 32.108C73.1095 32.012 73.3068 31.884 73.4881 31.724L73.8721 32.972C73.6268 33.1853 73.3228 33.356 72.9601 33.484C72.6081 33.6013 72.2135 33.66 71.7761 33.66C71.3175 33.66 70.8961 33.5853 70.5121 33.436C70.1281 33.2867 69.8295 33.0467 69.6161 32.716C69.4028 32.3747 69.2908 31.932 69.2801 31.388V23.628L70.9921 23.148ZM73.7441 25.5V26.844H67.7441V25.5H73.7441ZM76.8671 23.148V31.1C76.8671 31.4947 76.9685 31.7827 77.1711 31.964C77.3845 32.1453 77.6671 32.236 78.0191 32.236C78.3071 32.236 78.5578 32.1933 78.7711 32.108C78.9845 32.012 79.1818 31.884 79.3631 31.724L79.7471 32.972C79.5018 33.1853 79.1978 33.356 78.8351 33.484C78.4831 33.6013 78.0885 33.66 77.6511 33.66C77.1925 33.66 76.7711 33.5853 76.3871 33.436C76.0031 33.2867 75.7045 33.0467 75.4911 32.716C75.2778 32.3747 75.1658 31.932 75.1551 31.388V23.628L76.8671 23.148ZM79.6191 25.5V26.844H73.6191V25.5H79.6191ZM82.1764 24.156C81.803 24.156 81.515 24.0653 81.3124 23.884C81.1204 23.692 81.0244 23.4253 81.0244 23.084C81.0244 22.7427 81.1204 22.4813 81.3124 22.3C81.515 22.1187 81.803 22.028 82.1764 22.028C82.539 22.028 82.8164 22.1187 83.0084 22.3C83.211 22.4813 83.3124 22.7427 83.3124 23.084C83.3124 23.4253 83.211 23.692 83.0084 23.884C82.8164 24.0653 82.539 24.156 82.1764 24.156ZM83.0244 25.5V33.5H81.3124V25.5H83.0244ZM85.703 33.5V25.5H87.223L87.335 27.58L87.111 27.356C87.2603 26.8973 87.4737 26.5187 87.751 26.22C88.039 25.9107 88.375 25.6867 88.759 25.548C89.1537 25.4093 89.5697 25.34 90.007 25.34C90.5723 25.34 91.079 25.452 91.527 25.676C91.9857 25.8893 92.3483 26.2147 92.615 26.652C92.8817 27.0893 93.015 27.644 93.015 28.316V33.5H91.303V28.844C91.303 28.0547 91.1377 27.5107 90.807 27.212C90.487 26.9027 90.0817 26.748 89.591 26.748C89.239 26.748 88.8977 26.8333 88.567 27.004C88.2363 27.164 87.959 27.4253 87.735 27.788C87.5217 28.1507 87.415 28.636 87.415 29.244V33.5H85.703ZM102.649 23.82L102.921 25.164C102.889 25.164 102.857 25.164 102.825 25.164C102.793 25.1533 102.761 25.148 102.729 25.148C102.217 25.148 101.828 25.26 101.561 25.484C101.295 25.6973 101.161 26.012 101.161 26.428L100.329 26.044C100.329 25.6173 100.42 25.2387 100.601 24.908C100.783 24.5667 101.039 24.3 101.369 24.108C101.711 23.916 102.095 23.82 102.521 23.82C102.543 23.82 102.564 23.82 102.585 23.82C102.607 23.82 102.628 23.82 102.649 23.82ZM100.121 32.252C100.932 32.252 101.561 32.4333 102.009 32.796C102.457 33.148 102.681 33.6387 102.681 34.268C102.681 34.8227 102.505 35.2973 102.153 35.692C101.801 36.0973 101.321 36.4067 100.713 36.62C100.116 36.8333 99.4279 36.94 98.6493 36.94C97.3373 36.94 96.3666 36.7373 95.7373 36.332C95.1079 35.9267 94.7933 35.42 94.7933 34.812C94.7933 34.3853 94.9426 34.012 95.2413 33.692C95.5506 33.372 96.0679 33.1907 96.7933 33.148L96.6973 33.404C96.2493 33.308 95.8866 33.1373 95.6093 32.892C95.3426 32.636 95.2093 32.2787 95.2093 31.82C95.2093 31.3613 95.3853 30.972 95.7373 30.652C96.0893 30.332 96.5853 30.1453 97.2253 30.092L98.1213 30.524H97.9293C97.4386 30.5667 97.0919 30.6787 96.8893 30.86C96.6866 31.0413 96.5853 31.244 96.5853 31.468C96.5853 31.7347 96.6813 31.932 96.8733 32.06C97.0759 32.188 97.3586 32.252 97.7213 32.252H100.121ZM98.6493 35.66C99.2359 35.66 99.7159 35.6013 100.089 35.484C100.473 35.3773 100.756 35.2333 100.937 35.052C101.129 34.8813 101.225 34.6893 101.225 34.476C101.225 34.2307 101.124 34.0333 100.921 33.884C100.729 33.7347 100.377 33.66 99.8653 33.66H97.2893C96.9906 33.66 96.7399 33.7347 96.5373 33.884C96.3346 34.044 96.2333 34.2573 96.2333 34.524C96.2333 34.876 96.4466 35.1533 96.8733 35.356C97.2999 35.5587 97.8919 35.66 98.6493 35.66ZM98.5853 25.34C99.2893 25.34 99.8973 25.452 100.409 25.676C100.932 25.9 101.332 26.2147 101.609 26.62C101.897 27.0253 102.041 27.5 102.041 28.044C102.041 28.588 101.897 29.0627 101.609 29.468C101.332 29.8733 100.932 30.188 100.409 30.412C99.8973 30.636 99.2893 30.748 98.5853 30.748C97.4759 30.748 96.6226 30.5027 96.0253 30.012C95.4386 29.5107 95.1453 28.8547 95.1453 28.044C95.1453 27.5 95.2893 27.0253 95.5773 26.62C95.8653 26.2147 96.2653 25.9 96.7773 25.676C97.2999 25.452 97.9026 25.34 98.5853 25.34ZM98.5853 26.54C98.0946 26.54 97.6839 26.6787 97.3533 26.956C97.0333 27.2227 96.8733 27.5853 96.8733 28.044C96.8733 28.5027 97.0333 28.8707 97.3533 29.148C97.6839 29.4253 98.0946 29.564 98.5853 29.564C99.0866 29.564 99.4973 29.4253 99.8173 29.148C100.148 28.8707 100.313 28.5027 100.313 28.044C100.313 27.5853 100.148 27.2227 99.8173 26.956C99.4973 26.6787 99.0866 26.54 98.5853 26.54ZM107.29 33.66C106.49 33.66 105.759 33.5053 105.098 33.196C104.437 32.8867 103.914 32.4493 103.53 31.884L104.714 30.86C104.949 31.2973 105.285 31.6493 105.722 31.916C106.17 32.172 106.703 32.3 107.322 32.3C107.813 32.3 108.202 32.2147 108.49 32.044C108.778 31.8733 108.922 31.6333 108.922 31.324C108.922 31.1213 108.853 30.9453 108.714 30.796C108.586 30.636 108.335 30.5133 107.962 30.428L106.282 30.076C105.429 29.9053 104.821 29.6333 104.458 29.26C104.095 28.876 103.914 28.3907 103.914 27.804C103.914 27.3667 104.042 26.9613 104.298 26.588C104.554 26.2147 104.927 25.916 105.418 25.692C105.919 25.4573 106.517 25.34 107.21 25.34C108.01 25.34 108.693 25.484 109.258 25.772C109.823 26.0493 110.255 26.4493 110.554 26.972L109.37 27.964C109.167 27.5373 108.869 27.2227 108.474 27.02C108.079 26.8067 107.669 26.7 107.242 26.7C106.901 26.7 106.607 26.7427 106.362 26.828C106.117 26.9133 105.93 27.0307 105.802 27.18C105.674 27.3293 105.61 27.5053 105.61 27.708C105.61 27.9213 105.69 28.108 105.85 28.268C106.01 28.428 106.298 28.5507 106.714 28.636L108.538 29.02C109.306 29.1693 109.845 29.4253 110.154 29.788C110.474 30.14 110.634 30.572 110.634 31.084C110.634 31.596 110.501 32.0493 110.234 32.444C109.967 32.828 109.583 33.1267 109.082 33.34C108.581 33.5533 107.983 33.66 107.29 33.66Z" fill="#666666"/>
</svg>
