<svg width="65" height="56" viewBox="0 0 65 56" fill="none" xmlns="http://www.w3.org/2000/svg">
<g filter="url(#filter0_d_1318_947)">
<rect x="4.16211" y="4" width="56.75" height="47.6667" rx="6" transform="rotate(0.194149 4.16211 4)" fill="#7D67EE"/>
<path d="M27.4917 19.8791L37.5517 19.9132L37.5456 21.6931C36.4351 22.8361 35.5378 24.013 34.8536 25.224C34.1696 26.4217 33.672 27.6734 33.3609 28.979C33.0632 30.2713 32.9119 31.6442 32.907 33.0975L30.747 33.0902C30.7519 31.6235 30.9368 30.1975 31.3015 28.812C31.6795 27.4133 32.2441 26.0819 32.995 24.8177C33.7593 23.5403 34.7167 22.3436 35.8672 21.2275L36.2654 21.7688L27.4854 21.7391L27.4917 19.8791Z" fill="#666666"/>
</g>
<defs>
<filter id="filter0_d_1318_947" x="0" y="0" width="64.9121" height="55.8586" filterUnits="userSpaceOnUse" color-interpolation-filters="sRGB">
<feFlood flood-opacity="0" result="BackgroundImageFix"/>
<feColorMatrix in="SourceAlpha" type="matrix" values="0 0 0 0 0 0 0 0 0 0 0 0 0 0 0 0 0 0 127 0" result="hardAlpha"/>
<feOffset/>
<feGaussianBlur stdDeviation="2"/>
<feComposite in2="hardAlpha" operator="out"/>
<feColorMatrix type="matrix" values="0 0 0 0 0 0 0 0 0 0 0 0 0 0 0 0 0 0 0.25 0"/>
<feBlend mode="normal" in2="BackgroundImageFix" result="effect1_dropShadow_1318_947"/>
<feBlend mode="normal" in="SourceGraphic" in2="effect1_dropShadow_1318_947" result="shape"/>
</filter>
</defs>
</svg>
