<svg width="65" height="56" viewBox="0 0 65 56" fill="none" xmlns="http://www.w3.org/2000/svg">
<g filter="url(#filter0_d_1318_952)">
<rect x="4.16211" y="4" width="56.75" height="47.6667" rx="6" transform="rotate(0.194149 4.16211 4)" fill="#7D67EE"/>
<path d="M32.951 19.6976C33.6577 19.7 34.284 19.8021 34.83 20.0039C35.376 20.1925 35.8484 20.4941 36.247 20.9087C36.6589 21.3235 36.997 21.8646 37.2615 22.5322L35.3784 23.4258C35.1937 22.8519 34.8952 22.3975 34.483 22.0628C34.0842 21.7281 33.5247 21.5595 32.8047 21.5571C32.2847 21.5553 31.8243 21.6804 31.4235 21.9324C31.0226 22.1844 30.6814 22.5432 30.3998 23.0089C30.1183 23.4613 29.9031 24.0006 29.7543 24.6268C29.6056 25.2396 29.53 25.906 29.5275 26.626C29.5274 26.666 29.5272 26.7127 29.5271 26.766C29.5269 26.806 29.5267 26.8793 29.5263 26.986L29.6062 27.0263C29.7547 26.4934 30.0161 26.0677 30.3905 25.7489C30.7783 25.4169 31.2125 25.1717 31.693 25.0133C32.1736 24.855 32.6472 24.7766 33.1138 24.7782C33.9938 24.7811 34.7599 24.9571 35.412 25.3059C36.0642 25.6415 36.5693 26.1232 36.9272 26.7511C37.2984 27.379 37.4825 28.1263 37.4796 28.993C37.4766 29.873 37.2807 30.639 36.8918 31.291C36.5029 31.9297 35.9612 32.4278 35.2667 32.7855C34.5855 33.1299 33.7649 33.3004 32.805 33.2972C31.685 33.2934 30.7326 33.0101 29.9478 32.4475C29.1631 31.8848 28.5657 31.0961 28.1558 30.0814C27.7459 29.0667 27.5433 27.8793 27.5479 26.5193C27.553 25.0126 27.7906 23.7534 28.2607 22.7417C28.7441 21.73 29.3934 20.9722 30.2084 20.4683C31.0235 19.951 31.9377 19.6941 32.951 19.6976ZM32.7878 26.5571C32.2811 26.5553 31.8341 26.6605 31.4467 26.8725C31.0594 27.0712 30.7518 27.3502 30.5239 27.7094C30.3093 28.0687 30.2012 28.4883 30.1996 28.9683C30.198 29.435 30.3099 29.8553 30.5353 30.2294C30.7741 30.6036 31.0864 30.9046 31.4723 31.1326C31.8582 31.3473 32.2912 31.4554 32.7712 31.457C33.5845 31.4598 34.2186 31.2419 34.6734 30.8035C35.1282 30.365 35.357 29.7591 35.3596 28.9858C35.3612 28.4925 35.2627 28.0655 35.0639 27.7048C34.8652 27.3308 34.5728 27.0498 34.1868 26.8618C33.8141 26.6605 33.3478 26.559 32.7878 26.5571Z" fill="#666666"/>
</g>
<defs>
<filter id="filter0_d_1318_952" x="0" y="0" width="64.9121" height="55.8586" filterUnits="userSpaceOnUse" color-interpolation-filters="sRGB">
<feFlood flood-opacity="0" result="BackgroundImageFix"/>
<feColorMatrix in="SourceAlpha" type="matrix" values="0 0 0 0 0 0 0 0 0 0 0 0 0 0 0 0 0 0 127 0" result="hardAlpha"/>
<feOffset/>
<feGaussianBlur stdDeviation="2"/>
<feComposite in2="hardAlpha" operator="out"/>
<feColorMatrix type="matrix" values="0 0 0 0 0 0 0 0 0 0 0 0 0 0 0 0 0 0 0.25 0"/>
<feBlend mode="normal" in2="BackgroundImageFix" result="effect1_dropShadow_1318_952"/>
<feBlend mode="normal" in="SourceGraphic" in2="effect1_dropShadow_1318_952" result="shape"/>
</filter>
</defs>
</svg>
