<svg width="161" height="56" viewBox="0 0 161 56" fill="none" xmlns="http://www.w3.org/2000/svg">
<path d="M16 28.4141C16 26.2923 16.8429 24.2575 18.3431 22.7572C19.8434 21.2569 21.8783 20.4141 24 20.4141V28.4141H32C32 30.5358 31.1571 32.5706 29.6569 34.0709C28.1566 35.5712 26.1217 36.4141 24 36.4141C21.8783 36.4141 19.8434 35.5712 18.3431 34.0709C16.8429 32.5706 16 30.5358 16 28.4141Z" fill="#666666"/>
<path d="M26 20.666C27.3836 21.0245 28.6462 21.7465 29.6569 22.7571C30.6676 23.7678 31.3895 25.0304 31.748 26.414H26V20.666Z" fill="#666666"/>
<path d="M60.368 22.94V33.5H58.784V27.388L58.912 24.476H58.896L55.68 33.5H54.256L51.04 24.476H51.024L51.152 27.388V33.5H49.568V22.94H52.112L54.24 29.052L54.976 31.564H55.008L55.76 29.052L57.872 22.94H60.368ZM70.2895 25.5L66.7855 34.444C66.5508 35.0627 66.2948 35.5533 66.0175 35.916C65.7508 36.2787 65.4415 36.54 65.0895 36.7C64.7375 36.86 64.3268 36.94 63.8575 36.94C63.4735 36.94 63.1162 36.8867 62.7855 36.78C62.4655 36.684 62.1828 36.5507 61.9375 36.38L62.3535 35.052C62.5562 35.2227 62.7695 35.3507 62.9935 35.436C63.2282 35.5213 63.4788 35.564 63.7455 35.564C64.0335 35.564 64.2895 35.484 64.5135 35.324C64.7482 35.1747 64.9562 34.8707 65.1375 34.412L65.4895 33.548L64.6415 31.564L62.1455 25.5H64.0655L65.8415 30.524L66.3055 32.028L66.8335 30.38L68.5135 25.5H70.2895ZM79.6024 33.66C78.8024 33.66 78.0717 33.5053 77.4104 33.196C76.749 32.8867 76.2264 32.4493 75.8424 31.884L77.0264 30.86C77.261 31.2973 77.597 31.6493 78.0344 31.916C78.4824 32.172 79.0157 32.3 79.6344 32.3C80.125 32.3 80.5144 32.2147 80.8024 32.044C81.0904 31.8733 81.2344 31.6333 81.2344 31.324C81.2344 31.1213 81.165 30.9453 81.0264 30.796C80.8984 30.636 80.6477 30.5133 80.2744 30.428L78.5944 30.076C77.741 29.9053 77.133 29.6333 76.7704 29.26C76.4077 28.876 76.2264 28.3907 76.2264 27.804C76.2264 27.3667 76.3544 26.9613 76.6104 26.588C76.8664 26.2147 77.2397 25.916 77.7304 25.692C78.2317 25.4573 78.829 25.34 79.5224 25.34C80.3224 25.34 81.005 25.484 81.5704 25.772C82.1357 26.0493 82.5677 26.4493 82.8664 26.972L81.6824 27.964C81.4797 27.5373 81.181 27.2227 80.7864 27.02C80.3917 26.8067 79.981 26.7 79.5544 26.7C79.213 26.7 78.9197 26.7427 78.6744 26.828C78.429 26.9133 78.2424 27.0307 78.1144 27.18C77.9864 27.3293 77.9224 27.5053 77.9224 27.708C77.9224 27.9213 78.0024 28.108 78.1624 28.268C78.3224 28.428 78.6104 28.5507 79.0264 28.636L80.8504 29.02C81.6184 29.1693 82.157 29.4253 82.4664 29.788C82.7864 30.14 82.9464 30.572 82.9464 31.084C82.9464 31.596 82.813 32.0493 82.5464 32.444C82.2797 32.828 81.8957 33.1267 81.3944 33.34C80.893 33.5533 80.2957 33.66 79.6024 33.66ZM87.8791 33.66C87.3565 33.66 86.8711 33.564 86.4231 33.372C85.9858 33.18 85.6338 32.8707 85.3671 32.444C85.1005 32.0173 84.9671 31.4627 84.9671 30.78V25.5H86.6791V30.348C86.6791 31.0733 86.8338 31.5747 87.1431 31.852C87.4525 32.1187 87.8845 32.252 88.4391 32.252C88.7058 32.252 88.9618 32.2093 89.2071 32.124C89.4631 32.028 89.6925 31.884 89.8951 31.692C90.0978 31.4893 90.2525 31.2333 90.3591 30.924C90.4765 30.6147 90.5351 30.252 90.5351 29.836V25.5H92.2471V33.5H90.7431L90.6631 32.204C90.3858 32.7053 90.0125 33.0733 89.5431 33.308C89.0738 33.5427 88.5191 33.66 87.8791 33.66ZM94.9218 33.5V25.5H96.4418L96.5218 26.844C96.7991 26.332 97.1671 25.9533 97.6258 25.708C98.0951 25.4627 98.5911 25.34 99.1138 25.34C99.6898 25.34 100.218 25.4733 100.698 25.74C101.188 25.996 101.556 26.3853 101.802 26.908C101.972 26.556 102.207 26.2627 102.506 26.028C102.804 25.7933 103.135 25.6227 103.498 25.516C103.86 25.3987 104.218 25.34 104.57 25.34C105.082 25.34 105.562 25.4467 106.01 25.66C106.458 25.8733 106.82 26.1987 107.098 26.636C107.375 27.0733 107.514 27.6333 107.514 28.316V33.5H105.802V28.588C105.802 27.9373 105.647 27.468 105.338 27.18C105.028 26.892 104.634 26.748 104.154 26.748C103.78 26.748 103.434 26.8387 103.114 27.02C102.804 27.2013 102.554 27.4733 102.362 27.836C102.17 28.188 102.074 28.6253 102.074 29.148V33.5H100.362V28.588C100.362 27.9373 100.207 27.468 99.8978 27.18C99.5884 26.892 99.1938 26.748 98.7138 26.748C98.3938 26.748 98.0738 26.8333 97.7538 27.004C97.4338 27.1747 97.1671 27.4413 96.9538 27.804C96.7404 28.1667 96.6338 28.6467 96.6338 29.244V33.5H94.9218ZM110.109 33.5V25.5H111.629L111.709 26.844C111.987 26.332 112.355 25.9533 112.813 25.708C113.283 25.4627 113.779 25.34 114.301 25.34C114.877 25.34 115.405 25.4733 115.885 25.74C116.376 25.996 116.744 26.3853 116.989 26.908C117.16 26.556 117.395 26.2627 117.693 26.028C117.992 25.7933 118.323 25.6227 118.685 25.516C119.048 25.3987 119.405 25.34 119.757 25.34C120.269 25.34 120.749 25.4467 121.197 25.66C121.645 25.8733 122.008 26.1987 122.285 26.636C122.563 27.0733 122.701 27.6333 122.701 28.316V33.5H120.989V28.588C120.989 27.9373 120.835 27.468 120.525 27.18C120.216 26.892 119.821 26.748 119.341 26.748C118.968 26.748 118.621 26.8387 118.301 27.02C117.992 27.2013 117.741 27.4733 117.549 27.836C117.357 28.188 117.261 28.6253 117.261 29.148V33.5H115.549V28.588C115.549 27.9373 115.395 27.468 115.085 27.18C114.776 26.892 114.381 26.748 113.901 26.748C113.581 26.748 113.261 26.8333 112.941 27.004C112.621 27.1747 112.355 27.4413 112.141 27.804C111.928 28.1667 111.821 28.6467 111.821 29.244V33.5H110.109ZM129.921 28.364C129.921 27.8307 129.771 27.42 129.473 27.132C129.185 26.8333 128.785 26.684 128.273 26.684C127.793 26.684 127.382 26.796 127.041 27.02C126.699 27.244 126.449 27.6067 126.289 28.108L124.849 27.5C125.051 26.8493 125.446 26.3267 126.033 25.932C126.63 25.5373 127.398 25.34 128.337 25.34C128.977 25.34 129.542 25.4467 130.033 25.66C130.523 25.8627 130.907 26.172 131.185 26.588C131.473 27.004 131.617 27.5373 131.617 28.188V31.756C131.617 32.1507 131.814 32.348 132.209 32.348C132.401 32.348 132.587 32.3213 132.769 32.268L132.673 33.452C132.427 33.5693 132.118 33.628 131.745 33.628C131.403 33.628 131.094 33.5693 130.817 33.452C130.55 33.324 130.337 33.1373 130.177 32.892C130.027 32.636 129.953 32.3213 129.953 31.948V31.836L130.305 31.82C130.209 32.236 130.011 32.5827 129.713 32.86C129.414 33.1267 129.067 33.3293 128.673 33.468C128.278 33.596 127.878 33.66 127.473 33.66C126.971 33.66 126.518 33.58 126.113 33.42C125.718 33.26 125.403 33.02 125.169 32.7C124.945 32.3693 124.833 31.964 124.833 31.484C124.833 30.8867 125.025 30.396 125.409 30.012C125.803 29.628 126.358 29.3667 127.073 29.228L130.177 28.62L130.161 29.82L127.905 30.284C127.457 30.3693 127.121 30.492 126.897 30.652C126.673 30.812 126.561 31.0467 126.561 31.356C126.561 31.6547 126.673 31.8947 126.897 32.076C127.131 32.2467 127.441 32.332 127.825 32.332C128.091 32.332 128.347 32.3 128.593 32.236C128.849 32.172 129.078 32.0707 129.281 31.932C129.483 31.7827 129.638 31.596 129.745 31.372C129.862 31.1373 129.921 30.86 129.921 30.54V28.364ZM134.422 33.5V25.5H135.878L136.038 26.94C136.251 26.4173 136.566 26.0227 136.982 25.756C137.408 25.4787 137.931 25.34 138.55 25.34C138.71 25.34 138.87 25.356 139.03 25.388C139.19 25.4093 139.323 25.4467 139.43 25.5L139.19 27.004C139.072 26.9613 138.939 26.9293 138.79 26.908C138.651 26.876 138.459 26.86 138.214 26.86C137.883 26.86 137.558 26.9507 137.238 27.132C136.918 27.3027 136.651 27.564 136.438 27.916C136.235 28.268 136.134 28.716 136.134 29.26V33.5H134.422ZM148.071 25.5L144.567 34.444C144.332 35.0627 144.076 35.5533 143.799 35.916C143.532 36.2787 143.223 36.54 142.871 36.7C142.519 36.86 142.108 36.94 141.639 36.94C141.255 36.94 140.897 36.8867 140.567 36.78C140.247 36.684 139.964 36.5507 139.719 36.38L140.135 35.052C140.337 35.2227 140.551 35.3507 140.775 35.436C141.009 35.5213 141.26 35.564 141.527 35.564C141.815 35.564 142.071 35.484 142.295 35.324C142.529 35.1747 142.737 34.8707 142.919 34.412L143.271 33.548L142.423 31.564L139.927 25.5H141.847L143.623 30.524L144.087 32.028L144.615 30.38L146.295 25.5H148.071Z" fill="#666666"/>
</svg>
