<svg width="140" height="140" viewBox="0 0 140 140" fill="none" xmlns="http://www.w3.org/2000/svg">
<circle cx="70" cy="70" r="70" fill="#7D67EE"/>
<path fill-rule="evenodd" clip-rule="evenodd" d="M71 54.0205C71.3978 54.0199 71.7796 54.1773 72.0614 54.4581C72.3432 54.7389 72.5019 55.1202 72.5025 55.518L72.5051 57.018C72.5058 57.4158 72.3484 57.7976 72.0676 58.0794C71.7867 58.3612 71.4055 58.5199 71.0077 58.5205C70.6098 58.5212 70.228 58.3638 69.9463 58.083C69.6645 57.8022 69.5058 57.4209 69.5051 57.0231L69.5025 55.5231C69.5019 55.1253 69.6592 54.7435 69.9401 54.4617C70.2209 54.1799 70.6022 54.0212 71 54.0205ZM77.0204 66.0103C77.0225 67.197 76.6725 68.3576 76.0149 69.3454C75.3573 70.3333 74.4216 71.1039 73.326 71.5599C72.2304 72.0159 71.0242 72.1368 69.8599 71.9072C68.6957 71.6777 67.6256 71.1081 66.7851 70.2704C65.9445 69.4327 65.3712 68.3646 65.1377 67.2011C64.9042 66.0376 65.021 64.831 65.4733 63.7339C65.9255 62.6368 66.693 61.6984 67.6785 61.0374C68.6641 60.3764 69.8235 60.0226 71.0102 60.0205C72.6015 60.0178 74.1287 60.6474 75.2558 61.7707C76.383 62.894 77.0177 64.419 77.0204 66.0103ZM76.3371 73.4365L77.3994 74.4952C77.538 74.6382 77.7037 74.7522 77.8869 74.8305C78.07 74.9088 78.2669 74.9498 78.4661 74.9512C78.6653 74.9526 78.8627 74.9143 79.0469 74.8386C79.2311 74.7628 79.3984 74.6512 79.539 74.5101C79.6796 74.369 79.7907 74.2014 79.8658 74.0169C79.9409 73.8324 79.9786 73.6348 79.9765 73.4357C79.9744 73.2365 79.9327 73.0397 79.8538 72.8569C79.7748 72.674 79.6603 72.5087 79.5168 72.3705L78.4545 71.3119C78.3159 71.1688 78.1502 71.0548 77.967 70.9765C77.7839 70.8982 77.587 70.8572 77.3878 70.8558C77.1886 70.8544 76.9912 70.8927 76.807 70.9684C76.6228 71.0442 76.4555 71.1558 76.3149 71.2969C76.1743 71.438 76.0632 71.6057 75.9881 71.7901C75.913 71.9746 75.8753 72.1722 75.8774 72.3714C75.8795 72.5705 75.9212 72.7673 76.0001 72.9502C76.079 73.133 76.1936 73.2983 76.3371 73.4365ZM79.49 57.5206C79.7717 57.8014 79.9303 58.1826 79.931 58.5803C79.9316 58.9781 79.7743 59.3598 79.4936 59.6416L78.4364 60.7039C78.2983 60.8474 78.1329 60.9619 77.9501 61.0409C77.7672 61.1198 77.5704 61.1615 77.3713 61.1636C77.1721 61.1656 76.9745 61.128 76.7901 61.0529C76.6056 60.9778 76.4379 60.8667 76.2968 60.7261C76.1558 60.5855 76.0441 60.4182 75.9684 60.234C75.8926 60.0498 75.8543 59.8523 75.8557 59.6532C75.8571 59.454 75.8982 59.2571 75.9765 59.074C76.0548 58.8908 76.1687 58.7251 76.3118 58.5865L77.3705 57.5242C77.6513 57.2425 78.0325 57.0839 78.4302 57.0832C78.828 57.0825 79.2082 57.2398 79.49 57.5206ZM81.523 67.5026C81.9208 67.5019 82.3021 67.3433 82.5829 67.0615C82.8637 66.7797 83.0211 66.3979 83.0204 66.0001C83.0198 65.6022 82.8611 65.221 82.5793 64.9402C82.2975 64.6593 81.9157 64.5019 81.5179 64.5026L80.0179 64.5052C79.6201 64.5059 79.2388 64.6645 78.958 64.9463C78.6771 65.2281 78.5198 65.6099 78.5204 66.0077C78.5211 66.4056 78.6798 66.7868 78.9616 67.0676C79.2434 67.3485 79.6252 67.5059 80.023 67.5052L81.523 67.5026ZM71.0332 73.5205C71.4311 73.5198 71.8129 73.6772 72.0946 73.958C72.3764 74.2389 72.5351 74.6201 72.5358 75.018L72.5384 76.518C72.539 76.9158 72.3817 77.2976 72.1008 77.5794C71.82 77.8611 71.4387 78.0198 71.0409 78.0205C70.6431 78.0212 70.2613 77.8638 69.9795 77.583C69.6977 77.3022 69.539 76.9209 69.5384 76.5231L69.5358 75.0231C69.5351 74.6253 69.6925 74.2435 69.9733 73.9617C70.2542 73.6799 70.6354 73.5212 71.0332 73.5205ZM63.5864 60.7292C63.8682 61.0102 64.25 61.1677 64.6479 61.1672C65.0458 61.1667 65.4272 61.0081 65.7082 60.7263C65.9891 60.4446 66.1467 60.0628 66.1462 59.6649C66.1456 59.267 65.987 58.8856 65.7053 58.6046L64.6415 57.5459C64.5029 57.4029 64.3372 57.2889 64.154 57.2106C63.9709 57.1323 63.774 57.0912 63.5748 57.0898C63.3756 57.0885 63.1782 57.1267 62.994 57.2025C62.8098 57.2782 62.6425 57.3899 62.5019 57.531C62.3613 57.672 62.2502 57.8397 62.1751 58.0242C62.1 58.2086 62.0623 58.4062 62.0644 58.6054C62.0665 58.8046 62.1082 59.0013 62.1871 59.1842C62.2661 59.3671 62.3806 59.5324 62.5241 59.6705L63.5864 60.7292ZM65.7291 73.4546L64.6704 74.5169C64.5323 74.6604 64.367 74.7749 64.1841 74.8539C64.0012 74.9328 63.8045 74.9745 63.6053 74.9766C63.4062 74.9786 63.2086 74.941 63.0241 74.8659C62.8396 74.7908 62.672 74.6797 62.5309 74.5391C62.3898 74.3985 62.2781 74.2312 62.2024 74.047C62.1267 73.8628 62.0884 73.6653 62.0898 73.4662C62.0912 73.267 62.1322 73.0701 62.2105 72.887C62.2888 72.7038 62.4028 72.5381 62.5458 72.3995L63.6045 71.3372C63.7426 71.1937 63.908 71.0791 64.0908 71.0002C64.2737 70.9213 64.4705 70.8796 64.6696 70.8775C64.8688 70.8754 65.0664 70.913 65.2508 70.9881C65.4353 71.0633 65.603 71.1743 65.7441 71.3149C65.8851 71.4555 65.9968 71.6228 66.0725 71.807C66.1483 71.9913 66.1866 72.1887 66.1852 72.3879C66.1838 72.5871 66.1427 72.784 66.0644 72.9671C65.9861 73.1502 65.8722 73.316 65.7291 73.4546ZM62.023 67.5359C62.4208 67.5352 62.8021 67.3765 63.0829 67.0947C63.3638 66.8129 63.5211 66.4311 63.5205 66.0333C63.5198 65.6355 63.3611 65.2542 63.0793 64.9734C62.7975 64.6926 62.4157 64.5352 62.0179 64.5359L60.5179 64.5384C60.1201 64.5391 59.7388 64.6978 59.458 64.9796C59.1772 65.2614 59.0198 65.6432 59.0205 66.041C59.0211 66.4388 59.1798 66.8201 59.4616 67.1009C59.7434 67.3817 60.1252 67.5391 60.523 67.5384L62.023 67.5359Z" fill="#FEFEFA"/>
<path d="M61.8755 102.62C62.6875 102.62 63.3875 102.788 63.9755 103.124C64.5635 103.451 65.0535 103.936 65.4455 104.58L64.5075 105.308C64.1622 104.711 63.7702 104.291 63.3315 104.048C62.9022 103.796 62.3795 103.67 61.7635 103.67C61.2688 103.67 60.8582 103.74 60.5315 103.88C60.2142 104.02 59.9808 104.207 59.8315 104.44C59.6822 104.664 59.6075 104.921 59.6075 105.21C59.6075 105.537 59.7102 105.826 59.9155 106.078C60.1208 106.321 60.5315 106.512 61.1475 106.652L63.1495 107.1C64.0362 107.296 64.6522 107.595 64.9975 107.996C65.3522 108.388 65.5295 108.878 65.5295 109.466C65.5295 109.989 65.3802 110.455 65.0815 110.866C64.7922 111.267 64.3815 111.58 63.8495 111.804C63.3175 112.028 62.6922 112.14 61.9735 112.14C61.3015 112.14 60.7088 112.051 60.1955 111.874C59.6915 111.687 59.2575 111.44 58.8935 111.132C58.5295 110.824 58.2308 110.479 57.9975 110.096L58.9775 109.298C59.1548 109.653 59.3835 109.965 59.6635 110.236C59.9435 110.507 60.2795 110.717 60.6715 110.866C61.0728 111.015 61.5302 111.09 62.0435 111.09C62.5195 111.09 62.9302 111.034 63.2755 110.922C63.6302 110.801 63.9008 110.628 64.0875 110.404C64.2742 110.171 64.3675 109.891 64.3675 109.564C64.3675 109.265 64.2695 108.999 64.0735 108.766C63.8775 108.523 63.5088 108.341 62.9675 108.22L60.7975 107.73C60.2282 107.599 59.7662 107.422 59.4115 107.198C59.0662 106.965 58.8142 106.694 58.6555 106.386C58.5062 106.069 58.4315 105.728 58.4315 105.364C58.4315 104.869 58.5668 104.417 58.8375 104.006C59.1175 103.586 59.5142 103.25 60.0275 102.998C60.5502 102.746 61.1662 102.62 61.8755 102.62ZM70.1319 112.14C69.6839 112.14 69.2592 112.056 68.8579 111.888C68.4659 111.72 68.1439 111.449 67.8919 111.076C67.6492 110.693 67.5279 110.199 67.5279 109.592V105H68.6479V109.298C68.6479 110.007 68.8019 110.497 69.1099 110.768C69.4179 111.029 69.8519 111.16 70.4119 111.16C70.6732 111.16 70.9299 111.118 71.1819 111.034C71.4339 110.941 71.6579 110.801 71.8539 110.614C72.0592 110.418 72.2179 110.171 72.3299 109.872C72.4512 109.573 72.5119 109.219 72.5119 108.808V105H73.6319V112H72.6519L72.5819 110.936C72.3392 111.356 72.0079 111.664 71.5879 111.86C71.1772 112.047 70.6919 112.14 70.1319 112.14ZM76.2385 112V105H77.2185L77.3165 106.568L77.1345 106.414C77.2839 106.041 77.4845 105.742 77.7365 105.518C77.9885 105.285 78.2779 105.117 78.6045 105.014C78.9405 104.911 79.2859 104.86 79.6405 104.86C80.1445 104.86 80.6019 104.958 81.0125 105.154C81.4232 105.341 81.7499 105.63 81.9925 106.022C82.2445 106.414 82.3705 106.913 82.3705 107.52V112H81.2505V107.912C81.2505 107.137 81.0825 106.601 80.7465 106.302C80.4199 105.994 80.0139 105.84 79.5285 105.84C79.1925 105.84 78.8565 105.919 78.5205 106.078C78.1845 106.237 77.9045 106.493 77.6805 106.848C77.4659 107.203 77.3585 107.679 77.3585 108.276V112H76.2385Z" fill="#FFB743"/>
<path d="M58.166 117.97V119.34H59.3877V117.97H58.166ZM58.2449 119.719C57.9526 119.719 57.7112 119.801 57.5207 119.966C57.3302 120.126 57.235 120.351 57.235 120.64C57.235 120.897 57.3155 121.118 57.4764 121.305C57.6373 121.489 57.8869 121.581 58.2252 121.581C58.6061 121.581 58.8951 121.489 59.0922 121.305C59.2892 121.122 59.3877 120.823 59.3877 120.409V119.719H58.2449ZM61.8261 119.719V122H61.0872V119.719H60.1266V120.419C60.1266 120.645 60.079 120.878 59.9838 121.118C59.8918 121.358 59.7243 121.568 59.4813 121.749C59.2416 121.929 58.9132 122.02 58.4961 122.02C57.9575 122.02 57.547 121.89 57.2646 121.631C56.9854 121.371 56.8458 121.021 56.8458 120.581C56.8458 120.217 56.9526 119.933 57.166 119.729C57.3795 119.525 57.5864 119.406 57.7867 119.369V117.591H61.5552V117.97H60.1266V119.34H62.2153V119.719H61.8261ZM62.0231 122V121.749C62.0691 121.67 62.1544 121.601 62.2792 121.542C62.4007 121.479 62.5321 121.448 62.6733 121.448C62.9722 121.448 63.1889 121.529 63.3236 121.69C63.4615 121.847 63.5305 122.074 63.5305 122.369C63.5305 122.895 63.2858 123.276 62.7965 123.512C62.3104 123.752 61.698 123.872 60.959 123.872C60.2497 123.872 59.6635 123.787 59.2004 123.616C58.7341 123.448 58.5009 123.213 58.5009 122.911C58.5009 122.668 58.6208 122.534 58.8605 122.507C59.097 122.481 59.34 122.468 59.5896 122.468C59.7735 122.468 59.9443 122.498 60.1019 122.557C60.2563 122.616 60.3827 122.677 60.4812 122.739V123.01C60.3663 122.938 60.2497 122.878 60.1315 122.833C60.0099 122.79 59.8868 122.768 59.762 122.768C59.5879 122.768 59.4451 122.787 59.3334 122.823C59.2185 122.859 59.161 122.934 59.161 123.049C59.161 123.223 59.34 123.353 59.698 123.438C60.0559 123.527 60.4599 123.571 60.9098 123.571C61.4911 123.571 61.9558 123.494 62.3039 123.34C62.6487 123.186 62.8211 122.901 62.8211 122.488C62.8211 122.304 62.7916 122.167 62.7324 122.079C62.6766 121.993 62.5666 121.951 62.4024 121.951C62.2973 121.951 62.2201 121.972 62.1709 122.015C62.1216 122.057 62.0773 122.13 62.0379 122.232V122.828H61.2989V122H62.0231ZM66.6182 122.34L64.298 123.892V123.522L65.8793 122V117.97H64.6576V122H64.2783V117.591H67.6477V117.97H66.6182V122.34ZM66.8074 117.946C66.4068 117.877 66.1079 117.742 65.9109 117.542C65.7139 117.342 65.6153 117.064 65.6153 116.709C65.6153 116.348 65.7451 116.021 66.0045 115.729C66.2606 115.437 66.617 115.291 67.0735 115.291C67.6613 115.291 68.0685 115.46 68.2951 115.798C68.5217 116.136 68.635 116.594 68.635 117.172V122H68.305V117.3C68.305 116.936 68.2196 116.629 68.0488 116.379C67.8748 116.126 67.5529 116 67.0833 116C66.7648 116 66.5119 116.082 66.3247 116.246C66.1375 116.407 66.0439 116.606 66.0439 116.842C66.0439 117.095 66.1162 117.291 66.2606 117.429C66.4051 117.567 66.5874 117.655 66.8074 117.695V117.946ZM71.9682 122V121.271C71.8894 121.475 71.758 121.65 71.5741 121.798C71.3902 121.946 71.1619 122.02 70.8894 122.02C70.5609 122.02 70.3163 121.915 70.1554 121.704C69.9944 121.491 69.891 121.245 69.845 120.966C69.8352 120.841 69.8253 120.716 69.8155 120.591V117.591H70.1948V120.601C70.2013 120.837 70.2424 121.074 70.3179 121.31C70.3935 121.544 70.6036 121.66 70.9485 121.66C71.1619 121.66 71.3442 121.562 71.4953 121.365C71.6496 121.167 71.7728 120.941 71.8647 120.685C71.8976 120.57 71.932 120.455 71.9682 120.34V117.591H72.7071V121.621H75.2785V117.591H76.0174V122H71.9682ZM79.3429 117.921C78.7714 117.921 78.287 118.099 77.8897 118.453C77.4923 118.808 77.2936 119.23 77.2936 119.719L77.3035 119.961C77.3232 119.823 77.4233 119.667 77.6039 119.493C77.7879 119.319 78.0555 119.232 78.4069 119.232C78.7649 119.232 79.0703 119.356 79.3232 119.606C79.576 119.855 79.7025 120.21 79.7025 120.67C79.7025 121.015 79.5925 121.332 79.3724 121.621C79.1557 121.906 78.847 122.049 78.4463 122.049C78.2033 122.049 77.9685 121.987 77.7419 121.862C77.5153 121.737 77.3215 121.512 77.1606 121.187C77.003 120.859 76.9241 120.411 76.9241 119.842C76.9241 119.248 77.1507 118.714 77.6039 118.241C78.0604 117.768 78.6368 117.532 79.333 117.532C79.7764 117.532 80.131 117.576 80.397 117.665C80.6631 117.75 80.8716 117.849 81.0227 117.961C81.2164 117.826 81.443 117.731 81.7025 117.675C81.9652 117.619 82.2952 117.591 82.6926 117.591H84.2837V117.97H83.5941V122H82.8552V117.97H82.535C82.2755 117.97 82.044 117.99 81.8404 118.03C81.6368 118.066 81.4808 118.123 81.3724 118.202C81.6384 118.425 81.8519 118.703 82.0128 119.034C82.1737 119.363 82.2542 119.698 82.2542 120.039C82.2542 120.693 82.1524 121.19 81.9488 121.532C81.7484 121.87 81.4611 122.039 81.0867 122.039C80.7058 122.039 80.4233 121.855 80.2394 121.488C80.0555 121.12 79.9636 120.67 79.9636 120.138C79.9636 119.747 80.0292 119.381 80.1606 119.039C80.292 118.698 80.4496 118.448 80.6335 118.291C80.5284 118.212 80.3626 118.131 80.136 118.049C79.9094 117.964 79.645 117.921 79.3429 117.921ZM80.3626 120.108C80.3626 120.417 80.4003 120.722 80.4759 121.025C80.5547 121.327 80.7172 121.478 80.9636 121.478C81.131 121.478 81.264 121.342 81.3626 121.069C81.4644 120.796 81.5153 120.456 81.5153 120.049C81.5153 119.704 81.4644 119.407 81.3626 119.158C81.2608 118.905 81.1113 118.69 80.9143 118.512C80.7107 118.752 80.5678 118.995 80.4857 119.241C80.4036 119.484 80.3626 119.773 80.3626 120.108ZM78.1261 119.729C77.9389 119.729 77.7862 119.816 77.668 119.99C77.5498 120.161 77.4906 120.369 77.4906 120.616C77.4906 120.668 77.4923 120.709 77.4956 120.739C77.4956 120.989 77.5678 121.2 77.7123 121.374C77.8601 121.545 78.0342 121.631 78.2345 121.631H78.2936C78.4808 121.631 78.6335 121.544 78.7517 121.369C78.87 121.195 78.9291 120.985 78.9291 120.739C78.9291 120.686 78.9209 120.589 78.9044 120.448C78.8913 120.307 78.8158 120.153 78.6778 119.985C78.5432 119.814 78.379 119.729 78.1852 119.729H78.1261ZM81.3119 115.788C81.4498 115.788 81.568 115.837 81.6666 115.936C81.7651 116.034 81.8143 116.156 81.8143 116.3C81.8143 116.435 81.7651 116.552 81.6666 116.65C81.568 116.749 81.4498 116.798 81.3119 116.798C81.1772 116.798 81.059 116.749 80.9572 116.65C80.8554 116.552 80.8045 116.435 80.8045 116.3C80.8045 116.163 80.8537 116.043 80.9523 115.941C81.0508 115.839 81.1707 115.788 81.3119 115.788Z" fill="#FDFDFD"/>
</svg>
