<svg width="65" height="56" viewBox="0 0 65 56" fill="none" xmlns="http://www.w3.org/2000/svg">
<g filter="url(#filter0_d_1318_949)">
<rect x="4.16211" y="4" width="56.75" height="47.6667" rx="6" transform="rotate(0.194149 4.16211 4)" fill="#7D67EE"/>
<path d="M26.1962 33.0748L26.2269 24.0148C26.2278 23.7481 26.2287 23.4748 26.2297 23.1948C26.244 22.9015 26.2584 22.5949 26.2728 22.275C25.818 22.7134 25.2967 23.0917 24.709 23.4097C24.1346 23.7144 23.5405 23.9324 22.9267 24.0636L22.533 22.2023C22.8132 22.1632 23.1401 22.071 23.514 21.9256C23.8878 21.7802 24.2751 21.5948 24.6759 21.3695C25.0766 21.1442 25.4441 20.9055 25.7783 20.6533C26.1125 20.3877 26.3734 20.1286 26.5609 19.8759L28.3609 19.882L28.3162 33.0819L26.1962 33.0748ZM36.4624 33.3095C34.8757 33.3042 33.631 32.7266 32.7282 31.5769C31.8388 30.4139 31.3979 28.719 31.4054 26.4924C31.413 24.2657 31.8653 22.5806 32.7626 21.4369C33.6732 20.28 34.9218 19.7042 36.5084 19.7096C38.1084 19.715 39.3531 20.2993 40.2425 21.4623C41.1453 22.612 41.5929 24.3002 41.5854 26.5269C41.5778 28.7535 41.1188 30.4453 40.2082 31.6022C39.3109 32.7459 38.0623 33.315 36.4624 33.3095ZM36.4685 31.4896C37.1085 31.4917 37.6425 31.3135 38.0703 30.955C38.5116 30.5831 38.8401 30.0309 39.056 29.2983C39.2852 28.5524 39.4016 27.6261 39.4054 26.5195C39.4091 25.4128 39.2989 24.4924 39.0747 23.7583C38.8639 23.011 38.5391 22.4565 38.1004 22.095C37.675 21.7203 37.1423 21.5318 36.5023 21.5296C35.8623 21.5274 35.3216 21.7123 34.8804 22.0841C34.4525 22.4427 34.1306 22.9949 33.9148 23.7409C33.6989 24.4735 33.5892 25.3931 33.5854 26.4998C33.5817 27.6064 33.6852 28.5334 33.896 29.2808C34.1068 30.0149 34.425 30.5693 34.8504 30.9441C35.2891 31.3056 35.8285 31.4874 36.4685 31.4896Z" fill="#666666"/>
</g>
<defs>
<filter id="filter0_d_1318_949" x="0" y="0" width="64.9121" height="55.8586" filterUnits="userSpaceOnUse" color-interpolation-filters="sRGB">
<feFlood flood-opacity="0" result="BackgroundImageFix"/>
<feColorMatrix in="SourceAlpha" type="matrix" values="0 0 0 0 0 0 0 0 0 0 0 0 0 0 0 0 0 0 127 0" result="hardAlpha"/>
<feOffset/>
<feGaussianBlur stdDeviation="2"/>
<feComposite in2="hardAlpha" operator="out"/>
<feColorMatrix type="matrix" values="0 0 0 0 0 0 0 0 0 0 0 0 0 0 0 0 0 0 0.25 0"/>
<feBlend mode="normal" in2="BackgroundImageFix" result="effect1_dropShadow_1318_949"/>
<feBlend mode="normal" in="SourceGraphic" in2="effect1_dropShadow_1318_949" result="shape"/>
</filter>
</defs>
</svg>
