<svg width="65" height="56" viewBox="0 0 65 56" fill="none" xmlns="http://www.w3.org/2000/svg">
<g filter="url(#filter0_d_1318_955)">
<rect x="4.16211" y="4" width="56.75" height="47.6667" rx="6" transform="rotate(0.194149 4.16211 4)" fill="#7D67EE"/>
<path d="M32.4389 33.2959C31.1989 33.2917 30.1198 33.0147 29.2017 32.4649C28.2969 31.9019 27.6795 31.1198 27.3496 30.1186L29.4329 29.1457C29.5513 29.6261 29.7365 30.0401 29.9887 30.3876C30.2409 30.7351 30.5733 31.0029 30.986 31.191C31.3987 31.3657 31.9118 31.4541 32.5251 31.4562C33.0451 31.458 33.4854 31.3661 33.846 31.1807C34.2067 30.9952 34.4809 30.7362 34.6687 30.4035C34.8698 30.0708 34.9711 29.6911 34.9725 29.2645C34.974 28.8245 34.8886 28.4575 34.7163 28.1636C34.5573 27.8697 34.298 27.6555 33.9384 27.521C33.5922 27.3865 33.1458 27.3183 32.5991 27.3164C32.4391 27.3159 32.2724 27.322 32.0991 27.3347C31.9391 27.3342 31.7657 27.3469 31.5789 27.373L31.585 25.573C31.705 25.5867 31.8183 25.6004 31.9249 25.6141C32.0449 25.6145 32.1582 25.6149 32.2649 25.6153C33.1315 25.6182 33.7521 25.447 34.1266 25.1016C34.5011 24.7562 34.6896 24.2168 34.6921 23.4835C34.6942 22.8568 34.5025 22.3762 34.117 22.0415C33.7448 21.7069 33.2054 21.5384 32.4987 21.536C31.7654 21.5336 31.1915 21.705 30.777 22.0502C30.3758 22.3822 30.0675 22.8678 29.852 23.5071L27.8948 22.6805C28.0835 22.0678 28.3987 21.5355 28.8402 21.0836C29.2818 20.6318 29.8229 20.287 30.4637 20.0491C31.1179 19.798 31.8317 19.6738 32.605 19.6764C33.5517 19.6796 34.3378 19.8356 34.9634 20.1444C35.6024 20.4532 36.0743 20.8748 36.3792 21.4092C36.6974 21.9436 36.8553 22.5375 36.8531 23.1908C36.8514 23.6975 36.7766 24.1439 36.6286 24.5301C36.4807 24.9029 36.2796 25.2289 36.0253 25.508C35.7844 25.7739 35.517 25.9796 35.2232 26.1253C34.9427 26.271 34.6557 26.3701 34.3622 26.4224L34.362 26.4624C34.7486 26.477 35.1017 26.5582 35.4212 26.706C35.7541 26.8404 36.0468 27.0348 36.2992 27.289C36.5651 27.5299 36.7708 27.8239 36.9163 28.1711C37.0617 28.5182 37.1338 28.8985 37.1324 29.3118C37.1297 30.1118 36.9273 30.8111 36.5253 31.4097C36.1232 32.0084 35.5683 32.4732 34.8605 32.8041C34.1661 33.1351 33.3589 33.299 32.4389 33.2959Z" fill="#666666"/>
</g>
<defs>
<filter id="filter0_d_1318_955" x="0" y="0" width="64.9121" height="55.8586" filterUnits="userSpaceOnUse" color-interpolation-filters="sRGB">
<feFlood flood-opacity="0" result="BackgroundImageFix"/>
<feColorMatrix in="SourceAlpha" type="matrix" values="0 0 0 0 0 0 0 0 0 0 0 0 0 0 0 0 0 0 127 0" result="hardAlpha"/>
<feOffset/>
<feGaussianBlur stdDeviation="2"/>
<feComposite in2="hardAlpha" operator="out"/>
<feColorMatrix type="matrix" values="0 0 0 0 0 0 0 0 0 0 0 0 0 0 0 0 0 0 0.25 0"/>
<feBlend mode="normal" in2="BackgroundImageFix" result="effect1_dropShadow_1318_955"/>
<feBlend mode="normal" in="SourceGraphic" in2="effect1_dropShadow_1318_955" result="shape"/>
</filter>
</defs>
</svg>
