<svg width="115" height="56" viewBox="0 0 115 56" fill="none" xmlns="http://www.w3.org/2000/svg">
<path d="M57.424 22.94V24.412H53.808V33.5H52.096V24.412H48.48V22.94H57.424ZM61.0344 25.34C61.813 25.34 62.501 25.5053 63.0984 25.836C63.6957 26.1667 64.1597 26.6467 64.4904 27.276C64.8317 27.8947 65.0024 28.636 65.0024 29.5C65.0024 30.364 64.8317 31.1107 64.4904 31.74C64.1597 32.3587 63.6957 32.8333 63.0984 33.164C62.501 33.4947 61.813 33.66 61.0344 33.66C60.2557 33.66 59.5677 33.4947 58.9704 33.164C58.373 32.8333 57.9037 32.3587 57.5624 31.74C57.221 31.1107 57.0504 30.364 57.0504 29.5C57.0504 28.636 57.221 27.8947 57.5624 27.276C57.9037 26.6467 58.373 26.1667 58.9704 25.836C59.5677 25.5053 60.2557 25.34 61.0344 25.34ZM61.0344 26.684C60.5544 26.684 60.1437 26.796 59.8024 27.02C59.4717 27.2333 59.2157 27.548 59.0344 27.964C58.853 28.38 58.7624 28.892 58.7624 29.5C58.7624 30.0973 58.853 30.6093 59.0344 31.036C59.2157 31.452 59.4717 31.772 59.8024 31.996C60.1437 32.2093 60.5544 32.316 61.0344 32.316C61.5144 32.316 61.9197 32.2093 62.2504 31.996C62.581 31.772 62.837 31.452 63.0184 31.036C63.1997 30.6093 63.2904 30.0973 63.2904 29.5C63.2904 28.892 63.1997 28.38 63.0184 27.964C62.837 27.548 62.581 27.2333 62.2504 27.02C61.9197 26.796 61.5144 26.684 61.0344 26.684ZM74.7081 25.5L71.1401 29.148L70.7721 29.404L68.2601 32.012L68.2441 30.06L72.6761 25.5H74.7081ZM68.8681 21.9V33.5H67.1561V21.9H68.8681ZM71.3481 28.188L74.9001 33.5H72.9161L70.0681 29.164L71.3481 28.188ZM79.6761 33.66C78.8761 33.66 78.1721 33.4947 77.5641 33.164C76.9561 32.8333 76.4815 32.3587 76.1401 31.74C75.8095 31.1107 75.6441 30.364 75.6441 29.5C75.6441 28.636 75.8095 27.8947 76.1401 27.276C76.4815 26.6467 76.9508 26.1667 77.5481 25.836C78.1455 25.5053 78.8228 25.34 79.5801 25.34C80.3588 25.34 81.0201 25.5 81.5641 25.82C82.1081 26.14 82.5241 26.5773 82.8121 27.132C83.1001 27.6867 83.2441 28.316 83.2441 29.02C83.2441 29.212 83.2388 29.3933 83.2281 29.564C83.2175 29.7347 83.2015 29.884 83.1801 30.012H76.7481V28.7H82.4281L81.5801 28.956C81.5801 28.2307 81.3988 27.676 81.0361 27.292C80.6735 26.8973 80.1775 26.7 79.5481 26.7C79.0895 26.7 78.6895 26.8067 78.3481 27.02C78.0068 27.2333 77.7455 27.5533 77.5641 27.98C77.3828 28.396 77.2921 28.908 77.2921 29.516C77.2921 30.1133 77.3881 30.62 77.5801 31.036C77.7721 31.452 78.0441 31.7667 78.3961 31.98C78.7481 32.1933 79.1641 32.3 79.6441 32.3C80.1775 32.3 80.6095 32.1987 80.9401 31.996C81.2708 31.7933 81.5321 31.5107 81.7241 31.148L83.0841 31.788C82.8921 32.172 82.6308 32.508 82.3001 32.796C81.9801 33.0733 81.5961 33.2867 81.1481 33.436C80.7001 33.5853 80.2095 33.66 79.6761 33.66ZM85.4061 33.5V25.5H86.9261L87.0381 27.58L86.8141 27.356C86.9635 26.8973 87.1768 26.5187 87.4541 26.22C87.7421 25.9107 88.0781 25.6867 88.4621 25.548C88.8568 25.4093 89.2728 25.34 89.7101 25.34C90.2755 25.34 90.7821 25.452 91.2301 25.676C91.6888 25.8893 92.0515 26.2147 92.3181 26.652C92.5848 27.0893 92.7181 27.644 92.7181 28.316V33.5H91.0061V28.844C91.0061 28.0547 90.8408 27.5107 90.5101 27.212C90.1901 26.9027 89.7848 26.748 89.2941 26.748C88.9421 26.748 88.6008 26.8333 88.2701 27.004C87.9395 27.164 87.6621 27.4253 87.4381 27.788C87.2248 28.1507 87.1181 28.636 87.1181 29.244V33.5H85.4061ZM98.3524 33.66C97.5524 33.66 96.8217 33.5053 96.1604 33.196C95.499 32.8867 94.9764 32.4493 94.5924 31.884L95.7764 30.86C96.011 31.2973 96.347 31.6493 96.7844 31.916C97.2324 32.172 97.7657 32.3 98.3844 32.3C98.875 32.3 99.2644 32.2147 99.5524 32.044C99.8404 31.8733 99.9844 31.6333 99.9844 31.324C99.9844 31.1213 99.915 30.9453 99.7764 30.796C99.6484 30.636 99.3977 30.5133 99.0244 30.428L97.3444 30.076C96.491 29.9053 95.883 29.6333 95.5204 29.26C95.1577 28.876 94.9764 28.3907 94.9764 27.804C94.9764 27.3667 95.1044 26.9613 95.3604 26.588C95.6164 26.2147 95.9897 25.916 96.4804 25.692C96.9817 25.4573 97.579 25.34 98.2724 25.34C99.0724 25.34 99.755 25.484 100.32 25.772C100.886 26.0493 101.318 26.4493 101.616 26.972L100.432 27.964C100.23 27.5373 99.931 27.2227 99.5364 27.02C99.1417 26.8067 98.731 26.7 98.3044 26.7C97.963 26.7 97.6697 26.7427 97.4244 26.828C97.179 26.9133 96.9924 27.0307 96.8644 27.18C96.7364 27.3293 96.6724 27.5053 96.6724 27.708C96.6724 27.9213 96.7524 28.108 96.9124 28.268C97.0724 28.428 97.3604 28.5507 97.7764 28.636L99.6004 29.02C100.368 29.1693 100.907 29.4253 101.216 29.788C101.536 30.14 101.696 30.572 101.696 31.084C101.696 31.596 101.563 32.0493 101.296 32.444C101.03 32.828 100.646 33.1267 100.144 33.34C99.643 33.5533 99.0457 33.66 98.3524 33.66Z" fill="#666666"/>
<mask id="mask0_2562_1386" style="mask-type:luminance" maskUnits="userSpaceOnUse" x="12" y="15" width="26" height="26">
<path d="M12.75 15.75H37.25V40.25H12.75V15.75Z" fill="white"/>
</mask>
<g mask="url(#mask0_2562_1386)">
<path d="M28.9505 33.117C27.6377 34.3227 25.8571 35 24.0005 35C22.1438 35 20.3632 34.3227 19.0504 33.117C17.7375 31.9114 17 30.2762 17 28.5711C17 26.8661 17.7375 25.2309 19.0504 24.0252C19.0504 26.4283 19.3339 28.5711 22.8338 29.6425C22.8338 27.4997 24.0005 21.0714 25.7504 20C26.5078 21.5274 27.5963 22.897 28.9494 24.0252C29.5995 24.6222 30.1152 25.3309 30.4671 26.1108C30.8189 26.8908 31 27.7268 31 28.5711C31 29.4154 30.8189 30.2514 30.4671 31.0314C30.1152 31.8114 29.5995 32.5201 28.9494 33.117H28.9505Z" fill="#666666"/>
<path d="M21.5255 32.9863C21.8483 33.2932 22.2345 33.5381 22.6615 33.7066C23.0886 33.875 23.5478 33.9637 24.0125 33.9674C24.4773 33.9711 24.9381 33.8898 25.3683 33.7282C25.7984 33.5665 26.1892 33.3279 26.5178 33.0261C26.8464 32.7243 27.1063 32.3654 27.2823 31.9704C27.4582 31.5754 27.5468 31.1522 27.5427 30.7254C27.5387 30.2986 27.4422 29.8769 27.2587 29.4847C27.0753 29.0926 26.8087 28.7379 26.4744 28.4414C25.7979 27.8771 25.2537 27.1921 24.8749 26.4283C23.9999 26.964 23.4166 30.1781 23.4166 31.2495C22.4119 31.2866 21.412 31.1029 20.5 30.7138C20.4993 31.136 20.5896 31.5541 20.7656 31.9441C20.9416 32.3341 21.1998 32.6883 21.5255 32.9863Z" fill="#666666"/>
</g>
</svg>
