<svg width="195" height="56" viewBox="0 0 195 56" fill="none" xmlns="http://www.w3.org/2000/svg">
<path d="M16 24.4141C16 23.8836 16.2107 23.3749 16.5858 22.9998C16.9609 22.6248 17.4696 22.4141 18 22.4141H30C30.5304 22.4141 31.0391 22.6248 31.4142 22.9998C31.7893 23.3749 32 23.8836 32 24.4141V26.4141C31.4696 26.4141 30.9609 26.6248 30.5858 26.9998C30.2107 27.3749 30 27.8836 30 28.4141C30 28.9445 30.2107 29.4532 30.5858 29.8283C30.9609 30.2033 31.4696 30.4141 32 30.4141V32.4141C32 32.9445 31.7893 33.4532 31.4142 33.8283C31.0391 34.2033 30.5304 34.4141 30 34.4141H18C17.4696 34.4141 16.9609 34.2033 16.5858 33.8283C16.2107 33.4532 16 32.9445 16 32.4141V30.4141C16.5304 30.4141 17.0391 30.2033 17.4142 29.8283C17.7893 29.4532 18 28.9445 18 28.4141C18 27.8836 17.7893 27.3749 17.4142 26.9998C17.0391 26.6248 16.5304 26.4141 16 26.4141V24.4141Z" fill="#666666"/>
<path d="M57.424 22.94V24.412H53.808V33.5H52.096V24.412H48.48V22.94H57.424ZM61.0344 25.34C61.813 25.34 62.501 25.5053 63.0984 25.836C63.6957 26.1667 64.1597 26.6467 64.4904 27.276C64.8317 27.8947 65.0024 28.636 65.0024 29.5C65.0024 30.364 64.8317 31.1107 64.4904 31.74C64.1597 32.3587 63.6957 32.8333 63.0984 33.164C62.501 33.4947 61.813 33.66 61.0344 33.66C60.2557 33.66 59.5677 33.4947 58.9704 33.164C58.373 32.8333 57.9037 32.3587 57.5624 31.74C57.221 31.1107 57.0504 30.364 57.0504 29.5C57.0504 28.636 57.221 27.8947 57.5624 27.276C57.9037 26.6467 58.373 26.1667 58.9704 25.836C59.5677 25.5053 60.2557 25.34 61.0344 25.34ZM61.0344 26.684C60.5544 26.684 60.1437 26.796 59.8024 27.02C59.4717 27.2333 59.2157 27.548 59.0344 27.964C58.853 28.38 58.7624 28.892 58.7624 29.5C58.7624 30.0973 58.853 30.6093 59.0344 31.036C59.2157 31.452 59.4717 31.772 59.8024 31.996C60.1437 32.2093 60.5544 32.316 61.0344 32.316C61.5144 32.316 61.9197 32.2093 62.2504 31.996C62.581 31.772 62.837 31.452 63.0184 31.036C63.1997 30.6093 63.2904 30.0973 63.2904 29.5C63.2904 28.892 63.1997 28.38 63.0184 27.964C62.837 27.548 62.581 27.2333 62.2504 27.02C61.9197 26.796 61.5144 26.684 61.0344 26.684ZM74.7081 25.5L71.1401 29.148L70.7721 29.404L68.2601 32.012L68.2441 30.06L72.6761 25.5H74.7081ZM68.8681 21.9V33.5H67.1561V21.9H68.8681ZM71.3481 28.188L74.9001 33.5H72.9161L70.0681 29.164L71.3481 28.188ZM79.6761 33.66C78.8761 33.66 78.1721 33.4947 77.5641 33.164C76.9561 32.8333 76.4815 32.3587 76.1401 31.74C75.8095 31.1107 75.6441 30.364 75.6441 29.5C75.6441 28.636 75.8095 27.8947 76.1401 27.276C76.4815 26.6467 76.9508 26.1667 77.5481 25.836C78.1455 25.5053 78.8228 25.34 79.5801 25.34C80.3588 25.34 81.0201 25.5 81.5641 25.82C82.1081 26.14 82.5241 26.5773 82.8121 27.132C83.1001 27.6867 83.2441 28.316 83.2441 29.02C83.2441 29.212 83.2388 29.3933 83.2281 29.564C83.2175 29.7347 83.2015 29.884 83.1801 30.012H76.7481V28.7H82.4281L81.5801 28.956C81.5801 28.2307 81.3988 27.676 81.0361 27.292C80.6735 26.8973 80.1775 26.7 79.5481 26.7C79.0895 26.7 78.6895 26.8067 78.3481 27.02C78.0068 27.2333 77.7455 27.5533 77.5641 27.98C77.3828 28.396 77.2921 28.908 77.2921 29.516C77.2921 30.1133 77.3881 30.62 77.5801 31.036C77.7721 31.452 78.0441 31.7667 78.3961 31.98C78.7481 32.1933 79.1641 32.3 79.6441 32.3C80.1775 32.3 80.6095 32.1987 80.9401 31.996C81.2708 31.7933 81.5321 31.5107 81.7241 31.148L83.0841 31.788C82.8921 32.172 82.6308 32.508 82.3001 32.796C81.9801 33.0733 81.5961 33.2867 81.1481 33.436C80.7001 33.5853 80.2095 33.66 79.6761 33.66ZM85.4061 33.5V25.5H86.9261L87.0381 27.58L86.8141 27.356C86.9635 26.8973 87.1768 26.5187 87.4541 26.22C87.7421 25.9107 88.0781 25.6867 88.4621 25.548C88.8568 25.4093 89.2728 25.34 89.7101 25.34C90.2755 25.34 90.7821 25.452 91.2301 25.676C91.6888 25.8893 92.0515 26.2147 92.3181 26.652C92.5848 27.0893 92.7181 27.644 92.7181 28.316V33.5H91.0061V28.844C91.0061 28.0547 90.8408 27.5107 90.5101 27.212C90.1901 26.9027 89.7848 26.748 89.2941 26.748C88.9421 26.748 88.6008 26.8333 88.2701 27.004C87.9395 27.164 87.6621 27.4253 87.4381 27.788C87.2248 28.1507 87.1181 28.636 87.1181 29.244V33.5H85.4061ZM103.316 33.66C102.601 33.66 101.982 33.5427 101.46 33.308C100.948 33.0627 100.548 32.7267 100.26 32.3C99.9822 31.8733 99.8435 31.372 99.8435 30.796C99.8435 30.4653 99.8862 30.1507 99.9715 29.852C100.068 29.5427 100.217 29.2493 100.42 28.972C100.633 28.684 100.921 28.4227 101.284 28.188C101.646 27.9427 102.1 27.7293 102.644 27.548L103.268 27.276C103.694 27.0307 104.036 26.8067 104.292 26.604C104.558 26.4013 104.75 26.188 104.868 25.964C104.996 25.74 105.06 25.4787 105.06 25.18C105.06 24.828 104.953 24.556 104.74 24.364C104.526 24.172 104.244 24.076 103.891 24.076C103.476 24.076 103.161 24.1933 102.948 24.428C102.745 24.652 102.644 24.924 102.644 25.244C102.644 25.436 102.67 25.6227 102.724 25.804C102.788 25.9853 102.905 26.2093 103.076 26.476C103.257 26.7427 103.518 27.0947 103.86 27.532C104.201 27.9587 104.665 28.524 105.252 29.228C105.828 29.9213 106.308 30.4867 106.692 30.924C107.086 31.3507 107.422 31.676 107.7 31.9C107.977 32.1133 108.233 32.2573 108.468 32.332C108.713 32.396 108.985 32.4227 109.284 32.412L108.996 33.66C108.654 33.66 108.334 33.6227 108.036 33.548C107.748 33.484 107.433 33.3347 107.092 33.1C106.761 32.8653 106.366 32.5133 105.908 32.044C105.46 31.5747 104.905 30.9507 104.244 30.172C103.625 29.4467 103.108 28.8387 102.692 28.348C102.286 27.8467 101.966 27.4253 101.732 27.084C101.508 26.732 101.348 26.4173 101.252 26.14C101.156 25.852 101.108 25.548 101.108 25.228C101.108 24.8333 101.209 24.4493 101.412 24.076C101.614 23.692 101.918 23.3827 102.324 23.148C102.74 22.9027 103.278 22.78 103.94 22.78C104.473 22.78 104.926 22.876 105.3 23.068C105.673 23.26 105.961 23.5267 106.164 23.868C106.366 24.1987 106.468 24.5827 106.468 25.02C106.468 25.4253 106.393 25.804 106.244 26.156C106.094 26.508 105.828 26.844 105.444 27.164C105.07 27.484 104.537 27.7987 103.844 28.108L103.316 28.332C102.825 28.5773 102.441 28.812 102.164 29.036C101.886 29.26 101.689 29.5 101.572 29.756C101.454 30.0013 101.396 30.3 101.396 30.652C101.396 31.0147 101.486 31.3293 101.668 31.596C101.86 31.852 102.116 32.0493 102.436 32.188C102.756 32.3267 103.113 32.396 103.508 32.396C104.073 32.396 104.553 32.3 104.948 32.108C105.342 31.9053 105.71 31.628 106.052 31.276L106.276 31.036C106.532 30.6307 106.729 30.172 106.868 29.66C107.017 29.148 107.065 28.5667 107.012 27.916L108.34 27.996C108.361 28.6787 108.27 29.34 108.068 29.98C107.876 30.62 107.577 31.196 107.172 31.708L106.852 32.06C106.468 32.5507 105.982 32.94 105.396 33.228C104.809 33.516 104.116 33.66 103.316 33.66ZM115.797 36.86V25.5H117.317L117.445 27.74L117.221 27.468C117.349 27.052 117.546 26.684 117.813 26.364C118.079 26.044 118.41 25.7933 118.805 25.612C119.21 25.4307 119.653 25.34 120.133 25.34C120.783 25.34 121.375 25.5053 121.909 25.836C122.442 26.1667 122.863 26.6413 123.173 27.26C123.482 27.868 123.637 28.6093 123.637 29.484C123.637 30.3587 123.477 31.1107 123.157 31.74C122.847 32.3587 122.421 32.8333 121.877 33.164C121.343 33.4947 120.746 33.66 120.085 33.66C119.402 33.66 118.821 33.484 118.341 33.132C117.861 32.7693 117.519 32.3107 117.317 31.756L117.509 31.484V36.86H115.797ZM119.717 32.268C120.41 32.268 120.949 32.0227 121.333 31.532C121.727 31.0413 121.925 30.364 121.925 29.5C121.925 28.636 121.733 27.9587 121.349 27.468C120.965 26.9667 120.431 26.716 119.749 26.716C119.301 26.716 118.906 26.8333 118.565 27.068C118.234 27.292 117.973 27.612 117.781 28.028C117.599 28.4333 117.509 28.924 117.509 29.5C117.509 30.0653 117.599 30.556 117.781 30.972C117.962 31.388 118.218 31.708 118.549 31.932C118.879 32.156 119.269 32.268 119.717 32.268ZM130.436 28.364C130.436 27.8307 130.287 27.42 129.988 27.132C129.7 26.8333 129.3 26.684 128.788 26.684C128.308 26.684 127.898 26.796 127.556 27.02C127.215 27.244 126.964 27.6067 126.804 28.108L125.364 27.5C125.567 26.8493 125.962 26.3267 126.548 25.932C127.146 25.5373 127.914 25.34 128.852 25.34C129.492 25.34 130.058 25.4467 130.548 25.66C131.039 25.8627 131.423 26.172 131.7 26.588C131.988 27.004 132.132 27.5373 132.132 28.188V31.756C132.132 32.1507 132.33 32.348 132.724 32.348C132.916 32.348 133.103 32.3213 133.284 32.268L133.188 33.452C132.943 33.5693 132.634 33.628 132.26 33.628C131.919 33.628 131.61 33.5693 131.332 33.452C131.066 33.324 130.852 33.1373 130.692 32.892C130.543 32.636 130.468 32.3213 130.468 31.948V31.836L130.82 31.82C130.724 32.236 130.527 32.5827 130.228 32.86C129.93 33.1267 129.583 33.3293 129.188 33.468C128.794 33.596 128.394 33.66 127.988 33.66C127.487 33.66 127.034 33.58 126.628 33.42C126.234 33.26 125.919 33.02 125.684 32.7C125.46 32.3693 125.348 31.964 125.348 31.484C125.348 30.8867 125.54 30.396 125.924 30.012C126.319 29.628 126.874 29.3667 127.588 29.228L130.692 28.62L130.676 29.82L128.42 30.284C127.972 30.3693 127.636 30.492 127.412 30.652C127.188 30.812 127.076 31.0467 127.076 31.356C127.076 31.6547 127.188 31.8947 127.412 32.076C127.647 32.2467 127.956 32.332 128.34 32.332C128.607 32.332 128.863 32.3 129.108 32.236C129.364 32.172 129.594 32.0707 129.796 31.932C129.999 31.7827 130.154 31.596 130.26 31.372C130.378 31.1373 130.436 30.86 130.436 30.54V28.364ZM141.477 25.5L137.973 34.444C137.738 35.0627 137.482 35.5533 137.205 35.916C136.938 36.2787 136.629 36.54 136.277 36.7C135.925 36.86 135.514 36.94 135.045 36.94C134.661 36.94 134.304 36.8867 133.973 36.78C133.653 36.684 133.37 36.5507 133.125 36.38L133.541 35.052C133.744 35.2227 133.957 35.3507 134.181 35.436C134.416 35.5213 134.666 35.564 134.933 35.564C135.221 35.564 135.477 35.484 135.701 35.324C135.936 35.1747 136.144 34.8707 136.325 34.412L136.677 33.548L135.829 31.564L133.333 25.5H135.253L137.029 30.524L137.493 32.028L138.021 30.38L139.701 25.5H141.477ZM142.937 33.5V25.5H144.457L144.537 26.844C144.815 26.332 145.183 25.9533 145.641 25.708C146.111 25.4627 146.607 25.34 147.129 25.34C147.705 25.34 148.233 25.4733 148.713 25.74C149.204 25.996 149.572 26.3853 149.817 26.908C149.988 26.556 150.223 26.2627 150.521 26.028C150.82 25.7933 151.151 25.6227 151.513 25.516C151.876 25.3987 152.233 25.34 152.585 25.34C153.097 25.34 153.577 25.4467 154.025 25.66C154.473 25.8733 154.836 26.1987 155.113 26.636C155.391 27.0733 155.529 27.6333 155.529 28.316V33.5H153.817V28.588C153.817 27.9373 153.663 27.468 153.353 27.18C153.044 26.892 152.649 26.748 152.169 26.748C151.796 26.748 151.449 26.8387 151.129 27.02C150.82 27.2013 150.569 27.4733 150.377 27.836C150.185 28.188 150.089 28.6253 150.089 29.148V33.5H148.377V28.588C148.377 27.9373 148.223 27.468 147.913 27.18C147.604 26.892 147.209 26.748 146.729 26.748C146.409 26.748 146.089 26.8333 145.769 27.004C145.449 27.1747 145.183 27.4413 144.969 27.804C144.756 28.1667 144.649 28.6467 144.649 29.244V33.5H142.937ZM161.645 33.66C160.845 33.66 160.141 33.4947 159.533 33.164C158.925 32.8333 158.45 32.3587 158.109 31.74C157.778 31.1107 157.613 30.364 157.613 29.5C157.613 28.636 157.778 27.8947 158.109 27.276C158.45 26.6467 158.92 26.1667 159.517 25.836C160.114 25.5053 160.792 25.34 161.549 25.34C162.328 25.34 162.989 25.5 163.533 25.82C164.077 26.14 164.493 26.5773 164.781 27.132C165.069 27.6867 165.213 28.316 165.213 29.02C165.213 29.212 165.208 29.3933 165.197 29.564C165.186 29.7347 165.17 29.884 165.149 30.012H158.717V28.7H164.397L163.549 28.956C163.549 28.2307 163.368 27.676 163.005 27.292C162.642 26.8973 162.146 26.7 161.517 26.7C161.058 26.7 160.658 26.8067 160.317 27.02C159.976 27.2333 159.714 27.5533 159.533 27.98C159.352 28.396 159.261 28.908 159.261 29.516C159.261 30.1133 159.357 30.62 159.549 31.036C159.741 31.452 160.013 31.7667 160.365 31.98C160.717 32.1933 161.133 32.3 161.613 32.3C162.146 32.3 162.578 32.1987 162.909 31.996C163.24 31.7933 163.501 31.5107 163.693 31.148L165.053 31.788C164.861 32.172 164.6 32.508 164.269 32.796C163.949 33.0733 163.565 33.2867 163.117 33.436C162.669 33.5853 162.178 33.66 161.645 33.66ZM167.375 33.5V25.5H168.895L169.007 27.58L168.783 27.356C168.932 26.8973 169.146 26.5187 169.423 26.22C169.711 25.9107 170.047 25.6867 170.431 25.548C170.826 25.4093 171.242 25.34 171.679 25.34C172.244 25.34 172.751 25.452 173.199 25.676C173.658 25.8893 174.02 26.2147 174.287 26.652C174.554 27.0893 174.687 27.644 174.687 28.316V33.5H172.975V28.844C172.975 28.0547 172.81 27.5107 172.479 27.212C172.159 26.9027 171.754 26.748 171.263 26.748C170.911 26.748 170.57 26.8333 170.239 27.004C169.908 27.164 169.631 27.4253 169.407 27.788C169.194 28.1507 169.087 28.636 169.087 29.244V33.5H167.375ZM179.523 23.148V31.1C179.523 31.4947 179.625 31.7827 179.827 31.964C180.041 32.1453 180.323 32.236 180.675 32.236C180.963 32.236 181.214 32.1933 181.427 32.108C181.641 32.012 181.838 31.884 182.019 31.724L182.403 32.972C182.158 33.1853 181.854 33.356 181.491 33.484C181.139 33.6013 180.745 33.66 180.307 33.66C179.849 33.66 179.427 33.5853 179.043 33.436C178.659 33.2867 178.361 33.0467 178.147 32.716C177.934 32.3747 177.822 31.932 177.811 31.388V23.628L179.523 23.148ZM182.275 25.5V26.844H176.275V25.5H182.275Z" fill="#666666"/>
</svg>
