<svg width="41" height="40" viewBox="0 0 41 40" fill="none" xmlns="http://www.w3.org/2000/svg">
<path d="M7.068 29.08V30.184H4.356V37H3.072V30.184H0.36V29.08H7.068ZM9.77578 30.88C10.3598 30.88 10.8758 31.004 11.3238 31.252C11.7718 31.5 12.1198 31.86 12.3678 32.332C12.6238 32.796 12.7518 33.352 12.7518 34C12.7518 34.648 12.6238 35.208 12.3678 35.68C12.1198 36.144 11.7718 36.5 11.3238 36.748C10.8758 36.996 10.3598 37.12 9.77578 37.12C9.19178 37.12 8.67578 36.996 8.22778 36.748C7.77978 36.5 7.42778 36.144 7.17178 35.68C6.91578 35.208 6.78778 34.648 6.78778 34C6.78778 33.352 6.91578 32.796 7.17178 32.332C7.42778 31.86 7.77978 31.5 8.22778 31.252C8.67578 31.004 9.19178 30.88 9.77578 30.88ZM9.77578 31.888C9.41578 31.888 9.10778 31.972 8.85178 32.14C8.60378 32.3 8.41178 32.536 8.27578 32.848C8.13978 33.16 8.07178 33.544 8.07178 34C8.07178 34.448 8.13978 34.832 8.27578 35.152C8.41178 35.464 8.60378 35.704 8.85178 35.872C9.10778 36.032 9.41578 36.112 9.77578 36.112C10.1358 36.112 10.4398 36.032 10.6878 35.872C10.9358 35.704 11.1278 35.464 11.2638 35.152C11.3998 34.832 11.4678 34.448 11.4678 34C11.4678 33.544 11.3998 33.16 11.2638 32.848C11.1278 32.536 10.9358 32.3 10.6878 32.14C10.4398 31.972 10.1358 31.888 9.77578 31.888ZM20.0311 31L17.3551 33.736L17.0791 33.928L15.1951 35.884L15.1831 34.42L18.5071 31H20.0311ZM15.6511 28.3V37H14.3671V28.3H15.6511ZM17.5111 33.016L20.1751 37H18.6871L16.5511 33.748L17.5111 33.016ZM23.7571 37.12C23.1571 37.12 22.6291 36.996 22.1731 36.748C21.7171 36.5 21.3611 36.144 21.1051 35.68C20.8571 35.208 20.7331 34.648 20.7331 34C20.7331 33.352 20.8571 32.796 21.1051 32.332C21.3611 31.86 21.7131 31.5 22.1611 31.252C22.6091 31.004 23.1171 30.88 23.6851 30.88C24.2691 30.88 24.7651 31 25.1731 31.24C25.5811 31.48 25.8931 31.808 26.1091 32.224C26.3251 32.64 26.4331 33.112 26.4331 33.64C26.4331 33.784 26.4291 33.92 26.4211 34.048C26.4131 34.176 26.4011 34.288 26.3851 34.384H21.5611V33.4H25.8211L25.1851 33.592C25.1851 33.048 25.0491 32.632 24.7771 32.344C24.5051 32.048 24.1331 31.9 23.6611 31.9C23.3171 31.9 23.0171 31.98 22.7611 32.14C22.5051 32.3 22.3091 32.54 22.1731 32.86C22.0371 33.172 21.9691 33.556 21.9691 34.012C21.9691 34.46 22.0411 34.84 22.1851 35.152C22.3291 35.464 22.5331 35.7 22.7971 35.86C23.0611 36.02 23.3731 36.1 23.7331 36.1C24.1331 36.1 24.4571 36.024 24.7051 35.872C24.9531 35.72 25.1491 35.508 25.2931 35.236L26.3131 35.716C26.1691 36.004 25.9731 36.256 25.7251 36.472C25.4851 36.68 25.1971 36.84 24.8611 36.952C24.5251 37.064 24.1571 37.12 23.7571 37.12ZM28.0546 37V31H29.1946L29.2786 32.56L29.1106 32.392C29.2226 32.048 29.3826 31.764 29.5906 31.54C29.8066 31.308 30.0586 31.14 30.3466 31.036C30.6426 30.932 30.9546 30.88 31.2826 30.88C31.7066 30.88 32.0866 30.964 32.4226 31.132C32.7666 31.292 33.0386 31.536 33.2386 31.864C33.4386 32.192 33.5386 32.608 33.5386 33.112V37H32.2546V33.508C32.2546 32.916 32.1306 32.508 31.8826 32.284C31.6426 32.052 31.3386 31.936 30.9706 31.936C30.7066 31.936 30.4506 32 30.2026 32.128C29.9546 32.248 29.7466 32.444 29.5786 32.716C29.4186 32.988 29.3386 33.352 29.3386 33.808V37H28.0546ZM37.7643 37.12C37.1643 37.12 36.6163 37.004 36.1203 36.772C35.6243 36.54 35.2323 36.212 34.9443 35.788L35.8323 35.02C36.0083 35.348 36.2603 35.612 36.5883 35.812C36.9243 36.004 37.3243 36.1 37.7883 36.1C38.1563 36.1 38.4483 36.036 38.6643 35.908C38.8803 35.78 38.9883 35.6 38.9883 35.368C38.9883 35.216 38.9363 35.084 38.8323 34.972C38.7363 34.852 38.5483 34.76 38.2683 34.696L37.0083 34.432C36.3683 34.304 35.9123 34.1 35.6403 33.82C35.3683 33.532 35.2323 33.168 35.2323 32.728C35.2323 32.4 35.3283 32.096 35.5203 31.816C35.7123 31.536 35.9923 31.312 36.3603 31.144C36.7363 30.968 37.1843 30.88 37.7043 30.88C38.3043 30.88 38.8163 30.988 39.2403 31.204C39.6643 31.412 39.9883 31.712 40.2123 32.104L39.3243 32.848C39.1723 32.528 38.9483 32.292 38.6523 32.14C38.3563 31.98 38.0483 31.9 37.7283 31.9C37.4723 31.9 37.2523 31.932 37.0683 31.996C36.8843 32.06 36.7443 32.148 36.6483 32.26C36.5523 32.372 36.5043 32.504 36.5043 32.656C36.5043 32.816 36.5643 32.956 36.6843 33.076C36.8043 33.196 37.0203 33.288 37.3323 33.352L38.7003 33.64C39.2763 33.752 39.6803 33.944 39.9123 34.216C40.1523 34.48 40.2723 34.804 40.2723 35.188C40.2723 35.572 40.1723 35.912 39.9723 36.208C39.7723 36.496 39.4843 36.72 39.1083 36.88C38.7323 37.04 38.2843 37.12 37.7643 37.12Z" fill="#666666"/>
<path d="M14.7064 13.9915C13.4204 15.2775 11.6762 16 9.85748 16C8.03876 16 6.29453 15.2775 5.00851 13.9915C3.72248 12.7055 3 10.9612 3 9.14253C3 7.32381 3.72248 5.57958 5.00851 4.29356C5.00851 6.85689 5.28621 9.14253 8.71466 10.2853C8.71466 7.99971 9.85748 1.14282 11.5717 0C12.3136 1.62924 13.3799 3.09017 14.7053 4.29356C15.3421 4.9303 15.8473 5.68625 16.192 6.51824C16.5367 7.35023 16.714 8.24197 16.714 9.14253C16.714 10.0431 16.5367 10.9348 16.192 11.7668C15.8473 12.5988 15.3421 13.3548 14.7053 13.9915H14.7064Z" fill="#666666"/>
<path d="M7.43325 13.8521C7.74951 14.1796 8.12782 14.4407 8.54611 14.6204C8.96439 14.8001 9.41427 14.8947 9.8695 14.8986C10.3247 14.9026 10.7762 14.8159 11.1975 14.6435C11.6189 14.4711 12.0017 14.2165 12.3236 13.8946C12.6455 13.5727 12.9 13.1899 13.0724 12.7686C13.2448 12.3472 13.3316 11.8958 13.3276 11.4405C13.3237 10.9853 13.2291 10.5354 13.0494 10.1171C12.8697 9.69886 12.6085 9.32055 12.2811 9.00428C11.6184 8.4023 11.0853 7.67167 10.7143 6.85693C9.85716 7.42834 9.28575 10.8568 9.28575 11.9996C8.30151 12.0391 7.32205 11.8432 6.42871 11.4282C6.42806 11.8785 6.51648 12.3245 6.68888 12.7405C6.86128 13.1565 7.11426 13.5343 7.43325 13.8521Z" fill="#666666"/>
</svg>
