<svg width="14" height="16" viewBox="0 0 14 16" fill="none" xmlns="http://www.w3.org/2000/svg">
<path d="M12.6667 4.11111L11.9923 13.5549C11.9644 13.9473 11.7888 14.3146 11.5009 14.5828C11.2129 14.8509 10.8341 15 10.4407 15H4.00378C3.60966 15.001 3.22986 14.8523 2.94111 14.5841C2.65236 14.3159 2.4762 13.948 2.44822 13.5549L1.77778 4.11111M5.66667 7.22222V11.8889M8.77778 7.22222V11.8889M9.55555 4.11111V1.77778C9.55555 1.5715 9.47361 1.37367 9.32775 1.22781C9.18189 1.08194 8.98406 1 8.77778 1H5.66667C5.46039 1 5.26256 1.08194 5.11669 1.22781C4.97083 1.37367 4.88889 1.5715 4.88889 1.77778V4.11111M1 4.11111H13.4444" stroke="#7D67EE" stroke-linecap="round" stroke-linejoin="round"/>
</svg>
