<svg width="65" height="56" viewBox="0 0 65 56" fill="none" xmlns="http://www.w3.org/2000/svg">
<g filter="url(#filter0_d_1318_948)">
<rect x="4.16211" y="4" width="56.75" height="47.6667" rx="6" transform="rotate(0.194149 4.16211 4)" fill="#7D67EE"/>
<path d="M26.6064 33.0761L26.6371 24.0162C26.638 23.7495 26.6389 23.4762 26.6398 23.1962C26.6542 22.9029 26.6685 22.5963 26.683 22.2763C26.2281 22.7148 25.7069 23.093 25.1191 23.4111C24.5447 23.7158 23.9507 23.9338 23.3369 24.065L22.9432 22.2037C23.2233 22.1646 23.5503 22.0724 23.9241 21.927C24.298 21.7816 24.6853 21.5962 25.086 21.3709C25.4868 21.1456 25.8543 20.9069 26.1885 20.6547C26.5227 20.3891 26.7836 20.13 26.9711 19.8773L28.7711 19.8834L28.7264 33.0833L26.6064 33.0761ZM31.9932 33.0944L31.9985 31.5344C33.2682 30.632 34.3309 29.8356 35.1866 29.1452C36.0556 28.4548 36.7511 27.8172 37.2731 27.2323C37.7951 26.6474 38.1703 26.0953 38.3987 25.5761C38.6405 25.0435 38.7624 24.504 38.7642 23.9573C38.7666 23.2506 38.5486 22.6766 38.11 22.2351C37.6715 21.7936 37.059 21.5715 36.2723 21.5688C35.4456 21.566 34.7847 21.8438 34.2895 22.4021C33.8076 22.9472 33.5317 23.6996 33.4618 24.6593L31.6047 23.793C31.7009 22.9534 31.95 22.2275 32.3521 21.6156C32.7542 21.0036 33.2958 20.5321 33.9769 20.201C34.6714 19.8701 35.4719 19.7061 36.3786 19.7092C37.1253 19.7117 37.7782 19.8206 38.3375 20.0358C38.9101 20.2511 39.3891 20.5527 39.7744 20.9407C40.1598 21.3153 40.4517 21.7563 40.65 22.2637C40.8616 22.7711 40.9664 23.3114 40.9645 23.8847C40.9616 24.7247 40.7522 25.5374 40.3362 26.3226C39.9203 27.0946 39.2642 27.8857 38.3682 28.696C37.4721 29.5063 36.2958 30.3756 34.8393 31.304L34.8392 31.344C34.9992 31.3179 35.2193 31.3053 35.4993 31.3063C35.7793 31.2939 36.0594 31.2882 36.3394 31.2891C36.6194 31.2767 36.8461 31.2708 37.0194 31.2714L41.1794 31.2855L41.1732 33.1255L31.9932 33.0944Z" fill="#666666"/>
</g>
<defs>
<filter id="filter0_d_1318_948" x="0" y="0" width="64.9121" height="55.8586" filterUnits="userSpaceOnUse" color-interpolation-filters="sRGB">
<feFlood flood-opacity="0" result="BackgroundImageFix"/>
<feColorMatrix in="SourceAlpha" type="matrix" values="0 0 0 0 0 0 0 0 0 0 0 0 0 0 0 0 0 0 127 0" result="hardAlpha"/>
<feOffset/>
<feGaussianBlur stdDeviation="2"/>
<feComposite in2="hardAlpha" operator="out"/>
<feColorMatrix type="matrix" values="0 0 0 0 0 0 0 0 0 0 0 0 0 0 0 0 0 0 0.25 0"/>
<feBlend mode="normal" in2="BackgroundImageFix" result="effect1_dropShadow_1318_948"/>
<feBlend mode="normal" in="SourceGraphic" in2="effect1_dropShadow_1318_948" result="shape"/>
</filter>
</defs>
</svg>
