<svg width="65" height="56" viewBox="0 0 65 56" fill="none" xmlns="http://www.w3.org/2000/svg">
<g filter="url(#filter0_d_1318_956)">
<rect x="4.16211" y="4" width="56.75" height="47.6667" rx="6" transform="rotate(0.194149 4.16211 4)" fill="#7D67EE"/>
<path d="M27.9698 33.0808L27.9751 31.5208C29.2448 30.6184 30.3075 29.822 31.1632 29.1316C32.0322 28.4412 32.7277 27.8035 33.2497 27.2186C33.7717 26.6337 34.1469 26.0817 34.3753 25.5624C34.6171 25.0299 34.7389 24.4903 34.7408 23.9437C34.7432 23.237 34.5251 22.6629 34.0866 22.2214C33.6481 21.7799 33.0355 21.5579 32.2489 21.5552C31.4222 21.5524 30.7613 21.8302 30.266 22.3885C29.7842 22.9335 29.5083 23.6859 29.4384 24.6457L27.5813 23.7794C27.6775 22.9397 27.9266 22.2139 28.3287 21.6019C28.7308 20.9899 29.2724 20.5184 29.9535 20.1874C30.648 19.8564 31.4485 19.6925 32.3552 19.6956C33.1018 19.6981 33.7548 19.807 34.3141 20.0222C34.8867 20.2375 35.3657 20.5391 35.751 20.9271C36.1364 21.3017 36.4283 21.7427 36.6265 22.25C36.8382 22.7574 36.943 23.2978 36.9411 23.8711C36.9382 24.7111 36.7288 25.5237 36.3128 26.309C35.8968 27.0809 35.2408 27.872 34.3447 28.6823C33.4487 29.4926 32.2724 30.362 30.8159 31.2904L30.8157 31.3304C30.9758 31.3043 31.1959 31.2917 31.4759 31.2926C31.7559 31.2803 32.0359 31.2745 32.3159 31.2755C32.596 31.2631 32.8227 31.2572 32.996 31.2578L37.156 31.2719L37.1497 33.1119L27.9698 33.0808Z" fill="#666666"/>
</g>
<defs>
<filter id="filter0_d_1318_956" x="0" y="0" width="64.9121" height="55.8586" filterUnits="userSpaceOnUse" color-interpolation-filters="sRGB">
<feFlood flood-opacity="0" result="BackgroundImageFix"/>
<feColorMatrix in="SourceAlpha" type="matrix" values="0 0 0 0 0 0 0 0 0 0 0 0 0 0 0 0 0 0 127 0" result="hardAlpha"/>
<feOffset/>
<feGaussianBlur stdDeviation="2"/>
<feComposite in2="hardAlpha" operator="out"/>
<feColorMatrix type="matrix" values="0 0 0 0 0 0 0 0 0 0 0 0 0 0 0 0 0 0 0.25 0"/>
<feBlend mode="normal" in2="BackgroundImageFix" result="effect1_dropShadow_1318_956"/>
<feBlend mode="normal" in="SourceGraphic" in2="effect1_dropShadow_1318_956" result="shape"/>
</filter>
</defs>
</svg>
