<svg width="173" height="56" viewBox="0 0 173 56" fill="none" xmlns="http://www.w3.org/2000/svg">
<path d="M57.984 22.94V29.452C57.984 30.8493 57.616 31.9 56.88 32.604C56.144 33.308 55.072 33.66 53.664 33.66C52.2773 33.66 51.2107 33.308 50.464 32.604C49.728 31.9 49.36 30.8493 49.36 29.452V22.94H51.072V29.244C51.072 30.236 51.2853 30.972 51.712 31.452C52.1387 31.932 52.7893 32.172 53.664 32.172C54.5493 32.172 55.2053 31.932 55.632 31.452C56.0587 30.972 56.272 30.236 56.272 29.244V22.94H57.984ZM60.6093 36.86V25.5H62.1293L62.2573 27.74L62.0333 27.468C62.1613 27.052 62.3586 26.684 62.6253 26.364C62.8919 26.044 63.2226 25.7933 63.6173 25.612C64.0226 25.4307 64.4653 25.34 64.9453 25.34C65.5959 25.34 66.1879 25.5053 66.7213 25.836C67.2546 26.1667 67.6759 26.6413 67.9853 27.26C68.2946 27.868 68.4493 28.6093 68.4493 29.484C68.4493 30.3587 68.2893 31.1107 67.9693 31.74C67.6599 32.3587 67.2333 32.8333 66.6893 33.164C66.1559 33.4947 65.5586 33.66 64.8973 33.66C64.2146 33.66 63.6333 33.484 63.1533 33.132C62.6733 32.7693 62.3319 32.3107 62.1293 31.756L62.3213 31.484V36.86H60.6093ZM64.5293 32.268C65.2226 32.268 65.7613 32.0227 66.1453 31.532C66.5399 31.0413 66.7373 30.364 66.7373 29.5C66.7373 28.636 66.5453 27.9587 66.1613 27.468C65.7773 26.9667 65.2439 26.716 64.5613 26.716C64.1133 26.716 63.7186 26.8333 63.3773 27.068C63.0466 27.292 62.7853 27.612 62.5933 28.028C62.4119 28.4333 62.3213 28.924 62.3213 29.5C62.3213 30.0653 62.4119 30.556 62.5933 30.972C62.7746 31.388 63.0306 31.708 63.3613 31.932C63.6919 32.156 64.0813 32.268 64.5293 32.268ZM73.7125 33.66C73.0512 33.66 72.4485 33.4947 71.9045 33.164C71.3712 32.8333 70.9498 32.3587 70.6405 31.74C70.3312 31.1213 70.1765 30.38 70.1765 29.516C70.1765 28.62 70.3418 27.8627 70.6725 27.244C71.0032 26.6253 71.4458 26.156 72.0005 25.836C72.5552 25.5053 73.1632 25.34 73.8245 25.34C74.5072 25.34 75.0832 25.5267 75.5525 25.9C76.0218 26.2733 76.3365 26.7587 76.4965 27.356L76.3045 27.532V21.9H78.0165V33.5H76.4965L76.3685 31.324L76.5925 31.34C76.5178 31.82 76.3418 32.236 76.0645 32.588C75.7872 32.9293 75.4405 33.196 75.0245 33.388C74.6192 33.5693 74.1818 33.66 73.7125 33.66ZM74.0805 32.284C74.5392 32.284 74.9338 32.1667 75.2645 31.932C75.5952 31.6973 75.8512 31.3667 76.0325 30.94C76.2138 30.5133 76.3045 30.0013 76.3045 29.404C76.3045 28.8493 76.2138 28.3747 76.0325 27.98C75.8512 27.5747 75.5952 27.2653 75.2645 27.052C74.9445 26.8387 74.5712 26.732 74.1445 26.732C73.4298 26.732 72.8752 26.9773 72.4805 27.468C72.0858 27.9587 71.8885 28.636 71.8885 29.5C71.8885 30.364 72.0805 31.0467 72.4645 31.548C72.8485 32.0387 73.3872 32.284 74.0805 32.284ZM85.2958 28.364C85.2958 27.8307 85.1464 27.42 84.8478 27.132C84.5598 26.8333 84.1598 26.684 83.6478 26.684C83.1678 26.684 82.7571 26.796 82.4158 27.02C82.0744 27.244 81.8238 27.6067 81.6638 28.108L80.2238 27.5C80.4264 26.8493 80.8211 26.3267 81.4078 25.932C82.0051 25.5373 82.7731 25.34 83.7118 25.34C84.3518 25.34 84.9171 25.4467 85.4078 25.66C85.8984 25.8627 86.2824 26.172 86.5598 26.588C86.8478 27.004 86.9918 27.5373 86.9918 28.188V31.756C86.9918 32.1507 87.1891 32.348 87.5838 32.348C87.7758 32.348 87.9624 32.3213 88.1438 32.268L88.0478 33.452C87.8024 33.5693 87.4931 33.628 87.1198 33.628C86.7784 33.628 86.4691 33.5693 86.1918 33.452C85.9251 33.324 85.7118 33.1373 85.5518 32.892C85.4024 32.636 85.3278 32.3213 85.3278 31.948V31.836L85.6798 31.82C85.5838 32.236 85.3864 32.5827 85.0878 32.86C84.7891 33.1267 84.4424 33.3293 84.0477 33.468C83.6531 33.596 83.2531 33.66 82.8478 33.66C82.3464 33.66 81.8931 33.58 81.4878 33.42C81.0931 33.26 80.7784 33.02 80.5438 32.7C80.3198 32.3693 80.2078 31.964 80.2078 31.484C80.2078 30.8867 80.3998 30.396 80.7838 30.012C81.1784 29.628 81.7331 29.3667 82.4478 29.228L85.5518 28.62L85.5358 29.82L83.2798 30.284C82.8318 30.3693 82.4958 30.492 82.2718 30.652C82.0478 30.812 81.9358 31.0467 81.9358 31.356C81.9358 31.6547 82.0478 31.8947 82.2718 32.076C82.5064 32.2467 82.8158 32.332 83.1998 32.332C83.4664 32.332 83.7224 32.3 83.9678 32.236C84.2238 32.172 84.4531 32.0707 84.6558 31.932C84.8584 31.7827 85.0131 31.596 85.1198 31.372C85.2371 31.1373 85.2958 30.86 85.2958 30.54V28.364ZM91.8203 23.148V31.1C91.8203 31.4947 91.9216 31.7827 92.1243 31.964C92.3376 32.1453 92.6203 32.236 92.9723 32.236C93.2603 32.236 93.5109 32.1933 93.7243 32.108C93.9376 32.012 94.1349 31.884 94.3163 31.724L94.7003 32.972C94.4549 33.1853 94.1509 33.356 93.7883 33.484C93.4363 33.6013 93.0416 33.66 92.6043 33.66C92.1456 33.66 91.7243 33.5853 91.3403 33.436C90.9563 33.2867 90.6576 33.0467 90.4443 32.716C90.2309 32.3747 90.1189 31.932 90.1083 31.388V23.628L91.8203 23.148ZM94.5723 25.5V26.844H88.5723V25.5H94.5723ZM99.7855 33.66C98.9855 33.66 98.2815 33.4947 97.6735 33.164C97.0655 32.8333 96.5908 32.3587 96.2495 31.74C95.9188 31.1107 95.7535 30.364 95.7535 29.5C95.7535 28.636 95.9188 27.8947 96.2495 27.276C96.5908 26.6467 97.0602 26.1667 97.6575 25.836C98.2548 25.5053 98.9322 25.34 99.6895 25.34C100.468 25.34 101.13 25.5 101.674 25.82C102.218 26.14 102.634 26.5773 102.922 27.132C103.21 27.6867 103.354 28.316 103.354 29.02C103.354 29.212 103.348 29.3933 103.338 29.564C103.327 29.7347 103.311 29.884 103.29 30.012H96.8575V28.7H102.538L101.69 28.956C101.69 28.2307 101.508 27.676 101.146 27.292C100.783 26.8973 100.287 26.7 99.6575 26.7C99.1988 26.7 98.7988 26.8067 98.4575 27.02C98.1162 27.2333 97.8548 27.5533 97.6735 27.98C97.4922 28.396 97.4015 28.908 97.4015 29.516C97.4015 30.1133 97.4975 30.62 97.6895 31.036C97.8815 31.452 98.1535 31.7667 98.5055 31.98C98.8575 32.1933 99.2735 32.3 99.7535 32.3C100.287 32.3 100.719 32.1987 101.05 31.996C101.38 31.7933 101.642 31.5107 101.834 31.148L103.194 31.788C103.002 32.172 102.74 32.508 102.41 32.796C102.09 33.0733 101.706 33.2867 101.258 33.436C100.81 33.5853 100.319 33.66 99.7855 33.66ZM114.559 22.78C115.508 22.78 116.329 22.9613 117.023 23.324C117.716 23.676 118.303 24.1987 118.783 24.892L117.631 25.996C117.225 25.3773 116.767 24.9347 116.255 24.668C115.753 24.3907 115.156 24.252 114.463 24.252C113.951 24.252 113.529 24.3213 113.199 24.46C112.868 24.5987 112.623 24.7853 112.463 25.02C112.313 25.244 112.239 25.5 112.239 25.788C112.239 26.1187 112.351 26.4067 112.575 26.652C112.809 26.8973 113.241 27.0893 113.871 27.228L116.015 27.708C117.039 27.932 117.764 28.2733 118.191 28.732C118.617 29.1907 118.831 29.772 118.831 30.476C118.831 31.1267 118.655 31.692 118.303 32.172C117.951 32.652 117.46 33.02 116.831 33.276C116.212 33.532 115.481 33.66 114.639 33.66C113.892 33.66 113.22 33.564 112.623 33.372C112.025 33.18 111.503 32.9187 111.055 32.588C110.607 32.2573 110.239 31.8787 109.951 31.452L111.135 30.268C111.359 30.6413 111.641 30.9773 111.983 31.276C112.324 31.564 112.719 31.788 113.167 31.948C113.625 32.108 114.132 32.188 114.687 32.188C115.177 32.188 115.599 32.1293 115.951 32.012C116.313 31.8947 116.585 31.724 116.767 31.5C116.959 31.2653 117.055 30.988 117.055 30.668C117.055 30.3587 116.948 30.0867 116.735 29.852C116.532 29.6173 116.148 29.436 115.583 29.308L113.263 28.78C112.623 28.6413 112.095 28.444 111.679 28.188C111.263 27.932 110.953 27.6227 110.751 27.26C110.548 26.8867 110.447 26.4707 110.447 26.012C110.447 25.4147 110.607 24.876 110.927 24.396C111.257 23.9053 111.732 23.516 112.351 23.228C112.969 22.9293 113.705 22.78 114.559 22.78ZM123.32 23.148V31.1C123.32 31.4947 123.422 31.7827 123.624 31.964C123.838 32.1453 124.12 32.236 124.472 32.236C124.76 32.236 125.011 32.1933 125.224 32.108C125.438 32.012 125.635 31.884 125.816 31.724L126.2 32.972C125.955 33.1853 125.651 33.356 125.288 33.484C124.936 33.6013 124.542 33.66 124.104 33.66C123.646 33.66 123.224 33.5853 122.84 33.436C122.456 33.2867 122.158 33.0467 121.944 32.716C121.731 32.3747 121.619 31.932 121.608 31.388V23.628L123.32 23.148ZM126.072 25.5V26.844H120.072V25.5H126.072ZM132.436 28.364C132.436 27.8307 132.287 27.42 131.988 27.132C131.7 26.8333 131.3 26.684 130.788 26.684C130.308 26.684 129.898 26.796 129.556 27.02C129.215 27.244 128.964 27.6067 128.804 28.108L127.364 27.5C127.567 26.8493 127.962 26.3267 128.548 25.932C129.146 25.5373 129.914 25.34 130.852 25.34C131.492 25.34 132.058 25.4467 132.548 25.66C133.039 25.8627 133.423 26.172 133.7 26.588C133.988 27.004 134.132 27.5373 134.132 28.188V31.756C134.132 32.1507 134.33 32.348 134.724 32.348C134.916 32.348 135.103 32.3213 135.284 32.268L135.188 33.452C134.943 33.5693 134.634 33.628 134.26 33.628C133.919 33.628 133.61 33.5693 133.332 33.452C133.066 33.324 132.852 33.1373 132.692 32.892C132.543 32.636 132.468 32.3213 132.468 31.948V31.836L132.82 31.82C132.724 32.236 132.527 32.5827 132.228 32.86C131.93 33.1267 131.583 33.3293 131.188 33.468C130.794 33.596 130.394 33.66 129.988 33.66C129.487 33.66 129.034 33.58 128.628 33.42C128.234 33.26 127.919 33.02 127.684 32.7C127.46 32.3693 127.348 31.964 127.348 31.484C127.348 30.8867 127.54 30.396 127.924 30.012C128.319 29.628 128.874 29.3667 129.588 29.228L132.692 28.62L132.676 29.82L130.42 30.284C129.972 30.3693 129.636 30.492 129.412 30.652C129.188 30.812 129.076 31.0467 129.076 31.356C129.076 31.6547 129.188 31.8947 129.412 32.076C129.647 32.2467 129.956 32.332 130.34 32.332C130.607 32.332 130.863 32.3 131.108 32.236C131.364 32.172 131.594 32.0707 131.796 31.932C131.999 31.7827 132.154 31.596 132.26 31.372C132.378 31.1373 132.436 30.86 132.436 30.54V28.364ZM138.961 23.148V31.1C138.961 31.4947 139.062 31.7827 139.265 31.964C139.478 32.1453 139.761 32.236 140.113 32.236C140.401 32.236 140.652 32.1933 140.865 32.108C141.078 32.012 141.276 31.884 141.457 31.724L141.841 32.972C141.596 33.1853 141.292 33.356 140.929 33.484C140.577 33.6013 140.182 33.66 139.745 33.66C139.286 33.66 138.865 33.5853 138.481 33.436C138.097 33.2867 137.798 33.0467 137.585 32.716C137.372 32.3747 137.26 31.932 137.249 31.388V23.628L138.961 23.148ZM141.713 25.5V26.844H135.713V25.5H141.713ZM146.254 33.66C145.731 33.66 145.246 33.564 144.798 33.372C144.361 33.18 144.009 32.8707 143.742 32.444C143.475 32.0173 143.342 31.4627 143.342 30.78V25.5H145.054V30.348C145.054 31.0733 145.209 31.5747 145.518 31.852C145.827 32.1187 146.259 32.252 146.814 32.252C147.081 32.252 147.337 32.2093 147.582 32.124C147.838 32.028 148.067 31.884 148.27 31.692C148.473 31.4893 148.627 31.2333 148.734 30.924C148.851 30.6147 148.91 30.252 148.91 29.836V25.5H150.622V33.5H149.118L149.038 32.204C148.761 32.7053 148.387 33.0733 147.918 33.308C147.449 33.5427 146.894 33.66 146.254 33.66ZM156.337 33.66C155.537 33.66 154.806 33.5053 154.145 33.196C153.483 32.8867 152.961 32.4493 152.577 31.884L153.761 30.86C153.995 31.2973 154.331 31.6493 154.769 31.916C155.217 32.172 155.75 32.3 156.369 32.3C156.859 32.3 157.249 32.2147 157.537 32.044C157.825 31.8733 157.969 31.6333 157.969 31.324C157.969 31.1213 157.899 30.9453 157.761 30.796C157.633 30.636 157.382 30.5133 157.009 30.428L155.329 30.076C154.475 29.9053 153.867 29.6333 153.505 29.26C153.142 28.876 152.961 28.3907 152.961 27.804C152.961 27.3667 153.089 26.9613 153.345 26.588C153.601 26.2147 153.974 25.916 154.465 25.692C154.966 25.4573 155.563 25.34 156.257 25.34C157.057 25.34 157.739 25.484 158.305 25.772C158.87 26.0493 159.302 26.4493 159.601 26.972L158.417 27.964C158.214 27.5373 157.915 27.2227 157.521 27.02C157.126 26.8067 156.715 26.7 156.289 26.7C155.947 26.7 155.654 26.7427 155.409 26.828C155.163 26.9133 154.977 27.0307 154.849 27.18C154.721 27.3293 154.657 27.5053 154.657 27.708C154.657 27.9213 154.737 28.108 154.897 28.268C155.057 28.428 155.345 28.5507 155.761 28.636L157.585 29.02C158.353 29.1693 158.891 29.4253 159.201 29.788C159.521 30.14 159.681 30.572 159.681 31.084C159.681 31.596 159.547 32.0493 159.281 32.444C159.014 32.828 158.63 33.1267 158.129 33.34C157.627 33.5533 157.03 33.66 156.337 33.66Z" fill="#666666"/>
<path fill-rule="evenodd" clip-rule="evenodd" d="M30 30.3333V22.8667C30 22.3716 29.8156 21.8968 29.4874 21.5467C29.1592 21.1967 28.7141 21 28.25 21H17.75C17.2859 21 16.8408 21.1967 16.5126 21.5467C16.1844 21.8968 16 22.3716 16 22.8667V30.3333C16 30.8284 16.1844 31.3032 16.5126 31.6533C16.8408 32.0033 17.2859 32.2 17.75 32.2H20.375L23 35L25.625 32.2H28.25C28.7141 32.2 29.1592 32.0033 29.4874 31.6533C29.8156 31.3032 30 30.8284 30 30.3333ZM18.625 24.7333C18.625 24.4858 18.7172 24.2484 18.8813 24.0734C19.0454 23.8983 19.2679 23.8 19.5 23.8H26.5C26.7321 23.8 26.9546 23.8983 27.1187 24.0734C27.2828 24.2484 27.375 24.4858 27.375 24.7333C27.375 24.9809 27.2828 25.2183 27.1187 25.3933C26.9546 25.5683 26.7321 25.6667 26.5 25.6667H19.5C19.2679 25.6667 19.0454 25.5683 18.8813 25.3933C18.7172 25.2183 18.625 24.9809 18.625 24.7333ZM19.5 27.5333C19.2679 27.5333 19.0454 27.6317 18.8813 27.8067C18.7172 27.9817 18.625 28.2191 18.625 28.4667C18.625 28.7142 18.7172 28.9516 18.8813 29.1266C19.0454 29.3017 19.2679 29.4 19.5 29.4H22.125C22.3571 29.4 22.5796 29.3017 22.7437 29.1266C22.9078 28.9516 23 28.7142 23 28.4667C23 28.2191 22.9078 27.9817 22.7437 27.8067C22.5796 27.6317 22.3571 27.5333 22.125 27.5333H19.5Z" fill="#666666"/>
</svg>
