<svg width="27" height="28" viewBox="0 0 27 28" fill="none" xmlns="http://www.w3.org/2000/svg">
<path fill-rule="evenodd" clip-rule="evenodd" d="M13.0667 11.2C14.1742 11.2 15.2569 10.8716 16.1779 10.2562C17.0988 9.6409 17.8165 8.7663 18.2404 7.74303C18.6642 6.71976 18.7751 5.59379 18.5591 4.5075C18.343 3.4212 17.8096 2.42338 17.0265 1.6402C16.2433 0.857031 15.2455 0.323682 14.1592 0.107605C13.0729 -0.108472 11.9469 0.0024264 10.9236 0.426277C9.90037 0.850128 9.02577 1.56789 8.41044 2.48881C7.7951 3.40972 7.46667 4.49243 7.46667 5.6C7.46667 7.08521 8.05666 8.5096 9.10687 9.5598C10.1571 10.61 11.5815 11.2 13.0667 11.2ZM0 28C5.16399e-08 24.5345 1.37666 21.2109 3.82714 18.7605C6.27761 16.31 9.60117 14.9333 13.0667 14.9333C16.5322 14.9333 19.8557 16.31 22.3062 18.7605C24.7567 21.2109 26.1333 24.5345 26.1333 28H0Z" fill="#E2E6FE"/>
</svg>
