<svg width="16" height="13" viewBox="0 0 16 13" fill="none" xmlns="http://www.w3.org/2000/svg">
<path d="M10.4549 2.72725C10.4549 3.21271 10.3109 3.68728 10.0412 4.09092C9.77153 4.49457 9.38818 4.80918 8.93967 4.99496C8.49116 5.18073 7.99763 5.22934 7.5215 5.13463C7.04536 5.03992 6.608 4.80615 6.26473 4.46288C5.92146 4.1196 5.68768 3.68224 5.59297 3.20611C5.49826 2.72997 5.54687 2.23645 5.73265 1.78794C5.91843 1.33943 6.23304 0.956079 6.63668 0.686371C7.04033 0.416662 7.51489 0.272705 8.00036 0.272705C8.65134 0.272705 9.27566 0.531308 9.73598 0.991625C10.1963 1.45194 10.4549 2.07626 10.4549 2.72725ZM14.5458 4.36361C14.5458 4.68726 14.4498 5.00363 14.27 5.27273C14.0902 5.54183 13.8347 5.75156 13.5357 5.87542C13.2366 5.99927 12.9076 6.03167 12.5902 5.96854C12.2728 5.9054 11.9812 5.74955 11.7524 5.5207C11.5235 5.29185 11.3677 5.00028 11.3045 4.68285C11.2414 4.36543 11.2738 4.03641 11.3976 3.7374C11.5215 3.4384 11.7312 3.18283 12.0003 3.00303C12.2694 2.82322 12.5858 2.72725 12.9094 2.72725C13.3434 2.72725 13.7597 2.89965 14.0665 3.20653C14.3734 3.51341 14.5458 3.92962 14.5458 4.36361ZM11.2731 10.0909C11.2731 9.22291 10.9283 8.39047 10.3145 7.77672C9.70077 7.16296 8.86834 6.81816 8.00036 6.81816C7.13237 6.81816 6.29994 7.16296 5.68619 7.77672C5.07243 8.39047 4.72763 9.22291 4.72763 10.0909V12.5454H11.2731V10.0909ZM4.72763 4.36361C4.72763 4.68726 4.63166 5.00363 4.45185 5.27273C4.27205 5.54183 4.01648 5.75156 3.71747 5.87542C3.41847 5.99927 3.08945 6.03167 2.77203 5.96854C2.4546 5.9054 2.16303 5.74955 1.93418 5.5207C1.70533 5.29185 1.54948 5.00028 1.48634 4.68285C1.4232 4.36543 1.45561 4.03641 1.57946 3.7374C1.70331 3.4384 1.91305 3.18283 2.18215 3.00303C2.45125 2.82322 2.76762 2.72725 3.09126 2.72725C3.52525 2.72725 3.94147 2.89965 4.24835 3.20653C4.55523 3.51341 4.72763 3.92962 4.72763 4.36361ZM12.9094 12.5454V10.0909C12.9106 9.25903 12.6994 8.44064 12.2958 7.71325C12.6585 7.62042 13.0377 7.61167 13.4043 7.68766C13.771 7.76365 14.1154 7.92237 14.4114 8.15172C14.7073 8.38107 14.947 8.67499 15.1121 9.01106C15.2772 9.34713 15.3633 9.71646 15.364 10.0909V12.5454H12.9094ZM3.7049 7.71325C3.30133 8.44065 3.09012 9.25903 3.09126 10.0909V12.5454H0.636719V10.0909C0.636561 9.71619 0.722189 9.34644 0.887039 9.00995C1.05189 8.67347 1.29159 8.3792 1.58776 8.14968C1.88393 7.92017 2.22872 7.76151 2.5957 7.68586C2.96268 7.61021 3.3421 7.61958 3.7049 7.71325Z" fill="#666666"/>
</svg>
