<svg width="99" height="92" viewBox="0 0 99 92" fill="none" xmlns="http://www.w3.org/2000/svg">
<path d="M97.2347 44.2538C99.1873 46.2064 99.1924 49.3795 97.1758 51.266C73.0119 73.8711 42.0439 87.8537 9.1077 91.0303C6.35902 91.2953 3.98224 89.1932 3.80885 86.4372L0.0100243 26.0566C-0.163377 23.3006 1.93381 20.9421 4.67345 20.5959C20.4788 18.5985 35.3242 11.8956 47.2746 1.36069C49.3461 -0.465392 52.5021 -0.478789 54.4547 1.47383L97.2347 44.2538Z" fill="#7D67EE"/>
<path d="M54.257 39.1235C54.5527 39.001 54.8381 38.9376 55.1134 38.9333C55.3887 38.9289 55.6331 38.9894 55.8466 39.1145C56.0601 39.2397 56.2199 39.4304 56.326 39.6866C56.4362 39.9527 56.4621 40.2104 56.4037 40.4597C56.3425 40.716 56.1805 40.9591 55.9179 41.1891C55.6573 41.4241 55.2757 41.6456 54.7731 41.8538L50.9963 43.4181L50.782 42.9008L54.6105 41.315C54.8618 41.2109 55.0701 41.1073 55.2352 41.0043C55.3954 40.9033 55.5228 40.7928 55.6174 40.6728C55.6993 40.5639 55.748 40.4513 55.7634 40.3353C55.7759 40.2262 55.7526 40.1002 55.6934 39.9573C55.5995 39.7306 55.4345 39.5969 55.1983 39.5562C54.9641 39.5205 54.7041 39.5618 54.4183 39.6801C54.2015 39.7699 54.03 39.8785 53.9038 40.0058C53.7747 40.1401 53.7019 40.3059 53.6855 40.5032C53.6662 40.7075 53.7167 40.955 53.8372 41.2457L54.6607 43.2339L55.9319 42.7073L55.3809 41.3769L55.9158 41.0168L56.7362 42.9976L52.8707 44.5987L52.6503 44.0666L54.0324 43.4941L53.2487 41.602C53.112 41.2718 53.0344 41.0009 53.016 40.7892C52.9926 40.5795 53.0061 40.3891 53.0566 40.2182C53.1317 39.9677 53.2737 39.753 53.4825 39.5742C53.6884 39.4023 53.9466 39.2521 54.257 39.1235ZM51.5517 40.3479L52.3935 42.3805L51.7556 42.5754L50.9382 40.602L51.5517 40.3479Z" fill="#FFB743"/>
<path d="M47.8476 41.7782C48.1432 41.6558 48.4287 41.5924 48.704 41.588C48.9793 41.5837 49.2236 41.6441 49.4371 41.7693C49.6506 41.8944 49.8104 42.0851 49.9165 42.3414C50.0267 42.6074 50.0527 42.8651 49.9943 43.1144C49.933 43.3707 49.7711 43.6139 49.5084 43.8439C49.2478 44.0788 48.8662 44.3004 48.3636 44.5086L47.0332 45.0596C46.777 45.1657 46.5502 45.2452 46.3527 45.2982C46.1553 45.3511 45.9764 45.379 45.8159 45.3819C45.6526 45.3919 45.496 45.3759 45.3459 45.3342C45.177 45.2887 45.0219 45.2 44.8806 45.068C44.7414 44.9409 44.6289 44.7739 44.5432 44.567C44.3881 44.1925 44.381 43.8548 44.522 43.554C44.658 43.2552 44.9305 43.0211 45.3394 42.8517C45.4528 42.8048 45.579 42.7611 45.7182 42.7208C45.8573 42.6805 45.9907 42.6541 46.1183 42.6417L46.183 43.195C46.101 43.2059 46.01 43.2234 45.9103 43.2474C45.8056 43.2734 45.7065 43.3058 45.6129 43.3446C45.3813 43.4405 45.2298 43.5696 45.1585 43.7319C45.0823 43.8963 45.0931 44.0967 45.1911 44.3332C45.2605 44.5008 45.3525 44.6185 45.4673 44.6864C45.584 44.7593 45.7142 44.7949 45.8578 44.7931C45.9965 44.7934 46.1452 44.7693 46.3041 44.7208C46.4601 44.6793 46.6145 44.6269 46.7672 44.5636L48.2011 43.9697C48.4524 43.8657 48.6606 43.7621 48.8257 43.6591C48.986 43.5581 49.1134 43.4476 49.208 43.3276C49.2899 43.2186 49.3385 43.1061 49.3539 42.99C49.3665 42.8809 49.3431 42.7549 49.284 42.612C49.1901 42.3854 49.025 42.2517 48.7888 42.211C48.5546 42.1752 48.2946 42.2165 48.0088 42.3349C47.792 42.4247 47.6205 42.5332 47.4943 42.6606C47.3652 42.7948 47.2924 42.9606 47.276 43.1579C47.2547 43.3573 47.3052 43.6048 47.4277 43.9004L48.2512 45.8886L49.5225 45.3621L48.9714 44.0317L49.5063 43.6716L50.3268 45.6524L46.4612 47.2535L46.2408 46.7213L47.623 46.1488L46.8392 44.2567C46.7025 43.9266 46.6249 43.6556 46.6065 43.4439C46.5832 43.2342 46.5967 43.0439 46.6471 42.8729C46.7223 42.6224 46.8643 42.4077 47.0731 42.2289C47.279 42.057 47.5371 41.9068 47.8476 41.7782ZM48.696 47.4016C48.8389 47.3424 48.9755 47.3377 49.1059 47.3877C49.2383 47.4425 49.3351 47.5438 49.3963 47.6917C49.4555 47.8346 49.4577 47.9722 49.4028 48.1046C49.348 48.237 49.2491 48.3328 49.1062 48.392C48.9633 48.4512 48.8257 48.4533 48.6933 48.3985C48.5609 48.3436 48.4651 48.2448 48.4059 48.1019C48.3447 47.9541 48.3415 47.8139 48.3963 47.6815C48.4532 47.5541 48.5531 47.4608 48.696 47.4016Z" fill="#FFB743"/>
<path d="M41.3579 42.7344L41.9415 42.9516L41.0752 44.895L42.4773 48.2801L43.9038 47.6893L42.4282 44.1268L43.0639 43.8635L44.7598 47.9582L40.8056 49.596L40.5852 49.0638L41.8417 48.5434L40.3661 44.9809L41.3579 42.7344Z" fill="#FFB743"/>
<path d="M37.3404 46.1302C37.6016 46.022 37.8671 45.9871 38.137 46.0254C38.4089 46.0687 38.666 46.2017 38.9084 46.4246C39.1459 46.6495 39.3565 46.9837 39.5402 47.4272C39.7422 47.915 39.8108 48.3801 39.7458 48.8227C39.678 49.2722 39.4893 49.6736 39.1796 50.027C38.872 50.3853 38.457 50.6727 37.9347 50.889C37.6982 50.987 37.4658 51.0601 37.2376 51.1085C37.0065 51.1638 36.7761 51.1928 36.5464 51.1956C36.3186 51.2033 36.0832 51.1854 35.84 51.1418L35.3714 50.9722C35.0144 50.8488 34.6876 50.6522 34.3911 50.3824C34.0967 50.1176 33.8658 49.7832 33.6985 49.3791C33.5617 49.049 33.4967 48.7527 33.5034 48.4901C33.5073 48.2345 33.5769 48.0123 33.7122 47.8235C33.8447 47.6416 34.0341 47.4996 34.2805 47.3976C34.5663 47.2792 34.8269 47.2463 35.0623 47.2989C35.2927 47.3536 35.4972 47.4709 35.6757 47.651C35.8513 47.838 35.9973 48.072 36.1136 48.3528C36.2217 48.614 36.2967 48.8716 36.3384 49.1256C36.3752 49.3817 36.3798 49.6367 36.3522 49.8906C36.3246 50.1445 36.2648 50.3973 36.1727 50.649L35.9287 51.1051C35.8176 51.255 35.6916 51.3967 35.5506 51.5301C35.4096 51.6636 35.228 51.7965 35.0057 51.929C34.7806 52.0684 34.4882 52.2126 34.1285 52.3616L31.9186 53.2769L31.6982 52.7448L32.9546 52.2243L31.4791 48.6618L32.1147 48.3986L33.5903 51.9611L34.0781 51.759C34.2407 51.6917 34.3904 51.621 34.5271 51.547C34.666 51.478 34.7933 51.4022 34.9092 51.3195C35.0271 51.2418 35.135 51.1539 35.2328 51.0556C35.3306 50.9574 35.4199 50.8453 35.5006 50.7196C35.6203 50.5487 35.6946 50.3448 35.7234 50.1077C35.7543 49.8756 35.7503 49.629 35.7114 49.368C35.6697 49.114 35.5999 48.8687 35.5019 48.6322C35.3611 48.2922 35.2063 48.0648 35.0375 47.95C34.8687 47.8351 34.6932 47.8155 34.5109 47.891C34.3581 47.9543 34.2592 48.0501 34.2143 48.1784C34.1643 48.3087 34.1517 48.4525 34.1764 48.6097C34.2011 48.7669 34.2441 48.9194 34.3053 49.0672C34.4665 49.4564 34.6878 49.7747 34.9691 50.0218C35.2476 50.2759 35.5756 50.4547 35.9532 50.558C36.2522 50.6247 36.5529 50.633 36.8553 50.5827C37.1578 50.5325 37.4667 50.4421 37.7821 50.3114C38.1467 50.1604 38.437 49.9623 38.6529 49.717C38.8688 49.4717 39.0101 49.1996 39.0767 48.9006C39.1385 48.6037 39.1318 48.2948 39.0565 47.9738C39.0309 47.8979 39.0062 47.8244 38.9825 47.7534C38.9609 47.6873 38.942 47.6345 38.9256 47.5951C38.793 47.2748 38.6499 47.0339 38.4964 46.8723C38.338 46.7128 38.1773 46.6177 38.0145 46.587C37.8468 46.5583 37.6816 46.5777 37.519 46.645C37.386 46.7001 37.2839 46.7742 37.2127 46.8672C37.1387 46.9671 37.0994 47.0815 37.0951 47.2103C37.0858 47.3411 37.1138 47.4854 37.1791 47.6431C37.2811 47.8895 37.4227 48.0502 37.6039 48.1252C37.7871 48.2052 37.9797 48.2033 38.1818 48.1197C38.3789 48.038 38.5422 47.9098 38.6718 47.7349C38.8014 47.5599 38.905 47.3641 38.9826 47.1472L39.2894 47.5743C39.213 47.808 39.0888 48.0239 38.9169 48.2221C38.7421 48.4273 38.534 48.5799 38.2926 48.6799C37.9378 48.8268 37.6071 48.8368 37.3005 48.7098C36.989 48.5848 36.7567 48.3376 36.6036 47.968C36.4914 47.697 36.4462 47.4415 36.468 47.2016C36.4898 46.9616 36.5754 46.7501 36.7247 46.5671C36.8691 46.386 37.0743 46.2404 37.3404 46.1302ZM36.7254 52.3597C36.8683 52.3005 37.005 52.2959 37.1353 52.3458C37.2677 52.4006 37.3645 52.502 37.4257 52.6498C37.4849 52.7927 37.4871 52.9303 37.4323 53.0627C37.3774 53.1951 37.2785 53.2909 37.1357 53.3501C36.9928 53.4093 36.8551 53.4114 36.7227 53.3566C36.5903 53.3018 36.4945 53.2029 36.4353 53.06C36.3741 52.9122 36.3709 52.7721 36.4258 52.6397C36.4827 52.5122 36.5825 52.4189 36.7254 52.3597Z" fill="#FFB743"/>
<path d="M64.7742 57.5746L64.2784 47.7063L65.4457 47.1958L72.3677 54.2535L71.2646 54.736L66.5516 49.8293L65.278 48.3846L65.4685 50.2878L65.8773 57.0921L64.7742 57.5746Z" fill="#E2E6FE"/>
<path d="M57.3658 50.5768C57.973 50.3112 58.574 50.2063 59.1688 50.2619C59.755 50.3213 60.2891 50.5411 60.7712 50.9211C61.2569 51.3097 61.6512 51.8503 61.9542 52.5429C62.2571 53.2356 62.3845 53.8879 62.3363 54.4998C62.2919 55.1203 62.0967 55.664 61.7509 56.1311C61.4051 56.5981 60.9371 56.9606 60.3471 57.2187C59.7485 57.4805 59.1836 57.5748 58.6524 57.5015C58.1127 57.4319 57.6344 57.2234 57.2176 56.876C56.8045 56.5371 56.4783 56.0941 56.2389 55.5468C56.1753 55.4014 56.1217 55.267 56.0778 55.1435C56.034 55.0201 56.0001 54.9076 55.9761 54.806L61.1581 52.5396L61.5564 53.4504L56.8233 55.5204L57.3043 55.1878C57.5736 55.8035 57.9522 56.2033 58.4401 56.3872C58.9195 56.5748 59.4328 56.549 59.9801 56.3096C60.3991 56.1263 60.7195 55.8691 60.9413 55.5377C61.1583 55.2187 61.272 54.8379 61.2822 54.3954C61.2876 53.9652 61.1781 53.4936 60.9537 52.9805C60.733 52.476 60.4568 52.0773 60.1249 51.7844C59.7931 51.4915 59.4302 51.314 59.0364 51.2519C58.6377 51.2022 58.2203 51.2727 57.7842 51.4634C57.3139 51.6691 56.9726 51.9253 56.7604 52.2321C56.5396 52.5425 56.4068 52.891 56.3619 53.2774L55.3462 53.1562C55.3815 52.7944 55.4807 52.4505 55.6437 52.1245C55.7982 51.8023 56.0203 51.5065 56.31 51.2372C56.5949 50.9802 56.9468 50.76 57.3658 50.5768Z" fill="#E2E6FE"/>
<path d="M52.6997 52.7703L55.5047 59.1838L54.6068 59.5764L53.8887 58.1791L54.1172 58.2473C54.1299 58.6492 54.0658 59.0032 53.9246 59.3094C53.7872 59.6242 53.5895 59.894 53.3313 60.119C53.0646 60.3477 52.7688 60.5331 52.4438 60.6752C51.9821 60.8772 51.5238 60.9706 51.069 60.9556C50.6179 60.9492 50.2027 60.815 49.8233 60.553C49.4353 60.2949 49.1198 59.8879 48.8767 59.332L47.0816 55.2274L48.1077 54.7786L49.7458 58.5241C50.0562 59.2338 50.4252 59.6582 50.8527 59.7972C51.2754 59.9485 51.7091 59.9269 52.1538 59.7325C52.4616 59.5978 52.7377 59.3905 52.9819 59.1105C53.2262 58.8305 53.3799 58.4831 53.443 58.0684C53.4976 57.6575 53.4052 57.1783 53.1658 56.631L51.6736 53.2191L52.6997 52.7703Z" fill="#E2E6FE"/>
<path d="M42.3803 57.1307C42.7908 56.9512 43.2135 56.858 43.6485 56.8511C44.075 56.848 44.4785 56.9669 44.859 57.208C45.2346 57.4614 45.544 57.866 45.7871 58.4218L47.6272 62.629L46.601 63.0778L44.8788 59.1399C44.5945 58.49 44.2571 58.1028 43.8664 57.9782C43.4795 57.8622 43.0295 57.9164 42.5165 58.1408C42.277 58.2455 42.0587 58.3869 41.8615 58.5648C41.668 58.7513 41.5189 58.9693 41.4141 59.2189C41.3045 59.4807 41.2582 59.7709 41.2753 60.0894C41.2838 60.4117 41.3703 60.761 41.5349 61.1372L43.0608 64.6261L42.0346 65.0749L39.2297 58.6615L40.1276 58.2688L40.6181 59.2156C40.6721 58.7335 40.8522 58.3186 41.1585 57.9707C41.46 57.6351 41.8672 57.3551 42.3803 57.1307Z" fill="#E2E6FE"/>
<path d="M34.4765 60.5875C35.1008 60.3144 35.736 60.1945 36.3821 60.2278C37.0196 60.2647 37.5861 60.4652 38.0815 60.8292L37.4841 61.8392C37.124 61.5281 36.7157 61.3399 36.2593 61.2747C35.7944 61.2132 35.3054 61.2946 34.7923 61.519C34.3391 61.7172 34.0216 61.9579 33.8398 62.2412C33.6618 62.5329 33.6345 62.8199 33.758 63.1021C33.8365 63.2817 33.9674 63.418 34.1507 63.511C34.3292 63.6163 34.5959 63.6321 34.9507 63.5584L36.6302 63.2059C37.3106 63.0611 37.853 63.0786 38.2575 63.2582C38.6535 63.4415 38.9488 63.7556 39.1432 64.2002C39.2966 64.5508 39.3385 64.9145 39.269 65.2913C39.1909 65.6718 39.0054 66.0279 38.7125 66.3598C38.4148 66.7039 38.0136 66.9863 37.5091 67.207C36.8763 67.4837 36.2876 67.5935 35.7431 67.5362C35.1985 67.479 34.7202 67.2705 34.3082 66.9108L34.9208 65.9705C35.2307 66.2832 35.5856 66.454 35.9853 66.4829C36.3888 66.5204 36.7658 66.4624 37.1164 66.3091C37.4243 66.1744 37.6707 66.0158 37.8556 65.833C38.032 65.654 38.1464 65.4613 38.1988 65.2551C38.2464 65.0611 38.229 64.87 38.1467 64.6819C38.0645 64.4938 37.9237 64.3465 37.7243 64.2401C37.5287 64.1423 37.2407 64.1359 36.8602 64.2208L35.1109 64.5885C34.46 64.7306 33.955 64.7172 33.5959 64.5482C33.2367 64.3793 32.9712 64.0982 32.7991 63.7048C32.6234 63.3029 32.575 62.9013 32.6542 62.4999C32.7371 62.1072 32.9354 61.7454 33.2491 61.4146C33.5629 61.0838 33.972 60.8081 34.4765 60.5875Z" fill="#E2E6FE"/>
</svg>
