<svg width="32" height="32" viewBox="0 0 32 32" fill="none" xmlns="http://www.w3.org/2000/svg">
<mask id="mask0_1333_850" style="mask-type:luminance" maskUnits="userSpaceOnUse" x="2" y="2" width="28" height="28">
<path d="M2 2H30V30H2V2Z" fill="white"/>
</mask>
<g mask="url(#mask0_1333_850)">
<path d="M21.9405 23.3404C20.3651 24.9158 18.2283 25.8009 16.0003 25.8009C13.7723 25.8009 11.6356 24.9158 10.0601 23.3404C8.48468 21.765 7.59961 19.6282 7.59961 17.4002C7.59961 15.1722 8.48468 13.0354 10.0601 11.46C10.0601 14.6002 10.4003 17.4002 14.6003 18.8002C14.6003 16.0002 16.0003 7.6002 18.1003 6.2002C19.0092 8.19609 20.3154 9.98579 21.9391 11.46C22.7193 12.24 23.3382 13.1661 23.7604 14.1853C24.1826 15.2046 24.3999 16.297 24.3999 17.4002C24.3999 18.5034 24.1826 19.5958 23.7604 20.6151C23.3382 21.6343 22.7193 22.5604 21.9391 23.3404H21.9405Z" fill="#FEFEFA"/>
<path d="M13.0304 23.1695C13.4178 23.5706 13.8813 23.8906 14.3937 24.1107C14.9061 24.3308 15.4573 24.4467 16.0149 24.4516C16.5726 24.4564 17.1257 24.3501 17.6418 24.139C18.158 23.9278 18.6269 23.6159 19.0213 23.2216C19.4156 22.8272 19.7275 22.3583 19.9387 21.8421C20.1498 21.3259 20.2561 20.7729 20.2513 20.2152C20.2464 19.6575 20.1306 19.1064 19.9104 18.594C19.6903 18.0816 19.3704 17.6181 18.9692 17.2307C18.1574 16.4932 17.5044 15.5982 17.0498 14.6001C15.9998 15.3001 15.2998 19.5001 15.2998 20.9001C14.0941 20.9485 12.8942 20.7085 11.7998 20.2001C11.799 20.7517 11.9073 21.2981 12.1185 21.8077C12.3297 22.3173 12.6396 22.7801 13.0304 23.1695Z" fill="#FEFEFA"/>
</g>
</svg>
