<svg width="19" height="14" viewBox="0 0 19 14" fill="none" xmlns="http://www.w3.org/2000/svg">
<path fill-rule="evenodd" clip-rule="evenodd" d="M18.4296 3.40121C18.4296 3.40121 18.2539 2.1605 17.713 1.61573C17.0278 0.899201 16.2604 0.894561 15.9096 0.853049C13.3927 0.669678 9.61244 0.669678 9.61244 0.669678H9.6058C9.6058 0.669678 5.82722 0.669678 3.30893 0.853049C2.95681 0.895883 2.19047 0.898892 1.5055 1.61573C0.964387 2.1605 0.792322 3.40121 0.792322 3.40121C0.792322 3.40121 0.613281 4.85716 0.613281 6.31611V7.6804C0.613281 9.13635 0.792322 10.5953 0.792322 10.5953C0.792322 10.5953 0.968043 11.836 1.5055 12.3818C2.19047 13.0983 3.09068 13.075 3.49264 13.1515C4.93365 13.289 9.61376 13.3305 9.61376 13.3305C9.61376 13.3305 13.3973 13.3238 15.9143 13.1438C16.2664 13.1023 17.0324 13.098 17.7177 12.3811C18.2588 11.8363 18.4342 10.5943 18.4342 10.5943C18.4342 10.5943 18.6133 9.13838 18.6133 7.67939V6.31513C18.6096 4.85915 18.4306 3.40023 18.4306 3.40023L18.4296 3.40121ZM7.7479 9.33567V4.27687L12.6104 6.81473L7.7479 9.33567Z" fill="#666666"/>
</svg>
