<?xml version="1.0" encoding="UTF-8"?>
<svg id="Layer_2" data-name="Layer 2" xmlns="http://www.w3.org/2000/svg" viewBox="0 0 275.38 400">
  <defs>
    <style>
      .cls-1 {
        fill: #1d1d1f;
      }
    </style>
  </defs>
  <g id="assets">
    <path class="cls-1" d="m275.37,109.9c.07,2.03-.42,4.03-1.41,5.8l-15.07,26.93c-.12.22-.25.43-.4.64l-46.99,66.81c-.3.44-.65.83-1.04,1.19l-13.11,11.98c-.85.78-1.51,1.75-1.92,2.84l-21.22,57.07c-.08.22-.16.45-.22.68l-29.3,110.77c-.84,3.18-3.74,5.41-7.03,5.41s-6.19-2.23-7.03-5.41l-29.3-110.77c-.06-.23-.13-.46-.22-.68l-21.22-57.07c-.4-1.08-1.06-2.06-1.92-2.84l-13.11-11.98c-.39-.36-.74-.75-1.04-1.19l-46.99-66.81c-.15-.21-.28-.42-.4-.64L1.42,115.81c-1.03-1.83-1.51-3.92-1.4-6.02l1.4-26.57c.07-1.28.35-2.54.83-3.73L32.84,3.86c.09-.23.21-.46.35-.67,4.16-6.18,14.01-2.75,13.25,4.83l-4.89,79.98c-.28,2.82,1.1,5.56,3.55,6.99l13.88,8.17c.47.27.91.6,1.3.98l28.91,27.3c2.89,2.74,7.45,2.64,10.22-.23l12.02-12.41c1.22-1.26,1.94-2.92,2.03-4.66v-.16c.07-1.11.39-2.19.93-3.16l16.92-30.21c2.78-4.96,9.92-4.96,12.69,0l16.92,30.21c.54.97.85,2.05.92,3.16v.16c.11,1.75.83,3.41,2.04,4.66l12.02,12.41c2.77,2.87,7.33,2.97,10.22.23l28.91-27.3c.4-.38.83-.71,1.3-.98l13.88-8.17c2.45-1.44,3.84-4.17,3.55-6.99l-4.89-79.98c-.34-3.37,1.72-6.55,4.92-7.62,3.09-1.04,6.5.13,8.32,2.8.14.21.25.43.35.67,10.25,25.34,20.5,50.68,30.76,76.02.4.99.65,2.02.76,3.08.68,6.73,1.18,20.71,1.39,26.93Z"/>
  </g>
</svg>